<?xml version="1.0" encoding="UTF-8" standalone="no"?>
<!DOCTYPE svg PUBLIC "-//W3C//DTD SVG 1.1//EN"
 "http://www.w3.org/Graphics/SVG/1.1/DTD/svg11.dtd">
<!-- Generated by graphviz version 2.40.1 (20161225.0304)
 -->
<!-- Title: G Pages: 1 -->
<svg width="759pt" height="50pt"
 viewBox="0.00 0.00 759.01 49.60" xmlns="http://www.w3.org/2000/svg" xmlns:xlink="http://www.w3.org/1999/xlink">
<g id="graph0" class="graph" transform="scale(1 1) rotate(0) translate(4 45.6)">
<title>G</title>
<polygon fill="#ffffff" stroke="transparent" points="-4,4 -4,-45.6 755.0148,-45.6 755.0148,4 -4,4"/>
<!-- ThermistorSensor -->
<g id="node1" class="node">
<title>ThermistorSensor</title>
<polygon fill="none" stroke="#000000" points="248.4174,-38.8 .194,-38.8 .194,-2.8 248.4174,-2.8 248.4174,-38.8"/>
<text text-anchor="middle" x="124.3057" y="-16.6" font-family="Times,serif" font-size="14.00" fill="#000000">NTC Thermistor + Linearization Resistor</text>
</g>
<!-- SignalConditioning -->
<g id="node2" class="node">
<title>SignalConditioning</title>
<polygon fill="none" stroke="#000000" points="430.3139,-41.4019 284.3767,-41.4019 284.3767,-.1981 430.3139,-.1981 430.3139,-41.4019"/>
<text text-anchor="middle" x="357.3453" y="-25" font-family="Times,serif" font-size="14.00" fill="#000000">Signal Conditioning</text>
<text text-anchor="middle" x="357.3453" y="-8.2" font-family="Times,serif" font-size="14.00" fill="#000000">(Bridge Configuration)</text>
</g>
<!-- ThermistorSensor&#45;&gt;SignalConditioning -->
<g id="edge1" class="edge">
<title>ThermistorSensor&#45;&gt;SignalConditioning</title>
<path fill="none" stroke="#000000" d="M248.6717,-20.8C257.3847,-20.8 266.039,-20.8 274.4385,-20.8"/>
<polygon fill="#000000" stroke="#000000" points="274.5444,-24.3001 284.5444,-20.8 274.5444,-17.3001 274.5444,-24.3001"/>
</g>
<!-- VoltageAmplification -->
<g id="node3" class="node">
<title>VoltageAmplification</title>
<polygon fill="none" stroke="#000000" points="585.1119,-41.4019 466.0683,-41.4019 466.0683,-.1981 585.1119,-.1981 585.1119,-41.4019"/>
<text text-anchor="middle" x="525.5901" y="-25" font-family="Times,serif" font-size="14.00" fill="#000000">Voltage Amplifier</text>
<text text-anchor="middle" x="525.5901" y="-8.2" font-family="Times,serif" font-size="14.00" fill="#000000">(Gain = 10 V/°C)</text>
</g>
<!-- SignalConditioning&#45;&gt;VoltageAmplification -->
<g id="edge2" class="edge">
<title>SignalConditioning&#45;&gt;VoltageAmplification</title>
<path fill="none" stroke="#000000" d="M430.1614,-20.8C438.685,-20.8 447.3662,-20.8 455.8466,-20.8"/>
<polygon fill="#000000" stroke="#000000" points="456.0671,-24.3001 466.067,-20.8 456.067,-17.3001 456.0671,-24.3001"/>
</g>
<!-- OutputStage -->
<g id="node4" class="node">
<title>OutputStage</title>
<polygon fill="none" stroke="#000000" points="750.9717,-41.4019 621.1441,-41.4019 621.1441,-.1981 750.9717,-.1981 750.9717,-41.4019"/>
<text text-anchor="middle" x="686.0579" y="-25" font-family="Times,serif" font-size="14.00" fill="#000000">Buffer/Output Stage</text>
<text text-anchor="middle" x="686.0579" y="-8.2" font-family="Times,serif" font-size="14.00" fill="#000000">(0&#45;20V Output)</text>
</g>
<!-- VoltageAmplification&#45;&gt;OutputStage -->
<g id="edge3" class="edge">
<title>VoltageAmplification&#45;&gt;OutputStage</title>
<path fill="none" stroke="#000000" d="M585.3424,-20.8C593.7325,-20.8 602.4428,-20.8 611.0718,-20.8"/>
<polygon fill="#000000" stroke="#000000" points="611.1401,-24.3001 621.1401,-20.8 611.14,-17.3001 611.1401,-24.3001"/>
</g>
</g>
</svg>
