<?xml version="1.0" encoding="UTF-8" standalone="no"?>
<!DOCTYPE svg PUBLIC "-//W3C//DTD SVG 1.1//EN"
 "http://www.w3.org/Graphics/SVG/1.1/DTD/svg11.dtd">
<!-- Generated by graphviz version 2.40.1 (20161225.0304)
 -->
<!-- Title: G Pages: 1 -->
<svg width="897pt" height="98pt"
 viewBox="0.00 0.00 897.36 98.00" xmlns="http://www.w3.org/2000/svg" xmlns:xlink="http://www.w3.org/1999/xlink">
<g id="graph0" class="graph" transform="scale(1 1) rotate(0) translate(4 94)">
<title>G</title>
<polygon fill="#ffffff" stroke="transparent" points="-4,4 -4,-94 893.3592,-94 893.3592,4 -4,4"/>
<!-- ThermistorSensor -->
<g id="node1" class="node">
<title>ThermistorSensor</title>
<polygon fill="none" stroke="#000000" points="116.4612,-63 -.154,-63 -.154,-27 116.4612,-27 116.4612,-63"/>
<text text-anchor="middle" x="58.1536" y="-40.8" font-family="Times,serif" font-size="14.00" fill="#000000">ThermistorSensor</text>
</g>
<!-- SignalConditioning -->
<g id="node2" class="node">
<title>SignalConditioning</title>
<polygon fill="none" stroke="#000000" points="277.8237,-63 152.4681,-63 152.4681,-27 277.8237,-27 277.8237,-63"/>
<text text-anchor="middle" x="215.1459" y="-40.8" font-family="Times,serif" font-size="14.00" fill="#000000">SignalConditioning</text>
</g>
<!-- ThermistorSensor&#45;&gt;SignalConditioning -->
<g id="edge1" class="edge">
<title>ThermistorSensor&#45;&gt;SignalConditioning</title>
<path fill="none" stroke="#000000" d="M116.6117,-45C125.0081,-45 133.7322,-45 142.3637,-45"/>
<polygon fill="#000000" stroke="#000000" points="142.4287,-48.5001 152.4286,-45 142.4286,-41.5001 142.4287,-48.5001"/>
</g>
<!-- Amplification -->
<g id="node3" class="node">
<title>Amplification</title>
<polygon fill="none" stroke="#000000" points="408.2957,-63 314.2135,-63 314.2135,-27 408.2957,-27 408.2957,-63"/>
<text text-anchor="middle" x="361.2546" y="-40.8" font-family="Times,serif" font-size="14.00" fill="#000000">Amplification</text>
</g>
<!-- SignalConditioning&#45;&gt;Amplification -->
<g id="edge2" class="edge">
<title>SignalConditioning&#45;&gt;Amplification</title>
<path fill="none" stroke="#000000" d="M277.9571,-45C286.5351,-45 295.3053,-45 303.782,-45"/>
<polygon fill="#000000" stroke="#000000" points="303.9435,-48.5001 313.9434,-45 303.9434,-41.5001 303.9435,-48.5001"/>
</g>
<!-- Output -->
<g id="node4" class="node">
<title>Output</title>
<polygon fill="none" stroke="#000000" points="531.24,-90 476.4642,-90 476.4642,-54 531.24,-54 531.24,-90"/>
<text text-anchor="middle" x="503.8521" y="-67.8" font-family="Times,serif" font-size="14.00" fill="#000000">Output</text>
</g>
<!-- Amplification&#45;&gt;Output -->
<g id="edge3" class="edge">
<title>Amplification&#45;&gt;Output</title>
<path fill="none" stroke="#000000" d="M408.3416,-53.9156C427.194,-57.4852 448.6092,-61.5401 466.3769,-64.9043"/>
<polygon fill="#000000" stroke="#000000" points="465.8932,-68.3748 476.3697,-66.7964 467.1955,-61.497 465.8932,-68.3748"/>
</g>
<!-- AntiAliasingFilter -->
<g id="node5" class="node">
<title>AntiAliasingFilter</title>
<polygon fill="none" stroke="#000000" points="563.0076,-36 444.6966,-36 444.6966,0 563.0076,0 563.0076,-36"/>
<text text-anchor="middle" x="503.8521" y="-13.8" font-family="Times,serif" font-size="14.00" fill="#000000">AntiAliasingFilter</text>
</g>
<!-- Amplification&#45;&gt;AntiAliasingFilter -->
<g id="edge4" class="edge">
<title>Amplification&#45;&gt;AntiAliasingFilter</title>
<path fill="none" stroke="#000000" d="M408.3416,-36.0844C416.7702,-34.4884 425.7111,-32.7955 434.6093,-31.1107"/>
<polygon fill="#000000" stroke="#000000" points="435.4336,-34.5169 444.6079,-29.2175 434.1313,-27.6391 435.4336,-34.5169"/>
</g>
<!-- ADC -->
<g id="node6" class="node">
<title>ADC</title>
<polygon fill="none" stroke="#000000" points="653.1796,-36 599.1796,-36 599.1796,0 653.1796,0 653.1796,-36"/>
<text text-anchor="middle" x="626.1796" y="-13.8" font-family="Times,serif" font-size="14.00" fill="#000000">ADC</text>
</g>
<!-- AntiAliasingFilter&#45;&gt;ADC -->
<g id="edge5" class="edge">
<title>AntiAliasingFilter&#45;&gt;ADC</title>
<path fill="none" stroke="#000000" d="M563.2242,-18C571.9434,-18 580.7111,-18 588.8179,-18"/>
<polygon fill="#000000" stroke="#000000" points="589.0348,-21.5001 599.0347,-18 589.0347,-14.5001 589.0348,-21.5001"/>
</g>
<!-- Microcontroller -->
<g id="node7" class="node">
<title>Microcontroller</title>
<polygon fill="none" stroke="#000000" points="793.6291,-36 689.3627,-36 689.3627,0 793.6291,0 793.6291,-36"/>
<text text-anchor="middle" x="741.4959" y="-13.8" font-family="Times,serif" font-size="14.00" fill="#000000">Microcontroller</text>
</g>
<!-- ADC&#45;&gt;Microcontroller -->
<g id="edge6" class="edge">
<title>ADC&#45;&gt;Microcontroller</title>
<path fill="none" stroke="#000000" d="M653.2161,-18C661.0517,-18 669.9501,-18 679.0086,-18"/>
<polygon fill="#000000" stroke="#000000" points="679.2559,-21.5001 689.2559,-18 679.2558,-14.5001 679.2559,-21.5001"/>
</g>
<!-- Display -->
<g id="node8" class="node">
<title>Display</title>
<polygon fill="none" stroke="#000000" points="889.1344,-36 830.037,-36 830.037,0 889.1344,0 889.1344,-36"/>
<text text-anchor="middle" x="859.5857" y="-13.8" font-family="Times,serif" font-size="14.00" fill="#000000">Display</text>
</g>
<!-- Microcontroller&#45;&gt;Display -->
<g id="edge7" class="edge">
<title>Microcontroller&#45;&gt;Display</title>
<path fill="none" stroke="#000000" d="M793.6356,-18C802.3243,-18 811.2152,-18 819.5419,-18"/>
<polygon fill="#000000" stroke="#000000" points="819.7295,-21.5001 829.7294,-18 819.7294,-14.5001 819.7295,-21.5001"/>
</g>
</g>
</svg>
