<?xml version="1.0" encoding="UTF-8" standalone="no"?>
<!DOCTYPE svg PUBLIC "-//W3C//DTD SVG 1.1//EN"
 "http://www.w3.org/Graphics/SVG/1.1/DTD/svg11.dtd">
<!-- Generated by graphviz version 2.40.1 (20161225.0304)
 -->
<!-- Title: G Pages: 1 -->
<svg width="1223pt" height="44pt"
 viewBox="0.00 0.00 1223.37 44.00" xmlns="http://www.w3.org/2000/svg" xmlns:xlink="http://www.w3.org/1999/xlink">
<g id="graph0" class="graph" transform="scale(1 1) rotate(0) translate(4 40)">
<title>G</title>
<polygon fill="#ffffff" stroke="transparent" points="-4,4 -4,-40 1219.3678,-40 1219.3678,4 -4,4"/>
<!-- Thermistor -->
<g id="node1" class="node">
<title>Thermistor</title>
<polygon fill="none" stroke="#000000" points="172.5197,-36 .1599,-36 .1599,0 172.5197,0 172.5197,-36"/>
<text text-anchor="middle" x="86.3398" y="-13.8" font-family="Times,serif" font-size="14.00" fill="#000000">Thermistor (NTCLE100E3)</text>
</g>
<!-- Excitation -->
<g id="node2" class="node">
<title>Excitation</title>
<polygon fill="none" stroke="#000000" points="363.2988,-36 208.4728,-36 208.4728,0 363.2988,0 363.2988,-36"/>
<text text-anchor="middle" x="285.8858" y="-13.8" font-family="Times,serif" font-size="14.00" fill="#000000">Constant Current Source</text>
</g>
<!-- Thermistor&#45;&gt;Excitation -->
<g id="edge1" class="edge">
<title>Thermistor&#45;&gt;Excitation</title>
<path fill="none" stroke="#000000" d="M172.703,-18C181.1649,-18 189.7579,-18 198.2324,-18"/>
<polygon fill="#000000" stroke="#000000" points="198.4941,-21.5001 208.494,-18 198.494,-14.5001 198.4941,-21.5001"/>
</g>
<!-- SignalConditioning -->
<g id="node3" class="node">
<title>SignalConditioning</title>
<polygon fill="none" stroke="#000000" points="586.9153,-36 399.1509,-36 399.1509,0 586.9153,0 586.9153,-36"/>
<text text-anchor="middle" x="493.0331" y="-13.8" font-family="Times,serif" font-size="14.00" fill="#000000">Signal Conditioning Amplifier</text>
</g>
<!-- Excitation&#45;&gt;SignalConditioning -->
<g id="edge2" class="edge">
<title>Excitation&#45;&gt;SignalConditioning</title>
<path fill="none" stroke="#000000" d="M363.3144,-18C371.6566,-18 380.2409,-18 388.831,-18"/>
<polygon fill="#000000" stroke="#000000" points="388.9036,-21.5001 398.9036,-18 388.9035,-14.5001 388.9036,-21.5001"/>
</g>
<!-- OutputScaling -->
<g id="node4" class="node">
<title>OutputScaling</title>
<polygon fill="none" stroke="#000000" points="782.1026,-36 622.9314,-36 622.9314,0 782.1026,0 782.1026,-36"/>
<text text-anchor="middle" x="702.517" y="-13.8" font-family="Times,serif" font-size="14.00" fill="#000000">Output Scaling Amplifier</text>
</g>
<!-- SignalConditioning&#45;&gt;OutputScaling -->
<g id="edge3" class="edge">
<title>SignalConditioning&#45;&gt;OutputScaling</title>
<path fill="none" stroke="#000000" d="M587.0516,-18C595.5577,-18 604.1591,-18 612.6282,-18"/>
<polygon fill="#000000" stroke="#000000" points="612.8779,-21.5001 622.8778,-18 612.8778,-14.5001 612.8779,-21.5001"/>
</g>
<!-- AntiAliasingFilter -->
<g id="node5" class="node">
<title>AntiAliasingFilter</title>
<polygon fill="none" stroke="#000000" points="944.7833,-36 818.1519,-36 818.1519,0 944.7833,0 944.7833,-36"/>
<text text-anchor="middle" x="881.4676" y="-13.8" font-family="Times,serif" font-size="14.00" fill="#000000">Anti&#45;Aliasing Filter</text>
</g>
<!-- OutputScaling&#45;&gt;AntiAliasingFilter -->
<g id="edge4" class="edge">
<title>OutputScaling&#45;&gt;AntiAliasingFilter</title>
<path fill="none" stroke="#000000" d="M782.3102,-18C790.7917,-18 799.3906,-18 807.7973,-18"/>
<polygon fill="#000000" stroke="#000000" points="807.9355,-21.5001 817.9355,-18 807.9354,-14.5001 807.9355,-21.5001"/>
</g>
<!-- ADC -->
<g id="node6" class="node">
<title>ADC</title>
<polygon fill="none" stroke="#000000" points="1215.6145,-36 980.6287,-36 980.6287,0 1215.6145,0 1215.6145,-36"/>
<text text-anchor="middle" x="1098.1216" y="-13.8" font-family="Times,serif" font-size="14.00" fill="#000000">Analog&#45;to&#45;Digital Converter (optional)</text>
</g>
<!-- AntiAliasingFilter&#45;&gt;ADC -->
<g id="edge5" class="edge">
<title>AntiAliasingFilter&#45;&gt;ADC</title>
<path fill="none" stroke="#000000" d="M945.0071,-18C953.2625,-18 961.939,-18 970.7904,-18"/>
<polygon fill="#000000" stroke="#000000" points="970.845,-21.5001 980.845,-18 970.8449,-14.5001 970.845,-21.5001"/>
</g>
</g>
</svg>
