<?xml version="1.0" encoding="UTF-8" standalone="no"?>
<!DOCTYPE svg PUBLIC "-//W3C//DTD SVG 1.1//EN"
 "http://www.w3.org/Graphics/SVG/1.1/DTD/svg11.dtd">
<!-- Generated by graphviz version 2.40.1 (20161225.0304)
 -->
<!-- Title: G Pages: 1 -->
<svg width="1277pt" height="44pt"
 viewBox="0.00 0.00 1277.18 44.00" xmlns="http://www.w3.org/2000/svg" xmlns:xlink="http://www.w3.org/1999/xlink">
<g id="graph0" class="graph" transform="scale(1 1) rotate(0) translate(4 40)">
<title>G</title>
<polygon fill="#ffffff" stroke="transparent" points="-4,4 -4,-40 1273.1778,-40 1273.1778,4 -4,4"/>
<!-- ThermistorSensor -->
<g id="node1" class="node">
<title>ThermistorSensor</title>
<polygon fill="none" stroke="#000000" points="151.4548,-36 -.1518,-36 -.1518,0 151.4548,0 151.4548,-36"/>
<text text-anchor="middle" x="75.6515" y="-13.8" font-family="Times,serif" font-size="14.00" fill="#000000">NTC Thermistor Sensor</text>
</g>
<!-- Linearization -->
<g id="node2" class="node">
<title>Linearization</title>
<polygon fill="none" stroke="#000000" points="330.4725,-36 187.2465,-36 187.2465,0 330.4725,0 330.4725,-36"/>
<text text-anchor="middle" x="258.8595" y="-13.8" font-family="Times,serif" font-size="14.00" fill="#000000">Linearization Network</text>
</g>
<!-- ThermistorSensor&#45;&gt;Linearization -->
<g id="edge1" class="edge">
<title>ThermistorSensor&#45;&gt;Linearization</title>
<path fill="none" stroke="#000000" d="M151.4917,-18C159.8899,-18 168.4704,-18 176.9392,-18"/>
<polygon fill="#000000" stroke="#000000" points="177.1943,-21.5001 187.1942,-18 177.1942,-14.5001 177.1943,-21.5001"/>
</g>
<!-- Amplification -->
<g id="node3" class="node">
<title>Amplification</title>
<polygon fill="none" stroke="#000000" points="498.1396,-36 366.1742,-36 366.1742,0 498.1396,0 498.1396,-36"/>
<text text-anchor="middle" x="432.1569" y="-13.8" font-family="Times,serif" font-size="14.00" fill="#000000">Amplification Block</text>
</g>
<!-- Linearization&#45;&gt;Amplification -->
<g id="edge2" class="edge">
<title>Linearization&#45;&gt;Amplification</title>
<path fill="none" stroke="#000000" d="M330.5971,-18C339.0045,-18 347.6049,-18 356.0688,-18"/>
<polygon fill="#000000" stroke="#000000" points="356.3032,-21.5001 366.3032,-18 356.3032,-14.5001 356.3032,-21.5001"/>
</g>
<!-- LevelShifting -->
<g id="node4" class="node">
<title>LevelShifting</title>
<polygon fill="none" stroke="#000000" points="630.6301,-36 533.6529,-36 533.6529,0 630.6301,0 630.6301,-36"/>
<text text-anchor="middle" x="582.1415" y="-13.8" font-family="Times,serif" font-size="14.00" fill="#000000">Level Shifting</text>
</g>
<!-- Amplification&#45;&gt;LevelShifting -->
<g id="edge3" class="edge">
<title>Amplification&#45;&gt;LevelShifting</title>
<path fill="none" stroke="#000000" d="M497.9423,-18C506.4478,-18 515.1137,-18 523.4934,-18"/>
<polygon fill="#000000" stroke="#000000" points="523.5429,-21.5001 533.5429,-18 523.5429,-14.5001 523.5429,-21.5001"/>
</g>
<!-- OutputBuffer -->
<g id="node5" class="node">
<title>OutputBuffer</title>
<polygon fill="none" stroke="#000000" points="761.2664,-36 666.4248,-36 666.4248,0 761.2664,0 761.2664,-36"/>
<text text-anchor="middle" x="713.8456" y="-13.8" font-family="Times,serif" font-size="14.00" fill="#000000">Output Buffer</text>
</g>
<!-- LevelShifting&#45;&gt;OutputBuffer -->
<g id="edge4" class="edge">
<title>LevelShifting&#45;&gt;OutputBuffer</title>
<path fill="none" stroke="#000000" d="M630.4354,-18C638.6819,-18 647.3248,-18 655.7931,-18"/>
<polygon fill="#000000" stroke="#000000" points="655.9977,-21.5001 665.9976,-18 655.9976,-14.5001 655.9977,-21.5001"/>
</g>
<!-- AntiAliasingFilter -->
<g id="node6" class="node">
<title>AntiAliasingFilter</title>
<polygon fill="none" stroke="#000000" points="924.0295,-36 797.3981,-36 797.3981,0 924.0295,0 924.0295,-36"/>
<text text-anchor="middle" x="860.7138" y="-13.8" font-family="Times,serif" font-size="14.00" fill="#000000">Anti&#45;Aliasing Filter</text>
</g>
<!-- OutputBuffer&#45;&gt;AntiAliasingFilter -->
<g id="edge5" class="edge">
<title>OutputBuffer&#45;&gt;AntiAliasingFilter</title>
<path fill="none" stroke="#000000" d="M761.5295,-18C769.7169,-18 778.3933,-18 787.0736,-18"/>
<polygon fill="#000000" stroke="#000000" points="787.2362,-21.5001 797.2362,-18 787.2361,-14.5001 787.2362,-21.5001"/>
</g>
<!-- ADC -->
<g id="node7" class="node">
<title>ADC</title>
<polygon fill="none" stroke="#000000" points="1135.7989,-36 960.2291,-36 960.2291,0 1135.7989,0 1135.7989,-36"/>
<text text-anchor="middle" x="1048.014" y="-13.8" font-family="Times,serif" font-size="14.00" fill="#000000">Analog&#45;to&#45;Digital Converter</text>
</g>
<!-- AntiAliasingFilter&#45;&gt;ADC -->
<g id="edge6" class="edge">
<title>AntiAliasingFilter&#45;&gt;ADC</title>
<path fill="none" stroke="#000000" d="M924.1251,-18C932.4395,-18 941.1102,-18 949.8334,-18"/>
<polygon fill="#000000" stroke="#000000" points="950.0796,-21.5001 960.0795,-18 950.0795,-14.5001 950.0796,-21.5001"/>
</g>
<!-- DigitalOutput -->
<g id="node8" class="node">
<title>DigitalOutput</title>
<polygon fill="none" stroke="#000000" points="1269.3139,-36 1171.7703,-36 1171.7703,0 1269.3139,0 1269.3139,-36"/>
<text text-anchor="middle" x="1220.5421" y="-13.8" font-family="Times,serif" font-size="14.00" fill="#000000">Digital Output</text>
</g>
<!-- ADC&#45;&gt;DigitalOutput -->
<g id="edge7" class="edge">
<title>ADC&#45;&gt;DigitalOutput</title>
<path fill="none" stroke="#000000" d="M1136.047,-18C1144.692,-18 1153.3133,-18 1161.5634,-18"/>
<polygon fill="#000000" stroke="#000000" points="1161.7889,-21.5001 1171.7889,-18 1161.7888,-14.5001 1161.7889,-21.5001"/>
</g>
</g>
</svg>
