<?xml version="1.0" encoding="UTF-8" standalone="no"?>
<!DOCTYPE svg PUBLIC "-//W3C//DTD SVG 1.1//EN"
 "http://www.w3.org/Graphics/SVG/1.1/DTD/svg11.dtd">
<!-- Generated by graphviz version 2.40.1 (20161225.0304)
 -->
<!-- Title: G Pages: 1 -->
<svg width="747pt" height="101pt"
 viewBox="0.00 0.00 746.50 101.00" xmlns="http://www.w3.org/2000/svg" xmlns:xlink="http://www.w3.org/1999/xlink">
<g id="graph0" class="graph" transform="scale(1 1) rotate(0) translate(4 97)">
<title>G</title>
<polygon fill="#ffffff" stroke="transparent" points="-4,4 -4,-97 742.505,-97 742.505,4 -4,4"/>
<g id="clust1" class="cluster">
<title>cluster_0</title>
<polygon fill="none" stroke="#000000" points="122.54,-8 122.54,-85 656.505,-85 656.505,-8 122.54,-8"/>
<text text-anchor="middle" x="389.5225" y="-68.4" font-family="Times,serif" font-size="14.00" fill="#000000">Analog Signal Conditioning</text>
</g>
<!-- Potentiometer -->
<g id="node1" class="node">
<title>Potentiometer</title>
<polygon fill="none" stroke="#000000" points="94.3111,-52 .2289,-52 .2289,-16 94.3111,-16 94.3111,-52"/>
<text text-anchor="middle" x="47.27" y="-29.8" font-family="Times,serif" font-size="14.00" fill="#000000">Potentiometer</text>
</g>
<!-- Buffer -->
<g id="node2" class="node">
<title>Buffer</title>
<polygon fill="none" stroke="#000000" points="184.54,-52 130.54,-52 130.54,-16 184.54,-16 184.54,-52"/>
<text text-anchor="middle" x="157.54" y="-29.8" font-family="Times,serif" font-size="14.00" fill="#000000">Buffer</text>
</g>
<!-- Potentiometer&#45;&gt;Buffer -->
<g id="edge1" class="edge">
<title>Potentiometer&#45;&gt;Buffer</title>
<path fill="none" stroke="#000000" d="M94.3543,-34C102.9976,-34 111.9108,-34 120.2193,-34"/>
<polygon fill="#000000" stroke="#000000" points="120.3541,-37.5001 130.3541,-34 120.3541,-30.5001 120.3541,-37.5001"/>
</g>
<!-- Scale_and_Shift -->
<g id="node3" class="node">
<title>Scale_and_Shift</title>
<polygon fill="none" stroke="#000000" points="328.1743,-52 220.6617,-52 220.6617,-16 328.1743,-16 328.1743,-52"/>
<text text-anchor="middle" x="274.418" y="-29.8" font-family="Times,serif" font-size="14.00" fill="#000000">Scale_and_Shift</text>
</g>
<!-- Buffer&#45;&gt;Scale_and_Shift -->
<g id="edge2" class="edge">
<title>Buffer&#45;&gt;Scale_and_Shift</title>
<path fill="none" stroke="#000000" d="M184.6479,-34C192.3893,-34 201.1721,-34 210.1402,-34"/>
<polygon fill="#000000" stroke="#000000" points="210.2985,-37.5001 220.2985,-34 210.2985,-30.5001 210.2985,-37.5001"/>
</g>
<!-- Band_Stop_Filter -->
<g id="node4" class="node">
<title>Band_Stop_Filter</title>
<polygon fill="none" stroke="#000000" points="479.6279,-52 364.5181,-52 364.5181,-16 479.6279,-16 479.6279,-52"/>
<text text-anchor="middle" x="422.073" y="-29.8" font-family="Times,serif" font-size="14.00" fill="#000000">Band_Stop_Filter</text>
</g>
<!-- Scale_and_Shift&#45;&gt;Band_Stop_Filter -->
<g id="edge3" class="edge">
<title>Scale_and_Shift&#45;&gt;Band_Stop_Filter</title>
<path fill="none" stroke="#000000" d="M328.5608,-34C336.9612,-34 345.7284,-34 354.3823,-34"/>
<polygon fill="#000000" stroke="#000000" points="354.4605,-37.5001 364.4605,-34 354.4604,-30.5001 354.4605,-37.5001"/>
</g>
<!-- Anti_Aliasing_Filter -->
<g id="node5" class="node">
<title>Anti_Aliasing_Filter</title>
<polygon fill="none" stroke="#000000" points="648.3329,-52 516.0221,-52 516.0221,-16 648.3329,-16 648.3329,-52"/>
<text text-anchor="middle" x="582.1775" y="-29.8" font-family="Times,serif" font-size="14.00" fill="#000000">Anti_Aliasing_Filter</text>
</g>
<!-- Band_Stop_Filter&#45;&gt;Anti_Aliasing_Filter -->
<g id="edge4" class="edge">
<title>Band_Stop_Filter&#45;&gt;Anti_Aliasing_Filter</title>
<path fill="none" stroke="#000000" d="M479.8744,-34C488.2436,-34 496.9653,-34 505.6321,-34"/>
<polygon fill="#000000" stroke="#000000" points="505.7565,-37.5001 515.7565,-34 505.7565,-30.5001 505.7565,-37.5001"/>
</g>
<!-- DAQ -->
<g id="node6" class="node">
<title>DAQ</title>
<polygon fill="none" stroke="#000000" points="738.505,-52 684.505,-52 684.505,-16 738.505,-16 738.505,-52"/>
<text text-anchor="middle" x="711.505" y="-29.8" font-family="Times,serif" font-size="14.00" fill="#000000">DAQ</text>
</g>
<!-- Anti_Aliasing_Filter&#45;&gt;DAQ -->
<g id="edge5" class="edge">
<title>Anti_Aliasing_Filter&#45;&gt;DAQ</title>
<path fill="none" stroke="#000000" d="M648.3567,-34C657.1718,-34 665.9492,-34 674.0334,-34"/>
<polygon fill="#000000" stroke="#000000" points="674.2064,-37.5001 684.2064,-34 674.2064,-30.5001 674.2064,-37.5001"/>
</g>
</g>
</svg>
