<?xml version="1.0" encoding="UTF-8" standalone="no"?>
<!DOCTYPE svg PUBLIC "-//W3C//DTD SVG 1.1//EN"
 "http://www.w3.org/Graphics/SVG/1.1/DTD/svg11.dtd">
<!-- Generated by graphviz version 2.40.1 (20161225.0304)
 -->
<!-- Title: G Pages: 1 -->
<svg width="1347pt" height="98pt"
 viewBox="0.00 0.00 1347.40 98.00" xmlns="http://www.w3.org/2000/svg" xmlns:xlink="http://www.w3.org/1999/xlink">
<g id="graph0" class="graph" transform="scale(1 1) rotate(0) translate(4 94)">
<title>G</title>
<polygon fill="#ffffff" stroke="transparent" points="-4,4 -4,-94 1343.4044,-94 1343.4044,4 -4,4"/>
<!-- Pressure Sensor Array -->
<g id="node1" class="node">
<title>Pressure Sensor Array</title>
<polygon fill="none" stroke="#000000" points="369.1494,-90 227.8152,-90 227.8152,-54 369.1494,-54 369.1494,-90"/>
<text text-anchor="middle" x="298.4823" y="-67.8" font-family="Times,serif" font-size="14.00" fill="#000000">Pressure Sensor Array</text>
</g>
<!-- Instrumentation Amplifier Array -->
<g id="node2" class="node">
<title>Instrumentation Amplifier Array</title>
<polygon fill="none" stroke="#000000" points="631.4498,-90 431.4582,-90 431.4582,-54 631.4498,-54 631.4498,-90"/>
<text text-anchor="middle" x="531.454" y="-67.8" font-family="Times,serif" font-size="14.00" fill="#000000">Instrumentation Amplifier Array</text>
</g>
<!-- Pressure Sensor Array&#45;&gt;Instrumentation Amplifier Array -->
<g id="edge1" class="edge">
<title>Pressure Sensor Array&#45;&gt;Instrumentation Amplifier Array</title>
<path fill="none" stroke="#000000" d="M369.3304,-72C385.6688,-72 403.4301,-72 421.0075,-72"/>
<polygon fill="#000000" stroke="#000000" points="421.3235,-75.5001 431.3234,-72 421.3234,-68.5001 421.3235,-75.5001"/>
</g>
<!-- Multiplexer -->
<g id="node3" class="node">
<title>Multiplexer</title>
<polygon fill="none" stroke="#000000" points="749.3469,-63 667.1531,-63 667.1531,-27 749.3469,-27 749.3469,-63"/>
<text text-anchor="middle" x="708.25" y="-40.8" font-family="Times,serif" font-size="14.00" fill="#000000">Multiplexer</text>
</g>
<!-- Instrumentation Amplifier Array&#45;&gt;Multiplexer -->
<g id="edge2" class="edge">
<title>Instrumentation Amplifier Array&#45;&gt;Multiplexer</title>
<path fill="none" stroke="#000000" d="M631.219,-56.764C640.0305,-55.4184 648.6889,-54.0961 656.8359,-52.8519"/>
<polygon fill="#000000" stroke="#000000" points="657.498,-56.2914 666.855,-51.3218 656.4412,-49.3717 657.498,-56.2914"/>
</g>
<!-- Sample and Hold -->
<g id="node4" class="node">
<title>Sample and Hold</title>
<polygon fill="none" stroke="#000000" points="898.6058,-63 785.1958,-63 785.1958,-27 898.6058,-27 898.6058,-63"/>
<text text-anchor="middle" x="841.9008" y="-40.8" font-family="Times,serif" font-size="14.00" fill="#000000">Sample and Hold</text>
</g>
<!-- Multiplexer&#45;&gt;Sample and Hold -->
<g id="edge3" class="edge">
<title>Multiplexer&#45;&gt;Sample and Hold</title>
<path fill="none" stroke="#000000" d="M749.4402,-38.7124C757.4888,-38.4078 766.1221,-38.2537 774.7625,-38.2501"/>
<polygon fill="#000000" stroke="#000000" points="774.8518,-41.7506 784.8741,-38.3149 774.8967,-34.7508 774.8518,-41.7506"/>
</g>
<!-- Multiplexer&#45;&gt;Sample and Hold -->
<g id="edge10" class="edge">
<title>Multiplexer&#45;&gt;Sample and Hold</title>
<path fill="none" stroke="#000000" d="M749.4402,-51.2876C757.4888,-51.5922 766.1221,-51.7463 774.7625,-51.7499"/>
<polygon fill="#000000" stroke="#000000" points="774.8967,-55.2492 784.8741,-51.6851 774.8518,-48.2494 774.8967,-55.2492"/>
</g>
<!-- Anti&#45;aliasing Filter -->
<g id="node5" class="node">
<title>Anti&#45;aliasing Filter</title>
<polygon fill="none" stroke="#000000" points="1057.3886,-63 934.5414,-63 934.5414,-27 1057.3886,-27 1057.3886,-63"/>
<text text-anchor="middle" x="995.965" y="-40.8" font-family="Times,serif" font-size="14.00" fill="#000000">Anti&#45;aliasing Filter</text>
</g>
<!-- Sample and Hold&#45;&gt;Anti&#45;aliasing Filter -->
<g id="edge4" class="edge">
<title>Sample and Hold&#45;&gt;Anti&#45;aliasing Filter</title>
<path fill="none" stroke="#000000" d="M898.8309,-38.4586C907.0577,-38.2842 915.6135,-38.2192 924.0857,-38.2634"/>
<polygon fill="#000000" stroke="#000000" points="924.3145,-41.766 934.3508,-38.3716 924.3883,-34.7663 924.3145,-41.766"/>
</g>
<!-- Sample and Hold&#45;&gt;Anti&#45;aliasing Filter -->
<g id="edge11" class="edge">
<title>Sample and Hold&#45;&gt;Anti&#45;aliasing Filter</title>
<path fill="none" stroke="#000000" d="M898.8309,-51.5414C907.0577,-51.7158 915.6135,-51.7808 924.0857,-51.7366"/>
<polygon fill="#000000" stroke="#000000" points="924.3883,-55.2337 934.3508,-51.6284 924.3145,-48.234 924.3883,-55.2337"/>
</g>
<!-- ADC -->
<g id="node6" class="node">
<title>ADC</title>
<polygon fill="none" stroke="#000000" points="1147.4268,-63 1093.4268,-63 1093.4268,-27 1147.4268,-27 1147.4268,-63"/>
<text text-anchor="middle" x="1120.4268" y="-40.8" font-family="Times,serif" font-size="14.00" fill="#000000">ADC</text>
</g>
<!-- Anti&#45;aliasing Filter&#45;&gt;ADC -->
<g id="edge5" class="edge">
<title>Anti&#45;aliasing Filter&#45;&gt;ADC</title>
<path fill="none" stroke="#000000" d="M1057.4666,-38.2504C1066.2388,-38.2405 1075.0303,-38.4094 1083.1438,-38.7572"/>
<polygon fill="#000000" stroke="#000000" points="1083.1838,-42.2646 1093.3605,-39.3175 1083.5672,-35.2751 1083.1838,-42.2646"/>
</g>
<!-- Anti&#45;aliasing Filter&#45;&gt;ADC -->
<g id="edge12" class="edge">
<title>Anti&#45;aliasing Filter&#45;&gt;ADC</title>
<path fill="none" stroke="#000000" d="M1057.4666,-51.7496C1066.2388,-51.7595 1075.0303,-51.5906 1083.1438,-51.2428"/>
<polygon fill="#000000" stroke="#000000" points="1083.5672,-54.7249 1093.3605,-50.6825 1083.1838,-47.7354 1083.5672,-54.7249"/>
</g>
<!-- Data Acquisition System -->
<g id="node7" class="node">
<title>Data Acquisition System</title>
<polygon fill="none" stroke="#000000" points="1339.3932,-63 1183.438,-63 1183.438,-27 1339.3932,-27 1339.3932,-63"/>
<text text-anchor="middle" x="1261.4156" y="-40.8" font-family="Times,serif" font-size="14.00" fill="#000000">Data Acquisition System</text>
</g>
<!-- ADC&#45;&gt;Data Acquisition System -->
<g id="edge6" class="edge">
<title>ADC&#45;&gt;Data Acquisition System</title>
<path fill="none" stroke="#000000" d="M1147.6109,-45C1155.2502,-45 1163.9974,-45 1173.1737,-45"/>
<polygon fill="#000000" stroke="#000000" points="1173.2674,-48.5001 1183.2673,-45 1173.2673,-41.5001 1173.2674,-48.5001"/>
</g>
<!-- Temperature Sensor Array -->
<g id="node8" class="node">
<title>Temperature Sensor Array</title>
<polygon fill="none" stroke="#000000" points="165.3875,-36 -.1293,-36 -.1293,0 165.3875,0 165.3875,-36"/>
<text text-anchor="middle" x="82.6291" y="-13.8" font-family="Times,serif" font-size="14.00" fill="#000000">Temperature Sensor Array</text>
</g>
<!-- Nonlinear to Linear Conversion -->
<g id="node9" class="node">
<title>Nonlinear to Linear Conversion</title>
<polygon fill="none" stroke="#000000" points="395.931,-36 201.0336,-36 201.0336,0 395.931,0 395.931,-36"/>
<text text-anchor="middle" x="298.4823" y="-13.8" font-family="Times,serif" font-size="14.00" fill="#000000">Nonlinear to Linear Conversion</text>
</g>
<!-- Temperature Sensor Array&#45;&gt;Nonlinear to Linear Conversion -->
<g id="edge7" class="edge">
<title>Temperature Sensor Array&#45;&gt;Nonlinear to Linear Conversion</title>
<path fill="none" stroke="#000000" d="M165.4663,-18C173.8406,-18 182.4283,-18 191.0121,-18"/>
<polygon fill="#000000" stroke="#000000" points="191.074,-21.5001 201.074,-18 191.0739,-14.5001 191.074,-21.5001"/>
</g>
<!-- Amplifier Array -->
<g id="node10" class="node">
<title>Amplifier Array</title>
<polygon fill="none" stroke="#000000" points="585.3018,-36 477.6062,-36 477.6062,0 585.3018,0 585.3018,-36"/>
<text text-anchor="middle" x="531.454" y="-13.8" font-family="Times,serif" font-size="14.00" fill="#000000">Amplifier Array</text>
</g>
<!-- Nonlinear to Linear Conversion&#45;&gt;Amplifier Array -->
<g id="edge8" class="edge">
<title>Nonlinear to Linear Conversion&#45;&gt;Amplifier Array</title>
<path fill="none" stroke="#000000" d="M395.9334,-18C420.045,-18 445.2749,-18 467.3389,-18"/>
<polygon fill="#000000" stroke="#000000" points="467.5666,-21.5001 477.5666,-18 467.5666,-14.5001 467.5666,-21.5001"/>
</g>
<!-- Amplifier Array&#45;&gt;Multiplexer -->
<g id="edge9" class="edge">
<title>Amplifier Array&#45;&gt;Multiplexer</title>
<path fill="none" stroke="#000000" d="M585.4593,-26.2476C608.2671,-29.7308 634.6938,-33.7666 657.1753,-37.2"/>
<polygon fill="#000000" stroke="#000000" points="656.786,-40.681 667.1999,-38.7309 657.8429,-33.7612 656.786,-40.681"/>
</g>
</g>
</svg>
