<?xml version="1.0" encoding="UTF-8" standalone="no"?>
<!DOCTYPE svg PUBLIC "-//W3C//DTD SVG 1.1//EN"
 "http://www.w3.org/Graphics/SVG/1.1/DTD/svg11.dtd">
<!-- Generated by graphviz version 2.40.1 (20161225.0304)
 -->
<!-- Title: G Pages: 1 -->
<svg width="1220pt" height="186pt"
 viewBox="0.00 0.00 1220.05 186.00" xmlns="http://www.w3.org/2000/svg" xmlns:xlink="http://www.w3.org/1999/xlink">
<g id="graph0" class="graph" transform="scale(1 1) rotate(0) translate(4 182)">
<title>G</title>
<polygon fill="#ffffff" stroke="transparent" points="-4,4 -4,-182 1216.0454,-182 1216.0454,4 -4,4"/>
<g id="clust3" class="cluster">
<title>cluster_2</title>
<polygon fill="none" stroke="#000000" points="869.87,-50 869.87,-127 1204.0454,-127 1204.0454,-50 869.87,-50"/>
<text text-anchor="middle" x="1036.9577" y="-110.4" font-family="Times,serif" font-size="14.00" fill="#000000">Shared Components</text>
</g>
<g id="clust2" class="cluster">
<title>cluster_1</title>
<polygon fill="none" stroke="#000000" points="8,-8 8,-85 812.9499,-85 812.9499,-8 8,-8"/>
<text text-anchor="middle" x="410.475" y="-68.4" font-family="Times,serif" font-size="14.00" fill="#000000">Temperature Signal Conditioning</text>
</g>
<g id="clust1" class="cluster">
<title>cluster_0</title>
<polygon fill="none" stroke="#000000" points="443.2078,-93 443.2078,-170 849.87,-170 849.87,-93 443.2078,-93"/>
<text text-anchor="middle" x="646.5389" y="-153.4" font-family="Times,serif" font-size="14.00" fill="#000000">Pressure Signal Conditioning</text>
</g>
<!-- Pressure_Sensor_Array -->
<g id="node1" class="node">
<title>Pressure_Sensor_Array</title>
<polygon fill="none" stroke="#000000" points="599.4584,-137 451.1242,-137 451.1242,-101 599.4584,-101 599.4584,-137"/>
<text text-anchor="middle" x="525.2913" y="-114.8" font-family="Times,serif" font-size="14.00" fill="#000000">Pressure_Sensor_Array</text>
</g>
<!-- Instrumentation_Amplifier_Array -->
<g id="node2" class="node">
<title>Instrumentation_Amplifier_Array</title>
<polygon fill="none" stroke="#000000" points="842.1182,-137 635.1266,-137 635.1266,-101 842.1182,-101 842.1182,-137"/>
<text text-anchor="middle" x="738.6224" y="-114.8" font-family="Times,serif" font-size="14.00" fill="#000000">Instrumentation_Amplifier_Array</text>
</g>
<!-- Pressure_Sensor_Array&#45;&gt;Instrumentation_Amplifier_Array -->
<g id="edge1" class="edge">
<title>Pressure_Sensor_Array&#45;&gt;Instrumentation_Amplifier_Array</title>
<path fill="none" stroke="#000000" d="M599.6047,-119C607.9018,-119 616.4874,-119 625.1331,-119"/>
<polygon fill="#000000" stroke="#000000" points="625.2962,-122.5001 635.2962,-119 625.2961,-115.5001 625.2962,-122.5001"/>
</g>
<!-- Multiplexer -->
<g id="node3" class="node">
<title>Multiplexer</title>
<polygon fill="none" stroke="#000000" points="960.0153,-94 877.8215,-94 877.8215,-58 960.0153,-58 960.0153,-94"/>
<text text-anchor="middle" x="918.9184" y="-71.8" font-family="Times,serif" font-size="14.00" fill="#000000">Multiplexer</text>
</g>
<!-- Instrumentation_Amplifier_Array&#45;&gt;Multiplexer -->
<g id="edge2" class="edge">
<title>Instrumentation_Amplifier_Array&#45;&gt;Multiplexer</title>
<path fill="none" stroke="#000000" d="M814.3005,-100.951C832.3362,-96.6496 851.1653,-92.1589 867.7979,-88.1921"/>
<polygon fill="#000000" stroke="#000000" points="868.9283,-91.5207 877.8435,-85.7962 867.3043,-84.7117 868.9283,-91.5207"/>
</g>
<!-- ADC -->
<g id="node4" class="node">
<title>ADC</title>
<polygon fill="none" stroke="#000000" points="1049.9668,-94 995.9668,-94 995.9668,-58 1049.9668,-58 1049.9668,-94"/>
<text text-anchor="middle" x="1022.9668" y="-71.8" font-family="Times,serif" font-size="14.00" fill="#000000">ADC</text>
</g>
<!-- Multiplexer&#45;&gt;ADC -->
<g id="edge3" class="edge">
<title>Multiplexer&#45;&gt;ADC</title>
<path fill="none" stroke="#000000" d="M960.0411,-69.3835C968.5083,-69.1733 977.379,-69.2113 985.7004,-69.4974"/>
<polygon fill="#000000" stroke="#000000" points="985.7172,-73.0023 995.8755,-69.9925 986.0574,-66.0106 985.7172,-73.0023"/>
</g>
<!-- Multiplexer&#45;&gt;ADC -->
<g id="edge9" class="edge">
<title>Multiplexer&#45;&gt;ADC</title>
<path fill="none" stroke="#000000" d="M960.0411,-82.6165C968.5083,-82.8267 977.379,-82.7887 985.7004,-82.5026"/>
<polygon fill="#000000" stroke="#000000" points="986.0574,-85.9894 995.8755,-82.0075 985.7172,-78.9977 986.0574,-85.9894"/>
</g>
<!-- Data_Processing -->
<g id="node5" class="node">
<title>Data_Processing</title>
<polygon fill="none" stroke="#000000" points="1196.0847,-94 1085.9275,-94 1085.9275,-58 1196.0847,-58 1196.0847,-94"/>
<text text-anchor="middle" x="1141.0061" y="-71.8" font-family="Times,serif" font-size="14.00" fill="#000000">Data_Processing</text>
</g>
<!-- ADC&#45;&gt;Data_Processing -->
<g id="edge4" class="edge">
<title>ADC&#45;&gt;Data_Processing</title>
<path fill="none" stroke="#000000" d="M1050.0474,-76C1057.7621,-76 1066.5188,-76 1075.4779,-76"/>
<polygon fill="#000000" stroke="#000000" points="1075.6344,-79.5001 1085.6344,-76 1075.6344,-72.5001 1075.6344,-79.5001"/>
</g>
<!-- Temperature_Sensor_Array -->
<g id="node6" class="node">
<title>Temperature_Sensor_Array</title>
<polygon fill="none" stroke="#000000" points="188.3875,-52 15.8707,-52 15.8707,-16 188.3875,-16 188.3875,-52"/>
<text text-anchor="middle" x="102.1291" y="-29.8" font-family="Times,serif" font-size="14.00" fill="#000000">Temperature_Sensor_Array</text>
</g>
<!-- Non_Linear_Correction_Block -->
<g id="node7" class="node">
<title>Non_Linear_Correction_Block</title>
<polygon fill="none" stroke="#000000" points="415.1826,-52 224.2834,-52 224.2834,-16 415.1826,-16 415.1826,-52"/>
<text text-anchor="middle" x="319.733" y="-29.8" font-family="Times,serif" font-size="14.00" fill="#000000">Non_Linear_Correction_Block</text>
</g>
<!-- Temperature_Sensor_Array&#45;&gt;Non_Linear_Correction_Block -->
<g id="edge5" class="edge">
<title>Temperature_Sensor_Array&#45;&gt;Non_Linear_Correction_Block</title>
<path fill="none" stroke="#000000" d="M188.4445,-34C196.8878,-34 205.5201,-34 214.1257,-34"/>
<polygon fill="#000000" stroke="#000000" points="214.2028,-37.5001 224.2028,-34 214.2028,-30.5001 214.2028,-37.5001"/>
</g>
<!-- Amplifier_Array -->
<g id="node8" class="node">
<title>Amplifier_Array</title>
<polygon fill="none" stroke="#000000" points="580.6386,-52 469.944,-52 469.944,-16 580.6386,-16 580.6386,-52"/>
<text text-anchor="middle" x="525.2913" y="-29.8" font-family="Times,serif" font-size="14.00" fill="#000000">Amplifier_Array</text>
</g>
<!-- Non_Linear_Correction_Block&#45;&gt;Amplifier_Array -->
<g id="edge6" class="edge">
<title>Non_Linear_Correction_Block&#45;&gt;Amplifier_Array</title>
<path fill="none" stroke="#000000" d="M415.2908,-34C430.3081,-34 445.532,-34 459.6716,-34"/>
<polygon fill="#000000" stroke="#000000" points="459.7574,-37.5001 469.7574,-34 459.7574,-30.5001 459.7574,-37.5001"/>
</g>
<!-- Anti_Aliasing_Filter -->
<g id="node9" class="node">
<title>Anti_Aliasing_Filter</title>
<polygon fill="none" stroke="#000000" points="804.7778,-52 672.467,-52 672.467,-16 804.7778,-16 804.7778,-52"/>
<text text-anchor="middle" x="738.6224" y="-29.8" font-family="Times,serif" font-size="14.00" fill="#000000">Anti_Aliasing_Filter</text>
</g>
<!-- Amplifier_Array&#45;&gt;Anti_Aliasing_Filter -->
<g id="edge7" class="edge">
<title>Amplifier_Array&#45;&gt;Anti_Aliasing_Filter</title>
<path fill="none" stroke="#000000" d="M580.7846,-34C605.6343,-34 635.3401,-34 662.2431,-34"/>
<polygon fill="#000000" stroke="#000000" points="662.4008,-37.5001 672.4007,-34 662.4007,-30.5001 662.4008,-37.5001"/>
</g>
<!-- Anti_Aliasing_Filter&#45;&gt;Multiplexer -->
<g id="edge8" class="edge">
<title>Anti_Aliasing_Filter&#45;&gt;Multiplexer</title>
<path fill="none" stroke="#000000" d="M804.9899,-49.4603C825.767,-54.3004 848.3592,-59.5632 867.9055,-64.1165"/>
<polygon fill="#000000" stroke="#000000" points="867.2903,-67.5669 877.8236,-66.427 868.8785,-60.7494 867.2903,-67.5669"/>
</g>
</g>
</svg>
