<?xml version="1.0" encoding="UTF-8" standalone="no"?>
<!DOCTYPE svg PUBLIC "-//W3C//DTD SVG 1.1//EN"
 "http://www.w3.org/Graphics/SVG/1.1/DTD/svg11.dtd">
<!-- Generated by graphviz version 2.40.1 (20161225.0304)
 -->
<!-- Title: G Pages: 1 -->
<svg width="1033pt" height="44pt"
 viewBox="0.00 0.00 1033.49 44.00" xmlns="http://www.w3.org/2000/svg" xmlns:xlink="http://www.w3.org/1999/xlink">
<g id="graph0" class="graph" transform="scale(1 1) rotate(0) translate(4 40)">
<title>G</title>
<polygon fill="#ffffff" stroke="transparent" points="-4,4 -4,-40 1029.487,-40 1029.487,4 -4,4"/>
<!-- Thermistor -->
<g id="node1" class="node">
<title>Thermistor</title>
<polygon fill="none" stroke="#000000" points="109.5513,-36 .1493,-36 .1493,0 109.5513,0 109.5513,-36"/>
<text text-anchor="middle" x="54.8503" y="-13.8" font-family="Times,serif" font-size="14.00" fill="#000000">NTC Thermistor</text>
</g>
<!-- LinearizationResistor -->
<g id="node2" class="node">
<title>LinearizationResistor</title>
<polygon fill="none" stroke="#000000" points="285.7249,-36 145.6925,-36 145.6925,0 285.7249,0 285.7249,-36"/>
<text text-anchor="middle" x="215.7087" y="-13.8" font-family="Times,serif" font-size="14.00" fill="#000000">Linearization Resistor</text>
</g>
<!-- Thermistor&#45;&gt;LinearizationResistor -->
<g id="edge1" class="edge">
<title>Thermistor&#45;&gt;LinearizationResistor</title>
<path fill="none" stroke="#000000" d="M109.7587,-18C118.0667,-18 126.7799,-18 135.4898,-18"/>
<polygon fill="#000000" stroke="#000000" points="135.6885,-21.5001 145.6885,-18 135.6885,-14.5001 135.6885,-21.5001"/>
</g>
<!-- WheatstoneBridge -->
<g id="node3" class="node">
<title>WheatstoneBridge</title>
<polygon fill="none" stroke="#000000" points="445.2471,-36 321.8731,-36 321.8731,0 445.2471,0 445.2471,-36"/>
<text text-anchor="middle" x="383.5601" y="-13.8" font-family="Times,serif" font-size="14.00" fill="#000000">Wheatstone Bridge</text>
</g>
<!-- LinearizationResistor&#45;&gt;WheatstoneBridge -->
<g id="edge2" class="edge">
<title>LinearizationResistor&#45;&gt;WheatstoneBridge</title>
<path fill="none" stroke="#000000" d="M285.9202,-18C294.3507,-18 302.971,-18 311.4282,-18"/>
<polygon fill="#000000" stroke="#000000" points="311.6396,-21.5001 321.6396,-18 311.6395,-14.5001 311.6396,-21.5001"/>
</g>
<!-- InstrumentationAmp -->
<g id="node4" class="node">
<title>InstrumentationAmp</title>
<polygon fill="none" stroke="#000000" points="644.933,-36 481.2266,-36 481.2266,0 644.933,0 644.933,-36"/>
<text text-anchor="middle" x="563.0798" y="-13.8" font-family="Times,serif" font-size="14.00" fill="#000000">Instrumentation Amplifier</text>
</g>
<!-- WheatstoneBridge&#45;&gt;InstrumentationAmp -->
<g id="edge3" class="edge">
<title>WheatstoneBridge&#45;&gt;InstrumentationAmp</title>
<path fill="none" stroke="#000000" d="M445.3406,-18C453.651,-18 462.3168,-18 471.0116,-18"/>
<polygon fill="#000000" stroke="#000000" points="471.2123,-21.5001 481.2123,-18 471.2122,-14.5001 471.2123,-21.5001"/>
</g>
<!-- LowPassFilter -->
<g id="node5" class="node">
<title>LowPassFilter</title>
<polygon fill="none" stroke="#000000" points="785.1363,-36 680.6293,-36 680.6293,0 785.1363,0 785.1363,-36"/>
<text text-anchor="middle" x="732.8828" y="-13.8" font-family="Times,serif" font-size="14.00" fill="#000000">Low&#45;pass Filter</text>
</g>
<!-- InstrumentationAmp&#45;&gt;LowPassFilter -->
<g id="edge4" class="edge">
<title>InstrumentationAmp&#45;&gt;LowPassFilter</title>
<path fill="none" stroke="#000000" d="M644.997,-18C653.4646,-18 661.9718,-18 670.1812,-18"/>
<polygon fill="#000000" stroke="#000000" points="670.3951,-21.5001 680.395,-18 670.395,-14.5001 670.3951,-21.5001"/>
</g>
<!-- OutputStage -->
<g id="node6" class="node">
<title>OutputStage</title>
<polygon fill="none" stroke="#000000" points="910.746,-36 820.763,-36 820.763,0 910.746,0 910.746,-36"/>
<text text-anchor="middle" x="865.7545" y="-13.8" font-family="Times,serif" font-size="14.00" fill="#000000">Output Stage</text>
</g>
<!-- LowPassFilter&#45;&gt;OutputStage -->
<g id="edge5" class="edge">
<title>LowPassFilter&#45;&gt;OutputStage</title>
<path fill="none" stroke="#000000" d="M785.0159,-18C793.3894,-18 802.0811,-18 810.5243,-18"/>
<polygon fill="#000000" stroke="#000000" points="810.6616,-21.5001 820.6616,-18 810.6616,-14.5001 810.6616,-21.5001"/>
</g>
<!-- Multimeter -->
<g id="node7" class="node">
<title>Multimeter</title>
<polygon fill="none" stroke="#000000" points="1025.4807,-36 946.5059,-36 946.5059,0 1025.4807,0 1025.4807,-36"/>
<text text-anchor="middle" x="985.9933" y="-13.8" font-family="Times,serif" font-size="14.00" fill="#000000">Multimeter</text>
</g>
<!-- OutputStage&#45;&gt;Multimeter -->
<g id="edge6" class="edge">
<title>OutputStage&#45;&gt;Multimeter</title>
<path fill="none" stroke="#000000" d="M910.527,-18C918.8814,-18 927.6596,-18 936.1555,-18"/>
<polygon fill="#000000" stroke="#000000" points="936.3311,-21.5001 946.3311,-18 936.331,-14.5001 936.3311,-21.5001"/>
</g>
</g>
</svg>
