<?xml version="1.0" encoding="UTF-8" standalone="no"?>
<!DOCTYPE svg PUBLIC "-//W3C//DTD SVG 1.1//EN"
 "http://www.w3.org/Graphics/SVG/1.1/DTD/svg11.dtd">
<!-- Generated by graphviz version 2.40.1 (20161225.0304)
 -->
<!-- Title: G Pages: 1 -->
<svg width="1397pt" height="110pt"
 viewBox="0.00 0.00 1396.53 109.60" xmlns="http://www.w3.org/2000/svg" xmlns:xlink="http://www.w3.org/1999/xlink">
<g id="graph0" class="graph" transform="scale(1 1) rotate(0) translate(4 105.6)">
<title>G</title>
<polygon fill="#ffffff" stroke="transparent" points="-4,4 -4,-105.6 1392.5266,-105.6 1392.5266,4 -4,4"/>
<!-- PressureSensorArray -->
<g id="node1" class="node">
<title>PressureSensorArray</title>
<polygon fill="none" stroke="#000000" points="396.0617,-98.8 228.0853,-98.8 228.0853,-62.8 396.0617,-62.8 396.0617,-98.8"/>
<text text-anchor="middle" x="312.0735" y="-76.6" font-family="Times,serif" font-size="14.00" fill="#000000">Pressure Sensor Array (x8)</text>
</g>
<!-- InstrumentationAmpPressure -->
<g id="node3" class="node">
<title>InstrumentationAmpPressure</title>
<polygon fill="none" stroke="#000000" points="600.7638,-101.4019 432.1688,-101.4019 432.1688,-60.1981 600.7638,-60.1981 600.7638,-101.4019"/>
<text text-anchor="middle" x="516.4663" y="-85" font-family="Times,serif" font-size="14.00" fill="#000000">Instrumentation Amplifiers</text>
<text text-anchor="middle" x="516.4663" y="-68.2" font-family="Times,serif" font-size="14.00" fill="#000000">(for Pressure) (x8)</text>
</g>
<!-- PressureSensorArray&#45;&gt;InstrumentationAmpPressure -->
<g id="edge1" class="edge">
<title>PressureSensorArray&#45;&gt;InstrumentationAmpPressure</title>
<path fill="none" stroke="#000000" d="M396.0927,-80.8C404.6397,-80.8 413.3619,-80.8 422.0099,-80.8"/>
<polygon fill="#000000" stroke="#000000" points="422.1127,-84.3001 432.1127,-80.8 422.1126,-77.3001 422.1127,-84.3001"/>
</g>
<!-- TemperatureSensorArray -->
<g id="node2" class="node">
<title>TemperatureSensorArray</title>
<polygon fill="none" stroke="#000000" points="192.1191,-38.8 -.0397,-38.8 -.0397,-2.8 192.1191,-2.8 192.1191,-38.8"/>
<text text-anchor="middle" x="96.0397" y="-16.6" font-family="Times,serif" font-size="14.00" fill="#000000">Temperature Sensor Array (x8)</text>
</g>
<!-- LinearizationTemp -->
<g id="node4" class="node">
<title>LinearizationTemp</title>
<polygon fill="none" stroke="#000000" points="384.2521,-41.4019 239.8949,-41.4019 239.8949,-.1981 384.2521,-.1981 384.2521,-41.4019"/>
<text text-anchor="middle" x="312.0735" y="-25" font-family="Times,serif" font-size="14.00" fill="#000000">Linearization Circuitry</text>
<text text-anchor="middle" x="312.0735" y="-8.2" font-family="Times,serif" font-size="14.00" fill="#000000">(for Temperature) (x8)</text>
</g>
<!-- TemperatureSensorArray&#45;&gt;LinearizationTemp -->
<g id="edge2" class="edge">
<title>TemperatureSensorArray&#45;&gt;LinearizationTemp</title>
<path fill="none" stroke="#000000" d="M192.3681,-20.8C204.7626,-20.8 217.3649,-20.8 229.5117,-20.8"/>
<polygon fill="#000000" stroke="#000000" points="229.5934,-24.3001 239.5934,-20.8 229.5933,-17.3001 229.5934,-24.3001"/>
</g>
<!-- Multiplexer -->
<g id="node6" class="node">
<title>Multiplexer</title>
<polygon fill="none" stroke="#000000" points="808.1463,-68.8 637.1041,-68.8 637.1041,-32.8 808.1463,-32.8 808.1463,-68.8"/>
<text text-anchor="middle" x="722.6252" y="-46.6" font-family="Times,serif" font-size="14.00" fill="#000000">16&#45;to&#45;1 Analog Multiplexer</text>
</g>
<!-- InstrumentationAmpPressure&#45;&gt;Multiplexer -->
<g id="edge4" class="edge">
<title>InstrumentationAmpPressure&#45;&gt;Multiplexer</title>
<path fill="none" stroke="#000000" d="M600.9139,-68.5113C609.4657,-67.2668 618.1945,-65.9966 626.8542,-64.7365"/>
<polygon fill="#000000" stroke="#000000" points="627.5817,-68.1676 636.9735,-63.2639 626.5737,-61.2405 627.5817,-68.1676"/>
</g>
<!-- InstrumentationAmpTemp -->
<g id="node5" class="node">
<title>InstrumentationAmpTemp</title>
<polygon fill="none" stroke="#000000" points="600.7638,-41.4019 432.1688,-41.4019 432.1688,-.1981 600.7638,-.1981 600.7638,-41.4019"/>
<text text-anchor="middle" x="516.4663" y="-25" font-family="Times,serif" font-size="14.00" fill="#000000">Instrumentation Amplifiers</text>
<text text-anchor="middle" x="516.4663" y="-8.2" font-family="Times,serif" font-size="14.00" fill="#000000">(for Temperature) (x8)</text>
</g>
<!-- LinearizationTemp&#45;&gt;InstrumentationAmpTemp -->
<g id="edge3" class="edge">
<title>LinearizationTemp&#45;&gt;InstrumentationAmpTemp</title>
<path fill="none" stroke="#000000" d="M384.4224,-20.8C396.5648,-20.8 409.3234,-20.8 421.9259,-20.8"/>
<polygon fill="#000000" stroke="#000000" points="421.9846,-24.3001 431.9846,-20.8 421.9846,-17.3001 421.9846,-24.3001"/>
</g>
<!-- InstrumentationAmpTemp&#45;&gt;Multiplexer -->
<g id="edge5" class="edge">
<title>InstrumentationAmpTemp&#45;&gt;Multiplexer</title>
<path fill="none" stroke="#000000" d="M600.9139,-33.0887C609.4657,-34.3332 618.1945,-35.6034 626.8542,-36.8635"/>
<polygon fill="#000000" stroke="#000000" points="626.5737,-40.3595 636.9735,-38.3361 627.5817,-33.4324 626.5737,-40.3595"/>
</g>
<!-- AntiAliasingFilter -->
<g id="node7" class="node">
<title>AntiAliasingFilter</title>
<polygon fill="none" stroke="#000000" points="971.1089,-68.8 844.4775,-68.8 844.4775,-32.8 971.1089,-32.8 971.1089,-68.8"/>
<text text-anchor="middle" x="907.7932" y="-46.6" font-family="Times,serif" font-size="14.00" fill="#000000">Anti&#45;Aliasing Filter</text>
</g>
<!-- Multiplexer&#45;&gt;AntiAliasingFilter -->
<g id="edge6" class="edge">
<title>Multiplexer&#45;&gt;AntiAliasingFilter</title>
<path fill="none" stroke="#000000" d="M808.163,-50.8C816.949,-50.8 825.8202,-50.8 834.4576,-50.8"/>
<polygon fill="#000000" stroke="#000000" points="834.4706,-54.3001 844.4705,-50.8 834.4705,-47.3001 834.4706,-54.3001"/>
</g>
<!-- ADC -->
<g id="node8" class="node">
<title>ADC</title>
<polygon fill="none" stroke="#000000" points="1182.8783,-68.8 1007.3085,-68.8 1007.3085,-32.8 1182.8783,-32.8 1182.8783,-68.8"/>
<text text-anchor="middle" x="1095.0934" y="-46.6" font-family="Times,serif" font-size="14.00" fill="#000000">Analog&#45;to&#45;Digital Converter</text>
</g>
<!-- AntiAliasingFilter&#45;&gt;ADC -->
<g id="edge7" class="edge">
<title>AntiAliasingFilter&#45;&gt;ADC</title>
<path fill="none" stroke="#000000" d="M971.2045,-50.8C979.5189,-50.8 988.1896,-50.8 996.9128,-50.8"/>
<polygon fill="#000000" stroke="#000000" points="997.159,-54.3001 1007.1589,-50.8 997.1589,-47.3001 997.159,-54.3001"/>
</g>
<!-- DataInterface -->
<g id="node9" class="node">
<title>DataInterface</title>
<polygon fill="none" stroke="#000000" points="1388.2976,-68.8 1219.2148,-68.8 1219.2148,-32.8 1388.2976,-32.8 1388.2976,-68.8"/>
<text text-anchor="middle" x="1303.7562" y="-46.6" font-family="Times,serif" font-size="14.00" fill="#000000">Data Interface to Computer</text>
</g>
<!-- ADC&#45;&gt;DataInterface -->
<g id="edge8" class="edge">
<title>ADC&#45;&gt;DataInterface</title>
<path fill="none" stroke="#000000" d="M1182.9804,-50.8C1191.5462,-50.8 1200.2636,-50.8 1208.8939,-50.8"/>
<polygon fill="#000000" stroke="#000000" points="1208.9709,-54.3001 1218.9708,-50.8 1208.9708,-47.3001 1208.9709,-54.3001"/>
</g>
</g>
</svg>
