<?xml version="1.0" encoding="UTF-8" standalone="no"?>
<!DOCTYPE svg PUBLIC "-//W3C//DTD SVG 1.1//EN"
 "http://www.w3.org/Graphics/SVG/1.1/DTD/svg11.dtd">
<!-- Generated by graphviz version 2.40.1 (20161225.0304)
 -->
<!-- Title: G Pages: 1 -->
<svg width="866pt" height="44pt"
 viewBox="0.00 0.00 866.35 44.00" xmlns="http://www.w3.org/2000/svg" xmlns:xlink="http://www.w3.org/1999/xlink">
<g id="graph0" class="graph" transform="scale(1 1) rotate(0) translate(4 40)">
<title>G</title>
<polygon fill="#ffffff" stroke="transparent" points="-4,4 -4,-40 862.355,-40 862.355,4 -4,4"/>
<!-- Potentiometer -->
<g id="node1" class="node">
<title>Potentiometer</title>
<polygon fill="none" stroke="#000000" points="94.3111,-36 .2289,-36 .2289,0 94.3111,0 94.3111,-36"/>
<text text-anchor="middle" x="47.27" y="-13.8" font-family="Times,serif" font-size="14.00" fill="#000000">Potentiometer</text>
</g>
<!-- Buffer -->
<g id="node2" class="node">
<title>Buffer</title>
<polygon fill="none" stroke="#000000" points="268.1396,-36 214.1396,-36 214.1396,0 268.1396,0 268.1396,-36"/>
<text text-anchor="middle" x="241.1396" y="-13.8" font-family="Times,serif" font-size="14.00" fill="#000000">Buffer</text>
</g>
<!-- Potentiometer&#45;&gt;Buffer -->
<g id="edge1" class="edge">
<title>Potentiometer&#45;&gt;Buffer</title>
<path fill="none" stroke="#000000" d="M94.6958,-18C128.1881,-18 172.4593,-18 203.5247,-18"/>
<polygon fill="#000000" stroke="#000000" points="203.9228,-21.5001 213.9228,-18 203.9228,-14.5001 203.9228,-21.5001"/>
<text text-anchor="middle" x="154.3398" y="-22.2" font-family="Times,serif" font-size="14.00" fill="#000000">Analog Output</text>
</g>
<!-- LowPassFilter -->
<g id="node3" class="node">
<title>LowPassFilter</title>
<polygon fill="none" stroke="#000000" points="484.5521,-36 387.8015,-36 387.8015,0 484.5521,0 484.5521,-36"/>
<text text-anchor="middle" x="436.1768" y="-13.8" font-family="Times,serif" font-size="14.00" fill="#000000">LowPassFilter</text>
</g>
<!-- Buffer&#45;&gt;LowPassFilter -->
<g id="edge2" class="edge">
<title>Buffer&#45;&gt;LowPassFilter</title>
<path fill="none" stroke="#000000" d="M268.2587,-18C296.2668,-18 340.8645,-18 377.0613,-18"/>
<polygon fill="#000000" stroke="#000000" points="377.5109,-21.5001 387.5109,-18 377.5108,-14.5001 377.5109,-21.5001"/>
<text text-anchor="middle" x="327.9394" y="-22.2" font-family="Times,serif" font-size="14.00" fill="#000000">Analog Output</text>
</g>
<!-- NotchFilter -->
<g id="node4" class="node">
<title>NotchFilter</title>
<polygon fill="none" stroke="#000000" points="684.5274,-36 604.442,-36 604.442,0 684.5274,0 684.5274,-36"/>
<text text-anchor="middle" x="644.4847" y="-13.8" font-family="Times,serif" font-size="14.00" fill="#000000">NotchFilter</text>
</g>
<!-- LowPassFilter&#45;&gt;NotchFilter -->
<g id="edge3" class="edge">
<title>LowPassFilter&#45;&gt;NotchFilter</title>
<path fill="none" stroke="#000000" d="M484.7529,-18C517.5141,-18 560.6506,-18 593.8374,-18"/>
<polygon fill="#000000" stroke="#000000" points="594.237,-21.5001 604.237,-18 594.2369,-14.5001 594.237,-21.5001"/>
<text text-anchor="middle" x="544.4142" y="-22.2" font-family="Times,serif" font-size="14.00" fill="#000000">Analog Output</text>
</g>
<!-- DAQ -->
<g id="node5" class="node">
<title>DAQ</title>
<polygon fill="none" stroke="#000000" points="858.355,-36 804.355,-36 804.355,0 858.355,0 858.355,-36"/>
<text text-anchor="middle" x="831.355" y="-13.8" font-family="Times,serif" font-size="14.00" fill="#000000">DAQ</text>
</g>
<!-- NotchFilter&#45;&gt;DAQ -->
<g id="edge4" class="edge">
<title>NotchFilter&#45;&gt;DAQ</title>
<path fill="none" stroke="#000000" d="M684.5731,-18C717.0435,-18 762.4405,-18 794.1208,-18"/>
<polygon fill="#000000" stroke="#000000" points="794.3003,-21.5001 804.3002,-18 794.3002,-14.5001 794.3003,-21.5001"/>
<text text-anchor="middle" x="744.5552" y="-22.2" font-family="Times,serif" font-size="14.00" fill="#000000">Analog Output</text>
</g>
</g>
</svg>
