<?xml version="1.0" encoding="UTF-8" standalone="no"?>
<!DOCTYPE svg PUBLIC "-//W3C//DTD SVG 1.1//EN"
 "http://www.w3.org/Graphics/SVG/1.1/DTD/svg11.dtd">
<!-- Generated by graphviz version 2.40.1 (20161225.0304)
 -->
<!-- Title: G Pages: 1 -->
<svg width="735pt" height="44pt"
 viewBox="0.00 0.00 735.45 44.00" xmlns="http://www.w3.org/2000/svg" xmlns:xlink="http://www.w3.org/1999/xlink">
<g id="graph0" class="graph" transform="scale(1 1) rotate(0) translate(4 40)">
<title>G</title>
<polygon fill="#ffffff" stroke="transparent" points="-4,4 -4,-40 731.454,-40 731.454,4 -4,4"/>
<!-- NTC -->
<g id="node1" class="node">
<title>NTC</title>
<polygon fill="none" stroke="#000000" points="109.5513,-36 .1493,-36 .1493,0 109.5513,0 109.5513,-36"/>
<text text-anchor="middle" x="54.8503" y="-13.8" font-family="Times,serif" font-size="14.00" fill="#000000">NTC Thermistor</text>
</g>
<!-- Linearization -->
<g id="node2" class="node">
<title>Linearization</title>
<polygon fill="none" stroke="#000000" points="288.8701,-36 145.6441,-36 145.6441,0 288.8701,0 288.8701,-36"/>
<text text-anchor="middle" x="217.2571" y="-13.8" font-family="Times,serif" font-size="14.00" fill="#000000">Linearization Network</text>
</g>
<!-- NTC&#45;&gt;Linearization -->
<g id="edge1" class="edge">
<title>NTC&#45;&gt;Linearization</title>
<path fill="none" stroke="#000000" d="M109.8338,-18C118.1015,-18 126.7753,-18 135.4583,-18"/>
<polygon fill="#000000" stroke="#000000" points="135.6317,-21.5001 145.6316,-18 135.6316,-14.5001 135.6317,-21.5001"/>
</g>
<!-- Buffer -->
<g id="node3" class="node">
<title>Buffer</title>
<polygon fill="none" stroke="#000000" points="436.1706,-36 324.6944,-36 324.6944,0 436.1706,0 436.1706,-36"/>
<text text-anchor="middle" x="380.4325" y="-13.8" font-family="Times,serif" font-size="14.00" fill="#000000">Buffer Amplifier</text>
</g>
<!-- Linearization&#45;&gt;Buffer -->
<g id="edge2" class="edge">
<title>Linearization&#45;&gt;Buffer</title>
<path fill="none" stroke="#000000" d="M288.8282,-18C297.3512,-18 306.0222,-18 314.4617,-18"/>
<polygon fill="#000000" stroke="#000000" points="314.6156,-21.5001 324.6156,-18 314.6155,-14.5001 314.6156,-21.5001"/>
</g>
<!-- Scaling -->
<g id="node4" class="node">
<title>Scaling</title>
<polygon fill="none" stroke="#000000" points="588.5985,-36 472.2021,-36 472.2021,0 588.5985,0 588.5985,-36"/>
<text text-anchor="middle" x="530.4003" y="-13.8" font-family="Times,serif" font-size="14.00" fill="#000000">Scaling Amplifier</text>
</g>
<!-- Buffer&#45;&gt;Scaling -->
<g id="edge3" class="edge">
<title>Buffer&#45;&gt;Scaling</title>
<path fill="none" stroke="#000000" d="M436.275,-18C444.6547,-18 453.3763,-18 461.9817,-18"/>
<polygon fill="#000000" stroke="#000000" points="462.0029,-21.5001 472.0028,-18 462.0028,-14.5001 462.0029,-21.5001"/>
</g>
<!-- Output -->
<g id="node5" class="node">
<title>Output</title>
<polygon fill="none" stroke="#000000" points="727.3068,-36 624.8964,-36 624.8964,0 727.3068,0 727.3068,-36"/>
<text text-anchor="middle" x="676.1016" y="-13.8" font-family="Times,serif" font-size="14.00" fill="#000000">Output Voltage</text>
</g>
<!-- Scaling&#45;&gt;Output -->
<g id="edge4" class="edge">
<title>Scaling&#45;&gt;Output</title>
<path fill="none" stroke="#000000" d="M588.8231,-18C597.2658,-18 605.9779,-18 614.4809,-18"/>
<polygon fill="#000000" stroke="#000000" points="614.7168,-21.5001 624.7168,-18 614.7167,-14.5001 614.7168,-21.5001"/>
</g>
</g>
</svg>
