<?xml version="1.0" encoding="UTF-8" standalone="no"?>
<!DOCTYPE svg PUBLIC "-//W3C//DTD SVG 1.1//EN"
 "http://www.w3.org/Graphics/SVG/1.1/DTD/svg11.dtd">
<!-- Generated by graphviz version 2.40.1 (20161225.0304)
 -->
<!-- Title: G Pages: 1 -->
<svg width="812pt" height="98pt"
 viewBox="0.00 0.00 811.89 98.00" xmlns="http://www.w3.org/2000/svg" xmlns:xlink="http://www.w3.org/1999/xlink">
<g id="graph0" class="graph" transform="scale(1 1) rotate(0) translate(4 94)">
<title>G</title>
<polygon fill="#ffffff" stroke="transparent" points="-4,4 -4,-94 807.895,-94 807.895,4 -4,4"/>
<!-- Potentiometer -->
<g id="node1" class="node">
<title>Potentiometer</title>
<polygon fill="none" stroke="#000000" points="94.3111,-52 .2289,-52 .2289,-16 94.3111,-16 94.3111,-52"/>
<text text-anchor="middle" x="47.27" y="-29.8" font-family="Times,serif" font-size="14.00" fill="#000000">Potentiometer</text>
</g>
<!-- Buffer -->
<g id="node2" class="node">
<title>Buffer</title>
<polygon fill="none" stroke="#000000" points="185.54,-52 131.54,-52 131.54,-16 185.54,-16 185.54,-52"/>
<text text-anchor="middle" x="158.54" y="-29.8" font-family="Times,serif" font-size="14.00" fill="#000000">Buffer</text>
</g>
<!-- Potentiometer&#45;&gt;Buffer -->
<g id="edge1" class="edge">
<title>Potentiometer&#45;&gt;Buffer</title>
<path fill="none" stroke="#000000" d="M94.4585,-34C103.3858,-34 112.6102,-34 121.1832,-34"/>
<polygon fill="#000000" stroke="#000000" points="121.2536,-37.5001 131.2535,-34 121.2535,-30.5001 121.2536,-37.5001"/>
</g>
<!-- LowPassFilter -->
<g id="node3" class="node">
<title>LowPassFilter</title>
<polygon fill="none" stroke="#000000" points="319.3529,-52 222.6023,-52 222.6023,-16 319.3529,-16 319.3529,-52"/>
<text text-anchor="middle" x="270.9776" y="-29.8" font-family="Times,serif" font-size="14.00" fill="#000000">LowPassFilter</text>
</g>
<!-- Buffer&#45;&gt;LowPassFilter -->
<g id="edge2" class="edge">
<title>Buffer&#45;&gt;LowPassFilter</title>
<path fill="none" stroke="#000000" d="M185.758,-34C193.8719,-34 203.0957,-34 212.4057,-34"/>
<polygon fill="#000000" stroke="#000000" points="212.4935,-37.5001 222.4934,-34 212.4934,-30.5001 212.4935,-37.5001"/>
</g>
<!-- Attenuator -->
<g id="node4" class="node">
<title>Attenuator</title>
<polygon fill="none" stroke="#000000" points="432.2176,-52 356.481,-52 356.481,-16 432.2176,-16 432.2176,-52"/>
<text text-anchor="middle" x="394.3493" y="-29.8" font-family="Times,serif" font-size="14.00" fill="#000000">Attenuator</text>
</g>
<!-- LowPassFilter&#45;&gt;Attenuator -->
<g id="edge3" class="edge">
<title>LowPassFilter&#45;&gt;Attenuator</title>
<path fill="none" stroke="#000000" d="M319.3833,-34C328.214,-34 337.4258,-34 346.2476,-34"/>
<polygon fill="#000000" stroke="#000000" points="346.3784,-37.5001 356.3783,-34 346.3783,-30.5001 346.3784,-37.5001"/>
</g>
<!-- AntiAliasingFilter -->
<g id="node5" class="node">
<title>AntiAliasingFilter</title>
<polygon fill="none" stroke="#000000" points="712.723,-90 594.412,-90 594.412,-54 712.723,-54 712.723,-90"/>
<text text-anchor="middle" x="653.5675" y="-67.8" font-family="Times,serif" font-size="14.00" fill="#000000">AntiAliasingFilter</text>
</g>
<!-- Attenuator&#45;&gt;AntiAliasingFilter -->
<g id="edge4" class="edge">
<title>Attenuator&#45;&gt;AntiAliasingFilter</title>
<path fill="none" stroke="#000000" d="M432.4504,-43.4236C438.3984,-44.7301 444.4915,-45.9738 450.2834,-47 494.571,-54.8471 544.7221,-61.043 584.1304,-65.3037"/>
<polygon fill="#000000" stroke="#000000" points="583.8522,-68.7938 594.1666,-66.3722 584.5934,-61.8332 583.8522,-68.7938"/>
</g>
<!-- VoltageLimiter -->
<g id="node7" class="node">
<title>VoltageLimiter</title>
<polygon fill="none" stroke="#000000" points="704.8752,-36 602.2598,-36 602.2598,0 704.8752,0 704.8752,-36"/>
<text text-anchor="middle" x="653.5675" y="-13.8" font-family="Times,serif" font-size="14.00" fill="#000000">VoltageLimiter</text>
</g>
<!-- Attenuator&#45;&gt;VoltageLimiter -->
<g id="edge6" class="edge">
<title>Attenuator&#45;&gt;VoltageLimiter</title>
<path fill="none" stroke="#000000" d="M432.2572,-31.384C438.2867,-30.9797 444.4554,-30.5728 450.2834,-30.2 497.8348,-27.1579 551.6582,-23.9377 591.9716,-21.57"/>
<polygon fill="#000000" stroke="#000000" points="592.4011,-25.0509 602.1792,-20.9717 591.9915,-18.0629 592.4011,-25.0509"/>
<text text-anchor="middle" x="513.2617" y="-35.2" font-family="Times,serif" font-size="14.00" fill="#000000">to prevent overvoltage</text>
</g>
<!-- DAQ -->
<g id="node6" class="node">
<title>DAQ</title>
<polygon fill="none" stroke="#000000" points="803.895,-90 749.895,-90 749.895,-54 803.895,-54 803.895,-90"/>
<text text-anchor="middle" x="776.895" y="-67.8" font-family="Times,serif" font-size="14.00" fill="#000000">DAQ</text>
</g>
<!-- AntiAliasingFilter&#45;&gt;DAQ -->
<g id="edge5" class="edge">
<title>AntiAliasingFilter&#45;&gt;DAQ</title>
<path fill="none" stroke="#000000" d="M713.0638,-72C722.0722,-72 731.1424,-72 739.504,-72"/>
<polygon fill="#000000" stroke="#000000" points="739.6585,-75.5001 749.6585,-72 739.6584,-68.5001 739.6585,-75.5001"/>
</g>
</g>
</svg>
