<?xml version="1.0" encoding="UTF-8" standalone="no"?>
<!DOCTYPE svg PUBLIC "-//W3C//DTD SVG 1.1//EN"
 "http://www.w3.org/Graphics/SVG/1.1/DTD/svg11.dtd">
<!-- Generated by graphviz version 2.40.1 (20161225.0304)
 -->
<!-- Title: G Pages: 1 -->
<svg width="912pt" height="101pt"
 viewBox="0.00 0.00 912.49 101.00" xmlns="http://www.w3.org/2000/svg" xmlns:xlink="http://www.w3.org/1999/xlink">
<g id="graph0" class="graph" transform="scale(1 1) rotate(0) translate(4 97)">
<title>G</title>
<polygon fill="#ffffff" stroke="transparent" points="-4,4 -4,-97 908.4912,-97 908.4912,4 -4,4"/>
<g id="clust2" class="cluster">
<title>cluster_1</title>
<polygon fill="none" stroke="#000000" points="560.3628,-8 560.3628,-85 896.4912,-85 896.4912,-8 560.3628,-8"/>
<text text-anchor="middle" x="728.427" y="-68.4" font-family="Times,serif" font-size="14.00" fill="#000000">Analog to Digital Conversion</text>
</g>
<g id="clust1" class="cluster">
<title>cluster_0</title>
<polygon fill="none" stroke="#000000" points="126.3872,-8 126.3872,-85 540.3628,-85 540.3628,-8 126.3872,-8"/>
<text text-anchor="middle" x="333.375" y="-68.4" font-family="Times,serif" font-size="14.00" fill="#000000">Signal Conditioning</text>
</g>
<!-- Accelerometer -->
<g id="node1" class="node">
<title>Accelerometer</title>
<polygon fill="none" stroke="#000000" points="98.5816,-52 -.1944,-52 -.1944,-16 98.5816,-16 98.5816,-52"/>
<text text-anchor="middle" x="49.1936" y="-29.8" font-family="Times,serif" font-size="14.00" fill="#000000">Accelerometer</text>
</g>
<!-- Charge Amplifier -->
<g id="node2" class="node">
<title>Charge Amplifier</title>
<polygon fill="none" stroke="#000000" points="249.5841,-52 134.3215,-52 134.3215,-16 249.5841,-16 249.5841,-52"/>
<text text-anchor="middle" x="191.9528" y="-29.8" font-family="Times,serif" font-size="14.00" fill="#000000">Charge Amplifier</text>
</g>
<!-- Accelerometer&#45;&gt;Charge Amplifier -->
<g id="edge1" class="edge">
<title>Accelerometer&#45;&gt;Charge Amplifier</title>
<path fill="none" stroke="#000000" d="M98.7232,-34C106.9425,-34 115.5895,-34 124.1672,-34"/>
<polygon fill="#000000" stroke="#000000" points="124.175,-37.5001 134.1749,-34 124.1749,-30.5001 124.175,-37.5001"/>
</g>
<!-- Low&#45;pass Filter -->
<g id="node3" class="node">
<title>Low&#45;pass Filter</title>
<polygon fill="none" stroke="#000000" points="389.8985,-52 285.3915,-52 285.3915,-16 389.8985,-16 389.8985,-52"/>
<text text-anchor="middle" x="337.645" y="-29.8" font-family="Times,serif" font-size="14.00" fill="#000000">Low&#45;pass Filter</text>
</g>
<!-- Charge Amplifier&#45;&gt;Low&#45;pass Filter -->
<g id="edge2" class="edge">
<title>Charge Amplifier&#45;&gt;Low&#45;pass Filter</title>
<path fill="none" stroke="#000000" d="M249.5342,-27.3835C257.9031,-27.2351 266.5534,-27.2104 275.0161,-27.3094"/>
<polygon fill="#000000" stroke="#000000" points="275.1531,-30.8123 285.214,-27.4913 275.2781,-23.8134 275.1531,-30.8123"/>
</g>
<!-- Charge Amplifier&#45;&gt;Low&#45;pass Filter -->
<g id="edge7" class="edge">
<title>Charge Amplifier&#45;&gt;Low&#45;pass Filter</title>
<path fill="none" stroke="#000000" d="M249.5342,-40.6165C257.9031,-40.7649 266.5534,-40.7896 275.0161,-40.6906"/>
<polygon fill="#000000" stroke="#000000" points="275.2781,-44.1866 285.214,-40.5087 275.1531,-37.1877 275.2781,-44.1866"/>
</g>
<!-- High&#45;pass Filter -->
<g id="node4" class="node">
<title>High&#45;pass Filter</title>
<polygon fill="none" stroke="#000000" points="532.1592,-52 425.9752,-52 425.9752,-16 532.1592,-16 532.1592,-52"/>
<text text-anchor="middle" x="479.0672" y="-29.8" font-family="Times,serif" font-size="14.00" fill="#000000">High&#45;pass Filter</text>
</g>
<!-- Low&#45;pass Filter&#45;&gt;High&#45;pass Filter -->
<g id="edge3" class="edge">
<title>Low&#45;pass Filter&#45;&gt;High&#45;pass Filter</title>
<path fill="none" stroke="#000000" d="M389.9036,-27.4586C398.1826,-27.2674 406.8244,-27.2077 415.3303,-27.2793"/>
<polygon fill="#000000" stroke="#000000" points="415.5538,-30.7829 425.6047,-27.4318 415.6578,-23.7836 415.5538,-30.7829"/>
</g>
<!-- Low&#45;pass Filter&#45;&gt;High&#45;pass Filter -->
<g id="edge8" class="edge">
<title>Low&#45;pass Filter&#45;&gt;High&#45;pass Filter</title>
<path fill="none" stroke="#000000" d="M389.9036,-40.5414C398.1826,-40.7326 406.8244,-40.7923 415.3303,-40.7207"/>
<polygon fill="#000000" stroke="#000000" points="415.6578,-44.2164 425.6047,-40.5682 415.5538,-37.2171 415.6578,-44.2164"/>
</g>
<!-- Amplifier -->
<g id="node5" class="node">
<title>Amplifier</title>
<polygon fill="none" stroke="#000000" points="639.6703,-52 568.2601,-52 568.2601,-16 639.6703,-16 639.6703,-52"/>
<text text-anchor="middle" x="603.9652" y="-29.8" font-family="Times,serif" font-size="14.00" fill="#000000">Amplifier</text>
</g>
<!-- High&#45;pass Filter&#45;&gt;Amplifier -->
<g id="edge4" class="edge">
<title>High&#45;pass Filter&#45;&gt;Amplifier</title>
<path fill="none" stroke="#000000" d="M532.3975,-27.3144C540.8821,-27.1938 549.5963,-27.2426 557.8952,-27.4607"/>
<polygon fill="#000000" stroke="#000000" points="558.0176,-30.9673 568.1365,-27.8276 558.2683,-23.9718 558.0176,-30.9673"/>
</g>
<!-- High&#45;pass Filter&#45;&gt;Amplifier -->
<g id="edge9" class="edge">
<title>High&#45;pass Filter&#45;&gt;Amplifier</title>
<path fill="none" stroke="#000000" d="M532.3975,-40.6856C540.8821,-40.8062 549.5963,-40.7574 557.8952,-40.5393"/>
<polygon fill="#000000" stroke="#000000" points="558.2683,-44.0282 568.1365,-40.1724 558.0176,-37.0327 558.2683,-44.0282"/>
</g>
<!-- Anti&#45;aliasing Filter -->
<g id="node6" class="node">
<title>Anti&#45;aliasing Filter</title>
<polygon fill="none" stroke="#000000" points="798.453,-52 675.6058,-52 675.6058,-16 798.453,-16 798.453,-52"/>
<text text-anchor="middle" x="737.0294" y="-29.8" font-family="Times,serif" font-size="14.00" fill="#000000">Anti&#45;aliasing Filter</text>
</g>
<!-- Amplifier&#45;&gt;Anti&#45;aliasing Filter -->
<g id="edge5" class="edge">
<title>Amplifier&#45;&gt;Anti&#45;aliasing Filter</title>
<path fill="none" stroke="#000000" d="M639.624,-27.9426C647.6783,-27.5537 656.5083,-27.3285 665.4606,-27.2672"/>
<polygon fill="#000000" stroke="#000000" points="665.585,-30.7671 675.5851,-27.2676 665.5853,-23.7671 665.585,-30.7671"/>
</g>
<!-- Amplifier&#45;&gt;Anti&#45;aliasing Filter -->
<g id="edge10" class="edge">
<title>Amplifier&#45;&gt;Anti&#45;aliasing Filter</title>
<path fill="none" stroke="#000000" d="M639.624,-40.0574C647.6783,-40.4463 656.5083,-40.6715 665.4606,-40.7328"/>
<polygon fill="#000000" stroke="#000000" points="665.5853,-44.2329 675.5851,-40.7324 665.585,-37.2329 665.5853,-44.2329"/>
</g>
<!-- ADC -->
<g id="node7" class="node">
<title>ADC</title>
<polygon fill="none" stroke="#000000" points="888.4912,-52 834.4912,-52 834.4912,-16 888.4912,-16 888.4912,-52"/>
<text text-anchor="middle" x="861.4912" y="-29.8" font-family="Times,serif" font-size="14.00" fill="#000000">ADC</text>
</g>
<!-- Anti&#45;aliasing Filter&#45;&gt;ADC -->
<g id="edge6" class="edge">
<title>Anti&#45;aliasing Filter&#45;&gt;ADC</title>
<path fill="none" stroke="#000000" d="M798.531,-27.2504C807.3032,-27.2405 816.0947,-27.4094 824.2082,-27.7572"/>
<polygon fill="#000000" stroke="#000000" points="824.2482,-31.2646 834.4249,-28.3175 824.6316,-24.2751 824.2482,-31.2646"/>
</g>
<!-- Anti&#45;aliasing Filter&#45;&gt;ADC -->
<g id="edge11" class="edge">
<title>Anti&#45;aliasing Filter&#45;&gt;ADC</title>
<path fill="none" stroke="#000000" d="M798.531,-40.7496C807.3032,-40.7595 816.0947,-40.5906 824.2082,-40.2428"/>
<polygon fill="#000000" stroke="#000000" points="824.6316,-43.7249 834.4249,-39.6825 824.2482,-36.7354 824.6316,-43.7249"/>
</g>
</g>
</svg>
