<?xml version="1.0" encoding="UTF-8" standalone="no"?>
<!DOCTYPE svg PUBLIC "-//W3C//DTD SVG 1.1//EN"
 "http://www.w3.org/Graphics/SVG/1.1/DTD/svg11.dtd">
<!-- Generated by graphviz version 2.40.1 (20161225.0304)
 -->
<!-- Title: G Pages: 1 -->
<svg width="1723pt" height="294pt"
 viewBox="0.00 0.00 1722.81 294.00" xmlns="http://www.w3.org/2000/svg" xmlns:xlink="http://www.w3.org/1999/xlink">
<g id="graph0" class="graph" transform="scale(1 1) rotate(0) translate(4 290)">
<title>G</title>
<polygon fill="#ffffff" stroke="transparent" points="-4,4 -4,-290 1718.8056,-290 1718.8056,4 -4,4"/>
<g id="clust2" class="cluster">
<title>cluster_1</title>
<polygon fill="none" stroke="#000000" points="163.0246,-8 163.0246,-139 1007.776,-139 1007.776,-8 163.0246,-8"/>
<text text-anchor="middle" x="585.4003" y="-122.4" font-family="Times,serif" font-size="14.00" fill="#000000">Temperature Sensor Array</text>
</g>
<g id="clust1" class="cluster">
<title>cluster_0</title>
<polygon fill="none" stroke="#000000" points="8,-147 8,-278 502.2856,-278 502.2856,-147 8,-147"/>
<text text-anchor="middle" x="255.1428" y="-261.4" font-family="Times,serif" font-size="14.00" fill="#000000">Pressure Sensor Array</text>
</g>
<!-- Pressure Sensor 1 -->
<g id="node1" class="node">
<title>Pressure Sensor 1</title>
<polygon fill="none" stroke="#000000" points="131.2879,-191 16.2367,-191 16.2367,-155 131.2879,-155 131.2879,-191"/>
<text text-anchor="middle" x="73.7623" y="-168.8" font-family="Times,serif" font-size="14.00" fill="#000000">Pressure Sensor 1</text>
</g>
<!-- Instrumentation Amp 1 -->
<g id="node2" class="node">
<title>Instrumentation Amp 1</title>
<polygon fill="none" stroke="#000000" points="494.1086,-191 347.8174,-191 347.8174,-155 494.1086,-155 494.1086,-191"/>
<text text-anchor="middle" x="420.963" y="-168.8" font-family="Times,serif" font-size="14.00" fill="#000000">Instrumentation Amp 1</text>
</g>
<!-- Pressure Sensor 1&#45;&gt;Instrumentation Amp 1 -->
<g id="edge1" class="edge">
<title>Pressure Sensor 1&#45;&gt;Instrumentation Amp 1</title>
<path fill="none" stroke="#000000" d="M131.4852,-173C187.7688,-173 273.9594,-173 337.6657,-173"/>
<polygon fill="#000000" stroke="#000000" points="337.6891,-176.5001 347.6891,-173 337.6891,-169.5001 337.6891,-176.5001"/>
</g>
<!-- Temperature Sensor 1 -->
<g id="node6" class="node">
<title>Temperature Sensor 1</title>
<polygon fill="none" stroke="#000000" points="310.4488,-52 171.2162,-52 171.2162,-16 310.4488,-16 310.4488,-52"/>
<text text-anchor="middle" x="240.8325" y="-29.8" font-family="Times,serif" font-size="14.00" fill="#000000">Temperature Sensor 1</text>
</g>
<!-- Pressure Sensor 1&#45;&gt;Temperature Sensor 1 -->
<!-- Multiplexer -->
<g id="node5" class="node">
<title>Multiplexer</title>
<polygon fill="none" stroke="#000000" points="999.8245,-106 917.6307,-106 917.6307,-70 999.8245,-70 999.8245,-106"/>
<text text-anchor="middle" x="958.7276" y="-83.8" font-family="Times,serif" font-size="14.00" fill="#000000">Multiplexer</text>
</g>
<!-- Instrumentation Amp 1&#45;&gt;Multiplexer -->
<g id="edge3" class="edge">
<title>Instrumentation Amp 1&#45;&gt;Multiplexer</title>
<path fill="none" stroke="#000000" d="M494.3284,-161.4037C604.9764,-143.9145 811.7816,-111.2265 907.5876,-96.0833"/>
<polygon fill="#000000" stroke="#000000" points="908.2773,-99.5178 917.6082,-94.4994 907.1844,-92.6036 908.2773,-99.5178"/>
<text text-anchor="middle" x="737.5045" y="-133.2" font-family="Times,serif" font-size="14.00" fill="#000000">1mV max each</text>
</g>
<!-- Pressure Sensor 8 -->
<g id="node3" class="node">
<title>Pressure Sensor 8</title>
<polygon fill="none" stroke="#000000" points="131.2879,-245 16.2367,-245 16.2367,-209 131.2879,-209 131.2879,-245"/>
<text text-anchor="middle" x="73.7623" y="-222.8" font-family="Times,serif" font-size="14.00" fill="#000000">Pressure Sensor 8</text>
</g>
<!-- Instrumentation Amp 8 -->
<g id="node4" class="node">
<title>Instrumentation Amp 8</title>
<polygon fill="none" stroke="#000000" points="494.1086,-245 347.8174,-245 347.8174,-209 494.1086,-209 494.1086,-245"/>
<text text-anchor="middle" x="420.963" y="-222.8" font-family="Times,serif" font-size="14.00" fill="#000000">Instrumentation Amp 8</text>
</g>
<!-- Pressure Sensor 8&#45;&gt;Instrumentation Amp 8 -->
<g id="edge2" class="edge">
<title>Pressure Sensor 8&#45;&gt;Instrumentation Amp 8</title>
<path fill="none" stroke="#000000" d="M131.4852,-227C187.7688,-227 273.9594,-227 337.6657,-227"/>
<polygon fill="#000000" stroke="#000000" points="337.6891,-230.5001 347.6891,-227 337.6891,-223.5001 337.6891,-230.5001"/>
</g>
<!-- Temperature Sensor 8 -->
<g id="node8" class="node">
<title>Temperature Sensor 8</title>
<polygon fill="none" stroke="#000000" points="310.4488,-106 171.2162,-106 171.2162,-70 310.4488,-70 310.4488,-106"/>
<text text-anchor="middle" x="240.8325" y="-83.8" font-family="Times,serif" font-size="14.00" fill="#000000">Temperature Sensor 8</text>
</g>
<!-- Pressure Sensor 8&#45;&gt;Temperature Sensor 8 -->
<!-- Instrumentation Amp 8&#45;&gt;Multiplexer -->
<g id="edge4" class="edge">
<title>Instrumentation Amp 8&#45;&gt;Multiplexer</title>
<path fill="none" stroke="#000000" d="M494.4385,-215.0762C586.4005,-198.9828 747.9568,-166.8268 880.6792,-120 889.5966,-116.8538 898.9809,-113.2589 908.0293,-109.6418"/>
<polygon fill="#000000" stroke="#000000" points="909.3509,-112.8828 917.3034,-105.8823 906.721,-106.3956 909.3509,-112.8828"/>
</g>
<!-- Anti&#45;Aliasing Filter -->
<g id="node10" class="node">
<title>Anti&#45;Aliasing Filter</title>
<polygon fill="none" stroke="#000000" points="1275.6587,-106 1149.0273,-106 1149.0273,-70 1275.6587,-70 1275.6587,-106"/>
<text text-anchor="middle" x="1212.343" y="-83.8" font-family="Times,serif" font-size="14.00" fill="#000000">Anti&#45;Aliasing Filter</text>
</g>
<!-- Multiplexer&#45;&gt;Anti&#45;Aliasing Filter -->
<g id="edge9" class="edge">
<title>Multiplexer&#45;&gt;Anti&#45;Aliasing Filter</title>
<path fill="none" stroke="#000000" d="M1000.0397,-88C1037.491,-88 1093.5653,-88 1138.6816,-88"/>
<polygon fill="#000000" stroke="#000000" points="1138.7172,-91.5001 1148.7172,-88 1138.7172,-84.5001 1138.7172,-91.5001"/>
<text text-anchor="middle" x="1074.3556" y="-92.2" font-family="Times,serif" font-size="14.00" fill="#000000">Multiplexed Signals</text>
</g>
<!-- Nonlinear Correction 1 -->
<g id="node7" class="node">
<title>Nonlinear Correction 1</title>
<polygon fill="none" stroke="#000000" points="677.0544,-52 531.3626,-52 531.3626,-16 677.0544,-16 677.0544,-52"/>
<text text-anchor="middle" x="604.2085" y="-29.8" font-family="Times,serif" font-size="14.00" fill="#000000">Nonlinear Correction 1</text>
</g>
<!-- Temperature Sensor 1&#45;&gt;Nonlinear Correction 1 -->
<g id="edge5" class="edge">
<title>Temperature Sensor 1&#45;&gt;Nonlinear Correction 1</title>
<path fill="none" stroke="#000000" d="M310.4651,-34C370.5185,-34 457.3682,-34 521.0575,-34"/>
<polygon fill="#000000" stroke="#000000" points="521.0727,-37.5001 531.0727,-34 521.0726,-30.5001 521.0727,-37.5001"/>
</g>
<!-- Nonlinear Correction 1&#45;&gt;Multiplexer -->
<g id="edge7" class="edge">
<title>Nonlinear Correction 1&#45;&gt;Multiplexer</title>
<path fill="none" stroke="#000000" d="M677.1138,-39.9278C733.1115,-45.1619 812.1988,-54.0312 880.6792,-67.2 889.4838,-68.8931 898.759,-71.038 907.7203,-73.3033"/>
<polygon fill="#000000" stroke="#000000" points="907.1034,-76.7594 917.6629,-75.8945 908.8688,-69.9856 907.1034,-76.7594"/>
<text text-anchor="middle" x="839.2784" y="-71.2" font-family="Times,serif" font-size="14.00" fill="#000000">0&#45;100mV each</text>
</g>
<!-- Nonlinear Correction 8 -->
<g id="node9" class="node">
<title>Nonlinear Correction 8</title>
<polygon fill="none" stroke="#000000" points="677.0544,-106 531.3626,-106 531.3626,-70 677.0544,-70 677.0544,-106"/>
<text text-anchor="middle" x="604.2085" y="-83.8" font-family="Times,serif" font-size="14.00" fill="#000000">Nonlinear Correction 8</text>
</g>
<!-- Temperature Sensor 8&#45;&gt;Nonlinear Correction 8 -->
<g id="edge6" class="edge">
<title>Temperature Sensor 8&#45;&gt;Nonlinear Correction 8</title>
<path fill="none" stroke="#000000" d="M310.4651,-88C370.5185,-88 457.3682,-88 521.0575,-88"/>
<polygon fill="#000000" stroke="#000000" points="521.0727,-91.5001 531.0727,-88 521.0726,-84.5001 521.0727,-91.5001"/>
</g>
<!-- Nonlinear Correction 8&#45;&gt;Multiplexer -->
<g id="edge8" class="edge">
<title>Nonlinear Correction 8&#45;&gt;Multiplexer</title>
<path fill="none" stroke="#000000" d="M677.2352,-88C745.8323,-88 846.7293,-88 907.2573,-88"/>
<polygon fill="#000000" stroke="#000000" points="907.3428,-91.5001 917.3428,-88 907.3428,-84.5001 907.3428,-91.5001"/>
</g>
<!-- ADC -->
<g id="node11" class="node">
<title>ADC</title>
<polygon fill="none" stroke="#000000" points="1454.018,-106 1400.018,-106 1400.018,-70 1454.018,-70 1454.018,-106"/>
<text text-anchor="middle" x="1427.018" y="-83.8" font-family="Times,serif" font-size="14.00" fill="#000000">ADC</text>
</g>
<!-- Anti&#45;Aliasing Filter&#45;&gt;ADC -->
<g id="edge10" class="edge">
<title>Anti&#45;Aliasing Filter&#45;&gt;ADC</title>
<path fill="none" stroke="#000000" d="M1275.8812,-88C1312.9822,-88 1358.5099,-88 1389.8424,-88"/>
<polygon fill="#000000" stroke="#000000" points="1389.8914,-91.5001 1399.8913,-88 1389.8913,-84.5001 1389.8914,-91.5001"/>
<text text-anchor="middle" x="1337.8844" y="-92.2" font-family="Times,serif" font-size="14.00" fill="#000000">Filtered Signals</text>
</g>
<!-- Data Acquisition System -->
<g id="node12" class="node">
<title>Data Acquisition System</title>
<polygon fill="none" stroke="#000000" points="1714.7944,-106 1558.8392,-106 1558.8392,-70 1714.7944,-70 1714.7944,-106"/>
<text text-anchor="middle" x="1636.8168" y="-83.8" font-family="Times,serif" font-size="14.00" fill="#000000">Data Acquisition System</text>
</g>
<!-- ADC&#45;&gt;Data Acquisition System -->
<g id="edge11" class="edge">
<title>ADC&#45;&gt;Data Acquisition System</title>
<path fill="none" stroke="#000000" d="M1454.4455,-88C1478.4022,-88 1514.539,-88 1548.3424,-88"/>
<polygon fill="#000000" stroke="#000000" points="1548.7421,-91.5001 1558.7421,-88 1548.742,-84.5001 1548.7421,-91.5001"/>
<text text-anchor="middle" x="1506.423" y="-92.2" font-family="Times,serif" font-size="14.00" fill="#000000">Digital Data</text>
</g>
</g>
</svg>
