<?xml version="1.0" encoding="UTF-8" standalone="no"?>
<!DOCTYPE svg PUBLIC "-//W3C//DTD SVG 1.1//EN"
 "http://www.w3.org/Graphics/SVG/1.1/DTD/svg11.dtd">
<!-- Generated by graphviz version 2.40.1 (20161225.0304)
 -->
<!-- Title: G Pages: 1 -->
<svg width="1088pt" height="44pt"
 viewBox="0.00 0.00 1087.97 44.00" xmlns="http://www.w3.org/2000/svg" xmlns:xlink="http://www.w3.org/1999/xlink">
<g id="graph0" class="graph" transform="scale(1 1) rotate(0) translate(4 40)">
<title>G</title>
<polygon fill="#ffffff" stroke="transparent" points="-4,4 -4,-40 1083.9716,-40 1083.9716,4 -4,4"/>
<!-- Potentiometer -->
<g id="node1" class="node">
<title>Potentiometer</title>
<polygon fill="none" stroke="#000000" points="94.3111,-36 .2289,-36 .2289,0 94.3111,0 94.3111,-36"/>
<text text-anchor="middle" x="47.27" y="-13.8" font-family="Times,serif" font-size="14.00" fill="#000000">Potentiometer</text>
</g>
<!-- Buffer -->
<g id="node2" class="node">
<title>Buffer</title>
<polygon fill="none" stroke="#000000" points="184.54,-36 130.54,-36 130.54,0 184.54,0 184.54,-36"/>
<text text-anchor="middle" x="157.54" y="-13.8" font-family="Times,serif" font-size="14.00" fill="#000000">Buffer</text>
</g>
<!-- Potentiometer&#45;&gt;Buffer -->
<g id="edge1" class="edge">
<title>Potentiometer&#45;&gt;Buffer</title>
<path fill="none" stroke="#000000" d="M94.3543,-18C102.9976,-18 111.9108,-18 120.2193,-18"/>
<polygon fill="#000000" stroke="#000000" points="120.3541,-21.5001 130.3541,-18 120.3541,-14.5001 120.3541,-21.5001"/>
</g>
<!-- Voltage Divider -->
<g id="node3" class="node">
<title>Voltage Divider</title>
<polygon fill="none" stroke="#000000" points="326.9108,-36 220.7492,-36 220.7492,0 326.9108,0 326.9108,-36"/>
<text text-anchor="middle" x="273.83" y="-13.8" font-family="Times,serif" font-size="14.00" fill="#000000">Voltage Divider</text>
</g>
<!-- Buffer&#45;&gt;Voltage Divider -->
<g id="edge2" class="edge">
<title>Buffer&#45;&gt;Voltage Divider</title>
<path fill="none" stroke="#000000" d="M184.8048,-18C192.609,-18 201.4587,-18 210.4768,-18"/>
<polygon fill="#000000" stroke="#000000" points="210.6835,-21.5001 220.6834,-18 210.6834,-14.5001 210.6835,-21.5001"/>
</g>
<!-- Low&#45;pass Filter -->
<g id="node4" class="node">
<title>Low&#45;pass Filter</title>
<polygon fill="none" stroke="#000000" points="467.5001,-36 362.9931,-36 362.9931,0 467.5001,0 467.5001,-36"/>
<text text-anchor="middle" x="415.2466" y="-13.8" font-family="Times,serif" font-size="14.00" fill="#000000">Low&#45;pass Filter</text>
</g>
<!-- Voltage Divider&#45;&gt;Low&#45;pass Filter -->
<g id="edge3" class="edge">
<title>Voltage Divider&#45;&gt;Low&#45;pass Filter</title>
<path fill="none" stroke="#000000" d="M327.2936,-18C335.6346,-18 344.3166,-18 352.8356,-18"/>
<polygon fill="#000000" stroke="#000000" points="353.1124,-21.5001 363.1124,-18 353.1123,-14.5001 353.1124,-21.5001"/>
</g>
<!-- Notch Filter (50 Hz) -->
<g id="node5" class="node">
<title>Notch Filter (50 Hz)</title>
<polygon fill="none" stroke="#000000" points="633.8993,-36 503.5309,-36 503.5309,0 633.8993,0 633.8993,-36"/>
<text text-anchor="middle" x="568.7151" y="-13.8" font-family="Times,serif" font-size="14.00" fill="#000000">Notch Filter (50 Hz)</text>
</g>
<!-- Low&#45;pass Filter&#45;&gt;Notch Filter (50 Hz) -->
<g id="edge4" class="edge">
<title>Low&#45;pass Filter&#45;&gt;Notch Filter (50 Hz)</title>
<path fill="none" stroke="#000000" d="M467.6325,-18C475.8708,-18 484.5269,-18 493.1629,-18"/>
<polygon fill="#000000" stroke="#000000" points="493.2655,-21.5001 503.2655,-18 493.2655,-14.5001 493.2655,-21.5001"/>
</g>
<!-- Notch Filter (60 Hz) -->
<g id="node6" class="node">
<title>Notch Filter (60 Hz)</title>
<polygon fill="none" stroke="#000000" points="800.5831,-36 670.2147,-36 670.2147,0 800.5831,0 800.5831,-36"/>
<text text-anchor="middle" x="735.3989" y="-13.8" font-family="Times,serif" font-size="14.00" fill="#000000">Notch Filter (60 Hz)</text>
</g>
<!-- Notch Filter (50 Hz)&#45;&gt;Notch Filter (60 Hz) -->
<g id="edge5" class="edge">
<title>Notch Filter (50 Hz)&#45;&gt;Notch Filter (60 Hz)</title>
<path fill="none" stroke="#000000" d="M634.1145,-18C642.6366,-18 651.4214,-18 660.0892,-18"/>
<polygon fill="#000000" stroke="#000000" points="660.1881,-21.5001 670.188,-18 660.188,-14.5001 660.1881,-21.5001"/>
</g>
<!-- Attenuator/Level Shifter -->
<g id="node7" class="node">
<title>Attenuator/Level Shifter</title>
<polygon fill="none" stroke="#000000" points="990.0872,-36 836.6252,-36 836.6252,0 990.0872,0 990.0872,-36"/>
<text text-anchor="middle" x="913.3562" y="-13.8" font-family="Times,serif" font-size="14.00" fill="#000000">Attenuator/Level Shifter</text>
</g>
<!-- Notch Filter (60 Hz)&#45;&gt;Attenuator/Level Shifter -->
<g id="edge6" class="edge">
<title>Notch Filter (60 Hz)&#45;&gt;Attenuator/Level Shifter</title>
<path fill="none" stroke="#000000" d="M800.6531,-18C809.0663,-18 817.7847,-18 826.4764,-18"/>
<polygon fill="#000000" stroke="#000000" points="826.6476,-21.5001 836.6476,-18 826.6475,-14.5001 826.6476,-21.5001"/>
</g>
<!-- DAQ -->
<g id="node8" class="node">
<title>DAQ</title>
<polygon fill="none" stroke="#000000" points="1079.9716,-36 1025.9716,-36 1025.9716,0 1079.9716,0 1079.9716,-36"/>
<text text-anchor="middle" x="1052.9716" y="-13.8" font-family="Times,serif" font-size="14.00" fill="#000000">DAQ</text>
</g>
<!-- Attenuator/Level Shifter&#45;&gt;DAQ -->
<g id="edge7" class="edge">
<title>Attenuator/Level Shifter&#45;&gt;DAQ</title>
<path fill="none" stroke="#000000" d="M990.1072,-18C999.0068,-18 1007.7545,-18 1015.7638,-18"/>
<polygon fill="#000000" stroke="#000000" points="1015.8182,-21.5001 1025.8182,-18 1015.8181,-14.5001 1015.8182,-21.5001"/>
</g>
</g>
</svg>
