<?xml version="1.0" encoding="UTF-8" standalone="no"?>
<!DOCTYPE svg PUBLIC "-//W3C//DTD SVG 1.1//EN"
 "http://www.w3.org/Graphics/SVG/1.1/DTD/svg11.dtd">
<!-- Generated by graphviz version 2.40.1 (20161225.0304)
 -->
<!-- Title: G Pages: 1 -->
<svg width="419pt" height="44pt"
 viewBox="0.00 0.00 419.30 44.00" xmlns="http://www.w3.org/2000/svg" xmlns:xlink="http://www.w3.org/1999/xlink">
<g id="graph0" class="graph" transform="scale(1 1) rotate(0) translate(4 40)">
<title>G</title>
<polygon fill="#ffffff" stroke="transparent" points="-4,4 -4,-40 415.3044,-40 415.3044,4 -4,4"/>
<!-- Potentiometer -->
<g id="node1" class="node">
<title>Potentiometer</title>
<polygon fill="none" stroke="#000000" points="94.3111,-36 .2289,-36 .2289,0 94.3111,0 94.3111,-36"/>
<text text-anchor="middle" x="47.27" y="-13.8" font-family="Times,serif" font-size="14.00" fill="#000000">Potentiometer</text>
</g>
<!-- Buffer -->
<g id="node2" class="node">
<title>Buffer</title>
<polygon fill="none" stroke="#000000" points="184.54,-36 130.54,-36 130.54,0 184.54,0 184.54,-36"/>
<text text-anchor="middle" x="157.54" y="-13.8" font-family="Times,serif" font-size="14.00" fill="#000000">Buffer</text>
</g>
<!-- Potentiometer&#45;&gt;Buffer -->
<g id="edge1" class="edge">
<title>Potentiometer&#45;&gt;Buffer</title>
<path fill="none" stroke="#000000" d="M94.3543,-18C102.9976,-18 111.9108,-18 120.2193,-18"/>
<polygon fill="#000000" stroke="#000000" points="120.3541,-21.5001 130.3541,-18 120.3541,-14.5001 120.3541,-21.5001"/>
</g>
<!-- AntiAliasFilter -->
<g id="node3" class="node">
<title>AntiAliasFilter</title>
<polygon fill="none" stroke="#000000" points="321.1869,-36 220.6575,-36 220.6575,0 321.1869,0 321.1869,-36"/>
<text text-anchor="middle" x="270.9222" y="-13.8" font-family="Times,serif" font-size="14.00" fill="#000000">AntiAliasFilter</text>
</g>
<!-- Buffer&#45;&gt;AntiAliasFilter -->
<g id="edge2" class="edge">
<title>Buffer&#45;&gt;AntiAliasFilter</title>
<path fill="none" stroke="#000000" d="M184.6979,-18C192.5043,-18 201.3472,-18 210.3214,-18"/>
<polygon fill="#000000" stroke="#000000" points="210.4612,-21.5001 220.4611,-18 210.4611,-14.5001 210.4612,-21.5001"/>
</g>
<!-- ADC -->
<g id="node4" class="node">
<title>ADC</title>
<polygon fill="none" stroke="#000000" points="411.3044,-36 357.3044,-36 357.3044,0 411.3044,0 411.3044,-36"/>
<text text-anchor="middle" x="384.3044" y="-13.8" font-family="Times,serif" font-size="14.00" fill="#000000">ADC</text>
</g>
<!-- AntiAliasFilter&#45;&gt;ADC -->
<g id="edge3" class="edge">
<title>AntiAliasFilter&#45;&gt;ADC</title>
<path fill="none" stroke="#000000" d="M321.3136,-18C329.9633,-18 338.8112,-18 347.0382,-18"/>
<polygon fill="#000000" stroke="#000000" points="347.0654,-21.5001 357.0654,-18 347.0654,-14.5001 347.0654,-21.5001"/>
</g>
</g>
</svg>
