<?xml version="1.0" encoding="UTF-8" standalone="no"?>
<!DOCTYPE svg PUBLIC "-//W3C//DTD SVG 1.1//EN"
 "http://www.w3.org/Graphics/SVG/1.1/DTD/svg11.dtd">
<!-- Generated by graphviz version 2.40.1 (20161225.0304)
 -->
<!-- Title: G Pages: 1 -->
<svg width="170pt" height="461pt"
 viewBox="0.00 0.00 170.00 460.80" xmlns="http://www.w3.org/2000/svg" xmlns:xlink="http://www.w3.org/1999/xlink">
<g id="graph0" class="graph" transform="scale(1 1) rotate(0) translate(4 456.8)">
<title>G</title>
<polygon fill="#ffffff" stroke="transparent" points="-4,4 -4,-456.8 166,-456.8 166,4 -4,4"/>
<g id="clust1" class="cluster">
<title>cluster_legend</title>
<polygon fill="none" stroke="#000000" points="8,-8 8,-444.8 154,-444.8 154,-8 8,-8"/>
<text text-anchor="middle" x="81" y="-428.2" font-family="Times,serif" font-size="14.00" fill="#000000">Legend</text>
</g>
<!-- Potentiometer -->
<g id="node1" class="node">
<title>Potentiometer</title>
<ellipse fill="#d3d3d3" stroke="#d3d3d3" cx="81" cy="-394" rx="65.4246" ry="18"/>
<text text-anchor="middle" x="81" y="-389.8" font-family="Times,serif" font-size="14.00" fill="#000000">Potentiometer</text>
</g>
<!-- Buffer -->
<g id="node2" class="node">
<title>Buffer</title>
<polygon fill="#d3d3d3" stroke="#d3d3d3" points="108,-340 54,-340 54,-304 108,-304 108,-340"/>
<text text-anchor="middle" x="81" y="-317.8" font-family="Times,serif" font-size="14.00" fill="#000000">Buffer</text>
</g>
<!-- Potentiometer&#45;&gt;Buffer -->
<g id="edge1" class="edge">
<title>Potentiometer&#45;&gt;Buffer</title>
<path fill="none" stroke="#000000" d="M81,-375.8314C81,-368.131 81,-358.9743 81,-350.4166"/>
<polygon fill="#000000" stroke="#000000" points="84.5001,-350.4132 81,-340.4133 77.5001,-350.4133 84.5001,-350.4132"/>
</g>
<!-- Gain_Block -->
<g id="node3" class="node">
<title>Gain_Block</title>
<polygon fill="#d3d3d3" stroke="#d3d3d3" points="116.7051,-268 45.2949,-268 45.2949,-232 116.7051,-232 116.7051,-268"/>
<text text-anchor="middle" x="81" y="-245.8" font-family="Times,serif" font-size="14.00" fill="#000000">Amplifier</text>
</g>
<!-- Buffer&#45;&gt;Gain_Block -->
<g id="edge2" class="edge">
<title>Buffer&#45;&gt;Gain_Block</title>
<path fill="none" stroke="#000000" d="M81,-303.8314C81,-296.131 81,-286.9743 81,-278.4166"/>
<polygon fill="#000000" stroke="#000000" points="84.5001,-278.4132 81,-268.4133 77.5001,-278.4133 84.5001,-278.4132"/>
</g>
<!-- Level_Shifter -->
<g id="node4" class="node">
<title>Level_Shifter</title>
<polygon fill="#d3d3d3" stroke="#d3d3d3" points="125.9733,-196 36.0267,-196 36.0267,-160 125.9733,-160 125.9733,-196"/>
<text text-anchor="middle" x="81" y="-173.8" font-family="Times,serif" font-size="14.00" fill="#000000">Level Shifter</text>
</g>
<!-- Gain_Block&#45;&gt;Level_Shifter -->
<g id="edge3" class="edge">
<title>Gain_Block&#45;&gt;Level_Shifter</title>
<path fill="none" stroke="#000000" d="M81,-231.8314C81,-224.131 81,-214.9743 81,-206.4166"/>
<polygon fill="#000000" stroke="#000000" points="84.5001,-206.4132 81,-196.4133 77.5001,-206.4133 84.5001,-206.4132"/>
</g>
<!-- AntiAliasingFilter -->
<g id="node5" class="node">
<title>AntiAliasingFilter</title>
<polygon fill="#d3d3d3" stroke="#d3d3d3" points="144.3157,-124 17.6843,-124 17.6843,-88 144.3157,-88 144.3157,-124"/>
<text text-anchor="middle" x="81" y="-101.8" font-family="Times,serif" font-size="14.00" fill="#000000">Anti&#45;Aliasing Filter</text>
</g>
<!-- Level_Shifter&#45;&gt;AntiAliasingFilter -->
<g id="edge4" class="edge">
<title>Level_Shifter&#45;&gt;AntiAliasingFilter</title>
<path fill="none" stroke="#000000" d="M81,-159.8314C81,-152.131 81,-142.9743 81,-134.4166"/>
<polygon fill="#000000" stroke="#000000" points="84.5001,-134.4132 81,-124.4133 77.5001,-134.4133 84.5001,-134.4132"/>
</g>
<!-- DAQ_Input -->
<g id="node6" class="node">
<title>DAQ_Input</title>
<ellipse fill="#d3d3d3" stroke="#d3d3d3" cx="81" cy="-34" rx="54.9985" ry="18"/>
<text text-anchor="middle" x="81" y="-29.8" font-family="Times,serif" font-size="14.00" fill="#000000">DAQ Input</text>
</g>
<!-- AntiAliasingFilter&#45;&gt;DAQ_Input -->
<g id="edge5" class="edge">
<title>AntiAliasingFilter&#45;&gt;DAQ_Input</title>
<path fill="none" stroke="#000000" d="M81,-87.8314C81,-80.131 81,-70.9743 81,-62.4166"/>
<polygon fill="#000000" stroke="#000000" points="84.5001,-62.4132 81,-52.4133 77.5001,-62.4133 84.5001,-62.4132"/>
</g>
</g>
</svg>
