<?xml version="1.0" encoding="UTF-8" standalone="no"?>
<!DOCTYPE svg PUBLIC "-//W3C//DTD SVG 1.1//EN"
 "http://www.w3.org/Graphics/SVG/1.1/DTD/svg11.dtd">
<!-- Generated by graphviz version 2.40.1 (20161225.0304)
 -->
<!-- Title: G Pages: 1 -->
<svg width="449pt" height="139pt"
 viewBox="0.00 0.00 448.61 139.00" xmlns="http://www.w3.org/2000/svg" xmlns:xlink="http://www.w3.org/1999/xlink">
<g id="graph0" class="graph" transform="scale(1 1) rotate(0) translate(4 135)">
<title>G</title>
<polygon fill="#ffffff" stroke="transparent" points="-4,4 -4,-135 444.6088,-135 444.6088,4 -4,4"/>
<g id="clust1" class="cluster">
<title>cluster_0</title>
<polygon fill="none" stroke="#000000" points="229.7336,-46 229.7336,-123 432.6088,-123 432.6088,-46 229.7336,-46"/>
<text text-anchor="middle" x="331.1712" y="-106.4" font-family="Times,serif" font-size="14.00" fill="#000000">ADC Module</text>
</g>
<!-- Sensor -->
<g id="node1" class="node">
<title>Sensor</title>
<polygon fill="none" stroke="#000000" points="54.1537,-90 -.0513,-90 -.0513,-54 54.1537,-54 54.1537,-90"/>
<text text-anchor="middle" x="27.0512" y="-67.8" font-family="Times,serif" font-size="14.00" fill="#000000">Sensor</text>
</g>
<!-- ChargeAmplifier -->
<g id="node2" class="node">
<title>ChargeAmplifier</title>
<polygon fill="none" stroke="#000000" points="201.5498,-90 90.2862,-90 90.2862,-54 201.5498,-54 201.5498,-90"/>
<text text-anchor="middle" x="145.918" y="-67.8" font-family="Times,serif" font-size="14.00" fill="#000000">ChargeAmplifier</text>
</g>
<!-- Sensor&#45;&gt;ChargeAmplifier -->
<g id="edge1" class="edge">
<title>Sensor&#45;&gt;ChargeAmplifier</title>
<path fill="none" stroke="#000000" d="M54.3216,-72C62.0905,-72 70.9085,-72 79.9304,-72"/>
<polygon fill="#000000" stroke="#000000" points="80.1581,-75.5001 90.1581,-72 80.1581,-68.5001 80.1581,-75.5001"/>
</g>
<!-- LowPassFilter -->
<g id="node3" class="node">
<title>LowPassFilter</title>
<polygon fill="none" stroke="#000000" points="334.5465,-90 237.7959,-90 237.7959,-54 334.5465,-54 334.5465,-90"/>
<text text-anchor="middle" x="286.1712" y="-67.8" font-family="Times,serif" font-size="14.00" fill="#000000">LowPassFilter</text>
</g>
<!-- ChargeAmplifier&#45;&gt;LowPassFilter -->
<g id="edge2" class="edge">
<title>ChargeAmplifier&#45;&gt;LowPassFilter</title>
<path fill="none" stroke="#000000" d="M201.7528,-72C210.225,-72 218.9879,-72 227.5179,-72"/>
<polygon fill="#000000" stroke="#000000" points="227.7721,-75.5001 237.7721,-72 227.772,-68.5001 227.7721,-75.5001"/>
</g>
<!-- Buffer -->
<g id="node4" class="node">
<title>Buffer</title>
<polygon fill="none" stroke="#000000" points="313.1712,-36 259.1712,-36 259.1712,0 313.1712,0 313.1712,-36"/>
<text text-anchor="middle" x="286.1712" y="-13.8" font-family="Times,serif" font-size="14.00" fill="#000000">Buffer</text>
</g>
<!-- LowPassFilter&#45;&gt;Buffer -->
<g id="edge3" class="edge">
<title>LowPassFilter&#45;&gt;Buffer</title>
<path fill="none" stroke="#000000" d="M286.1712,-53.7902C286.1712,-51.3082 286.1712,-48.8262 286.1712,-46.3443"/>
<polygon fill="#000000" stroke="#000000" points="289.6713,-46.1406 286.1712,-36.1406 282.6713,-46.1407 289.6713,-46.1406"/>
</g>
<!-- ADC -->
<g id="node5" class="node">
<title>ADC</title>
<polygon fill="none" stroke="#000000" points="424.6088,-90 370.6088,-90 370.6088,-54 424.6088,-54 424.6088,-90"/>
<text text-anchor="middle" x="397.6088" y="-67.8" font-family="Times,serif" font-size="14.00" fill="#000000">ADC</text>
</g>
<!-- LowPassFilter&#45;&gt;ADC -->
<g id="edge5" class="edge">
<title>LowPassFilter&#45;&gt;ADC</title>
<path fill="none" stroke="#000000" d="M334.7252,-72C343.3031,-72 352.1114,-72 360.3186,-72"/>
<polygon fill="#000000" stroke="#000000" points="360.3303,-75.5001 370.3303,-72 360.3302,-68.5001 360.3303,-75.5001"/>
</g>
<!-- Buffer&#45;&gt;ADC -->
<g id="edge4" class="edge">
<title>Buffer&#45;&gt;ADC</title>
<path fill="none" stroke="#000000" d="M313.4319,-31.2099C327.7325,-38.1396 345.452,-46.7261 360.9393,-54.2308"/>
<polygon fill="#000000" stroke="#000000" points="359.7179,-57.5282 370.2433,-58.7393 362.7705,-51.2288 359.7179,-57.5282"/>
</g>
</g>
</svg>
