<?xml version="1.0" encoding="UTF-8" standalone="no"?>
<!DOCTYPE svg PUBLIC "-//W3C//DTD SVG 1.1//EN"
 "http://www.w3.org/Graphics/SVG/1.1/DTD/svg11.dtd">
<!-- Generated by graphviz version 2.40.1 (20161225.0304)
 -->
<!-- Title: G Pages: 1 -->
<svg width="845pt" height="101pt"
 viewBox="0.00 0.00 845.19 101.00" xmlns="http://www.w3.org/2000/svg" xmlns:xlink="http://www.w3.org/1999/xlink">
<g id="graph0" class="graph" transform="scale(1 1) rotate(0) translate(4 97)">
<title>G</title>
<polygon fill="#ffffff" stroke="transparent" points="-4,4 -4,-97 841.1938,-97 841.1938,4 -4,4"/>
<g id="clust2" class="cluster">
<title>cluster_1</title>
<polygon fill="none" stroke="#000000" points="718.1938,-8 718.1938,-85 837.1938,-85 837.1938,-8 718.1938,-8"/>
<text text-anchor="middle" x="777.6938" y="-68.4" font-family="Times,serif" font-size="14.00" fill="#000000">Digital Processing</text>
</g>
<g id="clust1" class="cluster">
<title>cluster_0</title>
<polygon fill="none" stroke="#000000" points="8,-8 8,-85 698.1938,-85 698.1938,-8 8,-8"/>
<text text-anchor="middle" x="353.0969" y="-68.4" font-family="Times,serif" font-size="14.00" fill="#000000">Analog Front&#45;End</text>
</g>
<!-- PiezoAccelerometer -->
<g id="node1" class="node">
<title>PiezoAccelerometer</title>
<polygon fill="none" stroke="#000000" points="145.7353,-52 15.7543,-52 15.7543,-16 145.7353,-16 145.7353,-52"/>
<text text-anchor="middle" x="80.7448" y="-29.8" font-family="Times,serif" font-size="14.00" fill="#000000">PiezoAccelerometer</text>
</g>
<!-- ChargeAmplifier -->
<g id="node2" class="node">
<title>ChargeAmplifier</title>
<polygon fill="none" stroke="#000000" points="292.937,-52 181.6734,-52 181.6734,-16 292.937,-16 292.937,-52"/>
<text text-anchor="middle" x="237.3052" y="-29.8" font-family="Times,serif" font-size="14.00" fill="#000000">ChargeAmplifier</text>
</g>
<!-- PiezoAccelerometer&#45;&gt;ChargeAmplifier -->
<g id="edge1" class="edge">
<title>PiezoAccelerometer&#45;&gt;ChargeAmplifier</title>
<path fill="none" stroke="#000000" d="M145.7804,-34C154.1423,-34 162.7119,-34 171.0925,-34"/>
<polygon fill="#000000" stroke="#000000" points="171.1945,-37.5001 181.1944,-34 171.1944,-30.5001 171.1945,-37.5001"/>
</g>
<!-- HighPassFilter -->
<g id="node3" class="node">
<title>HighPassFilter</title>
<polygon fill="none" stroke="#000000" points="428.4408,-52 329.014,-52 329.014,-16 428.4408,-16 428.4408,-52"/>
<text text-anchor="middle" x="378.7274" y="-29.8" font-family="Times,serif" font-size="14.00" fill="#000000">HighPassFilter</text>
</g>
<!-- ChargeAmplifier&#45;&gt;HighPassFilter -->
<g id="edge2" class="edge">
<title>ChargeAmplifier&#45;&gt;HighPassFilter</title>
<path fill="none" stroke="#000000" d="M293.199,-34C301.5422,-34 310.1735,-34 318.5997,-34"/>
<polygon fill="#000000" stroke="#000000" points="318.7429,-37.5001 328.7429,-34 318.7428,-30.5001 318.7429,-37.5001"/>
</g>
<!-- Amplifier -->
<g id="node4" class="node">
<title>Amplifier</title>
<polygon fill="none" stroke="#000000" points="535.6415,-52 464.2313,-52 464.2313,-16 535.6415,-16 535.6415,-52"/>
<text text-anchor="middle" x="499.9364" y="-29.8" font-family="Times,serif" font-size="14.00" fill="#000000">Amplifier</text>
</g>
<!-- HighPassFilter&#45;&gt;Amplifier -->
<g id="edge3" class="edge">
<title>HighPassFilter&#45;&gt;Amplifier</title>
<path fill="none" stroke="#000000" d="M428.3775,-34C436.9297,-34 445.783,-34 454.2253,-34"/>
<polygon fill="#000000" stroke="#000000" points="454.2713,-37.5001 464.2713,-34 454.2712,-30.5001 454.2713,-37.5001"/>
</g>
<!-- AntiAliasingFilter -->
<g id="node5" class="node">
<title>AntiAliasingFilter</title>
<polygon fill="none" stroke="#000000" points="690.0218,-52 571.7108,-52 571.7108,-16 690.0218,-16 690.0218,-52"/>
<text text-anchor="middle" x="630.8663" y="-29.8" font-family="Times,serif" font-size="14.00" fill="#000000">AntiAliasingFilter</text>
</g>
<!-- Amplifier&#45;&gt;AntiAliasingFilter -->
<g id="edge4" class="edge">
<title>Amplifier&#45;&gt;AntiAliasingFilter</title>
<path fill="none" stroke="#000000" d="M535.7136,-34C543.8003,-34 552.6537,-34 561.6022,-34"/>
<polygon fill="#000000" stroke="#000000" points="561.7098,-37.5001 571.7098,-34 561.7097,-30.5001 561.7098,-37.5001"/>
</g>
<!-- ADC -->
<g id="node6" class="node">
<title>ADC</title>
<polygon fill="none" stroke="#000000" points="804.1938,-52 750.1938,-52 750.1938,-16 804.1938,-16 804.1938,-52"/>
<text text-anchor="middle" x="777.1938" y="-29.8" font-family="Times,serif" font-size="14.00" fill="#000000">ADC</text>
</g>
<!-- AntiAliasingFilter&#45;&gt;ADC -->
<g id="edge5" class="edge">
<title>AntiAliasingFilter&#45;&gt;ADC</title>
<path fill="none" stroke="#000000" d="M690.3833,-34C707.0649,-34 724.7278,-34 739.7353,-34"/>
<polygon fill="#000000" stroke="#000000" points="740.1419,-37.5001 750.1419,-34 740.1418,-30.5001 740.1419,-37.5001"/>
</g>
</g>
</svg>
