<?xml version="1.0" encoding="UTF-8" standalone="no"?>
<!DOCTYPE svg PUBLIC "-//W3C//DTD SVG 1.1//EN"
 "http://www.w3.org/Graphics/SVG/1.1/DTD/svg11.dtd">
<!-- Generated by graphviz version 2.40.1 (20161225.0304)
 -->
<!-- Title: G Pages: 1 -->
<svg width="1460pt" height="101pt"
 viewBox="0.00 0.00 1460.41 101.00" xmlns="http://www.w3.org/2000/svg" xmlns:xlink="http://www.w3.org/1999/xlink">
<g id="graph0" class="graph" transform="scale(1 1) rotate(0) translate(4 97)">
<title>G</title>
<polygon fill="#ffffff" stroke="transparent" points="-4,4 -4,-97 1456.4141,-97 1456.4141,4 -4,4"/>
<g id="clust4" class="cluster">
<title>cluster_acquisition</title>
<polygon fill="none" stroke="#000000" points="1040.3777,-8 1040.3777,-85 1444.4141,-85 1444.4141,-8 1040.3777,-8"/>
<text text-anchor="middle" x="1242.3959" y="-68.4" font-family="Times,serif" font-size="14.00" fill="#000000">Data Acquisition</text>
</g>
<g id="clust3" class="cluster">
<title>cluster_output</title>
<polygon fill="none" stroke="#000000" points="617.4382,-8 617.4382,-85 1020.3777,-85 1020.3777,-8 617.4382,-8"/>
<text text-anchor="middle" x="818.9079" y="-68.4" font-family="Times,serif" font-size="14.00" fill="#000000">Output Conditioning</text>
</g>
<g id="clust2" class="cluster">
<title>cluster_processing</title>
<polygon fill="none" stroke="#000000" points="230.9866,-8 230.9866,-85 597.4382,-85 597.4382,-8 230.9866,-8"/>
<text text-anchor="middle" x="414.2124" y="-68.4" font-family="Times,serif" font-size="14.00" fill="#000000">Signal Processing</text>
</g>
<g id="clust1" class="cluster">
<title>cluster_input</title>
<polygon fill="none" stroke="#000000" points="8,-8 8,-85 210.9866,-85 210.9866,-8 8,-8"/>
<text text-anchor="middle" x="109.4933" y="-68.4" font-family="Times,serif" font-size="14.00" fill="#000000">Input Conditioning</text>
</g>
<!-- potentiometer -->
<g id="node1" class="node">
<title>potentiometer</title>
<ellipse fill="none" stroke="#000000" cx="109.4933" cy="-34" rx="93.4866" ry="18"/>
<text text-anchor="middle" x="109.4933" y="-29.8" font-family="Times,serif" font-size="14.00" fill="#000000">Potentiometer (10kΩ)</text>
</g>
<!-- buffer -->
<g id="node2" class="node">
<title>buffer</title>
<ellipse fill="none" stroke="#000000" cx="315.7164" cy="-34" rx="76.9603" ry="18"/>
<text text-anchor="middle" x="315.7164" y="-29.8" font-family="Times,serif" font-size="14.00" fill="#000000">Buffer Amplifier</text>
</g>
<!-- potentiometer&#45;&gt;buffer -->
<g id="edge1" class="edge">
<title>potentiometer&#45;&gt;buffer</title>
<path fill="none" stroke="#000000" d="M203.2517,-34C211.7238,-34 220.2808,-34 228.6914,-34"/>
<polygon fill="#000000" stroke="#000000" points="228.8624,-37.5001 238.8624,-34 228.8624,-30.5001 228.8624,-37.5001"/>
</g>
<!-- scaling -->
<g id="node3" class="node">
<title>scaling</title>
<ellipse fill="none" stroke="#000000" cx="508.9422" cy="-34" rx="80.492" ry="18"/>
<text text-anchor="middle" x="508.9422" y="-29.8" font-family="Times,serif" font-size="14.00" fill="#000000">Scaling Amplifier</text>
</g>
<!-- buffer&#45;&gt;scaling -->
<g id="edge2" class="edge">
<title>buffer&#45;&gt;scaling</title>
<path fill="none" stroke="#000000" d="M392.6396,-34C400.9447,-34 409.4526,-34 417.9034,-34"/>
<polygon fill="#000000" stroke="#000000" points="418.1658,-37.5001 428.1658,-34 418.1658,-30.5001 418.1658,-37.5001"/>
</g>
<!-- filter -->
<g id="node4" class="node">
<title>filter</title>
<ellipse fill="none" stroke="#000000" cx="737.5791" cy="-34" rx="112.2819" ry="18"/>
<text text-anchor="middle" x="737.5791" y="-29.8" font-family="Times,serif" font-size="14.00" fill="#000000">Notch Filter (50 &amp; 60 Hz)</text>
</g>
<!-- scaling&#45;&gt;filter -->
<g id="edge3" class="edge">
<title>scaling&#45;&gt;filter</title>
<path fill="none" stroke="#000000" d="M589.551,-34C597.8677,-34 606.4457,-34 615.0863,-34"/>
<polygon fill="#000000" stroke="#000000" points="615.2465,-37.5001 625.2465,-34 615.2465,-30.5001 615.2465,-37.5001"/>
</g>
<!-- offset -->
<g id="node5" class="node">
<title>offset</title>
<ellipse fill="none" stroke="#000000" cx="949.0488" cy="-34" rx="63.1582" ry="18"/>
<text text-anchor="middle" x="949.0488" y="-29.8" font-family="Times,serif" font-size="14.00" fill="#000000">Offset Adjust</text>
</g>
<!-- filter&#45;&gt;offset -->
<g id="edge4" class="edge">
<title>filter&#45;&gt;offset</title>
<path fill="none" stroke="#000000" d="M849.8155,-34C858.5302,-34 867.1857,-34 875.5442,-34"/>
<polygon fill="#000000" stroke="#000000" points="875.5763,-37.5001 885.5763,-34 875.5762,-30.5001 875.5763,-37.5001"/>
</g>
<!-- anti_aliasing -->
<g id="node6" class="node">
<title>anti_aliasing</title>
<ellipse fill="none" stroke="#000000" cx="1133.1681" cy="-34" rx="84.5814" ry="18"/>
<text text-anchor="middle" x="1133.1681" y="-29.8" font-family="Times,serif" font-size="14.00" fill="#000000">Anti&#45;aliasing Filter</text>
</g>
<!-- offset&#45;&gt;anti_aliasing -->
<g id="edge5" class="edge">
<title>offset&#45;&gt;anti_aliasing</title>
<path fill="none" stroke="#000000" d="M1012.4122,-34C1020.7112,-34 1029.3559,-34 1038.037,-34"/>
<polygon fill="#000000" stroke="#000000" points="1038.2262,-37.5001 1048.2262,-34 1038.2261,-30.5001 1038.2262,-37.5001"/>
</g>
<!-- daq -->
<g id="node7" class="node">
<title>daq</title>
<ellipse fill="none" stroke="#000000" cx="1345.1864" cy="-34" rx="91.4561" ry="18"/>
<text text-anchor="middle" x="1345.1864" y="-29.8" font-family="Times,serif" font-size="14.00" fill="#000000">DAQ (±7V, 1kSPS)</text>
</g>
<!-- anti_aliasing&#45;&gt;daq -->
<g id="edge6" class="edge">
<title>anti_aliasing&#45;&gt;daq</title>
<path fill="none" stroke="#000000" d="M1218.1824,-34C1226.6284,-34 1235.2596,-34 1243.8498,-34"/>
<polygon fill="#000000" stroke="#000000" points="1243.9016,-37.5001 1253.9016,-34 1243.9016,-30.5001 1243.9016,-37.5001"/>
</g>
</g>
</svg>
