<?xml version="1.0" encoding="UTF-8" standalone="no"?>
<!DOCTYPE svg PUBLIC "-//W3C//DTD SVG 1.1//EN"
 "http://www.w3.org/Graphics/SVG/1.1/DTD/svg11.dtd">
<!-- Generated by graphviz version 2.40.1 (20161225.0304)
 -->
<!-- Title: G Pages: 1 -->
<svg width="770pt" height="98pt"
 viewBox="0.00 0.00 769.92 98.00" xmlns="http://www.w3.org/2000/svg" xmlns:xlink="http://www.w3.org/1999/xlink">
<g id="graph0" class="graph" transform="scale(1 1) rotate(0) translate(4 94)">
<title>G</title>
<polygon fill="#ffffff" stroke="transparent" points="-4,4 -4,-94 765.916,-94 765.916,4 -4,4"/>
<!-- Potentiometer -->
<g id="node1" class="node">
<title>Potentiometer</title>
<polygon fill="none" stroke="#000000" points="94.3111,-90 .2289,-90 .2289,-54 94.3111,-54 94.3111,-90"/>
<text text-anchor="middle" x="47.27" y="-67.8" font-family="Times,serif" font-size="14.00" fill="#000000">Potentiometer</text>
</g>
<!-- OffsetAdjustment -->
<g id="node2" class="node">
<title>OffsetAdjustment</title>
<polygon fill="none" stroke="#000000" points="246.9991,-90 130.3867,-90 130.3867,-54 246.9991,-54 246.9991,-90"/>
<text text-anchor="middle" x="188.6929" y="-67.8" font-family="Times,serif" font-size="14.00" fill="#000000">OffsetAdjustment</text>
</g>
<!-- Potentiometer&#45;&gt;OffsetAdjustment -->
<g id="edge1" class="edge">
<title>Potentiometer&#45;&gt;OffsetAdjustment</title>
<path fill="none" stroke="#000000" d="M94.3618,-72C102.6782,-72 111.487,-72 120.2494,-72"/>
<polygon fill="#000000" stroke="#000000" points="120.482,-75.5001 130.482,-72 120.4819,-68.5001 120.482,-75.5001"/>
</g>
<!-- Amplification -->
<g id="node3" class="node">
<title>Amplification</title>
<polygon fill="none" stroke="#000000" points="377.1569,-90 283.0747,-90 283.0747,-54 377.1569,-54 377.1569,-90"/>
<text text-anchor="middle" x="330.1158" y="-67.8" font-family="Times,serif" font-size="14.00" fill="#000000">Amplification</text>
</g>
<!-- OffsetAdjustment&#45;&gt;Amplification -->
<g id="edge2" class="edge">
<title>OffsetAdjustment&#45;&gt;Amplification</title>
<path fill="none" stroke="#000000" d="M247.0315,-72C255.47,-72 264.1512,-72 272.5739,-72"/>
<polygon fill="#000000" stroke="#000000" points="272.686,-75.5001 282.686,-72 272.6859,-68.5001 272.686,-75.5001"/>
</g>
<!-- LowPassFilter1 -->
<g id="node4" class="node">
<title>LowPassFilter1</title>
<polygon fill="none" stroke="#000000" points="517.1987,-90 413.4481,-90 413.4481,-54 517.1987,-54 517.1987,-90"/>
<text text-anchor="middle" x="465.3234" y="-67.8" font-family="Times,serif" font-size="14.00" fill="#000000">LowPassFilter1</text>
</g>
<!-- Amplification&#45;&gt;LowPassFilter1 -->
<g id="edge3" class="edge">
<title>Amplification&#45;&gt;LowPassFilter1</title>
<path fill="none" stroke="#000000" d="M377.4049,-72C385.7245,-72 394.4966,-72 403.1494,-72"/>
<polygon fill="#000000" stroke="#000000" points="403.2179,-75.5001 413.2178,-72 403.2178,-68.5001 403.2179,-75.5001"/>
</g>
<!-- LowPassFilter2 -->
<g id="node5" class="node">
<title>LowPassFilter2</title>
<polygon fill="none" stroke="#000000" points="517.1987,-36 413.4481,-36 413.4481,0 517.1987,0 517.1987,-36"/>
<text text-anchor="middle" x="465.3234" y="-13.8" font-family="Times,serif" font-size="14.00" fill="#000000">LowPassFilter2</text>
</g>
<!-- LowPassFilter1&#45;&gt;LowPassFilter2 -->
<g id="edge4" class="edge">
<title>LowPassFilter1&#45;&gt;LowPassFilter2</title>
<path fill="none" stroke="#000000" d="M465.3234,-53.7902C465.3234,-51.3082 465.3234,-48.8262 465.3234,-46.3443"/>
<polygon fill="#000000" stroke="#000000" points="468.8235,-46.1406 465.3234,-36.1406 461.8235,-46.1407 468.8235,-46.1406"/>
</g>
<!-- AntiAliasingFilter -->
<g id="node6" class="node">
<title>AntiAliasingFilter</title>
<polygon fill="none" stroke="#000000" points="671.744,-36 553.433,-36 553.433,0 671.744,0 671.744,-36"/>
<text text-anchor="middle" x="612.5885" y="-13.8" font-family="Times,serif" font-size="14.00" fill="#000000">AntiAliasingFilter</text>
</g>
<!-- LowPassFilter2&#45;&gt;AntiAliasingFilter -->
<g id="edge5" class="edge">
<title>LowPassFilter2&#45;&gt;AntiAliasingFilter</title>
<path fill="none" stroke="#000000" d="M517.2436,-18C525.6358,-18 534.4413,-18 543.1676,-18"/>
<polygon fill="#000000" stroke="#000000" points="543.3458,-21.5001 553.3458,-18 543.3457,-14.5001 543.3458,-21.5001"/>
</g>
<!-- DAQ -->
<g id="node7" class="node">
<title>DAQ</title>
<polygon fill="none" stroke="#000000" points="761.916,-36 707.916,-36 707.916,0 761.916,0 761.916,-36"/>
<text text-anchor="middle" x="734.916" y="-13.8" font-family="Times,serif" font-size="14.00" fill="#000000">DAQ</text>
</g>
<!-- AntiAliasingFilter&#45;&gt;DAQ -->
<g id="edge6" class="edge">
<title>AntiAliasingFilter&#45;&gt;DAQ</title>
<path fill="none" stroke="#000000" d="M671.9606,-18C680.6798,-18 689.4475,-18 697.5543,-18"/>
<polygon fill="#000000" stroke="#000000" points="697.7712,-21.5001 707.7711,-18 697.7711,-14.5001 697.7712,-21.5001"/>
</g>
</g>
</svg>
