<?xml version="1.0" encoding="UTF-8" standalone="no"?>
<!DOCTYPE svg PUBLIC "-//W3C//DTD SVG 1.1//EN"
 "http://www.w3.org/Graphics/SVG/1.1/DTD/svg11.dtd">
<!-- Generated by graphviz version 2.40.1 (20161225.0304)
 -->
<!-- Title: G Pages: 1 -->
<svg width="882pt" height="101pt"
 viewBox="0.00 0.00 881.89 101.00" xmlns="http://www.w3.org/2000/svg" xmlns:xlink="http://www.w3.org/1999/xlink">
<g id="graph0" class="graph" transform="scale(1 1) rotate(0) translate(4 97)">
<title>G</title>
<polygon fill="#ffffff" stroke="transparent" points="-4,4 -4,-97 877.8866,-97 877.8866,4 -4,4"/>
<g id="clust2" class="cluster">
<title>cluster_1</title>
<polygon fill="none" stroke="#000000" points="500.599,-8 500.599,-85 865.8866,-85 865.8866,-8 500.599,-8"/>
<text text-anchor="middle" x="683.2428" y="-68.4" font-family="Times,serif" font-size="14.00" fill="#000000">Digital Processing</text>
</g>
<g id="clust1" class="cluster">
<title>cluster_0</title>
<polygon fill="none" stroke="#000000" points="8,-8 8,-85 480.599,-85 480.599,-8 8,-8"/>
<text text-anchor="middle" x="244.2995" y="-68.4" font-family="Times,serif" font-size="14.00" fill="#000000">Analog Front End</text>
</g>
<!-- Sensor -->
<g id="node1" class="node">
<title>Sensor</title>
<polygon fill="none" stroke="#000000" points="70.1537,-52 15.9487,-52 15.9487,-16 70.1537,-16 70.1537,-52"/>
<text text-anchor="middle" x="43.0512" y="-29.8" font-family="Times,serif" font-size="14.00" fill="#000000">Sensor</text>
</g>
<!-- ChargeAmplifier -->
<g id="node2" class="node">
<title>ChargeAmplifier</title>
<polygon fill="none" stroke="#000000" points="217.5498,-52 106.2862,-52 106.2862,-16 217.5498,-16 217.5498,-52"/>
<text text-anchor="middle" x="161.918" y="-29.8" font-family="Times,serif" font-size="14.00" fill="#000000">ChargeAmplifier</text>
</g>
<!-- Sensor&#45;&gt;ChargeAmplifier -->
<g id="edge1" class="edge">
<title>Sensor&#45;&gt;ChargeAmplifier</title>
<path fill="none" stroke="#000000" d="M70.3216,-34C78.0905,-34 86.9085,-34 95.9304,-34"/>
<polygon fill="#000000" stroke="#000000" points="96.1581,-37.5001 106.1581,-34 96.1581,-30.5001 96.1581,-37.5001"/>
</g>
<!-- LowPassFilter -->
<g id="node3" class="node">
<title>LowPassFilter</title>
<polygon fill="none" stroke="#000000" points="350.5465,-52 253.7959,-52 253.7959,-16 350.5465,-16 350.5465,-52"/>
<text text-anchor="middle" x="302.1712" y="-29.8" font-family="Times,serif" font-size="14.00" fill="#000000">LowPassFilter</text>
</g>
<!-- ChargeAmplifier&#45;&gt;LowPassFilter -->
<g id="edge2" class="edge">
<title>ChargeAmplifier&#45;&gt;LowPassFilter</title>
<path fill="none" stroke="#000000" d="M217.7528,-34C226.225,-34 234.9879,-34 243.5179,-34"/>
<polygon fill="#000000" stroke="#000000" points="243.7721,-37.5001 253.7721,-34 243.772,-30.5001 243.7721,-37.5001"/>
</g>
<!-- OutputStage -->
<g id="node4" class="node">
<title>OutputStage</title>
<polygon fill="none" stroke="#000000" points="472.5941,-52 386.6137,-52 386.6137,-16 472.5941,-16 472.5941,-52"/>
<text text-anchor="middle" x="429.6039" y="-29.8" font-family="Times,serif" font-size="14.00" fill="#000000">OutputStage</text>
</g>
<!-- LowPassFilter&#45;&gt;OutputStage -->
<g id="edge3" class="edge">
<title>LowPassFilter&#45;&gt;OutputStage</title>
<path fill="none" stroke="#000000" d="M350.7116,-34C359.0124,-34 367.6781,-34 376.0995,-34"/>
<polygon fill="#000000" stroke="#000000" points="376.2095,-37.5001 386.2095,-34 376.2095,-30.5001 376.2095,-37.5001"/>
</g>
<!-- ADC -->
<g id="node5" class="node">
<title>ADC</title>
<polygon fill="none" stroke="#000000" points="562.599,-52 508.599,-52 508.599,-16 562.599,-16 562.599,-52"/>
<text text-anchor="middle" x="535.599" y="-29.8" font-family="Times,serif" font-size="14.00" fill="#000000">ADC</text>
</g>
<!-- OutputStage&#45;&gt;ADC -->
<g id="edge4" class="edge">
<title>OutputStage&#45;&gt;ADC</title>
<path fill="none" stroke="#000000" d="M472.7162,-34C481.1791,-34 489.9907,-34 498.246,-34"/>
<polygon fill="#000000" stroke="#000000" points="498.3371,-37.5001 508.3371,-34 498.337,-30.5001 498.3371,-37.5001"/>
</g>
<!-- AntiAliasingFilter -->
<g id="node6" class="node">
<title>AntiAliasingFilter</title>
<polygon fill="none" stroke="#000000" points="717.082,-52 598.771,-52 598.771,-16 717.082,-16 717.082,-52"/>
<text text-anchor="middle" x="657.9265" y="-29.8" font-family="Times,serif" font-size="14.00" fill="#000000">AntiAliasingFilter</text>
</g>
<!-- ADC&#45;&gt;AntiAliasingFilter -->
<g id="edge5" class="edge">
<title>ADC&#45;&gt;AntiAliasingFilter</title>
<path fill="none" stroke="#000000" d="M562.7474,-34C570.4186,-34 579.1366,-34 588.108,-34"/>
<polygon fill="#000000" stroke="#000000" points="588.3026,-37.5001 598.3025,-34 588.3025,-30.5001 588.3026,-37.5001"/>
</g>
<!-- Microcontroller -->
<g id="node7" class="node">
<title>Microcontroller</title>
<polygon fill="none" stroke="#000000" points="857.7035,-52 753.4371,-52 753.4371,-16 857.7035,-16 857.7035,-52"/>
<text text-anchor="middle" x="805.5703" y="-29.8" font-family="Times,serif" font-size="14.00" fill="#000000">Microcontroller</text>
</g>
<!-- AntiAliasingFilter&#45;&gt;Microcontroller -->
<g id="edge6" class="edge">
<title>AntiAliasingFilter&#45;&gt;Microcontroller</title>
<path fill="none" stroke="#000000" d="M717.1282,-34C725.5694,-34 734.2764,-34 742.7833,-34"/>
<polygon fill="#000000" stroke="#000000" points="743.0294,-37.5001 753.0294,-34 743.0293,-30.5001 743.0294,-37.5001"/>
</g>
</g>
</svg>
