<?xml version="1.0" encoding="UTF-8" standalone="no"?>
<!DOCTYPE svg PUBLIC "-//W3C//DTD SVG 1.1//EN"
 "http://www.w3.org/Graphics/SVG/1.1/DTD/svg11.dtd">
<!-- Generated by graphviz version 2.40.1 (20161225.0304)
 -->
<!-- Title: G Pages: 1 -->
<svg width="1189pt" height="44pt"
 viewBox="0.00 0.00 1188.86 44.00" xmlns="http://www.w3.org/2000/svg" xmlns:xlink="http://www.w3.org/1999/xlink">
<g id="graph0" class="graph" transform="scale(1 1) rotate(0) translate(4 40)">
<title>G</title>
<polygon fill="#ffffff" stroke="transparent" points="-4,4 -4,-40 1184.8588,-40 1184.8588,4 -4,4"/>
<!-- Thermistor -->
<g id="node1" class="node">
<title>Thermistor</title>
<polygon fill="none" stroke="#000000" points="109.5513,-36 .1493,-36 .1493,0 109.5513,0 109.5513,-36"/>
<text text-anchor="middle" x="54.8503" y="-13.8" font-family="Times,serif" font-size="14.00" fill="#000000">NTC Thermistor</text>
</g>
<!-- Buffer -->
<g id="node2" class="node">
<title>Buffer</title>
<polygon fill="none" stroke="#000000" points="257.0576,-36 145.5814,-36 145.5814,0 257.0576,0 257.0576,-36"/>
<text text-anchor="middle" x="201.3195" y="-13.8" font-family="Times,serif" font-size="14.00" fill="#000000">Buffer Amplifier</text>
</g>
<!-- Thermistor&#45;&gt;Buffer -->
<g id="edge1" class="edge">
<title>Thermistor&#45;&gt;Buffer</title>
<path fill="none" stroke="#000000" d="M109.8067,-18C118.2083,-18 126.9527,-18 135.558,-18"/>
<polygon fill="#000000" stroke="#000000" points="135.5672,-21.5001 145.5671,-18 135.5671,-14.5001 135.5672,-21.5001"/>
</g>
<!-- Linearization -->
<g id="node3" class="node">
<title>Linearization</title>
<polygon fill="none" stroke="#000000" points="436.1079,-36 292.8819,-36 292.8819,0 436.1079,0 436.1079,-36"/>
<text text-anchor="middle" x="364.4949" y="-13.8" font-family="Times,serif" font-size="14.00" fill="#000000">Linearization Network</text>
</g>
<!-- Buffer&#45;&gt;Linearization -->
<g id="edge2" class="edge">
<title>Buffer&#45;&gt;Linearization</title>
<path fill="none" stroke="#000000" d="M257.0188,-18C265.3137,-18 274.0069,-18 282.7031,-18"/>
<polygon fill="#000000" stroke="#000000" points="282.8895,-21.5001 292.8895,-18 282.8894,-14.5001 282.8895,-21.5001"/>
</g>
<!-- GainStage -->
<g id="node4" class="node">
<title>GainStage</title>
<polygon fill="none" stroke="#000000" points="549.7729,-36 472.1441,-36 472.1441,0 549.7729,0 549.7729,-36"/>
<text text-anchor="middle" x="510.9585" y="-13.8" font-family="Times,serif" font-size="14.00" fill="#000000">Gain Stage</text>
</g>
<!-- Linearization&#45;&gt;GainStage -->
<g id="edge3" class="edge">
<title>Linearization&#45;&gt;GainStage</title>
<path fill="none" stroke="#000000" d="M436.4395,-18C445.0868,-18 453.7581,-18 461.9708,-18"/>
<polygon fill="#000000" stroke="#000000" points="462.092,-21.5001 472.092,-18 462.0919,-14.5001 462.092,-21.5001"/>
</g>
<!-- LevelShifter -->
<g id="node5" class="node">
<title>LevelShifter</title>
<polygon fill="none" stroke="#000000" points="675.5749,-36 585.6283,-36 585.6283,0 675.5749,0 675.5749,-36"/>
<text text-anchor="middle" x="630.6016" y="-13.8" font-family="Times,serif" font-size="14.00" fill="#000000">Level Shifter</text>
</g>
<!-- GainStage&#45;&gt;LevelShifter -->
<g id="edge4" class="edge">
<title>GainStage&#45;&gt;LevelShifter</title>
<path fill="none" stroke="#000000" d="M549.8032,-18C558.0423,-18 566.8892,-18 575.5989,-18"/>
<polygon fill="#000000" stroke="#000000" points="575.7159,-21.5001 585.7159,-18 575.7158,-14.5001 575.7159,-21.5001"/>
</g>
<!-- OutputBuffer -->
<g id="node6" class="node">
<title>OutputBuffer</title>
<polygon fill="none" stroke="#000000" points="806.2188,-36 711.3772,-36 711.3772,0 806.2188,0 806.2188,-36"/>
<text text-anchor="middle" x="758.798" y="-13.8" font-family="Times,serif" font-size="14.00" fill="#000000">Output Buffer</text>
</g>
<!-- LevelShifter&#45;&gt;OutputBuffer -->
<g id="edge5" class="edge">
<title>LevelShifter&#45;&gt;OutputBuffer</title>
<path fill="none" stroke="#000000" d="M675.4385,-18C683.7419,-18 692.5207,-18 701.1424,-18"/>
<polygon fill="#000000" stroke="#000000" points="701.1535,-21.5001 711.1535,-18 701.1535,-14.5001 701.1535,-21.5001"/>
</g>
<!-- AntiAliasingFilter -->
<g id="node7" class="node">
<title>AntiAliasingFilter</title>
<polygon fill="none" stroke="#000000" points="968.9819,-36 842.3505,-36 842.3505,0 968.9819,0 968.9819,-36"/>
<text text-anchor="middle" x="905.6662" y="-13.8" font-family="Times,serif" font-size="14.00" fill="#000000">Anti&#45;Aliasing Filter</text>
</g>
<!-- OutputBuffer&#45;&gt;AntiAliasingFilter -->
<g id="edge6" class="edge">
<title>OutputBuffer&#45;&gt;AntiAliasingFilter</title>
<path fill="none" stroke="#000000" d="M806.4819,-18C814.6693,-18 823.3457,-18 832.026,-18"/>
<polygon fill="#000000" stroke="#000000" points="832.1886,-21.5001 842.1886,-18 832.1885,-14.5001 832.1886,-21.5001"/>
</g>
<!-- ADC -->
<g id="node8" class="node">
<title>ADC</title>
<polygon fill="none" stroke="#000000" points="1180.7513,-36 1005.1815,-36 1005.1815,0 1180.7513,0 1180.7513,-36"/>
<text text-anchor="middle" x="1092.9664" y="-13.8" font-family="Times,serif" font-size="14.00" fill="#000000">Analog&#45;to&#45;Digital Converter</text>
</g>
<!-- AntiAliasingFilter&#45;&gt;ADC -->
<g id="edge7" class="edge">
<title>AntiAliasingFilter&#45;&gt;ADC</title>
<path fill="none" stroke="#000000" d="M969.0775,-18C977.3919,-18 986.0626,-18 994.7858,-18"/>
<polygon fill="#000000" stroke="#000000" points="995.032,-21.5001 1005.0319,-18 995.0319,-14.5001 995.032,-21.5001"/>
</g>
</g>
</svg>
