<?xml version="1.0" encoding="UTF-8" standalone="no"?>
<!DOCTYPE svg PUBLIC "-//W3C//DTD SVG 1.1//EN"
 "http://www.w3.org/Graphics/SVG/1.1/DTD/svg11.dtd">
<!-- Generated by graphviz version 2.40.1 (20161225.0304)
 -->
<!-- Title: G Pages: 1 -->
<svg width="1446pt" height="186pt"
 viewBox="0.00 0.00 1445.80 186.00" xmlns="http://www.w3.org/2000/svg" xmlns:xlink="http://www.w3.org/1999/xlink">
<g id="graph0" class="graph" transform="scale(1 1) rotate(0) translate(4 182)">
<title>G</title>
<polygon fill="#ffffff" stroke="transparent" points="-4,4 -4,-182 1441.7988,-182 1441.7988,4 -4,4"/>
<g id="clust2" class="cluster">
<title>cluster_1</title>
<polygon fill="none" stroke="#000000" points="8,-8 8,-85 1197.1914,-85 1197.1914,-8 8,-8"/>
<text text-anchor="middle" x="602.5957" y="-68.4" font-family="Times,serif" font-size="14.00" fill="#000000">Temperature Channel</text>
</g>
<g id="clust1" class="cluster">
<title>cluster_0</title>
<polygon fill="none" stroke="#000000" points="226.7547,-93 226.7547,-170 1185.1458,-170 1185.1458,-93 226.7547,-93"/>
<text text-anchor="middle" x="705.9503" y="-153.4" font-family="Times,serif" font-size="14.00" fill="#000000">Pressure Channel</text>
</g>
<!-- PressureSensorArray -->
<g id="node1" class="node">
<title>PressureSensorArray</title>
<polygon fill="none" stroke="#000000" points="369.0053,-137 234.6711,-137 234.6711,-101 369.0053,-101 369.0053,-137"/>
<text text-anchor="middle" x="301.8382" y="-114.8" font-family="Times,serif" font-size="14.00" fill="#000000">PressureSensorArray</text>
</g>
<!-- AmplifierBlock_Pressure -->
<g id="node2" class="node">
<title>AmplifierBlock_Pressure</title>
<polygon fill="none" stroke="#000000" points="588.5214,-137 429.3838,-137 429.3838,-101 588.5214,-101 588.5214,-137"/>
<text text-anchor="middle" x="508.9526" y="-114.8" font-family="Times,serif" font-size="14.00" fill="#000000">AmplifierBlock_Pressure</text>
</g>
<!-- PressureSensorArray&#45;&gt;AmplifierBlock_Pressure -->
<g id="edge1" class="edge">
<title>PressureSensorArray&#45;&gt;AmplifierBlock_Pressure</title>
<path fill="none" stroke="#000000" d="M369.0823,-112.6333C384.9285,-112.2853 402.0735,-112.1743 418.7488,-112.3001"/>
<polygon fill="#000000" stroke="#000000" points="419.0185,-115.8031 429.055,-112.4091 419.0926,-108.8035 419.0185,-115.8031"/>
</g>
<!-- PressureSensorArray&#45;&gt;AmplifierBlock_Pressure -->
<g id="edge13" class="edge">
<title>PressureSensorArray&#45;&gt;AmplifierBlock_Pressure</title>
<path fill="none" stroke="#000000" d="M369.0823,-125.3667C384.9285,-125.7147 402.0735,-125.8257 418.7488,-125.6999"/>
<polygon fill="#000000" stroke="#000000" points="419.0926,-129.1965 429.055,-125.5909 419.0185,-122.1969 419.0926,-129.1965"/>
</g>
<!-- FilterBlock_Pressure -->
<g id="node3" class="node">
<title>FilterBlock_Pressure</title>
<polygon fill="none" stroke="#000000" points="795.6962,-137 661.3088,-137 661.3088,-101 795.6962,-101 795.6962,-137"/>
<text text-anchor="middle" x="728.5025" y="-114.8" font-family="Times,serif" font-size="14.00" fill="#000000">FilterBlock_Pressure</text>
</g>
<!-- AmplifierBlock_Pressure&#45;&gt;FilterBlock_Pressure -->
<g id="edge2" class="edge">
<title>AmplifierBlock_Pressure&#45;&gt;FilterBlock_Pressure</title>
<path fill="none" stroke="#000000" d="M588.5256,-112.4824C608.8919,-112.1615 630.7622,-112.1729 651.0216,-112.5166"/>
<polygon fill="#000000" stroke="#000000" points="651.0689,-116.0182 661.1371,-112.7193 651.2092,-109.0196 651.0689,-116.0182"/>
</g>
<!-- AmplifierBlock_Pressure&#45;&gt;FilterBlock_Pressure -->
<g id="edge14" class="edge">
<title>AmplifierBlock_Pressure&#45;&gt;FilterBlock_Pressure</title>
<path fill="none" stroke="#000000" d="M588.5256,-125.5176C608.8919,-125.8385 630.7622,-125.8271 651.0216,-125.4834"/>
<polygon fill="#000000" stroke="#000000" points="651.2092,-128.9804 661.1371,-125.2807 651.0689,-121.9818 651.2092,-128.9804"/>
</g>
<!-- Multiplexer_Pressure -->
<g id="node4" class="node">
<title>Multiplexer_Pressure</title>
<polygon fill="none" stroke="#000000" points="1016.8429,-137 880.8033,-137 880.8033,-101 1016.8429,-101 1016.8429,-137"/>
<text text-anchor="middle" x="948.8231" y="-114.8" font-family="Times,serif" font-size="14.00" fill="#000000">Multiplexer_Pressure</text>
</g>
<!-- FilterBlock_Pressure&#45;&gt;Multiplexer_Pressure -->
<g id="edge3" class="edge">
<title>FilterBlock_Pressure&#45;&gt;Multiplexer_Pressure</title>
<path fill="none" stroke="#000000" d="M795.8031,-112.7263C819.3884,-112.1756 846.079,-112.1024 870.489,-112.5069"/>
<polygon fill="#000000" stroke="#000000" points="870.7282,-116.0122 880.7951,-112.7094 870.8658,-109.0135 870.7282,-116.0122"/>
</g>
<!-- FilterBlock_Pressure&#45;&gt;Multiplexer_Pressure -->
<g id="edge15" class="edge">
<title>FilterBlock_Pressure&#45;&gt;Multiplexer_Pressure</title>
<path fill="none" stroke="#000000" d="M795.8031,-125.2737C819.3884,-125.8244 846.079,-125.8976 870.489,-125.4931"/>
<polygon fill="#000000" stroke="#000000" points="870.8658,-128.9865 880.7951,-125.2906 870.7282,-121.9878 870.8658,-128.9865"/>
</g>
<!-- ADC_Pressure -->
<g id="node5" class="node">
<title>ADC_Pressure</title>
<polygon fill="none" stroke="#000000" points="1177.1318,-137 1077.1878,-137 1077.1878,-101 1177.1318,-101 1177.1318,-137"/>
<text text-anchor="middle" x="1127.1598" y="-114.8" font-family="Times,serif" font-size="14.00" fill="#000000">ADC_Pressure</text>
</g>
<!-- Multiplexer_Pressure&#45;&gt;ADC_Pressure -->
<g id="edge4" class="edge">
<title>Multiplexer_Pressure&#45;&gt;ADC_Pressure</title>
<path fill="none" stroke="#000000" d="M1017.0079,-112.4189C1033.3822,-112.1508 1050.7574,-112.2019 1066.7503,-112.5722"/>
<polygon fill="#000000" stroke="#000000" points="1066.9414,-116.0789 1077.0359,-112.8616 1067.1383,-109.0817 1066.9414,-116.0789"/>
</g>
<!-- Multiplexer_Pressure&#45;&gt;ADC_Pressure -->
<g id="edge16" class="edge">
<title>Multiplexer_Pressure&#45;&gt;ADC_Pressure</title>
<path fill="none" stroke="#000000" d="M1017.0079,-125.5811C1033.3822,-125.8492 1050.7574,-125.7981 1066.7503,-125.4278"/>
<polygon fill="#000000" stroke="#000000" points="1067.1383,-128.9183 1077.0359,-125.1384 1066.9414,-121.9211 1067.1383,-128.9183"/>
</g>
<!-- DigitalInterface -->
<g id="node12" class="node">
<title>DigitalInterface</title>
<polygon fill="none" stroke="#000000" points="1329.6137,-94 1225.3835,-94 1225.3835,-58 1329.6137,-58 1329.6137,-94"/>
<text text-anchor="middle" x="1277.4986" y="-71.8" font-family="Times,serif" font-size="14.00" fill="#000000">DigitalInterface</text>
</g>
<!-- ADC_Pressure&#45;&gt;DigitalInterface -->
<g id="edge10" class="edge">
<title>ADC_Pressure&#45;&gt;DigitalInterface</title>
<path fill="none" stroke="#000000" d="M1177.2204,-104.6816C1189.5406,-101.1578 1202.8773,-97.3432 1215.6802,-93.6813"/>
<polygon fill="#000000" stroke="#000000" points="1216.689,-97.0332 1225.341,-90.9182 1214.764,-90.3031 1216.689,-97.0332"/>
</g>
<!-- TemperatureSensorArray -->
<g id="node6" class="node">
<title>TemperatureSensorArray</title>
<polygon fill="none" stroke="#000000" points="174.3875,-52 15.8707,-52 15.8707,-16 174.3875,-16 174.3875,-52"/>
<text text-anchor="middle" x="95.1291" y="-29.8" font-family="Times,serif" font-size="14.00" fill="#000000">TemperatureSensorArray</text>
</g>
<!-- AmplifierBlock_Temperature -->
<g id="node7" class="node">
<title>AmplifierBlock_Temperature</title>
<polygon fill="none" stroke="#000000" points="393.4983,-52 210.1781,-52 210.1781,-16 393.4983,-16 393.4983,-52"/>
<text text-anchor="middle" x="301.8382" y="-29.8" font-family="Times,serif" font-size="14.00" fill="#000000">AmplifierBlock_Temperature</text>
</g>
<!-- TemperatureSensorArray&#45;&gt;AmplifierBlock_Temperature -->
<g id="edge5" class="edge">
<title>TemperatureSensorArray&#45;&gt;AmplifierBlock_Temperature</title>
<path fill="none" stroke="#000000" d="M174.4571,-27.4148C182.804,-27.2984 191.3722,-27.2436 199.9272,-27.2506"/>
<polygon fill="#000000" stroke="#000000" points="199.9373,-30.7505 209.95,-27.2871 199.9628,-23.7506 199.9373,-30.7505"/>
</g>
<!-- TemperatureSensorArray&#45;&gt;AmplifierBlock_Temperature -->
<g id="edge17" class="edge">
<title>TemperatureSensorArray&#45;&gt;AmplifierBlock_Temperature</title>
<path fill="none" stroke="#000000" d="M174.4571,-40.5852C182.804,-40.7016 191.3722,-40.7564 199.9272,-40.7494"/>
<polygon fill="#000000" stroke="#000000" points="199.9628,-44.2494 209.95,-40.7129 199.9373,-37.2495 199.9628,-44.2494"/>
</g>
<!-- FilterBlock_Temperature -->
<g id="node8" class="node">
<title>FilterBlock_Temperature</title>
<polygon fill="none" stroke="#000000" points="588.2377,-52 429.6675,-52 429.6675,-16 588.2377,-16 588.2377,-52"/>
<text text-anchor="middle" x="508.9526" y="-29.8" font-family="Times,serif" font-size="14.00" fill="#000000">FilterBlock_Temperature</text>
</g>
<!-- AmplifierBlock_Temperature&#45;&gt;FilterBlock_Temperature -->
<g id="edge6" class="edge">
<title>AmplifierBlock_Temperature&#45;&gt;FilterBlock_Temperature</title>
<path fill="none" stroke="#000000" d="M393.5861,-27.2892C402.2185,-27.2317 410.9619,-27.2375 419.5721,-27.3065"/>
<polygon fill="#000000" stroke="#000000" points="419.5659,-30.8066 429.6038,-27.4167 419.6428,-23.807 419.5659,-30.8066"/>
</g>
<!-- AmplifierBlock_Temperature&#45;&gt;FilterBlock_Temperature -->
<g id="edge18" class="edge">
<title>AmplifierBlock_Temperature&#45;&gt;FilterBlock_Temperature</title>
<path fill="none" stroke="#000000" d="M393.5861,-40.7108C402.2185,-40.7683 410.9619,-40.7625 419.5721,-40.6935"/>
<polygon fill="#000000" stroke="#000000" points="419.6428,-44.193 429.6038,-40.5833 419.5659,-37.1934 419.6428,-44.193"/>
</g>
<!-- LinearizationCircuit_Temperature -->
<g id="node9" class="node">
<title>LinearizationCircuit_Temperature</title>
<polygon fill="none" stroke="#000000" points="832.5335,-52 624.4715,-52 624.4715,-16 832.5335,-16 832.5335,-52"/>
<text text-anchor="middle" x="728.5025" y="-29.8" font-family="Times,serif" font-size="14.00" fill="#000000">LinearizationCircuit_Temperature</text>
</g>
<!-- FilterBlock_Temperature&#45;&gt;LinearizationCircuit_Temperature -->
<g id="edge7" class="edge">
<title>FilterBlock_Temperature&#45;&gt;LinearizationCircuit_Temperature</title>
<path fill="none" stroke="#000000" d="M588.2152,-27.4873C596.6019,-27.3537 605.2468,-27.2765 613.9318,-27.2557"/>
<polygon fill="#000000" stroke="#000000" points="614.132,-30.7557 624.1326,-27.2573 614.1332,-23.7557 614.132,-30.7557"/>
</g>
<!-- FilterBlock_Temperature&#45;&gt;LinearizationCircuit_Temperature -->
<g id="edge19" class="edge">
<title>FilterBlock_Temperature&#45;&gt;LinearizationCircuit_Temperature</title>
<path fill="none" stroke="#000000" d="M588.2152,-40.5127C596.6019,-40.6463 605.2468,-40.7235 613.9318,-40.7443"/>
<polygon fill="#000000" stroke="#000000" points="614.1332,-44.2443 624.1326,-40.7427 614.132,-37.2443 614.1332,-44.2443"/>
</g>
<!-- Multiplexer_Temperature -->
<g id="node10" class="node">
<title>Multiplexer_Temperature</title>
<polygon fill="none" stroke="#000000" points="1028.9338,-52 868.7124,-52 868.7124,-16 1028.9338,-16 1028.9338,-52"/>
<text text-anchor="middle" x="948.8231" y="-29.8" font-family="Times,serif" font-size="14.00" fill="#000000">Multiplexer_Temperature</text>
</g>
<!-- LinearizationCircuit_Temperature&#45;&gt;Multiplexer_Temperature -->
<g id="edge8" class="edge">
<title>LinearizationCircuit_Temperature&#45;&gt;Multiplexer_Temperature</title>
<path fill="none" stroke="#000000" d="M832.5336,-27.2593C841.2625,-27.2328 850.0428,-27.263 858.6544,-27.3498"/>
<polygon fill="#000000" stroke="#000000" points="858.6292,-30.8496 868.6731,-27.4777 858.7186,-23.8502 858.6292,-30.8496"/>
</g>
<!-- LinearizationCircuit_Temperature&#45;&gt;Multiplexer_Temperature -->
<g id="edge20" class="edge">
<title>LinearizationCircuit_Temperature&#45;&gt;Multiplexer_Temperature</title>
<path fill="none" stroke="#000000" d="M832.5336,-40.7407C841.2625,-40.7672 850.0428,-40.737 858.6544,-40.6502"/>
<polygon fill="#000000" stroke="#000000" points="858.7186,-44.1498 868.6731,-40.5223 858.6292,-37.1504 858.7186,-44.1498"/>
</g>
<!-- ADC_Temperature -->
<g id="node11" class="node">
<title>ADC_Temperature</title>
<polygon fill="none" stroke="#000000" points="1189.223,-52 1065.0966,-52 1065.0966,-16 1189.223,-16 1189.223,-52"/>
<text text-anchor="middle" x="1127.1598" y="-29.8" font-family="Times,serif" font-size="14.00" fill="#000000">ADC_Temperature</text>
</g>
<!-- Multiplexer_Temperature&#45;&gt;ADC_Temperature -->
<g id="edge9" class="edge">
<title>Multiplexer_Temperature&#45;&gt;ADC_Temperature</title>
<path fill="none" stroke="#000000" d="M1029.1225,-27.2798C1037.667,-27.2222 1046.3213,-27.2481 1054.7672,-27.3573"/>
<polygon fill="#000000" stroke="#000000" points="1054.8861,-30.8598 1064.9447,-27.5319 1055.0063,-23.8608 1054.8861,-30.8598"/>
</g>
<!-- Multiplexer_Temperature&#45;&gt;ADC_Temperature -->
<g id="edge21" class="edge">
<title>Multiplexer_Temperature&#45;&gt;ADC_Temperature</title>
<path fill="none" stroke="#000000" d="M1029.1225,-40.7202C1037.667,-40.7778 1046.3213,-40.7519 1054.7672,-40.6427"/>
<polygon fill="#000000" stroke="#000000" points="1055.0063,-44.1392 1064.9447,-40.4681 1054.8861,-37.1402 1055.0063,-44.1392"/>
</g>
<!-- ADC_Temperature&#45;&gt;DigitalInterface -->
<g id="edge11" class="edge">
<title>ADC_Temperature&#45;&gt;DigitalInterface</title>
<path fill="none" stroke="#000000" d="M1189.6109,-51.4469C1198.0767,-53.812 1206.7642,-56.239 1215.2268,-58.6032"/>
<polygon fill="#000000" stroke="#000000" points="1214.4582,-62.0224 1225.0312,-61.3422 1216.3417,-55.2806 1214.4582,-62.0224"/>
</g>
<!-- Computer -->
<g id="node13" class="node">
<title>Computer</title>
<polygon fill="none" stroke="#000000" points="1437.7953,-94 1365.8093,-94 1365.8093,-58 1437.7953,-58 1437.7953,-94"/>
<text text-anchor="middle" x="1401.8023" y="-71.8" font-family="Times,serif" font-size="14.00" fill="#000000">Computer</text>
</g>
<!-- DigitalInterface&#45;&gt;Computer -->
<g id="edge12" class="edge">
<title>DigitalInterface&#45;&gt;Computer</title>
<path fill="none" stroke="#000000" d="M1329.8543,-76C1338.4394,-76 1347.2803,-76 1355.6994,-76"/>
<polygon fill="#000000" stroke="#000000" points="1355.7142,-79.5001 1365.7142,-76 1355.7141,-72.5001 1355.7142,-79.5001"/>
</g>
</g>
</svg>
