<?xml version="1.0" encoding="UTF-8" standalone="no"?>
<!DOCTYPE svg PUBLIC "-//W3C//DTD SVG 1.1//EN"
 "http://www.w3.org/Graphics/SVG/1.1/DTD/svg11.dtd">
<!-- Generated by graphviz version 2.40.1 (20161225.0304)
 -->
<!-- Title: G Pages: 1 -->
<svg width="560pt" height="101pt"
 viewBox="0.00 0.00 560.29 101.00" xmlns="http://www.w3.org/2000/svg" xmlns:xlink="http://www.w3.org/1999/xlink">
<g id="graph0" class="graph" transform="scale(1 1) rotate(0) translate(4 97)">
<title>G</title>
<polygon fill="#ffffff" stroke="transparent" points="-4,4 -4,-97 556.289,-97 556.289,4 -4,4"/>
<g id="clust2" class="cluster">
<title>cluster_1</title>
<polygon fill="none" stroke="#000000" points="429.289,-8 429.289,-85 552.289,-85 552.289,-8 429.289,-8"/>
<text text-anchor="middle" x="490.789" y="-68.4" font-family="Times,serif" font-size="14.00" fill="#000000">Digital Acquisition</text>
</g>
<g id="clust1" class="cluster">
<title>cluster_0</title>
<polygon fill="none" stroke="#000000" points="122.54,-8 122.54,-85 409.289,-85 409.289,-8 122.54,-8"/>
<text text-anchor="middle" x="265.9145" y="-68.4" font-family="Times,serif" font-size="14.00" fill="#000000">Analog Signal Conditioning</text>
</g>
<!-- Potentiometer -->
<g id="node1" class="node">
<title>Potentiometer</title>
<polygon fill="none" stroke="#000000" points="94.3111,-52 .2289,-52 .2289,-16 94.3111,-16 94.3111,-52"/>
<text text-anchor="middle" x="47.27" y="-29.8" font-family="Times,serif" font-size="14.00" fill="#000000">Potentiometer</text>
</g>
<!-- Amplifier -->
<g id="node2" class="node">
<title>Amplifier</title>
<polygon fill="none" stroke="#000000" points="201.8475,-52 130.4373,-52 130.4373,-16 201.8475,-16 201.8475,-52"/>
<text text-anchor="middle" x="166.1424" y="-29.8" font-family="Times,serif" font-size="14.00" fill="#000000">Amplifier</text>
</g>
<!-- Potentiometer&#45;&gt;Amplifier -->
<g id="edge1" class="edge">
<title>Potentiometer&#45;&gt;Amplifier</title>
<path fill="none" stroke="#000000" d="M94.5931,-34C103.0626,-34 111.8748,-34 120.3018,-34"/>
<polygon fill="#000000" stroke="#000000" points="120.3408,-37.5001 130.3408,-34 120.3407,-30.5001 120.3408,-37.5001"/>
</g>
<!-- Filter -->
<g id="node3" class="node">
<title>Filter</title>
<polygon fill="none" stroke="#000000" points="291.7448,-52 237.7448,-52 237.7448,-16 291.7448,-16 291.7448,-52"/>
<text text-anchor="middle" x="264.7448" y="-29.8" font-family="Times,serif" font-size="14.00" fill="#000000">Filter</text>
</g>
<!-- Amplifier&#45;&gt;Filter -->
<g id="edge2" class="edge">
<title>Amplifier&#45;&gt;Filter</title>
<path fill="none" stroke="#000000" d="M202.0191,-34C210.3045,-34 219.1375,-34 227.4807,-34"/>
<polygon fill="#000000" stroke="#000000" points="227.7086,-37.5001 237.7086,-34 227.7085,-30.5001 227.7086,-37.5001"/>
</g>
<!-- Protection -->
<g id="node4" class="node">
<title>Protection</title>
<polygon fill="none" stroke="#000000" points="401.0625,-52 327.9713,-52 327.9713,-16 401.0625,-16 401.0625,-52"/>
<text text-anchor="middle" x="364.5169" y="-29.8" font-family="Times,serif" font-size="14.00" fill="#000000">Protection</text>
</g>
<!-- Filter&#45;&gt;Protection -->
<g id="edge3" class="edge">
<title>Filter&#45;&gt;Protection</title>
<path fill="none" stroke="#000000" d="M292.008,-34C299.9701,-34 308.9077,-34 317.7165,-34"/>
<polygon fill="#000000" stroke="#000000" points="317.932,-37.5001 327.932,-34 317.932,-30.5001 317.932,-37.5001"/>
</g>
<!-- ADC -->
<g id="node5" class="node">
<title>ADC</title>
<polygon fill="none" stroke="#000000" points="517.289,-52 463.289,-52 463.289,-16 517.289,-16 517.289,-52"/>
<text text-anchor="middle" x="490.289" y="-29.8" font-family="Times,serif" font-size="14.00" fill="#000000">ADC</text>
</g>
<!-- Protection&#45;&gt;ADC -->
<g id="edge4" class="edge">
<title>Protection&#45;&gt;ADC</title>
<path fill="none" stroke="#000000" d="M401.2335,-34C417.4115,-34 436.4019,-34 452.6811,-34"/>
<polygon fill="#000000" stroke="#000000" points="452.9305,-37.5001 462.9305,-34 452.9305,-30.5001 452.9305,-37.5001"/>
</g>
</g>
</svg>
