<?xml version="1.0" encoding="UTF-8" standalone="no"?>
<!DOCTYPE svg PUBLIC "-//W3C//DTD SVG 1.1//EN"
 "http://www.w3.org/Graphics/SVG/1.1/DTD/svg11.dtd">
<!-- Generated by graphviz version 2.40.1 (20161225.0304)
 -->
<!-- Title: G Pages: 1 -->
<svg width="1500pt" height="98pt"
 viewBox="0.00 0.00 1499.82 98.00" xmlns="http://www.w3.org/2000/svg" xmlns:xlink="http://www.w3.org/1999/xlink">
<g id="graph0" class="graph" transform="scale(1 1) rotate(0) translate(4 94)">
<title>G</title>
<polygon fill="#ffffff" stroke="transparent" points="-4,4 -4,-94 1495.8154,-94 1495.8154,4 -4,4"/>
<!-- Thermistor -->
<g id="node1" class="node">
<title>Thermistor</title>
<polygon fill="none" stroke="#000000" points="309.4451,-63 190.4015,-63 190.4015,-27 309.4451,-27 309.4451,-63"/>
<text text-anchor="middle" x="249.9233" y="-40.8" font-family="Times,serif" font-size="14.00" fill="#000000">Thermistor (NTC)</text>
</g>
<!-- Buffer -->
<g id="node2" class="node">
<title>Buffer</title>
<polygon fill="none" stroke="#000000" points="456.7912,-63 345.315,-63 345.315,-27 456.7912,-27 456.7912,-63"/>
<text text-anchor="middle" x="401.0531" y="-40.8" font-family="Times,serif" font-size="14.00" fill="#000000">Buffer Amplifier</text>
</g>
<!-- Thermistor&#45;&gt;Buffer -->
<g id="edge1" class="edge">
<title>Thermistor&#45;&gt;Buffer</title>
<path fill="none" stroke="#000000" d="M309.6538,-45C317.9831,-45 326.5811,-45 335.0181,-45"/>
<polygon fill="#000000" stroke="#000000" points="335.2007,-48.5001 345.2006,-45 335.2006,-41.5001 335.2007,-48.5001"/>
</g>
<!-- Instrumentation_Amp -->
<g id="node4" class="node">
<title>Instrumentation_Amp</title>
<polygon fill="none" stroke="#000000" points="656.2016,-63 492.4952,-63 492.4952,-27 656.2016,-27 656.2016,-63"/>
<text text-anchor="middle" x="574.3484" y="-40.8" font-family="Times,serif" font-size="14.00" fill="#000000">Instrumentation Amplifier</text>
</g>
<!-- Buffer&#45;&gt;Instrumentation_Amp -->
<g id="edge3" class="edge">
<title>Buffer&#45;&gt;Instrumentation_Amp</title>
<path fill="none" stroke="#000000" d="M456.8387,-45C465.0171,-45 473.6175,-45 482.2904,-45"/>
<polygon fill="#000000" stroke="#000000" points="482.4841,-48.5001 492.4841,-45 482.484,-41.5001 482.4841,-48.5001"/>
</g>
<!-- Excitation -->
<g id="node3" class="node">
<title>Excitation</title>
<polygon fill="none" stroke="#000000" points="154.6192,-63 -.2068,-63 -.2068,-27 154.6192,-27 154.6192,-63"/>
<text text-anchor="middle" x="77.2062" y="-40.8" font-family="Times,serif" font-size="14.00" fill="#000000">Constant Current Source</text>
</g>
<!-- Excitation&#45;&gt;Thermistor -->
<g id="edge2" class="edge">
<title>Excitation&#45;&gt;Thermistor</title>
<path fill="none" stroke="#000000" d="M154.4716,-45C163.0282,-45 171.7052,-45 180.1615,-45"/>
<polygon fill="#000000" stroke="#000000" points="180.3441,-48.5001 190.3441,-45 180.344,-41.5001 180.3441,-48.5001"/>
</g>
<!-- Level_Shifter -->
<g id="node5" class="node">
<title>Level_Shifter</title>
<polygon fill="none" stroke="#000000" points="781.7341,-63 691.7875,-63 691.7875,-27 781.7341,-27 781.7341,-63"/>
<text text-anchor="middle" x="736.7608" y="-40.8" font-family="Times,serif" font-size="14.00" fill="#000000">Level Shifter</text>
</g>
<!-- Instrumentation_Amp&#45;&gt;Level_Shifter -->
<g id="edge4" class="edge">
<title>Instrumentation_Amp&#45;&gt;Level_Shifter</title>
<path fill="none" stroke="#000000" d="M656.0304,-45C664.6948,-45 673.3521,-45 681.6075,-45"/>
<polygon fill="#000000" stroke="#000000" points="681.8198,-48.5001 691.8197,-45 681.8197,-41.5001 681.8198,-48.5001"/>
</g>
<!-- Voltage_Output -->
<g id="node6" class="node">
<title>Voltage_Output</title>
<polygon fill="none" stroke="#000000" points="932.1098,-90 829.6994,-90 829.6994,-54 932.1098,-54 932.1098,-90"/>
<text text-anchor="middle" x="880.9046" y="-67.8" font-family="Times,serif" font-size="14.00" fill="#000000">Voltage Output</text>
</g>
<!-- Level_Shifter&#45;&gt;Voltage_Output -->
<g id="edge5" class="edge">
<title>Level_Shifter&#45;&gt;Voltage_Output</title>
<path fill="none" stroke="#000000" d="M781.5787,-53.395C793.5775,-55.6425 806.7583,-58.1114 819.4859,-60.4955"/>
<polygon fill="#000000" stroke="#000000" points="819.0913,-63.9824 829.5648,-62.3834 820.3801,-57.102 819.0913,-63.9824"/>
</g>
<!-- AntiAliasingFilter -->
<g id="node7" class="node">
<title>AntiAliasingFilter</title>
<polygon fill="none" stroke="#000000" points="944.2203,-36 817.5889,-36 817.5889,0 944.2203,0 944.2203,-36"/>
<text text-anchor="middle" x="880.9046" y="-13.8" font-family="Times,serif" font-size="14.00" fill="#000000">Anti&#45;Aliasing Filter</text>
</g>
<!-- Level_Shifter&#45;&gt;AntiAliasingFilter -->
<g id="edge6" class="edge">
<title>Level_Shifter&#45;&gt;AntiAliasingFilter</title>
<path fill="none" stroke="#000000" d="M781.5787,-36.605C789.805,-35.0641 798.5868,-33.4192 807.3973,-31.7689"/>
<polygon fill="#000000" stroke="#000000" points="808.144,-35.19 817.3287,-29.9086 806.8552,-28.3096 808.144,-35.19"/>
</g>
<!-- ADC -->
<g id="node8" class="node">
<title>ADC</title>
<polygon fill="none" stroke="#000000" points="1155.9897,-36 980.4199,-36 980.4199,0 1155.9897,0 1155.9897,-36"/>
<text text-anchor="middle" x="1068.2048" y="-13.8" font-family="Times,serif" font-size="14.00" fill="#000000">Analog&#45;to&#45;Digital Converter</text>
</g>
<!-- AntiAliasingFilter&#45;&gt;ADC -->
<g id="edge7" class="edge">
<title>AntiAliasingFilter&#45;&gt;ADC</title>
<path fill="none" stroke="#000000" d="M944.3159,-18C952.6303,-18 961.301,-18 970.0242,-18"/>
<polygon fill="#000000" stroke="#000000" points="970.2704,-21.5001 980.2703,-18 970.2703,-14.5001 970.2704,-21.5001"/>
</g>
<!-- Microcontroller -->
<g id="node9" class="node">
<title>Microcontroller</title>
<polygon fill="none" stroke="#000000" points="1296.5467,-36 1192.2803,-36 1192.2803,0 1296.5467,0 1296.5467,-36"/>
<text text-anchor="middle" x="1244.4135" y="-13.8" font-family="Times,serif" font-size="14.00" fill="#000000">Microcontroller</text>
</g>
<!-- ADC&#45;&gt;Microcontroller -->
<g id="edge8" class="edge">
<title>ADC&#45;&gt;Microcontroller</title>
<path fill="none" stroke="#000000" d="M1156.051,-18C1164.7539,-18 1173.4601,-18 1181.8301,-18"/>
<polygon fill="#000000" stroke="#000000" points="1181.8499,-21.5001 1191.8499,-18 1181.8499,-14.5001 1181.8499,-21.5001"/>
</g>
<!-- Digital_Output -->
<g id="node10" class="node">
<title>Digital_Output</title>
<polygon fill="none" stroke="#000000" points="1491.8582,-36 1332.687,-36 1332.687,0 1491.8582,0 1491.8582,-36"/>
<text text-anchor="middle" x="1412.2726" y="-13.8" font-family="Times,serif" font-size="14.00" fill="#000000">Digital Output (Optional)</text>
</g>
<!-- Microcontroller&#45;&gt;Digital_Output -->
<g id="edge9" class="edge">
<title>Microcontroller&#45;&gt;Digital_Output</title>
<path fill="none" stroke="#000000" d="M1296.605,-18C1304.9261,-18 1313.7353,-18 1322.6305,-18"/>
<polygon fill="#000000" stroke="#000000" points="1322.6886,-21.5001 1332.6885,-18 1322.6885,-14.5001 1322.6886,-21.5001"/>
</g>
</g>
</svg>
