<?xml version="1.0" encoding="UTF-8" standalone="no"?>
<!DOCTYPE svg PUBLIC "-//W3C//DTD SVG 1.1//EN"
 "http://www.w3.org/Graphics/SVG/1.1/DTD/svg11.dtd">
<!-- Generated by graphviz version 2.40.1 (20161225.0304)
 -->
<!-- Title: G Pages: 1 -->
<svg width="842pt" height="44pt"
 viewBox="0.00 0.00 841.95 44.00" xmlns="http://www.w3.org/2000/svg" xmlns:xlink="http://www.w3.org/1999/xlink">
<g id="graph0" class="graph" transform="scale(1 1) rotate(0) translate(4 40)">
<title>G</title>
<polygon fill="#ffffff" stroke="transparent" points="-4,4 -4,-40 837.952,-40 837.952,4 -4,4"/>
<!-- Sensor -->
<g id="node1" class="node">
<title>Sensor</title>
<polygon fill="none" stroke="#000000" points="174.2707,-36 -.0903,-36 -.0903,0 174.2707,0 174.2707,-36"/>
<text text-anchor="middle" x="87.0902" y="-13.8" font-family="Times,serif" font-size="14.00" fill="#000000">Piezoelectric Accelerometer</text>
</g>
<!-- ChargeAmp -->
<g id="node2" class="node">
<title>ChargeAmp</title>
<polygon fill="none" stroke="#000000" points="325.3773,-36 210.1147,-36 210.1147,0 325.3773,0 325.3773,-36"/>
<text text-anchor="middle" x="267.746" y="-13.8" font-family="Times,serif" font-size="14.00" fill="#000000">Charge Amplifier</text>
</g>
<!-- Sensor&#45;&gt;ChargeAmp -->
<g id="edge1" class="edge">
<title>Sensor&#45;&gt;ChargeAmp</title>
<path fill="none" stroke="#000000" d="M174.2431,-18C182.9029,-18 191.6017,-18 200.0206,-18"/>
<polygon fill="#000000" stroke="#000000" points="200.1295,-21.5001 210.1295,-18 200.1294,-14.5001 200.1295,-21.5001"/>
</g>
<!-- LPFilter -->
<g id="node3" class="node">
<title>LPFilter</title>
<polygon fill="none" stroke="#000000" points="465.6917,-36 361.1847,-36 361.1847,0 465.6917,0 465.6917,-36"/>
<text text-anchor="middle" x="413.4382" y="-13.8" font-family="Times,serif" font-size="14.00" fill="#000000">Low&#45;pass Filter</text>
</g>
<!-- ChargeAmp&#45;&gt;LPFilter -->
<g id="edge2" class="edge">
<title>ChargeAmp&#45;&gt;LPFilter</title>
<path fill="none" stroke="#000000" d="M325.3274,-18C333.6963,-18 342.3466,-18 350.8093,-18"/>
<polygon fill="#000000" stroke="#000000" points="351.0073,-21.5001 361.0072,-18 351.0072,-14.5001 351.0073,-21.5001"/>
</g>
<!-- AAFilter -->
<g id="node4" class="node">
<title>AAFilter</title>
<polygon fill="none" stroke="#000000" points="624.4502,-36 501.603,-36 501.603,0 624.4502,0 624.4502,-36"/>
<text text-anchor="middle" x="563.0266" y="-13.8" font-family="Times,serif" font-size="14.00" fill="#000000">Anti&#45;aliasing Filter</text>
</g>
<!-- LPFilter&#45;&gt;AAFilter -->
<g id="edge3" class="edge">
<title>LPFilter&#45;&gt;AAFilter</title>
<path fill="none" stroke="#000000" d="M465.757,-18C474.0531,-18 482.756,-18 491.4023,-18"/>
<polygon fill="#000000" stroke="#000000" points="491.4986,-21.5001 501.4986,-18 491.4985,-14.5001 491.4986,-21.5001"/>
</g>
<!-- ADC -->
<g id="node5" class="node">
<title>ADC</title>
<polygon fill="none" stroke="#000000" points="834.1844,-36 660.256,-36 660.256,0 834.1844,0 834.1844,-36"/>
<text text-anchor="middle" x="747.2202" y="-13.8" font-family="Times,serif" font-size="14.00" fill="#000000">Analog to Digital Converter</text>
</g>
<!-- AAFilter&#45;&gt;ADC -->
<g id="edge4" class="edge">
<title>AAFilter&#45;&gt;ADC</title>
<path fill="none" stroke="#000000" d="M624.6165,-18C632.8851,-18 641.5235,-18 650.2204,-18"/>
<polygon fill="#000000" stroke="#000000" points="650.4381,-21.5001 660.438,-18 650.438,-14.5001 650.4381,-21.5001"/>
</g>
</g>
</svg>
