<?xml version="1.0" encoding="UTF-8" standalone="no"?>
<!DOCTYPE svg PUBLIC "-//W3C//DTD SVG 1.1//EN"
 "http://www.w3.org/Graphics/SVG/1.1/DTD/svg11.dtd">
<!-- Generated by graphviz version 2.40.1 (20161225.0304)
 -->
<!-- Title: G Pages: 1 -->
<svg width="1088pt" height="44pt"
 viewBox="0.00 0.00 1087.87 44.00" xmlns="http://www.w3.org/2000/svg" xmlns:xlink="http://www.w3.org/1999/xlink">
<g id="graph0" class="graph" transform="scale(1 1) rotate(0) translate(4 40)">
<title>G</title>
<polygon fill="#ffffff" stroke="transparent" points="-4,4 -4,-40 1083.8714,-40 1083.8714,4 -4,4"/>
<!-- Thermistor -->
<g id="node1" class="node">
<title>Thermistor</title>
<polygon fill="none" stroke="#000000" points="204.2632,-36 -.0878,-36 -.0878,0 204.2632,0 204.2632,-36"/>
<text text-anchor="middle" x="102.0877" y="-13.8" font-family="Times,serif" font-size="14.00" fill="#000000">NTC Thermistor (NTCLE100E3)</text>
</g>
<!-- Bridge -->
<g id="node2" class="node">
<title>Bridge</title>
<polygon fill="none" stroke="#000000" points="363.7057,-36 240.3317,-36 240.3317,0 363.7057,0 363.7057,-36"/>
<text text-anchor="middle" x="302.0187" y="-13.8" font-family="Times,serif" font-size="14.00" fill="#000000">Wheatstone Bridge</text>
</g>
<!-- Thermistor&#45;&gt;Bridge -->
<g id="edge1" class="edge">
<title>Thermistor&#45;&gt;Bridge</title>
<path fill="none" stroke="#000000" d="M204.396,-18C213.0704,-18 221.7212,-18 230.0871,-18"/>
<polygon fill="#000000" stroke="#000000" points="230.1328,-21.5001 240.1327,-18 230.1327,-14.5001 230.1328,-21.5001"/>
</g>
<!-- Buffer -->
<g id="node3" class="node">
<title>Buffer</title>
<polygon fill="none" stroke="#000000" points="511.219,-36 399.7428,-36 399.7428,0 511.219,0 511.219,-36"/>
<text text-anchor="middle" x="455.4809" y="-13.8" font-family="Times,serif" font-size="14.00" fill="#000000">Buffer Amplifier</text>
</g>
<!-- Bridge&#45;&gt;Buffer -->
<g id="edge2" class="edge">
<title>Bridge&#45;&gt;Buffer</title>
<path fill="none" stroke="#000000" d="M363.9953,-18C372.3932,-18 381.0362,-18 389.5011,-18"/>
<polygon fill="#000000" stroke="#000000" points="389.7096,-21.5001 399.7096,-18 389.7095,-14.5001 389.7096,-21.5001"/>
</g>
<!-- Diff_Amp -->
<g id="node4" class="node">
<title>Diff_Amp</title>
<polygon fill="none" stroke="#000000" points="687.0989,-36 547.1001,-36 547.1001,0 687.0989,0 687.0989,-36"/>
<text text-anchor="middle" x="617.0995" y="-13.8" font-family="Times,serif" font-size="14.00" fill="#000000">Differential Amplifier</text>
</g>
<!-- Buffer&#45;&gt;Diff_Amp -->
<g id="edge3" class="edge">
<title>Buffer&#45;&gt;Diff_Amp</title>
<path fill="none" stroke="#000000" d="M511.1009,-18C519.3701,-18 528.0303,-18 536.6845,-18"/>
<polygon fill="#000000" stroke="#000000" points="536.8173,-21.5001 546.8172,-18 536.8172,-14.5001 536.8173,-21.5001"/>
</g>
<!-- Gain_Stage -->
<g id="node5" class="node">
<title>Gain_Stage</title>
<polygon fill="none" stroke="#000000" points="800.8207,-36 723.1919,-36 723.1919,0 800.8207,0 800.8207,-36"/>
<text text-anchor="middle" x="762.0063" y="-13.8" font-family="Times,serif" font-size="14.00" fill="#000000">Gain Stage</text>
</g>
<!-- Diff_Amp&#45;&gt;Gain_Stage -->
<g id="edge4" class="edge">
<title>Diff_Amp&#45;&gt;Gain_Stage</title>
<path fill="none" stroke="#000000" d="M687.4305,-18C696.0499,-18 704.7093,-18 712.9204,-18"/>
<polygon fill="#000000" stroke="#000000" points="713.0444,-21.5001 723.0444,-18 713.0444,-14.5001 713.0444,-21.5001"/>
</g>
<!-- Low_Pass -->
<g id="node6" class="node">
<title>Low_Pass</title>
<polygon fill="none" stroke="#000000" points="941.2935,-36 836.7865,-36 836.7865,0 941.2935,0 941.2935,-36"/>
<text text-anchor="middle" x="889.04" y="-13.8" font-family="Times,serif" font-size="14.00" fill="#000000">Low&#45;pass Filter</text>
</g>
<!-- Gain_Stage&#45;&gt;Low_Pass -->
<g id="edge5" class="edge">
<title>Gain_Stage&#45;&gt;Low_Pass</title>
<path fill="none" stroke="#000000" d="M801.1572,-18C809.2264,-18 817.9141,-18 826.5757,-18"/>
<polygon fill="#000000" stroke="#000000" points="826.6931,-21.5001 836.693,-18 826.693,-14.5001 826.6931,-21.5001"/>
</g>
<!-- Output -->
<g id="node7" class="node">
<title>Output</title>
<polygon fill="none" stroke="#000000" points="1079.7242,-36 977.3138,-36 977.3138,0 1079.7242,0 1079.7242,-36"/>
<text text-anchor="middle" x="1028.519" y="-13.8" font-family="Times,serif" font-size="14.00" fill="#000000">Output Voltage</text>
</g>
<!-- Low_Pass&#45;&gt;Output -->
<g id="edge6" class="edge">
<title>Low_Pass&#45;&gt;Output</title>
<path fill="none" stroke="#000000" d="M941.3737,-18C949.8187,-18 958.6276,-18 967.2604,-18"/>
<polygon fill="#000000" stroke="#000000" points="967.2815,-21.5001 977.2815,-18 967.2814,-14.5001 967.2815,-21.5001"/>
</g>
</g>
</svg>
