<?xml version="1.0" encoding="UTF-8" standalone="no"?>
<!DOCTYPE svg PUBLIC "-//W3C//DTD SVG 1.1//EN"
 "http://www.w3.org/Graphics/SVG/1.1/DTD/svg11.dtd">
<!-- Generated by graphviz version 2.40.1 (20161225.0304)
 -->
<!-- Title: G Pages: 1 -->
<svg width="2118pt" height="44pt"
 viewBox="0.00 0.00 2117.61 44.00" xmlns="http://www.w3.org/2000/svg" xmlns:xlink="http://www.w3.org/1999/xlink">
<g id="graph0" class="graph" transform="scale(1 1) rotate(0) translate(4 40)">
<title>G</title>
<polygon fill="#ffffff" stroke="transparent" points="-4,4 -4,-40 2113.6062,-40 2113.6062,4 -4,4"/>
<!-- ThermistorSensor -->
<g id="node1" class="node">
<title>ThermistorSensor</title>
<polygon fill="none" stroke="#000000" points="172.5197,-36 .1599,-36 .1599,0 172.5197,0 172.5197,-36"/>
<text text-anchor="middle" x="86.3398" y="-13.8" font-family="Times,serif" font-size="14.00" fill="#000000">Thermistor (NTCLE100E3)</text>
</g>
<!-- LinearizationResistor -->
<g id="node2" class="node">
<title>LinearizationResistor</title>
<polygon fill="none" stroke="#000000" points="352.2039,-36 212.1715,-36 212.1715,0 352.2039,0 352.2039,-36"/>
<text text-anchor="middle" x="282.1877" y="-13.8" font-family="Times,serif" font-size="14.00" fill="#000000">Linearization Resistor</text>
</g>
<!-- ThermistorSensor&#45;&gt;LinearizationResistor -->
<g id="edge1" class="edge">
<title>ThermistorSensor&#45;&gt;LinearizationResistor</title>
<path fill="none" stroke="#000000" d="M172.5265,-18C182.352,-18 192.3374,-18 202.0794,-18"/>
<polygon fill="#000000" stroke="#000000" points="202.1265,-21.5001 212.1265,-18 202.1265,-14.5001 202.1265,-21.5001"/>
<text text-anchor="middle" x="192.4296" y="-22.2" font-family="Times,serif" font-size="14.00" fill="#000000"> </text>
</g>
<!-- Buffer -->
<g id="node3" class="node">
<title>Buffer</title>
<polygon fill="none" stroke="#000000" points="684.8992,-36 569.6618,-36 569.6618,0 684.8992,0 684.8992,-36"/>
<text text-anchor="middle" x="627.2805" y="-13.8" font-family="Times,serif" font-size="14.00" fill="#000000">Buffer (Op&#45;Amp)</text>
</g>
<!-- LinearizationResistor&#45;&gt;Buffer -->
<g id="edge2" class="edge">
<title>LinearizationResistor&#45;&gt;Buffer</title>
<path fill="none" stroke="#000000" d="M352.4383,-18C412.9836,-18 499.8285,-18 559.6108,-18"/>
<polygon fill="#000000" stroke="#000000" points="559.7042,-21.5001 569.7042,-18 559.7041,-14.5001 559.7042,-21.5001"/>
<text text-anchor="middle" x="460.9585" y="-22.2" font-family="Times,serif" font-size="14.00" fill="#000000">Temperature&#45;dependent Voltage</text>
</g>
<!-- GainStage -->
<g id="node4" class="node">
<title>GainStage</title>
<polygon fill="none" stroke="#000000" points="959.0047,-36 818.2039,-36 818.2039,0 959.0047,0 959.0047,-36"/>
<text text-anchor="middle" x="888.6043" y="-13.8" font-family="Times,serif" font-size="14.00" fill="#000000">Gain Stage (Op&#45;Amp)</text>
</g>
<!-- Buffer&#45;&gt;GainStage -->
<g id="edge3" class="edge">
<title>Buffer&#45;&gt;GainStage</title>
<path fill="none" stroke="#000000" d="M684.9526,-18C721.0412,-18 768.0676,-18 807.837,-18"/>
<polygon fill="#000000" stroke="#000000" points="808.0458,-21.5001 818.0457,-18 808.0457,-14.5001 808.0458,-21.5001"/>
<text text-anchor="middle" x="751.6221" y="-22.2" font-family="Times,serif" font-size="14.00" fill="#000000">Buffered Voltage</text>
</g>
<!-- LevelShifter -->
<g id="node5" class="node">
<title>LevelShifter</title>
<polygon fill="none" stroke="#000000" points="1189.8747,-36 1099.9281,-36 1099.9281,0 1189.8747,0 1189.8747,-36"/>
<text text-anchor="middle" x="1144.9014" y="-13.8" font-family="Times,serif" font-size="14.00" fill="#000000">Level Shifter</text>
</g>
<!-- GainStage&#45;&gt;LevelShifter -->
<g id="edge4" class="edge">
<title>GainStage&#45;&gt;LevelShifter</title>
<path fill="none" stroke="#000000" d="M958.9776,-18C1000.1564,-18 1051.4015,-18 1089.6573,-18"/>
<polygon fill="#000000" stroke="#000000" points="1090.0838,-21.5001 1100.0838,-18 1090.0838,-14.5001 1090.0838,-21.5001"/>
<text text-anchor="middle" x="1029.4848" y="-22.2" font-family="Times,serif" font-size="14.00" fill="#000000">Amplified Voltage</text>
</g>
<!-- LowPassFilter -->
<g id="node6" class="node">
<title>LowPassFilter</title>
<polygon fill="none" stroke="#000000" points="1507.4173,-36 1314.0519,-36 1314.0519,0 1507.4173,0 1507.4173,-36"/>
<text text-anchor="middle" x="1410.7346" y="-13.8" font-family="Times,serif" font-size="14.00" fill="#000000">Low Pass Filter (Anti&#45;Aliasing)</text>
</g>
<!-- LevelShifter&#45;&gt;LowPassFilter -->
<g id="edge5" class="edge">
<title>LevelShifter&#45;&gt;LowPassFilter</title>
<path fill="none" stroke="#000000" d="M1189.6958,-18C1220.9335,-18 1263.9901,-18 1303.8083,-18"/>
<polygon fill="#000000" stroke="#000000" points="1303.8527,-21.5001 1313.8527,-18 1303.8527,-14.5001 1303.8527,-21.5001"/>
<text text-anchor="middle" x="1251.7654" y="-22.2" font-family="Times,serif" font-size="14.00" fill="#000000">Shifted Voltage</text>
</g>
<!-- OutputStage -->
<g id="node7" class="node">
<title>OutputStage</title>
<polygon fill="none" stroke="#000000" points="1818.2949,-36 1635.1507,-36 1635.1507,0 1818.2949,0 1818.2949,-36"/>
<text text-anchor="middle" x="1726.7228" y="-13.8" font-family="Times,serif" font-size="14.00" fill="#000000">Output Stage (0&#45;20V Scaling)</text>
</g>
<!-- LowPassFilter&#45;&gt;OutputStage -->
<g id="edge6" class="edge">
<title>LowPassFilter&#45;&gt;OutputStage</title>
<path fill="none" stroke="#000000" d="M1507.6889,-18C1544.7514,-18 1587.1094,-18 1624.6363,-18"/>
<polygon fill="#000000" stroke="#000000" points="1625.0844,-21.5001 1635.0843,-18 1625.0843,-14.5001 1625.0844,-21.5001"/>
<text text-anchor="middle" x="1571.2564" y="-22.2" font-family="Times,serif" font-size="14.00" fill="#000000">Filtered Voltage</text>
</g>
<!-- Multimeter -->
<g id="node8" class="node">
<title>Multimeter</title>
<polygon fill="none" stroke="#000000" points="2109.5999,-36 2030.6251,-36 2030.6251,0 2109.5999,0 2109.5999,-36"/>
<text text-anchor="middle" x="2070.1125" y="-13.8" font-family="Times,serif" font-size="14.00" fill="#000000">Multimeter</text>
</g>
<!-- OutputStage&#45;&gt;Multimeter -->
<g id="edge7" class="edge">
<title>OutputStage&#45;&gt;Multimeter</title>
<path fill="none" stroke="#000000" d="M1818.7449,-18C1883.5592,-18 1967.8367,-18 2020.4565,-18"/>
<polygon fill="#000000" stroke="#000000" points="2020.5433,-21.5001 2030.5433,-18 2020.5432,-14.5001 2020.5433,-21.5001"/>
<text text-anchor="middle" x="1924.5637" y="-22.2" font-family="Times,serif" font-size="14.00" fill="#000000">Scaled Output Voltage (0&#45;20V)</text>
</g>
</g>
</svg>
