<?xml version="1.0" encoding="UTF-8" standalone="no"?>
<!DOCTYPE svg PUBLIC "-//W3C//DTD SVG 1.1//EN"
 "http://www.w3.org/Graphics/SVG/1.1/DTD/svg11.dtd">
<!-- Generated by graphviz version 2.40.1 (20161225.0304)
 -->
<!-- Title: G Pages: 1 -->
<svg width="785pt" height="44pt"
 viewBox="0.00 0.00 784.81 44.00" xmlns="http://www.w3.org/2000/svg" xmlns:xlink="http://www.w3.org/1999/xlink">
<g id="graph0" class="graph" transform="scale(1 1) rotate(0) translate(4 40)">
<title>G</title>
<polygon fill="#ffffff" stroke="transparent" points="-4,4 -4,-40 780.8054,-40 780.8054,4 -4,4"/>
<!-- Sensor -->
<g id="node1" class="node">
<title>Sensor</title>
<polygon fill="none" stroke="#000000" points="129.8434,-36 .0522,-36 .0522,0 129.8434,0 129.8434,-36"/>
<text text-anchor="middle" x="64.9478" y="-13.8" font-family="Times,serif" font-size="14.00" fill="#000000">Piezoelectric Sensor</text>
</g>
<!-- ChargeAmp -->
<g id="node2" class="node">
<title>ChargeAmp</title>
<polygon fill="none" stroke="#000000" points="281.0925,-36 165.8299,-36 165.8299,0 281.0925,0 281.0925,-36"/>
<text text-anchor="middle" x="223.4612" y="-13.8" font-family="Times,serif" font-size="14.00" fill="#000000">Charge Amplifier</text>
</g>
<!-- Sensor&#45;&gt;ChargeAmp -->
<g id="edge1" class="edge">
<title>Sensor&#45;&gt;ChargeAmp</title>
<path fill="none" stroke="#000000" d="M129.8786,-18C138.3277,-18 147.0014,-18 155.4984,-18"/>
<polygon fill="#000000" stroke="#000000" points="165.7481,-18 155.7482,-22.5001 160.7481,-18 155.7481,-18.0001 155.7481,-18.0001 155.7481,-18.0001 160.7481,-18 155.7481,-13.5001 165.7481,-18 165.7481,-18"/>
</g>
<!-- LPFilter -->
<g id="node3" class="node">
<title>LPFilter</title>
<polygon fill="none" stroke="#000000" points="420.8397,-36 317.0891,-36 317.0891,0 420.8397,0 420.8397,-36"/>
<text text-anchor="middle" x="368.9644" y="-13.8" font-family="Times,serif" font-size="14.00" fill="#000000">Low Pass Filter</text>
</g>
<!-- ChargeAmp&#45;&gt;LPFilter -->
<g id="edge2" class="edge">
<title>ChargeAmp&#45;&gt;LPFilter</title>
<path fill="none" stroke="#000000" d="M281.386,-18C289.7246,-18 298.3346,-18 306.7523,-18"/>
<polygon fill="#000000" stroke="#000000" points="316.8935,-18 306.8935,-22.5001 311.8935,-18 306.8935,-18.0001 306.8935,-18.0001 306.8935,-18.0001 311.8935,-18 306.8935,-13.5001 316.8935,-18 316.8935,-18"/>
</g>
<!-- ADC -->
<g id="node4" class="node">
<title>ADC</title>
<polygon fill="none" stroke="#000000" points="632.5793,-36 457.0095,-36 457.0095,0 632.5793,0 632.5793,-36"/>
<text text-anchor="middle" x="544.7944" y="-13.8" font-family="Times,serif" font-size="14.00" fill="#000000">Analog&#45;to&#45;Digital Converter</text>
</g>
<!-- LPFilter&#45;&gt;ADC -->
<g id="edge3" class="edge">
<title>LPFilter&#45;&gt;ADC</title>
<path fill="none" stroke="#000000" d="M421.2431,-18C429.3194,-18 437.8787,-18 446.5743,-18"/>
<polygon fill="#000000" stroke="#000000" points="456.8241,-18 446.8241,-22.5001 451.8241,-18 446.8241,-18.0001 446.8241,-18.0001 446.8241,-18.0001 451.8241,-18 446.824,-13.5001 456.8241,-18 456.8241,-18"/>
</g>
<!-- Output -->
<g id="node5" class="node">
<title>Output</title>
<polygon fill="none" stroke="#000000" points="776.8648,-36 668.6274,-36 668.6274,0 776.8648,0 776.8648,-36"/>
<text text-anchor="middle" x="722.7461" y="-13.8" font-family="Times,serif" font-size="14.00" fill="#000000">Output Interface</text>
</g>
<!-- ADC&#45;&gt;Output -->
<g id="edge4" class="edge">
<title>ADC&#45;&gt;Output</title>
<path fill="none" stroke="#000000" d="M632.7276,-18C641.4429,-18 650.1716,-18 658.5791,-18"/>
<polygon fill="#000000" stroke="#000000" points="668.6526,-18 658.6527,-22.5001 663.6526,-18 658.6526,-18.0001 658.6526,-18.0001 658.6526,-18.0001 663.6526,-18 658.6526,-13.5001 668.6526,-18 668.6526,-18"/>
</g>
</g>
</svg>
