<?xml version="1.0" encoding="UTF-8" standalone="no"?>
<!DOCTYPE svg PUBLIC "-//W3C//DTD SVG 1.1//EN"
 "http://www.w3.org/Graphics/SVG/1.1/DTD/svg11.dtd">
<!-- Generated by graphviz version 2.40.1 (20161225.0304)
 -->
<!-- Title: G Pages: 1 -->
<svg width="1134pt" height="120pt"
 viewBox="0.00 0.00 1134.35 120.00" xmlns="http://www.w3.org/2000/svg" xmlns:xlink="http://www.w3.org/1999/xlink">
<g id="graph0" class="graph" transform="scale(1 1) rotate(0) translate(4 116)">
<title>G</title>
<polygon fill="#ffffff" stroke="transparent" points="-4,4 -4,-116 1130.3528,-116 1130.3528,4 -4,4"/>
<g id="clust1" class="cluster">
<title>cluster_0</title>
<polygon fill="#d3d3d3" stroke="#d3d3d3" points="123.54,-8 123.54,-104 1043.3528,-104 1043.3528,-8 123.54,-8"/>
<text text-anchor="middle" x="583.4464" y="-87.4" font-family="Times,serif" font-size="14.00" fill="#000000">Analog Processing Chain</text>
</g>
<!-- Potentiometer -->
<g id="node1" class="node">
<title>Potentiometer</title>
<polygon fill="none" stroke="#000000" points="94.3111,-62 .2289,-62 .2289,-26 94.3111,-26 94.3111,-62"/>
<text text-anchor="middle" x="47.27" y="-39.8" font-family="Times,serif" font-size="14.00" fill="#000000">Potentiometer</text>
</g>
<!-- Buffer -->
<g id="node2" class="node">
<title>Buffer</title>
<polygon fill="none" stroke="#000000" points="185.54,-62 131.54,-62 131.54,-26 185.54,-26 185.54,-62"/>
<text text-anchor="middle" x="158.54" y="-39.8" font-family="Times,serif" font-size="14.00" fill="#000000">Buffer</text>
</g>
<!-- Potentiometer&#45;&gt;Buffer -->
<g id="edge1" class="edge">
<title>Potentiometer&#45;&gt;Buffer</title>
<path fill="none" stroke="#000000" d="M94.4585,-44C103.3858,-44 112.6102,-44 121.1832,-44"/>
<polygon fill="#000000" stroke="#000000" points="121.2536,-47.5001 131.2535,-44 121.2535,-40.5001 121.2536,-47.5001"/>
</g>
<!-- LowPassFilter -->
<g id="node3" class="node">
<title>LowPassFilter</title>
<polygon fill="none" stroke="#000000" points="469.5303,-62 372.7797,-62 372.7797,-26 469.5303,-26 469.5303,-62"/>
<text text-anchor="middle" x="421.155" y="-39.8" font-family="Times,serif" font-size="14.00" fill="#000000">LowPassFilter</text>
</g>
<!-- Buffer&#45;&gt;LowPassFilter -->
<g id="edge2" class="edge">
<title>Buffer&#45;&gt;LowPassFilter</title>
<path fill="none" stroke="#000000" d="M185.7896,-37.7381C197.0932,-35.4421 210.3833,-33.1298 222.54,-32 272.6252,-27.3451 285.5387,-28.4933 335.7174,-32 344.4025,-32.6069 353.5481,-33.5569 362.4975,-34.6628"/>
<polygon fill="#000000" stroke="#000000" points="362.1139,-38.1424 372.4832,-35.9677 363.021,-31.2014 362.1139,-38.1424"/>
</g>
<!-- Buffer&#45;&gt;LowPassFilter -->
<g id="edge6" class="edge">
<title>Buffer&#45;&gt;LowPassFilter</title>
<path fill="none" stroke="#000000" d="M185.6553,-44C227.0221,-44 306.8939,-44 362.0696,-44"/>
<polygon fill="#000000" stroke="#000000" points="362.413,-47.5001 372.413,-44 362.4129,-40.5001 362.413,-47.5001"/>
<text text-anchor="middle" x="279.1287" y="-48.2" font-family="Times,serif" font-size="14.00" fill="#000000">Signal Conditioning</text>
</g>
<!-- VoltageDivider -->
<g id="node4" class="node">
<title>VoltageDivider</title>
<polygon fill="none" stroke="#000000" points="759.89,-62 656.73,-62 656.73,-26 759.89,-26 759.89,-62"/>
<text text-anchor="middle" x="708.31" y="-39.8" font-family="Times,serif" font-size="14.00" fill="#000000">VoltageDivider</text>
</g>
<!-- LowPassFilter&#45;&gt;VoltageDivider -->
<g id="edge3" class="edge">
<title>LowPassFilter&#45;&gt;VoltageDivider</title>
<path fill="none" stroke="#000000" d="M469.8268,-35.9677C481.8128,-34.3205 494.6389,-32.8354 506.5926,-32 556.7713,-28.4933 569.583,-28.6145 619.77,-32 628.4286,-32.5841 637.5313,-33.486 646.4704,-34.5389"/>
<polygon fill="#000000" stroke="#000000" points="646.1052,-38.0204 656.4611,-35.7829 646.9702,-31.074 646.1052,-38.0204"/>
</g>
<!-- LowPassFilter&#45;&gt;VoltageDivider -->
<g id="edge7" class="edge">
<title>LowPassFilter&#45;&gt;VoltageDivider</title>
<path fill="none" stroke="#000000" d="M469.5422,-44C518.093,-44 593.0737,-44 646.0367,-44"/>
<polygon fill="#000000" stroke="#000000" points="646.3214,-47.5001 656.3214,-44 646.3214,-40.5001 646.3214,-47.5001"/>
<text text-anchor="middle" x="563.1813" y="-48.2" font-family="Times,serif" font-size="14.00" fill="#000000">Signal Conditioning</text>
</g>
<!-- AntiAliasing -->
<g id="node5" class="node">
<title>AntiAliasing</title>
<polygon fill="none" stroke="#000000" points="1035.5161,-62 946.8641,-62 946.8641,-26 1035.5161,-26 1035.5161,-62"/>
<text text-anchor="middle" x="991.1901" y="-39.8" font-family="Times,serif" font-size="14.00" fill="#000000">AntiAliasing</text>
</g>
<!-- VoltageDivider&#45;&gt;AntiAliasing -->
<g id="edge4" class="edge">
<title>VoltageDivider&#45;&gt;AntiAliasing</title>
<path fill="none" stroke="#000000" d="M760.1589,-35.7829C772.1744,-34.2098 784.9328,-32.8039 796.85,-32 847.037,-28.6145 859.8617,-28.3115 910.0274,-32 918.6972,-32.6375 927.8462,-33.653 936.7531,-34.8301"/>
<polygon fill="#000000" stroke="#000000" points="936.2797,-38.2979 946.668,-36.2163 937.2489,-31.3653 936.2797,-38.2979"/>
</g>
<!-- VoltageDivider&#45;&gt;AntiAliasing -->
<g id="edge8" class="edge">
<title>VoltageDivider&#45;&gt;AntiAliasing</title>
<path fill="none" stroke="#000000" d="M759.8656,-44C809.9595,-44 885.7378,-44 936.7802,-44"/>
<polygon fill="#000000" stroke="#000000" points="936.961,-47.5001 946.9609,-44 936.9609,-40.5001 936.961,-47.5001"/>
<text text-anchor="middle" x="853.4387" y="-48.2" font-family="Times,serif" font-size="14.00" fill="#000000">Signal Conditioning</text>
</g>
<!-- DAQ -->
<g id="node6" class="node">
<title>DAQ</title>
<polygon fill="none" stroke="#000000" points="1126.3528,-62 1072.3528,-62 1072.3528,-26 1126.3528,-26 1126.3528,-62"/>
<text text-anchor="middle" x="1099.3528" y="-39.8" font-family="Times,serif" font-size="14.00" fill="#000000">DAQ</text>
</g>
<!-- AntiAliasing&#45;&gt;DAQ -->
<g id="edge5" class="edge">
<title>AntiAliasing&#45;&gt;DAQ</title>
<path fill="none" stroke="#000000" d="M1035.4961,-44C1044.3721,-44 1053.6116,-44 1062.2147,-44"/>
<polygon fill="#000000" stroke="#000000" points="1062.3259,-47.5001 1072.3258,-44 1062.3258,-40.5001 1062.3259,-47.5001"/>
</g>
</g>
</svg>
