<?xml version="1.0" encoding="UTF-8" standalone="no"?>
<!DOCTYPE svg PUBLIC "-//W3C//DTD SVG 1.1//EN"
 "http://www.w3.org/Graphics/SVG/1.1/DTD/svg11.dtd">
<!-- Generated by graphviz version 2.40.1 (20161225.0304)
 -->
<!-- Title: G Pages: 1 -->
<svg width="757pt" height="101pt"
 viewBox="0.00 0.00 757.42 101.00" xmlns="http://www.w3.org/2000/svg" xmlns:xlink="http://www.w3.org/1999/xlink">
<g id="graph0" class="graph" transform="scale(1 1) rotate(0) translate(4 97)">
<title>G</title>
<polygon fill="#ffffff" stroke="transparent" points="-4,4 -4,-97 753.4182,-97 753.4182,4 -4,4"/>
<g id="clust1" class="cluster">
<title>cluster_0</title>
<polygon fill="none" stroke="#000000" points="277.5184,-8 277.5184,-85 541.928,-85 541.928,-8 277.5184,-8"/>
<text text-anchor="middle" x="409.7232" y="-68.4" font-family="Times,serif" font-size="14.00" fill="#000000">Anti&#45;Aliasing Filter</text>
</g>
<!-- Accelerometer -->
<g id="node1" class="node">
<title>Accelerometer</title>
<polygon fill="none" stroke="#000000" points="98.5816,-52 -.1944,-52 -.1944,-16 98.5816,-16 98.5816,-52"/>
<text text-anchor="middle" x="49.1936" y="-29.8" font-family="Times,serif" font-size="14.00" fill="#000000">Accelerometer</text>
</g>
<!-- Charge Amplifier -->
<g id="node2" class="node">
<title>Charge Amplifier</title>
<polygon fill="none" stroke="#000000" points="249.5841,-52 134.3215,-52 134.3215,-16 249.5841,-16 249.5841,-52"/>
<text text-anchor="middle" x="191.9528" y="-29.8" font-family="Times,serif" font-size="14.00" fill="#000000">Charge Amplifier</text>
</g>
<!-- Accelerometer&#45;&gt;Charge Amplifier -->
<g id="edge1" class="edge">
<title>Accelerometer&#45;&gt;Charge Amplifier</title>
<path fill="none" stroke="#000000" d="M98.7232,-34C106.9425,-34 115.5895,-34 124.1672,-34"/>
<polygon fill="#000000" stroke="#000000" points="124.175,-37.5001 134.1749,-34 124.1749,-30.5001 124.175,-37.5001"/>
</g>
<!-- Low&#45;Pass Filter -->
<g id="node3" class="node">
<title>Low&#45;Pass Filter</title>
<polygon fill="none" stroke="#000000" points="390.5721,-52 285.5005,-52 285.5005,-16 390.5721,-16 390.5721,-52"/>
<text text-anchor="middle" x="338.0363" y="-29.8" font-family="Times,serif" font-size="14.00" fill="#000000">Low&#45;Pass Filter</text>
</g>
<!-- Charge Amplifier&#45;&gt;Low&#45;Pass Filter -->
<g id="edge2" class="edge">
<title>Charge Amplifier&#45;&gt;Low&#45;Pass Filter</title>
<path fill="none" stroke="#000000" d="M249.6889,-34C258.0802,-34 266.7538,-34 275.2392,-34"/>
<polygon fill="#000000" stroke="#000000" points="275.4645,-37.5001 285.4645,-34 275.4645,-30.5001 275.4645,-37.5001"/>
</g>
<!-- High&#45;Pass Filter -->
<g id="node4" class="node">
<title>High&#45;Pass Filter</title>
<polygon fill="none" stroke="#000000" points="534.1156,-52 426.3666,-52 426.3666,-16 534.1156,-16 534.1156,-52"/>
<text text-anchor="middle" x="480.2411" y="-29.8" font-family="Times,serif" font-size="14.00" fill="#000000">High&#45;Pass Filter</text>
</g>
<!-- Low&#45;Pass Filter&#45;&gt;High&#45;Pass Filter -->
<g id="edge3" class="edge">
<title>Low&#45;Pass Filter&#45;&gt;High&#45;Pass Filter</title>
<path fill="none" stroke="#000000" d="M390.5841,-27.4586C399.0004,-27.2653 407.7895,-27.2064 416.4334,-27.2817"/>
<polygon fill="#000000" stroke="#000000" points="416.4315,-30.7819 426.4827,-27.4318 416.5361,-23.7827 416.4315,-30.7819"/>
</g>
<!-- Low&#45;Pass Filter&#45;&gt;High&#45;Pass Filter -->
<g id="edge6" class="edge">
<title>Low&#45;Pass Filter&#45;&gt;High&#45;Pass Filter</title>
<path fill="none" stroke="#000000" d="M390.5841,-40.5414C399.0004,-40.7347 407.7895,-40.7936 416.4334,-40.7183"/>
<polygon fill="#000000" stroke="#000000" points="416.5361,-44.2173 426.4827,-40.5682 416.4315,-37.2181 416.5361,-44.2173"/>
</g>
<!-- Buffer -->
<g id="node5" class="node">
<title>Buffer</title>
<polygon fill="none" stroke="#000000" points="623.928,-52 569.928,-52 569.928,-16 623.928,-16 623.928,-52"/>
<text text-anchor="middle" x="596.928" y="-29.8" font-family="Times,serif" font-size="14.00" fill="#000000">Buffer</text>
</g>
<!-- High&#45;Pass Filter&#45;&gt;Buffer -->
<g id="edge4" class="edge">
<title>High&#45;Pass Filter&#45;&gt;Buffer</title>
<path fill="none" stroke="#000000" d="M534.1442,-34C542.6975,-34 551.3787,-34 559.447,-34"/>
<polygon fill="#000000" stroke="#000000" points="559.6381,-37.5001 569.638,-34 559.638,-30.5001 559.6381,-37.5001"/>
</g>
<!-- Output Stage -->
<g id="node6" class="node">
<title>Output Stage</title>
<polygon fill="none" stroke="#000000" points="749.6646,-52 659.6816,-52 659.6816,-16 749.6646,-16 749.6646,-52"/>
<text text-anchor="middle" x="704.6731" y="-29.8" font-family="Times,serif" font-size="14.00" fill="#000000">Output Stage</text>
</g>
<!-- Buffer&#45;&gt;Output Stage -->
<g id="edge5" class="edge">
<title>Buffer&#45;&gt;Output Stage</title>
<path fill="none" stroke="#000000" d="M624.1166,-34C631.9979,-34 640.8985,-34 649.8346,-34"/>
<polygon fill="#000000" stroke="#000000" points="649.8863,-37.5001 659.8863,-34 649.8863,-30.5001 649.8863,-37.5001"/>
</g>
</g>
</svg>
