<?xml version="1.0" encoding="UTF-8" standalone="no"?>
<!DOCTYPE svg PUBLIC "-//W3C//DTD SVG 1.1//EN"
 "http://www.w3.org/Graphics/SVG/1.1/DTD/svg11.dtd">
<!-- Generated by graphviz version 2.40.1 (20161225.0304)
 -->
<!-- Title: G Pages: 1 -->
<svg width="912pt" height="98pt"
 viewBox="0.00 0.00 912.17 98.00" xmlns="http://www.w3.org/2000/svg" xmlns:xlink="http://www.w3.org/1999/xlink">
<g id="graph0" class="graph" transform="scale(1 1) rotate(0) translate(4 94)">
<title>G</title>
<polygon fill="#ffffff" stroke="transparent" points="-4,4 -4,-94 908.1728,-94 908.1728,4 -4,4"/>
<!-- PressureSensors -->
<g id="node1" class="node">
<title>PressureSensors</title>
<polygon fill="none" stroke="#000000" points="149.4815,-90 11.9001,-90 11.9001,-54 149.4815,-54 149.4815,-90"/>
<text text-anchor="middle" x="80.6908" y="-67.8" font-family="Times,serif" font-size="14.00" fill="#000000">Pressure Sensors (x8)</text>
</g>
<!-- AmpPressure -->
<g id="node3" class="node">
<title>AmpPressure</title>
<polygon fill="none" stroke="#000000" points="365.9986,-90 197.1756,-90 197.1756,-54 365.9986,-54 365.9986,-90"/>
<text text-anchor="middle" x="281.5871" y="-67.8" font-family="Times,serif" font-size="14.00" fill="#000000">Instrumentation Amps (x8)</text>
</g>
<!-- PressureSensors&#45;&gt;AmpPressure -->
<g id="edge1" class="edge">
<title>PressureSensors&#45;&gt;AmpPressure</title>
<path fill="none" stroke="#000000" d="M149.5468,-72C161.6463,-72 174.4266,-72 187.0807,-72"/>
<polygon fill="#000000" stroke="#000000" points="187.1867,-75.5001 197.1866,-72 187.1866,-68.5001 187.1867,-75.5001"/>
</g>
<!-- TempSensors -->
<g id="node2" class="node">
<title>TempSensors</title>
<polygon fill="none" stroke="#000000" points="161.5729,-36 -.1913,-36 -.1913,0 161.5729,0 161.5729,-36"/>
<text text-anchor="middle" x="80.6908" y="-13.8" font-family="Times,serif" font-size="14.00" fill="#000000">Temperature Sensors (x8)</text>
</g>
<!-- AmpTemperature -->
<g id="node4" class="node">
<title>AmpTemperature</title>
<polygon fill="none" stroke="#000000" points="349.3279,-36 213.8463,-36 213.8463,0 349.3279,0 349.3279,-36"/>
<text text-anchor="middle" x="281.5871" y="-13.8" font-family="Times,serif" font-size="14.00" fill="#000000">Nonlinear Amps (x8)</text>
</g>
<!-- TempSensors&#45;&gt;AmpTemperature -->
<g id="edge4" class="edge">
<title>TempSensors&#45;&gt;AmpTemperature</title>
<path fill="none" stroke="#000000" d="M161.5346,-18C175.3492,-18 189.6784,-18 203.4217,-18"/>
<polygon fill="#000000" stroke="#000000" points="203.7987,-21.5001 213.7987,-18 203.7987,-14.5001 203.7987,-21.5001"/>
</g>
<!-- LPFPressure -->
<g id="node5" class="node">
<title>LPFPressure</title>
<polygon fill="none" stroke="#000000" points="538.0719,-90 402.0323,-90 402.0323,-54 538.0719,-54 538.0719,-90"/>
<text text-anchor="middle" x="470.0521" y="-67.8" font-family="Times,serif" font-size="14.00" fill="#000000">Low&#45;pass Filters (x8)</text>
</g>
<!-- AmpPressure&#45;&gt;LPFPressure -->
<g id="edge2" class="edge">
<title>AmpPressure&#45;&gt;LPFPressure</title>
<path fill="none" stroke="#000000" d="M365.8974,-72C374.4677,-72 383.1487,-72 391.6526,-72"/>
<polygon fill="#000000" stroke="#000000" points="391.9183,-75.5001 401.9183,-72 391.9182,-68.5001 391.9183,-75.5001"/>
</g>
<!-- LPFTemperature -->
<g id="node6" class="node">
<title>LPFTemperature</title>
<polygon fill="none" stroke="#000000" points="538.0719,-36 402.0323,-36 402.0323,0 538.0719,0 538.0719,-36"/>
<text text-anchor="middle" x="470.0521" y="-13.8" font-family="Times,serif" font-size="14.00" fill="#000000">Low&#45;pass Filters (x8)</text>
</g>
<!-- AmpTemperature&#45;&gt;LPFTemperature -->
<g id="edge5" class="edge">
<title>AmpTemperature&#45;&gt;LPFTemperature</title>
<path fill="none" stroke="#000000" d="M349.361,-18C363.1178,-18 377.6932,-18 391.7786,-18"/>
<polygon fill="#000000" stroke="#000000" points="391.9297,-21.5001 401.9297,-18 391.9297,-14.5001 391.9297,-21.5001"/>
</g>
<!-- Mux -->
<g id="node7" class="node">
<title>Mux</title>
<polygon fill="none" stroke="#000000" points="706.114,-63 574.3774,-63 574.3774,-27 706.114,-27 706.114,-63"/>
<text text-anchor="middle" x="640.2457" y="-40.8" font-family="Times,serif" font-size="14.00" fill="#000000">16&#45;to&#45;1 Analog Mux</text>
</g>
<!-- LPFPressure&#45;&gt;Mux -->
<g id="edge3" class="edge">
<title>LPFPressure&#45;&gt;Mux</title>
<path fill="none" stroke="#000000" d="M538.2957,-61.1736C546.8038,-59.8239 555.5459,-58.437 564.1634,-57.0699"/>
<polygon fill="#000000" stroke="#000000" points="564.8727,-60.5012 574.2008,-55.4775 563.7759,-53.5877 564.8727,-60.5012"/>
</g>
<!-- LPFTemperature&#45;&gt;Mux -->
<g id="edge6" class="edge">
<title>LPFTemperature&#45;&gt;Mux</title>
<path fill="none" stroke="#000000" d="M538.2957,-28.8264C546.8038,-30.1761 555.5459,-31.563 564.1634,-32.9301"/>
<polygon fill="#000000" stroke="#000000" points="563.7759,-36.4123 574.2008,-34.5225 564.8727,-29.4988 563.7759,-36.4123"/>
</g>
<!-- ADC -->
<g id="node8" class="node">
<title>ADC</title>
<polygon fill="none" stroke="#000000" points="796.1798,-63 742.1798,-63 742.1798,-27 796.1798,-27 796.1798,-63"/>
<text text-anchor="middle" x="769.1798" y="-40.8" font-family="Times,serif" font-size="14.00" fill="#000000">ADC</text>
</g>
<!-- Mux&#45;&gt;ADC -->
<g id="edge7" class="edge">
<title>Mux&#45;&gt;ADC</title>
<path fill="none" stroke="#000000" d="M706.2236,-45C715.0118,-45 723.7626,-45 731.8222,-45"/>
<polygon fill="#000000" stroke="#000000" points="731.9643,-48.5001 741.9642,-45 731.9642,-41.5001 731.9643,-48.5001"/>
</g>
<!-- Computer -->
<g id="node9" class="node">
<title>Computer</title>
<polygon fill="none" stroke="#000000" points="904.1693,-63 832.1833,-63 832.1833,-27 904.1693,-27 904.1693,-63"/>
<text text-anchor="middle" x="868.1763" y="-40.8" font-family="Times,serif" font-size="14.00" fill="#000000">Computer</text>
</g>
<!-- ADC&#45;&gt;Computer -->
<g id="edge8" class="edge">
<title>ADC&#45;&gt;Computer</title>
<path fill="none" stroke="#000000" d="M796.231,-45C804.1313,-45 812.9994,-45 821.7397,-45"/>
<polygon fill="#000000" stroke="#000000" points="821.8758,-48.5001 831.8758,-45 821.8758,-41.5001 821.8758,-48.5001"/>
</g>
</g>
</svg>
