<?xml version="1.0" encoding="UTF-8" standalone="no"?>
<!DOCTYPE svg PUBLIC "-//W3C//DTD SVG 1.1//EN"
 "http://www.w3.org/Graphics/SVG/1.1/DTD/svg11.dtd">
<!-- Generated by graphviz version 2.40.1 (20161225.0304)
 -->
<!-- Title: G Pages: 1 -->
<svg width="699pt" height="101pt"
 viewBox="0.00 0.00 699.30 101.00" xmlns="http://www.w3.org/2000/svg" xmlns:xlink="http://www.w3.org/1999/xlink">
<g id="graph0" class="graph" transform="scale(1 1) rotate(0) translate(4 97)">
<title>G</title>
<polygon fill="#ffffff" stroke="transparent" points="-4,4 -4,-97 695.3018,-97 695.3018,4 -4,4"/>
<g id="clust1" class="cluster">
<title>cluster_00</title>
<polygon fill="none" stroke="#000000" points="305.1208,-8 305.1208,-85 553.2092,-85 553.2092,-8 305.1208,-8"/>
<text text-anchor="middle" x="429.165" y="-68.4" font-family="Times,serif" font-size="14.00" fill="#000000">Anti&#45;aliasing Filter</text>
</g>
<!-- PiezoAccelerometer -->
<g id="node1" class="node">
<title>PiezoAccelerometer</title>
<polygon fill="none" stroke="#000000" points="129.7353,-52 -.2457,-52 -.2457,-16 129.7353,-16 129.7353,-52"/>
<text text-anchor="middle" x="64.7448" y="-29.8" font-family="Times,serif" font-size="14.00" fill="#000000">PiezoAccelerometer</text>
</g>
<!-- ChargeAmplifier -->
<g id="node2" class="node">
<title>ChargeAmplifier</title>
<polygon fill="none" stroke="#000000" points="276.937,-52 165.6734,-52 165.6734,-16 276.937,-16 276.937,-52"/>
<text text-anchor="middle" x="221.3052" y="-29.8" font-family="Times,serif" font-size="14.00" fill="#000000">ChargeAmplifier</text>
</g>
<!-- PiezoAccelerometer&#45;&gt;ChargeAmplifier -->
<g id="edge1" class="edge">
<title>PiezoAccelerometer&#45;&gt;ChargeAmplifier</title>
<path fill="none" stroke="#000000" d="M129.7804,-34C138.1423,-34 146.7119,-34 155.0925,-34"/>
<polygon fill="#000000" stroke="#000000" points="155.1945,-37.5001 165.1944,-34 155.1944,-30.5001 155.1945,-37.5001"/>
</g>
<!-- HighPassFilter -->
<g id="node3" class="node">
<title>HighPassFilter</title>
<polygon fill="none" stroke="#000000" points="412.4408,-52 313.014,-52 313.014,-16 412.4408,-16 412.4408,-52"/>
<text text-anchor="middle" x="362.7274" y="-29.8" font-family="Times,serif" font-size="14.00" fill="#000000">HighPassFilter</text>
</g>
<!-- ChargeAmplifier&#45;&gt;HighPassFilter -->
<g id="edge2" class="edge">
<title>ChargeAmplifier&#45;&gt;HighPassFilter</title>
<path fill="none" stroke="#000000" d="M277.199,-34C285.5422,-34 294.1735,-34 302.5997,-34"/>
<polygon fill="#000000" stroke="#000000" points="302.7429,-37.5001 312.7429,-34 302.7428,-30.5001 302.7429,-37.5001"/>
</g>
<!-- LowPassFilter -->
<g id="node4" class="node">
<title>LowPassFilter</title>
<polygon fill="none" stroke="#000000" points="545.1469,-52 448.3963,-52 448.3963,-16 545.1469,-16 545.1469,-52"/>
<text text-anchor="middle" x="496.7716" y="-29.8" font-family="Times,serif" font-size="14.00" fill="#000000">LowPassFilter</text>
</g>
<!-- HighPassFilter&#45;&gt;LowPassFilter -->
<g id="edge3" class="edge">
<title>HighPassFilter&#45;&gt;LowPassFilter</title>
<path fill="none" stroke="#000000" d="M412.6405,-34C420.8958,-34 429.5222,-34 437.9717,-34"/>
<polygon fill="#000000" stroke="#000000" points="438.1535,-37.5001 448.1535,-34 438.1535,-30.5001 438.1535,-37.5001"/>
</g>
<!-- OutputAmplifier -->
<g id="node5" class="node">
<title>OutputAmplifier</title>
<polygon fill="none" stroke="#000000" points="691.3481,-52 581.1629,-52 581.1629,-16 691.3481,-16 691.3481,-52"/>
<text text-anchor="middle" x="636.2555" y="-29.8" font-family="Times,serif" font-size="14.00" fill="#000000">OutputAmplifier</text>
</g>
<!-- LowPassFilter&#45;&gt;OutputAmplifier -->
<g id="edge4" class="edge">
<title>LowPassFilter&#45;&gt;OutputAmplifier</title>
<path fill="none" stroke="#000000" d="M545.1648,-34C553.4218,-34 562.1205,-34 570.7331,-34"/>
<polygon fill="#000000" stroke="#000000" points="570.7724,-37.5001 580.7724,-34 570.7724,-30.5001 570.7724,-37.5001"/>
</g>
</g>
</svg>
