<?xml version="1.0" encoding="UTF-8" standalone="no"?>
<!DOCTYPE svg PUBLIC "-//W3C//DTD SVG 1.1//EN"
 "http://www.w3.org/Graphics/SVG/1.1/DTD/svg11.dtd">
<!-- Generated by graphviz version 2.40.1 (20161225.0304)
 -->
<!-- Title: G Pages: 1 -->
<svg width="1164pt" height="50pt"
 viewBox="0.00 0.00 1164.44 49.60" xmlns="http://www.w3.org/2000/svg" xmlns:xlink="http://www.w3.org/1999/xlink">
<g id="graph0" class="graph" transform="scale(1 1) rotate(0) translate(4 45.6)">
<title>G</title>
<polygon fill="#ffffff" stroke="transparent" points="-4,4 -4,-45.6 1160.4402,-45.6 1160.4402,4 -4,4"/>
<!-- PiezoSensor -->
<g id="node1" class="node">
<title>PiezoSensor</title>
<polygon fill="none" stroke="#000000" points="174.2707,-38.8 -.0903,-38.8 -.0903,-2.8 174.2707,-2.8 174.2707,-38.8"/>
<text text-anchor="middle" x="87.0902" y="-16.6" font-family="Times,serif" font-size="14.00" fill="#000000">Piezoelectric Accelerometer</text>
</g>
<!-- ChargeAmplifier -->
<g id="node2" class="node">
<title>ChargeAmplifier</title>
<polygon fill="none" stroke="#000000" points="325.3773,-38.8 210.1147,-38.8 210.1147,-2.8 325.3773,-2.8 325.3773,-38.8"/>
<text text-anchor="middle" x="267.746" y="-16.6" font-family="Times,serif" font-size="14.00" fill="#000000">Charge Amplifier</text>
</g>
<!-- PiezoSensor&#45;&gt;ChargeAmplifier -->
<g id="edge1" class="edge">
<title>PiezoSensor&#45;&gt;ChargeAmplifier</title>
<path fill="none" stroke="#000000" d="M174.2431,-20.8C182.9029,-20.8 191.6017,-20.8 200.0206,-20.8"/>
<polygon fill="#000000" stroke="#000000" points="200.1295,-24.3001 210.1295,-20.8 200.1294,-17.3001 200.1295,-24.3001"/>
</g>
<!-- LowPassFilter -->
<g id="node3" class="node">
<title>LowPassFilter</title>
<polygon fill="none" stroke="#000000" points="466.3653,-41.4019 361.2937,-41.4019 361.2937,-.1981 466.3653,-.1981 466.3653,-41.4019"/>
<text text-anchor="middle" x="413.8295" y="-25" font-family="Times,serif" font-size="14.00" fill="#000000">Low&#45;Pass Filter</text>
<text text-anchor="middle" x="413.8295" y="-8.2" font-family="Times,serif" font-size="14.00" fill="#000000">(0.25 Hz &#45;3dB)</text>
</g>
<!-- ChargeAmplifier&#45;&gt;LowPassFilter -->
<g id="edge2" class="edge">
<title>ChargeAmplifier&#45;&gt;LowPassFilter</title>
<path fill="none" stroke="#000000" d="M325.4821,-20.8C333.8734,-20.8 342.547,-20.8 351.0324,-20.8"/>
<polygon fill="#000000" stroke="#000000" points="351.2577,-24.3001 361.2577,-20.8 351.2577,-17.3001 351.2577,-24.3001"/>
</g>
<!-- AntiAliasingFilter -->
<g id="node4" class="node">
<title>AntiAliasingFilter</title>
<polygon fill="none" stroke="#000000" points="629.0709,-41.4019 502.4395,-41.4019 502.4395,-.1981 629.0709,-.1981 629.0709,-41.4019"/>
<text text-anchor="middle" x="565.7552" y="-25" font-family="Times,serif" font-size="14.00" fill="#000000">Anti&#45;Aliasing Filter</text>
<text text-anchor="middle" x="565.7552" y="-8.2" font-family="Times,serif" font-size="14.00" fill="#000000">(&lt; 4Hz)</text>
</g>
<!-- LowPassFilter&#45;&gt;AntiAliasingFilter -->
<g id="edge3" class="edge">
<title>LowPassFilter&#45;&gt;AntiAliasingFilter</title>
<path fill="none" stroke="#000000" d="M466.5394,-20.8C474.8552,-20.8 483.5825,-20.8 492.2666,-20.8"/>
<polygon fill="#000000" stroke="#000000" points="492.414,-24.3001 502.414,-20.8 492.414,-17.3001 492.414,-24.3001"/>
</g>
<!-- ADC -->
<g id="node5" class="node">
<title>ADC</title>
<polygon fill="none" stroke="#000000" points="838.859,-38.8 664.9306,-38.8 664.9306,-2.8 838.859,-2.8 838.859,-38.8"/>
<text text-anchor="middle" x="751.8948" y="-16.6" font-family="Times,serif" font-size="14.00" fill="#000000">Analog to Digital Converter</text>
</g>
<!-- AntiAliasingFilter&#45;&gt;ADC -->
<g id="edge4" class="edge">
<title>AntiAliasingFilter&#45;&gt;ADC</title>
<path fill="none" stroke="#000000" d="M629.2933,-20.8C637.5443,-20.8 646.1409,-20.8 654.784,-20.8"/>
<polygon fill="#000000" stroke="#000000" points="654.9337,-24.3001 664.9337,-20.8 654.9337,-17.3001 654.9337,-24.3001"/>
</g>
<!-- Microcontroller -->
<g id="node6" class="node">
<title>Microcontroller</title>
<polygon fill="none" stroke="#000000" points="990.4763,-41.4019 874.6767,-41.4019 874.6767,-.1981 990.4763,-.1981 990.4763,-41.4019"/>
<text text-anchor="middle" x="932.5765" y="-25" font-family="Times,serif" font-size="14.00" fill="#000000">Microcontroller</text>
<text text-anchor="middle" x="932.5765" y="-8.2" font-family="Times,serif" font-size="14.00" fill="#000000">(Data Processing)</text>
</g>
<!-- ADC&#45;&gt;Microcontroller -->
<g id="edge5" class="edge">
<title>ADC&#45;&gt;Microcontroller</title>
<path fill="none" stroke="#000000" d="M838.7957,-20.8C847.4082,-20.8 856.0624,-20.8 864.4447,-20.8"/>
<polygon fill="#000000" stroke="#000000" points="864.5134,-24.3001 874.5133,-20.8 864.5133,-17.3001 864.5134,-24.3001"/>
</g>
<!-- OutputInterface -->
<g id="node7" class="node">
<title>OutputInterface</title>
<polygon fill="none" stroke="#000000" points="1156.3971,-41.4019 1026.5695,-41.4019 1026.5695,-.1981 1156.3971,-.1981 1156.3971,-41.4019"/>
<text text-anchor="middle" x="1091.4833" y="-25" font-family="Times,serif" font-size="14.00" fill="#000000">Output Interface</text>
<text text-anchor="middle" x="1091.4833" y="-8.2" font-family="Times,serif" font-size="14.00" fill="#000000">(Display, USB, etc.)</text>
</g>
<!-- Microcontroller&#45;&gt;OutputInterface -->
<g id="edge6" class="edge">
<title>Microcontroller&#45;&gt;OutputInterface</title>
<path fill="none" stroke="#000000" d="M990.8452,-20.8C999.1854,-20.8 1007.8615,-20.8 1016.468,-20.8"/>
<polygon fill="#000000" stroke="#000000" points="1016.515,-24.3001 1026.5149,-20.8 1016.5149,-17.3001 1016.515,-24.3001"/>
</g>
</g>
</svg>
