<?xml version="1.0" encoding="UTF-8" standalone="no"?>
<!DOCTYPE svg PUBLIC "-//W3C//DTD SVG 1.1//EN"
 "http://www.w3.org/Graphics/SVG/1.1/DTD/svg11.dtd">
<!-- Generated by graphviz version 2.40.1 (20161225.0304)
 -->
<!-- Title: G Pages: 1 -->
<svg width="828pt" height="50pt"
 viewBox="0.00 0.00 828.27 49.60" xmlns="http://www.w3.org/2000/svg" xmlns:xlink="http://www.w3.org/1999/xlink">
<g id="graph0" class="graph" transform="scale(1 1) rotate(0) translate(4 45.6)">
<title>G</title>
<polygon fill="#ffffff" stroke="transparent" points="-4,4 -4,-45.6 824.2668,-45.6 824.2668,4 -4,4"/>
<!-- Thermistor -->
<g id="node1" class="node">
<title>Thermistor</title>
<polygon fill="none" stroke="#000000" points="109.5513,-38.8 .1493,-38.8 .1493,-2.8 109.5513,-2.8 109.5513,-38.8"/>
<text text-anchor="middle" x="54.8503" y="-16.6" font-family="Times,serif" font-size="14.00" fill="#000000">NTC Thermistor</text>
</g>
<!-- Buffer -->
<g id="node2" class="node">
<title>Buffer</title>
<polygon fill="none" stroke="#000000" points="257.0576,-38.8 145.5814,-38.8 145.5814,-2.8 257.0576,-2.8 257.0576,-38.8"/>
<text text-anchor="middle" x="201.3195" y="-16.6" font-family="Times,serif" font-size="14.00" fill="#000000">Buffer Amplifier</text>
</g>
<!-- Thermistor&#45;&gt;Buffer -->
<g id="edge1" class="edge">
<title>Thermistor&#45;&gt;Buffer</title>
<path fill="none" stroke="#000000" d="M109.8067,-20.8C118.2083,-20.8 126.9527,-20.8 135.558,-20.8"/>
<polygon fill="#000000" stroke="#000000" points="135.5672,-24.3001 145.5671,-20.8 135.5671,-17.3001 135.5672,-24.3001"/>
</g>
<!-- Linearization -->
<g id="node3" class="node">
<title>Linearization</title>
<polygon fill="none" stroke="#000000" points="425.9648,-38.8 292.9296,-38.8 292.9296,-2.8 425.9648,-2.8 425.9648,-38.8"/>
<text text-anchor="middle" x="359.4472" y="-16.6" font-family="Times,serif" font-size="14.00" fill="#000000">Linearization Circuit</text>
</g>
<!-- Buffer&#45;&gt;Linearization -->
<g id="edge2" class="edge">
<title>Buffer&#45;&gt;Linearization</title>
<path fill="none" stroke="#000000" d="M257.0694,-20.8C265.3777,-20.8 274.0631,-20.8 282.7114,-20.8"/>
<polygon fill="#000000" stroke="#000000" points="282.8219,-24.3001 292.8219,-20.8 282.8218,-17.3001 282.8219,-24.3001"/>
</g>
<!-- Amplifier -->
<g id="node4" class="node">
<title>Amplifier</title>
<polygon fill="none" stroke="#000000" points="539.6775,-38.8 462.0487,-38.8 462.0487,-2.8 539.6775,-2.8 539.6775,-38.8"/>
<text text-anchor="middle" x="500.8631" y="-16.6" font-family="Times,serif" font-size="14.00" fill="#000000">Gain Stage</text>
</g>
<!-- Linearization&#45;&gt;Amplifier -->
<g id="edge3" class="edge">
<title>Linearization&#45;&gt;Amplifier</title>
<path fill="none" stroke="#000000" d="M426.0142,-20.8C434.678,-20.8 443.425,-20.8 451.7325,-20.8"/>
<polygon fill="#000000" stroke="#000000" points="451.9809,-24.3001 461.9809,-20.8 451.9808,-17.3001 451.9809,-24.3001"/>
</g>
<!-- LowPassFilter -->
<g id="node6" class="node">
<title>LowPassFilter</title>
<polygon fill="none" stroke="#000000" points="680.1503,-38.8 575.6433,-38.8 575.6433,-2.8 680.1503,-2.8 680.1503,-38.8"/>
<text text-anchor="middle" x="627.8968" y="-16.6" font-family="Times,serif" font-size="14.00" fill="#000000">Low&#45;pass Filter</text>
</g>
<!-- Amplifier&#45;&gt;LowPassFilter -->
<g id="edge4" class="edge">
<title>Amplifier&#45;&gt;LowPassFilter</title>
<path fill="none" stroke="#000000" d="M540.014,-20.8C548.0832,-20.8 556.7709,-20.8 565.4325,-20.8"/>
<polygon fill="#000000" stroke="#000000" points="565.5499,-24.3001 575.5498,-20.8 565.5498,-17.3001 565.5499,-24.3001"/>
</g>
<!-- OutputStage -->
<g id="node5" class="node">
<title>OutputStage</title>
<polygon fill="none" stroke="#000000" points="820.3888,-41.4019 715.9014,-41.4019 715.9014,-.1981 820.3888,-.1981 820.3888,-41.4019"/>
<text text-anchor="middle" x="768.1451" y="-25" font-family="Times,serif" font-size="14.00" fill="#000000">Output Stage</text>
<text text-anchor="middle" x="768.1451" y="-8.2" font-family="Times,serif" font-size="14.00" fill="#000000">(0&#45;20V scaling)</text>
</g>
<!-- LowPassFilter&#45;&gt;OutputStage -->
<g id="edge5" class="edge">
<title>LowPassFilter&#45;&gt;OutputStage</title>
<path fill="none" stroke="#000000" d="M680.1201,-20.8C688.4253,-20.8 697.0895,-20.8 705.6028,-20.8"/>
<polygon fill="#000000" stroke="#000000" points="705.8782,-24.3001 715.8782,-20.8 705.8782,-17.3001 705.8782,-24.3001"/>
</g>
</g>
</svg>
