<?xml version="1.0" encoding="UTF-8" standalone="no"?>
<!DOCTYPE svg PUBLIC "-//W3C//DTD SVG 1.1//EN"
 "http://www.w3.org/Graphics/SVG/1.1/DTD/svg11.dtd">
<!-- Generated by graphviz version 2.40.1 (20161225.0304)
 -->
<!-- Title: G Pages: 1 -->
<svg width="799pt" height="50pt"
 viewBox="0.00 0.00 798.91 49.60" xmlns="http://www.w3.org/2000/svg" xmlns:xlink="http://www.w3.org/1999/xlink">
<g id="graph0" class="graph" transform="scale(1 1) rotate(0) translate(4 45.6)">
<title>G</title>
<polygon fill="#ffffff" stroke="transparent" points="-4,4 -4,-45.6 794.9084,-45.6 794.9084,4 -4,4"/>
<!-- Sensor -->
<g id="node1" class="node">
<title>Sensor</title>
<polygon fill="none" stroke="#000000" points="98.5816,-41.4019 -.1944,-41.4019 -.1944,-.1981 98.5816,-.1981 98.5816,-41.4019"/>
<text text-anchor="middle" x="49.1936" y="-25" font-family="Times,serif" font-size="14.00" fill="#000000">Piezoelectric</text>
<text text-anchor="middle" x="49.1936" y="-8.2" font-family="Times,serif" font-size="14.00" fill="#000000">Accelerometer</text>
</g>
<!-- ChargeAmp -->
<g id="node2" class="node">
<title>ChargeAmp</title>
<polygon fill="none" stroke="#000000" points="205.6947,-41.4019 134.2845,-41.4019 134.2845,-.1981 205.6947,-.1981 205.6947,-41.4019"/>
<text text-anchor="middle" x="169.9896" y="-25" font-family="Times,serif" font-size="14.00" fill="#000000">Charge</text>
<text text-anchor="middle" x="169.9896" y="-8.2" font-family="Times,serif" font-size="14.00" fill="#000000">Amplifier</text>
</g>
<!-- Sensor&#45;&gt;ChargeAmp -->
<g id="edge1" class="edge">
<title>Sensor&#45;&gt;ChargeAmp</title>
<path fill="none" stroke="#000000" d="M98.6745,-20.8C107.0123,-20.8 115.6373,-20.8 123.885,-20.8"/>
<polygon fill="#000000" stroke="#000000" points="124.0803,-24.3001 134.0803,-20.8 124.0802,-17.3001 124.0803,-24.3001"/>
</g>
<!-- LPFilter -->
<g id="node3" class="node">
<title>LPFilter</title>
<polygon fill="none" stroke="#000000" points="312.9016,-41.4019 241.4886,-41.4019 241.4886,-.1981 312.9016,-.1981 312.9016,-41.4019"/>
<text text-anchor="middle" x="277.1951" y="-25" font-family="Times,serif" font-size="14.00" fill="#000000">Low&#45;Pass</text>
<text text-anchor="middle" x="277.1951" y="-8.2" font-family="Times,serif" font-size="14.00" fill="#000000">Filter</text>
</g>
<!-- ChargeAmp&#45;&gt;LPFilter -->
<g id="edge2" class="edge">
<title>ChargeAmp&#45;&gt;LPFilter</title>
<path fill="none" stroke="#000000" d="M205.6875,-20.8C213.8285,-20.8 222.5921,-20.8 231.0985,-20.8"/>
<polygon fill="#000000" stroke="#000000" points="231.2876,-24.3001 241.2876,-20.8 231.2875,-17.3001 231.2876,-24.3001"/>
</g>
<!-- Buffer -->
<g id="node4" class="node">
<title>Buffer</title>
<polygon fill="none" stroke="#000000" points="402.7982,-38.8 348.7982,-38.8 348.7982,-2.8 402.7982,-2.8 402.7982,-38.8"/>
<text text-anchor="middle" x="375.7982" y="-16.6" font-family="Times,serif" font-size="14.00" fill="#000000">Buffer</text>
</g>
<!-- LPFilter&#45;&gt;Buffer -->
<g id="edge3" class="edge">
<title>LPFilter&#45;&gt;Buffer</title>
<path fill="none" stroke="#000000" d="M313.072,-20.8C321.3575,-20.8 330.1906,-20.8 338.5338,-20.8"/>
<polygon fill="#000000" stroke="#000000" points="338.7618,-24.3001 348.7618,-20.8 338.7617,-17.3001 338.7618,-24.3001"/>
</g>
<!-- ADC -->
<g id="node5" class="node">
<title>ADC</title>
<polygon fill="none" stroke="#000000" points="555.2594,-41.4019 438.6442,-41.4019 438.6442,-.1981 555.2594,-.1981 555.2594,-41.4019"/>
<text text-anchor="middle" x="496.9518" y="-25" font-family="Times,serif" font-size="14.00" fill="#000000">Analog&#45;to&#45;Digital</text>
<text text-anchor="middle" x="496.9518" y="-8.2" font-family="Times,serif" font-size="14.00" fill="#000000">Converter</text>
</g>
<!-- Buffer&#45;&gt;ADC -->
<g id="edge4" class="edge">
<title>Buffer&#45;&gt;ADC</title>
<path fill="none" stroke="#000000" d="M402.9874,-20.8C410.6922,-20.8 419.4449,-20.8 428.435,-20.8"/>
<polygon fill="#000000" stroke="#000000" points="428.6429,-24.3001 438.6428,-20.8 428.6428,-17.3001 428.6429,-24.3001"/>
</g>
<!-- Processor -->
<g id="node6" class="node">
<title>Processor</title>
<polygon fill="none" stroke="#000000" points="699.9782,-41.4019 591.1478,-41.4019 591.1478,-.1981 699.9782,-.1981 699.9782,-41.4019"/>
<text text-anchor="middle" x="645.563" y="-25" font-family="Times,serif" font-size="14.00" fill="#000000">Digital Signal</text>
<text text-anchor="middle" x="645.563" y="-8.2" font-family="Times,serif" font-size="14.00" fill="#000000">Processor (DSP)</text>
</g>
<!-- ADC&#45;&gt;Processor -->
<g id="edge5" class="edge">
<title>ADC&#45;&gt;Processor</title>
<path fill="none" stroke="#000000" d="M555.2603,-20.8C563.5852,-20.8 572.1912,-20.8 580.6332,-20.8"/>
<polygon fill="#000000" stroke="#000000" points="580.8193,-24.3001 590.8193,-20.8 580.8192,-17.3001 580.8193,-24.3001"/>
</g>
<!-- Output -->
<g id="node7" class="node">
<title>Output</title>
<polygon fill="none" stroke="#000000" points="790.8524,-41.4019 736.0766,-41.4019 736.0766,-.1981 790.8524,-.1981 790.8524,-41.4019"/>
<text text-anchor="middle" x="763.4645" y="-25" font-family="Times,serif" font-size="14.00" fill="#000000">Digital</text>
<text text-anchor="middle" x="763.4645" y="-8.2" font-family="Times,serif" font-size="14.00" fill="#000000">Output</text>
</g>
<!-- Processor&#45;&gt;Output -->
<g id="edge6" class="edge">
<title>Processor&#45;&gt;Output</title>
<path fill="none" stroke="#000000" d="M700.0272,-20.8C708.7666,-20.8 717.6382,-20.8 725.8679,-20.8"/>
<polygon fill="#000000" stroke="#000000" points="725.8905,-24.3001 735.8905,-20.8 725.8904,-17.3001 725.8905,-24.3001"/>
</g>
</g>
</svg>
