<?xml version="1.0" encoding="UTF-8" standalone="no"?>
<!DOCTYPE svg PUBLIC "-//W3C//DTD SVG 1.1//EN"
 "http://www.w3.org/Graphics/SVG/1.1/DTD/svg11.dtd">
<!-- Generated by graphviz version 2.40.1 (20161225.0304)
 -->
<!-- Title: G Pages: 1 -->
<svg width="931pt" height="206pt"
 viewBox="0.00 0.00 930.99 206.00" xmlns="http://www.w3.org/2000/svg" xmlns:xlink="http://www.w3.org/1999/xlink">
<g id="graph0" class="graph" transform="scale(1 1) rotate(0) translate(4 202)">
<title>G</title>
<polygon fill="#ffffff" stroke="transparent" points="-4,4 -4,-202 926.9864,-202 926.9864,4 -4,4"/>
<!-- Pressure_Sensor_Array -->
<g id="node1" class="node">
<title>Pressure_Sensor_Array</title>
<polygon fill="none" stroke="#000000" points="148.2506,-198 -.0836,-198 -.0836,-162 148.2506,-162 148.2506,-198"/>
<text text-anchor="middle" x="74.0835" y="-175.8" font-family="Times,serif" font-size="14.00" fill="#000000">Pressure_Sensor_Array</text>
</g>
<!-- Instrumentation_Amplifier_Array_Pressure -->
<g id="node2" class="node">
<title>Instrumentation_Amplifier_Array_Pressure</title>
<polygon fill="none" stroke="#000000" points="445.0431,-198 184.2083,-198 184.2083,-162 445.0431,-162 445.0431,-198"/>
<text text-anchor="middle" x="314.6257" y="-175.8" font-family="Times,serif" font-size="14.00" fill="#000000">Instrumentation_Amplifier_Array_Pressure</text>
</g>
<!-- Pressure_Sensor_Array&#45;&gt;Instrumentation_Amplifier_Array_Pressure -->
<g id="edge1" class="edge">
<title>Pressure_Sensor_Array&#45;&gt;Instrumentation_Amplifier_Array_Pressure</title>
<path fill="none" stroke="#000000" d="M148.2168,-180C156.5414,-180 165.2135,-180 174.0358,-180"/>
<polygon fill="#000000" stroke="#000000" points="174.0498,-183.5001 184.0498,-180 174.0497,-176.5001 174.0498,-183.5001"/>
</g>
<!-- Multiplexer_Pressure -->
<g id="node5" class="node">
<title>Multiplexer_Pressure</title>
<polygon fill="none" stroke="#000000" points="631.7529,-198 495.7133,-198 495.7133,-162 631.7529,-162 631.7529,-198"/>
<text text-anchor="middle" x="563.7331" y="-175.8" font-family="Times,serif" font-size="14.00" fill="#000000">Multiplexer_Pressure</text>
</g>
<!-- Instrumentation_Amplifier_Array_Pressure&#45;&gt;Multiplexer_Pressure -->
<g id="edge3" class="edge">
<title>Instrumentation_Amplifier_Array_Pressure&#45;&gt;Multiplexer_Pressure</title>
<path fill="none" stroke="#000000" d="M445.3805,-180C459.0983,-180 472.7156,-180 485.5646,-180"/>
<polygon fill="#000000" stroke="#000000" points="485.6917,-183.5001 495.6917,-180 485.6917,-176.5001 485.6917,-183.5001"/>
</g>
<!-- Temp_Sensor_Array -->
<g id="node3" class="node">
<title>Temp_Sensor_Array</title>
<polygon fill="none" stroke="#000000" points="140.9867,-90 7.1803,-90 7.1803,-54 140.9867,-54 140.9867,-90"/>
<text text-anchor="middle" x="74.0835" y="-67.8" font-family="Times,serif" font-size="14.00" fill="#000000">Temp_Sensor_Array</text>
</g>
<!-- Instrumentation_Amplifier_Array_Temp -->
<g id="node4" class="node">
<title>Instrumentation_Amplifier_Array_Temp</title>
<polygon fill="none" stroke="#000000" points="437.7787,-90 191.4727,-90 191.4727,-54 437.7787,-54 437.7787,-90"/>
<text text-anchor="middle" x="314.6257" y="-67.8" font-family="Times,serif" font-size="14.00" fill="#000000">Instrumentation_Amplifier_Array_Temp</text>
</g>
<!-- Temp_Sensor_Array&#45;&gt;Instrumentation_Amplifier_Array_Temp -->
<g id="edge2" class="edge">
<title>Temp_Sensor_Array&#45;&gt;Instrumentation_Amplifier_Array_Temp</title>
<path fill="none" stroke="#000000" d="M141.0879,-72C153.7283,-72 167.3524,-72 181.2121,-72"/>
<polygon fill="#000000" stroke="#000000" points="181.3351,-75.5001 191.3351,-72 181.335,-68.5001 181.3351,-75.5001"/>
</g>
<!-- Multiplexer_Temp -->
<g id="node6" class="node">
<title>Multiplexer_Temp</title>
<polygon fill="none" stroke="#000000" points="624.4879,-90 502.9783,-90 502.9783,-54 624.4879,-54 624.4879,-90"/>
<text text-anchor="middle" x="563.7331" y="-67.8" font-family="Times,serif" font-size="14.00" fill="#000000">Multiplexer_Temp</text>
</g>
<!-- Instrumentation_Amplifier_Array_Temp&#45;&gt;Multiplexer_Temp -->
<g id="edge4" class="edge">
<title>Instrumentation_Amplifier_Array_Temp&#45;&gt;Multiplexer_Temp</title>
<path fill="none" stroke="#000000" d="M437.7198,-72C456.499,-72 475.3225,-72 492.4823,-72"/>
<polygon fill="#000000" stroke="#000000" points="492.9365,-75.5001 502.9365,-72 492.9365,-68.5001 492.9365,-75.5001"/>
</g>
<!-- ADC_Pressure -->
<g id="node7" class="node">
<title>ADC_Pressure</title>
<polygon fill="none" stroke="#000000" points="782.3398,-144 682.3958,-144 682.3958,-108 782.3398,-108 782.3398,-144"/>
<text text-anchor="middle" x="732.3678" y="-121.8" font-family="Times,serif" font-size="14.00" fill="#000000">ADC_Pressure</text>
</g>
<!-- Multiplexer_Pressure&#45;&gt;ADC_Pressure -->
<g id="edge5" class="edge">
<title>Multiplexer_Pressure&#45;&gt;ADC_Pressure</title>
<path fill="none" stroke="#000000" d="M620.3551,-161.8686C637.0722,-156.5155 655.4231,-150.6391 672.3464,-145.22"/>
<polygon fill="#000000" stroke="#000000" points="673.6661,-148.4725 682.1224,-142.0895 671.5313,-141.806 673.6661,-148.4725"/>
</g>
<!-- ADC_Temp -->
<g id="node8" class="node">
<title>ADC_Temp</title>
<polygon fill="none" stroke="#000000" points="775.0757,-90 689.6599,-90 689.6599,-54 775.0757,-54 775.0757,-90"/>
<text text-anchor="middle" x="732.3678" y="-67.8" font-family="Times,serif" font-size="14.00" fill="#000000">ADC_Temp</text>
</g>
<!-- Multiplexer_Temp&#45;&gt;ADC_Temp -->
<g id="edge6" class="edge">
<title>Multiplexer_Temp&#45;&gt;ADC_Temp</title>
<path fill="none" stroke="#000000" d="M624.6141,-72C642.4271,-72 661.7561,-72 679.0605,-72"/>
<polygon fill="#000000" stroke="#000000" points="679.5416,-75.5001 689.5416,-72 679.5416,-68.5001 679.5416,-75.5001"/>
</g>
<!-- Microcontroller -->
<g id="node11" class="node">
<title>Microcontroller</title>
<polygon fill="none" stroke="#000000" points="922.8033,-117 818.5369,-117 818.5369,-81 922.8033,-81 922.8033,-117"/>
<text text-anchor="middle" x="870.6701" y="-94.8" font-family="Times,serif" font-size="14.00" fill="#000000">Microcontroller</text>
</g>
<!-- ADC_Pressure&#45;&gt;Microcontroller -->
<g id="edge9" class="edge">
<title>ADC_Pressure&#45;&gt;Microcontroller</title>
<path fill="none" stroke="#000000" d="M782.6893,-116.176C791.0162,-114.5504 799.7373,-112.8478 808.3175,-111.1728"/>
<polygon fill="#000000" stroke="#000000" points="809.149,-114.5766 818.293,-109.2253 807.8077,-107.7063 809.149,-114.5766"/>
</g>
<!-- ADC_Temp&#45;&gt;Microcontroller -->
<g id="edge10" class="edge">
<title>ADC_Temp&#45;&gt;Microcontroller</title>
<path fill="none" stroke="#000000" d="M774.9916,-80.3212C785.55,-82.3825 797.081,-84.6336 808.3663,-86.8368"/>
<polygon fill="#000000" stroke="#000000" points="807.7044,-90.2736 818.1898,-88.7546 809.0457,-83.4033 807.7044,-90.2736"/>
</g>
<!-- Low_Pass_Filter_Pressure -->
<g id="node9" class="node">
<title>Low_Pass_Filter_Pressure</title>
<polygon fill="none" stroke="#000000" points="646.5308,-144 480.9354,-144 480.9354,-108 646.5308,-108 646.5308,-144"/>
<text text-anchor="middle" x="563.7331" y="-121.8" font-family="Times,serif" font-size="14.00" fill="#000000">Low_Pass_Filter_Pressure</text>
</g>
<!-- Low_Pass_Filter_Pressure&#45;&gt;ADC_Pressure -->
<g id="edge7" class="edge">
<title>Low_Pass_Filter_Pressure&#45;&gt;ADC_Pressure</title>
<path fill="none" stroke="#000000" d="M646.5684,-126C655.1191,-126 663.6901,-126 671.9296,-126"/>
<polygon fill="#000000" stroke="#000000" points="672.1625,-129.5001 682.1625,-126 672.1624,-122.5001 672.1625,-129.5001"/>
</g>
<!-- Low_Pass_Filter_Temp -->
<g id="node10" class="node">
<title>Low_Pass_Filter_Temp</title>
<polygon fill="none" stroke="#000000" points="638.7668,-36 488.6994,-36 488.6994,0 638.7668,0 638.7668,-36"/>
<text text-anchor="middle" x="563.7331" y="-13.8" font-family="Times,serif" font-size="14.00" fill="#000000">Low_Pass_Filter_Temp</text>
</g>
<!-- Low_Pass_Filter_Temp&#45;&gt;ADC_Temp -->
<g id="edge8" class="edge">
<title>Low_Pass_Filter_Temp&#45;&gt;ADC_Temp</title>
<path fill="none" stroke="#000000" d="M620.3551,-36.1314C639.6661,-42.3152 661.1574,-49.1971 680.1096,-55.2659"/>
<polygon fill="#000000" stroke="#000000" points="679.1729,-58.641 689.7639,-58.3574 681.3077,-51.9745 679.1729,-58.641"/>
</g>
</g>
</svg>
