<?xml version="1.0" encoding="UTF-8" standalone="no"?>
<!DOCTYPE svg PUBLIC "-//W3C//DTD SVG 1.1//EN"
 "http://www.w3.org/Graphics/SVG/1.1/DTD/svg11.dtd">
<!-- Generated by graphviz version 2.40.1 (20161225.0304)
 -->
<!-- Title: G Pages: 1 -->
<svg width="1347pt" height="44pt"
 viewBox="0.00 0.00 1346.84 44.00" xmlns="http://www.w3.org/2000/svg" xmlns:xlink="http://www.w3.org/1999/xlink">
<g id="graph0" class="graph" transform="scale(1 1) rotate(0) translate(4 40)">
<title>G</title>
<polygon fill="#ffffff" stroke="transparent" points="-4,4 -4,-40 1342.8406,-40 1342.8406,4 -4,4"/>
<!-- Sensor -->
<g id="node1" class="node">
<title>Sensor</title>
<polygon fill="none" stroke="#000000" points="204.2632,-36 -.0878,-36 -.0878,0 204.2632,0 204.2632,-36"/>
<text text-anchor="middle" x="102.0877" y="-13.8" font-family="Times,serif" font-size="14.00" fill="#000000">NTC Thermistor (NTCLE100E3)</text>
</g>
<!-- Linearization -->
<g id="node2" class="node">
<title>Linearization</title>
<polygon fill="none" stroke="#000000" points="426.5881,-36 240.0377,-36 240.0377,0 426.5881,0 426.5881,-36"/>
<text text-anchor="middle" x="333.3129" y="-13.8" font-family="Times,serif" font-size="14.00" fill="#000000">Parallel Linearization Resistor</text>
</g>
<!-- Sensor&#45;&gt;Linearization -->
<g id="edge1" class="edge">
<title>Sensor&#45;&gt;Linearization</title>
<path fill="none" stroke="#000000" d="M204.1795,-18C212.6085,-18 221.1346,-18 229.5754,-18"/>
<polygon fill="#000000" stroke="#000000" points="229.8168,-21.5001 239.8168,-18 229.8167,-14.5001 229.8168,-21.5001"/>
</g>
<!-- Excitation -->
<g id="node3" class="node">
<title>Excitation</title>
<polygon fill="none" stroke="#000000" points="617.0696,-36 462.2436,-36 462.2436,0 617.0696,0 617.0696,-36"/>
<text text-anchor="middle" x="539.6566" y="-13.8" font-family="Times,serif" font-size="14.00" fill="#000000">Constant Current Source</text>
</g>
<!-- Linearization&#45;&gt;Excitation -->
<g id="edge2" class="edge">
<title>Linearization&#45;&gt;Excitation</title>
<path fill="none" stroke="#000000" d="M426.5239,-18C435.0281,-18 443.6233,-18 452.0756,-18"/>
<polygon fill="#000000" stroke="#000000" points="452.299,-21.5001 462.299,-18 452.299,-14.5001 452.299,-21.5001"/>
</g>
<!-- Amplifier -->
<g id="node4" class="node">
<title>Amplifier</title>
<polygon fill="none" stroke="#000000" points="816.3924,-36 652.686,-36 652.686,0 816.3924,0 816.3924,-36"/>
<text text-anchor="middle" x="734.5392" y="-13.8" font-family="Times,serif" font-size="14.00" fill="#000000">Instrumentation Amplifier</text>
</g>
<!-- Excitation&#45;&gt;Amplifier -->
<g id="edge3" class="edge">
<title>Excitation&#45;&gt;Amplifier</title>
<path fill="none" stroke="#000000" d="M616.9593,-18C625.4376,-18 634.1286,-18 642.7602,-18"/>
<polygon fill="#000000" stroke="#000000" points="642.8493,-21.5001 652.8493,-18 642.8492,-14.5001 642.8493,-21.5001"/>
</g>
<!-- Filter -->
<g id="node5" class="node">
<title>Filter</title>
<polygon fill="none" stroke="#000000" points="957.2693,-36 852.1977,-36 852.1977,0 957.2693,0 957.2693,-36"/>
<text text-anchor="middle" x="904.7335" y="-13.8" font-family="Times,serif" font-size="14.00" fill="#000000">Low&#45;Pass Filter</text>
</g>
<!-- Amplifier&#45;&gt;Filter -->
<g id="edge4" class="edge">
<title>Amplifier&#45;&gt;Filter</title>
<path fill="none" stroke="#000000" d="M816.6452,-18C825.1323,-18 833.6591,-18 841.8874,-18"/>
<polygon fill="#000000" stroke="#000000" points="842.1248,-21.5001 852.1248,-18 842.1247,-14.5001 842.1248,-21.5001"/>
</g>
<!-- OutputStage -->
<g id="node6" class="node">
<title>OutputStage</title>
<polygon fill="none" stroke="#000000" points="1130.7125,-36 993.0975,-36 993.0975,0 1130.7125,0 1130.7125,-36"/>
<text text-anchor="middle" x="1061.905" y="-13.8" font-family="Times,serif" font-size="14.00" fill="#000000">Voltage Output Stage</text>
</g>
<!-- Filter&#45;&gt;OutputStage -->
<g id="edge5" class="edge">
<title>Filter&#45;&gt;OutputStage</title>
<path fill="none" stroke="#000000" d="M957.5066,-18C965.7111,-18 974.3379,-18 982.9703,-18"/>
<polygon fill="#000000" stroke="#000000" points="983.0817,-21.5001 993.0816,-18 983.0816,-14.5001 983.0817,-21.5001"/>
</g>
<!-- Multimeter -->
<g id="node7" class="node">
<title>Multimeter</title>
<polygon fill="none" stroke="#000000" points="1338.9818,-36 1166.4174,-36 1166.4174,0 1338.9818,0 1338.9818,-36"/>
<text text-anchor="middle" x="1252.6996" y="-13.8" font-family="Times,serif" font-size="14.00" fill="#000000">Multimeter ADC (External)</text>
</g>
<!-- OutputStage&#45;&gt;Multimeter -->
<g id="edge6" class="edge">
<title>OutputStage&#45;&gt;Multimeter</title>
<path fill="none" stroke="#000000" d="M1130.7862,-18C1139.0719,-18 1147.6475,-18 1156.2346,-18"/>
<polygon fill="#000000" stroke="#000000" points="1156.3038,-21.5001 1166.3037,-18 1156.3037,-14.5001 1156.3038,-21.5001"/>
</g>
</g>
</svg>
