<?xml version="1.0" encoding="UTF-8" standalone="no"?>
<!DOCTYPE svg PUBLIC "-//W3C//DTD SVG 1.1//EN"
 "http://www.w3.org/Graphics/SVG/1.1/DTD/svg11.dtd">
<!-- Generated by graphviz version 2.40.1 (20161225.0304)
 -->
<!-- Title: G Pages: 1 -->
<svg width="120pt" height="332pt"
 viewBox="0.00 0.00 119.63 332.00" xmlns="http://www.w3.org/2000/svg" xmlns:xlink="http://www.w3.org/1999/xlink">
<g id="graph0" class="graph" transform="scale(1 1) rotate(0) translate(4 328)">
<title>G</title>
<polygon fill="#ffffff" stroke="transparent" points="-4,4 -4,-328 115.6312,-328 115.6312,4 -4,4"/>
<!-- Sensor -->
<g id="node1" class="node">
<title>Sensor</title>
<polygon fill="none" stroke="#000000" points="82.9181,-324 28.7131,-324 28.7131,-288 82.9181,-288 82.9181,-324"/>
<text text-anchor="middle" x="55.8156" y="-301.8" font-family="Times,serif" font-size="14.00" fill="#000000">Sensor</text>
</g>
<!-- ChargeAmplifier -->
<g id="node2" class="node">
<title>ChargeAmplifier</title>
<polygon fill="none" stroke="#000000" points="111.4474,-252 .1838,-252 .1838,-216 111.4474,-216 111.4474,-252"/>
<text text-anchor="middle" x="55.8156" y="-229.8" font-family="Times,serif" font-size="14.00" fill="#000000">ChargeAmplifier</text>
</g>
<!-- Sensor&#45;&gt;ChargeAmplifier -->
<g id="edge1" class="edge">
<title>Sensor&#45;&gt;ChargeAmplifier</title>
<path fill="none" stroke="#000000" d="M55.8156,-287.8314C55.8156,-280.131 55.8156,-270.9743 55.8156,-262.4166"/>
<polygon fill="#000000" stroke="#000000" points="59.3157,-262.4132 55.8156,-252.4133 52.3157,-262.4133 59.3157,-262.4132"/>
</g>
<!-- LowPassFilter -->
<g id="node3" class="node">
<title>LowPassFilter</title>
<polygon fill="none" stroke="#000000" points="104.1909,-180 7.4403,-180 7.4403,-144 104.1909,-144 104.1909,-180"/>
<text text-anchor="middle" x="55.8156" y="-157.8" font-family="Times,serif" font-size="14.00" fill="#000000">LowPassFilter</text>
</g>
<!-- ChargeAmplifier&#45;&gt;LowPassFilter -->
<g id="edge2" class="edge">
<title>ChargeAmplifier&#45;&gt;LowPassFilter</title>
<path fill="none" stroke="#000000" d="M55.8156,-215.8314C55.8156,-208.131 55.8156,-198.9743 55.8156,-190.4166"/>
<polygon fill="#000000" stroke="#000000" points="59.3157,-190.4132 55.8156,-180.4133 52.3157,-190.4133 59.3157,-190.4132"/>
</g>
<!-- Buffer -->
<g id="node4" class="node">
<title>Buffer</title>
<polygon fill="none" stroke="#000000" points="82.8156,-108 28.8156,-108 28.8156,-72 82.8156,-72 82.8156,-108"/>
<text text-anchor="middle" x="55.8156" y="-85.8" font-family="Times,serif" font-size="14.00" fill="#000000">Buffer</text>
</g>
<!-- LowPassFilter&#45;&gt;Buffer -->
<g id="edge3" class="edge">
<title>LowPassFilter&#45;&gt;Buffer</title>
<path fill="none" stroke="#000000" d="M55.8156,-143.8314C55.8156,-136.131 55.8156,-126.9743 55.8156,-118.4166"/>
<polygon fill="#000000" stroke="#000000" points="59.3157,-118.4132 55.8156,-108.4133 52.3157,-118.4133 59.3157,-118.4132"/>
</g>
<!-- Output -->
<g id="node5" class="node">
<title>Output</title>
<polygon fill="none" stroke="#000000" points="83.2035,-36 28.4277,-36 28.4277,0 83.2035,0 83.2035,-36"/>
<text text-anchor="middle" x="55.8156" y="-13.8" font-family="Times,serif" font-size="14.00" fill="#000000">Output</text>
</g>
<!-- Buffer&#45;&gt;Output -->
<g id="edge4" class="edge">
<title>Buffer&#45;&gt;Output</title>
<path fill="none" stroke="#000000" d="M55.8156,-71.8314C55.8156,-64.131 55.8156,-54.9743 55.8156,-46.4166"/>
<polygon fill="#000000" stroke="#000000" points="59.3157,-46.4132 55.8156,-36.4133 52.3157,-46.4133 59.3157,-46.4132"/>
</g>
</g>
</svg>
