<?xml version="1.0" encoding="UTF-8" standalone="no"?>
<!DOCTYPE svg PUBLIC "-//W3C//DTD SVG 1.1//EN"
 "http://www.w3.org/Graphics/SVG/1.1/DTD/svg11.dtd">
<!-- Generated by graphviz version 2.40.1 (20161225.0304)
 -->
<!-- Title: G Pages: 1 -->
<svg width="1098pt" height="98pt"
 viewBox="0.00 0.00 1097.97 98.00" xmlns="http://www.w3.org/2000/svg" xmlns:xlink="http://www.w3.org/1999/xlink">
<g id="graph0" class="graph" transform="scale(1 1) rotate(0) translate(4 94)">
<title>G</title>
<polygon fill="#ffffff" stroke="transparent" points="-4,4 -4,-94 1093.9696,-94 1093.9696,4 -4,4"/>
<!-- PressureSensorArray -->
<g id="node1" class="node">
<title>PressureSensorArray</title>
<polygon fill="none" stroke="#000000" points="180.0279,-90 12.0515,-90 12.0515,-54 180.0279,-54 180.0279,-90"/>
<text text-anchor="middle" x="96.0397" y="-67.8" font-family="Times,serif" font-size="14.00" fill="#000000">Pressure Sensor Array (x8)</text>
</g>
<!-- PressureSignalConditioning -->
<g id="node3" class="node">
<title>PressureSignalConditioning</title>
<polygon fill="none" stroke="#000000" points="447.0062,-90 240.1646,-90 240.1646,-54 447.0062,-54 447.0062,-90"/>
<text text-anchor="middle" x="343.5854" y="-67.8" font-family="Times,serif" font-size="14.00" fill="#000000">Pressure Signal Conditioning (x8)</text>
</g>
<!-- PressureSensorArray&#45;&gt;PressureSignalConditioning -->
<g id="edge1" class="edge">
<title>PressureSensorArray&#45;&gt;PressureSignalConditioning</title>
<path fill="none" stroke="#000000" d="M180.1928,-72C196.0948,-72 212.9722,-72 229.612,-72"/>
<polygon fill="#000000" stroke="#000000" points="229.931,-75.5001 239.931,-72 229.931,-68.5001 229.931,-75.5001"/>
</g>
<!-- TemperatureSensorArray -->
<g id="node2" class="node">
<title>TemperatureSensorArray</title>
<polygon fill="none" stroke="#000000" points="192.1191,-36 -.0397,-36 -.0397,0 192.1191,0 192.1191,-36"/>
<text text-anchor="middle" x="96.0397" y="-13.8" font-family="Times,serif" font-size="14.00" fill="#000000">Temperature Sensor Array (x8)</text>
</g>
<!-- TemperatureSignalConditioning -->
<g id="node4" class="node">
<title>TemperatureSignalConditioning</title>
<polygon fill="none" stroke="#000000" points="459.0974,-36 228.0734,-36 228.0734,0 459.0974,0 459.0974,-36"/>
<text text-anchor="middle" x="343.5854" y="-13.8" font-family="Times,serif" font-size="14.00" fill="#000000">Temperature Signal Conditioning (x8)</text>
</g>
<!-- TemperatureSensorArray&#45;&gt;TemperatureSignalConditioning -->
<g id="edge2" class="edge">
<title>TemperatureSensorArray&#45;&gt;TemperatureSignalConditioning</title>
<path fill="none" stroke="#000000" d="M192.1016,-18C200.5023,-18 209.0824,-18 217.6763,-18"/>
<polygon fill="#000000" stroke="#000000" points="217.7612,-21.5001 227.7612,-18 217.7611,-14.5001 217.7612,-21.5001"/>
</g>
<!-- Multiplexer -->
<g id="node5" class="node">
<title>Multiplexer</title>
<polygon fill="none" stroke="#000000" points="643.3903,-63 494.9917,-63 494.9917,-27 643.3903,-27 643.3903,-63"/>
<text text-anchor="middle" x="569.191" y="-40.8" font-family="Times,serif" font-size="14.00" fill="#000000">8:1 Analog Multiplexer</text>
</g>
<!-- PressureSignalConditioning&#45;&gt;Multiplexer -->
<g id="edge3" class="edge">
<title>PressureSignalConditioning&#45;&gt;Multiplexer</title>
<path fill="none" stroke="#000000" d="M447.1441,-59.6063C459.7231,-58.1009 472.4565,-56.577 484.7129,-55.1102"/>
<polygon fill="#000000" stroke="#000000" points="485.369,-58.5567 494.8822,-53.8931 484.5371,-51.6063 485.369,-58.5567"/>
</g>
<!-- TemperatureSignalConditioning&#45;&gt;Multiplexer -->
<g id="edge4" class="edge">
<title>TemperatureSignalConditioning&#45;&gt;Multiplexer</title>
<path fill="none" stroke="#000000" d="M459.3622,-31.8559C467.9767,-32.8869 476.5682,-33.9151 484.9353,-34.9165"/>
<polygon fill="#000000" stroke="#000000" points="484.6715,-38.4098 495.0166,-36.123 485.5034,-31.4594 484.6715,-38.4098"/>
</g>
<!-- AntiAliasingFilter -->
<g id="node7" class="node">
<title>AntiAliasingFilter</title>
<polygon fill="none" stroke="#000000" points="806.0141,-63 679.3827,-63 679.3827,-27 806.0141,-27 806.0141,-63"/>
<text text-anchor="middle" x="742.6984" y="-40.8" font-family="Times,serif" font-size="14.00" fill="#000000">Anti&#45;Aliasing Filter</text>
</g>
<!-- Multiplexer&#45;&gt;AntiAliasingFilter -->
<g id="edge5" class="edge">
<title>Multiplexer&#45;&gt;AntiAliasingFilter</title>
<path fill="none" stroke="#000000" d="M643.5288,-45C651.9642,-45 660.5595,-45 668.9868,-45"/>
<polygon fill="#000000" stroke="#000000" points="669.1609,-48.5001 679.1609,-45 669.1609,-41.5001 669.1609,-48.5001"/>
</g>
<!-- ADC -->
<g id="node6" class="node">
<title>ADC</title>
<polygon fill="none" stroke="#000000" points="896.1062,-63 842.1062,-63 842.1062,-27 896.1062,-27 896.1062,-63"/>
<text text-anchor="middle" x="869.1062" y="-40.8" font-family="Times,serif" font-size="14.00" fill="#000000">ADC</text>
</g>
<!-- Microcontroller -->
<g id="node8" class="node">
<title>Microcontroller</title>
<polygon fill="none" stroke="#000000" points="1089.9014,-63 932.1744,-63 932.1744,-27 1089.9014,-27 1089.9014,-63"/>
<text text-anchor="middle" x="1011.0379" y="-40.8" font-family="Times,serif" font-size="14.00" fill="#000000">Microcontroller Interface</text>
</g>
<!-- ADC&#45;&gt;Microcontroller -->
<g id="edge7" class="edge">
<title>ADC&#45;&gt;Microcontroller</title>
<path fill="none" stroke="#000000" d="M896.1365,-45C903.8151,-45 912.6251,-45 921.8775,-45"/>
<polygon fill="#000000" stroke="#000000" points="922.0585,-48.5001 932.0585,-45 922.0584,-41.5001 922.0585,-48.5001"/>
</g>
<!-- AntiAliasingFilter&#45;&gt;ADC -->
<g id="edge6" class="edge">
<title>AntiAliasingFilter&#45;&gt;ADC</title>
<path fill="none" stroke="#000000" d="M806.2726,-45C814.9933,-45 823.7045,-45 831.7422,-45"/>
<polygon fill="#000000" stroke="#000000" points="831.8648,-48.5001 841.8648,-45 831.8648,-41.5001 831.8648,-48.5001"/>
</g>
</g>
</svg>
