<?xml version="1.0" encoding="UTF-8" standalone="no"?>
<!DOCTYPE svg PUBLIC "-//W3C//DTD SVG 1.1//EN"
 "http://www.w3.org/Graphics/SVG/1.1/DTD/svg11.dtd">
<!-- Generated by graphviz version 2.40.1 (20161225.0304)
 -->
<!-- Title: G Pages: 1 -->
<svg width="826pt" height="101pt"
 viewBox="0.00 0.00 825.76 101.00" xmlns="http://www.w3.org/2000/svg" xmlns:xlink="http://www.w3.org/1999/xlink">
<g id="graph0" class="graph" transform="scale(1 1) rotate(0) translate(4 97)">
<title>G</title>
<polygon fill="#ffffff" stroke="transparent" points="-4,4 -4,-97 821.759,-97 821.759,4 -4,4"/>
<g id="clust2" class="cluster">
<title>cluster_1</title>
<polygon fill="none" stroke="#000000" points="474.801,-8 474.801,-85 809.759,-85 809.759,-8 474.801,-8"/>
<text text-anchor="middle" x="642.28" y="-68.4" font-family="Times,serif" font-size="14.00" fill="#000000">Digital Processing</text>
</g>
<g id="clust1" class="cluster">
<title>cluster_0</title>
<polygon fill="none" stroke="#000000" points="8,-8 8,-85 454.801,-85 454.801,-8 8,-8"/>
<text text-anchor="middle" x="231.4005" y="-68.4" font-family="Times,serif" font-size="14.00" fill="#000000">Analog Front&#45;End</text>
</g>
<!-- Accelerometer -->
<g id="node1" class="node">
<title>Accelerometer</title>
<polygon fill="none" stroke="#000000" points="114.5816,-52 15.8056,-52 15.8056,-16 114.5816,-16 114.5816,-52"/>
<text text-anchor="middle" x="65.1936" y="-29.8" font-family="Times,serif" font-size="14.00" fill="#000000">Accelerometer</text>
</g>
<!-- ChargeAmp -->
<g id="node2" class="node">
<title>ChargeAmp</title>
<polygon fill="none" stroke="#000000" points="235.0237,-52 150.1743,-52 150.1743,-16 235.0237,-16 235.0237,-52"/>
<text text-anchor="middle" x="192.599" y="-29.8" font-family="Times,serif" font-size="14.00" fill="#000000">ChargeAmp</text>
</g>
<!-- Accelerometer&#45;&gt;ChargeAmp -->
<g id="edge1" class="edge">
<title>Accelerometer&#45;&gt;ChargeAmp</title>
<path fill="none" stroke="#000000" d="M114.4519,-27.4067C122.8152,-27.2224 131.5293,-27.2007 139.9752,-27.3416"/>
<polygon fill="#000000" stroke="#000000" points="140.0187,-30.8436 150.1029,-27.5941 140.1933,-23.8458 140.0187,-30.8436"/>
</g>
<!-- Accelerometer&#45;&gt;ChargeAmp -->
<g id="edge7" class="edge">
<title>Accelerometer&#45;&gt;ChargeAmp</title>
<path fill="none" stroke="#000000" d="M114.4519,-40.5933C122.8152,-40.7776 131.5293,-40.7993 139.9752,-40.6584"/>
<polygon fill="#000000" stroke="#000000" points="140.1933,-44.1542 150.1029,-40.4059 140.0187,-37.1564 140.1933,-44.1542"/>
</g>
<!-- LPF -->
<g id="node3" class="node">
<title>LPF</title>
<polygon fill="none" stroke="#000000" points="324.8108,-52 270.8108,-52 270.8108,-16 324.8108,-16 324.8108,-52"/>
<text text-anchor="middle" x="297.8108" y="-29.8" font-family="Times,serif" font-size="14.00" fill="#000000">LPF</text>
</g>
<!-- ChargeAmp&#45;&gt;LPF -->
<g id="edge2" class="edge">
<title>ChargeAmp&#45;&gt;LPF</title>
<path fill="none" stroke="#000000" d="M235.0894,-27.3622C243.5105,-27.1733 252.2909,-27.2229 260.5231,-27.5111"/>
<polygon fill="#000000" stroke="#000000" points="260.4298,-31.0106 270.5889,-28.0036 260.772,-24.019 260.4298,-31.0106"/>
</g>
<!-- ChargeAmp&#45;&gt;LPF -->
<g id="edge8" class="edge">
<title>ChargeAmp&#45;&gt;LPF</title>
<path fill="none" stroke="#000000" d="M235.0894,-40.6378C243.5105,-40.8267 252.2909,-40.7771 260.5231,-40.4889"/>
<polygon fill="#000000" stroke="#000000" points="260.772,-43.981 270.5889,-39.9964 260.4298,-36.9894 260.772,-43.981"/>
</g>
<!-- OutputStage -->
<g id="node4" class="node">
<title>OutputStage</title>
<polygon fill="none" stroke="#000000" points="446.7961,-52 360.8157,-52 360.8157,-16 446.7961,-16 446.7961,-52"/>
<text text-anchor="middle" x="403.8059" y="-29.8" font-family="Times,serif" font-size="14.00" fill="#000000">OutputStage</text>
</g>
<!-- LPF&#45;&gt;OutputStage -->
<g id="edge3" class="edge">
<title>LPF&#45;&gt;OutputStage</title>
<path fill="none" stroke="#000000" d="M324.8321,-28.0296C332.7645,-27.512 341.7283,-27.2522 350.6965,-27.25"/>
<polygon fill="#000000" stroke="#000000" points="350.7322,-30.7505 360.7689,-27.3571 350.8067,-23.7509 350.7322,-30.7505"/>
</g>
<!-- LPF&#45;&gt;OutputStage -->
<g id="edge9" class="edge">
<title>LPF&#45;&gt;OutputStage</title>
<path fill="none" stroke="#000000" d="M324.8321,-39.9704C332.7645,-40.488 341.7283,-40.7478 350.6965,-40.75"/>
<polygon fill="#000000" stroke="#000000" points="350.8067,-44.2491 360.7689,-40.6429 350.7322,-37.2495 350.8067,-44.2491"/>
</g>
<!-- ADC -->
<g id="node5" class="node">
<title>ADC</title>
<polygon fill="none" stroke="#000000" points="536.801,-52 482.801,-52 482.801,-16 536.801,-16 536.801,-52"/>
<text text-anchor="middle" x="509.801" y="-29.8" font-family="Times,serif" font-size="14.00" fill="#000000">ADC</text>
</g>
<!-- OutputStage&#45;&gt;ADC -->
<g id="edge4" class="edge">
<title>OutputStage&#45;&gt;ADC</title>
<path fill="none" stroke="#000000" d="M446.9182,-34C455.3811,-34 464.1927,-34 472.448,-34"/>
<polygon fill="#000000" stroke="#000000" points="472.5391,-37.5001 482.5391,-34 472.539,-30.5001 472.5391,-37.5001"/>
</g>
<!-- AntiAliasing -->
<g id="node6" class="node">
<title>AntiAliasing</title>
<polygon fill="none" stroke="#000000" points="661.2897,-52 572.6377,-52 572.6377,-16 661.2897,-16 661.2897,-52"/>
<text text-anchor="middle" x="616.9637" y="-29.8" font-family="Times,serif" font-size="14.00" fill="#000000">AntiAliasing</text>
</g>
<!-- ADC&#45;&gt;AntiAliasing -->
<g id="edge5" class="edge">
<title>ADC&#45;&gt;AntiAliasing</title>
<path fill="none" stroke="#000000" d="M536.8427,-28.0476C544.5971,-27.5399 553.3436,-27.2746 562.1349,-27.2516"/>
<polygon fill="#000000" stroke="#000000" points="562.3906,-30.7537 572.419,-27.3361 562.4481,-23.754 562.3906,-30.7537"/>
</g>
<!-- ADC&#45;&gt;AntiAliasing -->
<g id="edge10" class="edge">
<title>ADC&#45;&gt;AntiAliasing</title>
<path fill="none" stroke="#000000" d="M536.8427,-39.9524C544.5971,-40.4601 553.3436,-40.7254 562.1349,-40.7484"/>
<polygon fill="#000000" stroke="#000000" points="562.4481,-44.246 572.419,-40.6639 562.3906,-37.2463 562.4481,-44.246"/>
</g>
<!-- Microcontroller -->
<g id="node7" class="node">
<title>Microcontroller</title>
<polygon fill="none" stroke="#000000" points="801.5759,-52 697.3095,-52 697.3095,-16 801.5759,-16 801.5759,-52"/>
<text text-anchor="middle" x="749.4427" y="-29.8" font-family="Times,serif" font-size="14.00" fill="#000000">Microcontroller</text>
</g>
<!-- AntiAliasing&#45;&gt;Microcontroller -->
<g id="edge6" class="edge">
<title>AntiAliasing&#45;&gt;Microcontroller</title>
<path fill="none" stroke="#000000" d="M661.4458,-27.5846C669.658,-27.3232 678.3722,-27.215 687.0001,-27.2599"/>
<polygon fill="#000000" stroke="#000000" points="687.0117,-30.7602 697.0538,-27.3829 687.0974,-23.7607 687.0117,-30.7602"/>
</g>
<!-- AntiAliasing&#45;&gt;Microcontroller -->
<g id="edge11" class="edge">
<title>AntiAliasing&#45;&gt;Microcontroller</title>
<path fill="none" stroke="#000000" d="M661.4458,-40.4154C669.658,-40.6768 678.3722,-40.785 687.0001,-40.7401"/>
<polygon fill="#000000" stroke="#000000" points="687.0974,-44.2393 697.0538,-40.6171 687.0117,-37.2398 687.0974,-44.2393"/>
</g>
</g>
</svg>
