<?xml version="1.0" encoding="UTF-8" standalone="no"?>
<!DOCTYPE svg PUBLIC "-//W3C//DTD SVG 1.1//EN"
 "http://www.w3.org/Graphics/SVG/1.1/DTD/svg11.dtd">
<!-- Generated by graphviz version 2.40.1 (20161225.0304)
 -->
<!-- Title: G Pages: 1 -->
<svg width="872pt" height="98pt"
 viewBox="0.00 0.00 871.86 98.00" xmlns="http://www.w3.org/2000/svg" xmlns:xlink="http://www.w3.org/1999/xlink">
<g id="graph0" class="graph" transform="scale(1 1) rotate(0) translate(4 94)">
<title>G</title>
<polygon fill="#ffffff" stroke="transparent" points="-4,4 -4,-94 867.8644,-94 867.8644,4 -4,4"/>
<!-- Pressure_Sensor_Array -->
<g id="node1" class="node">
<title>Pressure_Sensor_Array</title>
<polygon fill="none" stroke="#000000" points="160.2962,-90 11.962,-90 11.962,-54 160.2962,-54 160.2962,-90"/>
<text text-anchor="middle" x="86.1291" y="-67.8" font-family="Times,serif" font-size="14.00" fill="#000000">Pressure_Sensor_Array</text>
</g>
<!-- Instrumentation_Amp_Pressure -->
<g id="node2" class="node">
<title>Instrumentation_Amp_Pressure</title>
<polygon fill="none" stroke="#000000" points="402.3593,-90 208.2245,-90 208.2245,-54 402.3593,-54 402.3593,-90"/>
<text text-anchor="middle" x="305.2919" y="-67.8" font-family="Times,serif" font-size="14.00" fill="#000000">Instrumentation_Amp_Pressure</text>
</g>
<!-- Pressure_Sensor_Array&#45;&gt;Instrumentation_Amp_Pressure -->
<g id="edge1" class="edge">
<title>Pressure_Sensor_Array&#45;&gt;Instrumentation_Amp_Pressure</title>
<path fill="none" stroke="#000000" d="M160.3276,-72C172.478,-72 185.2785,-72 198.0369,-72"/>
<polygon fill="#000000" stroke="#000000" points="198.2467,-75.5001 208.2467,-72 198.2467,-68.5001 198.2467,-75.5001"/>
</g>
<!-- Filter_Pressure -->
<g id="node3" class="node">
<title>Filter_Pressure</title>
<polygon fill="none" stroke="#000000" points="550.9992,-90 450.495,-90 450.495,-54 550.9992,-54 550.9992,-90"/>
<text text-anchor="middle" x="500.7471" y="-67.8" font-family="Times,serif" font-size="14.00" fill="#000000">Filter_Pressure</text>
</g>
<!-- Instrumentation_Amp_Pressure&#45;&gt;Filter_Pressure -->
<g id="edge2" class="edge">
<title>Instrumentation_Amp_Pressure&#45;&gt;Filter_Pressure</title>
<path fill="none" stroke="#000000" d="M402.4469,-72C415.2665,-72 428.0993,-72 440.0627,-72"/>
<polygon fill="#000000" stroke="#000000" points="440.3302,-75.5001 450.3302,-72 440.3301,-68.5001 440.3302,-75.5001"/>
</g>
<!-- ADC_Pressure -->
<g id="node4" class="node">
<title>ADC_Pressure</title>
<polygon fill="none" stroke="#000000" points="711.1722,-90 611.2282,-90 611.2282,-54 711.1722,-54 711.1722,-90"/>
<text text-anchor="middle" x="661.2002" y="-67.8" font-family="Times,serif" font-size="14.00" fill="#000000">ADC_Pressure</text>
</g>
<!-- Filter_Pressure&#45;&gt;ADC_Pressure -->
<g id="edge3" class="edge">
<title>Filter_Pressure&#45;&gt;ADC_Pressure</title>
<path fill="none" stroke="#000000" d="M551.0752,-72C566.906,-72 584.5492,-72 600.9935,-72"/>
<polygon fill="#000000" stroke="#000000" points="601.0507,-75.5001 611.0507,-72 601.0506,-68.5001 601.0507,-75.5001"/>
</g>
<!-- Microcontroller -->
<g id="node9" class="node">
<title>Microcontroller</title>
<polygon fill="none" stroke="#000000" points="863.6813,-63 759.4149,-63 759.4149,-27 863.6813,-27 863.6813,-63"/>
<text text-anchor="middle" x="811.5481" y="-40.8" font-family="Times,serif" font-size="14.00" fill="#000000">Microcontroller</text>
</g>
<!-- ADC_Pressure&#45;&gt;Microcontroller -->
<g id="edge7" class="edge">
<title>ADC_Pressure&#45;&gt;Microcontroller</title>
<path fill="none" stroke="#000000" d="M711.2639,-63.0094C723.4639,-60.8185 736.6609,-58.4485 749.3493,-56.1699"/>
<polygon fill="#000000" stroke="#000000" points="750.1634,-59.5798 759.3873,-54.3672 748.9261,-52.69 750.1634,-59.5798"/>
</g>
<!-- Temperature_Sensor_Array -->
<g id="node5" class="node">
<title>Temperature_Sensor_Array</title>
<polygon fill="none" stroke="#000000" points="172.3875,-36 -.1293,-36 -.1293,0 172.3875,0 172.3875,-36"/>
<text text-anchor="middle" x="86.1291" y="-13.8" font-family="Times,serif" font-size="14.00" fill="#000000">Temperature_Sensor_Array</text>
</g>
<!-- Amplifier_Temperature -->
<g id="node6" class="node">
<title>Amplifier_Temperature</title>
<polygon fill="none" stroke="#000000" points="380.0104,-36 230.5734,-36 230.5734,0 380.0104,0 380.0104,-36"/>
<text text-anchor="middle" x="305.2919" y="-13.8" font-family="Times,serif" font-size="14.00" fill="#000000">Amplifier_Temperature</text>
</g>
<!-- Temperature_Sensor_Array&#45;&gt;Amplifier_Temperature -->
<g id="edge4" class="edge">
<title>Temperature_Sensor_Array&#45;&gt;Amplifier_Temperature</title>
<path fill="none" stroke="#000000" d="M172.4334,-18C188.1553,-18 204.5472,-18 220.2327,-18"/>
<polygon fill="#000000" stroke="#000000" points="220.4241,-21.5001 230.4241,-18 220.424,-14.5001 220.4241,-21.5001"/>
</g>
<!-- Filter_Temperature -->
<g id="node7" class="node">
<title>Filter_Temperature</title>
<polygon fill="none" stroke="#000000" points="563.0902,-36 438.404,-36 438.404,0 563.0902,0 563.0902,-36"/>
<text text-anchor="middle" x="500.7471" y="-13.8" font-family="Times,serif" font-size="14.00" fill="#000000">Filter_Temperature</text>
</g>
<!-- Amplifier_Temperature&#45;&gt;Filter_Temperature -->
<g id="edge5" class="edge">
<title>Amplifier_Temperature&#45;&gt;Filter_Temperature</title>
<path fill="none" stroke="#000000" d="M380.0218,-18C395.7577,-18 412.3371,-18 427.999,-18"/>
<polygon fill="#000000" stroke="#000000" points="428.1405,-21.5001 438.1405,-18 428.1404,-14.5001 428.1405,-21.5001"/>
</g>
<!-- ADC_Temperature -->
<g id="node8" class="node">
<title>ADC_Temperature</title>
<polygon fill="none" stroke="#000000" points="723.2634,-36 599.137,-36 599.137,0 723.2634,0 723.2634,-36"/>
<text text-anchor="middle" x="661.2002" y="-13.8" font-family="Times,serif" font-size="14.00" fill="#000000">ADC_Temperature</text>
</g>
<!-- Filter_Temperature&#45;&gt;ADC_Temperature -->
<g id="edge6" class="edge">
<title>Filter_Temperature&#45;&gt;ADC_Temperature</title>
<path fill="none" stroke="#000000" d="M563.2419,-18C571.7168,-18 580.4695,-18 589.0957,-18"/>
<polygon fill="#000000" stroke="#000000" points="589.1398,-21.5001 599.1397,-18 589.1397,-14.5001 589.1398,-21.5001"/>
</g>
<!-- ADC_Temperature&#45;&gt;Microcontroller -->
<g id="edge8" class="edge">
<title>ADC_Temperature&#45;&gt;Microcontroller</title>
<path fill="none" stroke="#000000" d="M723.6551,-29.2159C732.0294,-30.7197 740.6205,-32.2626 748.9965,-33.7668"/>
<polygon fill="#000000" stroke="#000000" points="748.6163,-37.2544 759.0775,-35.5771 749.8536,-30.3646 748.6163,-37.2544"/>
</g>
</g>
</svg>
