<?xml version="1.0" encoding="UTF-8" standalone="no"?>
<!DOCTYPE svg PUBLIC "-//W3C//DTD SVG 1.1//EN"
 "http://www.w3.org/Graphics/SVG/1.1/DTD/svg11.dtd">
<!-- Generated by graphviz version 2.40.1 (20161225.0304)
 -->
<!-- Title: G Pages: 1 -->
<svg width="1200pt" height="186pt"
 viewBox="0.00 0.00 1199.81 186.00" xmlns="http://www.w3.org/2000/svg" xmlns:xlink="http://www.w3.org/1999/xlink">
<g id="graph0" class="graph" transform="scale(1 1) rotate(0) translate(4 182)">
<title>G</title>
<polygon fill="#ffffff" stroke="transparent" points="-4,4 -4,-182 1195.814,-182 1195.814,4 -4,4"/>
<g id="clust3" class="cluster">
<title>cluster_2</title>
<polygon fill="none" stroke="#000000" points="660.0424,-23 660.0424,-154 1183.814,-154 1183.814,-23 660.0424,-23"/>
<text text-anchor="middle" x="921.9282" y="-137.4" font-family="Times,serif" font-size="14.00" fill="#000000">Shared Signal Path</text>
</g>
<g id="clust2" class="cluster">
<title>cluster_1</title>
<polygon fill="none" stroke="#000000" points="8,-8 8,-85 592.2184,-85 592.2184,-8 8,-8"/>
<text text-anchor="middle" x="300.1092" y="-68.4" font-family="Times,serif" font-size="14.00" fill="#000000">Temperature Signal Conditioning</text>
</g>
<g id="clust1" class="cluster">
<title>cluster_0</title>
<polygon fill="none" stroke="#000000" points="224.8192,-93 224.8192,-170 640.0424,-170 640.0424,-93 224.8192,-93"/>
<text text-anchor="middle" x="432.4308" y="-153.4" font-family="Times,serif" font-size="14.00" fill="#000000">Pressure Signal Conditioning</text>
</g>
<!-- Pressure_Sensor_Array -->
<g id="node1" class="node">
<title>Pressure_Sensor_Array</title>
<polygon fill="none" stroke="#000000" points="381.0698,-137 232.7356,-137 232.7356,-101 381.0698,-101 381.0698,-137"/>
<text text-anchor="middle" x="306.9027" y="-114.8" font-family="Times,serif" font-size="14.00" fill="#000000">Pressure_Sensor_Array</text>
</g>
<!-- Instrumentation_Amplifier_Array -->
<g id="node2" class="node">
<title>Instrumentation_Amplifier_Array</title>
<polygon fill="none" stroke="#000000" points="632.2906,-137 425.299,-137 425.299,-101 632.2906,-101 632.2906,-137"/>
<text text-anchor="middle" x="528.7948" y="-114.8" font-family="Times,serif" font-size="14.00" fill="#000000">Instrumentation_Amplifier_Array</text>
</g>
<!-- Pressure_Sensor_Array&#45;&gt;Instrumentation_Amplifier_Array -->
<g id="edge1" class="edge">
<title>Pressure_Sensor_Array&#45;&gt;Instrumentation_Amplifier_Array</title>
<path fill="none" stroke="#000000" d="M381.0981,-112.5905C392.1092,-112.3792 403.6647,-112.2663 415.2581,-112.2516"/>
<polygon fill="#000000" stroke="#000000" points="415.4388,-115.7518 425.4431,-112.2641 415.4474,-108.7518 415.4388,-115.7518"/>
</g>
<!-- Pressure_Sensor_Array&#45;&gt;Instrumentation_Amplifier_Array -->
<g id="edge12" class="edge">
<title>Pressure_Sensor_Array&#45;&gt;Instrumentation_Amplifier_Array</title>
<path fill="none" stroke="#000000" d="M381.0981,-125.4095C392.1092,-125.6208 403.6647,-125.7337 415.2581,-125.7484"/>
<polygon fill="#000000" stroke="#000000" points="415.4474,-129.2482 425.4431,-125.7359 415.4388,-122.2482 415.4474,-129.2482"/>
</g>
<!-- Low_Pass_Filter_Array -->
<g id="node3" class="node">
<title>Low_Pass_Filter_Array</title>
<polygon fill="none" stroke="#000000" points="825.3196,-121 675.2828,-121 675.2828,-85 825.3196,-85 825.3196,-121"/>
<text text-anchor="middle" x="750.3012" y="-98.8" font-family="Times,serif" font-size="14.00" fill="#000000">Low_Pass_Filter_Array</text>
</g>
<!-- Instrumentation_Amplifier_Array&#45;&gt;Low_Pass_Filter_Array -->
<g id="edge2" class="edge">
<title>Instrumentation_Amplifier_Array&#45;&gt;Low_Pass_Filter_Array</title>
<path fill="none" stroke="#000000" d="M632.0902,-104.8023C643.1161,-103.9656 654.241,-103.2112 665.0252,-102.571"/>
<polygon fill="#000000" stroke="#000000" points="665.4594,-106.0522 675.2459,-101.9933 665.0642,-99.0633 665.4594,-106.0522"/>
</g>
<!-- Instrumentation_Amplifier_Array&#45;&gt;Low_Pass_Filter_Array -->
<g id="edge13" class="edge">
<title>Instrumentation_Amplifier_Array&#45;&gt;Low_Pass_Filter_Array</title>
<path fill="none" stroke="#000000" d="M632.0902,-118.2751C643.1161,-117.519 654.241,-116.6662 665.0252,-115.7484"/>
<polygon fill="#000000" stroke="#000000" points="665.5909,-119.2123 675.2459,-114.8496 664.9777,-112.2392 665.5909,-119.2123"/>
</g>
<!-- Multiplexer -->
<g id="node4" class="node">
<title>Multiplexer</title>
<polygon fill="none" stroke="#000000" points="950.7053,-94 868.5115,-94 868.5115,-58 950.7053,-58 950.7053,-94"/>
<text text-anchor="middle" x="909.6084" y="-71.8" font-family="Times,serif" font-size="14.00" fill="#000000">Multiplexer</text>
</g>
<!-- Low_Pass_Filter_Array&#45;&gt;Multiplexer -->
<g id="edge3" class="edge">
<title>Low_Pass_Filter_Array&#45;&gt;Multiplexer</title>
<path fill="none" stroke="#000000" d="M817.4001,-84.9529C831.0879,-82.4681 845.2832,-80.1691 858.3138,-78.3392"/>
<polygon fill="#000000" stroke="#000000" points="859.0355,-81.7739 868.4825,-76.9777 858.1065,-74.8358 859.0355,-81.7739"/>
</g>
<!-- Low_Pass_Filter_Array&#45;&gt;Multiplexer -->
<g id="edge17" class="edge">
<title>Low_Pass_Filter_Array&#45;&gt;Multiplexer</title>
<path fill="none" stroke="#000000" d="M825.756,-96.9533C836.7336,-95.1364 847.8179,-93.1301 858.1716,-91.0762"/>
<polygon fill="#000000" stroke="#000000" points="859.1566,-94.4473 868.2509,-89.0118 857.7519,-87.5896 859.1566,-94.4473"/>
</g>
<!-- ADC -->
<g id="node5" class="node">
<title>ADC</title>
<polygon fill="none" stroke="#000000" points="1040.6568,-94 986.6568,-94 986.6568,-58 1040.6568,-58 1040.6568,-94"/>
<text text-anchor="middle" x="1013.6568" y="-71.8" font-family="Times,serif" font-size="14.00" fill="#000000">ADC</text>
</g>
<!-- Multiplexer&#45;&gt;ADC -->
<g id="edge4" class="edge">
<title>Multiplexer&#45;&gt;ADC</title>
<path fill="none" stroke="#000000" d="M950.7311,-62.767C959.1983,-62.3467 968.069,-62.4226 976.3904,-62.9948"/>
<polygon fill="#000000" stroke="#000000" points="976.2735,-66.4999 986.5655,-63.985 976.9515,-59.5328 976.2735,-66.4999"/>
</g>
<!-- Multiplexer&#45;&gt;ADC -->
<g id="edge10" class="edge">
<title>Multiplexer&#45;&gt;ADC</title>
<path fill="none" stroke="#000000" d="M950.7311,-76C959.1983,-76 968.069,-76 976.3904,-76"/>
<polygon fill="#000000" stroke="#000000" points="976.5655,-79.5001 986.5655,-76 976.5655,-72.5001 976.5655,-79.5001"/>
</g>
<!-- Multiplexer&#45;&gt;ADC -->
<g id="edge19" class="edge">
<title>Multiplexer&#45;&gt;ADC</title>
<path fill="none" stroke="#000000" d="M950.7311,-89.233C959.1983,-89.6533 968.069,-89.5774 976.3904,-89.0052"/>
<polygon fill="#000000" stroke="#000000" points="976.9515,-92.4672 986.5655,-88.015 976.2735,-85.5001 976.9515,-92.4672"/>
</g>
<!-- Data_Interface -->
<g id="node6" class="node">
<title>Data_Interface</title>
<polygon fill="none" stroke="#000000" points="1175.8927,-94 1076.5781,-94 1076.5781,-58 1175.8927,-58 1175.8927,-94"/>
<text text-anchor="middle" x="1126.2354" y="-71.8" font-family="Times,serif" font-size="14.00" fill="#000000">Data_Interface</text>
</g>
<!-- ADC&#45;&gt;Data_Interface -->
<g id="edge5" class="edge">
<title>ADC&#45;&gt;Data_Interface</title>
<path fill="none" stroke="#000000" d="M1040.9089,-64.2435C1048.6629,-63.2203 1057.4292,-62.6474 1066.3167,-62.525"/>
<polygon fill="#000000" stroke="#000000" points="1066.3365,-66.025 1076.3549,-62.5781 1066.3736,-59.0251 1066.3365,-66.025"/>
</g>
<!-- ADC&#45;&gt;Data_Interface -->
<g id="edge11" class="edge">
<title>ADC&#45;&gt;Data_Interface</title>
<path fill="none" stroke="#000000" d="M1040.9089,-76C1048.6629,-76 1057.4292,-76 1066.3167,-76"/>
<polygon fill="#000000" stroke="#000000" points="1066.3549,-79.5001 1076.3549,-76 1066.3549,-72.5001 1066.3549,-79.5001"/>
</g>
<!-- ADC&#45;&gt;Data_Interface -->
<g id="edge20" class="edge">
<title>ADC&#45;&gt;Data_Interface</title>
<path fill="none" stroke="#000000" d="M1040.9089,-87.7565C1048.6629,-88.7797 1057.4292,-89.3526 1066.3167,-89.475"/>
<polygon fill="#000000" stroke="#000000" points="1066.3736,-92.9749 1076.3549,-89.4219 1066.3365,-85.975 1066.3736,-92.9749"/>
</g>
<!-- Temperature_Sensor_Array -->
<g id="node7" class="node">
<title>Temperature_Sensor_Array</title>
<polygon fill="none" stroke="#000000" points="188.3875,-52 15.8707,-52 15.8707,-16 188.3875,-16 188.3875,-52"/>
<text text-anchor="middle" x="102.1291" y="-29.8" font-family="Times,serif" font-size="14.00" fill="#000000">Temperature_Sensor_Array</text>
</g>
<!-- Non_Linearity_Correction -->
<g id="node8" class="node">
<title>Non_Linearity_Correction</title>
<polygon fill="none" stroke="#000000" points="389.692,-52 224.1134,-52 224.1134,-16 389.692,-16 389.692,-52"/>
<text text-anchor="middle" x="306.9027" y="-29.8" font-family="Times,serif" font-size="14.00" fill="#000000">Non_Linearity_Correction</text>
</g>
<!-- Temperature_Sensor_Array&#45;&gt;Non_Linearity_Correction -->
<g id="edge6" class="edge">
<title>Temperature_Sensor_Array&#45;&gt;Non_Linearity_Correction</title>
<path fill="none" stroke="#000000" d="M188.378,-27.3251C196.7705,-27.2464 205.3113,-27.2296 213.7673,-27.2746"/>
<polygon fill="#000000" stroke="#000000" points="213.995,-30.7765 224.0239,-27.3601 214.0535,-23.7767 213.995,-30.7765"/>
</g>
<!-- Temperature_Sensor_Array&#45;&gt;Non_Linearity_Correction -->
<g id="edge14" class="edge">
<title>Temperature_Sensor_Array&#45;&gt;Non_Linearity_Correction</title>
<path fill="none" stroke="#000000" d="M188.378,-40.6749C196.7705,-40.7536 205.3113,-40.7704 213.7673,-40.7254"/>
<polygon fill="#000000" stroke="#000000" points="214.0535,-44.2233 224.0239,-40.6399 213.995,-37.2235 214.0535,-44.2233"/>
</g>
<!-- Amplifier_Array -->
<g id="node9" class="node">
<title>Amplifier_Array</title>
<polygon fill="none" stroke="#000000" points="584.1421,-52 473.4475,-52 473.4475,-16 584.1421,-16 584.1421,-52"/>
<text text-anchor="middle" x="528.7948" y="-29.8" font-family="Times,serif" font-size="14.00" fill="#000000">Amplifier_Array</text>
</g>
<!-- Non_Linearity_Correction&#45;&gt;Amplifier_Array -->
<g id="edge7" class="edge">
<title>Non_Linearity_Correction&#45;&gt;Amplifier_Array</title>
<path fill="none" stroke="#000000" d="M389.8427,-27.4449C413.9676,-27.1025 439.9829,-27.2113 462.9065,-27.7713"/>
<polygon fill="#000000" stroke="#000000" points="463.1093,-31.2783 473.2036,-28.0604 463.3058,-24.281 463.1093,-31.2783"/>
</g>
<!-- Non_Linearity_Correction&#45;&gt;Amplifier_Array -->
<g id="edge15" class="edge">
<title>Non_Linearity_Correction&#45;&gt;Amplifier_Array</title>
<path fill="none" stroke="#000000" d="M389.8427,-40.5551C413.9676,-40.8975 439.9829,-40.7887 462.9065,-40.2287"/>
<polygon fill="#000000" stroke="#000000" points="463.3058,-43.719 473.2036,-39.9396 463.1093,-36.7217 463.3058,-43.719"/>
</g>
<!-- Low_Pass_Filter_Array_2 -->
<g id="node10" class="node">
<title>Low_Pass_Filter_Array_2</title>
<polygon fill="none" stroke="#000000" points="832.3195,-67 668.2829,-67 668.2829,-31 832.3195,-31 832.3195,-67"/>
<text text-anchor="middle" x="750.3012" y="-44.8" font-family="Times,serif" font-size="14.00" fill="#000000">Low_Pass_Filter_Array_2</text>
</g>
<!-- Amplifier_Array&#45;&gt;Low_Pass_Filter_Array_2 -->
<g id="edge8" class="edge">
<title>Amplifier_Array&#45;&gt;Low_Pass_Filter_Array_2</title>
<path fill="none" stroke="#000000" d="M584.4043,-31.8225C606.706,-32.6212 633.0127,-34.1618 658.0254,-36.0855"/>
<polygon fill="#000000" stroke="#000000" points="658.0303,-39.5968 668.2765,-36.9015 658.5858,-32.6189 658.0303,-39.5968"/>
</g>
<!-- Amplifier_Array&#45;&gt;Low_Pass_Filter_Array_2 -->
<g id="edge16" class="edge">
<title>Amplifier_Array&#45;&gt;Low_Pass_Filter_Array_2</title>
<path fill="none" stroke="#000000" d="M584.4043,-43.7091C606.706,-45.9308 633.0127,-47.9531 658.0254,-49.4171"/>
<polygon fill="#000000" stroke="#000000" points="658.0969,-52.9264 668.2765,-49.9894 658.4872,-45.9373 658.0969,-52.9264"/>
</g>
<!-- Low_Pass_Filter_Array_2&#45;&gt;Multiplexer -->
<g id="edge9" class="edge">
<title>Low_Pass_Filter_Array_2&#45;&gt;Multiplexer</title>
<path fill="none" stroke="#000000" d="M832.7546,-56.2282C841.4026,-57.7168 850.0065,-59.3042 858.1579,-60.921"/>
<polygon fill="#000000" stroke="#000000" points="857.7115,-64.4022 868.2103,-62.9796 859.1159,-57.5445 857.7115,-64.4022"/>
</g>
<!-- Low_Pass_Filter_Array_2&#45;&gt;Multiplexer -->
<g id="edge18" class="edge">
<title>Low_Pass_Filter_Array_2&#45;&gt;Multiplexer</title>
<path fill="none" stroke="#000000" d="M817.4001,-67.0471C831.0879,-69.5319 845.2832,-71.8309 858.3138,-73.6608"/>
<polygon fill="#000000" stroke="#000000" points="858.1065,-77.1642 868.4825,-75.0223 859.0355,-70.2261 858.1065,-77.1642"/>
</g>
</g>
</svg>
