<?xml version="1.0" encoding="UTF-8" standalone="no"?>
<!DOCTYPE svg PUBLIC "-//W3C//DTD SVG 1.1//EN"
 "http://www.w3.org/Graphics/SVG/1.1/DTD/svg11.dtd">
<!-- Generated by graphviz version 2.40.1 (20161225.0304)
 -->
<!-- Title: G Pages: 1 -->
<svg width="857pt" height="50pt"
 viewBox="0.00 0.00 856.65 49.60" xmlns="http://www.w3.org/2000/svg" xmlns:xlink="http://www.w3.org/1999/xlink">
<g id="graph0" class="graph" transform="scale(1 1) rotate(0) translate(4 45.6)">
<title>G</title>
<polygon fill="#ffffff" stroke="transparent" points="-4,4 -4,-45.6 852.649,-45.6 852.649,4 -4,4"/>
<!-- Sensor -->
<g id="node1" class="node">
<title>Sensor</title>
<polygon fill="none" stroke="#000000" points="98.5816,-41.4019 -.1944,-41.4019 -.1944,-.1981 98.5816,-.1981 98.5816,-41.4019"/>
<text text-anchor="middle" x="49.1936" y="-25" font-family="Times,serif" font-size="14.00" fill="#000000">Piezoelectric</text>
<text text-anchor="middle" x="49.1936" y="-8.2" font-family="Times,serif" font-size="14.00" fill="#000000">Accelerometer</text>
</g>
<!-- ChargeAmp -->
<g id="node2" class="node">
<title>ChargeAmp</title>
<polygon fill="none" stroke="#000000" points="249.5841,-38.8 134.3215,-38.8 134.3215,-2.8 249.5841,-2.8 249.5841,-38.8"/>
<text text-anchor="middle" x="191.9528" y="-16.6" font-family="Times,serif" font-size="14.00" fill="#000000">Charge Amplifier</text>
</g>
<!-- Sensor&#45;&gt;ChargeAmp -->
<g id="edge1" class="edge">
<title>Sensor&#45;&gt;ChargeAmp</title>
<path fill="none" stroke="#000000" d="M98.7232,-20.8C106.9425,-20.8 115.5895,-20.8 124.1672,-20.8"/>
<polygon fill="#000000" stroke="#000000" points="124.175,-24.3001 134.1749,-20.8 124.1749,-17.3001 124.175,-24.3001"/>
</g>
<!-- LowPassFilter -->
<g id="node3" class="node">
<title>LowPassFilter</title>
<polygon fill="none" stroke="#000000" points="423.6468,-41.4019 285.4756,-41.4019 285.4756,-.1981 423.6468,-.1981 423.6468,-41.4019"/>
<text text-anchor="middle" x="354.5612" y="-25" font-family="Times,serif" font-size="14.00" fill="#000000">Low&#45;pass Filter</text>
<text text-anchor="middle" x="354.5612" y="-8.2" font-family="Times,serif" font-size="14.00" fill="#000000">(0.25 Hz, 3 dB down)</text>
</g>
<!-- ChargeAmp&#45;&gt;LowPassFilter -->
<g id="edge2" class="edge">
<title>ChargeAmp&#45;&gt;LowPassFilter</title>
<path fill="none" stroke="#000000" d="M249.7403,-20.8C258.0074,-20.8 266.6294,-20.8 275.2221,-20.8"/>
<polygon fill="#000000" stroke="#000000" points="275.2727,-24.3001 285.2727,-20.8 275.2726,-17.3001 275.2727,-24.3001"/>
</g>
<!-- AmpGainStage -->
<g id="node4" class="node">
<title>AmpGainStage</title>
<polygon fill="none" stroke="#000000" points="537.3255,-38.8 459.6967,-38.8 459.6967,-2.8 537.3255,-2.8 537.3255,-38.8"/>
<text text-anchor="middle" x="498.5111" y="-16.6" font-family="Times,serif" font-size="14.00" fill="#000000">Gain Stage</text>
</g>
<!-- LowPassFilter&#45;&gt;AmpGainStage -->
<g id="edge3" class="edge">
<title>LowPassFilter&#45;&gt;AmpGainStage</title>
<path fill="none" stroke="#000000" d="M424.0062,-20.8C432.6001,-20.8 441.242,-20.8 449.4412,-20.8"/>
<polygon fill="#000000" stroke="#000000" points="449.5533,-24.3001 459.5532,-20.8 449.5532,-17.3001 449.5533,-24.3001"/>
</g>
<!-- AntiAliasingFilter -->
<g id="node5" class="node">
<title>AntiAliasingFilter</title>
<polygon fill="none" stroke="#000000" points="696.3036,-38.8 573.4564,-38.8 573.4564,-2.8 696.3036,-2.8 696.3036,-38.8"/>
<text text-anchor="middle" x="634.88" y="-16.6" font-family="Times,serif" font-size="14.00" fill="#000000">Anti&#45;aliasing Filter</text>
</g>
<!-- AmpGainStage&#45;&gt;AntiAliasingFilter -->
<g id="edge4" class="edge">
<title>AmpGainStage&#45;&gt;AntiAliasingFilter</title>
<path fill="none" stroke="#000000" d="M537.589,-20.8C545.7091,-20.8 554.5072,-20.8 563.3803,-20.8"/>
<polygon fill="#000000" stroke="#000000" points="563.3982,-24.3001 573.3981,-20.8 563.3981,-17.3001 563.3982,-24.3001"/>
</g>
<!-- ADC -->
<g id="node6" class="node">
<title>ADC</title>
<polygon fill="none" stroke="#000000" points="848.803,-41.4019 732.1878,-41.4019 732.1878,-.1981 848.803,-.1981 848.803,-41.4019"/>
<text text-anchor="middle" x="790.4954" y="-25" font-family="Times,serif" font-size="14.00" fill="#000000">Analog&#45;to&#45;Digital</text>
<text text-anchor="middle" x="790.4954" y="-8.2" font-family="Times,serif" font-size="14.00" fill="#000000">Converter</text>
</g>
<!-- AntiAliasingFilter&#45;&gt;ADC -->
<g id="edge5" class="edge">
<title>AntiAliasingFilter&#45;&gt;ADC</title>
<path fill="none" stroke="#000000" d="M696.3833,-20.8C704.7786,-20.8 713.4391,-20.8 721.9496,-20.8"/>
<polygon fill="#000000" stroke="#000000" points="722.2284,-24.3001 732.2284,-20.8 722.2283,-17.3001 722.2284,-24.3001"/>
</g>
</g>
</svg>
