<?xml version="1.0" encoding="UTF-8" standalone="no"?>
<!DOCTYPE svg PUBLIC "-//W3C//DTD SVG 1.1//EN"
 "http://www.w3.org/Graphics/SVG/1.1/DTD/svg11.dtd">
<!-- Generated by graphviz version 2.40.1 (20161225.0304)
 -->
<!-- Title: G Pages: 1 -->
<svg width="317pt" height="605pt"
 viewBox="0.00 0.00 316.79 604.93" xmlns="http://www.w3.org/2000/svg" xmlns:xlink="http://www.w3.org/1999/xlink">
<g id="graph0" class="graph" transform="scale(1 1) rotate(0) translate(4 600.9251)">
<title>G</title>
<polygon fill="#ffffff" stroke="transparent" points="-4,4 -4,-600.9251 312.7855,-600.9251 312.7855,4 -4,4"/>
<!-- accelerometer -->
<g id="node1" class="node">
<title>accelerometer</title>
<ellipse fill="none" stroke="#000000" cx="179.9201" cy="-567.5095" rx="69.6406" ry="29.3315"/>
<text text-anchor="middle" x="179.9201" y="-571.7095" font-family="Times,serif" font-size="14.00" fill="#000000">Piezoelectric</text>
<text text-anchor="middle" x="179.9201" y="-554.9095" font-family="Times,serif" font-size="14.00" fill="#000000">Accelerometer</text>
</g>
<!-- charge_amp -->
<g id="node2" class="node">
<title>charge_amp</title>
<ellipse fill="none" stroke="#000000" cx="179.9201" cy="-483.0939" rx="79.3309" ry="18"/>
<text text-anchor="middle" x="179.9201" y="-478.8939" font-family="Times,serif" font-size="14.00" fill="#000000">Charge Amplifier</text>
</g>
<!-- accelerometer&#45;&gt;charge_amp -->
<g id="edge1" class="edge">
<title>accelerometer&#45;&gt;charge_amp</title>
<path fill="none" stroke="#000000" d="M179.9201,-537.985C179.9201,-529.4269 179.9201,-520.1019 179.9201,-511.6069"/>
<polygon fill="#000000" stroke="#000000" points="183.4202,-511.4108 179.9201,-501.4108 176.4202,-511.4108 183.4202,-511.4108"/>
</g>
<!-- lowpass_filter -->
<g id="node3" class="node">
<title>lowpass_filter</title>
<ellipse fill="none" stroke="#000000" cx="179.9201" cy="-398.6782" rx="73.9827" ry="29.3315"/>
<text text-anchor="middle" x="179.9201" y="-402.8782" font-family="Times,serif" font-size="14.00" fill="#000000">Low&#45;pass Filter</text>
<text text-anchor="middle" x="179.9201" y="-386.0782" font-family="Times,serif" font-size="14.00" fill="#000000">(0.25 Hz &#45;3 dB)</text>
</g>
<!-- charge_amp&#45;&gt;lowpass_filter -->
<g id="edge2" class="edge">
<title>charge_amp&#45;&gt;lowpass_filter</title>
<path fill="none" stroke="#000000" d="M179.9201,-464.7769C179.9201,-457.026 179.9201,-447.6723 179.9201,-438.472"/>
<polygon fill="#000000" stroke="#000000" points="183.4202,-438.2434 179.9201,-428.2435 176.4202,-438.2435 183.4202,-438.2434"/>
</g>
<!-- signal_cond -->
<g id="node4" class="node">
<title>signal_cond</title>
<ellipse fill="none" stroke="#000000" cx="179.9201" cy="-314.2626" rx="89.2085" ry="18"/>
<text text-anchor="middle" x="179.9201" y="-310.0626" font-family="Times,serif" font-size="14.00" fill="#000000">Signal Conditioning</text>
</g>
<!-- lowpass_filter&#45;&gt;signal_cond -->
<g id="edge3" class="edge">
<title>lowpass_filter&#45;&gt;signal_cond</title>
<path fill="none" stroke="#000000" d="M179.9201,-369.1537C179.9201,-360.5956 179.9201,-351.2706 179.9201,-342.7756"/>
<polygon fill="#000000" stroke="#000000" points="183.4202,-342.5795 179.9201,-332.5795 176.4202,-342.5795 183.4202,-342.5795"/>
</g>
<!-- buffer_amp -->
<g id="node5" class="node">
<title>buffer_amp</title>
<ellipse fill="none" stroke="#000000" cx="179.9201" cy="-241.2626" rx="76.9603" ry="18"/>
<text text-anchor="middle" x="179.9201" y="-237.0626" font-family="Times,serif" font-size="14.00" fill="#000000">Buffer Amplifier</text>
</g>
<!-- signal_cond&#45;&gt;buffer_amp -->
<g id="edge4" class="edge">
<title>signal_cond&#45;&gt;buffer_amp</title>
<path fill="none" stroke="#000000" d="M179.9201,-296.2176C179.9201,-288.1454 179.9201,-278.4389 179.9201,-269.4443"/>
<polygon fill="#000000" stroke="#000000" points="183.4202,-269.3529 179.9201,-259.3529 176.4202,-269.353 183.4202,-269.3529"/>
</g>
<!-- antialias_filter -->
<g id="node7" class="node">
<title>antialias_filter</title>
<ellipse fill="none" stroke="#000000" cx="86.9201" cy="-141.0469" rx="86.8403" ry="29.3315"/>
<text text-anchor="middle" x="86.9201" y="-145.2469" font-family="Times,serif" font-size="14.00" fill="#000000">Anti&#45;aliasing Filter</text>
<text text-anchor="middle" x="86.9201" y="-128.4469" font-family="Times,serif" font-size="14.00" fill="#000000">(optional)</text>
</g>
<!-- buffer_amp&#45;&gt;antialias_filter -->
<g id="edge5" class="edge">
<title>buffer_amp&#45;&gt;antialias_filter</title>
<path fill="none" stroke="#000000" d="M139.2951,-225.9448C129.2065,-220.6205 119.126,-213.7877 111.5547,-205.2626 105.2077,-198.1159 100.4213,-189.1602 96.8402,-180.2253"/>
<polygon fill="#000000" stroke="#000000" points="100.0708,-178.8646 93.4105,-170.6249 93.4788,-181.2196 100.0708,-178.8646"/>
<text text-anchor="middle" x="154.1028" y="-192.6626" font-family="Times,serif" font-size="14.00" fill="#000000">If ADC is used</text>
</g>
<!-- output -->
<g id="node8" class="node">
<title>output</title>
<ellipse fill="none" stroke="#000000" cx="233.9201" cy="-141.0469" rx="42.2511" ry="29.3315"/>
<text text-anchor="middle" x="233.9201" y="-145.2469" font-family="Times,serif" font-size="14.00" fill="#000000">Output</text>
<text text-anchor="middle" x="233.9201" y="-128.4469" font-family="Times,serif" font-size="14.00" fill="#000000">(1 Vpp)</text>
</g>
<!-- buffer_amp&#45;&gt;output -->
<g id="edge7" class="edge">
<title>buffer_amp&#45;&gt;output</title>
<path fill="none" stroke="#000000" d="M189.5742,-223.346C196.4213,-210.6389 205.8493,-193.1421 214.2521,-177.5477"/>
<polygon fill="#000000" stroke="#000000" points="217.3914,-179.1 219.0538,-168.6364 211.2291,-175.7795 217.3914,-179.1"/>
<text text-anchor="middle" x="257.8528" y="-192.6626" font-family="Times,serif" font-size="14.00" fill="#000000">If no ADC is used</text>
</g>
<!-- adc -->
<g id="node6" class="node">
<title>adc</title>
<ellipse fill="none" stroke="#000000" cx="86.9201" cy="-29.4156" rx="50.2032" ry="29.3315"/>
<text text-anchor="middle" x="86.9201" y="-33.6156" font-family="Times,serif" font-size="14.00" fill="#000000">ADC</text>
<text text-anchor="middle" x="86.9201" y="-16.8156" font-family="Times,serif" font-size="14.00" fill="#000000">(optional)</text>
</g>
<!-- antialias_filter&#45;&gt;adc -->
<g id="edge6" class="edge">
<title>antialias_filter&#45;&gt;adc</title>
<path fill="none" stroke="#000000" d="M86.9201,-111.4249C86.9201,-98.5568 86.9201,-83.2867 86.9201,-69.4319"/>
<polygon fill="#000000" stroke="#000000" points="90.4202,-69.1761 86.9201,-59.1761 83.4202,-69.1762 90.4202,-69.1761"/>
<text text-anchor="middle" x="129.1028" y="-81.0313" font-family="Times,serif" font-size="14.00" fill="#000000">If ADC is used</text>
</g>
</g>
</svg>
