<?xml version="1.0" encoding="UTF-8" standalone="no"?>
<!DOCTYPE svg PUBLIC "-//W3C//DTD SVG 1.1//EN"
 "http://www.w3.org/Graphics/SVG/1.1/DTD/svg11.dtd">
<!-- Generated by graphviz version 2.40.1 (20161225.0304)
 -->
<!-- Title: G Pages: 1 -->
<svg width="1188pt" height="98pt"
 viewBox="0.00 0.00 1187.69 98.00" xmlns="http://www.w3.org/2000/svg" xmlns:xlink="http://www.w3.org/1999/xlink">
<g id="graph0" class="graph" transform="scale(1 1) rotate(0) translate(4 94)">
<title>G</title>
<polygon fill="#ffffff" stroke="transparent" points="-4,4 -4,-94 1183.694,-94 1183.694,4 -4,4"/>
<!-- Pressure_Input -->
<g id="node1" class="node">
<title>Pressure_Input</title>
<polygon fill="none" stroke="#000000" points="176.8911,-90 12.0971,-90 12.0971,-54 176.8911,-54 176.8911,-90"/>
<text text-anchor="middle" x="94.4941" y="-67.8" font-family="Times,serif" font-size="14.00" fill="#000000">Pressure Sensor Input (x8)</text>
</g>
<!-- Amplifier_Pressure -->
<g id="node2" class="node">
<title>Amplifier_Pressure</title>
<polygon fill="none" stroke="#000000" points="452.175,-90 261.8268,-90 261.8268,-54 452.175,-54 452.175,-90"/>
<text text-anchor="middle" x="357.0009" y="-67.8" font-family="Times,serif" font-size="14.00" fill="#000000">Instrumentation Amplifier (x8)</text>
</g>
<!-- Pressure_Input&#45;&gt;Amplifier_Pressure -->
<g id="edge1" class="edge">
<title>Pressure_Input&#45;&gt;Amplifier_Pressure</title>
<path fill="none" stroke="#000000" d="M177.1926,-72C200.836,-72 226.9265,-72 251.7277,-72"/>
<polygon fill="#000000" stroke="#000000" points="251.8958,-75.5001 261.8958,-72 251.8957,-68.5001 251.8958,-75.5001"/>
</g>
<!-- Filter_Pressure -->
<g id="node3" class="node">
<title>Filter_Pressure</title>
<polygon fill="none" stroke="#000000" points="656.7992,-90 525.085,-90 525.085,-54 656.7992,-54 656.7992,-90"/>
<text text-anchor="middle" x="590.9421" y="-67.8" font-family="Times,serif" font-size="14.00" fill="#000000">Low&#45;Pass Filter (x8)</text>
</g>
<!-- Amplifier_Pressure&#45;&gt;Filter_Pressure -->
<g id="edge2" class="edge">
<title>Amplifier_Pressure&#45;&gt;Filter_Pressure</title>
<path fill="none" stroke="#000000" d="M452.1537,-72C472.9442,-72 494.688,-72 514.6309,-72"/>
<polygon fill="#000000" stroke="#000000" points="514.881,-75.5001 524.881,-72 514.881,-68.5001 514.881,-75.5001"/>
</g>
<!-- Mux_Pressure -->
<g id="node4" class="node">
<title>Mux_Pressure</title>
<polygon fill="none" stroke="#000000" points="779.4258,-90 692.685,-90 692.685,-54 779.4258,-54 779.4258,-90"/>
<text text-anchor="middle" x="736.0554" y="-67.8" font-family="Times,serif" font-size="14.00" fill="#000000">8&#45;to&#45;1 MUX</text>
</g>
<!-- Filter_Pressure&#45;&gt;Mux_Pressure -->
<g id="edge3" class="edge">
<title>Filter_Pressure&#45;&gt;Mux_Pressure</title>
<path fill="none" stroke="#000000" d="M657.129,-72C665.6435,-72 674.276,-72 682.5524,-72"/>
<polygon fill="#000000" stroke="#000000" points="682.8099,-75.5001 692.8098,-72 682.8098,-68.5001 682.8099,-75.5001"/>
</g>
<!-- MUX -->
<g id="node9" class="node">
<title>MUX</title>
<polygon fill="none" stroke="#000000" points="901.7954,-63 815.0546,-63 815.0546,-27 901.7954,-27 901.7954,-63"/>
<text text-anchor="middle" x="858.425" y="-40.8" font-family="Times,serif" font-size="14.00" fill="#000000">2&#45;to&#45;1 MUX</text>
</g>
<!-- Mux_Pressure&#45;&gt;MUX -->
<g id="edge7" class="edge">
<title>Mux_Pressure&#45;&gt;MUX</title>
<path fill="none" stroke="#000000" d="M779.5429,-62.4048C787.838,-60.5745 796.6079,-58.6395 805.1673,-56.7509"/>
<polygon fill="#000000" stroke="#000000" points="806.0666,-60.1368 815.0775,-54.5643 804.5583,-53.3012 806.0666,-60.1368"/>
</g>
<!-- Temp_Input -->
<g id="node5" class="node">
<title>Temp_Input</title>
<polygon fill="none" stroke="#000000" points="188.9823,-36 .0059,-36 .0059,0 188.9823,0 188.9823,-36"/>
<text text-anchor="middle" x="94.4941" y="-13.8" font-family="Times,serif" font-size="14.00" fill="#000000">Temperature Sensor Input (x8)</text>
</g>
<!-- Amplifier_Temp -->
<g id="node6" class="node">
<title>Amplifier_Temp</title>
<polygon fill="none" stroke="#000000" points="489.0263,-36 224.9755,-36 224.9755,0 489.0263,0 489.0263,-36"/>
<text text-anchor="middle" x="357.0009" y="-13.8" font-family="Times,serif" font-size="14.00" fill="#000000">Nonlinear Amplifier with Linearization (x8)</text>
</g>
<!-- Temp_Input&#45;&gt;Amplifier_Temp -->
<g id="edge4" class="edge">
<title>Temp_Input&#45;&gt;Amplifier_Temp</title>
<path fill="none" stroke="#000000" d="M189.2651,-18C197.6039,-18 206.1562,-18 214.772,-18"/>
<polygon fill="#000000" stroke="#000000" points="214.9064,-21.5001 224.9063,-18 214.9063,-14.5001 214.9064,-21.5001"/>
</g>
<!-- Filter_Temp -->
<g id="node7" class="node">
<title>Filter_Temp</title>
<polygon fill="none" stroke="#000000" points="656.7992,-36 525.085,-36 525.085,0 656.7992,0 656.7992,-36"/>
<text text-anchor="middle" x="590.9421" y="-13.8" font-family="Times,serif" font-size="14.00" fill="#000000">Low&#45;Pass Filter (x8)</text>
</g>
<!-- Amplifier_Temp&#45;&gt;Filter_Temp -->
<g id="edge5" class="edge">
<title>Amplifier_Temp&#45;&gt;Filter_Temp</title>
<path fill="none" stroke="#000000" d="M489.3527,-18C498.0031,-18 506.5393,-18 514.7675,-18"/>
<polygon fill="#000000" stroke="#000000" points="515.0108,-21.5001 525.0108,-18 515.0107,-14.5001 515.0108,-21.5001"/>
</g>
<!-- Mux_Temp -->
<g id="node8" class="node">
<title>Mux_Temp</title>
<polygon fill="none" stroke="#000000" points="779.4258,-36 692.685,-36 692.685,0 779.4258,0 779.4258,-36"/>
<text text-anchor="middle" x="736.0554" y="-13.8" font-family="Times,serif" font-size="14.00" fill="#000000">8&#45;to&#45;1 MUX</text>
</g>
<!-- Filter_Temp&#45;&gt;Mux_Temp -->
<g id="edge6" class="edge">
<title>Filter_Temp&#45;&gt;Mux_Temp</title>
<path fill="none" stroke="#000000" d="M657.129,-18C665.6435,-18 674.276,-18 682.5524,-18"/>
<polygon fill="#000000" stroke="#000000" points="682.8099,-21.5001 692.8098,-18 682.8098,-14.5001 682.8099,-21.5001"/>
</g>
<!-- Mux_Temp&#45;&gt;MUX -->
<g id="edge8" class="edge">
<title>Mux_Temp&#45;&gt;MUX</title>
<path fill="none" stroke="#000000" d="M779.5429,-27.5952C787.838,-29.4255 796.6079,-31.3605 805.1673,-33.2491"/>
<polygon fill="#000000" stroke="#000000" points="804.5583,-36.6988 815.0775,-35.4357 806.0666,-29.8632 804.5583,-36.6988"/>
</g>
<!-- ADC -->
<g id="node10" class="node">
<title>ADC</title>
<polygon fill="none" stroke="#000000" points="991.6098,-63 937.6098,-63 937.6098,-27 991.6098,-27 991.6098,-63"/>
<text text-anchor="middle" x="964.6098" y="-40.8" font-family="Times,serif" font-size="14.00" fill="#000000">ADC</text>
</g>
<!-- MUX&#45;&gt;ADC -->
<g id="edge9" class="edge">
<title>MUX&#45;&gt;ADC</title>
<path fill="none" stroke="#000000" d="M901.6144,-45C910.1732,-45 919.088,-45 927.4261,-45"/>
<polygon fill="#000000" stroke="#000000" points="927.6089,-48.5001 937.6089,-45 927.6089,-41.5001 927.6089,-48.5001"/>
</g>
<!-- DSP -->
<g id="node11" class="node">
<title>DSP</title>
<polygon fill="none" stroke="#000000" points="1179.7361,-63 1027.5677,-63 1027.5677,-27 1179.7361,-27 1179.7361,-63"/>
<text text-anchor="middle" x="1103.6519" y="-40.8" font-family="Times,serif" font-size="14.00" fill="#000000">Digital Signal Processor</text>
</g>
<!-- ADC&#45;&gt;DSP -->
<g id="edge10" class="edge">
<title>ADC&#45;&gt;DSP</title>
<path fill="none" stroke="#000000" d="M991.7486,-45C999.4096,-45 1008.1811,-45 1017.3678,-45"/>
<polygon fill="#000000" stroke="#000000" points="1017.4665,-48.5001 1027.4664,-45 1017.4664,-41.5001 1017.4665,-48.5001"/>
</g>
</g>
</svg>
