<?xml version="1.0" encoding="UTF-8" standalone="no"?>
<!DOCTYPE svg PUBLIC "-//W3C//DTD SVG 1.1//EN"
 "http://www.w3.org/Graphics/SVG/1.1/DTD/svg11.dtd">
<!-- Generated by graphviz version 2.40.1 (20161225.0304)
 -->
<!-- Title: G Pages: 1 -->
<svg width="1079pt" height="52pt"
 viewBox="0.00 0.00 1078.72 52.00" xmlns="http://www.w3.org/2000/svg" xmlns:xlink="http://www.w3.org/1999/xlink">
<g id="graph0" class="graph" transform="scale(1 1) rotate(0) translate(4 48)">
<title>G</title>
<polygon fill="#ffffff" stroke="transparent" points="-4,4 -4,-48 1074.7234,-48 1074.7234,4 -4,4"/>
<!-- ThermistorSensor -->
<g id="node1" class="node">
<title>ThermistorSensor</title>
<polygon fill="none" stroke="#000000" points="288.9013,-40 .0329,-40 .0329,-4 288.9013,-4 288.9013,-40"/>
<text text-anchor="middle" x="144.4671" y="-17.8" font-family="Times,serif" font-size="14.00" fill="#000000">Thermistor Sensor (NTC Vishay NTCLE100E3)</text>
</g>
<!-- Linearization -->
<g id="node2" class="node">
<title>Linearization</title>
<polygon fill="none" stroke="#000000" points="468.1037,-40 324.8777,-40 324.8777,-4 468.1037,-4 468.1037,-40"/>
<text text-anchor="middle" x="396.4907" y="-17.8" font-family="Times,serif" font-size="14.00" fill="#000000">Linearization Network</text>
</g>
<!-- ThermistorSensor&#45;&gt;Linearization -->
<g id="edge1" class="edge">
<title>ThermistorSensor&#45;&gt;Linearization</title>
<path fill="none" stroke="#000000" d="M289.2446,-22C297.8835,-22 306.4021,-22 314.633,-22"/>
<polygon fill="#000000" stroke="#000000" points="314.8924,-25.5001 324.8924,-22 314.8923,-18.5001 314.8924,-25.5001"/>
</g>
<!-- Amplification -->
<g id="node3" class="node">
<title>Amplification</title>
<polygon fill="none" stroke="#000000" points="633.2609,-40 503.9759,-40 503.9759,-4 633.2609,-4 633.2609,-40"/>
<text text-anchor="middle" x="568.6184" y="-17.8" font-family="Times,serif" font-size="14.00" fill="#000000">Amplification Stage</text>
</g>
<!-- Linearization&#45;&gt;Amplification -->
<g id="edge2" class="edge">
<title>Linearization&#45;&gt;Amplification</title>
<path fill="none" stroke="#000000" d="M468.491,-22C476.8743,-22 485.4405,-22 493.8599,-22"/>
<polygon fill="#000000" stroke="#000000" points="494.0347,-25.5001 504.0347,-22 494.0346,-18.5001 494.0347,-25.5001"/>
</g>
<!-- OutputScaling -->
<g id="node4" class="node">
<title>OutputScaling</title>
<polygon fill="none" stroke="#000000" points="823.8963,-40 669.2873,-40 669.2873,-4 823.8963,-4 823.8963,-40"/>
<text text-anchor="middle" x="746.5918" y="-17.8" font-family="Times,serif" font-size="14.00" fill="#000000">Output Scaling &amp; Buffer</text>
</g>
<!-- Amplification&#45;&gt;OutputScaling -->
<g id="edge3" class="edge">
<title>Amplification&#45;&gt;OutputScaling</title>
<path fill="none" stroke="#000000" d="M633.3743,-22C641.7323,-22 650.399,-22 659.0475,-22"/>
<polygon fill="#000000" stroke="#000000" points="659.1722,-25.5001 669.1721,-22 659.1721,-18.5001 659.1722,-25.5001"/>
</g>
<!-- Output -->
<g id="node5" class="node">
<title>Output</title>
<polygon fill="none" stroke="#000000" points="1066.5934,-14.5442 1066.5934,-29.4558 1007.2915,-40 923.4259,-40 864.124,-29.4558 864.124,-14.5442 923.4259,-4 1007.2915,-4 1066.5934,-14.5442"/>
<polygon fill="none" stroke="#000000" points="1070.5883,-11.1919 1070.5883,-32.8081 1007.6434,-44 923.074,-44 860.1291,-32.8081 860.1291,-11.1919 923.074,0 1007.6434,0 1070.5883,-11.1919"/>
<text text-anchor="middle" x="965.3587" y="-17.8" font-family="Times,serif" font-size="14.00" fill="#000000">Output to Multimeter</text>
</g>
<!-- OutputScaling&#45;&gt;Output -->
<g id="edge4" class="edge">
<title>OutputScaling&#45;&gt;Output</title>
<path fill="none" stroke="#000000" d="M824.0287,-22C832.4215,-22 841.0893,-22 849.8096,-22"/>
<polygon fill="#000000" stroke="#000000" points="850.0572,-25.5001 860.0571,-22 850.0571,-18.5001 850.0572,-25.5001"/>
</g>
</g>
</svg>
