<?xml version="1.0" encoding="UTF-8" standalone="no"?>
<!DOCTYPE svg PUBLIC "-//W3C//DTD SVG 1.1//EN"
 "http://www.w3.org/Graphics/SVG/1.1/DTD/svg11.dtd">
<!-- Generated by graphviz version 2.40.1 (20161225.0304)
 -->
<!-- Title: G Pages: 1 -->
<svg width="960pt" height="44pt"
 viewBox="0.00 0.00 960.00 44.00" xmlns="http://www.w3.org/2000/svg" xmlns:xlink="http://www.w3.org/1999/xlink">
<g id="graph0" class="graph" transform="scale(1 1) rotate(0) translate(4 40)">
<title>G</title>
<polygon fill="#ffffff" stroke="transparent" points="-4,4 -4,-40 955.9996,-40 955.9996,4 -4,4"/>
<!-- Thermistor -->
<g id="node1" class="node">
<title>Thermistor</title>
<polygon fill="none" stroke="#000000" points="109.5513,-36 .1493,-36 .1493,0 109.5513,0 109.5513,-36"/>
<text text-anchor="middle" x="54.8503" y="-13.8" font-family="Times,serif" font-size="14.00" fill="#000000">NTC Thermistor</text>
</g>
<!-- Linearization -->
<g id="node2" class="node">
<title>Linearization</title>
<polygon fill="none" stroke="#000000" points="285.7249,-36 145.6925,-36 145.6925,0 285.7249,0 285.7249,-36"/>
<text text-anchor="middle" x="215.7087" y="-13.8" font-family="Times,serif" font-size="14.00" fill="#000000">Linearization Resistor</text>
</g>
<!-- Thermistor&#45;&gt;Linearization -->
<g id="edge1" class="edge">
<title>Thermistor&#45;&gt;Linearization</title>
<path fill="none" stroke="#000000" d="M109.7587,-18C118.0667,-18 126.7799,-18 135.4898,-18"/>
<polygon fill="#000000" stroke="#000000" points="135.6885,-21.5001 145.6885,-18 135.6885,-14.5001 135.6885,-21.5001"/>
</g>
<!-- Buffer -->
<g id="node3" class="node">
<title>Buffer</title>
<polygon fill="none" stroke="#000000" points="433.0738,-36 321.5976,-36 321.5976,0 433.0738,0 433.0738,-36"/>
<text text-anchor="middle" x="377.3357" y="-13.8" font-family="Times,serif" font-size="14.00" fill="#000000">Buffer Amplifier</text>
</g>
<!-- Linearization&#45;&gt;Buffer -->
<g id="edge2" class="edge">
<title>Linearization&#45;&gt;Buffer</title>
<path fill="none" stroke="#000000" d="M286.1305,-18C294.3848,-18 302.7862,-18 310.9824,-18"/>
<polygon fill="#000000" stroke="#000000" points="311.2282,-21.5001 321.2282,-18 311.2281,-14.5001 311.2282,-21.5001"/>
</g>
<!-- Gain_Stage -->
<g id="node4" class="node">
<title>Gain_Stage</title>
<polygon fill="none" stroke="#000000" points="546.6761,-36 469.0473,-36 469.0473,0 546.6761,0 546.6761,-36"/>
<text text-anchor="middle" x="507.8617" y="-13.8" font-family="Times,serif" font-size="14.00" fill="#000000">Gain Stage</text>
</g>
<!-- Buffer&#45;&gt;Gain_Stage -->
<g id="edge3" class="edge">
<title>Buffer&#45;&gt;Gain_Stage</title>
<path fill="none" stroke="#000000" d="M433.0691,-18C441.6405,-18 450.436,-18 458.847,-18"/>
<polygon fill="#000000" stroke="#000000" points="458.8751,-21.5001 468.875,-18 458.875,-14.5001 458.8751,-21.5001"/>
</g>
<!-- Low_Pass -->
<g id="node5" class="node">
<title>Low_Pass</title>
<polygon fill="none" stroke="#000000" points="687.8225,-36 582.7509,-36 582.7509,0 687.8225,0 687.8225,-36"/>
<text text-anchor="middle" x="635.2867" y="-13.8" font-family="Times,serif" font-size="14.00" fill="#000000">Low&#45;Pass Filter</text>
</g>
<!-- Gain_Stage&#45;&gt;Low_Pass -->
<g id="edge4" class="edge">
<title>Gain_Stage&#45;&gt;Low_Pass</title>
<path fill="none" stroke="#000000" d="M546.7858,-18C554.887,-18 563.6217,-18 572.3374,-18"/>
<polygon fill="#000000" stroke="#000000" points="572.521,-21.5001 582.521,-18 572.521,-14.5001 572.521,-21.5001"/>
</g>
<!-- Output_Stage -->
<g id="node6" class="node">
<title>Output_Stage</title>
<polygon fill="none" stroke="#000000" points="813.5412,-36 723.5582,-36 723.5582,0 813.5412,0 813.5412,-36"/>
<text text-anchor="middle" x="768.5497" y="-13.8" font-family="Times,serif" font-size="14.00" fill="#000000">Output Stage</text>
</g>
<!-- Low_Pass&#45;&gt;Output_Stage -->
<g id="edge5" class="edge">
<title>Low_Pass&#45;&gt;Output_Stage</title>
<path fill="none" stroke="#000000" d="M687.9558,-18C696.3348,-18 705.0223,-18 713.4554,-18"/>
<polygon fill="#000000" stroke="#000000" points="713.5781,-21.5001 723.5781,-18 713.5781,-14.5001 713.5781,-21.5001"/>
</g>
<!-- Voltage_Output -->
<g id="node7" class="node">
<title>Voltage_Output</title>
<polygon fill="none" stroke="#000000" points="951.8524,-36 849.442,-36 849.442,0 951.8524,0 951.8524,-36"/>
<text text-anchor="middle" x="900.6472" y="-13.8" font-family="Times,serif" font-size="14.00" fill="#000000">Voltage Output</text>
</g>
<!-- Output_Stage&#45;&gt;Voltage_Output -->
<g id="edge6" class="edge">
<title>Output_Stage&#45;&gt;Voltage_Output</title>
<path fill="none" stroke="#000000" d="M813.6407,-18C821.9136,-18 830.676,-18 839.3295,-18"/>
<polygon fill="#000000" stroke="#000000" points="839.4021,-21.5001 849.402,-18 839.402,-14.5001 839.4021,-21.5001"/>
</g>
</g>
</svg>
