<?xml version="1.0" encoding="UTF-8" standalone="no"?>
<!DOCTYPE svg PUBLIC "-//W3C//DTD SVG 1.1//EN"
 "http://www.w3.org/Graphics/SVG/1.1/DTD/svg11.dtd">
<!-- Generated by graphviz version 2.40.1 (20161225.0304)
 -->
<!-- Title: G Pages: 1 -->
<svg width="1779pt" height="116pt"
 viewBox="0.00 0.00 1779.36 116.00" xmlns="http://www.w3.org/2000/svg" xmlns:xlink="http://www.w3.org/1999/xlink">
<g id="graph0" class="graph" transform="scale(1 1) rotate(0) translate(4 112)">
<title>G</title>
<polygon fill="#ffffff" stroke="transparent" points="-4,4 -4,-112 1775.3604,-112 1775.3604,4 -4,4"/>
<g id="clust1" class="cluster">
<title>cluster_0</title>
<polygon fill="none" stroke="#000000" stroke-dasharray="5,2" points="8,-8 8,-100 1298.9704,-100 1298.9704,-8 8,-8"/>
<text text-anchor="middle" x="653.4852" y="-83.4" font-family="Times,serif" font-size="14.00" fill="#000000">Analog Signal Conditioning</text>
</g>
<!-- Sensor -->
<g id="node1" class="node">
<title>Sensor</title>
<polygon fill="none" stroke="#000000" points="114.5816,-57.6019 15.8056,-57.6019 15.8056,-16.3981 114.5816,-16.3981 114.5816,-57.6019"/>
<text text-anchor="middle" x="65.1936" y="-41.2" font-family="Times,serif" font-size="14.00" fill="#000000">Piezoelectric</text>
<text text-anchor="middle" x="65.1936" y="-24.4" font-family="Times,serif" font-size="14.00" fill="#000000">Accelerometer</text>
</g>
<!-- ChargeAmp -->
<g id="node2" class="node">
<title>ChargeAmp</title>
<polygon fill="none" stroke="#000000" points="344.0105,-55 228.7479,-55 228.7479,-19 344.0105,-19 344.0105,-55"/>
<text text-anchor="middle" x="286.3792" y="-32.8" font-family="Times,serif" font-size="14.00" fill="#000000">Charge Amplifier</text>
</g>
<!-- Sensor&#45;&gt;ChargeAmp -->
<g id="edge1" class="edge">
<title>Sensor&#45;&gt;ChargeAmp</title>
<path fill="none" stroke="#000000" d="M114.5567,-37C145.1336,-37 184.8292,-37 218.3618,-37"/>
<polygon fill="#000000" stroke="#000000" points="218.5537,-40.5001 228.5536,-37 218.5536,-33.5001 218.5537,-40.5001"/>
<text text-anchor="middle" x="171.6004" y="-41.2" font-family="Times,serif" font-size="14.00" fill="#000000">Charge</text>
</g>
<!-- LowPassFilter -->
<g id="node3" class="node">
<title>LowPassFilter</title>
<polygon fill="none" stroke="#000000" points="566.6419,-57.6019 462.1349,-57.6019 462.1349,-16.3981 566.6419,-16.3981 566.6419,-57.6019"/>
<text text-anchor="middle" x="514.3884" y="-41.2" font-family="Times,serif" font-size="14.00" fill="#000000">Low&#45;pass Filter</text>
<text text-anchor="middle" x="514.3884" y="-24.4" font-family="Times,serif" font-size="14.00" fill="#000000">(0.25 Hz &#45;3dB)</text>
</g>
<!-- ChargeAmp&#45;&gt;LowPassFilter -->
<g id="edge2" class="edge">
<title>ChargeAmp&#45;&gt;LowPassFilter</title>
<path fill="none" stroke="#000000" d="M344.2103,-37C377.0907,-37 418.2821,-37 451.9033,-37"/>
<polygon fill="#000000" stroke="#000000" points="452.0768,-40.5001 462.0768,-37 452.0768,-33.5001 452.0768,-40.5001"/>
<text text-anchor="middle" x="403.1033" y="-41.2" font-family="Times,serif" font-size="14.00" fill="#000000">Voltage</text>
</g>
<!-- GainStage -->
<g id="node4" class="node">
<title>GainStage</title>
<polygon fill="none" stroke="#000000" points="801.3602,-57.6019 684.989,-57.6019 684.989,-16.3981 801.3602,-16.3981 801.3602,-57.6019"/>
<text text-anchor="middle" x="743.1746" y="-41.2" font-family="Times,serif" font-size="14.00" fill="#000000">Gain Stage</text>
<text text-anchor="middle" x="743.1746" y="-24.4" font-family="Times,serif" font-size="14.00" fill="#000000">(Adjustable Gain)</text>
</g>
<!-- LowPassFilter&#45;&gt;GainStage -->
<g id="edge3" class="edge">
<title>LowPassFilter&#45;&gt;GainStage</title>
<path fill="none" stroke="#000000" d="M566.5898,-37C598.6389,-37 640.0452,-37 674.7063,-37"/>
<polygon fill="#000000" stroke="#000000" points="674.7582,-40.5001 684.7581,-37 674.7581,-33.5001 674.7582,-40.5001"/>
<text text-anchor="middle" x="625.6735" y="-58" font-family="Times,serif" font-size="14.00" fill="#000000">Filtered</text>
<text text-anchor="middle" x="625.6735" y="-41.2" font-family="Times,serif" font-size="14.00" fill="#000000">Voltage</text>
</g>
<!-- Buff_Amp -->
<g id="node5" class="node">
<title>Buff_Amp</title>
<polygon fill="none" stroke="#000000" points="1044.4184,-52 932.9422,-52 932.9422,-16 1044.4184,-16 1044.4184,-52"/>
<text text-anchor="middle" x="988.6803" y="-29.8" font-family="Times,serif" font-size="14.00" fill="#000000">Buffer Amplifier</text>
</g>
<!-- GainStage&#45;&gt;Buff_Amp -->
<g id="edge4" class="edge">
<title>GainStage&#45;&gt;Buff_Amp</title>
<path fill="none" stroke="#000000" d="M801.6674,-36.2852C837.9663,-35.8417 884.7056,-35.2705 922.3771,-34.8102"/>
<polygon fill="#000000" stroke="#000000" points="922.7893,-38.3055 932.7457,-34.6835 922.7037,-31.306 922.7893,-38.3055"/>
<text text-anchor="middle" x="867.2893" y="-57" font-family="Times,serif" font-size="14.00" fill="#000000">Amplified</text>
<text text-anchor="middle" x="867.2893" y="-40.2" font-family="Times,serif" font-size="14.00" fill="#000000">Voltage</text>
</g>
<!-- AntiAliasFilter -->
<g id="node6" class="node">
<title>AntiAliasFilter</title>
<polygon fill="none" stroke="#000000" points="1290.9322,-57.6019 1168.085,-57.6019 1168.085,-16.3981 1290.9322,-16.3981 1290.9322,-57.6019"/>
<text text-anchor="middle" x="1229.5086" y="-41.2" font-family="Times,serif" font-size="14.00" fill="#000000">Anti&#45;aliasing Filter</text>
<text text-anchor="middle" x="1229.5086" y="-24.4" font-family="Times,serif" font-size="14.00" fill="#000000">(2 Hz cut&#45;off)</text>
</g>
<!-- Buff_Amp&#45;&gt;AntiAliasFilter -->
<g id="edge5" class="edge">
<title>Buff_Amp&#45;&gt;AntiAliasFilter</title>
<path fill="none" stroke="#000000" d="M1044.5365,-34.6958C1078.3212,-35.1167 1121.7322,-35.6574 1158.0079,-36.1093"/>
<polygon fill="#000000" stroke="#000000" points="1157.9934,-39.6093 1168.0363,-36.2342 1158.0807,-32.6099 1157.9934,-39.6093"/>
<text text-anchor="middle" x="1106.173" y="-57" font-family="Times,serif" font-size="14.00" fill="#000000">Buffered</text>
<text text-anchor="middle" x="1106.173" y="-40.2" font-family="Times,serif" font-size="14.00" fill="#000000">Voltage</text>
</g>
<!-- ADC -->
<g id="node7" class="node">
<title>ADC</title>
<polygon fill="none" stroke="#000000" points="1523.9218,-57.6019 1407.3066,-57.6019 1407.3066,-16.3981 1523.9218,-16.3981 1523.9218,-57.6019"/>
<text text-anchor="middle" x="1465.6142" y="-41.2" font-family="Times,serif" font-size="14.00" fill="#000000">Analog&#45;to&#45;Digital</text>
<text text-anchor="middle" x="1465.6142" y="-24.4" font-family="Times,serif" font-size="14.00" fill="#000000">Converter</text>
</g>
<!-- AntiAliasFilter&#45;&gt;ADC -->
<g id="edge6" class="edge">
<title>AntiAliasFilter&#45;&gt;ADC</title>
<path fill="none" stroke="#000000" d="M1291.2342,-37C1323.6759,-37 1363.5303,-37 1396.9454,-37"/>
<polygon fill="#000000" stroke="#000000" points="1397.0935,-40.5001 1407.0935,-37 1397.0934,-33.5001 1397.0935,-40.5001"/>
<text text-anchor="middle" x="1349.2155" y="-41.2" font-family="Times,serif" font-size="14.00" fill="#000000">Analog Signal</text>
</g>
<!-- DSP -->
<g id="node8" class="node">
<title>DSP</title>
<polygon fill="none" stroke="#000000" points="1771.5764,-57.6019 1637.7138,-57.6019 1637.7138,-16.3981 1771.5764,-16.3981 1771.5764,-57.6019"/>
<text text-anchor="middle" x="1704.6451" y="-41.2" font-family="Times,serif" font-size="14.00" fill="#000000">Digital Signal</text>
<text text-anchor="middle" x="1704.6451" y="-24.4" font-family="Times,serif" font-size="14.00" fill="#000000">Processing &amp; Output</text>
</g>
<!-- ADC&#45;&gt;DSP -->
<g id="edge7" class="edge">
<title>ADC&#45;&gt;DSP</title>
<path fill="none" stroke="#000000" d="M1523.7821,-37C1554.9657,-37 1593.7941,-37 1627.4712,-37"/>
<polygon fill="#000000" stroke="#000000" points="1627.7432,-40.5001 1637.7432,-37 1627.7432,-33.5001 1627.7432,-40.5001"/>
<text text-anchor="middle" x="1580.8488" y="-41.2" font-family="Times,serif" font-size="14.00" fill="#000000">Digital Signal</text>
</g>
</g>
</svg>
