<?xml version="1.0" encoding="UTF-8" standalone="no"?>
<!DOCTYPE svg PUBLIC "-//W3C//DTD SVG 1.1//EN"
 "http://www.w3.org/Graphics/SVG/1.1/DTD/svg11.dtd">
<!-- Generated by graphviz version 2.40.1 (20161225.0304)
 -->
<!-- Title: G Pages: 1 -->
<svg width="993pt" height="44pt"
 viewBox="0.00 0.00 992.81 44.00" xmlns="http://www.w3.org/2000/svg" xmlns:xlink="http://www.w3.org/1999/xlink">
<g id="graph0" class="graph" transform="scale(1 1) rotate(0) translate(4 40)">
<title>G</title>
<polygon fill="#ffffff" stroke="transparent" points="-4,4 -4,-40 988.8104,-40 988.8104,4 -4,4"/>
<!-- Thermistor -->
<g id="node1" class="node">
<title>Thermistor</title>
<polygon fill="none" stroke="#000000" points="109.5513,-36 .1493,-36 .1493,0 109.5513,0 109.5513,-36"/>
<text text-anchor="middle" x="54.8503" y="-13.8" font-family="Times,serif" font-size="14.00" fill="#000000">NTC Thermistor</text>
</g>
<!-- Linearization Circuit -->
<g id="node2" class="node">
<title>Linearization Circuit</title>
<polygon fill="none" stroke="#000000" points="397.0826,-36 145.9064,-36 145.9064,0 397.0826,0 397.0826,-36"/>
<text text-anchor="middle" x="271.4945" y="-13.8" font-family="Times,serif" font-size="14.00" fill="#000000">Linearization Circuit (Resistor in parallel)</text>
</g>
<!-- Thermistor&#45;&gt;Linearization Circuit -->
<g id="edge1" class="edge">
<title>Thermistor&#45;&gt;Linearization Circuit</title>
<path fill="none" stroke="#000000" d="M109.7988,-18C117.905,-18 126.5427,-18 135.4486,-18"/>
<polygon fill="#000000" stroke="#000000" points="135.6034,-21.5001 145.6034,-18 135.6033,-14.5001 135.6034,-21.5001"/>
</g>
<!-- Buffer Amplifier -->
<g id="node3" class="node">
<title>Buffer Amplifier</title>
<polygon fill="none" stroke="#000000" points="544.6454,-36 433.1692,-36 433.1692,0 544.6454,0 544.6454,-36"/>
<text text-anchor="middle" x="488.9073" y="-13.8" font-family="Times,serif" font-size="14.00" fill="#000000">Buffer Amplifier</text>
</g>
<!-- Linearization Circuit&#45;&gt;Buffer Amplifier -->
<g id="edge2" class="edge">
<title>Linearization Circuit&#45;&gt;Buffer Amplifier</title>
<path fill="none" stroke="#000000" d="M397.3348,-18C406.1165,-18 414.7451,-18 422.9837,-18"/>
<polygon fill="#000000" stroke="#000000" points="423.1927,-21.5001 433.1927,-18 423.1927,-14.5001 423.1927,-21.5001"/>
</g>
<!-- Voltage Converter -->
<g id="node4" class="node">
<title>Voltage Converter</title>
<polygon fill="none" stroke="#000000" points="789.8242,-36 580.4268,-36 580.4268,0 789.8242,0 789.8242,-36"/>
<text text-anchor="middle" x="685.1255" y="-13.8" font-family="Times,serif" font-size="14.00" fill="#000000">Voltage to Temperature Converter</text>
</g>
<!-- Buffer Amplifier&#45;&gt;Voltage Converter -->
<g id="edge3" class="edge">
<title>Buffer Amplifier&#45;&gt;Voltage Converter</title>
<path fill="none" stroke="#000000" d="M544.6107,-18C552.7605,-18 561.3937,-18 570.2136,-18"/>
<polygon fill="#000000" stroke="#000000" points="570.2352,-21.5001 580.2352,-18 570.2352,-14.5001 570.2352,-21.5001"/>
</g>
<!-- Output Amplifier -->
<g id="node5" class="node">
<title>Output Amplifier</title>
<polygon fill="none" stroke="#000000" points="984.8532,-36 825.682,-36 825.682,0 984.8532,0 984.8532,-36"/>
<text text-anchor="middle" x="905.2676" y="-13.8" font-family="Times,serif" font-size="14.00" fill="#000000">Output Scaling Amplifier</text>
</g>
<!-- Voltage Converter&#45;&gt;Output Amplifier -->
<g id="edge4" class="edge">
<title>Voltage Converter&#45;&gt;Output Amplifier</title>
<path fill="none" stroke="#000000" d="M790.0386,-18C798.5416,-18 807.0856,-18 815.4672,-18"/>
<polygon fill="#000000" stroke="#000000" points="815.5968,-21.5001 825.5967,-18 815.5967,-14.5001 815.5968,-21.5001"/>
</g>
</g>
</svg>
