<?xml version="1.0" encoding="UTF-8" standalone="no"?>
<!DOCTYPE svg PUBLIC "-//W3C//DTD SVG 1.1//EN"
 "http://www.w3.org/Graphics/SVG/1.1/DTD/svg11.dtd">
<!-- Generated by graphviz version 2.40.1 (20161225.0304)
 -->
<!-- Title: G Pages: 1 -->
<svg width="1359pt" height="98pt"
 viewBox="0.00 0.00 1359.29 98.00" xmlns="http://www.w3.org/2000/svg" xmlns:xlink="http://www.w3.org/1999/xlink">
<g id="graph0" class="graph" transform="scale(1 1) rotate(0) translate(4 94)">
<title>G</title>
<polygon fill="#ffffff" stroke="transparent" points="-4,4 -4,-94 1355.2922,-94 1355.2922,4 -4,4"/>
<!-- PRESSURE_SENSORS -->
<g id="node1" class="node">
<title>PRESSURE_SENSORS</title>
<polygon fill="#d3d3d3" stroke="#000000" points="137.4359,-90 -.1455,-90 -.1455,-54 137.4359,-54 137.4359,-90"/>
<text text-anchor="middle" x="68.6452" y="-67.8" font-family="Times,serif" font-size="14.00" fill="#000000">Pressure Sensors (x8)</text>
</g>
<!-- INSTRUMENTATION_AMPS -->
<g id="node3" class="node">
<title>INSTRUMENTATION_AMPS</title>
<polygon fill="#d3d3d3" stroke="#000000" points="368.7187,-90 173.4807,-90 173.4807,-54 368.7187,-54 368.7187,-90"/>
<text text-anchor="middle" x="271.0997" y="-67.8" font-family="Times,serif" font-size="14.00" fill="#000000">Instrumentation Amplifiers (x8)</text>
</g>
<!-- PRESSURE_SENSORS&#45;&gt;INSTRUMENTATION_AMPS -->
<g id="edge1" class="edge">
<title>PRESSURE_SENSORS&#45;&gt;INSTRUMENTATION_AMPS</title>
<path fill="none" stroke="#000000" d="M137.4696,-72C145.7912,-72 154.4394,-72 163.1543,-72"/>
<polygon fill="#000000" stroke="#000000" points="163.3999,-75.5001 173.3999,-72 163.3999,-68.5001 163.3999,-75.5001"/>
</g>
<!-- TEMP_SENSORS -->
<g id="node2" class="node">
<title>TEMP_SENSORS</title>
<polygon fill="#d3d3d3" stroke="#000000" points="129.6721,-36 7.6183,-36 7.6183,0 129.6721,0 129.6721,-36"/>
<text text-anchor="middle" x="68.6452" y="-13.8" font-family="Times,serif" font-size="14.00" fill="#000000">Temp Sensors (x8)</text>
</g>
<!-- TEMP_LINEARIZATION -->
<g id="node4" class="node">
<title>TEMP_LINEARIZATION</title>
<polygon fill="#d3d3d3" stroke="#000000" points="367.5689,-36 174.6305,-36 174.6305,0 367.5689,0 367.5689,-36"/>
<text text-anchor="middle" x="271.0997" y="-13.8" font-family="Times,serif" font-size="14.00" fill="#000000">Temperature Linearization (x8)</text>
</g>
<!-- TEMP_SENSORS&#45;&gt;TEMP_LINEARIZATION -->
<g id="edge2" class="edge">
<title>TEMP_SENSORS&#45;&gt;TEMP_LINEARIZATION</title>
<path fill="none" stroke="#000000" d="M129.9376,-18C140.8294,-18 152.4557,-18 164.1841,-18"/>
<polygon fill="#000000" stroke="#000000" points="164.5014,-21.5001 174.5014,-18 164.5013,-14.5001 164.5014,-21.5001"/>
</g>
<!-- MUX -->
<g id="node5" class="node">
<title>MUX</title>
<polygon fill="#d3d3d3" stroke="#000000" points="576.1903,-63 405.1481,-63 405.1481,-27 576.1903,-27 576.1903,-63"/>
<text text-anchor="middle" x="490.6692" y="-40.8" font-family="Times,serif" font-size="14.00" fill="#000000">16&#45;to&#45;1 Analog Multiplexer</text>
</g>
<!-- INSTRUMENTATION_AMPS&#45;&gt;MUX -->
<g id="edge3" class="edge">
<title>INSTRUMENTATION_AMPS&#45;&gt;MUX</title>
<path fill="none" stroke="#000000" d="M369.0047,-59.9608C377.6352,-58.8996 386.3648,-57.8261 394.9768,-56.7671"/>
<polygon fill="#000000" stroke="#000000" points="395.5215,-60.2266 405.0195,-55.5322 394.6671,-53.2789 395.5215,-60.2266"/>
</g>
<!-- TEMP_LINEARIZATION&#45;&gt;MUX -->
<g id="edge4" class="edge">
<title>TEMP_LINEARIZATION&#45;&gt;MUX</title>
<path fill="none" stroke="#000000" d="M367.4061,-29.8426C376.6295,-30.9768 385.9819,-32.1268 395.1973,-33.26"/>
<polygon fill="#000000" stroke="#000000" points="394.7783,-36.7348 405.1307,-34.4815 395.6327,-29.7871 394.7783,-36.7348"/>
</g>
<!-- SAMPLE_HOLD -->
<g id="node6" class="node">
<title>SAMPLE_HOLD</title>
<polygon fill="#d3d3d3" stroke="#000000" points="758.8262,-63 612.297,-63 612.297,-27 758.8262,-27 758.8262,-63"/>
<text text-anchor="middle" x="685.5616" y="-40.8" font-family="Times,serif" font-size="14.00" fill="#000000">Sample &amp; Hold Circuit</text>
</g>
<!-- MUX&#45;&gt;SAMPLE_HOLD -->
<g id="edge5" class="edge">
<title>MUX&#45;&gt;SAMPLE_HOLD</title>
<path fill="none" stroke="#000000" d="M576.4355,-45C584.9301,-45 593.5448,-45 602.0164,-45"/>
<polygon fill="#000000" stroke="#000000" points="602.2614,-48.5001 612.2613,-45 602.2613,-41.5001 602.2614,-48.5001"/>
</g>
<!-- ANTI_ALIASING -->
<g id="node7" class="node">
<title>ANTI_ALIASING</title>
<polygon fill="#d3d3d3" stroke="#000000" points="921.4173,-63 794.7859,-63 794.7859,-27 921.4173,-27 921.4173,-63"/>
<text text-anchor="middle" x="858.1016" y="-40.8" font-family="Times,serif" font-size="14.00" fill="#000000">Anti&#45;Aliasing Filter</text>
</g>
<!-- SAMPLE_HOLD&#45;&gt;ANTI_ALIASING -->
<g id="edge6" class="edge">
<title>SAMPLE_HOLD&#45;&gt;ANTI_ALIASING</title>
<path fill="none" stroke="#000000" d="M758.7341,-45C767.2228,-45 775.8847,-45 784.3807,-45"/>
<polygon fill="#000000" stroke="#000000" points="784.6389,-48.5001 794.6388,-45 784.6388,-41.5001 784.6389,-48.5001"/>
</g>
<!-- ADC -->
<g id="node8" class="node">
<title>ADC</title>
<polygon fill="#d3d3d3" stroke="#000000" points="1133.1867,-63 957.6169,-63 957.6169,-27 1133.1867,-27 1133.1867,-63"/>
<text text-anchor="middle" x="1045.4018" y="-40.8" font-family="Times,serif" font-size="14.00" fill="#000000">Analog&#45;to&#45;Digital Converter</text>
</g>
<!-- ANTI_ALIASING&#45;&gt;ADC -->
<g id="edge7" class="edge">
<title>ANTI_ALIASING&#45;&gt;ADC</title>
<path fill="none" stroke="#000000" d="M921.5129,-45C929.8273,-45 938.498,-45 947.2212,-45"/>
<polygon fill="#000000" stroke="#000000" points="947.4674,-48.5001 957.4673,-45 947.4673,-41.5001 947.4674,-48.5001"/>
</g>
<!-- DATA_INTERFACE -->
<g id="node9" class="node">
<title>DATA_INTERFACE</title>
<polygon fill="#d3d3d3" stroke="#000000" points="1351.2912,-63 1169.2952,-63 1169.2952,-27 1351.2912,-27 1351.2912,-63"/>
<text text-anchor="middle" x="1260.2932" y="-40.8" font-family="Times,serif" font-size="14.00" fill="#000000">Digital Interface to Computer</text>
</g>
<!-- ADC&#45;&gt;DATA_INTERFACE -->
<g id="edge8" class="edge">
<title>ADC&#45;&gt;DATA_INTERFACE</title>
<path fill="none" stroke="#000000" d="M1133.4264,-45C1141.9239,-45 1150.5891,-45 1159.1997,-45"/>
<polygon fill="#000000" stroke="#000000" points="1159.2695,-48.5001 1169.2694,-45 1159.2694,-41.5001 1159.2695,-48.5001"/>
</g>
</g>
</svg>
