<?xml version="1.0" encoding="UTF-8" standalone="no"?>
<!DOCTYPE svg PUBLIC "-//W3C//DTD SVG 1.1//EN"
 "http://www.w3.org/Graphics/SVG/1.1/DTD/svg11.dtd">
<!-- Generated by graphviz version 2.40.1 (20161225.0304)
 -->
<!-- Title: G Pages: 1 -->
<svg width="1064pt" height="50pt"
 viewBox="0.00 0.00 1064.47 49.60" xmlns="http://www.w3.org/2000/svg" xmlns:xlink="http://www.w3.org/1999/xlink">
<g id="graph0" class="graph" transform="scale(1 1) rotate(0) translate(4 45.6)">
<title>G</title>
<polygon fill="#ffffff" stroke="transparent" points="-4,4 -4,-45.6 1060.4716,-45.6 1060.4716,4 -4,4"/>
<!-- PiezoSensor -->
<g id="node1" class="node">
<title>PiezoSensor</title>
<polygon fill="none" stroke="#000000" points="98.5816,-41.4019 -.1944,-41.4019 -.1944,-.1981 98.5816,-.1981 98.5816,-41.4019"/>
<text text-anchor="middle" x="49.1936" y="-25" font-family="Times,serif" font-size="14.00" fill="#000000">Piezoelectric</text>
<text text-anchor="middle" x="49.1936" y="-8.2" font-family="Times,serif" font-size="14.00" fill="#000000">Accelerometer</text>
</g>
<!-- ChargeAmp -->
<g id="node2" class="node">
<title>ChargeAmp</title>
<polygon fill="none" stroke="#000000" points="249.5841,-38.8 134.3215,-38.8 134.3215,-2.8 249.5841,-2.8 249.5841,-38.8"/>
<text text-anchor="middle" x="191.9528" y="-16.6" font-family="Times,serif" font-size="14.00" fill="#000000">Charge Amplifier</text>
</g>
<!-- PiezoSensor&#45;&gt;ChargeAmp -->
<g id="edge1" class="edge">
<title>PiezoSensor&#45;&gt;ChargeAmp</title>
<path fill="none" stroke="#000000" d="M98.7232,-20.8C106.9425,-20.8 115.5895,-20.8 124.1672,-20.8"/>
<polygon fill="#000000" stroke="#000000" points="124.175,-24.3001 134.1749,-20.8 124.1749,-17.3001 124.175,-24.3001"/>
</g>
<!-- LowPassFilter -->
<g id="node3" class="node">
<title>LowPassFilter</title>
<polygon fill="none" stroke="#000000" points="390.5721,-41.4019 285.5005,-41.4019 285.5005,-.1981 390.5721,-.1981 390.5721,-41.4019"/>
<text text-anchor="middle" x="338.0363" y="-25" font-family="Times,serif" font-size="14.00" fill="#000000">Low&#45;Pass Filter</text>
<text text-anchor="middle" x="338.0363" y="-8.2" font-family="Times,serif" font-size="14.00" fill="#000000">(f_c=2Hz)</text>
</g>
<!-- ChargeAmp&#45;&gt;LowPassFilter -->
<g id="edge2" class="edge">
<title>ChargeAmp&#45;&gt;LowPassFilter</title>
<path fill="none" stroke="#000000" d="M249.6889,-20.8C258.0802,-20.8 266.7538,-20.8 275.2392,-20.8"/>
<polygon fill="#000000" stroke="#000000" points="275.4645,-24.3001 285.4645,-20.8 275.4645,-17.3001 275.4645,-24.3001"/>
</g>
<!-- HighPassFilter -->
<g id="node4" class="node">
<title>HighPassFilter</title>
<polygon fill="none" stroke="#000000" points="534.1156,-41.4019 426.3666,-41.4019 426.3666,-.1981 534.1156,-.1981 534.1156,-41.4019"/>
<text text-anchor="middle" x="480.2411" y="-25" font-family="Times,serif" font-size="14.00" fill="#000000">High&#45;Pass Filter</text>
<text text-anchor="middle" x="480.2411" y="-8.2" font-family="Times,serif" font-size="14.00" fill="#000000">(f_c=0.25Hz)</text>
</g>
<!-- LowPassFilter&#45;&gt;HighPassFilter -->
<g id="edge3" class="edge">
<title>LowPassFilter&#45;&gt;HighPassFilter</title>
<path fill="none" stroke="#000000" d="M390.5841,-20.8C399.0004,-20.8 407.7895,-20.8 416.4334,-20.8"/>
<polygon fill="#000000" stroke="#000000" points="416.4828,-24.3001 426.4827,-20.8 416.4827,-17.3001 416.4828,-24.3001"/>
</g>
<!-- GainStage -->
<g id="node5" class="node">
<title>GainStage</title>
<polygon fill="none" stroke="#000000" points="647.6495,-38.8 570.0207,-38.8 570.0207,-2.8 647.6495,-2.8 647.6495,-38.8"/>
<text text-anchor="middle" x="608.8351" y="-16.6" font-family="Times,serif" font-size="14.00" fill="#000000">Gain Stage</text>
</g>
<!-- HighPassFilter&#45;&gt;GainStage -->
<g id="edge4" class="edge">
<title>HighPassFilter&#45;&gt;GainStage</title>
<path fill="none" stroke="#000000" d="M534.0314,-20.8C542.5452,-20.8 551.3116,-20.8 559.7116,-20.8"/>
<polygon fill="#000000" stroke="#000000" points="559.7344,-24.3001 569.7344,-20.8 559.7343,-17.3001 559.7344,-24.3001"/>
</g>
<!-- AntiAliasing -->
<g id="node7" class="node">
<title>AntiAliasing</title>
<polygon fill="none" stroke="#000000" points="810.4657,-38.8 683.8343,-38.8 683.8343,-2.8 810.4657,-2.8 810.4657,-38.8"/>
<text text-anchor="middle" x="747.15" y="-16.6" font-family="Times,serif" font-size="14.00" fill="#000000">Anti&#45;Aliasing Filter</text>
</g>
<!-- GainStage&#45;&gt;AntiAliasing -->
<g id="edge5" class="edge">
<title>GainStage&#45;&gt;AntiAliasing</title>
<path fill="none" stroke="#000000" d="M647.7316,-20.8C655.8592,-20.8 664.6814,-20.8 673.6014,-20.8"/>
<polygon fill="#000000" stroke="#000000" points="673.6821,-24.3001 683.6821,-20.8 673.682,-17.3001 673.6821,-24.3001"/>
</g>
<!-- Output -->
<g id="node6" class="node">
<title>Output</title>
<polygon fill="none" stroke="#000000" points="1056.4355,-41.4019 996.5799,-41.4019 996.5799,-.1981 1056.4355,-.1981 1056.4355,-41.4019"/>
<text text-anchor="middle" x="1026.5077" y="-25" font-family="Times,serif" font-size="14.00" fill="#000000">Output</text>
<text text-anchor="middle" x="1026.5077" y="-8.2" font-family="Times,serif" font-size="14.00" fill="#000000">(1 Vpp)</text>
</g>
<!-- ADC -->
<g id="node8" class="node">
<title>ADC</title>
<polygon fill="none" stroke="#000000" points="960.5368,-41.4019 846.5648,-41.4019 846.5648,-.1981 960.5368,-.1981 960.5368,-41.4019"/>
<text text-anchor="middle" x="903.5508" y="-25" font-family="Times,serif" font-size="14.00" fill="#000000">Analog to Digital</text>
<text text-anchor="middle" x="903.5508" y="-8.2" font-family="Times,serif" font-size="14.00" fill="#000000">Converter</text>
</g>
<!-- AntiAliasing&#45;&gt;ADC -->
<g id="edge6" class="edge">
<title>AntiAliasing&#45;&gt;ADC</title>
<path fill="none" stroke="#000000" d="M810.7642,-20.8C819.1817,-20.8 827.8329,-20.8 836.3089,-20.8"/>
<polygon fill="#000000" stroke="#000000" points="836.5334,-24.3001 846.5334,-20.8 836.5333,-17.3001 836.5334,-24.3001"/>
</g>
<!-- ADC&#45;&gt;Output -->
<g id="edge7" class="edge">
<title>ADC&#45;&gt;Output</title>
<path fill="none" stroke="#000000" d="M960.7097,-20.8C969.3524,-20.8 978.1096,-20.8 986.2934,-20.8"/>
<polygon fill="#000000" stroke="#000000" points="986.3012,-24.3001 996.3011,-20.8 986.3011,-17.3001 986.3012,-24.3001"/>
</g>
</g>
</svg>
