<?xml version="1.0" encoding="UTF-8" standalone="no"?>
<!DOCTYPE svg PUBLIC "-//W3C//DTD SVG 1.1//EN"
 "http://www.w3.org/Graphics/SVG/1.1/DTD/svg11.dtd">
<!-- Generated by graphviz version 2.40.1 (20161225.0304)
 -->
<!-- Title: G Pages: 1 -->
<svg width="674pt" height="44pt"
 viewBox="0.00 0.00 674.14 44.00" xmlns="http://www.w3.org/2000/svg" xmlns:xlink="http://www.w3.org/1999/xlink">
<g id="graph0" class="graph" transform="scale(1 1) rotate(0) translate(4 40)">
<title>G</title>
<polygon fill="#ffffff" stroke="transparent" points="-4,4 -4,-40 670.1446,-40 670.1446,4 -4,4"/>
<!-- Sensor -->
<g id="node1" class="node">
<title>Sensor</title>
<polygon fill="none" stroke="#000000" points="54.1537,-36 -.0513,-36 -.0513,0 54.1537,0 54.1537,-36"/>
<text text-anchor="middle" x="27.0512" y="-13.8" font-family="Times,serif" font-size="14.00" fill="#000000">Sensor</text>
</g>
<!-- ChargeAmplifier -->
<g id="node2" class="node">
<title>ChargeAmplifier</title>
<polygon fill="none" stroke="#000000" points="201.5498,-36 90.2862,-36 90.2862,0 201.5498,0 201.5498,-36"/>
<text text-anchor="middle" x="145.918" y="-13.8" font-family="Times,serif" font-size="14.00" fill="#000000">ChargeAmplifier</text>
</g>
<!-- Sensor&#45;&gt;ChargeAmplifier -->
<g id="edge1" class="edge">
<title>Sensor&#45;&gt;ChargeAmplifier</title>
<path fill="none" stroke="#000000" d="M54.3216,-18C62.0905,-18 70.9085,-18 79.9304,-18"/>
<polygon fill="#000000" stroke="#000000" points="80.1581,-21.5001 90.1581,-18 80.1581,-14.5001 80.1581,-21.5001"/>
</g>
<!-- LowPassFilter -->
<g id="node3" class="node">
<title>LowPassFilter</title>
<polygon fill="none" stroke="#000000" points="334.5465,-36 237.7959,-36 237.7959,0 334.5465,0 334.5465,-36"/>
<text text-anchor="middle" x="286.1712" y="-13.8" font-family="Times,serif" font-size="14.00" fill="#000000">LowPassFilter</text>
</g>
<!-- ChargeAmplifier&#45;&gt;LowPassFilter -->
<g id="edge2" class="edge">
<title>ChargeAmplifier&#45;&gt;LowPassFilter</title>
<path fill="none" stroke="#000000" d="M201.7528,-18C210.225,-18 218.9879,-18 227.5179,-18"/>
<polygon fill="#000000" stroke="#000000" points="227.7721,-21.5001 237.7721,-18 227.772,-14.5001 227.7721,-21.5001"/>
</g>
<!-- Buffer -->
<g id="node4" class="node">
<title>Buffer</title>
<polygon fill="none" stroke="#000000" points="424.6088,-36 370.6088,-36 370.6088,0 424.6088,0 424.6088,-36"/>
<text text-anchor="middle" x="397.6088" y="-13.8" font-family="Times,serif" font-size="14.00" fill="#000000">Buffer</text>
</g>
<!-- LowPassFilter&#45;&gt;Buffer -->
<g id="edge3" class="edge">
<title>LowPassFilter&#45;&gt;Buffer</title>
<path fill="none" stroke="#000000" d="M334.7252,-18C343.3031,-18 352.1114,-18 360.3186,-18"/>
<polygon fill="#000000" stroke="#000000" points="360.3303,-21.5001 370.3303,-18 360.3302,-14.5001 360.3303,-21.5001"/>
</g>
<!-- ADC -->
<g id="node5" class="node">
<title>ADC</title>
<polygon fill="none" stroke="#000000" points="514.6088,-36 460.6088,-36 460.6088,0 514.6088,0 514.6088,-36"/>
<text text-anchor="middle" x="487.6088" y="-13.8" font-family="Times,serif" font-size="14.00" fill="#000000">ADC</text>
</g>
<!-- Buffer&#45;&gt;ADC -->
<g id="edge4" class="edge">
<title>Buffer&#45;&gt;ADC</title>
<path fill="none" stroke="#000000" d="M424.6118,-18C432.6365,-18 441.5753,-18 450.1397,-18"/>
<polygon fill="#000000" stroke="#000000" points="450.3139,-21.5001 460.3138,-18 450.3138,-14.5001 450.3139,-21.5001"/>
</g>
<!-- DigitalProcessing -->
<g id="node6" class="node">
<title>DigitalProcessing</title>
<polygon fill="none" stroke="#000000" points="665.9134,-36 550.84,-36 550.84,0 665.9134,0 665.9134,-36"/>
<text text-anchor="middle" x="608.3767" y="-13.8" font-family="Times,serif" font-size="14.00" fill="#000000">DigitalProcessing</text>
</g>
<!-- ADC&#45;&gt;DigitalProcessing -->
<g id="edge5" class="edge">
<title>ADC&#45;&gt;DigitalProcessing</title>
<path fill="none" stroke="#000000" d="M514.7115,-18C522.5764,-18 531.5369,-18 540.7251,-18"/>
<polygon fill="#000000" stroke="#000000" points="540.7437,-21.5001 550.7436,-18 540.7436,-14.5001 540.7437,-21.5001"/>
</g>
</g>
</svg>
