<?xml version="1.0" encoding="UTF-8" standalone="no"?>
<!DOCTYPE svg PUBLIC "-//W3C//DTD SVG 1.1//EN"
 "http://www.w3.org/Graphics/SVG/1.1/DTD/svg11.dtd">
<!-- Generated by graphviz version 2.40.1 (20161225.0304)
 -->
<!-- Title: G Pages: 1 -->
<svg width="862pt" height="101pt"
 viewBox="0.00 0.00 862.18 101.00" xmlns="http://www.w3.org/2000/svg" xmlns:xlink="http://www.w3.org/1999/xlink">
<g id="graph0" class="graph" transform="scale(1 1) rotate(0) translate(4 97)">
<title>G</title>
<polygon fill="#ffffff" stroke="transparent" points="-4,4 -4,-97 858.1812,-97 858.1812,4 -4,4"/>
<g id="clust1" class="cluster">
<title>cluster_0</title>
<polygon fill="none" stroke="#000000" points="126.3872,-8 126.3872,-85 631.5486,-85 631.5486,-8 126.3872,-8"/>
<text text-anchor="middle" x="378.9679" y="-68.4" font-family="Times,serif" font-size="14.00" fill="#000000">Signal Conditioning</text>
</g>
<!-- Accelerometer -->
<g id="node1" class="node">
<title>Accelerometer</title>
<polygon fill="none" stroke="#000000" points="98.5816,-52 -.1944,-52 -.1944,-16 98.5816,-16 98.5816,-52"/>
<text text-anchor="middle" x="49.1936" y="-29.8" font-family="Times,serif" font-size="14.00" fill="#000000">Accelerometer</text>
</g>
<!-- ChargeAmplifier -->
<g id="node2" class="node">
<title>ChargeAmplifier</title>
<polygon fill="none" stroke="#000000" points="245.8346,-52 134.571,-52 134.571,-16 245.8346,-16 245.8346,-52"/>
<text text-anchor="middle" x="190.2028" y="-29.8" font-family="Times,serif" font-size="14.00" fill="#000000">ChargeAmplifier</text>
</g>
<!-- Accelerometer&#45;&gt;ChargeAmplifier -->
<g id="edge1" class="edge">
<title>Accelerometer&#45;&gt;ChargeAmplifier</title>
<path fill="none" stroke="#000000" d="M98.5118,-34C106.8459,-34 115.6154,-34 124.2918,-34"/>
<polygon fill="#000000" stroke="#000000" points="124.4027,-37.5001 134.4026,-34 124.4026,-30.5001 124.4027,-37.5001"/>
</g>
<!-- LowPassFilter -->
<g id="node3" class="node">
<title>LowPassFilter</title>
<polygon fill="none" stroke="#000000" points="378.8313,-52 282.0807,-52 282.0807,-16 378.8313,-16 378.8313,-52"/>
<text text-anchor="middle" x="330.456" y="-29.8" font-family="Times,serif" font-size="14.00" fill="#000000">LowPassFilter</text>
</g>
<!-- ChargeAmplifier&#45;&gt;LowPassFilter -->
<g id="edge2" class="edge">
<title>ChargeAmplifier&#45;&gt;LowPassFilter</title>
<path fill="none" stroke="#000000" d="M246.0376,-27.3762C254.5098,-27.2247 263.2727,-27.2096 271.8027,-27.3309"/>
<polygon fill="#000000" stroke="#000000" points="271.9855,-30.8355 282.0569,-27.5466 272.1327,-23.837 271.9855,-30.8355"/>
</g>
<!-- ChargeAmplifier&#45;&gt;LowPassFilter -->
<g id="edge7" class="edge">
<title>ChargeAmplifier&#45;&gt;LowPassFilter</title>
<path fill="none" stroke="#000000" d="M246.0376,-40.6238C254.5098,-40.7753 263.2727,-40.7904 271.8027,-40.6691"/>
<polygon fill="#000000" stroke="#000000" points="272.1327,-44.163 282.0569,-40.4534 271.9855,-37.1645 272.1327,-44.163"/>
</g>
<!-- Buffer -->
<g id="node4" class="node">
<title>Buffer</title>
<polygon fill="none" stroke="#000000" points="468.8936,-52 414.8936,-52 414.8936,-16 468.8936,-16 468.8936,-52"/>
<text text-anchor="middle" x="441.8936" y="-29.8" font-family="Times,serif" font-size="14.00" fill="#000000">Buffer</text>
</g>
<!-- LowPassFilter&#45;&gt;Buffer -->
<g id="edge3" class="edge">
<title>LowPassFilter&#45;&gt;Buffer</title>
<path fill="none" stroke="#000000" d="M379.01,-27.2999C387.5879,-27.1799 396.3962,-27.2764 404.6034,-27.5895"/>
<polygon fill="#000000" stroke="#000000" points="404.4492,-31.0861 414.6151,-28.1017 404.807,-24.0952 404.4492,-31.0861"/>
</g>
<!-- LowPassFilter&#45;&gt;Buffer -->
<g id="edge8" class="edge">
<title>LowPassFilter&#45;&gt;Buffer</title>
<path fill="none" stroke="#000000" d="M379.01,-40.7001C387.5879,-40.8201 396.3962,-40.7236 404.6034,-40.4105"/>
<polygon fill="#000000" stroke="#000000" points="404.807,-43.9048 414.6151,-39.8983 404.4492,-36.9139 404.807,-43.9048"/>
</g>
<!-- AntiAliasingFilter -->
<g id="node5" class="node">
<title>AntiAliasingFilter</title>
<polygon fill="none" stroke="#000000" points="623.3766,-52 505.0656,-52 505.0656,-16 623.3766,-16 623.3766,-52"/>
<text text-anchor="middle" x="564.2211" y="-29.8" font-family="Times,serif" font-size="14.00" fill="#000000">AntiAliasingFilter</text>
</g>
<!-- Buffer&#45;&gt;AntiAliasingFilter -->
<g id="edge4" class="edge">
<title>Buffer&#45;&gt;AntiAliasingFilter</title>
<path fill="none" stroke="#000000" d="M469.042,-28.28C476.7132,-27.7596 485.4312,-27.4365 494.4026,-27.3104"/>
<polygon fill="#000000" stroke="#000000" points="494.6174,-30.8094 504.5971,-27.2519 494.5772,-23.8095 494.6174,-30.8094"/>
</g>
<!-- Buffer&#45;&gt;AntiAliasingFilter -->
<g id="edge9" class="edge">
<title>Buffer&#45;&gt;AntiAliasingFilter</title>
<path fill="none" stroke="#000000" d="M469.042,-39.72C476.7132,-40.2404 485.4312,-40.5635 494.4026,-40.6896"/>
<polygon fill="#000000" stroke="#000000" points="494.5772,-44.1905 504.5971,-40.7481 494.6174,-37.1906 494.5772,-44.1905"/>
</g>
<!-- ADC -->
<g id="node6" class="node">
<title>ADC</title>
<polygon fill="none" stroke="#000000" points="713.5486,-52 659.5486,-52 659.5486,-16 713.5486,-16 713.5486,-52"/>
<text text-anchor="middle" x="686.5486" y="-29.8" font-family="Times,serif" font-size="14.00" fill="#000000">ADC</text>
</g>
<!-- AntiAliasingFilter&#45;&gt;ADC -->
<g id="edge5" class="edge">
<title>AntiAliasingFilter&#45;&gt;ADC</title>
<path fill="none" stroke="#000000" d="M623.5932,-34C632.3124,-34 641.0801,-34 649.1869,-34"/>
<polygon fill="#000000" stroke="#000000" points="649.4038,-37.5001 659.4037,-34 649.4037,-30.5001 649.4038,-37.5001"/>
</g>
<!-- Microcontroller -->
<g id="node7" class="node">
<title>Microcontroller</title>
<polygon fill="none" stroke="#000000" points="853.9981,-52 749.7317,-52 749.7317,-16 853.9981,-16 853.9981,-52"/>
<text text-anchor="middle" x="801.8649" y="-29.8" font-family="Times,serif" font-size="14.00" fill="#000000">Microcontroller</text>
</g>
<!-- ADC&#45;&gt;Microcontroller -->
<g id="edge6" class="edge">
<title>ADC&#45;&gt;Microcontroller</title>
<path fill="none" stroke="#000000" d="M713.5851,-34C721.4207,-34 730.3191,-34 739.3776,-34"/>
<polygon fill="#000000" stroke="#000000" points="739.6249,-37.5001 749.6249,-34 739.6248,-30.5001 739.6249,-37.5001"/>
</g>
</g>
</svg>
