<?xml version="1.0" encoding="UTF-8" standalone="no"?>
<!DOCTYPE svg PUBLIC "-//W3C//DTD SVG 1.1//EN"
 "http://www.w3.org/Graphics/SVG/1.1/DTD/svg11.dtd">
<!-- Generated by graphviz version 2.40.1 (20161225.0304)
 -->
<!-- Title: G Pages: 1 -->
<svg width="859pt" height="44pt"
 viewBox="0.00 0.00 859.23 44.00" xmlns="http://www.w3.org/2000/svg" xmlns:xlink="http://www.w3.org/1999/xlink">
<g id="graph0" class="graph" transform="scale(1 1) rotate(0) translate(4 40)">
<title>G</title>
<polygon fill="#ffffff" stroke="transparent" points="-4,4 -4,-40 855.2316,-40 855.2316,4 -4,4"/>
<!-- Potentiometer -->
<g id="node1" class="node">
<title>Potentiometer</title>
<polygon fill="none" stroke="#000000" points="94.3111,-36 .2289,-36 .2289,0 94.3111,0 94.3111,-36"/>
<text text-anchor="middle" x="47.27" y="-13.8" font-family="Times,serif" font-size="14.00" fill="#000000">Potentiometer</text>
</g>
<!-- OffsetAdjustment -->
<g id="node2" class="node">
<title>OffsetAdjustment</title>
<polygon fill="none" stroke="#000000" points="246.9991,-36 130.3867,-36 130.3867,0 246.9991,0 246.9991,-36"/>
<text text-anchor="middle" x="188.6929" y="-13.8" font-family="Times,serif" font-size="14.00" fill="#000000">OffsetAdjustment</text>
</g>
<!-- Potentiometer&#45;&gt;OffsetAdjustment -->
<g id="edge1" class="edge">
<title>Potentiometer&#45;&gt;OffsetAdjustment</title>
<path fill="none" stroke="#000000" d="M94.3618,-18C102.6782,-18 111.487,-18 120.2494,-18"/>
<polygon fill="#000000" stroke="#000000" points="120.482,-21.5001 130.482,-18 120.4819,-14.5001 120.482,-21.5001"/>
</g>
<!-- GainStage -->
<g id="node3" class="node">
<title>GainStage</title>
<polygon fill="none" stroke="#000000" points="357.3178,-36 282.688,-36 282.688,0 357.3178,0 357.3178,-36"/>
<text text-anchor="middle" x="320.0029" y="-13.8" font-family="Times,serif" font-size="14.00" fill="#000000">GainStage</text>
</g>
<!-- OffsetAdjustment&#45;&gt;GainStage -->
<g id="edge2" class="edge">
<title>OffsetAdjustment&#45;&gt;GainStage</title>
<path fill="none" stroke="#000000" d="M247.0521,-18C255.5284,-18 264.1689,-18 272.3992,-18"/>
<polygon fill="#000000" stroke="#000000" points="272.5615,-21.5001 282.5614,-18 272.5614,-14.5001 272.5615,-21.5001"/>
</g>
<!-- LowPassFilter -->
<g id="node4" class="node">
<title>LowPassFilter</title>
<polygon fill="none" stroke="#000000" points="489.9729,-36 393.2223,-36 393.2223,0 489.9729,0 489.9729,-36"/>
<text text-anchor="middle" x="441.5976" y="-13.8" font-family="Times,serif" font-size="14.00" fill="#000000">LowPassFilter</text>
</g>
<!-- GainStage&#45;&gt;LowPassFilter -->
<g id="edge3" class="edge">
<title>GainStage&#45;&gt;LowPassFilter</title>
<path fill="none" stroke="#000000" d="M357.4775,-18C365.5022,-18 374.1659,-18 382.7766,-18"/>
<polygon fill="#000000" stroke="#000000" points="382.8192,-21.5001 392.8191,-18 382.8191,-14.5001 382.8192,-21.5001"/>
</g>
<!-- NotchFilter -->
<g id="node5" class="node">
<title>NotchFilter</title>
<polygon fill="none" stroke="#000000" points="606.3486,-36 526.2632,-36 526.2632,0 606.3486,0 606.3486,-36"/>
<text text-anchor="middle" x="566.3059" y="-13.8" font-family="Times,serif" font-size="14.00" fill="#000000">NotchFilter</text>
</g>
<!-- LowPassFilter&#45;&gt;NotchFilter -->
<g id="edge4" class="edge">
<title>LowPassFilter&#45;&gt;NotchFilter</title>
<path fill="none" stroke="#000000" d="M490.1702,-18C498.6303,-18 507.4467,-18 515.9535,-18"/>
<polygon fill="#000000" stroke="#000000" points="516.1314,-21.5001 526.1314,-18 516.1314,-14.5001 516.1314,-21.5001"/>
</g>
<!-- AntiAliasingFilter -->
<g id="node6" class="node">
<title>AntiAliasingFilter</title>
<polygon fill="none" stroke="#000000" points="761.0596,-36 642.7486,-36 642.7486,0 761.0596,0 761.0596,-36"/>
<text text-anchor="middle" x="701.9041" y="-13.8" font-family="Times,serif" font-size="14.00" fill="#000000">AntiAliasingFilter</text>
</g>
<!-- NotchFilter&#45;&gt;AntiAliasingFilter -->
<g id="edge5" class="edge">
<title>NotchFilter&#45;&gt;AntiAliasingFilter</title>
<path fill="none" stroke="#000000" d="M606.6227,-18C614.8473,-18 623.7213,-18 632.6293,-18"/>
<polygon fill="#000000" stroke="#000000" points="632.6684,-21.5001 642.6684,-18 632.6684,-14.5001 632.6684,-21.5001"/>
</g>
<!-- DAQ -->
<g id="node7" class="node">
<title>DAQ</title>
<polygon fill="none" stroke="#000000" points="851.2316,-36 797.2316,-36 797.2316,0 851.2316,0 851.2316,-36"/>
<text text-anchor="middle" x="824.2316" y="-13.8" font-family="Times,serif" font-size="14.00" fill="#000000">DAQ</text>
</g>
<!-- AntiAliasingFilter&#45;&gt;DAQ -->
<g id="edge6" class="edge">
<title>AntiAliasingFilter&#45;&gt;DAQ</title>
<path fill="none" stroke="#000000" d="M761.2762,-18C769.9954,-18 778.7631,-18 786.8699,-18"/>
<polygon fill="#000000" stroke="#000000" points="787.0868,-21.5001 797.0867,-18 787.0867,-14.5001 787.0868,-21.5001"/>
</g>
</g>
</svg>
