<?xml version="1.0" encoding="UTF-8" standalone="no"?>
<!DOCTYPE svg PUBLIC "-//W3C//DTD SVG 1.1//EN"
 "http://www.w3.org/Graphics/SVG/1.1/DTD/svg11.dtd">
<!-- Generated by graphviz version 2.40.1 (20161225.0304)
 -->
<!-- Title: G Pages: 1 -->
<svg width="897pt" height="50pt"
 viewBox="0.00 0.00 897.02 49.60" xmlns="http://www.w3.org/2000/svg" xmlns:xlink="http://www.w3.org/1999/xlink">
<g id="graph0" class="graph" transform="scale(1 1) rotate(0) translate(4 45.6)">
<title>G</title>
<polygon fill="#ffffff" stroke="transparent" points="-4,4 -4,-45.6 893.0192,-45.6 893.0192,4 -4,4"/>
<!-- Potentiometer -->
<g id="node1" class="node">
<title>Potentiometer</title>
<polygon fill="none" stroke="#000000" points="94.3111,-38.8 .2289,-38.8 .2289,-2.8 94.3111,-2.8 94.3111,-38.8"/>
<text text-anchor="middle" x="47.27" y="-16.6" font-family="Times,serif" font-size="14.00" fill="#000000">Potentiometer</text>
</g>
<!-- Buffer -->
<g id="node2" class="node">
<title>Buffer</title>
<polygon fill="none" stroke="#000000" points="241.897,-38.8 130.4208,-38.8 130.4208,-2.8 241.897,-2.8 241.897,-38.8"/>
<text text-anchor="middle" x="186.1589" y="-16.6" font-family="Times,serif" font-size="14.00" fill="#000000">Buffer Amplifier</text>
</g>
<!-- Potentiometer&#45;&gt;Buffer -->
<g id="edge1" class="edge">
<title>Potentiometer&#45;&gt;Buffer</title>
<path fill="none" stroke="#000000" d="M94.6792,-20.8C102.9256,-20.8 111.6345,-20.8 120.2699,-20.8"/>
<polygon fill="#000000" stroke="#000000" points="120.3413,-24.3001 130.3412,-20.8 120.3412,-17.3001 120.3413,-24.3001"/>
</g>
<!-- Scaling -->
<g id="node3" class="node">
<title>Scaling</title>
<polygon fill="none" stroke="#000000" points="394.3249,-38.8 277.9285,-38.8 277.9285,-2.8 394.3249,-2.8 394.3249,-38.8"/>
<text text-anchor="middle" x="336.1267" y="-16.6" font-family="Times,serif" font-size="14.00" fill="#000000">Scaling Amplifier</text>
</g>
<!-- Buffer&#45;&gt;Scaling -->
<g id="edge2" class="edge">
<title>Buffer&#45;&gt;Scaling</title>
<path fill="none" stroke="#000000" d="M242.0014,-20.8C250.3811,-20.8 259.1027,-20.8 267.7081,-20.8"/>
<polygon fill="#000000" stroke="#000000" points="267.7293,-24.3001 277.7292,-20.8 267.7292,-17.3001 267.7293,-24.3001"/>
</g>
<!-- Filter_50Hz -->
<g id="node4" class="node">
<title>Filter_50Hz</title>
<polygon fill="none" stroke="#000000" points="514.5377,-41.4019 430.4549,-41.4019 430.4549,-.1981 514.5377,-.1981 514.5377,-41.4019"/>
<text text-anchor="middle" x="472.4963" y="-25" font-family="Times,serif" font-size="14.00" fill="#000000">Notch Filter</text>
<text text-anchor="middle" x="472.4963" y="-8.2" font-family="Times,serif" font-size="14.00" fill="#000000">(50 Hz)</text>
</g>
<!-- Scaling&#45;&gt;Filter_50Hz -->
<g id="edge3" class="edge">
<title>Scaling&#45;&gt;Filter_50Hz</title>
<path fill="none" stroke="#000000" d="M394.3552,-20.8C402.8987,-20.8 411.6552,-20.8 420.0727,-20.8"/>
<polygon fill="#000000" stroke="#000000" points="420.135,-24.3001 430.135,-20.8 420.1349,-17.3001 420.135,-24.3001"/>
</g>
<!-- Filter_60Hz -->
<g id="node5" class="node">
<title>Filter_60Hz</title>
<polygon fill="none" stroke="#000000" points="634.5791,-41.4019 550.4963,-41.4019 550.4963,-.1981 634.5791,-.1981 634.5791,-41.4019"/>
<text text-anchor="middle" x="592.5377" y="-25" font-family="Times,serif" font-size="14.00" fill="#000000">Notch Filter</text>
<text text-anchor="middle" x="592.5377" y="-8.2" font-family="Times,serif" font-size="14.00" fill="#000000">(60 Hz)</text>
</g>
<!-- Filter_50Hz&#45;&gt;Filter_60Hz -->
<g id="edge4" class="edge">
<title>Filter_50Hz&#45;&gt;Filter_60Hz</title>
<path fill="none" stroke="#000000" d="M514.8184,-20.8C522.9766,-20.8 531.6138,-20.8 540.0494,-20.8"/>
<polygon fill="#000000" stroke="#000000" points="540.1932,-24.3001 550.1932,-20.8 540.1931,-17.3001 540.1932,-24.3001"/>
</g>
<!-- LowPass -->
<g id="node6" class="node">
<title>LowPass</title>
<polygon fill="none" stroke="#000000" points="741.868,-41.4019 670.455,-41.4019 670.455,-.1981 741.868,-.1981 741.868,-41.4019"/>
<text text-anchor="middle" x="706.1615" y="-25" font-family="Times,serif" font-size="14.00" fill="#000000">Low&#45;Pass</text>
<text text-anchor="middle" x="706.1615" y="-8.2" font-family="Times,serif" font-size="14.00" fill="#000000">Filter</text>
</g>
<!-- Filter_60Hz&#45;&gt;LowPass -->
<g id="edge5" class="edge">
<title>Filter_60Hz&#45;&gt;LowPass</title>
<path fill="none" stroke="#000000" d="M634.847,-20.8C643.1904,-20.8 651.981,-20.8 660.4313,-20.8"/>
<polygon fill="#000000" stroke="#000000" points="660.5171,-24.3001 670.5171,-20.8 660.5171,-17.3001 660.5171,-24.3001"/>
</g>
<!-- DAQ -->
<g id="node7" class="node">
<title>DAQ</title>
<polygon fill="none" stroke="#000000" points="889.1468,-41.4019 777.637,-41.4019 777.637,-.1981 889.1468,-.1981 889.1468,-41.4019"/>
<text text-anchor="middle" x="833.3919" y="-25" font-family="Times,serif" font-size="14.00" fill="#000000">Data Acquisition</text>
<text text-anchor="middle" x="833.3919" y="-8.2" font-family="Times,serif" font-size="14.00" fill="#000000">System (DAQ)</text>
</g>
<!-- LowPass&#45;&gt;DAQ -->
<g id="edge6" class="edge">
<title>LowPass&#45;&gt;DAQ</title>
<path fill="none" stroke="#000000" d="M741.9408,-20.8C749.865,-20.8 758.5069,-20.8 767.2129,-20.8"/>
<polygon fill="#000000" stroke="#000000" points="767.4234,-24.3001 777.4233,-20.8 767.4233,-17.3001 767.4234,-24.3001"/>
</g>
</g>
</svg>
