<?xml version="1.0" encoding="UTF-8" standalone="no"?>
<!DOCTYPE svg PUBLIC "-//W3C//DTD SVG 1.1//EN"
 "http://www.w3.org/Graphics/SVG/1.1/DTD/svg11.dtd">
<!-- Generated by graphviz version 2.40.1 (20161225.0304)
 -->
<!-- Title: G Pages: 1 -->
<svg width="1371pt" height="50pt"
 viewBox="0.00 0.00 1371.11 49.60" xmlns="http://www.w3.org/2000/svg" xmlns:xlink="http://www.w3.org/1999/xlink">
<g id="graph0" class="graph" transform="scale(1 1) rotate(0) translate(4 45.6)">
<title>G</title>
<polygon fill="#ffffff" stroke="transparent" points="-4,4 -4,-45.6 1367.1106,-45.6 1367.1106,4 -4,4"/>
<!-- temp_sensor -->
<g id="node1" class="node">
<title>temp_sensor</title>
<polygon fill="none" stroke="#000000" points="181.4409,-41.4019 .1861,-41.4019 .1861,-.1981 181.4409,-.1981 181.4409,-41.4019"/>
<text text-anchor="middle" x="90.8135" y="-25" font-family="Times,serif" font-size="14.00" fill="#000000">Thermistor</text>
<text text-anchor="middle" x="90.8135" y="-8.2" font-family="Times,serif" font-size="14.00" fill="#000000">(NTC Vishay NTCLE100E3)</text>
</g>
<!-- linearization -->
<g id="node2" class="node">
<title>linearization</title>
<polygon fill="none" stroke="#000000" points="308.0787,-41.4019 217.8093,-41.4019 217.8093,-.1981 308.0787,-.1981 308.0787,-41.4019"/>
<text text-anchor="middle" x="262.944" y="-25" font-family="Times,serif" font-size="14.00" fill="#000000">Linearization</text>
<text text-anchor="middle" x="262.944" y="-8.2" font-family="Times,serif" font-size="14.00" fill="#000000">Resistor</text>
</g>
<!-- temp_sensor&#45;&gt;linearization -->
<g id="edge1" class="edge">
<title>temp_sensor&#45;&gt;linearization</title>
<path fill="none" stroke="#000000" d="M181.6673,-20.8C190.4183,-20.8 199.1031,-20.8 207.3583,-20.8"/>
<polygon fill="#000000" stroke="#000000" points="207.5579,-24.3001 217.5578,-20.8 207.5578,-17.3001 207.5579,-24.3001"/>
</g>
<!-- wheatstone_bridge -->
<g id="node3" class="node">
<title>wheatstone_bridge</title>
<polygon fill="none" stroke="#000000" points="467.7913,-38.8 344.4173,-38.8 344.4173,-2.8 467.7913,-2.8 467.7913,-38.8"/>
<text text-anchor="middle" x="406.1043" y="-16.6" font-family="Times,serif" font-size="14.00" fill="#000000">Wheatstone Bridge</text>
</g>
<!-- linearization&#45;&gt;wheatstone_bridge -->
<g id="edge2" class="edge">
<title>linearization&#45;&gt;wheatstone_bridge</title>
<path fill="none" stroke="#000000" d="M308.2408,-20.8C316.5733,-20.8 325.4576,-20.8 334.3456,-20.8"/>
<polygon fill="#000000" stroke="#000000" points="334.3528,-24.3001 344.3527,-20.8 334.3527,-17.3001 334.3528,-24.3001"/>
</g>
<!-- amplifier -->
<g id="node4" class="node">
<title>amplifier</title>
<polygon fill="none" stroke="#000000" points="667.4772,-38.8 503.7708,-38.8 503.7708,-2.8 667.4772,-2.8 667.4772,-38.8"/>
<text text-anchor="middle" x="585.624" y="-16.6" font-family="Times,serif" font-size="14.00" fill="#000000">Instrumentation Amplifier</text>
</g>
<!-- wheatstone_bridge&#45;&gt;amplifier -->
<g id="edge3" class="edge">
<title>wheatstone_bridge&#45;&gt;amplifier</title>
<path fill="none" stroke="#000000" d="M467.8848,-20.8C476.1952,-20.8 484.861,-20.8 493.5558,-20.8"/>
<polygon fill="#000000" stroke="#000000" points="493.7565,-24.3001 503.7565,-20.8 493.7564,-17.3001 493.7565,-24.3001"/>
</g>
<!-- level_shifter -->
<g id="node5" class="node">
<title>level_shifter</title>
<polygon fill="none" stroke="#000000" points="793.0097,-38.8 703.0631,-38.8 703.0631,-2.8 793.0097,-2.8 793.0097,-38.8"/>
<text text-anchor="middle" x="748.0364" y="-16.6" font-family="Times,serif" font-size="14.00" fill="#000000">Level Shifter</text>
</g>
<!-- amplifier&#45;&gt;level_shifter -->
<g id="edge4" class="edge">
<title>amplifier&#45;&gt;level_shifter</title>
<path fill="none" stroke="#000000" d="M667.306,-20.8C675.9704,-20.8 684.6277,-20.8 692.8831,-20.8"/>
<polygon fill="#000000" stroke="#000000" points="693.0954,-24.3001 703.0953,-20.8 693.0953,-17.3001 693.0954,-24.3001"/>
</g>
<!-- gain_stage -->
<g id="node6" class="node">
<title>gain_stage</title>
<polygon fill="none" stroke="#000000" points="958.0329,-38.8 829.0183,-38.8 829.0183,-2.8 958.0329,-2.8 958.0329,-38.8"/>
<text text-anchor="middle" x="893.5256" y="-16.6" font-family="Times,serif" font-size="14.00" fill="#000000">Variable Gain Stage</text>
</g>
<!-- level_shifter&#45;&gt;gain_stage -->
<g id="edge5" class="edge">
<title>level_shifter&#45;&gt;gain_stage</title>
<path fill="none" stroke="#000000" d="M792.8751,-20.8C801.0365,-20.8 809.7503,-20.8 818.508,-20.8"/>
<polygon fill="#000000" stroke="#000000" points="818.7786,-24.3001 828.7785,-20.8 818.7785,-17.3001 818.7786,-24.3001"/>
</g>
<!-- anti_aliasing_filter -->
<g id="node8" class="node">
<title>anti_aliasing_filter</title>
<polygon fill="none" stroke="#000000" points="1117.1642,-38.8 994.317,-38.8 994.317,-2.8 1117.1642,-2.8 1117.1642,-38.8"/>
<text text-anchor="middle" x="1055.7406" y="-16.6" font-family="Times,serif" font-size="14.00" fill="#000000">Anti&#45;aliasing Filter</text>
</g>
<!-- gain_stage&#45;&gt;anti_aliasing_filter -->
<g id="edge6" class="edge">
<title>gain_stage&#45;&gt;anti_aliasing_filter</title>
<path fill="none" stroke="#000000" d="M958.1034,-20.8C966.6763,-20.8 975.5066,-20.8 984.1887,-20.8"/>
<polygon fill="#000000" stroke="#000000" points="984.2885,-24.3001 994.2885,-20.8 984.2885,-17.3001 984.2885,-24.3001"/>
</g>
<!-- output_buffer -->
<g id="node7" class="node">
<title>output_buffer</title>
<polygon fill="none" stroke="#000000" points="1248.0836,-38.8 1153.242,-38.8 1153.242,-2.8 1248.0836,-2.8 1248.0836,-38.8"/>
<text text-anchor="middle" x="1200.6628" y="-16.6" font-family="Times,serif" font-size="14.00" fill="#000000">Output Buffer</text>
</g>
<!-- multimeter -->
<g id="node9" class="node">
<title>multimeter</title>
<polygon fill="none" stroke="#000000" points="1363.1043,-38.8 1284.1295,-38.8 1284.1295,-2.8 1363.1043,-2.8 1363.1043,-38.8"/>
<text text-anchor="middle" x="1323.6169" y="-16.6" font-family="Times,serif" font-size="14.00" fill="#000000">Multimeter</text>
</g>
<!-- output_buffer&#45;&gt;multimeter -->
<g id="edge8" class="edge">
<title>output_buffer&#45;&gt;multimeter</title>
<path fill="none" stroke="#000000" d="M1248.2001,-20.8C1256.5595,-20.8 1265.282,-20.8 1273.704,-20.8"/>
<polygon fill="#000000" stroke="#000000" points="1273.7835,-24.3001 1283.7835,-20.8 1273.7834,-17.3001 1273.7835,-24.3001"/>
</g>
<!-- anti_aliasing_filter&#45;&gt;output_buffer -->
<g id="edge7" class="edge">
<title>anti_aliasing_filter&#45;&gt;output_buffer</title>
<path fill="none" stroke="#000000" d="M1117.2007,-20.8C1125.7566,-20.8 1134.522,-20.8 1143.0047,-20.8"/>
<polygon fill="#000000" stroke="#000000" points="1143.1785,-24.3001 1153.1785,-20.8 1143.1785,-17.3001 1143.1785,-24.3001"/>
</g>
</g>
</svg>
