<?xml version="1.0" encoding="UTF-8" standalone="no"?>
<!DOCTYPE svg PUBLIC "-//W3C//DTD SVG 1.1//EN"
 "http://www.w3.org/Graphics/SVG/1.1/DTD/svg11.dtd">
<!-- Generated by graphviz version 2.40.1 (20161225.0304)
 -->
<!-- Title: G Pages: 1 -->
<svg width="1367pt" height="402pt"
 viewBox="0.00 0.00 1366.99 402.00" xmlns="http://www.w3.org/2000/svg" xmlns:xlink="http://www.w3.org/1999/xlink">
<g id="graph0" class="graph" transform="scale(1 1) rotate(0) translate(4 398)">
<title>G</title>
<polygon fill="#ffffff" stroke="transparent" points="-4,4 -4,-398 1362.9886,-398 1362.9886,4 -4,4"/>
<g id="clust2" class="cluster">
<title>cluster_1</title>
<polygon fill="none" stroke="#000000" points="33.2742,-8 33.2742,-193 1031.7802,-193 1031.7802,-8 33.2742,-8"/>
<text text-anchor="middle" x="532.5272" y="-176.4" font-family="Times,serif" font-size="14.00" fill="#000000">Temperature Sensor Array</text>
</g>
<g id="clust1" class="cluster">
<title>cluster_0</title>
<polygon fill="none" stroke="#000000" points="8,-201 8,-386 1019.7346,-386 1019.7346,-201 8,-201"/>
<text text-anchor="middle" x="513.8673" y="-369.4" font-family="Times,serif" font-size="14.00" fill="#000000">Pressure Sensor Array</text>
</g>
<!-- Strain&#45;Gauge Sensor 1 -->
<g id="node1" class="node">
<title>Strain&#45;Gauge Sensor 1</title>
<polygon fill="none" stroke="#000000" points="158.6069,-353 16.1309,-353 16.1309,-317 158.6069,-317 158.6069,-353"/>
<text text-anchor="middle" x="87.3689" y="-330.8" font-family="Times,serif" font-size="14.00" fill="#000000">Strain&#45;Gauge Sensor 1</text>
</g>
<!-- Instrumentation Amplifier 1 -->
<g id="node2" class="node">
<title>Instrumentation Amplifier 1</title>
<polygon fill="none" stroke="#000000" points="372.5925,-353 198.8867,-353 198.8867,-317 372.5925,-317 372.5925,-353"/>
<text text-anchor="middle" x="285.7396" y="-330.8" font-family="Times,serif" font-size="14.00" fill="#000000">Instrumentation Amplifier 1</text>
</g>
<!-- Strain&#45;Gauge Sensor 1&#45;&gt;Instrumentation Amplifier 1 -->
<g id="edge1" class="edge">
<title>Strain&#45;Gauge Sensor 1&#45;&gt;Instrumentation Amplifier 1</title>
<path fill="none" stroke="#000000" d="M158.705,-335C168.4519,-335 178.5893,-335 188.697,-335"/>
<polygon fill="#000000" stroke="#000000" points="188.7793,-338.5001 198.7792,-335 188.7792,-331.5001 188.7793,-338.5001"/>
</g>
<!-- Pressure Multiplexer -->
<g id="node7" class="node">
<title>Pressure Multiplexer</title>
<polygon fill="none" stroke="#000000" points="545.7699,-292 412.7319,-292 412.7319,-256 545.7699,-256 545.7699,-292"/>
<text text-anchor="middle" x="479.2509" y="-269.8" font-family="Times,serif" font-size="14.00" fill="#000000">Pressure Multiplexer</text>
</g>
<!-- Instrumentation Amplifier 1&#45;&gt;Pressure Multiplexer -->
<g id="edge4" class="edge">
<title>Instrumentation Amplifier 1&#45;&gt;Pressure Multiplexer</title>
<path fill="none" stroke="#000000" d="M347.499,-316.9648C357.2976,-314.0203 367.308,-310.963 376.7414,-308 389.4995,-303.9927 403.1052,-299.5793 416.0961,-295.2971"/>
<polygon fill="#000000" stroke="#000000" points="417.4923,-298.5218 425.8861,-292.057 415.2928,-291.8763 417.4923,-298.5218"/>
</g>
<!-- Strain&#45;Gauge Sensor 2 -->
<g id="node3" class="node">
<title>Strain&#45;Gauge Sensor 2</title>
<polygon fill="none" stroke="#000000" points="158.6069,-299 16.1309,-299 16.1309,-263 158.6069,-263 158.6069,-299"/>
<text text-anchor="middle" x="87.3689" y="-276.8" font-family="Times,serif" font-size="14.00" fill="#000000">Strain&#45;Gauge Sensor 2</text>
</g>
<!-- Instrumentation Amplifier 2 -->
<g id="node4" class="node">
<title>Instrumentation Amplifier 2</title>
<polygon fill="none" stroke="#000000" points="372.5925,-299 198.8867,-299 198.8867,-263 372.5925,-263 372.5925,-299"/>
<text text-anchor="middle" x="285.7396" y="-276.8" font-family="Times,serif" font-size="14.00" fill="#000000">Instrumentation Amplifier 2</text>
</g>
<!-- Strain&#45;Gauge Sensor 2&#45;&gt;Instrumentation Amplifier 2 -->
<g id="edge2" class="edge">
<title>Strain&#45;Gauge Sensor 2&#45;&gt;Instrumentation Amplifier 2</title>
<path fill="none" stroke="#000000" d="M158.705,-281C168.4519,-281 178.5893,-281 188.697,-281"/>
<polygon fill="#000000" stroke="#000000" points="188.7793,-284.5001 198.7792,-281 188.7792,-277.5001 188.7793,-284.5001"/>
</g>
<!-- Instrumentation Amplifier 2&#45;&gt;Pressure Multiplexer -->
<g id="edge5" class="edge">
<title>Instrumentation Amplifier 2&#45;&gt;Pressure Multiplexer</title>
<path fill="none" stroke="#000000" d="M372.8716,-277.8481C382.7741,-277.4899 392.8124,-277.1268 402.5661,-276.774"/>
<polygon fill="#000000" stroke="#000000" points="402.7429,-280.27 412.6098,-276.4106 402.4898,-273.2745 402.7429,-280.27"/>
</g>
<!-- Strain&#45;Gauge Sensor 8 -->
<g id="node5" class="node">
<title>Strain&#45;Gauge Sensor 8</title>
<polygon fill="none" stroke="#000000" points="158.6069,-245 16.1309,-245 16.1309,-209 158.6069,-209 158.6069,-245"/>
<text text-anchor="middle" x="87.3689" y="-222.8" font-family="Times,serif" font-size="14.00" fill="#000000">Strain&#45;Gauge Sensor 8</text>
</g>
<!-- Instrumentation Amplifier 8 -->
<g id="node6" class="node">
<title>Instrumentation Amplifier 8</title>
<polygon fill="none" stroke="#000000" points="372.5925,-245 198.8867,-245 198.8867,-209 372.5925,-209 372.5925,-245"/>
<text text-anchor="middle" x="285.7396" y="-222.8" font-family="Times,serif" font-size="14.00" fill="#000000">Instrumentation Amplifier 8</text>
</g>
<!-- Strain&#45;Gauge Sensor 8&#45;&gt;Instrumentation Amplifier 8 -->
<g id="edge3" class="edge">
<title>Strain&#45;Gauge Sensor 8&#45;&gt;Instrumentation Amplifier 8</title>
<path fill="none" stroke="#000000" d="M158.705,-227C168.4519,-227 178.5893,-227 188.697,-227"/>
<polygon fill="#000000" stroke="#000000" points="188.7793,-230.5001 198.7792,-227 188.7792,-223.5001 188.7793,-230.5001"/>
</g>
<!-- Instrumentation Amplifier 8&#45;&gt;Pressure Multiplexer -->
<g id="edge6" class="edge">
<title>Instrumentation Amplifier 8&#45;&gt;Pressure Multiplexer</title>
<path fill="none" stroke="#000000" d="M360.0027,-245.037C373.897,-248.4117 388.4464,-251.9454 402.4166,-255.3385"/>
<polygon fill="#000000" stroke="#000000" points="401.9254,-258.8209 412.469,-257.78 403.5776,-252.0186 401.9254,-258.8209"/>
</g>
<!-- Pressure Signal Conditioning -->
<g id="node8" class="node">
<title>Pressure Signal Conditioning</title>
<polygon fill="none" stroke="#000000" points="773.9554,-285 593.7562,-285 593.7562,-249 773.9554,-249 773.9554,-285"/>
<text text-anchor="middle" x="683.8558" y="-262.8" font-family="Times,serif" font-size="14.00" fill="#000000">Pressure Signal Conditioning</text>
</g>
<!-- Pressure Multiplexer&#45;&gt;Pressure Signal Conditioning -->
<g id="edge7" class="edge">
<title>Pressure Multiplexer&#45;&gt;Pressure Signal Conditioning</title>
<path fill="none" stroke="#000000" d="M545.9631,-271.7176C558.0174,-271.3052 570.8249,-270.867 583.59,-270.4303"/>
<polygon fill="#000000" stroke="#000000" points="583.9287,-273.9209 593.8032,-270.0809 583.6893,-266.925 583.9287,-273.9209"/>
</g>
<!-- Pressure Anti&#45;Aliasing Filter -->
<g id="node9" class="node">
<title>Pressure Anti&#45;Aliasing Filter</title>
<polygon fill="none" stroke="#000000" points="1011.6037,-272 834.1277,-272 834.1277,-236 1011.6037,-236 1011.6037,-272"/>
<text text-anchor="middle" x="922.8657" y="-249.8" font-family="Times,serif" font-size="14.00" fill="#000000">Pressure Anti&#45;Aliasing Filter</text>
</g>
<!-- Pressure Signal Conditioning&#45;&gt;Pressure Anti&#45;Aliasing Filter -->
<g id="edge8" class="edge">
<title>Pressure Signal Conditioning&#45;&gt;Pressure Anti&#45;Aliasing Filter</title>
<path fill="none" stroke="#000000" d="M774.2152,-262.0853C790.4172,-261.204 807.3805,-260.2814 823.8121,-259.3876"/>
<polygon fill="#000000" stroke="#000000" points="824.1677,-262.8736 833.9628,-258.8355 823.7874,-255.8839 824.1677,-262.8736"/>
</g>
<!-- ADC -->
<g id="node19" class="node">
<title>ADC</title>
<polygon fill="none" stroke="#000000" points="1113.7802,-216 1059.7802,-216 1059.7802,-180 1113.7802,-180 1113.7802,-216"/>
<text text-anchor="middle" x="1086.7802" y="-193.8" font-family="Times,serif" font-size="14.00" fill="#000000">ADC</text>
</g>
<!-- Pressure Anti&#45;Aliasing Filter&#45;&gt;ADC -->
<g id="edge17" class="edge">
<title>Pressure Anti&#45;Aliasing Filter&#45;&gt;ADC</title>
<path fill="none" stroke="#000000" d="M975.6315,-235.973C999.8169,-227.7103 1027.9035,-218.1147 1049.7919,-210.6367"/>
<polygon fill="#000000" stroke="#000000" points="1051.0449,-213.9074 1059.3763,-207.3623 1048.7818,-207.2833 1051.0449,-213.9074"/>
</g>
<!-- IR Detector 1 -->
<g id="node10" class="node">
<title>IR Detector 1</title>
<polygon fill="none" stroke="#000000" points="133.5585,-160 41.1793,-160 41.1793,-124 133.5585,-124 133.5585,-160"/>
<text text-anchor="middle" x="87.3689" y="-137.8" font-family="Times,serif" font-size="14.00" fill="#000000">IR Detector 1</text>
</g>
<!-- Temp Nonlinear Correction 1 -->
<g id="node11" class="node">
<title>Temp Nonlinear Correction 1</title>
<polygon fill="none" stroke="#000000" points="376.7432,-160 194.736,-160 194.736,-124 376.7432,-124 376.7432,-160"/>
<text text-anchor="middle" x="285.7396" y="-137.8" font-family="Times,serif" font-size="14.00" fill="#000000">Temp Nonlinear Correction 1</text>
</g>
<!-- IR Detector 1&#45;&gt;Temp Nonlinear Correction 1 -->
<g id="edge9" class="edge">
<title>IR Detector 1&#45;&gt;Temp Nonlinear Correction 1</title>
<path fill="none" stroke="#000000" d="M133.6277,-142C148.8445,-142 166.4118,-142 184.0837,-142"/>
<polygon fill="#000000" stroke="#000000" points="184.4838,-145.5001 194.4838,-142 184.4838,-138.5001 184.4838,-145.5001"/>
</g>
<!-- Temp Multiplexer -->
<g id="node16" class="node">
<title>Temp Multiplexer</title>
<polygon fill="none" stroke="#000000" points="538.5058,-113 419.996,-113 419.996,-77 538.5058,-77 538.5058,-113"/>
<text text-anchor="middle" x="479.2509" y="-90.8" font-family="Times,serif" font-size="14.00" fill="#000000">Temp Multiplexer</text>
</g>
<!-- Temp Nonlinear Correction 1&#45;&gt;Temp Multiplexer -->
<g id="edge12" class="edge">
<title>Temp Nonlinear Correction 1&#45;&gt;Temp Multiplexer</title>
<path fill="none" stroke="#000000" d="M360.0027,-123.963C376.42,-119.9756 393.752,-115.766 409.9624,-111.8288"/>
<polygon fill="#000000" stroke="#000000" points="411.0011,-115.1783 419.8925,-109.417 409.3489,-108.3761 411.0011,-115.1783"/>
</g>
<!-- IR Detector 2 -->
<g id="node12" class="node">
<title>IR Detector 2</title>
<polygon fill="none" stroke="#000000" points="133.5585,-106 41.1793,-106 41.1793,-70 133.5585,-70 133.5585,-106"/>
<text text-anchor="middle" x="87.3689" y="-83.8" font-family="Times,serif" font-size="14.00" fill="#000000">IR Detector 2</text>
</g>
<!-- Temp Nonlinear Correction 2 -->
<g id="node13" class="node">
<title>Temp Nonlinear Correction 2</title>
<polygon fill="none" stroke="#000000" points="376.7432,-106 194.736,-106 194.736,-70 376.7432,-70 376.7432,-106"/>
<text text-anchor="middle" x="285.7396" y="-83.8" font-family="Times,serif" font-size="14.00" fill="#000000">Temp Nonlinear Correction 2</text>
</g>
<!-- IR Detector 2&#45;&gt;Temp Nonlinear Correction 2 -->
<g id="edge10" class="edge">
<title>IR Detector 2&#45;&gt;Temp Nonlinear Correction 2</title>
<path fill="none" stroke="#000000" d="M133.6277,-88C148.8445,-88 166.4118,-88 184.0837,-88"/>
<polygon fill="#000000" stroke="#000000" points="184.4838,-91.5001 194.4838,-88 184.4838,-84.5001 184.4838,-91.5001"/>
</g>
<!-- Temp Nonlinear Correction 2&#45;&gt;Temp Multiplexer -->
<g id="edge13" class="edge">
<title>Temp Nonlinear Correction 2&#45;&gt;Temp Multiplexer</title>
<path fill="none" stroke="#000000" d="M376.8289,-91.295C387.972,-91.6981 399.2157,-92.1048 409.9661,-92.4937"/>
<polygon fill="#000000" stroke="#000000" points="409.9826,-95.9965 420.1026,-92.8604 410.2357,-89.0011 409.9826,-95.9965"/>
</g>
<!-- IR Detector 8 -->
<g id="node14" class="node">
<title>IR Detector 8</title>
<polygon fill="none" stroke="#000000" points="133.5585,-52 41.1793,-52 41.1793,-16 133.5585,-16 133.5585,-52"/>
<text text-anchor="middle" x="87.3689" y="-29.8" font-family="Times,serif" font-size="14.00" fill="#000000">IR Detector 8</text>
</g>
<!-- Temp Nonlinear Correction 8 -->
<g id="node15" class="node">
<title>Temp Nonlinear Correction 8</title>
<polygon fill="none" stroke="#000000" points="376.7432,-52 194.736,-52 194.736,-16 376.7432,-16 376.7432,-52"/>
<text text-anchor="middle" x="285.7396" y="-29.8" font-family="Times,serif" font-size="14.00" fill="#000000">Temp Nonlinear Correction 8</text>
</g>
<!-- IR Detector 8&#45;&gt;Temp Nonlinear Correction 8 -->
<g id="edge11" class="edge">
<title>IR Detector 8&#45;&gt;Temp Nonlinear Correction 8</title>
<path fill="none" stroke="#000000" d="M133.6277,-34C148.8445,-34 166.4118,-34 184.0837,-34"/>
<polygon fill="#000000" stroke="#000000" points="184.4838,-37.5001 194.4838,-34 184.4838,-30.5001 184.4838,-37.5001"/>
</g>
<!-- Temp Nonlinear Correction 8&#45;&gt;Temp Multiplexer -->
<g id="edge14" class="edge">
<title>Temp Nonlinear Correction 8&#45;&gt;Temp Multiplexer</title>
<path fill="none" stroke="#000000" d="M347.499,-52.0352C357.2976,-54.9797 367.308,-58.037 376.7414,-61 389.4995,-65.0073 403.1052,-69.4207 416.0961,-73.7029"/>
<polygon fill="#000000" stroke="#000000" points="415.2928,-77.1237 425.8861,-76.943 417.4923,-70.4782 415.2928,-77.1237"/>
</g>
<!-- Temperature Signal Conditioning -->
<g id="node17" class="node">
<title>Temperature Signal Conditioning</title>
<polygon fill="none" stroke="#000000" points="786.0467,-140 581.6649,-140 581.6649,-104 786.0467,-104 786.0467,-140"/>
<text text-anchor="middle" x="683.8558" y="-117.8" font-family="Times,serif" font-size="14.00" fill="#000000">Temperature Signal Conditioning</text>
</g>
<!-- Temp Multiplexer&#45;&gt;Temperature Signal Conditioning -->
<g id="edge15" class="edge">
<title>Temp Multiplexer&#45;&gt;Temperature Signal Conditioning</title>
<path fill="none" stroke="#000000" d="M538.4311,-102.8095C548.9287,-104.1948 560.1677,-105.6779 571.5738,-107.1831"/>
<polygon fill="#000000" stroke="#000000" points="571.254,-110.6711 581.6259,-108.5096 572.1698,-103.7313 571.254,-110.6711"/>
</g>
<!-- Temperature Anti&#45;Aliasing Filter -->
<g id="node18" class="node">
<title>Temperature Anti&#45;Aliasing Filter</title>
<polygon fill="none" stroke="#000000" points="1023.6948,-153 822.0366,-153 822.0366,-117 1023.6948,-117 1023.6948,-153"/>
<text text-anchor="middle" x="922.8657" y="-130.8" font-family="Times,serif" font-size="14.00" fill="#000000">Temperature Anti&#45;Aliasing Filter</text>
</g>
<!-- Temperature Signal Conditioning&#45;&gt;Temperature Anti&#45;Aliasing Filter -->
<g id="edge16" class="edge">
<title>Temperature Signal Conditioning&#45;&gt;Temperature Anti&#45;Aliasing Filter</title>
<path fill="none" stroke="#000000" d="M786.2576,-127.5697C794.6348,-128.0254 803.1265,-128.4873 811.5633,-128.9461"/>
<polygon fill="#000000" stroke="#000000" points="811.6406,-132.4554 821.8159,-129.5038 812.0208,-125.4658 811.6406,-132.4554"/>
</g>
<!-- Temperature Anti&#45;Aliasing Filter&#45;&gt;ADC -->
<g id="edge18" class="edge">
<title>Temperature Anti&#45;Aliasing Filter&#45;&gt;ADC</title>
<path fill="none" stroke="#000000" d="M969.837,-153.0533C995.4462,-162.8961 1026.6658,-174.8952 1050.4044,-184.0191"/>
<polygon fill="#000000" stroke="#000000" points="1049.1661,-187.2927 1059.7561,-187.6134 1051.6775,-180.7587 1049.1661,-187.2927"/>
</g>
<!-- Data Acquisition System Interface -->
<g id="node20" class="node">
<title>Data Acquisition System Interface</title>
<polygon fill="none" stroke="#000000" points="1359.0929,-216 1149.6759,-216 1149.6759,-180 1359.0929,-180 1359.0929,-216"/>
<text text-anchor="middle" x="1254.3844" y="-193.8" font-family="Times,serif" font-size="14.00" fill="#000000">Data Acquisition System Interface</text>
</g>
<!-- ADC&#45;&gt;Data Acquisition System Interface -->
<g id="edge19" class="edge">
<title>ADC&#45;&gt;Data Acquisition System Interface</title>
<path fill="none" stroke="#000000" d="M1114.0817,-198C1121.5749,-198 1130.1962,-198 1139.4031,-198"/>
<polygon fill="#000000" stroke="#000000" points="1139.5977,-201.5001 1149.5977,-198 1139.5977,-194.5001 1139.5977,-201.5001"/>
</g>
</g>
</svg>
