<?xml version="1.0" encoding="UTF-8" standalone="no"?>
<!DOCTYPE svg PUBLIC "-//W3C//DTD SVG 1.1//EN"
 "http://www.w3.org/Graphics/SVG/1.1/DTD/svg11.dtd">
<!-- Generated by graphviz version 2.40.1 (20161225.0304)
 -->
<!-- Title: G Pages: 1 -->
<svg width="459pt" height="98pt"
 viewBox="0.00 0.00 459.28 98.00" xmlns="http://www.w3.org/2000/svg" xmlns:xlink="http://www.w3.org/1999/xlink">
<g id="graph0" class="graph" transform="scale(1 1) rotate(0) translate(4 94)">
<title>G</title>
<polygon fill="#ffffff" stroke="transparent" points="-4,4 -4,-94 455.2778,-94 455.2778,4 -4,4"/>
<!-- Thermistor -->
<g id="node1" class="node">
<title>Thermistor</title>
<polygon fill="none" stroke="#000000" points="78.3075,-36 -.1027,-36 -.1027,0 78.3075,0 78.3075,-36"/>
<text text-anchor="middle" x="39.1024" y="-13.8" font-family="Times,serif" font-size="14.00" fill="#000000">Thermistor</text>
</g>
<!-- Signal Conditioning -->
<g id="node2" class="node">
<title>Signal Conditioning</title>
<polygon fill="none" stroke="#000000" points="243.471,-36 114.116,-36 114.116,0 243.471,0 243.471,-36"/>
<text text-anchor="middle" x="178.7935" y="-13.8" font-family="Times,serif" font-size="14.00" fill="#000000">Signal Conditioning</text>
</g>
<!-- Thermistor&#45;&gt;Signal Conditioning -->
<g id="edge1" class="edge">
<title>Thermistor&#45;&gt;Signal Conditioning</title>
<path fill="none" stroke="#000000" d="M78.3859,-18C86.4771,-18 95.2499,-18 104.127,-18"/>
<polygon fill="#000000" stroke="#000000" points="104.1632,-21.5001 114.1632,-18 104.1631,-14.5001 104.1632,-21.5001"/>
</g>
<!-- Voltage Output -->
<g id="node3" class="node">
<title>Voltage Output</title>
<polygon fill="none" stroke="#000000" points="416.5352,-90 314.1248,-90 314.1248,-54 416.5352,-54 416.5352,-90"/>
<text text-anchor="middle" x="365.33" y="-67.8" font-family="Times,serif" font-size="14.00" fill="#000000">Voltage Output</text>
</g>
<!-- Signal Conditioning&#45;&gt;Voltage Output -->
<g id="edge2" class="edge">
<title>Signal Conditioning&#45;&gt;Voltage Output</title>
<path fill="none" stroke="#000000" d="M241.1668,-36.0563C261.464,-41.9321 283.962,-48.445 304.1696,-54.2948"/>
<polygon fill="#000000" stroke="#000000" points="303.3071,-57.6888 313.886,-57.1076 305.2537,-50.9649 303.3071,-57.6888"/>
</g>
<!-- Temperature Compensation -->
<g id="node4" class="node">
<title>Temperature Compensation</title>
<polygon fill="none" stroke="#000000" points="451.2256,-36 279.4344,-36 279.4344,0 451.2256,0 451.2256,-36"/>
<text text-anchor="middle" x="365.33" y="-13.8" font-family="Times,serif" font-size="14.00" fill="#000000">Temperature Compensation</text>
</g>
<!-- Signal Conditioning&#45;&gt;Temperature Compensation -->
<g id="edge3" class="edge">
<title>Signal Conditioning&#45;&gt;Temperature Compensation</title>
<path fill="none" stroke="#000000" d="M243.5114,-11.5393C251.8309,-11.3657 260.4858,-11.2702 269.1742,-11.2529"/>
<polygon fill="#000000" stroke="#000000" points="269.3655,-14.7531 279.3708,-11.2685 269.3762,-7.7531 269.3655,-14.7531"/>
</g>
<!-- Temperature Compensation&#45;&gt;Signal Conditioning -->
<g id="edge4" class="edge">
<title>Temperature Compensation&#45;&gt;Signal Conditioning</title>
<path fill="none" stroke="#000000" d="M269.1742,-24.7471C260.4858,-24.7298 251.8309,-24.6343 243.5114,-24.4607"/>
<polygon fill="#000000" stroke="#000000" points="269.3762,-28.2469 279.3708,-24.7315 269.3655,-21.2469 269.3762,-28.2469"/>
</g>
</g>
</svg>
