<?xml version="1.0" encoding="UTF-8" standalone="no"?>
<!DOCTYPE svg PUBLIC "-//W3C//DTD SVG 1.1//EN"
 "http://www.w3.org/Graphics/SVG/1.1/DTD/svg11.dtd">
<!-- Generated by graphviz version 2.40.1 (20161225.0304)
 -->
<!-- Title: G Pages: 1 -->
<svg width="933pt" height="44pt"
 viewBox="0.00 0.00 933.28 44.00" xmlns="http://www.w3.org/2000/svg" xmlns:xlink="http://www.w3.org/1999/xlink">
<g id="graph0" class="graph" transform="scale(1 1) rotate(0) translate(4 40)">
<title>G</title>
<polygon fill="#ffffff" stroke="transparent" points="-4,4 -4,-40 929.2794,-40 929.2794,4 -4,4"/>
<!-- ThermistorSensor -->
<g id="node1" class="node">
<title>ThermistorSensor</title>
<polygon fill="none" stroke="#000000" points="119.711,-36 .0962,-36 .0962,0 119.711,0 119.711,-36"/>
<text text-anchor="middle" x="59.9036" y="-13.8" font-family="Times,serif" font-size="14.00" fill="#000000">Thermistor Sensor</text>
</g>
<!-- Linearization -->
<g id="node2" class="node">
<title>Linearization</title>
<polygon fill="none" stroke="#000000" points="295.8315,-36 155.7991,-36 155.7991,0 295.8315,0 295.8315,-36"/>
<text text-anchor="middle" x="225.8153" y="-13.8" font-family="Times,serif" font-size="14.00" fill="#000000">Linearization Resistor</text>
</g>
<!-- ThermistorSensor&#45;&gt;Linearization -->
<g id="edge1" class="edge">
<title>ThermistorSensor&#45;&gt;Linearization</title>
<path fill="none" stroke="#000000" d="M119.8015,-18C128.1408,-18 136.8177,-18 145.457,-18"/>
<polygon fill="#000000" stroke="#000000" points="145.5591,-21.5001 155.559,-18 145.559,-14.5001 145.5591,-21.5001"/>
</g>
<!-- Buffer -->
<g id="node3" class="node">
<title>Buffer</title>
<polygon fill="none" stroke="#000000" points="437.5197,-36 331.9245,-36 331.9245,0 437.5197,0 437.5197,-36"/>
<text text-anchor="middle" x="384.7221" y="-13.8" font-family="Times,serif" font-size="14.00" fill="#000000">Buffer Op&#45;Amp</text>
</g>
<!-- Linearization&#45;&gt;Buffer -->
<g id="edge2" class="edge">
<title>Linearization&#45;&gt;Buffer</title>
<path fill="none" stroke="#000000" d="M295.9767,-18C304.4884,-18 313.1443,-18 321.5465,-18"/>
<polygon fill="#000000" stroke="#000000" points="321.6428,-21.5001 331.6428,-18 321.6427,-14.5001 321.6428,-21.5001"/>
</g>
<!-- InstrumentationAmplifier -->
<g id="node4" class="node">
<title>InstrumentationAmplifier</title>
<polygon fill="none" stroke="#000000" points="637.1504,-36 473.444,-36 473.444,0 637.1504,0 637.1504,-36"/>
<text text-anchor="middle" x="555.2972" y="-13.8" font-family="Times,serif" font-size="14.00" fill="#000000">Instrumentation Amplifier</text>
</g>
<!-- Buffer&#45;&gt;InstrumentationAmplifier -->
<g id="edge3" class="edge">
<title>Buffer&#45;&gt;InstrumentationAmplifier</title>
<path fill="none" stroke="#000000" d="M437.7581,-18C445.912,-18 454.5272,-18 463.2372,-18"/>
<polygon fill="#000000" stroke="#000000" points="463.4835,-21.5001 473.4835,-18 463.4835,-14.5001 463.4835,-21.5001"/>
</g>
<!-- AntiAliasingFilter -->
<g id="node5" class="node">
<title>AntiAliasingFilter</title>
<polygon fill="none" stroke="#000000" points="799.6971,-36 673.0657,-36 673.0657,0 799.6971,0 799.6971,-36"/>
<text text-anchor="middle" x="736.3814" y="-13.8" font-family="Times,serif" font-size="14.00" fill="#000000">Anti&#45;Aliasing Filter</text>
</g>
<!-- InstrumentationAmplifier&#45;&gt;AntiAliasingFilter -->
<g id="edge4" class="edge">
<title>InstrumentationAmplifier&#45;&gt;AntiAliasingFilter</title>
<path fill="none" stroke="#000000" d="M637.0978,-18C645.6271,-18 654.2608,-18 662.6923,-18"/>
<polygon fill="#000000" stroke="#000000" points="662.8562,-21.5001 672.8561,-18 662.8561,-14.5001 662.8562,-21.5001"/>
</g>
<!-- OutputStage -->
<g id="node6" class="node">
<title>OutputStage</title>
<polygon fill="none" stroke="#000000" points="925.5258,-36 835.5428,-36 835.5428,0 925.5258,0 925.5258,-36"/>
<text text-anchor="middle" x="880.5343" y="-13.8" font-family="Times,serif" font-size="14.00" fill="#000000">Output Stage</text>
</g>
<!-- AntiAliasingFilter&#45;&gt;OutputStage -->
<g id="edge5" class="edge">
<title>AntiAliasingFilter&#45;&gt;OutputStage</title>
<path fill="none" stroke="#000000" d="M800.0286,-18C808.4076,-18 816.9407,-18 825.1665,-18"/>
<polygon fill="#000000" stroke="#000000" points="825.3869,-21.5001 835.3868,-18 825.3868,-14.5001 825.3869,-21.5001"/>
</g>
</g>
</svg>
