<?xml version="1.0" encoding="UTF-8" standalone="no"?>
<!DOCTYPE svg PUBLIC "-//W3C//DTD SVG 1.1//EN"
 "http://www.w3.org/Graphics/SVG/1.1/DTD/svg11.dtd">
<!-- Generated by graphviz version 2.40.1 (20161225.0304)
 -->
<!-- Title: G Pages: 1 -->
<svg width="1344pt" height="186pt"
 viewBox="0.00 0.00 1344.08 186.00" xmlns="http://www.w3.org/2000/svg" xmlns:xlink="http://www.w3.org/1999/xlink">
<g id="graph0" class="graph" transform="scale(1 1) rotate(0) translate(4 182)">
<title>G</title>
<polygon fill="#ffffff" stroke="transparent" points="-4,4 -4,-182 1340.0764,-182 1340.0764,4 -4,4"/>
<g id="clust2" class="cluster">
<title>cluster_1</title>
<polygon fill="none" stroke="#000000" points="8,-8 8,-85 761.621,-85 761.621,-8 8,-8"/>
<text text-anchor="middle" x="384.8105" y="-68.4" font-family="Times,serif" font-size="14.00" fill="#000000">Temperature Acquisition Path</text>
</g>
<g id="clust1" class="cluster">
<title>cluster_0</title>
<polygon fill="none" stroke="#000000" points="236.0794,-93 236.0794,-170 761.621,-170 761.621,-93 236.0794,-93"/>
<text text-anchor="middle" x="498.8502" y="-153.4" font-family="Times,serif" font-size="14.00" fill="#000000">Pressure Acquisition Path</text>
</g>
<!-- Pressure_Sensor_Array -->
<g id="node1" class="node">
<title>Pressure_Sensor_Array</title>
<polygon fill="none" stroke="#000000" points="412.0617,-137 244.0853,-137 244.0853,-101 412.0617,-101 412.0617,-137"/>
<text text-anchor="middle" x="328.0735" y="-114.8" font-family="Times,serif" font-size="14.00" fill="#000000">Pressure Sensor Array (x8)</text>
</g>
<!-- Amplifier_Block_Pressure -->
<g id="node2" class="node">
<title>Amplifier_Block_Pressure</title>
<polygon fill="none" stroke="#000000" points="566.0022,-137 457.7088,-137 457.7088,-101 566.0022,-101 566.0022,-137"/>
<text text-anchor="middle" x="511.8555" y="-114.8" font-family="Times,serif" font-size="14.00" fill="#000000">Amplifier Block</text>
</g>
<!-- Pressure_Sensor_Array&#45;&gt;Amplifier_Block_Pressure -->
<g id="edge1" class="edge">
<title>Pressure_Sensor_Array&#45;&gt;Amplifier_Block_Pressure</title>
<path fill="none" stroke="#000000" d="M412.1657,-119C424.0334,-119 436.0757,-119 447.4934,-119"/>
<polygon fill="#000000" stroke="#000000" points="447.7805,-122.5001 457.7805,-119 447.7805,-115.5001 447.7805,-122.5001"/>
</g>
<!-- Filter_Block_Pressure -->
<g id="node3" class="node">
<title>Filter_Block_Pressure</title>
<polygon fill="none" stroke="#000000" points="753.6098,-137 611.6546,-137 611.6546,-101 753.6098,-101 753.6098,-137"/>
<text text-anchor="middle" x="682.6322" y="-114.8" font-family="Times,serif" font-size="14.00" fill="#000000">Low&#45;Pass Filter Block</text>
</g>
<!-- Amplifier_Block_Pressure&#45;&gt;Filter_Block_Pressure -->
<g id="edge2" class="edge">
<title>Amplifier_Block_Pressure&#45;&gt;Filter_Block_Pressure</title>
<path fill="none" stroke="#000000" d="M566.3599,-119C577.4582,-119 589.3611,-119 601.1639,-119"/>
<polygon fill="#000000" stroke="#000000" points="601.4876,-122.5001 611.4876,-119 601.4875,-115.5001 601.4876,-122.5001"/>
</g>
<!-- Multiplexer -->
<g id="node4" class="node">
<title>Multiplexer</title>
<polygon fill="none" stroke="#000000" points="909.3341,-94 789.7165,-94 789.7165,-58 909.3341,-58 909.3341,-94"/>
<text text-anchor="middle" x="849.5253" y="-71.8" font-family="Times,serif" font-size="14.00" fill="#000000">8&#45;to&#45;1 Multiplexer</text>
</g>
<!-- Filter_Block_Pressure&#45;&gt;Multiplexer -->
<g id="edge3" class="edge">
<title>Filter_Block_Pressure&#45;&gt;Multiplexer</title>
<path fill="none" stroke="#000000" d="M752.9262,-100.8888C761.7935,-98.6041 770.864,-96.2671 779.7236,-93.9844"/>
<polygon fill="#000000" stroke="#000000" points="780.8042,-97.3204 789.6147,-91.436 779.0577,-90.5417 780.8042,-97.3204"/>
</g>
<!-- ADC -->
<g id="node5" class="node">
<title>ADC</title>
<polygon fill="none" stroke="#000000" points="1121.1069,-94 945.5371,-94 945.5371,-58 1121.1069,-58 1121.1069,-94"/>
<text text-anchor="middle" x="1033.322" y="-71.8" font-family="Times,serif" font-size="14.00" fill="#000000">Analog&#45;to&#45;Digital Converter</text>
</g>
<!-- Multiplexer&#45;&gt;ADC -->
<g id="edge4" class="edge">
<title>Multiplexer&#45;&gt;ADC</title>
<path fill="none" stroke="#000000" d="M909.4529,-76C917.8252,-76 926.602,-76 935.453,-76"/>
<polygon fill="#000000" stroke="#000000" points="935.46,-79.5001 945.4599,-76 935.4599,-72.5001 935.46,-79.5001"/>
</g>
<!-- Data_Interface -->
<g id="node6" class="node">
<title>Data_Interface</title>
<polygon fill="none" stroke="#000000" points="1336.0075,-94 1157.2833,-94 1157.2833,-58 1336.0075,-58 1336.0075,-94"/>
<text text-anchor="middle" x="1246.6454" y="-71.8" font-family="Times,serif" font-size="14.00" fill="#000000">Data Interface (to Computer)</text>
</g>
<!-- ADC&#45;&gt;Data_Interface -->
<g id="edge5" class="edge">
<title>ADC&#45;&gt;Data_Interface</title>
<path fill="none" stroke="#000000" d="M1121.3204,-76C1129.817,-76 1138.4766,-76 1147.0746,-76"/>
<polygon fill="#000000" stroke="#000000" points="1147.126,-79.5001 1157.126,-76 1147.126,-72.5001 1147.126,-79.5001"/>
</g>
<!-- Temperature_Sensor_Array -->
<g id="node7" class="node">
<title>Temperature_Sensor_Array</title>
<polygon fill="none" stroke="#000000" points="208.1191,-52 15.9603,-52 15.9603,-16 208.1191,-16 208.1191,-52"/>
<text text-anchor="middle" x="112.0397" y="-29.8" font-family="Times,serif" font-size="14.00" fill="#000000">Temperature Sensor Array (x8)</text>
</g>
<!-- Amplifier_Block_Temperature -->
<g id="node8" class="node">
<title>Amplifier_Block_Temperature</title>
<polygon fill="none" stroke="#000000" points="382.2202,-52 273.9268,-52 273.9268,-16 382.2202,-16 382.2202,-52"/>
<text text-anchor="middle" x="328.0735" y="-29.8" font-family="Times,serif" font-size="14.00" fill="#000000">Amplifier Block</text>
</g>
<!-- Temperature_Sensor_Array&#45;&gt;Amplifier_Block_Temperature -->
<g id="edge6" class="edge">
<title>Temperature_Sensor_Array&#45;&gt;Amplifier_Block_Temperature</title>
<path fill="none" stroke="#000000" d="M208.3681,-34C227.1796,-34 246.4696,-34 263.9198,-34"/>
<polygon fill="#000000" stroke="#000000" points="263.9641,-37.5001 273.9641,-34 263.9641,-30.5001 263.9641,-37.5001"/>
</g>
<!-- Linearization_Block -->
<g id="node9" class="node">
<title>Linearization_Block</title>
<polygon fill="none" stroke="#000000" points="575.432,-52 448.279,-52 448.279,-16 575.432,-16 575.432,-52"/>
<text text-anchor="middle" x="511.8555" y="-29.8" font-family="Times,serif" font-size="14.00" fill="#000000">Linearization Block</text>
</g>
<!-- Amplifier_Block_Temperature&#45;&gt;Linearization_Block -->
<g id="edge7" class="edge">
<title>Amplifier_Block_Temperature&#45;&gt;Linearization_Block</title>
<path fill="none" stroke="#000000" d="M382.2201,-34C399.6409,-34 419.2522,-34 437.8473,-34"/>
<polygon fill="#000000" stroke="#000000" points="438.053,-37.5001 448.053,-34 438.053,-30.5001 438.053,-37.5001"/>
</g>
<!-- Filter_Block_Temperature -->
<g id="node10" class="node">
<title>Filter_Block_Temperature</title>
<polygon fill="none" stroke="#000000" points="753.6098,-52 611.6546,-52 611.6546,-16 753.6098,-16 753.6098,-52"/>
<text text-anchor="middle" x="682.6322" y="-29.8" font-family="Times,serif" font-size="14.00" fill="#000000">Low&#45;Pass Filter Block</text>
</g>
<!-- Linearization_Block&#45;&gt;Filter_Block_Temperature -->
<g id="edge8" class="edge">
<title>Linearization_Block&#45;&gt;Filter_Block_Temperature</title>
<path fill="none" stroke="#000000" d="M575.4464,-34C583.8984,-34 592.6557,-34 601.3559,-34"/>
<polygon fill="#000000" stroke="#000000" points="601.5214,-37.5001 611.5213,-34 601.5213,-30.5001 601.5214,-37.5001"/>
</g>
<!-- Filter_Block_Temperature&#45;&gt;Multiplexer -->
<g id="edge9" class="edge">
<title>Filter_Block_Temperature&#45;&gt;Multiplexer</title>
<path fill="none" stroke="#000000" d="M753.894,-51.9336C762.4269,-54.081 771.1335,-56.2721 779.6465,-58.4144"/>
<polygon fill="#000000" stroke="#000000" points="778.9773,-61.8551 789.5291,-60.9015 780.6857,-55.0667 778.9773,-61.8551"/>
</g>
</g>
</svg>
