<?xml version="1.0" encoding="UTF-8" standalone="no"?>
<!DOCTYPE svg PUBLIC "-//W3C//DTD SVG 1.1//EN"
 "http://www.w3.org/Graphics/SVG/1.1/DTD/svg11.dtd">
<!-- Generated by graphviz version 2.40.1 (20161225.0304)
 -->
<!-- Title: G Pages: 1 -->
<svg width="1263pt" height="175pt"
 viewBox="0.00 0.00 1262.62 175.00" xmlns="http://www.w3.org/2000/svg" xmlns:xlink="http://www.w3.org/1999/xlink">
<g id="graph0" class="graph" transform="scale(1 1) rotate(0) translate(4 171)">
<title>G</title>
<polygon fill="#ffffff" stroke="transparent" points="-4,4 -4,-171 1258.6168,-171 1258.6168,4 -4,4"/>
<g id="clust2" class="cluster">
<title>cluster_1</title>
<polygon fill="none" stroke="#000000" points="0,-8 0,-91 164.5744,-91 164.5744,-8 0,-8"/>
<text text-anchor="middle" x="82.2872" y="-74.4" font-family="Times,serif" font-size="14.00" fill="#000000">Temperature Sensor Array</text>
</g>
<g id="clust1" class="cluster">
<title>cluster_0</title>
<polygon fill="none" stroke="#000000" points="190.4138,-76 190.4138,-159 330.883,-159 330.883,-76 190.4138,-76"/>
<text text-anchor="middle" x="260.6484" y="-142.4" font-family="Times,serif" font-size="14.00" fill="#000000">Pressure Sensor Array</text>
</g>
<!-- Pressure_Sensors -->
<g id="node1" class="node">
<title>Pressure_Sensors</title>
<polygon fill="none" stroke="#000000" points="316.1186,-125.6019 205.1782,-125.6019 205.1782,-84.3981 316.1186,-84.3981 316.1186,-125.6019"/>
<text text-anchor="middle" x="260.6484" y="-109.2" font-family="Times,serif" font-size="14.00" fill="#000000">8x Strain&#45;Gauge</text>
<text text-anchor="middle" x="260.6484" y="-92.4" font-family="Times,serif" font-size="14.00" fill="#000000">Pressure Sensors</text>
</g>
<!-- Instrumentation_Amplifier_P -->
<g id="node3" class="node">
<title>Instrumentation_Amplifier_P</title>
<polygon fill="none" stroke="#000000" points="501.5616,-125.6019 364.776,-125.6019 364.776,-84.3981 501.5616,-84.3981 501.5616,-125.6019"/>
<text text-anchor="middle" x="433.1688" y="-109.2" font-family="Times,serif" font-size="14.00" fill="#000000">8x Instrumentation</text>
<text text-anchor="middle" x="433.1688" y="-92.4" font-family="Times,serif" font-size="14.00" fill="#000000">Amplifiers (Pressure)</text>
</g>
<!-- Pressure_Sensors&#45;&gt;Instrumentation_Amplifier_P -->
<g id="edge1" class="edge">
<title>Pressure_Sensors&#45;&gt;Instrumentation_Amplifier_P</title>
<path fill="none" stroke="#000000" d="M316.1846,-105C328.3873,-105 341.5337,-105 354.4526,-105"/>
<polygon fill="#000000" stroke="#000000" points="354.7422,-108.5001 364.7422,-105 354.7422,-101.5001 354.7422,-108.5001"/>
</g>
<!-- Temp_Sensors -->
<g id="node2" class="node">
<title>Temp_Sensors</title>
<polygon fill="none" stroke="#000000" points="145.3623,-57.6019 18.2121,-57.6019 18.2121,-16.3981 145.3623,-16.3981 145.3623,-57.6019"/>
<text text-anchor="middle" x="81.7872" y="-41.2" font-family="Times,serif" font-size="14.00" fill="#000000">8x Infrared</text>
<text text-anchor="middle" x="81.7872" y="-24.4" font-family="Times,serif" font-size="14.00" fill="#000000">Radiation Detectors</text>
</g>
<!-- Instrumentation_Amplifier_T -->
<g id="node4" class="node">
<title>Instrumentation_Amplifier_T</title>
<polygon fill="none" stroke="#000000" points="321.7965,-57.6019 199.5003,-57.6019 199.5003,-16.3981 321.7965,-16.3981 321.7965,-57.6019"/>
<text text-anchor="middle" x="260.6484" y="-41.2" font-family="Times,serif" font-size="14.00" fill="#000000">8x Instrumentation</text>
<text text-anchor="middle" x="260.6484" y="-24.4" font-family="Times,serif" font-size="14.00" fill="#000000">Amplifiers (Temp)</text>
</g>
<!-- Temp_Sensors&#45;&gt;Instrumentation_Amplifier_T -->
<g id="edge2" class="edge">
<title>Temp_Sensors&#45;&gt;Instrumentation_Amplifier_T</title>
<path fill="none" stroke="#000000" d="M145.6027,-37C159.7305,-37 174.7897,-37 189.1993,-37"/>
<polygon fill="#000000" stroke="#000000" points="189.5543,-40.5001 199.5543,-37 189.5542,-33.5001 189.5543,-40.5001"/>
</g>
<!-- Low_Pass_Filter_P -->
<g id="node5" class="node">
<title>Low_Pass_Filter_P</title>
<polygon fill="none" stroke="#000000" points="662.8639,-125.6019 550.8287,-125.6019 550.8287,-84.3981 662.8639,-84.3981 662.8639,-125.6019"/>
<text text-anchor="middle" x="606.8463" y="-109.2" font-family="Times,serif" font-size="14.00" fill="#000000">8x Low&#45;Pass</text>
<text text-anchor="middle" x="606.8463" y="-92.4" font-family="Times,serif" font-size="14.00" fill="#000000">Filters (Pressure)</text>
</g>
<!-- Instrumentation_Amplifier_P&#45;&gt;Low_Pass_Filter_P -->
<g id="edge3" class="edge">
<title>Instrumentation_Amplifier_P&#45;&gt;Low_Pass_Filter_P</title>
<path fill="none" stroke="#000000" d="M501.8107,-105C514.6043,-105 527.9495,-105 540.6671,-105"/>
<polygon fill="#000000" stroke="#000000" points="540.7093,-108.5001 550.7093,-105 540.7092,-101.5001 540.7093,-108.5001"/>
</g>
<!-- Low_Pass_Filter_T -->
<g id="node6" class="node">
<title>Low_Pass_Filter_T</title>
<polygon fill="none" stroke="#000000" points="481.9223,-57.6019 384.4153,-57.6019 384.4153,-16.3981 481.9223,-16.3981 481.9223,-57.6019"/>
<text text-anchor="middle" x="433.1688" y="-41.2" font-family="Times,serif" font-size="14.00" fill="#000000">8x Low&#45;Pass</text>
<text text-anchor="middle" x="433.1688" y="-24.4" font-family="Times,serif" font-size="14.00" fill="#000000">Filters (Temp)</text>
</g>
<!-- Instrumentation_Amplifier_T&#45;&gt;Low_Pass_Filter_T -->
<g id="edge4" class="edge">
<title>Instrumentation_Amplifier_T&#45;&gt;Low_Pass_Filter_T</title>
<path fill="none" stroke="#000000" d="M321.9584,-37C338.9617,-37 357.3801,-37 374.2439,-37"/>
<polygon fill="#000000" stroke="#000000" points="374.5166,-40.5001 384.5166,-37 374.5166,-33.5001 374.5166,-40.5001"/>
</g>
<!-- Gain_Stage_P -->
<g id="node7" class="node">
<title>Gain_Stage_P</title>
<polygon fill="none" stroke="#000000" points="812.7159,-123.6019 712.1977,-123.6019 712.1977,-82.3981 812.7159,-82.3981 812.7159,-123.6019"/>
<text text-anchor="middle" x="762.4568" y="-107.2" font-family="Times,serif" font-size="14.00" fill="#000000">8x Gain Stages</text>
<text text-anchor="middle" x="762.4568" y="-90.4" font-family="Times,serif" font-size="14.00" fill="#000000">(Pressure)</text>
</g>
<!-- Low_Pass_Filter_P&#45;&gt;Gain_Stage_P -->
<g id="edge5" class="edge">
<title>Low_Pass_Filter_P&#45;&gt;Gain_Stage_P</title>
<path fill="none" stroke="#000000" d="M663.0253,-104.278C675.6647,-104.1155 689.1313,-103.9424 701.9396,-103.7778"/>
<polygon fill="#000000" stroke="#000000" points="702.0878,-107.2763 712.042,-103.648 701.9978,-100.2769 702.0878,-107.2763"/>
</g>
<!-- Linearization_T -->
<g id="node8" class="node">
<title>Linearization_T</title>
<polygon fill="none" stroke="#000000" points="676.3093,-66.4014 537.3833,-66.4014 537.3833,-7.5986 676.3093,-7.5986 676.3093,-66.4014"/>
<text text-anchor="middle" x="606.8463" y="-49.6" font-family="Times,serif" font-size="14.00" fill="#000000">8x Nonlinear</text>
<text text-anchor="middle" x="606.8463" y="-32.8" font-family="Times,serif" font-size="14.00" fill="#000000">Linearization Circuits</text>
<text text-anchor="middle" x="606.8463" y="-16" font-family="Times,serif" font-size="14.00" fill="#000000">(Temp)</text>
</g>
<!-- Low_Pass_Filter_T&#45;&gt;Linearization_T -->
<g id="edge6" class="edge">
<title>Low_Pass_Filter_T&#45;&gt;Linearization_T</title>
<path fill="none" stroke="#000000" d="M482.0099,-37C496.0836,-37 511.8161,-37 527.2419,-37"/>
<polygon fill="#000000" stroke="#000000" points="527.3141,-40.5001 537.3141,-37 527.3141,-33.5001 527.3141,-40.5001"/>
</g>
<!-- Multiplexer -->
<g id="node10" class="node">
<title>Multiplexer</title>
<polygon fill="none" stroke="#000000" points="975.5492,-91.6019 848.9318,-91.6019 848.9318,-50.3981 975.5492,-50.3981 975.5492,-91.6019"/>
<text text-anchor="middle" x="912.2405" y="-75.2" font-family="Times,serif" font-size="14.00" fill="#000000">16&#45;to&#45;1</text>
<text text-anchor="middle" x="912.2405" y="-58.4" font-family="Times,serif" font-size="14.00" fill="#000000">Analog Multiplexer</text>
</g>
<!-- Gain_Stage_P&#45;&gt;Multiplexer -->
<g id="edge8" class="edge">
<title>Gain_Stage_P&#45;&gt;Multiplexer</title>
<path fill="none" stroke="#000000" d="M812.7493,-92.2554C821.1471,-90.4613 830.0092,-88.568 838.8436,-86.6806"/>
<polygon fill="#000000" stroke="#000000" points="839.7318,-90.0699 848.7798,-84.5578 838.2692,-83.2244 839.7318,-90.0699"/>
</g>
<!-- Gain_Stage_T -->
<g id="node9" class="node">
<title>Gain_Stage_T</title>
<polygon fill="none" stroke="#000000" points="812.7159,-61.6019 712.1977,-61.6019 712.1977,-20.3981 812.7159,-20.3981 812.7159,-61.6019"/>
<text text-anchor="middle" x="762.4568" y="-45.2" font-family="Times,serif" font-size="14.00" fill="#000000">8x Gain Stages</text>
<text text-anchor="middle" x="762.4568" y="-28.4" font-family="Times,serif" font-size="14.00" fill="#000000">(Temp)</text>
</g>
<!-- Linearization_T&#45;&gt;Gain_Stage_T -->
<g id="edge7" class="edge">
<title>Linearization_T&#45;&gt;Gain_Stage_T</title>
<path fill="none" stroke="#000000" d="M676.4591,-38.7894C684.9736,-39.0083 693.6204,-39.2305 701.9856,-39.4456"/>
<polygon fill="#000000" stroke="#000000" points="701.9352,-42.9453 712.0219,-39.7036 702.1151,-35.9477 701.9352,-42.9453"/>
</g>
<!-- Gain_Stage_T&#45;&gt;Multiplexer -->
<g id="edge9" class="edge">
<title>Gain_Stage_T&#45;&gt;Multiplexer</title>
<path fill="none" stroke="#000000" d="M812.7493,-51.073C821.1471,-52.755 830.0092,-54.53 838.8436,-56.2994"/>
<polygon fill="#000000" stroke="#000000" points="838.2871,-59.7574 848.7798,-58.2895 839.6619,-52.8937 838.2871,-59.7574"/>
</g>
<!-- Anti_Aliasing_Filter -->
<g id="node12" class="node">
<title>Anti_Aliasing_Filter</title>
<polygon fill="none" stroke="#000000" points="1104.6238,-91.6019 1011.6518,-91.6019 1011.6518,-50.3981 1104.6238,-50.3981 1104.6238,-91.6019"/>
<text text-anchor="middle" x="1058.1378" y="-75.2" font-family="Times,serif" font-size="14.00" fill="#000000">Anti&#45;Aliasing</text>
<text text-anchor="middle" x="1058.1378" y="-58.4" font-family="Times,serif" font-size="14.00" fill="#000000">Filter</text>
</g>
<!-- Multiplexer&#45;&gt;Anti_Aliasing_Filter -->
<g id="edge10" class="edge">
<title>Multiplexer&#45;&gt;Anti_Aliasing_Filter</title>
<path fill="none" stroke="#000000" d="M975.8088,-71C984.3252,-71 993.0151,-71 1001.4037,-71"/>
<polygon fill="#000000" stroke="#000000" points="1001.4546,-74.5001 1011.4546,-71 1001.4546,-67.5001 1001.4546,-74.5001"/>
</g>
<!-- ADC -->
<g id="node11" class="node">
<title>ADC</title>
<polygon fill="none" stroke="#000000" points="1254.6098,-91.6019 1140.6378,-91.6019 1140.6378,-50.3981 1254.6098,-50.3981 1254.6098,-91.6019"/>
<text text-anchor="middle" x="1197.6238" y="-75.2" font-family="Times,serif" font-size="14.00" fill="#000000">Analog to Digital</text>
<text text-anchor="middle" x="1197.6238" y="-58.4" font-family="Times,serif" font-size="14.00" fill="#000000">Converter</text>
</g>
<!-- Anti_Aliasing_Filter&#45;&gt;ADC -->
<g id="edge11" class="edge">
<title>Anti_Aliasing_Filter&#45;&gt;ADC</title>
<path fill="none" stroke="#000000" d="M1104.9727,-71C1113.1641,-71 1121.8299,-71 1130.4435,-71"/>
<polygon fill="#000000" stroke="#000000" points="1130.4997,-74.5001 1140.4996,-71 1130.4996,-67.5001 1130.4997,-74.5001"/>
</g>
</g>
</svg>
