<?xml version="1.0" encoding="UTF-8" standalone="no"?>
<!DOCTYPE svg PUBLIC "-//W3C//DTD SVG 1.1//EN"
 "http://www.w3.org/Graphics/SVG/1.1/DTD/svg11.dtd">
<!-- Generated by graphviz version 2.40.1 (20161225.0304)
 -->
<!-- Title: G Pages: 1 -->
<svg width="809pt" height="113pt"
 viewBox="0.00 0.00 808.58 113.00" xmlns="http://www.w3.org/2000/svg" xmlns:xlink="http://www.w3.org/1999/xlink">
<g id="graph0" class="graph" transform="scale(1 1) rotate(0) translate(4 109)">
<title>G</title>
<polygon fill="#ffffff" stroke="transparent" points="-4,4 -4,-109 804.5788,-109 804.5788,4 -4,4"/>
<!-- Thermistor Sensor (NTC) -->
<g id="node1" class="node">
<title>Thermistor Sensor (NTC)</title>
<polygon fill="none" stroke="#000000" points="160.4367,-105 .1875,-105 .1875,-69 160.4367,-69 160.4367,-105"/>
<text text-anchor="middle" x="80.3121" y="-82.8" font-family="Times,serif" font-size="14.00" fill="#000000">Thermistor Sensor (NTC)</text>
</g>
<!-- Linearization Circuit -->
<g id="node2" class="node">
<title>Linearization Circuit</title>
<polygon fill="none" stroke="#000000" points="329.6506,-105 196.6154,-105 196.6154,-69 329.6506,-69 329.6506,-105"/>
<text text-anchor="middle" x="263.133" y="-82.8" font-family="Times,serif" font-size="14.00" fill="#000000">Linearization Circuit</text>
</g>
<!-- Thermistor Sensor (NTC)&#45;&gt;Linearization Circuit -->
<g id="edge1" class="edge">
<title>Thermistor Sensor (NTC)&#45;&gt;Linearization Circuit</title>
<path fill="none" stroke="#000000" d="M160.5,-87C169.026,-87 177.6842,-87 186.1719,-87"/>
<polygon fill="#000000" stroke="#000000" points="186.4202,-90.5001 196.4202,-87 186.4201,-83.5001 186.4202,-90.5001"/>
</g>
<!-- Amplification Stage -->
<g id="node3" class="node">
<title>Amplification Stage</title>
<polygon fill="none" stroke="#000000" points="494.8555,-105 365.5705,-105 365.5705,-69 494.8555,-69 494.8555,-105"/>
<text text-anchor="middle" x="430.213" y="-82.8" font-family="Times,serif" font-size="14.00" fill="#000000">Amplification Stage</text>
</g>
<!-- Linearization Circuit&#45;&gt;Amplification Stage -->
<g id="edge2" class="edge">
<title>Linearization Circuit&#45;&gt;Amplification Stage</title>
<path fill="none" stroke="#000000" d="M329.6475,-87C338.1506,-87 346.8993,-87 355.521,-87"/>
<polygon fill="#000000" stroke="#000000" points="355.5614,-90.5001 365.5613,-87 355.5613,-83.5001 355.5614,-90.5001"/>
</g>
<!-- Level Shifting Stage -->
<g id="node4" class="node">
<title>Level Shifting Stage</title>
<polygon fill="none" stroke="#000000" points="661.9189,-105 530.7393,-105 530.7393,-69 661.9189,-69 661.9189,-105"/>
<text text-anchor="middle" x="596.3291" y="-82.8" font-family="Times,serif" font-size="14.00" fill="#000000">Level Shifting Stage</text>
</g>
<!-- Amplification Stage&#45;&gt;Level Shifting Stage -->
<g id="edge3" class="edge">
<title>Amplification Stage&#45;&gt;Level Shifting Stage</title>
<path fill="none" stroke="#000000" d="M494.9135,-87C503.3601,-87 512.0733,-87 520.6795,-87"/>
<polygon fill="#000000" stroke="#000000" points="520.7111,-90.5001 530.711,-87 520.711,-83.5001 520.7111,-90.5001"/>
</g>
<!-- Output Voltage -->
<g id="node5" class="node">
<title>Output Voltage</title>
<polygon fill="none" stroke="#000000" points="800.4316,-105 698.0212,-105 698.0212,-69 800.4316,-69 800.4316,-105"/>
<text text-anchor="middle" x="749.2264" y="-82.8" font-family="Times,serif" font-size="14.00" fill="#000000">Output Voltage</text>
</g>
<!-- Level Shifting Stage&#45;&gt;Output Voltage -->
<g id="edge4" class="edge">
<title>Level Shifting Stage&#45;&gt;Output Voltage</title>
<path fill="none" stroke="#000000" d="M662.0587,-87C670.5749,-87 679.2722,-87 687.7164,-87"/>
<polygon fill="#000000" stroke="#000000" points="687.8619,-90.5001 697.8619,-87 687.8618,-83.5001 687.8619,-90.5001"/>
</g>
<!-- Buffer -->
<g id="node6" class="node">
<title>Buffer</title>
<polygon fill="none" stroke="#000000" points="107.3121,-36 53.3121,-36 53.3121,0 107.3121,0 107.3121,-36"/>
<text text-anchor="middle" x="80.3121" y="-13.8" font-family="Times,serif" font-size="14.00" fill="#000000">Buffer</text>
</g>
<!-- Buffer&#45;&gt;Amplification Stage -->
<g id="edge5" class="edge">
<title>Buffer&#45;&gt;Amplification Stage</title>
<path fill="none" stroke="#000000" stroke-dasharray="1,5" d="M107.4076,-21.6993C153.3687,-28.1669 249.4384,-42.5206 329.6418,-60 338.4627,-61.9224 347.6692,-64.1222 356.7751,-66.4181"/>
<polygon fill="#000000" stroke="#000000" points="356.0373,-69.8421 366.5936,-68.9384 357.7778,-63.0619 356.0373,-69.8421"/>
</g>
<!-- Buffer&#45;&gt;Level Shifting Stage -->
<g id="edge6" class="edge">
<title>Buffer&#45;&gt;Level Shifting Stage</title>
<path fill="none" stroke="#000000" stroke-dasharray="1,5" d="M107.3345,-18.3328C153.1878,-19.1381 249.1029,-21.8632 329.6418,-31 403.6866,-39.4001 422.0098,-43.9663 494.7842,-60 503.615,-61.9456 512.8332,-64.1501 521.9577,-66.4402"/>
<polygon fill="#000000" stroke="#000000" points="521.2444,-69.8703 531.7993,-68.9507 522.9747,-63.0875 521.2444,-69.8703"/>
</g>
</g>
</svg>
