<?xml version="1.0" encoding="UTF-8" standalone="no"?>
<!DOCTYPE svg PUBLIC "-//W3C//DTD SVG 1.1//EN"
 "http://www.w3.org/Graphics/SVG/1.1/DTD/svg11.dtd">
<!-- Generated by graphviz version 2.40.1 (20161225.0304)
 -->
<!-- Title: G Pages: 1 -->
<svg width="1068pt" height="110pt"
 viewBox="0.00 0.00 1067.76 109.60" xmlns="http://www.w3.org/2000/svg" xmlns:xlink="http://www.w3.org/1999/xlink">
<g id="graph0" class="graph" transform="scale(1 1) rotate(0) translate(4 105.6)">
<title>G</title>
<polygon fill="#ffffff" stroke="transparent" points="-4,4 -4,-105.6 1063.7592,-105.6 1063.7592,4 -4,4"/>
<!-- PressureSensorArray -->
<g id="node1" class="node">
<title>PressureSensorArray</title>
<polygon fill="none" stroke="#000000" points="180.0279,-98.8 12.0515,-98.8 12.0515,-62.8 180.0279,-62.8 180.0279,-98.8"/>
<text text-anchor="middle" x="96.0397" y="-76.6" font-family="Times,serif" font-size="14.00" fill="#000000">Pressure Sensor Array (x8)</text>
</g>
<!-- InstrumentationAmpPressure -->
<g id="node3" class="node">
<title>InstrumentationAmpPressure</title>
<polygon fill="none" stroke="#000000" points="391.609,-101.4019 227.9026,-101.4019 227.9026,-60.1981 391.609,-60.1981 391.609,-101.4019"/>
<text text-anchor="middle" x="309.7558" y="-85" font-family="Times,serif" font-size="14.00" fill="#000000">Instrumentation Amplifier</text>
<text text-anchor="middle" x="309.7558" y="-68.2" font-family="Times,serif" font-size="14.00" fill="#000000">(for Pressure)</text>
</g>
<!-- PressureSensorArray&#45;&gt;InstrumentationAmpPressure -->
<g id="edge1" class="edge">
<title>PressureSensorArray&#45;&gt;InstrumentationAmpPressure</title>
<path fill="none" stroke="#000000" d="M180.1992,-80.8C192.4275,-80.8 205.0717,-80.8 217.4503,-80.8"/>
<polygon fill="#000000" stroke="#000000" points="217.771,-84.3001 227.771,-80.8 217.771,-77.3001 217.771,-84.3001"/>
</g>
<!-- TempSensorArray -->
<g id="node2" class="node">
<title>TempSensorArray</title>
<polygon fill="none" stroke="#000000" points="192.1191,-38.8 -.0397,-38.8 -.0397,-2.8 192.1191,-2.8 192.1191,-38.8"/>
<text text-anchor="middle" x="96.0397" y="-16.6" font-family="Times,serif" font-size="14.00" fill="#000000">Temperature Sensor Array (x8)</text>
</g>
<!-- InstrumentationAmpTemperature -->
<g id="node4" class="node">
<title>InstrumentationAmpTemperature</title>
<polygon fill="none" stroke="#000000" points="391.609,-41.4019 227.9026,-41.4019 227.9026,-.1981 391.609,-.1981 391.609,-41.4019"/>
<text text-anchor="middle" x="309.7558" y="-25" font-family="Times,serif" font-size="14.00" fill="#000000">Instrumentation Amplifier</text>
<text text-anchor="middle" x="309.7558" y="-8.2" font-family="Times,serif" font-size="14.00" fill="#000000">(for Temperature)</text>
</g>
<!-- TempSensorArray&#45;&gt;InstrumentationAmpTemperature -->
<g id="edge3" class="edge">
<title>TempSensorArray&#45;&gt;InstrumentationAmpTemperature</title>
<path fill="none" stroke="#000000" d="M192.2693,-20.8C200.6974,-20.8 209.2144,-20.8 217.6081,-20.8"/>
<polygon fill="#000000" stroke="#000000" points="217.771,-24.3001 227.771,-20.8 217.771,-17.3001 217.771,-24.3001"/>
</g>
<!-- Multiplexer -->
<g id="node5" class="node">
<title>Multiplexer</title>
<polygon fill="none" stroke="#000000" points="547.1453,-68.8 427.5277,-68.8 427.5277,-32.8 547.1453,-32.8 547.1453,-68.8"/>
<text text-anchor="middle" x="487.3365" y="-46.6" font-family="Times,serif" font-size="14.00" fill="#000000">8&#45;to&#45;1 Multiplexer</text>
</g>
<!-- InstrumentationAmpPressure&#45;&gt;Multiplexer -->
<g id="edge2" class="edge">
<title>InstrumentationAmpPressure&#45;&gt;Multiplexer</title>
<path fill="none" stroke="#000000" d="M391.5292,-66.9854C400.2309,-65.5154 409.0231,-64.0301 417.5686,-62.5864"/>
<polygon fill="#000000" stroke="#000000" points="418.1895,-66.0312 427.4667,-60.9142 417.0234,-59.129 418.1895,-66.0312"/>
</g>
<!-- InstrumentationAmpTemperature&#45;&gt;Multiplexer -->
<g id="edge4" class="edge">
<title>InstrumentationAmpTemperature&#45;&gt;Multiplexer</title>
<path fill="none" stroke="#000000" d="M391.5292,-34.6146C400.2309,-36.0846 409.0231,-37.5699 417.5686,-39.0136"/>
<polygon fill="#000000" stroke="#000000" points="417.0234,-42.471 427.4667,-40.6858 418.1895,-35.5688 417.0234,-42.471"/>
</g>
<!-- AntiAliasingFilter -->
<g id="node6" class="node">
<title>AntiAliasingFilter</title>
<polygon fill="none" stroke="#000000" points="709.9643,-68.8 583.3329,-68.8 583.3329,-32.8 709.9643,-32.8 709.9643,-68.8"/>
<text text-anchor="middle" x="646.6486" y="-46.6" font-family="Times,serif" font-size="14.00" fill="#000000">Anti&#45;Aliasing Filter</text>
</g>
<!-- Multiplexer&#45;&gt;AntiAliasingFilter -->
<g id="edge5" class="edge">
<title>Multiplexer&#45;&gt;AntiAliasingFilter</title>
<path fill="none" stroke="#000000" d="M547.5656,-50.8C555.8345,-50.8 564.4009,-50.8 572.878,-50.8"/>
<polygon fill="#000000" stroke="#000000" points="573.1478,-54.3001 583.1478,-50.8 573.1477,-47.3001 573.1478,-54.3001"/>
</g>
<!-- ADC -->
<g id="node7" class="node">
<title>ADC</title>
<polygon fill="none" stroke="#000000" points="919.7524,-68.8 745.824,-68.8 745.824,-32.8 919.7524,-32.8 919.7524,-68.8"/>
<text text-anchor="middle" x="832.7882" y="-46.6" font-family="Times,serif" font-size="14.00" fill="#000000">Analog to Digital Converter</text>
</g>
<!-- AntiAliasingFilter&#45;&gt;ADC -->
<g id="edge6" class="edge">
<title>AntiAliasingFilter&#45;&gt;ADC</title>
<path fill="none" stroke="#000000" d="M710.1867,-50.8C718.4377,-50.8 727.0343,-50.8 735.6774,-50.8"/>
<polygon fill="#000000" stroke="#000000" points="735.8271,-54.3001 745.8271,-50.8 735.8271,-47.3001 735.8271,-54.3001"/>
</g>
<!-- Computer -->
<g id="node8" class="node">
<title>Computer</title>
<polygon fill="none" stroke="#000000" points="1059.8791,-71.4019 955.4001,-71.4019 955.4001,-30.1981 1059.8791,-30.1981 1059.8791,-71.4019"/>
<text text-anchor="middle" x="1007.6396" y="-55" font-family="Times,serif" font-size="14.00" fill="#000000">Computer</text>
<text text-anchor="middle" x="1007.6396" y="-38.2" font-family="Times,serif" font-size="14.00" fill="#000000">(Data Analysis)</text>
</g>
<!-- ADC&#45;&gt;Computer -->
<g id="edge7" class="edge">
<title>ADC&#45;&gt;Computer</title>
<path fill="none" stroke="#000000" d="M919.7016,-50.8C928.2591,-50.8 936.8232,-50.8 945.0658,-50.8"/>
<polygon fill="#000000" stroke="#000000" points="945.3099,-54.3001 955.3098,-50.8 945.3098,-47.3001 945.3099,-54.3001"/>
</g>
</g>
</svg>
