<?xml version="1.0" encoding="UTF-8" standalone="no"?>
<!DOCTYPE svg PUBLIC "-//W3C//DTD SVG 1.1//EN"
 "http://www.w3.org/Graphics/SVG/1.1/DTD/svg11.dtd">
<!-- Generated by graphviz version 2.40.1 (20161225.0304)
 -->
<!-- Title: G Pages: 1 -->
<svg width="1392pt" height="44pt"
 viewBox="0.00 0.00 1391.82 44.00" xmlns="http://www.w3.org/2000/svg" xmlns:xlink="http://www.w3.org/1999/xlink">
<g id="graph0" class="graph" transform="scale(1 1) rotate(0) translate(4 40)">
<title>G</title>
<polygon fill="#ffffff" stroke="transparent" points="-4,4 -4,-40 1387.8209,-40 1387.8209,4 -4,4"/>
<!-- Thermistor -->
<g id="node1" class="node">
<title>Thermistor</title>
<polygon fill="none" stroke="#000000" points="109.5513,-36 .1493,-36 .1493,0 109.5513,0 109.5513,-36"/>
<text text-anchor="middle" x="54.8503" y="-13.8" font-family="Times,serif" font-size="14.00" fill="#000000">NTC Thermistor</text>
</g>
<!-- ParallelResistor -->
<g id="node2" class="node">
<title>ParallelResistor</title>
<polygon fill="none" stroke="#000000" points="364.3064,-36 190.5344,-36 145.8319,0 319.6039,0 364.3064,-36"/>
<text text-anchor="middle" x="255.0691" y="-13.8" font-family="Times,serif" font-size="14.00" fill="#000000">Parallel Resistor</text>
</g>
<!-- Thermistor&#45;&gt;ParallelResistor -->
<g id="edge1" class="edge">
<title>Thermistor&#45;&gt;ParallelResistor</title>
<path fill="none" stroke="#000000" d="M109.561,-18C124.5187,-18 141.192,-18 157.7628,-18"/>
<polygon fill="#000000" stroke="#000000" points="158.051,-21.5001 168.051,-18 158.051,-14.5001 158.051,-21.5001"/>
</g>
<!-- Linearization -->
<g id="node3" class="node">
<title>Linearization</title>
<polygon fill="none" stroke="#000000" points="543.6072,-36 400.3812,-36 400.3812,0 543.6072,0 543.6072,-36"/>
<text text-anchor="middle" x="471.9942" y="-13.8" font-family="Times,serif" font-size="14.00" fill="#000000">Linearization Network</text>
</g>
<!-- ParallelResistor&#45;&gt;Linearization -->
<g id="edge2" class="edge">
<title>ParallelResistor&#45;&gt;Linearization</title>
<path fill="none" stroke="#000000" d="M342.051,-18C357.9084,-18 374.4039,-18 390.1074,-18"/>
<polygon fill="#000000" stroke="#000000" points="390.2978,-21.5001 400.2978,-18 390.2978,-14.5001 390.2978,-21.5001"/>
</g>
<!-- Buffer -->
<g id="node4" class="node">
<title>Buffer</title>
<polygon fill="none" stroke="#000000" points="633.5507,-36 579.5507,-36 579.5507,0 633.5507,0 633.5507,-36"/>
<text text-anchor="middle" x="606.5507" y="-13.8" font-family="Times,serif" font-size="14.00" fill="#000000">Buffer</text>
</g>
<!-- Linearization&#45;&gt;Buffer -->
<g id="edge3" class="edge">
<title>Linearization&#45;&gt;Buffer</title>
<path fill="none" stroke="#000000" d="M543.6061,-18C552.5085,-18 561.3093,-18 569.3816,-18"/>
<polygon fill="#000000" stroke="#000000" points="569.521,-21.5001 579.5209,-18 569.5209,-14.5001 569.521,-21.5001"/>
</g>
<!-- GainStage -->
<g id="node5" class="node">
<title>GainStage</title>
<polygon fill="none" stroke="#000000" points="747.2722,-36 669.6434,-36 669.6434,0 747.2722,0 747.2722,-36"/>
<text text-anchor="middle" x="708.4578" y="-13.8" font-family="Times,serif" font-size="14.00" fill="#000000">Gain Stage</text>
</g>
<!-- Buffer&#45;&gt;GainStage -->
<g id="edge4" class="edge">
<title>Buffer&#45;&gt;GainStage</title>
<path fill="none" stroke="#000000" d="M633.5924,-18C641.4754,-18 650.3459,-18 659.1508,-18"/>
<polygon fill="#000000" stroke="#000000" points="659.3937,-21.5001 669.3937,-18 659.3936,-14.5001 659.3937,-21.5001"/>
</g>
<!-- LevelShifter -->
<g id="node6" class="node">
<title>LevelShifter</title>
<polygon fill="none" stroke="#000000" points="873.0741,-36 783.1276,-36 783.1276,0 873.0741,0 873.0741,-36"/>
<text text-anchor="middle" x="828.1009" y="-13.8" font-family="Times,serif" font-size="14.00" fill="#000000">Level Shifter</text>
</g>
<!-- GainStage&#45;&gt;LevelShifter -->
<g id="edge5" class="edge">
<title>GainStage&#45;&gt;LevelShifter</title>
<path fill="none" stroke="#000000" d="M747.3025,-18C755.5416,-18 764.3885,-18 773.0982,-18"/>
<polygon fill="#000000" stroke="#000000" points="773.2152,-21.5001 783.2152,-18 773.2151,-14.5001 773.2152,-21.5001"/>
</g>
<!-- AntiAliasingFilter -->
<g id="node7" class="node">
<title>AntiAliasingFilter</title>
<polygon fill="none" stroke="#000000" points="1035.5604,-36 908.929,-36 908.929,0 1035.5604,0 1035.5604,-36"/>
<text text-anchor="middle" x="972.2447" y="-13.8" font-family="Times,serif" font-size="14.00" fill="#000000">Anti&#45;Aliasing Filter</text>
</g>
<!-- LevelShifter&#45;&gt;AntiAliasingFilter -->
<g id="edge6" class="edge">
<title>LevelShifter&#45;&gt;AntiAliasingFilter</title>
<path fill="none" stroke="#000000" d="M872.9188,-18C881.0566,-18 889.7381,-18 898.4532,-18"/>
<polygon fill="#000000" stroke="#000000" points="898.6688,-21.5001 908.6688,-18 898.6687,-14.5001 898.6688,-21.5001"/>
</g>
<!-- ADC -->
<g id="node8" class="node">
<title>ADC</title>
<polygon fill="none" stroke="#000000" points="1245.3485,-36 1071.4201,-36 1071.4201,0 1245.3485,0 1245.3485,-36"/>
<text text-anchor="middle" x="1158.3843" y="-13.8" font-family="Times,serif" font-size="14.00" fill="#000000">Analog to Digital Converter</text>
</g>
<!-- AntiAliasingFilter&#45;&gt;ADC -->
<g id="edge7" class="edge">
<title>AntiAliasingFilter&#45;&gt;ADC</title>
<path fill="none" stroke="#000000" d="M1035.7828,-18C1044.0338,-18 1052.6304,-18 1061.2735,-18"/>
<polygon fill="#000000" stroke="#000000" points="1061.4232,-21.5001 1071.4232,-18 1061.4232,-14.5001 1061.4232,-21.5001"/>
</g>
<!-- OutputVoltage -->
<g id="node9" class="node">
<title>OutputVoltage</title>
<polygon fill="none" stroke="#000000" points="1383.6737,-36 1281.2633,-36 1281.2633,0 1383.6737,0 1383.6737,-36"/>
<text text-anchor="middle" x="1332.4685" y="-13.8" font-family="Times,serif" font-size="14.00" fill="#000000">Output Voltage</text>
</g>
<!-- ADC&#45;&gt;OutputVoltage -->
<g id="edge8" class="edge">
<title>ADC&#45;&gt;OutputVoltage</title>
<path fill="none" stroke="#000000" d="M1245.1714,-18C1253.8904,-18 1262.6129,-18 1270.9888,-18"/>
<polygon fill="#000000" stroke="#000000" points="1271.0102,-21.5001 1281.0102,-18 1271.0102,-14.5001 1271.0102,-21.5001"/>
</g>
</g>
</svg>
