<?xml version="1.0" encoding="UTF-8" standalone="no"?>
<!DOCTYPE svg PUBLIC "-//W3C//DTD SVG 1.1//EN"
 "http://www.w3.org/Graphics/SVG/1.1/DTD/svg11.dtd">
<!-- Generated by graphviz version 2.40.1 (20161225.0304)
 -->
<!-- Title: G Pages: 1 -->
<svg width="919pt" height="294pt"
 viewBox="0.00 0.00 919.32 294.00" xmlns="http://www.w3.org/2000/svg" xmlns:xlink="http://www.w3.org/1999/xlink">
<g id="graph0" class="graph" transform="scale(1 1) rotate(0) translate(4 290)">
<title>G</title>
<polygon fill="#ffffff" stroke="transparent" points="-4,4 -4,-290 915.3208,-290 915.3208,4 -4,4"/>
<g id="clust2" class="cluster">
<title>cluster_temp</title>
<polygon fill="none" stroke="#000000" points="8,-8 8,-139 377.3326,-139 377.3326,-8 8,-8"/>
<text text-anchor="middle" x="192.6663" y="-122.4" font-family="Times,serif" font-size="14.00" fill="#000000">Temperature Sensors Array</text>
</g>
<g id="clust1" class="cluster">
<title>cluster_pressure</title>
<polygon fill="none" stroke="#000000" points="20.0456,-147 20.0456,-278 375.4006,-278 375.4006,-147 20.0456,-147"/>
<text text-anchor="middle" x="197.7231" y="-261.4" font-family="Times,serif" font-size="14.00" fill="#000000">Pressure Sensors Array</text>
</g>
<!-- Pressure Sensor 1 -->
<g id="node1" class="node">
<title>Pressure Sensor 1</title>
<polygon fill="none" stroke="#000000" points="143.3335,-245 28.2823,-245 28.2823,-209 143.3335,-209 143.3335,-245"/>
<text text-anchor="middle" x="85.8079" y="-222.8" font-family="Times,serif" font-size="14.00" fill="#000000">Pressure Sensor 1</text>
</g>
<!-- Instrumentation Amplifier 1 -->
<g id="node2" class="node">
<title>Instrumentation Amplifier 1</title>
<polygon fill="none" stroke="#000000" points="367.3271,-245 193.6213,-245 193.6213,-209 367.3271,-209 367.3271,-245"/>
<text text-anchor="middle" x="280.4742" y="-222.8" font-family="Times,serif" font-size="14.00" fill="#000000">Instrumentation Amplifier 1</text>
</g>
<!-- Pressure Sensor 1&#45;&gt;Instrumentation Amplifier 1 -->
<g id="edge1" class="edge">
<title>Pressure Sensor 1&#45;&gt;Instrumentation Amplifier 1</title>
<path fill="none" stroke="#000000" d="M143.4241,-227C155.9318,-227 169.4957,-227 183.0617,-227"/>
<polygon fill="#000000" stroke="#000000" points="183.4186,-230.5001 193.4186,-227 183.4185,-223.5001 183.4186,-230.5001"/>
</g>
<!-- Multiplexer 1 -->
<g id="node9" class="node">
<title>Multiplexer 1</title>
<polygon fill="none" stroke="#000000" points="497.7287,-191 405.5333,-191 405.5333,-155 497.7287,-155 497.7287,-191"/>
<text text-anchor="middle" x="451.631" y="-168.8" font-family="Times,serif" font-size="14.00" fill="#000000">Multiplexer 1</text>
</g>
<!-- Instrumentation Amplifier 1&#45;&gt;Multiplexer 1 -->
<g id="edge5" class="edge">
<title>Instrumentation Amplifier 1&#45;&gt;Multiplexer 1</title>
<path fill="none" stroke="#000000" d="M347.8884,-208.9258C357.7994,-206.0608 367.8572,-203.0374 377.3326,-200 383.3363,-198.0755 389.5778,-195.9722 395.7783,-193.8164"/>
<polygon fill="#000000" stroke="#000000" points="397.1833,-197.0322 405.4484,-190.4035 394.8535,-190.4312 397.1833,-197.0322"/>
</g>
<!-- Pressure Sensor 8 -->
<g id="node3" class="node">
<title>Pressure Sensor 8</title>
<polygon fill="none" stroke="#000000" points="143.3335,-191 28.2823,-191 28.2823,-155 143.3335,-155 143.3335,-191"/>
<text text-anchor="middle" x="85.8079" y="-168.8" font-family="Times,serif" font-size="14.00" fill="#000000">Pressure Sensor 8</text>
</g>
<!-- Instrumentation Amplifier 8 -->
<g id="node4" class="node">
<title>Instrumentation Amplifier 8</title>
<polygon fill="none" stroke="#000000" points="367.3271,-191 193.6213,-191 193.6213,-155 367.3271,-155 367.3271,-191"/>
<text text-anchor="middle" x="280.4742" y="-168.8" font-family="Times,serif" font-size="14.00" fill="#000000">Instrumentation Amplifier 8</text>
</g>
<!-- Pressure Sensor 8&#45;&gt;Instrumentation Amplifier 8 -->
<g id="edge2" class="edge">
<title>Pressure Sensor 8&#45;&gt;Instrumentation Amplifier 8</title>
<path fill="none" stroke="#000000" d="M143.4241,-173C155.9318,-173 169.4957,-173 183.0617,-173"/>
<polygon fill="#000000" stroke="#000000" points="183.4186,-176.5001 193.4186,-173 183.4185,-169.5001 183.4186,-176.5001"/>
</g>
<!-- Instrumentation Amplifier 8&#45;&gt;Multiplexer 1 -->
<g id="edge6" class="edge">
<title>Instrumentation Amplifier 8&#45;&gt;Multiplexer 1</title>
<path fill="none" stroke="#000000" d="M367.5568,-173C376.9351,-173 386.2892,-173 395.1685,-173"/>
<polygon fill="#000000" stroke="#000000" points="395.347,-176.5001 405.347,-173 395.347,-169.5001 395.347,-176.5001"/>
</g>
<!-- Temperature Sensor 1 -->
<g id="node5" class="node">
<title>Temperature Sensor 1</title>
<polygon fill="none" stroke="#000000" points="155.4242,-106 16.1916,-106 16.1916,-70 155.4242,-70 155.4242,-106"/>
<text text-anchor="middle" x="85.8079" y="-83.8" font-family="Times,serif" font-size="14.00" fill="#000000">Temperature Sensor 1</text>
</g>
<!-- Transimpedance Amplifier 1 -->
<g id="node6" class="node">
<title>Transimpedance Amplifier 1</title>
<polygon fill="none" stroke="#000000" points="369.1912,-106 191.7572,-106 191.7572,-70 369.1912,-70 369.1912,-106"/>
<text text-anchor="middle" x="280.4742" y="-83.8" font-family="Times,serif" font-size="14.00" fill="#000000">Transimpedance Amplifier 1</text>
</g>
<!-- Temperature Sensor 1&#45;&gt;Transimpedance Amplifier 1 -->
<g id="edge3" class="edge">
<title>Temperature Sensor 1&#45;&gt;Transimpedance Amplifier 1</title>
<path fill="none" stroke="#000000" d="M155.5371,-88C163.9273,-88 172.6158,-88 181.3237,-88"/>
<polygon fill="#000000" stroke="#000000" points="181.5383,-91.5001 191.5383,-88 181.5382,-84.5001 181.5383,-91.5001"/>
</g>
<!-- Multiplexer 2 -->
<g id="node13" class="node">
<title>Multiplexer 2</title>
<polygon fill="none" stroke="#000000" points="497.7287,-106 405.5333,-106 405.5333,-70 497.7287,-70 497.7287,-106"/>
<text text-anchor="middle" x="451.631" y="-83.8" font-family="Times,serif" font-size="14.00" fill="#000000">Multiplexer 2</text>
</g>
<!-- Transimpedance Amplifier 1&#45;&gt;Multiplexer 2 -->
<g id="edge10" class="edge">
<title>Transimpedance Amplifier 1&#45;&gt;Multiplexer 2</title>
<path fill="none" stroke="#000000" d="M369.3112,-88C378.0107,-88 386.6651,-88 394.9143,-88"/>
<polygon fill="#000000" stroke="#000000" points="395.1195,-91.5001 405.1195,-88 395.1195,-84.5001 395.1195,-91.5001"/>
</g>
<!-- Temperature Sensor 8 -->
<g id="node7" class="node">
<title>Temperature Sensor 8</title>
<polygon fill="none" stroke="#000000" points="155.4242,-52 16.1916,-52 16.1916,-16 155.4242,-16 155.4242,-52"/>
<text text-anchor="middle" x="85.8079" y="-29.8" font-family="Times,serif" font-size="14.00" fill="#000000">Temperature Sensor 8</text>
</g>
<!-- Transimpedance Amplifier 8 -->
<g id="node8" class="node">
<title>Transimpedance Amplifier 8</title>
<polygon fill="none" stroke="#000000" points="369.1912,-52 191.7572,-52 191.7572,-16 369.1912,-16 369.1912,-52"/>
<text text-anchor="middle" x="280.4742" y="-29.8" font-family="Times,serif" font-size="14.00" fill="#000000">Transimpedance Amplifier 8</text>
</g>
<!-- Temperature Sensor 8&#45;&gt;Transimpedance Amplifier 8 -->
<g id="edge4" class="edge">
<title>Temperature Sensor 8&#45;&gt;Transimpedance Amplifier 8</title>
<path fill="none" stroke="#000000" d="M155.5371,-34C163.9273,-34 172.6158,-34 181.3237,-34"/>
<polygon fill="#000000" stroke="#000000" points="181.5383,-37.5001 191.5383,-34 181.5382,-30.5001 181.5383,-37.5001"/>
</g>
<!-- Transimpedance Amplifier 8&#45;&gt;Multiplexer 2 -->
<g id="edge11" class="edge">
<title>Transimpedance Amplifier 8&#45;&gt;Multiplexer 2</title>
<path fill="none" stroke="#000000" d="M347.8884,-52.0742C357.7994,-54.9392 367.8572,-57.9626 377.3326,-61 383.3363,-62.9245 389.5778,-65.0278 395.7783,-67.1836"/>
<polygon fill="#000000" stroke="#000000" points="394.8535,-70.5688 405.4484,-70.5965 397.1833,-63.9678 394.8535,-70.5688"/>
</g>
<!-- Low Pass Filter 1 -->
<g id="node10" class="node">
<title>Low Pass Filter 1</title>
<polygon fill="none" stroke="#000000" points="648.4928,-189 533.7412,-189 533.7412,-153 648.4928,-153 648.4928,-189"/>
<text text-anchor="middle" x="591.117" y="-166.8" font-family="Times,serif" font-size="14.00" fill="#000000">Low Pass Filter 1</text>
</g>
<!-- Multiplexer 1&#45;&gt;Low Pass Filter 1 -->
<g id="edge7" class="edge">
<title>Multiplexer 1&#45;&gt;Low Pass Filter 1</title>
<path fill="none" stroke="#000000" d="M498.0778,-172.334C506.2803,-172.2164 514.9685,-172.0918 523.6109,-171.9679"/>
<polygon fill="#000000" stroke="#000000" points="523.7546,-175.4663 533.7033,-171.8232 523.6541,-168.467 523.7546,-175.4663"/>
</g>
<!-- ADC 1 -->
<g id="node11" class="node">
<title>ADC 1</title>
<polygon fill="none" stroke="#000000" points="740.3793,-185 684.2797,-185 684.2797,-149 740.3793,-149 740.3793,-185"/>
<text text-anchor="middle" x="712.3295" y="-162.8" font-family="Times,serif" font-size="14.00" fill="#000000">ADC 1</text>
</g>
<!-- Low Pass Filter 1&#45;&gt;ADC 1 -->
<g id="edge8" class="edge">
<title>Low Pass Filter 1&#45;&gt;ADC 1</title>
<path fill="none" stroke="#000000" d="M648.5285,-169.1054C657.123,-168.8218 665.8033,-168.5354 673.8757,-168.269"/>
<polygon fill="#000000" stroke="#000000" points="674.2,-171.7603 684.0791,-167.9323 673.969,-164.7641 674.2,-171.7603"/>
</g>
<!-- Data Processing Unit -->
<g id="node12" class="node">
<title>Data Processing Unit</title>
<polygon fill="none" stroke="#000000" points="911.304,-150 776.3712,-150 776.3712,-114 911.304,-114 911.304,-150"/>
<text text-anchor="middle" x="843.8376" y="-127.8" font-family="Times,serif" font-size="14.00" fill="#000000">Data Processing Unit</text>
</g>
<!-- ADC 1&#45;&gt;Data Processing Unit -->
<g id="edge9" class="edge">
<title>ADC 1&#45;&gt;Data Processing Unit</title>
<path fill="none" stroke="#000000" d="M740.5413,-159.4916C748.3832,-157.4045 757.2966,-155.0323 766.5235,-152.5766"/>
<polygon fill="#000000" stroke="#000000" points="767.4572,-155.9501 776.2206,-149.9958 765.6568,-149.1855 767.4572,-155.9501"/>
</g>
<!-- Low Pass Filter 2 -->
<g id="node14" class="node">
<title>Low Pass Filter 2</title>
<polygon fill="none" stroke="#000000" points="648.4928,-108 533.7412,-108 533.7412,-72 648.4928,-72 648.4928,-108"/>
<text text-anchor="middle" x="591.117" y="-85.8" font-family="Times,serif" font-size="14.00" fill="#000000">Low Pass Filter 2</text>
</g>
<!-- Multiplexer 2&#45;&gt;Low Pass Filter 2 -->
<g id="edge12" class="edge">
<title>Multiplexer 2&#45;&gt;Low Pass Filter 2</title>
<path fill="none" stroke="#000000" d="M498.0778,-88.666C506.2803,-88.7836 514.9685,-88.9082 523.6109,-89.0321"/>
<polygon fill="#000000" stroke="#000000" points="523.6541,-92.533 533.7033,-89.1768 523.7546,-85.5337 523.6541,-92.533"/>
</g>
<!-- ADC 2 -->
<g id="node15" class="node">
<title>ADC 2</title>
<polygon fill="none" stroke="#000000" points="740.3793,-123 684.2797,-123 684.2797,-87 740.3793,-87 740.3793,-123"/>
<text text-anchor="middle" x="712.3295" y="-100.8" font-family="Times,serif" font-size="14.00" fill="#000000">ADC 2</text>
</g>
<!-- Low Pass Filter 2&#45;&gt;ADC 2 -->
<g id="edge13" class="edge">
<title>Low Pass Filter 2&#45;&gt;ADC 2</title>
<path fill="none" stroke="#000000" d="M648.5285,-97.1047C657.2195,-98.1802 665.9984,-99.2665 674.1476,-100.275"/>
<polygon fill="#000000" stroke="#000000" points="673.7249,-103.7493 684.0791,-101.504 674.5846,-96.8023 673.7249,-103.7493"/>
</g>
<!-- ADC 2&#45;&gt;Data Processing Unit -->
<g id="edge14" class="edge">
<title>ADC 2&#45;&gt;Data Processing Unit</title>
<path fill="none" stroke="#000000" d="M740.5413,-110.7922C748.3007,-112.3853 757.1091,-114.1937 766.2322,-116.0668"/>
<polygon fill="#000000" stroke="#000000" points="765.721,-119.5348 776.2206,-118.1175 767.1288,-112.6778 765.721,-119.5348"/>
</g>
</g>
</svg>
