<?xml version="1.0" encoding="UTF-8" standalone="no"?>
<!DOCTYPE svg PUBLIC "-//W3C//DTD SVG 1.1//EN"
 "http://www.w3.org/Graphics/SVG/1.1/DTD/svg11.dtd">
<!-- Generated by graphviz version 2.40.1 (20161225.0304)
 -->
<!-- Title: G Pages: 1 -->
<svg width="614pt" height="44pt"
 viewBox="0.00 0.00 613.68 44.00" xmlns="http://www.w3.org/2000/svg" xmlns:xlink="http://www.w3.org/1999/xlink">
<g id="graph0" class="graph" transform="scale(1 1) rotate(0) translate(4 40)">
<title>G</title>
<polygon fill="#ffffff" stroke="transparent" points="-4,4 -4,-40 609.6818,-40 609.6818,4 -4,4"/>
<!-- Sensor -->
<g id="node1" class="node">
<title>Sensor</title>
<polygon fill="none" stroke="#000000" points="54.1537,-36 -.0513,-36 -.0513,0 54.1537,0 54.1537,-36"/>
<text text-anchor="middle" x="27.0512" y="-13.8" font-family="Times,serif" font-size="14.00" fill="#000000">Sensor</text>
</g>
<!-- Charge Amplifier -->
<g id="node2" class="node">
<title>Charge Amplifier</title>
<polygon fill="none" stroke="#000000" points="205.2993,-36 90.0367,-36 90.0367,0 205.2993,0 205.2993,-36"/>
<text text-anchor="middle" x="147.668" y="-13.8" font-family="Times,serif" font-size="14.00" fill="#000000">Charge Amplifier</text>
</g>
<!-- Sensor&#45;&gt;Charge Amplifier -->
<g id="edge1" class="edge">
<title>Sensor&#45;&gt;Charge Amplifier</title>
<path fill="none" stroke="#000000" d="M54.12,-18C61.7906,-18 70.5045,-18 79.4548,-18"/>
<polygon fill="#000000" stroke="#000000" points="79.6174,-21.5001 89.6174,-18 79.6173,-14.5001 79.6174,-21.5001"/>
</g>
<!-- Low&#45;pass Filter -->
<g id="node3" class="node">
<title>Low&#45;pass Filter</title>
<polygon fill="none" stroke="#000000" points="345.6137,-36 241.1067,-36 241.1067,0 345.6137,0 345.6137,-36"/>
<text text-anchor="middle" x="293.3602" y="-13.8" font-family="Times,serif" font-size="14.00" fill="#000000">Low&#45;pass Filter</text>
</g>
<!-- Charge Amplifier&#45;&gt;Low&#45;pass Filter -->
<g id="edge2" class="edge">
<title>Charge Amplifier&#45;&gt;Low&#45;pass Filter</title>
<path fill="none" stroke="#000000" d="M205.2494,-18C213.6183,-18 222.2686,-18 230.7313,-18"/>
<polygon fill="#000000" stroke="#000000" points="230.9293,-21.5001 240.9292,-18 230.9292,-14.5001 230.9293,-21.5001"/>
</g>
<!-- ADC -->
<g id="node4" class="node">
<title>ADC</title>
<polygon fill="none" stroke="#000000" points="435.4868,-36 381.4868,-36 381.4868,0 435.4868,0 435.4868,-36"/>
<text text-anchor="middle" x="408.4868" y="-13.8" font-family="Times,serif" font-size="14.00" fill="#000000">ADC</text>
</g>
<!-- Low&#45;pass Filter&#45;&gt;ADC -->
<g id="edge3" class="edge">
<title>Low&#45;pass Filter&#45;&gt;ADC</title>
<path fill="none" stroke="#000000" d="M345.534,-18C354.235,-18 363.1017,-18 371.3295,-18"/>
<polygon fill="#000000" stroke="#000000" points="371.3492,-21.5001 381.3492,-18 371.3492,-14.5001 371.3492,-21.5001"/>
</g>
<!-- Microcontroller/DSP -->
<g id="node5" class="node">
<title>Microcontroller/DSP</title>
<polygon fill="none" stroke="#000000" points="605.7794,-36 471.3892,-36 471.3892,0 605.7794,0 605.7794,-36"/>
<text text-anchor="middle" x="538.5843" y="-13.8" font-family="Times,serif" font-size="14.00" fill="#000000">Microcontroller/DSP</text>
</g>
<!-- ADC&#45;&gt;Microcontroller/DSP -->
<g id="edge4" class="edge">
<title>ADC&#45;&gt;Microcontroller/DSP</title>
<path fill="none" stroke="#000000" d="M435.7595,-18C443.4747,-18 452.2749,-18 461.4057,-18"/>
<polygon fill="#000000" stroke="#000000" points="461.4076,-21.5001 471.4076,-18 461.4075,-14.5001 461.4076,-21.5001"/>
</g>
</g>
</svg>
