<?xml version="1.0" encoding="UTF-8" standalone="no"?>
<!DOCTYPE svg PUBLIC "-//W3C//DTD SVG 1.1//EN"
 "http://www.w3.org/Graphics/SVG/1.1/DTD/svg11.dtd">
<!-- Generated by graphviz version 2.40.1 (20161225.0304)
 -->
<!-- Title: G Pages: 1 -->
<svg width="1224pt" height="101pt"
 viewBox="0.00 0.00 1224.00 101.00" xmlns="http://www.w3.org/2000/svg" xmlns:xlink="http://www.w3.org/1999/xlink">
<g id="graph0" class="graph" transform="scale(1 1) rotate(0) translate(4 97)">
<title>G</title>
<polygon fill="#ffffff" stroke="transparent" points="-4,4 -4,-97 1219.9968,-97 1219.9968,4 -4,4"/>
<g id="clust1" class="cluster">
<title>cluster_legend</title>
<polygon fill="none" stroke="transparent" points="8,-8 8,-85 1207.9968,-85 1207.9968,-8 8,-8"/>
<text text-anchor="middle" x="607.9984" y="-68.4" font-family="Times,serif" font-size="14.00" fill="#000000">Legend</text>
</g>
<!-- Sensor -->
<g id="node1" class="node">
<title>Sensor</title>
<ellipse fill="none" stroke="#000000" cx="150.4127" cy="-34" rx="134.3254" ry="18"/>
<text text-anchor="middle" x="150.4127" y="-29.8" font-family="Times,serif" font-size="14.00" fill="#000000">Position Sensor (Potentiometer)</text>
</g>
<!-- SignalConditioning -->
<g id="node2" class="node">
<title>SignalConditioning</title>
<polygon fill="none" stroke="#000000" points="492.1674,-52 321.0443,-52 321.0443,-16 492.1674,-16 492.1674,-52"/>
<text text-anchor="middle" x="406.6058" y="-29.8" font-family="Times,serif" font-size="14.00" fill="#000000">Signal Conditioning Circuit</text>
</g>
<!-- Sensor&#45;&gt;SignalConditioning -->
<g id="edge1" class="edge">
<title>Sensor&#45;&gt;SignalConditioning</title>
<path fill="none" stroke="#000000" d="M284.8867,-34C293.5613,-34 302.1967,-34 310.6334,-34"/>
<polygon fill="#000000" stroke="#000000" points="310.8151,-37.5001 320.815,-34 310.815,-30.5001 310.8151,-37.5001"/>
</g>
<!-- Buffer -->
<g id="node3" class="node">
<title>Buffer</title>
<polygon fill="none" stroke="#000000" points="639.7433,-52 528.2672,-52 528.2672,-16 639.7433,-16 639.7433,-52"/>
<text text-anchor="middle" x="584.0052" y="-29.8" font-family="Times,serif" font-size="14.00" fill="#000000">Buffer Amplifier</text>
</g>
<!-- SignalConditioning&#45;&gt;Buffer -->
<g id="edge2" class="edge">
<title>SignalConditioning&#45;&gt;Buffer</title>
<path fill="none" stroke="#000000" d="M492.1878,-34C500.8805,-34 509.6132,-34 518.0513,-34"/>
<polygon fill="#000000" stroke="#000000" points="518.1755,-37.5001 528.1755,-34 518.1754,-30.5001 518.1755,-37.5001"/>
</g>
<!-- AntiAliasingFilter -->
<g id="node4" class="node">
<title>AntiAliasingFilter</title>
<polygon fill="none" stroke="#000000" points="802.3477,-52 675.7162,-52 675.7162,-16 802.3477,-16 802.3477,-52"/>
<text text-anchor="middle" x="739.0319" y="-29.8" font-family="Times,serif" font-size="14.00" fill="#000000">Anti&#45;Aliasing Filter</text>
</g>
<!-- Buffer&#45;&gt;AntiAliasingFilter -->
<g id="edge3" class="edge">
<title>Buffer&#45;&gt;AntiAliasingFilter</title>
<path fill="none" stroke="#000000" d="M639.9734,-34C648.2642,-34 656.9123,-34 665.4951,-34"/>
<polygon fill="#000000" stroke="#000000" points="665.5154,-37.5001 675.5154,-34 665.5153,-30.5001 665.5154,-37.5001"/>
</g>
<!-- ADC -->
<g id="node5" class="node">
<title>ADC</title>
<ellipse fill="none" stroke="#000000" cx="1019.2183" cy="-34" rx="180.5574" ry="18"/>
<text text-anchor="middle" x="1019.2183" y="-29.8" font-family="Times,serif" font-size="14.00" fill="#000000">Analog&#45;to&#45;Digital Converter (DAQ&#39;s ADC)</text>
</g>
<!-- AntiAliasingFilter&#45;&gt;ADC -->
<g id="edge4" class="edge">
<title>AntiAliasingFilter&#45;&gt;ADC</title>
<path fill="none" stroke="#000000" d="M802.6106,-34C810.7049,-34 819.2909,-34 828.1946,-34"/>
<polygon fill="#000000" stroke="#000000" points="828.3729,-37.5001 838.3728,-34 828.3728,-30.5001 828.3729,-37.5001"/>
</g>
</g>
</svg>
