<?xml version="1.0" encoding="UTF-8" standalone="no"?>
<!DOCTYPE svg PUBLIC "-//W3C//DTD SVG 1.1//EN"
 "http://www.w3.org/Graphics/SVG/1.1/DTD/svg11.dtd">
<!-- Generated by graphviz version 2.40.1 (20161225.0304)
 -->
<!-- Title: G Pages: 1 -->
<svg width="1190pt" height="98pt"
 viewBox="0.00 0.00 1189.61 98.00" xmlns="http://www.w3.org/2000/svg" xmlns:xlink="http://www.w3.org/1999/xlink">
<g id="graph0" class="graph" transform="scale(1 1) rotate(0) translate(4 94)">
<title>G</title>
<polygon fill="#ffffff" stroke="transparent" points="-4,4 -4,-94 1185.6106,-94 1185.6106,4 -4,4"/>
<!-- Pressure_Sensor_Array -->
<g id="node1" class="node">
<title>Pressure_Sensor_Array</title>
<polygon fill="none" stroke="#000000" points="357.6792,-90 209.345,-90 209.345,-54 357.6792,-54 357.6792,-90"/>
<text text-anchor="middle" x="283.5121" y="-67.8" font-family="Times,serif" font-size="14.00" fill="#000000">Pressure_Sensor_Array</text>
</g>
<!-- Instrumentation_Amplifier_Pressure -->
<g id="node2" class="node">
<title>Instrumentation_Amplifier_Pressure</title>
<polygon fill="none" stroke="#000000" points="628.2243,-90 406.6739,-90 406.6739,-54 628.2243,-54 628.2243,-90"/>
<text text-anchor="middle" x="517.4491" y="-67.8" font-family="Times,serif" font-size="14.00" fill="#000000">Instrumentation_Amplifier_Pressure</text>
</g>
<!-- Pressure_Sensor_Array&#45;&gt;Instrumentation_Amplifier_Pressure -->
<g id="edge1" class="edge">
<title>Pressure_Sensor_Array&#45;&gt;Instrumentation_Amplifier_Pressure</title>
<path fill="none" stroke="#000000" d="M357.8527,-72C370.2198,-72 383.3235,-72 396.4946,-72"/>
<polygon fill="#000000" stroke="#000000" points="396.5688,-75.5001 406.5688,-72 396.5687,-68.5001 396.5688,-75.5001"/>
</g>
<!-- Low_Pass_Filter_Pressure -->
<g id="node3" class="node">
<title>Low_Pass_Filter_Pressure</title>
<polygon fill="none" stroke="#000000" points="853.6242,-90 688.0288,-90 688.0288,-54 853.6242,-54 853.6242,-90"/>
<text text-anchor="middle" x="770.8265" y="-67.8" font-family="Times,serif" font-size="14.00" fill="#000000">Low_Pass_Filter_Pressure</text>
</g>
<!-- Instrumentation_Amplifier_Pressure&#45;&gt;Low_Pass_Filter_Pressure -->
<g id="edge2" class="edge">
<title>Instrumentation_Amplifier_Pressure&#45;&gt;Low_Pass_Filter_Pressure</title>
<path fill="none" stroke="#000000" d="M628.2155,-72C644.7102,-72 661.5707,-72 677.6546,-72"/>
<polygon fill="#000000" stroke="#000000" points="678.1003,-75.5001 688.1003,-72 678.1002,-68.5001 678.1003,-75.5001"/>
</g>
<!-- Multiplexer -->
<g id="node4" class="node">
<title>Multiplexer</title>
<polygon fill="none" stroke="#000000" points="983.6661,-63 901.4723,-63 901.4723,-27 983.6661,-27 983.6661,-63"/>
<text text-anchor="middle" x="942.5692" y="-40.8" font-family="Times,serif" font-size="14.00" fill="#000000">Multiplexer</text>
</g>
<!-- Low_Pass_Filter_Pressure&#45;&gt;Multiplexer -->
<g id="edge3" class="edge">
<title>Low_Pass_Filter_Pressure&#45;&gt;Multiplexer</title>
<path fill="none" stroke="#000000" d="M853.6795,-58.9745C866.4174,-56.972 879.2439,-54.9555 891.0362,-53.1016"/>
<polygon fill="#000000" stroke="#000000" points="891.7695,-56.5294 901.1046,-51.5187 890.6823,-49.6143 891.7695,-56.5294"/>
</g>
<!-- ADC -->
<g id="node5" class="node">
<title>ADC</title>
<polygon fill="none" stroke="#000000" points="1073.6176,-63 1019.6176,-63 1019.6176,-27 1073.6176,-27 1073.6176,-63"/>
<text text-anchor="middle" x="1046.6176" y="-40.8" font-family="Times,serif" font-size="14.00" fill="#000000">ADC</text>
</g>
<!-- Multiplexer&#45;&gt;ADC -->
<g id="edge4" class="edge">
<title>Multiplexer&#45;&gt;ADC</title>
<path fill="none" stroke="#000000" d="M983.6919,-45C992.1591,-45 1001.0298,-45 1009.3512,-45"/>
<polygon fill="#000000" stroke="#000000" points="1009.5263,-48.5001 1019.5263,-45 1009.5263,-41.5001 1009.5263,-48.5001"/>
</g>
<!-- Computer -->
<g id="node6" class="node">
<title>Computer</title>
<polygon fill="none" stroke="#000000" points="1181.6071,-63 1109.6211,-63 1109.6211,-27 1181.6071,-27 1181.6071,-63"/>
<text text-anchor="middle" x="1145.6141" y="-40.8" font-family="Times,serif" font-size="14.00" fill="#000000">Computer</text>
</g>
<!-- ADC&#45;&gt;Computer -->
<g id="edge5" class="edge">
<title>ADC&#45;&gt;Computer</title>
<path fill="none" stroke="#000000" d="M1073.6688,-45C1081.5691,-45 1090.4372,-45 1099.1775,-45"/>
<polygon fill="#000000" stroke="#000000" points="1099.3136,-48.5001 1109.3136,-45 1099.3136,-41.5001 1099.3136,-48.5001"/>
</g>
<!-- Temperature_Sensor_Array -->
<g id="node7" class="node">
<title>Temperature_Sensor_Array</title>
<polygon fill="none" stroke="#000000" points="172.3875,-36 -.1293,-36 -.1293,0 172.3875,0 172.3875,-36"/>
<text text-anchor="middle" x="86.1291" y="-13.8" font-family="Times,serif" font-size="14.00" fill="#000000">Temperature_Sensor_Array</text>
</g>
<!-- Non_Linear_Correction -->
<g id="node8" class="node">
<title>Non_Linear_Correction</title>
<polygon fill="none" stroke="#000000" points="358.5207,-36 208.5035,-36 208.5035,0 358.5207,0 358.5207,-36"/>
<text text-anchor="middle" x="283.5121" y="-13.8" font-family="Times,serif" font-size="14.00" fill="#000000">Non_Linear_Correction</text>
</g>
<!-- Temperature_Sensor_Array&#45;&gt;Non_Linear_Correction -->
<g id="edge6" class="edge">
<title>Temperature_Sensor_Array&#45;&gt;Non_Linear_Correction</title>
<path fill="none" stroke="#000000" d="M172.417,-18C180.8982,-18 189.5036,-18 197.9772,-18"/>
<polygon fill="#000000" stroke="#000000" points="198.2307,-21.5001 208.2307,-18 198.2306,-14.5001 198.2307,-21.5001"/>
</g>
<!-- Instrumentation_Amplifier_Temperature -->
<g id="node9" class="node">
<title>Instrumentation_Amplifier_Temperature</title>
<polygon fill="none" stroke="#000000" points="640.3156,-36 394.5826,-36 394.5826,0 640.3156,0 640.3156,-36"/>
<text text-anchor="middle" x="517.4491" y="-13.8" font-family="Times,serif" font-size="14.00" fill="#000000">Instrumentation_Amplifier_Temperature</text>
</g>
<!-- Non_Linear_Correction&#45;&gt;Instrumentation_Amplifier_Temperature -->
<g id="edge7" class="edge">
<title>Non_Linear_Correction&#45;&gt;Instrumentation_Amplifier_Temperature</title>
<path fill="none" stroke="#000000" d="M358.8189,-18C367.0752,-18 375.6499,-18 384.346,-18"/>
<polygon fill="#000000" stroke="#000000" points="384.5984,-21.5001 394.5983,-18 384.5983,-14.5001 384.5984,-21.5001"/>
</g>
<!-- Low_Pass_Filter_Temperature -->
<g id="node10" class="node">
<title>Low_Pass_Filter_Temperature</title>
<polygon fill="none" stroke="#000000" points="865.7155,-36 675.9375,-36 675.9375,0 865.7155,0 865.7155,-36"/>
<text text-anchor="middle" x="770.8265" y="-13.8" font-family="Times,serif" font-size="14.00" fill="#000000">Low_Pass_Filter_Temperature</text>
</g>
<!-- Instrumentation_Amplifier_Temperature&#45;&gt;Low_Pass_Filter_Temperature -->
<g id="edge8" class="edge">
<title>Instrumentation_Amplifier_Temperature&#45;&gt;Low_Pass_Filter_Temperature</title>
<path fill="none" stroke="#000000" d="M640.4267,-18C648.9425,-18 657.4808,-18 665.8873,-18"/>
<polygon fill="#000000" stroke="#000000" points="666.0657,-21.5001 676.0657,-18 666.0657,-14.5001 666.0657,-21.5001"/>
</g>
<!-- Low_Pass_Filter_Temperature&#45;&gt;Multiplexer -->
<g id="edge9" class="edge">
<title>Low_Pass_Filter_Temperature&#45;&gt;Multiplexer</title>
<path fill="none" stroke="#000000" d="M865.7397,-32.9215C874.4671,-34.2935 883.0685,-35.6458 891.178,-36.9207"/>
<polygon fill="#000000" stroke="#000000" points="890.737,-40.3943 901.1593,-38.4899 891.8242,-33.4792 890.737,-40.3943"/>
</g>
</g>
</svg>
