<?xml version="1.0" encoding="UTF-8" standalone="no"?>
<!DOCTYPE svg PUBLIC "-//W3C//DTD SVG 1.1//EN"
 "http://www.w3.org/Graphics/SVG/1.1/DTD/svg11.dtd">
<!-- Generated by graphviz version 2.40.1 (20161225.0304)
 -->
<!-- Title: G Pages: 1 -->
<svg width="1296pt" height="109pt"
 viewBox="0.00 0.00 1295.82 109.00" xmlns="http://www.w3.org/2000/svg" xmlns:xlink="http://www.w3.org/1999/xlink">
<g id="graph0" class="graph" transform="scale(1 1) rotate(0) translate(4 105)">
<title>G</title>
<polygon fill="#ffffff" stroke="transparent" points="-4,4 -4,-105 1291.8188,-105 1291.8188,4 -4,4"/>
<!-- ThermistorSensor -->
<g id="node1" class="node">
<title>ThermistorSensor</title>
<polygon fill="none" stroke="#000000" points="214.4232,-101 -.1412,-101 -.1412,-65 214.4232,-65 214.4232,-101"/>
<text text-anchor="middle" x="107.141" y="-78.8" font-family="Times,serif" font-size="14.00" fill="#000000">Thermistor Sensor (NTCLE100E3)</text>
</g>
<!-- ParallelResistor -->
<g id="node2" class="node">
<title>ParallelResistor</title>
<polygon fill="none" stroke="#000000" points="390.3063,-101 250.2739,-101 250.2739,-65 390.3063,-65 390.3063,-101"/>
<text text-anchor="middle" x="320.2901" y="-78.8" font-family="Times,serif" font-size="14.00" fill="#000000">Linearization Resistor</text>
</g>
<!-- ThermistorSensor&#45;&gt;ParallelResistor -->
<g id="edge1" class="edge">
<title>ThermistorSensor&#45;&gt;ParallelResistor</title>
<path fill="none" stroke="#000000" d="M214.34,-83C222.9631,-83 231.5808,-83 239.9672,-83"/>
<polygon fill="#000000" stroke="#000000" points="240.0669,-86.5001 250.0669,-83 240.0668,-79.5001 240.0669,-86.5001"/>
</g>
<!-- WheatstoneBridge -->
<g id="node3" class="node">
<title>WheatstoneBridge</title>
<polygon fill="none" stroke="#000000" points="549.8285,-97 426.4545,-97 426.4545,-61 549.8285,-61 549.8285,-97"/>
<text text-anchor="middle" x="488.1415" y="-74.8" font-family="Times,serif" font-size="14.00" fill="#000000">Wheatstone Bridge</text>
</g>
<!-- ParallelResistor&#45;&gt;WheatstoneBridge -->
<g id="edge2" class="edge">
<title>ParallelResistor&#45;&gt;WheatstoneBridge</title>
<path fill="none" stroke="#000000" d="M390.5016,-81.3268C398.9321,-81.1259 407.5524,-80.9205 416.0096,-80.7189"/>
<polygon fill="#000000" stroke="#000000" points="416.3072,-84.2129 426.221,-80.4756 416.1404,-77.2149 416.3072,-84.2129"/>
</g>
<!-- InstrumentationAmp -->
<g id="node4" class="node">
<title>InstrumentationAmp</title>
<polygon fill="none" stroke="#000000" points="749.5144,-59 585.808,-59 585.808,-23 749.5144,-23 749.5144,-59"/>
<text text-anchor="middle" x="667.6612" y="-36.8" font-family="Times,serif" font-size="14.00" fill="#000000">Instrumentation Amplifier</text>
</g>
<!-- WheatstoneBridge&#45;&gt;InstrumentationAmp -->
<g id="edge3" class="edge">
<title>WheatstoneBridge&#45;&gt;InstrumentationAmp</title>
<path fill="none" stroke="#000000" d="M549.922,-65.9226C558.3227,-64.1443 567.0867,-62.2892 575.8766,-60.4286"/>
<polygon fill="#000000" stroke="#000000" points="576.7353,-63.8245 585.7937,-58.3294 575.2856,-56.9762 576.7353,-63.8245"/>
</g>
<!-- ScalingAmp -->
<g id="node6" class="node">
<title>ScalingAmp</title>
<polygon fill="none" stroke="#000000" points="901.8847,-36 785.4883,-36 785.4883,0 901.8847,0 901.8847,-36"/>
<text text-anchor="middle" x="843.6865" y="-13.8" font-family="Times,serif" font-size="14.00" fill="#000000">Scaling Amplifier</text>
</g>
<!-- InstrumentationAmp&#45;&gt;ScalingAmp -->
<g id="edge4" class="edge">
<title>InstrumentationAmp&#45;&gt;ScalingAmp</title>
<path fill="none" stroke="#000000" d="M749.49,-30.308C758.1069,-29.1821 766.8032,-28.0458 775.2464,-26.9426"/>
<polygon fill="#000000" stroke="#000000" points="775.9351,-30.3824 785.3973,-25.6162 775.0281,-23.4414 775.9351,-30.3824"/>
</g>
<!-- VoltageReference -->
<g id="node5" class="node">
<title>VoltageReference</title>
<polygon fill="none" stroke="#000000" points="380.3387,-47 260.2415,-47 260.2415,-11 380.3387,-11 380.3387,-47"/>
<text text-anchor="middle" x="320.2901" y="-24.8" font-family="Times,serif" font-size="14.00" fill="#000000">Voltage Reference</text>
</g>
<!-- VoltageReference&#45;&gt;WheatstoneBridge -->
<g id="edge8" class="edge">
<title>VoltageReference&#45;&gt;WheatstoneBridge</title>
<path fill="none" stroke="#000000" d="M380.4142,-46.9099C392.5131,-50.514 405.3314,-54.3323 417.7442,-58.0299"/>
<polygon fill="#000000" stroke="#000000" points="417.0075,-61.4623 427.5906,-60.9629 419.0059,-54.7537 417.0075,-61.4623"/>
</g>
<!-- VoltageReference&#45;&gt;InstrumentationAmp -->
<g id="edge9" class="edge">
<title>VoltageReference&#45;&gt;InstrumentationAmp</title>
<path fill="none" stroke="#000000" d="M380.401,-31.0765C434.2045,-32.9352 513.9012,-35.6883 575.7096,-37.8235"/>
<polygon fill="#000000" stroke="#000000" points="575.7435,-41.3267 585.8584,-38.1741 575.9852,-34.3309 575.7435,-41.3267"/>
</g>
<!-- VoltageReference&#45;&gt;ScalingAmp -->
<g id="edge10" class="edge">
<title>VoltageReference&#45;&gt;ScalingAmp</title>
<path fill="none" stroke="#000000" d="M380.3971,-24.6372C434.2218,-20.9616 515.3254,-15.993 585.9848,-14 658.5572,-11.9531 676.7526,-12.462 749.3376,-14 757.7022,-14.1772 766.481,-14.4428 775.1767,-14.7543"/>
<polygon fill="#000000" stroke="#000000" points="775.1911,-18.2573 785.3166,-15.1387 775.4564,-11.2623 775.1911,-18.2573"/>
</g>
<!-- LowPassFilter -->
<g id="node8" class="node">
<title>LowPassFilter</title>
<polygon fill="none" stroke="#000000" points="1041.8483,-36 938.0977,-36 938.0977,0 1041.8483,0 1041.8483,-36"/>
<text text-anchor="middle" x="989.973" y="-13.8" font-family="Times,serif" font-size="14.00" fill="#000000">Low Pass Filter</text>
</g>
<!-- ScalingAmp&#45;&gt;LowPassFilter -->
<g id="edge5" class="edge">
<title>ScalingAmp&#45;&gt;LowPassFilter</title>
<path fill="none" stroke="#000000" d="M901.9231,-18C910.5133,-18 919.3899,-18 928.0515,-18"/>
<polygon fill="#000000" stroke="#000000" points="928.0906,-21.5001 938.0906,-18 928.0906,-14.5001 928.0906,-21.5001"/>
</g>
<!-- OutputBuffer -->
<g id="node7" class="node">
<title>OutputBuffer</title>
<polygon fill="none" stroke="#000000" points="1172.7918,-36 1077.9502,-36 1077.9502,0 1172.7918,0 1172.7918,-36"/>
<text text-anchor="middle" x="1125.371" y="-13.8" font-family="Times,serif" font-size="14.00" fill="#000000">Output Buffer</text>
</g>
<!-- Multimeter -->
<g id="node9" class="node">
<title>Multimeter</title>
<polygon fill="none" stroke="#000000" points="1287.8125,-36 1208.8377,-36 1208.8377,0 1287.8125,0 1287.8125,-36"/>
<text text-anchor="middle" x="1248.3251" y="-13.8" font-family="Times,serif" font-size="14.00" fill="#000000">Multimeter</text>
</g>
<!-- OutputBuffer&#45;&gt;Multimeter -->
<g id="edge7" class="edge">
<title>OutputBuffer&#45;&gt;Multimeter</title>
<path fill="none" stroke="#000000" d="M1172.9083,-18C1181.2677,-18 1189.9902,-18 1198.4122,-18"/>
<polygon fill="#000000" stroke="#000000" points="1198.4917,-21.5001 1208.4917,-18 1198.4916,-14.5001 1198.4917,-21.5001"/>
</g>
<!-- LowPassFilter&#45;&gt;OutputBuffer -->
<g id="edge6" class="edge">
<title>LowPassFilter&#45;&gt;OutputBuffer</title>
<path fill="none" stroke="#000000" d="M1041.9342,-18C1050.3112,-18 1059.0285,-18 1067.5336,-18"/>
<polygon fill="#000000" stroke="#000000" points="1067.7657,-21.5001 1077.7656,-18 1067.7656,-14.5001 1067.7657,-21.5001"/>
</g>
</g>
</svg>
