<?xml version="1.0" encoding="UTF-8" standalone="no"?>
<!DOCTYPE svg PUBLIC "-//W3C//DTD SVG 1.1//EN"
 "http://www.w3.org/Graphics/SVG/1.1/DTD/svg11.dtd">
<!-- Generated by graphviz version 2.40.1 (20161225.0304)
 -->
<!-- Title: G Pages: 1 -->
<svg width="1261pt" height="44pt"
 viewBox="0.00 0.00 1260.97 44.00" xmlns="http://www.w3.org/2000/svg" xmlns:xlink="http://www.w3.org/1999/xlink">
<g id="graph0" class="graph" transform="scale(1 1) rotate(0) translate(4 40)">
<title>G</title>
<polygon fill="#ffffff" stroke="transparent" points="-4,4 -4,-40 1256.9742,-40 1256.9742,4 -4,4"/>
<!-- potentiometer -->
<g id="node1" class="node">
<title>potentiometer</title>
<polygon fill="none" stroke="#000000" points="139.0606,-36 -.0202,-36 -.0202,0 139.0606,0 139.0606,-36"/>
<text text-anchor="middle" x="69.5202" y="-13.8" font-family="Times,serif" font-size="14.00" fill="#000000">Potentiometer (10 kΩ)</text>
</g>
<!-- buffer -->
<g id="node2" class="node">
<title>buffer</title>
<polygon fill="none" stroke="#000000" points="286.3974,-36 174.9212,-36 174.9212,0 286.3974,0 286.3974,-36"/>
<text text-anchor="middle" x="230.6593" y="-13.8" font-family="Times,serif" font-size="14.00" fill="#000000">Buffer Amplifier</text>
</g>
<!-- potentiometer&#45;&gt;buffer -->
<g id="edge1" class="edge">
<title>potentiometer&#45;&gt;buffer</title>
<path fill="none" stroke="#000000" d="M139.261,-18C147.7269,-18 156.3553,-18 164.763,-18"/>
<polygon fill="#000000" stroke="#000000" points="164.8835,-21.5001 174.8835,-18 164.8834,-14.5001 164.8835,-21.5001"/>
</g>
<!-- level_shifter -->
<g id="node3" class="node">
<title>level_shifter</title>
<polygon fill="none" stroke="#000000" points="411.9875,-36 322.0409,-36 322.0409,0 411.9875,0 411.9875,-36"/>
<text text-anchor="middle" x="367.0142" y="-13.8" font-family="Times,serif" font-size="14.00" fill="#000000">Level Shifter</text>
</g>
<!-- buffer&#45;&gt;level_shifter -->
<g id="edge2" class="edge">
<title>buffer&#45;&gt;level_shifter</title>
<path fill="none" stroke="#000000" d="M286.5135,-18C294.8795,-18 303.5016,-18 311.8531,-18"/>
<polygon fill="#000000" stroke="#000000" points="311.8704,-21.5001 321.8704,-18 311.8703,-14.5001 311.8704,-21.5001"/>
</g>
<!-- notch_filter_50Hz -->
<g id="node4" class="node">
<title>notch_filter_50Hz</title>
<polygon fill="none" stroke="#000000" points="578.2763,-36 447.9079,-36 447.9079,0 578.2763,0 578.2763,-36"/>
<text text-anchor="middle" x="513.0921" y="-13.8" font-family="Times,serif" font-size="14.00" fill="#000000">Notch Filter (50 Hz)</text>
</g>
<!-- level_shifter&#45;&gt;notch_filter_50Hz -->
<g id="edge3" class="edge">
<title>level_shifter&#45;&gt;notch_filter_50Hz</title>
<path fill="none" stroke="#000000" d="M412.0343,-18C420.1685,-18 428.8491,-18 437.577,-18"/>
<polygon fill="#000000" stroke="#000000" points="437.8145,-21.5001 447.8145,-18 437.8144,-14.5001 437.8145,-21.5001"/>
</g>
<!-- notch_filter_60Hz -->
<g id="node5" class="node">
<title>notch_filter_60Hz</title>
<polygon fill="none" stroke="#000000" points="744.9601,-36 614.5917,-36 614.5917,0 744.9601,0 744.9601,-36"/>
<text text-anchor="middle" x="679.7759" y="-13.8" font-family="Times,serif" font-size="14.00" fill="#000000">Notch Filter (60 Hz)</text>
</g>
<!-- notch_filter_50Hz&#45;&gt;notch_filter_60Hz -->
<g id="edge4" class="edge">
<title>notch_filter_50Hz&#45;&gt;notch_filter_60Hz</title>
<path fill="none" stroke="#000000" d="M578.4915,-18C587.0136,-18 595.7984,-18 604.4662,-18"/>
<polygon fill="#000000" stroke="#000000" points="604.5651,-21.5001 614.565,-18 604.565,-14.5001 604.5651,-21.5001"/>
</g>
<!-- anti_aliasing -->
<g id="node6" class="node">
<title>anti_aliasing</title>
<polygon fill="none" stroke="#000000" points="904.0032,-36 781.156,-36 781.156,0 904.0032,0 904.0032,-36"/>
<text text-anchor="middle" x="842.5796" y="-13.8" font-family="Times,serif" font-size="14.00" fill="#000000">Anti&#45;aliasing Filter</text>
</g>
<!-- notch_filter_60Hz&#45;&gt;anti_aliasing -->
<g id="edge5" class="edge">
<title>notch_filter_60Hz&#45;&gt;anti_aliasing</title>
<path fill="none" stroke="#000000" d="M745.0563,-18C753.5765,-18 762.342,-18 770.9593,-18"/>
<polygon fill="#000000" stroke="#000000" points="770.9834,-21.5001 780.9834,-18 770.9833,-14.5001 770.9834,-21.5001"/>
</g>
<!-- gain_stage -->
<g id="node7" class="node">
<title>gain_stage</title>
<polygon fill="none" stroke="#000000" points="1017.7629,-36 940.1341,-36 940.1341,0 1017.7629,0 1017.7629,-36"/>
<text text-anchor="middle" x="978.9485" y="-13.8" font-family="Times,serif" font-size="14.00" fill="#000000">Gain Stage</text>
</g>
<!-- anti_aliasing&#45;&gt;gain_stage -->
<g id="edge6" class="edge">
<title>anti_aliasing&#45;&gt;gain_stage</title>
<path fill="none" stroke="#000000" d="M904.3801,-18C912.9027,-18 921.5596,-18 929.8118,-18"/>
<polygon fill="#000000" stroke="#000000" points="930.0076,-21.5001 940.0075,-18 930.0075,-14.5001 930.0076,-21.5001"/>
</g>
<!-- daq -->
<g id="node8" class="node">
<title>daq</title>
<polygon fill="none" stroke="#000000" points="1253.0335,-36 1053.7963,-36 1053.7963,0 1253.0335,0 1253.0335,-36"/>
<text text-anchor="middle" x="1153.4149" y="-13.8" font-family="Times,serif" font-size="14.00" fill="#000000">Data Acquisition System (DAQ)</text>
</g>
<!-- gain_stage&#45;&gt;daq -->
<g id="edge7" class="edge">
<title>gain_stage&#45;&gt;daq</title>
<path fill="none" stroke="#000000" d="M1018.1022,-18C1025.9126,-18 1034.4709,-18 1043.3698,-18"/>
<polygon fill="#000000" stroke="#000000" points="1043.54,-21.5001 1053.5399,-18 1043.5399,-14.5001 1043.54,-21.5001"/>
</g>
</g>
</svg>
