<?xml version="1.0" encoding="UTF-8" standalone="no"?>
<!DOCTYPE svg PUBLIC "-//W3C//DTD SVG 1.1//EN"
 "http://www.w3.org/Graphics/SVG/1.1/DTD/svg11.dtd">
<!-- Generated by graphviz version 2.40.1 (20161225.0304)
 -->
<!-- Title: G Pages: 1 -->
<svg width="1047pt" height="44pt"
 viewBox="0.00 0.00 1047.31 44.00" xmlns="http://www.w3.org/2000/svg" xmlns:xlink="http://www.w3.org/1999/xlink">
<g id="graph0" class="graph" transform="scale(1 1) rotate(0) translate(4 40)">
<title>G</title>
<polygon fill="#ffffff" stroke="transparent" points="-4,4 -4,-40 1043.306,-40 1043.306,4 -4,4"/>
<!-- Potentiometer -->
<g id="node1" class="node">
<title>Potentiometer</title>
<polygon fill="none" stroke="#000000" points="94.3111,-36 .2289,-36 .2289,0 94.3111,0 94.3111,-36"/>
<text text-anchor="middle" x="47.27" y="-13.8" font-family="Times,serif" font-size="14.00" fill="#000000">Potentiometer</text>
</g>
<!-- OffsetAdjustment -->
<g id="node2" class="node">
<title>OffsetAdjustment</title>
<polygon fill="none" stroke="#000000" points="246.9991,-36 130.3867,-36 130.3867,0 246.9991,0 246.9991,-36"/>
<text text-anchor="middle" x="188.6929" y="-13.8" font-family="Times,serif" font-size="14.00" fill="#000000">OffsetAdjustment</text>
</g>
<!-- Potentiometer&#45;&gt;OffsetAdjustment -->
<g id="edge1" class="edge">
<title>Potentiometer&#45;&gt;OffsetAdjustment</title>
<path fill="none" stroke="#000000" d="M94.3618,-18C102.6782,-18 111.487,-18 120.2494,-18"/>
<polygon fill="#000000" stroke="#000000" points="120.482,-21.5001 130.482,-18 120.4819,-14.5001 120.482,-21.5001"/>
</g>
<!-- Amplifier -->
<g id="node3" class="node">
<title>Amplifier</title>
<polygon fill="none" stroke="#000000" points="354.1533,-36 282.7431,-36 282.7431,0 354.1533,0 354.1533,-36"/>
<text text-anchor="middle" x="318.4482" y="-13.8" font-family="Times,serif" font-size="14.00" fill="#000000">Amplifier</text>
</g>
<!-- OffsetAdjustment&#45;&gt;Amplifier -->
<g id="edge2" class="edge">
<title>OffsetAdjustment&#45;&gt;Amplifier</title>
<path fill="none" stroke="#000000" d="M247.1176,-18C255.631,-18 264.2941,-18 272.5127,-18"/>
<polygon fill="#000000" stroke="#000000" points="272.6405,-21.5001 282.6405,-18 272.6404,-14.5001 272.6405,-21.5001"/>
</g>
<!-- LowPassFilter -->
<g id="node4" class="node">
<title>LowPassFilter</title>
<polygon fill="none" stroke="#000000" points="486.8635,-36 390.1129,-36 390.1129,0 486.8635,0 486.8635,-36"/>
<text text-anchor="middle" x="438.4882" y="-13.8" font-family="Times,serif" font-size="14.00" fill="#000000">LowPassFilter</text>
</g>
<!-- Amplifier&#45;&gt;LowPassFilter -->
<g id="edge3" class="edge">
<title>Amplifier&#45;&gt;LowPassFilter</title>
<path fill="none" stroke="#000000" d="M354.1392,-18C362.1862,-18 370.9356,-18 379.6517,-18"/>
<polygon fill="#000000" stroke="#000000" points="379.8243,-21.5001 389.8242,-18 379.8242,-14.5001 379.8243,-21.5001"/>
</g>
<!-- NotchFilter_50Hz -->
<g id="node5" class="node">
<title>NotchFilter_50Hz</title>
<polygon fill="none" stroke="#000000" points="640.7198,-36 522.9944,-36 522.9944,0 640.7198,0 640.7198,-36"/>
<text text-anchor="middle" x="581.8571" y="-13.8" font-family="Times,serif" font-size="14.00" fill="#000000">NotchFilter_50Hz</text>
</g>
<!-- LowPassFilter&#45;&gt;NotchFilter_50Hz -->
<g id="edge4" class="edge">
<title>LowPassFilter&#45;&gt;NotchFilter_50Hz</title>
<path fill="none" stroke="#000000" d="M487.0264,-18C495.3174,-18 504.0713,-18 512.7739,-18"/>
<polygon fill="#000000" stroke="#000000" points="512.9358,-21.5001 522.9358,-18 512.9357,-14.5001 512.9358,-21.5001"/>
</g>
<!-- NotchFilter_60Hz -->
<g id="node6" class="node">
<title>NotchFilter_60Hz</title>
<polygon fill="none" stroke="#000000" points="794.5824,-36 676.857,-36 676.857,0 794.5824,0 794.5824,-36"/>
<text text-anchor="middle" x="735.7197" y="-13.8" font-family="Times,serif" font-size="14.00" fill="#000000">NotchFilter_60Hz</text>
</g>
<!-- NotchFilter_50Hz&#45;&gt;NotchFilter_60Hz -->
<g id="edge5" class="edge">
<title>NotchFilter_50Hz&#45;&gt;NotchFilter_60Hz</title>
<path fill="none" stroke="#000000" d="M640.9044,-18C649.371,-18 658.1437,-18 666.7805,-18"/>
<polygon fill="#000000" stroke="#000000" points="666.8305,-21.5001 676.8304,-18 666.8304,-14.5001 666.8305,-21.5001"/>
</g>
<!-- AntiAliasingFilter -->
<g id="node7" class="node">
<title>AntiAliasingFilter</title>
<polygon fill="none" stroke="#000000" points="949.134,-36 830.823,-36 830.823,0 949.134,0 949.134,-36"/>
<text text-anchor="middle" x="889.9785" y="-13.8" font-family="Times,serif" font-size="14.00" fill="#000000">AntiAliasingFilter</text>
</g>
<!-- NotchFilter_60Hz&#45;&gt;AntiAliasingFilter -->
<g id="edge6" class="edge">
<title>NotchFilter_60Hz&#45;&gt;AntiAliasingFilter</title>
<path fill="none" stroke="#000000" d="M794.919,-18C803.3464,-18 812.0762,-18 820.6748,-18"/>
<polygon fill="#000000" stroke="#000000" points="820.6828,-21.5001 830.6827,-18 820.6827,-14.5001 820.6828,-21.5001"/>
</g>
<!-- DAQ -->
<g id="node8" class="node">
<title>DAQ</title>
<polygon fill="none" stroke="#000000" points="1039.306,-36 985.306,-36 985.306,0 1039.306,0 1039.306,-36"/>
<text text-anchor="middle" x="1012.306" y="-13.8" font-family="Times,serif" font-size="14.00" fill="#000000">DAQ</text>
</g>
<!-- AntiAliasingFilter&#45;&gt;DAQ -->
<g id="edge7" class="edge">
<title>AntiAliasingFilter&#45;&gt;DAQ</title>
<path fill="none" stroke="#000000" d="M949.3506,-18C958.0698,-18 966.8375,-18 974.9443,-18"/>
<polygon fill="#000000" stroke="#000000" points="975.1612,-21.5001 985.1611,-18 975.1611,-14.5001 975.1612,-21.5001"/>
</g>
</g>
</svg>
