<?xml version="1.0" encoding="UTF-8" standalone="no"?>
<!DOCTYPE svg PUBLIC "-//W3C//DTD SVG 1.1//EN"
 "http://www.w3.org/Graphics/SVG/1.1/DTD/svg11.dtd">
<!-- Generated by graphviz version 2.40.1 (20161225.0304)
 -->
<!-- Title: G Pages: 1 -->
<svg width="1441pt" height="98pt"
 viewBox="0.00 0.00 1441.37 98.00" xmlns="http://www.w3.org/2000/svg" xmlns:xlink="http://www.w3.org/1999/xlink">
<g id="graph0" class="graph" transform="scale(1 1) rotate(0) translate(4 94)">
<title>G</title>
<polygon fill="#ffffff" stroke="transparent" points="-4,4 -4,-94 1437.3696,-94 1437.3696,4 -4,4"/>
<!-- Pressure_Sensor_Array -->
<g id="node1" class="node">
<title>Pressure_Sensor_Array</title>
<polygon fill="none" stroke="#000000" points="356.5088,-90 208.1746,-90 208.1746,-54 356.5088,-54 356.5088,-90"/>
<text text-anchor="middle" x="282.3417" y="-67.8" font-family="Times,serif" font-size="14.00" fill="#000000">Pressure_Sensor_Array</text>
</g>
<!-- Instrumentation_Amplifier_Pressure -->
<g id="node2" class="node">
<title>Instrumentation_Amplifier_Pressure</title>
<polygon fill="none" stroke="#000000" points="625.8835,-90 404.3331,-90 404.3331,-54 625.8835,-54 625.8835,-90"/>
<text text-anchor="middle" x="515.1083" y="-67.8" font-family="Times,serif" font-size="14.00" fill="#000000">Instrumentation_Amplifier_Pressure</text>
</g>
<!-- Pressure_Sensor_Array&#45;&gt;Instrumentation_Amplifier_Pressure -->
<g id="edge1" class="edge">
<title>Pressure_Sensor_Array&#45;&gt;Instrumentation_Amplifier_Pressure</title>
<path fill="none" stroke="#000000" d="M356.6305,-72C368.5986,-72 381.2531,-72 393.9833,-72"/>
<polygon fill="#000000" stroke="#000000" points="394.1974,-75.5001 404.1973,-72 394.1973,-68.5001 394.1974,-75.5001"/>
</g>
<!-- Lowpass_Filter_Pressure -->
<g id="node3" class="node">
<title>Lowpass_Filter_Pressure</title>
<polygon fill="none" stroke="#000000" points="843.1099,-90 686.0789,-90 686.0789,-54 843.1099,-54 843.1099,-90"/>
<text text-anchor="middle" x="764.5944" y="-67.8" font-family="Times,serif" font-size="14.00" fill="#000000">Lowpass_Filter_Pressure</text>
</g>
<!-- Instrumentation_Amplifier_Pressure&#45;&gt;Lowpass_Filter_Pressure -->
<g id="edge2" class="edge">
<title>Instrumentation_Amplifier_Pressure&#45;&gt;Lowpass_Filter_Pressure</title>
<path fill="none" stroke="#000000" d="M625.9894,-72C642.5365,-72 659.413,-72 675.4349,-72"/>
<polygon fill="#000000" stroke="#000000" points="675.8281,-75.5001 685.828,-72 675.828,-68.5001 675.8281,-75.5001"/>
</g>
<!-- Sample_and_Hold_Pressure -->
<g id="node4" class="node">
<title>Sample_and_Hold_Pressure</title>
<polygon fill="none" stroke="#000000" points="1077.8839,-90 903.6291,-90 903.6291,-54 1077.8839,-54 1077.8839,-90"/>
<text text-anchor="middle" x="990.7565" y="-67.8" font-family="Times,serif" font-size="14.00" fill="#000000">Sample_and_Hold_Pressure</text>
</g>
<!-- Lowpass_Filter_Pressure&#45;&gt;Sample_and_Hold_Pressure -->
<g id="edge3" class="edge">
<title>Lowpass_Filter_Pressure&#45;&gt;Sample_and_Hold_Pressure</title>
<path fill="none" stroke="#000000" d="M843.3774,-72C859.4241,-72 876.4885,-72 893.1003,-72"/>
<polygon fill="#000000" stroke="#000000" points="893.372,-75.5001 903.3719,-72 893.3719,-68.5001 893.372,-75.5001"/>
</g>
<!-- Multiplexer -->
<g id="node10" class="node">
<title>Multiplexer</title>
<polygon fill="none" stroke="#000000" points="1208.2609,-63 1126.0671,-63 1126.0671,-27 1208.2609,-27 1208.2609,-63"/>
<text text-anchor="middle" x="1167.164" y="-40.8" font-family="Times,serif" font-size="14.00" fill="#000000">Multiplexer</text>
</g>
<!-- Sample_and_Hold_Pressure&#45;&gt;Multiplexer -->
<g id="edge8" class="edge">
<title>Sample_and_Hold_Pressure&#45;&gt;Multiplexer</title>
<path fill="none" stroke="#000000" d="M1077.9266,-58.6582C1090.817,-56.6853 1103.7369,-54.7078 1115.5847,-52.8945"/>
<polygon fill="#000000" stroke="#000000" points="1116.3375,-56.3201 1125.6928,-51.3474 1115.2784,-49.4007 1116.3375,-56.3201"/>
</g>
<!-- Temperature_Sensor_Array -->
<g id="node5" class="node">
<title>Temperature_Sensor_Array</title>
<polygon fill="none" stroke="#000000" points="172.3875,-36 -.1293,-36 -.1293,0 172.3875,0 172.3875,-36"/>
<text text-anchor="middle" x="86.1291" y="-13.8" font-family="Times,serif" font-size="14.00" fill="#000000">Temperature_Sensor_Array</text>
</g>
<!-- Linearization_Circuit -->
<g id="node6" class="node">
<title>Linearization_Circuit</title>
<polygon fill="none" stroke="#000000" points="350.3601,-36 214.3233,-36 214.3233,0 350.3601,0 350.3601,-36"/>
<text text-anchor="middle" x="282.3417" y="-13.8" font-family="Times,serif" font-size="14.00" fill="#000000">Linearization_Circuit</text>
</g>
<!-- Temperature_Sensor_Array&#45;&gt;Linearization_Circuit -->
<g id="edge4" class="edge">
<title>Temperature_Sensor_Array&#45;&gt;Linearization_Circuit</title>
<path fill="none" stroke="#000000" d="M172.4763,-18C182.9635,-18 193.6325,-18 203.9948,-18"/>
<polygon fill="#000000" stroke="#000000" points="204.2367,-21.5001 214.2366,-18 204.2366,-14.5001 204.2367,-21.5001"/>
</g>
<!-- Instrumentation_Amplifier_Temperature -->
<g id="node7" class="node">
<title>Instrumentation_Amplifier_Temperature</title>
<polygon fill="none" stroke="#000000" points="637.9748,-36 392.2418,-36 392.2418,0 637.9748,0 637.9748,-36"/>
<text text-anchor="middle" x="515.1083" y="-13.8" font-family="Times,serif" font-size="14.00" fill="#000000">Instrumentation_Amplifier_Temperature</text>
</g>
<!-- Linearization_Circuit&#45;&gt;Instrumentation_Amplifier_Temperature -->
<g id="edge5" class="edge">
<title>Linearization_Circuit&#45;&gt;Instrumentation_Amplifier_Temperature</title>
<path fill="none" stroke="#000000" d="M350.6066,-18C360.6717,-18 371.3196,-18 382.1634,-18"/>
<polygon fill="#000000" stroke="#000000" points="382.1658,-21.5001 392.1658,-18 382.1658,-14.5001 382.1658,-21.5001"/>
</g>
<!-- Lowpass_Filter_Temperature -->
<g id="node8" class="node">
<title>Lowpass_Filter_Temperature</title>
<polygon fill="none" stroke="#000000" points="855.2008,-36 673.988,-36 673.988,0 855.2008,0 855.2008,-36"/>
<text text-anchor="middle" x="764.5944" y="-13.8" font-family="Times,serif" font-size="14.00" fill="#000000">Lowpass_Filter_Temperature</text>
</g>
<!-- Instrumentation_Amplifier_Temperature&#45;&gt;Lowpass_Filter_Temperature -->
<g id="edge6" class="edge">
<title>Instrumentation_Amplifier_Temperature&#45;&gt;Lowpass_Filter_Temperature</title>
<path fill="none" stroke="#000000" d="M638.0241,-18C646.5936,-18 655.1745,-18 663.6052,-18"/>
<polygon fill="#000000" stroke="#000000" points="663.8033,-21.5001 673.8033,-18 663.8032,-14.5001 663.8033,-21.5001"/>
</g>
<!-- Sample_and_Hold_Temperature -->
<g id="node9" class="node">
<title>Sample_and_Hold_Temperature</title>
<polygon fill="none" stroke="#000000" points="1089.9749,-36 891.5381,-36 891.5381,0 1089.9749,0 1089.9749,-36"/>
<text text-anchor="middle" x="990.7565" y="-13.8" font-family="Times,serif" font-size="14.00" fill="#000000">Sample_and_Hold_Temperature</text>
</g>
<!-- Lowpass_Filter_Temperature&#45;&gt;Sample_and_Hold_Temperature -->
<g id="edge7" class="edge">
<title>Lowpass_Filter_Temperature&#45;&gt;Sample_and_Hold_Temperature</title>
<path fill="none" stroke="#000000" d="M855.28,-18C863.8478,-18 872.5943,-18 881.3119,-18"/>
<polygon fill="#000000" stroke="#000000" points="881.52,-21.5001 891.5199,-18 881.5199,-14.5001 881.52,-21.5001"/>
</g>
<!-- Sample_and_Hold_Temperature&#45;&gt;Multiplexer -->
<g id="edge9" class="edge">
<title>Sample_and_Hold_Temperature&#45;&gt;Multiplexer</title>
<path fill="none" stroke="#000000" d="M1090.0457,-33.1967C1098.9698,-34.5626 1107.7401,-35.9049 1115.9833,-37.1665"/>
<polygon fill="#000000" stroke="#000000" points="1115.7002,-40.6639 1126.1146,-38.7172 1116.7593,-33.7445 1115.7002,-40.6639"/>
</g>
<!-- ADC -->
<g id="node11" class="node">
<title>ADC</title>
<polygon fill="none" stroke="#000000" points="1298.2124,-63 1244.2124,-63 1244.2124,-27 1298.2124,-27 1298.2124,-63"/>
<text text-anchor="middle" x="1271.2124" y="-40.8" font-family="Times,serif" font-size="14.00" fill="#000000">ADC</text>
</g>
<!-- Multiplexer&#45;&gt;ADC -->
<g id="edge10" class="edge">
<title>Multiplexer&#45;&gt;ADC</title>
<path fill="none" stroke="#000000" d="M1208.2867,-45C1216.7539,-45 1225.6246,-45 1233.946,-45"/>
<polygon fill="#000000" stroke="#000000" points="1234.1211,-48.5001 1244.1211,-45 1234.1211,-41.5001 1234.1211,-48.5001"/>
</g>
<!-- Data_Interface -->
<g id="node12" class="node">
<title>Data_Interface</title>
<polygon fill="none" stroke="#000000" points="1433.4483,-63 1334.1337,-63 1334.1337,-27 1433.4483,-27 1433.4483,-63"/>
<text text-anchor="middle" x="1383.791" y="-40.8" font-family="Times,serif" font-size="14.00" fill="#000000">Data_Interface</text>
</g>
<!-- ADC&#45;&gt;Data_Interface -->
<g id="edge11" class="edge">
<title>ADC&#45;&gt;Data_Interface</title>
<path fill="none" stroke="#000000" d="M1298.4645,-45C1306.2185,-45 1314.9848,-45 1323.8723,-45"/>
<polygon fill="#000000" stroke="#000000" points="1323.9105,-48.5001 1333.9105,-45 1323.9105,-41.5001 1323.9105,-48.5001"/>
</g>
</g>
</svg>
