<?xml version="1.0" encoding="UTF-8" standalone="no"?>
<!DOCTYPE svg PUBLIC "-//W3C//DTD SVG 1.1//EN"
 "http://www.w3.org/Graphics/SVG/1.1/DTD/svg11.dtd">
<!-- Generated by graphviz version 2.40.1 (20161225.0304)
 -->
<!-- Title: G Pages: 1 -->
<svg width="1037pt" height="44pt"
 viewBox="0.00 0.00 1036.62 44.00" xmlns="http://www.w3.org/2000/svg" xmlns:xlink="http://www.w3.org/1999/xlink">
<g id="graph0" class="graph" transform="scale(1 1) rotate(0) translate(4 40)">
<title>G</title>
<polygon fill="#ffffff" stroke="transparent" points="-4,4 -4,-40 1032.6244,-40 1032.6244,4 -4,4"/>
<!-- Thermistor -->
<g id="node1" class="node">
<title>Thermistor</title>
<polygon fill="none" stroke="#000000" points="109.5513,-36 .1493,-36 .1493,0 109.5513,0 109.5513,-36"/>
<text text-anchor="middle" x="54.8503" y="-13.8" font-family="Times,serif" font-size="14.00" fill="#000000">NTC Thermistor</text>
</g>
<!-- LinearizationNetwork -->
<g id="node2" class="node">
<title>LinearizationNetwork</title>
<polygon fill="none" stroke="#000000" points="288.8701,-36 145.6441,-36 145.6441,0 288.8701,0 288.8701,-36"/>
<text text-anchor="middle" x="217.2571" y="-13.8" font-family="Times,serif" font-size="14.00" fill="#000000">Linearization Network</text>
</g>
<!-- Thermistor&#45;&gt;LinearizationNetwork -->
<g id="edge1" class="edge">
<title>Thermistor&#45;&gt;LinearizationNetwork</title>
<path fill="none" stroke="#000000" d="M109.8338,-18C118.1015,-18 126.7753,-18 135.4583,-18"/>
<polygon fill="#000000" stroke="#000000" points="135.6317,-21.5001 145.6316,-18 135.6316,-14.5001 135.6317,-21.5001"/>
</g>
<!-- Buffer -->
<g id="node3" class="node">
<title>Buffer</title>
<polygon fill="none" stroke="#000000" points="436.1706,-36 324.6944,-36 324.6944,0 436.1706,0 436.1706,-36"/>
<text text-anchor="middle" x="380.4325" y="-13.8" font-family="Times,serif" font-size="14.00" fill="#000000">Buffer Amplifier</text>
</g>
<!-- LinearizationNetwork&#45;&gt;Buffer -->
<g id="edge2" class="edge">
<title>LinearizationNetwork&#45;&gt;Buffer</title>
<path fill="none" stroke="#000000" d="M288.8282,-18C297.3512,-18 306.0222,-18 314.4617,-18"/>
<polygon fill="#000000" stroke="#000000" points="314.6156,-21.5001 324.6156,-18 314.6155,-14.5001 314.6156,-21.5001"/>
</g>
<!-- SignalConditioning -->
<g id="node4" class="node">
<title>SignalConditioning</title>
<polygon fill="none" stroke="#000000" points="601.3176,-36 471.9626,-36 471.9626,0 601.3176,0 601.3176,-36"/>
<text text-anchor="middle" x="536.6401" y="-13.8" font-family="Times,serif" font-size="14.00" fill="#000000">Signal Conditioning</text>
</g>
<!-- Buffer&#45;&gt;SignalConditioning -->
<g id="edge3" class="edge">
<title>Buffer&#45;&gt;SignalConditioning</title>
<path fill="none" stroke="#000000" d="M436.3858,-18C444.6915,-18 453.3615,-18 461.9755,-18"/>
<polygon fill="#000000" stroke="#000000" points="462.0369,-21.5001 472.0369,-18 462.0368,-14.5001 462.0369,-21.5001"/>
</g>
<!-- AntiAliasingFilter -->
<g id="node6" class="node">
<title>AntiAliasingFilter</title>
<polygon fill="none" stroke="#000000" points="763.9523,-36 637.3209,-36 637.3209,0 763.9523,0 763.9523,-36"/>
<text text-anchor="middle" x="700.6366" y="-13.8" font-family="Times,serif" font-size="14.00" fill="#000000">Anti&#45;Aliasing Filter</text>
</g>
<!-- SignalConditioning&#45;&gt;AntiAliasingFilter -->
<g id="edge4" class="edge">
<title>SignalConditioning&#45;&gt;AntiAliasingFilter</title>
<path fill="none" stroke="#000000" d="M601.4559,-18C609.7941,-18 618.3806,-18 626.8491,-18"/>
<polygon fill="#000000" stroke="#000000" points="627.0956,-21.5001 637.0956,-18 627.0956,-14.5001 627.0956,-21.5001"/>
</g>
<!-- OutputStage -->
<g id="node5" class="node">
<title>OutputStage</title>
<polygon fill="none" stroke="#000000" points="913.434,-36 800.2474,-36 800.2474,0 913.434,0 913.434,-36"/>
<text text-anchor="middle" x="856.8407" y="-13.8" font-family="Times,serif" font-size="14.00" fill="#000000">Output Amplifier</text>
</g>
<!-- Multimeter -->
<g id="node7" class="node">
<title>Multimeter</title>
<polygon fill="none" stroke="#000000" points="1028.6181,-36 949.6433,-36 949.6433,0 1028.6181,0 1028.6181,-36"/>
<text text-anchor="middle" x="989.1307" y="-13.8" font-family="Times,serif" font-size="14.00" fill="#000000">Multimeter</text>
</g>
<!-- OutputStage&#45;&gt;Multimeter -->
<g id="edge6" class="edge">
<title>OutputStage&#45;&gt;Multimeter</title>
<path fill="none" stroke="#000000" d="M913.7113,-18C922.2746,-18 931.0495,-18 939.4464,-18"/>
<polygon fill="#000000" stroke="#000000" points="939.4618,-21.5001 949.4617,-18 939.4617,-14.5001 939.4618,-21.5001"/>
</g>
<!-- AntiAliasingFilter&#45;&gt;OutputStage -->
<g id="edge5" class="edge">
<title>AntiAliasingFilter&#45;&gt;OutputStage</title>
<path fill="none" stroke="#000000" d="M764.1708,-18C772.5777,-18 781.218,-18 789.6834,-18"/>
<polygon fill="#000000" stroke="#000000" points="789.895,-21.5001 799.895,-18 789.895,-14.5001 789.895,-21.5001"/>
</g>
</g>
</svg>
