<?xml version="1.0" encoding="UTF-8" standalone="no"?>
<!DOCTYPE svg PUBLIC "-//W3C//DTD SVG 1.1//EN"
 "http://www.w3.org/Graphics/SVG/1.1/DTD/svg11.dtd">
<!-- Generated by graphviz version 2.40.1 (20161225.0304)
 -->
<!-- Title: G Pages: 1 -->
<svg width="793pt" height="44pt"
 viewBox="0.00 0.00 792.88 44.00" xmlns="http://www.w3.org/2000/svg" xmlns:xlink="http://www.w3.org/1999/xlink">
<g id="graph0" class="graph" transform="scale(1 1) rotate(0) translate(4 40)">
<title>G</title>
<polygon fill="#ffffff" stroke="transparent" points="-4,4 -4,-40 788.879,-40 788.879,4 -4,4"/>
<!-- Sensor -->
<g id="node1" class="node">
<title>Sensor</title>
<polygon fill="none" stroke="#000000" points="129.8434,-36 .0522,-36 .0522,0 129.8434,0 129.8434,-36"/>
<text text-anchor="middle" x="64.9478" y="-13.8" font-family="Times,serif" font-size="14.00" fill="#000000">Piezoelectric Sensor</text>
</g>
<!-- ChargeAmp -->
<g id="node2" class="node">
<title>ChargeAmp</title>
<polygon fill="none" stroke="#000000" points="281.0925,-36 165.8299,-36 165.8299,0 281.0925,0 281.0925,-36"/>
<text text-anchor="middle" x="223.4612" y="-13.8" font-family="Times,serif" font-size="14.00" fill="#000000">Charge Amplifier</text>
</g>
<!-- Sensor&#45;&gt;ChargeAmp -->
<g id="edge1" class="edge">
<title>Sensor&#45;&gt;ChargeAmp</title>
<path fill="none" stroke="#000000" d="M129.8786,-18C138.3277,-18 147.0014,-18 155.4984,-18"/>
<polygon fill="#000000" stroke="#000000" points="155.7482,-21.5001 165.7481,-18 155.7481,-14.5001 155.7482,-21.5001"/>
</g>
<!-- LowPassFilter -->
<g id="node3" class="node">
<title>LowPassFilter</title>
<polygon fill="none" stroke="#000000" points="421.4069,-36 316.8999,-36 316.8999,0 421.4069,0 421.4069,-36"/>
<text text-anchor="middle" x="369.1534" y="-13.8" font-family="Times,serif" font-size="14.00" fill="#000000">Low&#45;pass Filter</text>
</g>
<!-- ChargeAmp&#45;&gt;LowPassFilter -->
<g id="edge2" class="edge">
<title>ChargeAmp&#45;&gt;LowPassFilter</title>
<path fill="none" stroke="#000000" d="M281.0426,-18C289.4115,-18 298.0618,-18 306.5245,-18"/>
<polygon fill="#000000" stroke="#000000" points="306.7225,-21.5001 316.7224,-18 306.7224,-14.5001 306.7225,-21.5001"/>
</g>
<!-- Buffer -->
<g id="node4" class="node">
<title>Buffer</title>
<polygon fill="none" stroke="#000000" points="511.28,-36 457.28,-36 457.28,0 511.28,0 511.28,-36"/>
<text text-anchor="middle" x="484.28" y="-13.8" font-family="Times,serif" font-size="14.00" fill="#000000">Buffer</text>
</g>
<!-- LowPassFilter&#45;&gt;Buffer -->
<g id="edge3" class="edge">
<title>LowPassFilter&#45;&gt;Buffer</title>
<path fill="none" stroke="#000000" d="M421.3272,-18C430.0282,-18 438.8949,-18 447.1227,-18"/>
<polygon fill="#000000" stroke="#000000" points="447.1424,-21.5001 457.1424,-18 447.1424,-14.5001 447.1424,-21.5001"/>
</g>
<!-- ADC -->
<g id="node5" class="node">
<title>ADC</title>
<polygon fill="none" stroke="#000000" points="784.6788,-36 547.4802,-36 547.4802,0 784.6788,0 784.6788,-36"/>
<text text-anchor="middle" x="666.0795" y="-13.8" font-family="Times,serif" font-size="14.00" fill="#000000">Analog&#45;to&#45;Digital Converter (Optional)</text>
</g>
<!-- Buffer&#45;&gt;ADC -->
<g id="edge4" class="edge">
<title>Buffer&#45;&gt;ADC</title>
<path fill="none" stroke="#000000" d="M511.4972,-18C519.0695,-18 527.8266,-18 537.246,-18"/>
<polygon fill="#000000" stroke="#000000" points="537.2798,-21.5001 547.2798,-18 537.2797,-14.5001 537.2798,-21.5001"/>
</g>
</g>
</svg>
