<?xml version="1.0" encoding="UTF-8" standalone="no"?>
<!DOCTYPE svg PUBLIC "-//W3C//DTD SVG 1.1//EN"
 "http://www.w3.org/Graphics/SVG/1.1/DTD/svg11.dtd">
<!-- Generated by graphviz version 2.40.1 (20161225.0304)
 -->
<!-- Title: G Pages: 1 -->
<svg width="1225pt" height="110pt"
 viewBox="0.00 0.00 1224.63 109.60" xmlns="http://www.w3.org/2000/svg" xmlns:xlink="http://www.w3.org/1999/xlink">
<g id="graph0" class="graph" transform="scale(1 1) rotate(0) translate(4 105.6)">
<title>G</title>
<polygon fill="#ffffff" stroke="transparent" points="-4,4 -4,-105.6 1220.633,-105.6 1220.633,4 -4,4"/>
<!-- PressureSensorArray -->
<g id="node1" class="node">
<title>PressureSensorArray</title>
<polygon fill="none" stroke="#000000" points="188.7765,-98.8 20.8001,-98.8 20.8001,-62.8 188.7765,-62.8 188.7765,-98.8"/>
<text text-anchor="middle" x="104.7883" y="-76.6" font-family="Times,serif" font-size="14.00" fill="#000000">Pressure Sensor Array (x8)</text>
</g>
<!-- MultiplexerPressure -->
<g id="node3" class="node">
<title>MultiplexerPressure</title>
<polygon fill="none" stroke="#000000" points="349.3089,-101.4019 245.3317,-101.4019 245.3317,-60.1981 349.3089,-60.1981 349.3089,-101.4019"/>
<text text-anchor="middle" x="297.3203" y="-85" font-family="Times,serif" font-size="14.00" fill="#000000">8:1 Multiplexer</text>
<text text-anchor="middle" x="297.3203" y="-68.2" font-family="Times,serif" font-size="14.00" fill="#000000">(Pressure)</text>
</g>
<!-- PressureSensorArray&#45;&gt;MultiplexerPressure -->
<g id="edge1" class="edge">
<title>PressureSensorArray&#45;&gt;MultiplexerPressure</title>
<path fill="none" stroke="#000000" d="M188.9556,-80.8C204.5762,-80.8 220.6287,-80.8 235.4325,-80.8"/>
<polygon fill="#000000" stroke="#000000" points="235.4611,-84.3001 245.4611,-80.8 235.4611,-77.3001 235.4611,-84.3001"/>
</g>
<!-- TemperatureSensorArray -->
<g id="node2" class="node">
<title>TemperatureSensorArray</title>
<polygon fill="none" stroke="#000000" points="209.3653,-38.8 .2113,-38.8 .2113,-2.8 209.3653,-2.8 209.3653,-38.8"/>
<text text-anchor="middle" x="104.7883" y="-16.6" font-family="Times,serif" font-size="14.00" fill="#000000">IR Temperature Sensor Array (x8)</text>
</g>
<!-- MultiplexerTemperature -->
<g id="node4" class="node">
<title>MultiplexerTemperature</title>
<polygon fill="none" stroke="#000000" points="349.3089,-41.4019 245.3317,-41.4019 245.3317,-.1981 349.3089,-.1981 349.3089,-41.4019"/>
<text text-anchor="middle" x="297.3203" y="-25" font-family="Times,serif" font-size="14.00" fill="#000000">8:1 Multiplexer</text>
<text text-anchor="middle" x="297.3203" y="-8.2" font-family="Times,serif" font-size="14.00" fill="#000000">(Temperature)</text>
</g>
<!-- TemperatureSensorArray&#45;&gt;MultiplexerTemperature -->
<g id="edge8" class="edge">
<title>TemperatureSensorArray&#45;&gt;MultiplexerTemperature</title>
<path fill="none" stroke="#000000" d="M209.5055,-20.8C218.1874,-20.8 226.777,-20.8 234.9888,-20.8"/>
<polygon fill="#000000" stroke="#000000" points="235.1668,-24.3001 245.1668,-20.8 235.1668,-17.3001 235.1668,-24.3001"/>
</g>
<!-- InstrumentationAmplifierPressure -->
<g id="node5" class="node">
<title>InstrumentationAmplifierPressure</title>
<polygon fill="none" stroke="#000000" points="548.5936,-101.4019 384.8872,-101.4019 384.8872,-60.1981 548.5936,-60.1981 548.5936,-101.4019"/>
<text text-anchor="middle" x="466.7404" y="-85" font-family="Times,serif" font-size="14.00" fill="#000000">Instrumentation Amplifier</text>
<text text-anchor="middle" x="466.7404" y="-68.2" font-family="Times,serif" font-size="14.00" fill="#000000">(Pressure)</text>
</g>
<!-- MultiplexerPressure&#45;&gt;InstrumentationAmplifierPressure -->
<g id="edge2" class="edge">
<title>MultiplexerPressure&#45;&gt;InstrumentationAmplifierPressure</title>
<path fill="none" stroke="#000000" d="M349.0725,-80.8C357.3447,-80.8 366.1137,-80.8 374.9865,-80.8"/>
<polygon fill="#000000" stroke="#000000" points="375.0273,-84.3001 385.0273,-80.8 375.0272,-77.3001 375.0273,-84.3001"/>
</g>
<!-- InstrumentationAmplifierTemperature -->
<g id="node7" class="node">
<title>InstrumentationAmplifierTemperature</title>
<polygon fill="none" stroke="#000000" points="548.5936,-41.4019 384.8872,-41.4019 384.8872,-.1981 548.5936,-.1981 548.5936,-41.4019"/>
<text text-anchor="middle" x="466.7404" y="-25" font-family="Times,serif" font-size="14.00" fill="#000000">Instrumentation Amplifier</text>
<text text-anchor="middle" x="466.7404" y="-8.2" font-family="Times,serif" font-size="14.00" fill="#000000">(Temperature)</text>
</g>
<!-- MultiplexerTemperature&#45;&gt;InstrumentationAmplifierTemperature -->
<g id="edge9" class="edge">
<title>MultiplexerTemperature&#45;&gt;InstrumentationAmplifierTemperature</title>
<path fill="none" stroke="#000000" d="M349.0725,-20.8C357.3447,-20.8 366.1137,-20.8 374.9865,-20.8"/>
<polygon fill="#000000" stroke="#000000" points="375.0273,-24.3001 385.0273,-20.8 375.0272,-17.3001 375.0273,-24.3001"/>
</g>
<!-- FilterPressure -->
<g id="node6" class="node">
<title>FilterPressure</title>
<polygon fill="none" stroke="#000000" points="688.7969,-101.4019 584.2899,-101.4019 584.2899,-60.1981 688.7969,-60.1981 688.7969,-101.4019"/>
<text text-anchor="middle" x="636.5434" y="-85" font-family="Times,serif" font-size="14.00" fill="#000000">Low&#45;pass Filter</text>
<text text-anchor="middle" x="636.5434" y="-68.2" font-family="Times,serif" font-size="14.00" fill="#000000">(Pressure)</text>
</g>
<!-- InstrumentationAmplifierPressure&#45;&gt;FilterPressure -->
<g id="edge3" class="edge">
<title>InstrumentationAmplifierPressure&#45;&gt;FilterPressure</title>
<path fill="none" stroke="#000000" d="M548.6576,-80.8C557.1252,-80.8 565.6324,-80.8 573.8418,-80.8"/>
<polygon fill="#000000" stroke="#000000" points="574.0557,-84.3001 584.0556,-80.8 574.0556,-77.3001 574.0557,-84.3001"/>
</g>
<!-- SampleAndHoldPressure -->
<g id="node9" class="node">
<title>SampleAndHoldPressure</title>
<polygon fill="none" stroke="#000000" points="828.4913,-101.4019 724.7295,-101.4019 724.7295,-60.1981 828.4913,-60.1981 828.4913,-101.4019"/>
<text text-anchor="middle" x="776.6104" y="-85" font-family="Times,serif" font-size="14.00" fill="#000000">Sample &amp; Hold</text>
<text text-anchor="middle" x="776.6104" y="-68.2" font-family="Times,serif" font-size="14.00" fill="#000000">(Pressure)</text>
</g>
<!-- FilterPressure&#45;&gt;SampleAndHoldPressure -->
<g id="edge4" class="edge">
<title>FilterPressure&#45;&gt;SampleAndHoldPressure</title>
<path fill="none" stroke="#000000" d="M688.6992,-80.8C696.9936,-80.8 705.6466,-80.8 714.149,-80.8"/>
<polygon fill="#000000" stroke="#000000" points="714.4111,-84.3001 724.4111,-80.8 714.411,-77.3001 714.4111,-84.3001"/>
</g>
<!-- FilterTemperature -->
<g id="node8" class="node">
<title>FilterTemperature</title>
<polygon fill="none" stroke="#000000" points="688.7969,-41.4019 584.2899,-41.4019 584.2899,-.1981 688.7969,-.1981 688.7969,-41.4019"/>
<text text-anchor="middle" x="636.5434" y="-25" font-family="Times,serif" font-size="14.00" fill="#000000">Low&#45;pass Filter</text>
<text text-anchor="middle" x="636.5434" y="-8.2" font-family="Times,serif" font-size="14.00" fill="#000000">(Temperature)</text>
</g>
<!-- InstrumentationAmplifierTemperature&#45;&gt;FilterTemperature -->
<g id="edge10" class="edge">
<title>InstrumentationAmplifierTemperature&#45;&gt;FilterTemperature</title>
<path fill="none" stroke="#000000" d="M548.6576,-20.8C557.1252,-20.8 565.6324,-20.8 573.8418,-20.8"/>
<polygon fill="#000000" stroke="#000000" points="574.0557,-24.3001 584.0556,-20.8 574.0556,-17.3001 574.0557,-24.3001"/>
</g>
<!-- SampleAndHoldTemperature -->
<g id="node10" class="node">
<title>SampleAndHoldTemperature</title>
<polygon fill="none" stroke="#000000" points="828.4913,-41.4019 724.7295,-41.4019 724.7295,-.1981 828.4913,-.1981 828.4913,-41.4019"/>
<text text-anchor="middle" x="776.6104" y="-25" font-family="Times,serif" font-size="14.00" fill="#000000">Sample &amp; Hold</text>
<text text-anchor="middle" x="776.6104" y="-8.2" font-family="Times,serif" font-size="14.00" fill="#000000">(Temperature)</text>
</g>
<!-- FilterTemperature&#45;&gt;SampleAndHoldTemperature -->
<g id="edge11" class="edge">
<title>FilterTemperature&#45;&gt;SampleAndHoldTemperature</title>
<path fill="none" stroke="#000000" d="M688.6992,-20.8C696.9936,-20.8 705.6466,-20.8 714.149,-20.8"/>
<polygon fill="#000000" stroke="#000000" points="714.4111,-24.3001 724.4111,-20.8 714.411,-17.3001 714.4111,-24.3001"/>
</g>
<!-- ADCPressure -->
<g id="node11" class="node">
<title>ADCPressure</title>
<polygon fill="none" stroke="#000000" points="949.212,-101.4019 876.7242,-101.4019 876.7242,-60.1981 949.212,-60.1981 949.212,-101.4019"/>
<text text-anchor="middle" x="912.9681" y="-85" font-family="Times,serif" font-size="14.00" fill="#000000">ADC</text>
<text text-anchor="middle" x="912.9681" y="-68.2" font-family="Times,serif" font-size="14.00" fill="#000000">(Pressure)</text>
</g>
<!-- SampleAndHoldPressure&#45;&gt;ADCPressure -->
<g id="edge5" class="edge">
<title>SampleAndHoldPressure&#45;&gt;ADCPressure</title>
<path fill="none" stroke="#000000" d="M828.5504,-80.8C840.8912,-80.8 853.9856,-80.8 866.0853,-80.8"/>
<polygon fill="#000000" stroke="#000000" points="866.4184,-84.3001 876.4183,-80.8 866.4183,-77.3001 866.4184,-84.3001"/>
</g>
<!-- ADCTemperature -->
<g id="node12" class="node">
<title>ADCTemperature</title>
<polygon fill="none" stroke="#000000" points="961.3028,-41.4019 864.6334,-41.4019 864.6334,-.1981 961.3028,-.1981 961.3028,-41.4019"/>
<text text-anchor="middle" x="912.9681" y="-25" font-family="Times,serif" font-size="14.00" fill="#000000">ADC</text>
<text text-anchor="middle" x="912.9681" y="-8.2" font-family="Times,serif" font-size="14.00" fill="#000000">(Temperature)</text>
</g>
<!-- SampleAndHoldTemperature&#45;&gt;ADCTemperature -->
<g id="edge12" class="edge">
<title>SampleAndHoldTemperature&#45;&gt;ADCTemperature</title>
<path fill="none" stroke="#000000" d="M828.5504,-20.8C836.8975,-20.8 845.5894,-20.8 854.0851,-20.8"/>
<polygon fill="#000000" stroke="#000000" points="854.3144,-24.3001 864.3143,-20.8 854.3143,-17.3001 854.3144,-24.3001"/>
</g>
<!-- DataAcquisitionSystem -->
<g id="node13" class="node">
<title>DataAcquisitionSystem</title>
<polygon fill="none" stroke="#000000" points="1108.7676,-71.4019 997.2578,-71.4019 997.2578,-30.1981 1108.7676,-30.1981 1108.7676,-71.4019"/>
<text text-anchor="middle" x="1053.0127" y="-55" font-family="Times,serif" font-size="14.00" fill="#000000">Data Acquisition</text>
<text text-anchor="middle" x="1053.0127" y="-38.2" font-family="Times,serif" font-size="14.00" fill="#000000">System (DAS)</text>
</g>
<!-- ADCPressure&#45;&gt;DataAcquisitionSystem -->
<g id="edge6" class="edge">
<title>ADCPressure&#45;&gt;DataAcquisitionSystem</title>
<path fill="none" stroke="#000000" d="M949.3976,-72.9962C961.0223,-70.5059 974.2659,-67.6689 987.3089,-64.8749"/>
<polygon fill="#000000" stroke="#000000" points="988.1688,-68.2702 997.2138,-62.7531 986.7025,-61.4255 988.1688,-68.2702"/>
</g>
<!-- ADCTemperature&#45;&gt;DataAcquisitionSystem -->
<g id="edge13" class="edge">
<title>ADCTemperature&#45;&gt;DataAcquisitionSystem</title>
<path fill="none" stroke="#000000" d="M961.5559,-31.2084C969.9361,-33.0035 978.7696,-34.8958 987.5089,-36.7679"/>
<polygon fill="#000000" stroke="#000000" points="986.7953,-40.1944 997.3066,-38.8668 988.2616,-33.3497 986.7953,-40.1944"/>
</g>
<!-- Computer -->
<g id="node14" class="node">
<title>Computer</title>
<polygon fill="none" stroke="#000000" points="1216.6295,-68.8 1144.6435,-68.8 1144.6435,-32.8 1216.6295,-32.8 1216.6295,-68.8"/>
<text text-anchor="middle" x="1180.6365" y="-46.6" font-family="Times,serif" font-size="14.00" fill="#000000">Computer</text>
</g>
<!-- DataAcquisitionSystem&#45;&gt;Computer -->
<g id="edge7" class="edge">
<title>DataAcquisitionSystem&#45;&gt;Computer</title>
<path fill="none" stroke="#000000" d="M1108.9904,-44.0954C1117.4668,-43.9967 1126.1305,-44.0589 1134.3709,-44.2821"/>
<polygon fill="#000000" stroke="#000000" points="1134.4161,-47.786 1144.5365,-44.6509 1134.67,-40.7906 1134.4161,-47.786"/>
</g>
<!-- DataAcquisitionSystem&#45;&gt;Computer -->
<g id="edge14" class="edge">
<title>DataAcquisitionSystem&#45;&gt;Computer</title>
<path fill="none" stroke="#000000" d="M1108.9904,-57.5046C1117.4668,-57.6033 1126.1305,-57.5411 1134.3709,-57.3179"/>
<polygon fill="#000000" stroke="#000000" points="1134.67,-60.8094 1144.5365,-56.9491 1134.4161,-53.814 1134.67,-60.8094"/>
</g>
</g>
</svg>
