<?xml version="1.0" encoding="UTF-8" standalone="no"?>
<!DOCTYPE svg PUBLIC "-//W3C//DTD SVG 1.1//EN"
 "http://www.w3.org/Graphics/SVG/1.1/DTD/svg11.dtd">
<!-- Generated by graphviz version 2.40.1 (20161225.0304)
 -->
<!-- Title: G Pages: 1 -->
<svg width="1066pt" height="205pt"
 viewBox="0.00 0.00 1065.98 205.00" xmlns="http://www.w3.org/2000/svg" xmlns:xlink="http://www.w3.org/1999/xlink">
<g id="graph0" class="graph" transform="scale(1 1) rotate(0) translate(4 201)">
<title>G</title>
<polygon fill="#ffffff" stroke="transparent" points="-4,4 -4,-201 1061.979,-201 1061.979,4 -4,4"/>
<g id="clust6" class="cluster">
<title>cluster_5</title>
<polygon fill="none" stroke="#000000" points="942.8822,-19 942.8822,-97 1057.979,-97 1057.979,-19 942.8822,-19"/>
<text text-anchor="middle" x="1000.4306" y="-80.4" font-family="Times,serif" font-size="14.00" fill="#000000">Data Aggregation</text>
</g>
<g id="clust5" class="cluster">
<title>cluster_4</title>
<polygon fill="none" stroke="#000000" points="739.8822,-17 739.8822,-100 921.8822,-100 921.8822,-17 739.8822,-17"/>
<text text-anchor="middle" x="830.8822" y="-83.4" font-family="Times,serif" font-size="14.00" fill="#000000">Analog to Digital Conversion</text>
</g>
<g id="clust4" class="cluster">
<title>cluster_3</title>
<polygon fill="none" stroke="#000000" points="609.8962,-8 609.8962,-109 718.8822,-109 718.8822,-8 609.8962,-8"/>
<text text-anchor="middle" x="664.3892" y="-92.4" font-family="Times,serif" font-size="14.00" fill="#000000">Filtering</text>
</g>
<g id="clust3" class="cluster">
<title>cluster_2</title>
<polygon fill="none" stroke="#000000" points="247.1158,-18 247.1158,-179 588.8962,-179 588.8962,-18 247.1158,-18"/>
<text text-anchor="middle" x="418.006" y="-162.4" font-family="Times,serif" font-size="14.00" fill="#000000">Signal Conditioning</text>
</g>
<g id="clust2" class="cluster">
<title>cluster_1</title>
<polygon fill="none" stroke="#000000" points="0,-15 0,-98 164.5134,-98 164.5134,-15 0,-15"/>
<text text-anchor="middle" x="82.2567" y="-81.4" font-family="Times,serif" font-size="14.00" fill="#000000">Temperature Sensor Array</text>
</g>
<g id="clust1" class="cluster">
<title>cluster_0</title>
<polygon fill="none" stroke="#000000" points="12.0456,-106 12.0456,-189 152.4678,-189 152.4678,-106 12.0456,-106"/>
<text text-anchor="middle" x="82.2567" y="-172.4" font-family="Times,serif" font-size="14.00" fill="#000000">Pressure Sensor Array</text>
</g>
<!-- Pressure_Sensors -->
<g id="node1" class="node">
<title>Pressure_Sensors</title>
<polygon fill="none" stroke="#000000" points="50.0456,-114.2 50.0456,-155.8 113.4678,-155.8 113.4678,-114.2 50.0456,-114.2"/>
<text text-anchor="middle" x="81.7567" y="-139.2" font-family="Times,serif" font-size="14.00" fill="#000000">Pressure</text>
<text text-anchor="middle" x="81.7567" y="-122.4" font-family="Times,serif" font-size="14.00" fill="#000000">Sensors</text>
</g>
<!-- Pressure_Amplifiers -->
<g id="node3" class="node">
<title>Pressure_Amplifiers</title>
<polygon fill="none" stroke="#000000" points="262.1081,-104.2 262.1081,-145.8 338.7575,-145.8 338.7575,-104.2 262.1081,-104.2"/>
<text text-anchor="middle" x="300.4328" y="-129.2" font-family="Times,serif" font-size="14.00" fill="#000000">Amplifiers</text>
<text text-anchor="middle" x="300.4328" y="-112.4" font-family="Times,serif" font-size="14.00" fill="#000000">(x8)</text>
</g>
<!-- Pressure_Sensors&#45;&gt;Pressure_Amplifiers -->
<g id="edge1" class="edge">
<title>Pressure_Sensors&#45;&gt;Pressure_Amplifiers</title>
<path fill="none" stroke="#000000" d="M113.5541,-133.5459C149.8857,-131.8845 209.7511,-129.1468 251.9169,-127.2186"/>
<polygon fill="#000000" stroke="#000000" points="252.1332,-130.7125 261.9628,-126.7592 251.8134,-123.7198 252.1332,-130.7125"/>
<text text-anchor="middle" x="205.8146" y="-134.2" font-family="Times,serif" font-size="14.00" fill="#000000"> 1 mV max</text>
</g>
<!-- Temperature_Sensors -->
<g id="node2" class="node">
<title>Temperature_Sensors</title>
<polygon fill="none" stroke="#000000" points="38,-23.2 38,-64.8 125.5134,-64.8 125.5134,-23.2 38,-23.2"/>
<text text-anchor="middle" x="81.7567" y="-48.2" font-family="Times,serif" font-size="14.00" fill="#000000">Temperature</text>
<text text-anchor="middle" x="81.7567" y="-31.4" font-family="Times,serif" font-size="14.00" fill="#000000">Sensors</text>
</g>
<!-- Temperature_Linearization -->
<g id="node4" class="node">
<title>Temperature_Linearization</title>
<polygon fill="none" stroke="#000000" points="255.1158,-26.8 255.1158,-85.2 345.7498,-85.2 345.7498,-26.8 255.1158,-26.8"/>
<text text-anchor="middle" x="300.4328" y="-68.6" font-family="Times,serif" font-size="14.00" fill="#000000">Linearization</text>
<text text-anchor="middle" x="300.4328" y="-51.8" font-family="Times,serif" font-size="14.00" fill="#000000">Circuits</text>
<text text-anchor="middle" x="300.4328" y="-35" font-family="Times,serif" font-size="14.00" fill="#000000">(x8)</text>
</g>
<!-- Temperature_Sensors&#45;&gt;Temperature_Linearization -->
<g id="edge2" class="edge">
<title>Temperature_Sensors&#45;&gt;Temperature_Linearization</title>
<path fill="none" stroke="#000000" d="M125.746,-46.4139C160.0608,-48.297 207.9396,-50.9244 244.8958,-52.9524"/>
<polygon fill="#000000" stroke="#000000" points="244.8326,-56.4541 255.0094,-53.5074 245.2162,-49.4646 244.8326,-56.4541"/>
</g>
<!-- Anti_Aliasing_Filters -->
<g id="node6" class="node">
<title>Anti_Aliasing_Filters</title>
<polygon fill="none" stroke="#000000" points="617.8962,-16.8 617.8962,-75.2 710.8822,-75.2 710.8822,-16.8 617.8962,-16.8"/>
<text text-anchor="middle" x="664.3892" y="-58.6" font-family="Times,serif" font-size="14.00" fill="#000000">Anti&#45;Aliasing</text>
<text text-anchor="middle" x="664.3892" y="-41.8" font-family="Times,serif" font-size="14.00" fill="#000000">Filters</text>
<text text-anchor="middle" x="664.3892" y="-25" font-family="Times,serif" font-size="14.00" fill="#000000">(x16)</text>
</g>
<!-- Pressure_Amplifiers&#45;&gt;Anti_Aliasing_Filters -->
<g id="edge4" class="edge">
<title>Pressure_Amplifiers&#45;&gt;Anti_Aliasing_Filters</title>
<path fill="none" stroke="#000000" d="M334.2933,-103.9647C338.2667,-101.0975 342.1743,-98.0776 345.7498,-95 364.3528,-78.9875 361.2081,-65.7653 382.7498,-54 452.754,-15.7663 547.8486,-22.9947 607.6659,-33.2815"/>
<polygon fill="#000000" stroke="#000000" points="607.2189,-36.7573 617.6816,-35.0893 608.4623,-29.8686 607.2189,-36.7573"/>
</g>
<!-- Temperature_Amplifiers -->
<g id="node5" class="node">
<title>Temperature_Amplifiers</title>
<polygon fill="none" stroke="#000000" points="504.2468,-43.2 504.2468,-84.8 580.8962,-84.8 580.8962,-43.2 504.2468,-43.2"/>
<text text-anchor="middle" x="542.5715" y="-68.2" font-family="Times,serif" font-size="14.00" fill="#000000">Amplifiers</text>
<text text-anchor="middle" x="542.5715" y="-51.4" font-family="Times,serif" font-size="14.00" fill="#000000">(x8)</text>
</g>
<!-- Temperature_Linearization&#45;&gt;Temperature_Amplifiers -->
<g id="edge3" class="edge">
<title>Temperature_Linearization&#45;&gt;Temperature_Amplifiers</title>
<path fill="none" stroke="#000000" d="M345.9772,-57.5047C388.1218,-58.8971 450.5957,-60.9612 493.7542,-62.3871"/>
<polygon fill="#000000" stroke="#000000" points="493.9035,-65.8939 504.0136,-62.7261 494.1347,-58.8977 493.9035,-65.8939"/>
<text text-anchor="middle" x="424.9983" y="-65.2" font-family="Times,serif" font-size="14.00" fill="#000000"> &lt;100 mV max</text>
</g>
<!-- Temperature_Amplifiers&#45;&gt;Anti_Aliasing_Filters -->
<g id="edge5" class="edge">
<title>Temperature_Amplifiers&#45;&gt;Anti_Aliasing_Filters</title>
<path fill="none" stroke="#000000" d="M581.1154,-58.3047C589.5224,-57.0624 598.5896,-55.7227 607.5394,-54.4002"/>
<polygon fill="#000000" stroke="#000000" points="608.1717,-57.8449 617.5526,-52.9207 607.1484,-50.9201 608.1717,-57.8449"/>
</g>
<!-- ADCs -->
<g id="node7" class="node">
<title>ADCs</title>
<polygon fill="none" stroke="#000000" points="803.8822,-25.2 803.8822,-66.8 857.8822,-66.8 857.8822,-25.2 803.8822,-25.2"/>
<text text-anchor="middle" x="830.8822" y="-50.2" font-family="Times,serif" font-size="14.00" fill="#000000">ADCs</text>
<text text-anchor="middle" x="830.8822" y="-33.4" font-family="Times,serif" font-size="14.00" fill="#000000">(x16)</text>
</g>
<!-- Anti_Aliasing_Filters&#45;&gt;ADCs -->
<g id="edge6" class="edge">
<title>Anti_Aliasing_Filters&#45;&gt;ADCs</title>
<path fill="none" stroke="#000000" d="M711.2099,-46C737.1824,-46 769.0475,-46 793.3647,-46"/>
<polygon fill="#000000" stroke="#000000" points="793.6208,-49.5001 803.6208,-46 793.6208,-42.5001 793.6208,-49.5001"/>
</g>
<!-- Multiplexer -->
<g id="node8" class="node">
<title>Multiplexer</title>
<polygon fill="none" stroke="#000000" points="958.8822,-28 958.8822,-64 1040.979,-64 1040.979,-28 958.8822,-28"/>
<text text-anchor="middle" x="999.9306" y="-41.9" font-family="Times,serif" font-size="14.00" fill="#000000">Multiplexer</text>
</g>
<!-- ADCs&#45;&gt;Multiplexer -->
<g id="edge7" class="edge">
<title>ADCs&#45;&gt;Multiplexer</title>
<path fill="none" stroke="#000000" d="M858.0428,-46C882.3379,-46 918.605,-46 948.3907,-46"/>
<polygon fill="#000000" stroke="#000000" points="948.6257,-49.5001 958.6257,-46 948.6257,-42.5001 948.6257,-49.5001"/>
</g>
</g>
</svg>
