<?xml version="1.0" encoding="UTF-8" standalone="no"?>
<!DOCTYPE svg PUBLIC "-//W3C//DTD SVG 1.1//EN"
 "http://www.w3.org/Graphics/SVG/1.1/DTD/svg11.dtd">
<!-- Generated by graphviz version 2.40.1 (20161225.0304)
 -->
<!-- Title: G Pages: 1 -->
<svg width="704pt" height="114pt"
 viewBox="0.00 0.00 703.71 114.00" xmlns="http://www.w3.org/2000/svg" xmlns:xlink="http://www.w3.org/1999/xlink">
<g id="graph0" class="graph" transform="scale(1 1) rotate(0) translate(4 110)">
<title>G</title>
<polygon fill="#ffffff" stroke="transparent" points="-4,4 -4,-110 699.7084,-110 699.7084,4 -4,4"/>
<g id="clust1" class="cluster">
<title>cluster_0</title>
<polygon fill="#d3d3d3" stroke="#d3d3d3" points="212.54,-46 212.54,-98 436.8851,-98 436.8851,-46 212.54,-46"/>
</g>
<!-- Potentiometer -->
<g id="node1" class="node">
<title>Potentiometer</title>
<polygon fill="none" stroke="#000000" points="94.3111,-90 .2289,-90 .2289,-54 94.3111,-54 94.3111,-90"/>
<text text-anchor="middle" x="47.27" y="-67.8" font-family="Times,serif" font-size="14.00" fill="#000000">Potentiometer</text>
</g>
<!-- Buffer -->
<g id="node2" class="node">
<title>Buffer</title>
<polygon fill="none" stroke="#000000" points="184.54,-90 130.54,-90 130.54,-54 184.54,-54 184.54,-90"/>
<text text-anchor="middle" x="157.54" y="-67.8" font-family="Times,serif" font-size="14.00" fill="#000000">Buffer</text>
</g>
<!-- Potentiometer&#45;&gt;Buffer -->
<g id="edge1" class="edge">
<title>Potentiometer&#45;&gt;Buffer</title>
<path fill="none" stroke="#000000" d="M94.3543,-72C102.9976,-72 111.9108,-72 120.2193,-72"/>
<polygon fill="#000000" stroke="#000000" points="120.3541,-75.5001 130.3541,-72 120.3541,-68.5001 120.3541,-75.5001"/>
</g>
<!-- Level_Shifter -->
<g id="node3" class="node">
<title>Level_Shifter</title>
<polygon fill="none" stroke="#000000" points="313.498,-90 220.554,-90 220.554,-54 313.498,-54 313.498,-90"/>
<text text-anchor="middle" x="267.026" y="-67.8" font-family="Times,serif" font-size="14.00" fill="#000000">Level_Shifter</text>
</g>
<!-- Buffer&#45;&gt;Level_Shifter -->
<g id="edge2" class="edge">
<title>Buffer&#45;&gt;Level_Shifter</title>
<path fill="none" stroke="#000000" d="M184.604,-72C192.4255,-72 201.27,-72 210.1887,-72"/>
<polygon fill="#000000" stroke="#000000" points="210.2393,-75.5001 220.2393,-72 210.2392,-68.5001 210.2393,-75.5001"/>
</g>
<!-- Notch_Filter -->
<g id="node4" class="node">
<title>Notch_Filter</title>
<polygon fill="none" stroke="#000000" points="436.8253,-36 349.7401,-36 349.7401,0 436.8253,0 436.8253,-36"/>
<text text-anchor="middle" x="393.2827" y="-13.8" font-family="Times,serif" font-size="14.00" fill="#000000">Notch_Filter</text>
</g>
<!-- Level_Shifter&#45;&gt;Notch_Filter -->
<g id="edge3" class="edge">
<title>Level_Shifter&#45;&gt;Notch_Filter</title>
<path fill="none" stroke="#000000" d="M309.4189,-53.8686C319.7248,-49.4607 330.86,-44.6982 341.545,-40.1282"/>
<polygon fill="#000000" stroke="#000000" points="342.9688,-43.326 350.7868,-36.1755 340.2161,-36.89 342.9688,-43.326"/>
</g>
<!-- Amplifier -->
<g id="node7" class="node">
<title>Amplifier</title>
<polygon fill="#ffffff" stroke="#ffffff" points="428.9878,-90 357.5776,-90 357.5776,-54 428.9878,-54 428.9878,-90"/>
<text text-anchor="middle" x="393.2827" y="-67.8" font-family="Times,serif" font-size="14.00" fill="#000000">Amplifier</text>
</g>
<!-- Level_Shifter&#45;&gt;Amplifier -->
<g id="edge6" class="edge">
<title>Level_Shifter&#45;&gt;Amplifier</title>
<path fill="none" stroke="#000000" d="M313.6806,-72C324.6466,-72 336.3257,-72 347.2636,-72"/>
<polygon fill="#000000" stroke="#000000" points="347.4759,-75.5001 357.4759,-72 347.4759,-68.5001 347.4759,-75.5001"/>
</g>
<!-- Anti_Aliasing_Filter -->
<g id="node5" class="node">
<title>Anti_Aliasing_Filter</title>
<polygon fill="none" stroke="#000000" points="605.5363,-36 473.2255,-36 473.2255,0 605.5363,0 605.5363,-36"/>
<text text-anchor="middle" x="539.3809" y="-13.8" font-family="Times,serif" font-size="14.00" fill="#000000">Anti_Aliasing_Filter</text>
</g>
<!-- Notch_Filter&#45;&gt;Anti_Aliasing_Filter -->
<g id="edge4" class="edge">
<title>Notch_Filter&#45;&gt;Anti_Aliasing_Filter</title>
<path fill="none" stroke="#000000" d="M437.117,-18C445.3612,-18 454.1998,-18 463.1025,-18"/>
<polygon fill="#000000" stroke="#000000" points="463.153,-21.5001 473.1529,-18 463.1529,-14.5001 463.153,-21.5001"/>
</g>
<!-- DAQ -->
<g id="node6" class="node">
<title>DAQ</title>
<polygon fill="none" stroke="#000000" points="695.7084,-36 641.7084,-36 641.7084,0 695.7084,0 695.7084,-36"/>
<text text-anchor="middle" x="668.7084" y="-13.8" font-family="Times,serif" font-size="14.00" fill="#000000">DAQ</text>
</g>
<!-- Anti_Aliasing_Filter&#45;&gt;DAQ -->
<g id="edge5" class="edge">
<title>Anti_Aliasing_Filter&#45;&gt;DAQ</title>
<path fill="none" stroke="#000000" d="M605.5601,-18C614.3752,-18 623.1526,-18 631.2368,-18"/>
<polygon fill="#000000" stroke="#000000" points="631.4098,-21.5001 641.4098,-18 631.4098,-14.5001 631.4098,-21.5001"/>
</g>
</g>
</svg>
