<?xml version="1.0" encoding="UTF-8" standalone="no"?>
<!DOCTYPE svg PUBLIC "-//W3C//DTD SVG 1.1//EN"
 "http://www.w3.org/Graphics/SVG/1.1/DTD/svg11.dtd">
<!-- Generated by graphviz version 2.40.1 (20161225.0304)
 -->
<!-- Title: G Pages: 1 -->
<svg width="1317pt" height="50pt"
 viewBox="0.00 0.00 1316.85 49.60" xmlns="http://www.w3.org/2000/svg" xmlns:xlink="http://www.w3.org/1999/xlink">
<g id="graph0" class="graph" transform="scale(1 1) rotate(0) translate(4 45.6)">
<title>G</title>
<polygon fill="#ffffff" stroke="transparent" points="-4,4 -4,-45.6 1312.8484,-45.6 1312.8484,4 -4,4"/>
<!-- Sensor -->
<g id="node1" class="node">
<title>Sensor</title>
<polygon fill="none" stroke="#000000" points="174.2707,-38.8 -.0903,-38.8 -.0903,-2.8 174.2707,-2.8 174.2707,-38.8"/>
<text text-anchor="middle" x="87.0902" y="-16.6" font-family="Times,serif" font-size="14.00" fill="#000000">Piezoelectric Accelerometer</text>
</g>
<!-- ChargeAmp -->
<g id="node2" class="node">
<title>ChargeAmp</title>
<polygon fill="none" stroke="#000000" points="325.3773,-38.8 210.1147,-38.8 210.1147,-2.8 325.3773,-2.8 325.3773,-38.8"/>
<text text-anchor="middle" x="267.746" y="-16.6" font-family="Times,serif" font-size="14.00" fill="#000000">Charge Amplifier</text>
</g>
<!-- Sensor&#45;&gt;ChargeAmp -->
<g id="edge1" class="edge">
<title>Sensor&#45;&gt;ChargeAmp</title>
<path fill="none" stroke="#000000" d="M174.2431,-20.8C182.9029,-20.8 191.6017,-20.8 200.0206,-20.8"/>
<polygon fill="#000000" stroke="#000000" points="200.1295,-24.3001 210.1295,-20.8 200.1294,-17.3001 200.1295,-24.3001"/>
</g>
<!-- Filter -->
<g id="node3" class="node">
<title>Filter</title>
<polygon fill="none" stroke="#000000" points="466.3653,-38.8 361.2937,-38.8 361.2937,-2.8 466.3653,-2.8 466.3653,-38.8"/>
<text text-anchor="middle" x="413.8295" y="-16.6" font-family="Times,serif" font-size="14.00" fill="#000000">Low&#45;Pass Filter</text>
</g>
<!-- ChargeAmp&#45;&gt;Filter -->
<g id="edge2" class="edge">
<title>ChargeAmp&#45;&gt;Filter</title>
<path fill="none" stroke="#000000" d="M325.4821,-20.8C333.8734,-20.8 342.547,-20.8 351.0324,-20.8"/>
<polygon fill="#000000" stroke="#000000" points="351.2577,-24.3001 361.2577,-20.8 351.2577,-17.3001 351.2577,-24.3001"/>
</g>
<!-- OutputAmp -->
<g id="node4" class="node">
<title>OutputAmp</title>
<polygon fill="none" stroke="#000000" points="615.737,-38.8 502.5504,-38.8 502.5504,-2.8 615.737,-2.8 615.737,-38.8"/>
<text text-anchor="middle" x="559.1437" y="-16.6" font-family="Times,serif" font-size="14.00" fill="#000000">Output Amplifier</text>
</g>
<!-- Filter&#45;&gt;OutputAmp -->
<g id="edge3" class="edge">
<title>Filter&#45;&gt;OutputAmp</title>
<path fill="none" stroke="#000000" d="M466.7023,-20.8C474.8947,-20.8 483.4503,-20.8 491.9075,-20.8"/>
<polygon fill="#000000" stroke="#000000" points="492.1434,-24.3001 502.1434,-20.8 492.1434,-17.3001 492.1434,-24.3001"/>
</g>
<!-- ADC -->
<g id="node5" class="node">
<title>ADC</title>
<polygon fill="none" stroke="#000000" points="889.3388,-38.8 652.1402,-38.8 652.1402,-2.8 889.3388,-2.8 889.3388,-38.8"/>
<text text-anchor="middle" x="770.7395" y="-16.6" font-family="Times,serif" font-size="14.00" fill="#000000">Analog&#45;to&#45;Digital Converter (Optional)</text>
</g>
<!-- OutputAmp&#45;&gt;ADC -->
<g id="edge4" class="edge">
<title>OutputAmp&#45;&gt;ADC</title>
<path fill="none" stroke="#000000" d="M615.8475,-20.8C624.0303,-20.8 632.7165,-20.8 641.6352,-20.8"/>
<polygon fill="#000000" stroke="#000000" points="641.7892,-24.3001 651.7892,-20.8 641.7891,-17.3001 641.7892,-24.3001"/>
</g>
<!-- AntiAliasFilter -->
<g id="node6" class="node">
<title>AntiAliasFilter</title>
<polygon fill="none" stroke="#000000" points="1148.8874,-38.8 925.4228,-38.8 925.4228,-2.8 1148.8874,-2.8 1148.8874,-38.8"/>
<text text-anchor="middle" x="1037.1551" y="-16.6" font-family="Times,serif" font-size="14.00" fill="#000000">Anti&#45;Aliasing Filter (if ADC is used)</text>
</g>
<!-- ADC&#45;&gt;AntiAliasFilter -->
<g id="edge5" class="edge">
<title>ADC&#45;&gt;AntiAliasFilter</title>
<path fill="none" stroke="#000000" d="M889.5329,-20.8C898.1099,-20.8 906.7675,-20.8 915.3613,-20.8"/>
<polygon fill="#000000" stroke="#000000" points="915.4118,-24.3001 925.4118,-20.8 915.4117,-17.3001 915.4118,-24.3001"/>
</g>
<!-- Output -->
<g id="node7" class="node">
<title>Output</title>
<polygon fill="none" stroke="#000000" points="1308.887,-41.4019 1184.7326,-41.4019 1184.7326,-.1981 1308.887,-.1981 1308.887,-41.4019"/>
<text text-anchor="middle" x="1246.8098" y="-25" font-family="Times,serif" font-size="14.00" fill="#000000">Output Stage</text>
<text text-anchor="middle" x="1246.8098" y="-8.2" font-family="Times,serif" font-size="14.00" fill="#000000">(Analog or Digital)</text>
</g>
<!-- AntiAliasFilter&#45;&gt;Output -->
<g id="edge6" class="edge">
<title>AntiAliasFilter&#45;&gt;Output</title>
<path fill="none" stroke="#000000" d="M1149.0413,-20.8C1157.6171,-20.8 1166.1297,-20.8 1174.3481,-20.8"/>
<polygon fill="#000000" stroke="#000000" points="1174.5832,-24.3001 1184.5832,-20.8 1174.5831,-17.3001 1174.5832,-24.3001"/>
</g>
</g>
</svg>
