<?xml version="1.0" encoding="UTF-8" standalone="no"?>
<!DOCTYPE svg PUBLIC "-//W3C//DTD SVG 1.1//EN"
 "http://www.w3.org/Graphics/SVG/1.1/DTD/svg11.dtd">
<!-- Generated by graphviz version 2.40.1 (20161225.0304)
 -->
<!-- Title: G Pages: 1 -->
<svg width="680pt" height="101pt"
 viewBox="0.00 0.00 680.38 101.00" xmlns="http://www.w3.org/2000/svg" xmlns:xlink="http://www.w3.org/1999/xlink">
<g id="graph0" class="graph" transform="scale(1 1) rotate(0) translate(4 97)">
<title>G</title>
<polygon fill="#ffffff" stroke="transparent" points="-4,4 -4,-97 676.3844,-97 676.3844,4 -4,4"/>
<g id="clust1" class="cluster">
<title>cluster_0</title>
<polygon fill="#d3d3d3" stroke="#d3d3d3" points="122.54,-8 122.54,-85 590.3844,-85 590.3844,-8 122.54,-8"/>
<text text-anchor="middle" x="356.4622" y="-68.4" font-family="Times,serif" font-size="14.00" fill="#000000">Signal Conditioning</text>
</g>
<!-- Potentiometer -->
<g id="node1" class="node">
<title>Potentiometer</title>
<polygon fill="none" stroke="#000000" points="94.3111,-52 .2289,-52 .2289,-16 94.3111,-16 94.3111,-52"/>
<text text-anchor="middle" x="47.27" y="-29.8" font-family="Times,serif" font-size="14.00" fill="#000000">Potentiometer</text>
</g>
<!-- Buffer -->
<g id="node2" class="node">
<title>Buffer</title>
<polygon fill="none" stroke="#000000" points="184.54,-52 130.54,-52 130.54,-16 184.54,-16 184.54,-52"/>
<text text-anchor="middle" x="157.54" y="-29.8" font-family="Times,serif" font-size="14.00" fill="#000000">Buffer</text>
</g>
<!-- Potentiometer&#45;&gt;Buffer -->
<g id="edge1" class="edge">
<title>Potentiometer&#45;&gt;Buffer</title>
<path fill="none" stroke="#000000" d="M94.3543,-34C102.9976,-34 111.9108,-34 120.2193,-34"/>
<polygon fill="#000000" stroke="#000000" points="120.3541,-37.5001 130.3541,-34 120.3541,-30.5001 120.3541,-37.5001"/>
</g>
<!-- LowPassFilter -->
<g id="node3" class="node">
<title>LowPassFilter</title>
<polygon fill="none" stroke="#000000" points="317.3529,-52 220.6023,-52 220.6023,-16 317.3529,-16 317.3529,-52"/>
<text text-anchor="middle" x="268.9776" y="-29.8" font-family="Times,serif" font-size="14.00" fill="#000000">LowPassFilter</text>
</g>
<!-- Buffer&#45;&gt;LowPassFilter -->
<g id="edge2" class="edge">
<title>Buffer&#45;&gt;LowPassFilter</title>
<path fill="none" stroke="#000000" d="M184.8007,-28.1029C192.5722,-27.5922 201.3534,-27.3108 210.2373,-27.2588"/>
<polygon fill="#000000" stroke="#000000" points="210.2493,-30.7588 220.2628,-27.2976 210.2765,-23.7589 210.2493,-30.7588"/>
</g>
<!-- Buffer&#45;&gt;LowPassFilter -->
<g id="edge6" class="edge">
<title>Buffer&#45;&gt;LowPassFilter</title>
<path fill="none" stroke="#000000" d="M184.8007,-39.8971C192.5722,-40.4078 201.3534,-40.6892 210.2373,-40.7412"/>
<polygon fill="#000000" stroke="#000000" points="210.2765,-44.2411 220.2628,-40.7024 210.2493,-37.2412 210.2765,-44.2411"/>
</g>
<!-- GainStage -->
<g id="node4" class="node">
<title>GainStage</title>
<polygon fill="none" stroke="#000000" points="427.8872,-52 353.2574,-52 353.2574,-16 427.8872,-16 427.8872,-52"/>
<text text-anchor="middle" x="390.5723" y="-29.8" font-family="Times,serif" font-size="14.00" fill="#000000">GainStage</text>
</g>
<!-- LowPassFilter&#45;&gt;GainStage -->
<g id="edge3" class="edge">
<title>LowPassFilter&#45;&gt;GainStage</title>
<path fill="none" stroke="#000000" d="M317.3844,-27.3762C325.8596,-27.2014 334.6702,-27.2082 343.1191,-27.3966"/>
<polygon fill="#000000" stroke="#000000" points="343.0927,-30.8975 353.1988,-27.7166 343.3149,-23.901 343.0927,-30.8975"/>
</g>
<!-- LowPassFilter&#45;&gt;GainStage -->
<g id="edge7" class="edge">
<title>LowPassFilter&#45;&gt;GainStage</title>
<path fill="none" stroke="#000000" d="M317.3844,-40.6238C325.8596,-40.7986 334.6702,-40.7918 343.1191,-40.6034"/>
<polygon fill="#000000" stroke="#000000" points="343.3149,-44.099 353.1988,-40.2834 343.0927,-37.1025 343.3149,-44.099"/>
</g>
<!-- AntiAliasingFilter -->
<g id="node5" class="node">
<title>AntiAliasingFilter</title>
<polygon fill="none" stroke="#000000" points="582.2124,-52 463.9014,-52 463.9014,-16 582.2124,-16 582.2124,-52"/>
<text text-anchor="middle" x="523.0569" y="-29.8" font-family="Times,serif" font-size="14.00" fill="#000000">AntiAliasingFilter</text>
</g>
<!-- GainStage&#45;&gt;AntiAliasingFilter -->
<g id="edge4" class="edge">
<title>GainStage&#45;&gt;AntiAliasingFilter</title>
<path fill="none" stroke="#000000" d="M427.8292,-27.8607C435.9478,-27.4959 444.79,-27.2945 453.7075,-27.2566"/>
<polygon fill="#000000" stroke="#000000" points="453.7637,-30.7567 463.773,-27.2832 453.7823,-23.7567 453.7637,-30.7567"/>
</g>
<!-- GainStage&#45;&gt;AntiAliasingFilter -->
<g id="edge8" class="edge">
<title>GainStage&#45;&gt;AntiAliasingFilter</title>
<path fill="none" stroke="#000000" d="M427.8292,-40.1393C435.9478,-40.5041 444.79,-40.7055 453.7075,-40.7434"/>
<polygon fill="#000000" stroke="#000000" points="453.7823,-44.2433 463.773,-40.7168 453.7637,-37.2433 453.7823,-44.2433"/>
</g>
<!-- DAQ -->
<g id="node6" class="node">
<title>DAQ</title>
<polygon fill="none" stroke="#000000" points="672.3844,-52 618.3844,-52 618.3844,-16 672.3844,-16 672.3844,-52"/>
<text text-anchor="middle" x="645.3844" y="-29.8" font-family="Times,serif" font-size="14.00" fill="#000000">DAQ</text>
</g>
<!-- AntiAliasingFilter&#45;&gt;DAQ -->
<g id="edge5" class="edge">
<title>AntiAliasingFilter&#45;&gt;DAQ</title>
<path fill="none" stroke="#000000" d="M582.429,-34C591.1482,-34 599.9159,-34 608.0227,-34"/>
<polygon fill="#000000" stroke="#000000" points="608.2396,-37.5001 618.2395,-34 608.2395,-30.5001 608.2396,-37.5001"/>
</g>
</g>
</svg>
