<?xml version="1.0" encoding="UTF-8" standalone="no"?>
<!DOCTYPE svg PUBLIC "-//W3C//DTD SVG 1.1//EN"
 "http://www.w3.org/Graphics/SVG/1.1/DTD/svg11.dtd">
<!-- Generated by graphviz version 2.40.1 (20161225.0304)
 -->
<!-- Title: G Pages: 1 -->
<svg width="728pt" height="67pt"
 viewBox="0.00 0.00 727.50 66.83" xmlns="http://www.w3.org/2000/svg" xmlns:xlink="http://www.w3.org/1999/xlink">
<g id="graph0" class="graph" transform="scale(1 1) rotate(0) translate(4 62.8313)">
<title>G</title>
<polygon fill="#ffffff" stroke="transparent" points="-4,4 -4,-62.8313 723.5006,-62.8313 723.5006,4 -4,4"/>
<!-- Potentiometer -->
<g id="node1" class="node">
<title>Potentiometer</title>
<ellipse fill="none" stroke="#000000" cx="66.8499" cy="-29.4156" rx="66.7001" ry="29.3315"/>
<text text-anchor="middle" x="66.8499" y="-33.6156" font-family="Times,serif" font-size="14.00" fill="#000000">Potentiometer</text>
<text text-anchor="middle" x="66.8499" y="-16.8156" font-family="Times,serif" font-size="14.00" fill="#000000">(linear)</text>
</g>
<!-- Buffer -->
<g id="node2" class="node">
<title>Buffer</title>
<polygon fill="none" stroke="#000000" points="257.581,-50.0175 169.7393,-50.0175 169.7393,-8.8137 257.581,-8.8137 257.581,-50.0175"/>
<text text-anchor="middle" x="213.6602" y="-33.6156" font-family="Times,serif" font-size="14.00" fill="#000000">Buffer</text>
<text text-anchor="middle" x="213.6602" y="-16.8156" font-family="Times,serif" font-size="14.00" fill="#000000">(Unity Gain)</text>
</g>
<!-- Potentiometer&#45;&gt;Buffer -->
<g id="edge1" class="edge">
<title>Potentiometer&#45;&gt;Buffer</title>
<path fill="none" stroke="#000000" d="M133.8108,-29.4156C142.3185,-29.4156 150.9426,-29.4156 159.2212,-29.4156"/>
<polygon fill="#000000" stroke="#000000" points="159.4879,-32.9157 169.4878,-29.4156 159.4878,-25.9157 159.4879,-32.9157"/>
</g>
<!-- Attenuator -->
<g id="node3" class="node">
<title>Attenuator</title>
<polygon fill="none" stroke="#000000" points="409.4724,-50.0175 293.6699,-50.0175 293.6699,-8.8137 409.4724,-8.8137 409.4724,-50.0175"/>
<text text-anchor="middle" x="351.5712" y="-33.6156" font-family="Times,serif" font-size="14.00" fill="#000000">Attenuator</text>
<text text-anchor="middle" x="351.5712" y="-16.8156" font-family="Times,serif" font-size="14.00" fill="#000000">(Voltage Divider)</text>
</g>
<!-- Buffer&#45;&gt;Attenuator -->
<g id="edge2" class="edge">
<title>Buffer&#45;&gt;Attenuator</title>
<path fill="none" stroke="#000000" d="M257.6752,-29.4156C265.8341,-29.4156 274.5313,-29.4156 283.2158,-29.4156"/>
<polygon fill="#000000" stroke="#000000" points="283.3718,-32.9157 293.3718,-29.4156 283.3718,-25.9157 283.3718,-32.9157"/>
</g>
<!-- LowPassFilter -->
<g id="node4" class="node">
<title>LowPassFilter</title>
<polygon fill="none" stroke="#000000" points="560.1392,-50.0175 445.6491,-50.0175 445.6491,-8.8137 560.1392,-8.8137 560.1392,-50.0175"/>
<text text-anchor="middle" x="502.8942" y="-33.6156" font-family="Times,serif" font-size="14.00" fill="#000000">Low&#45;Pass Filter</text>
<text text-anchor="middle" x="502.8942" y="-16.8156" font-family="Times,serif" font-size="14.00" fill="#000000">(50/60 Hz Notch)</text>
</g>
<!-- Attenuator&#45;&gt;LowPassFilter -->
<g id="edge3" class="edge">
<title>Attenuator&#45;&gt;LowPassFilter</title>
<path fill="none" stroke="#000000" d="M409.6438,-29.4156C417.9395,-29.4156 426.5338,-29.4156 434.9971,-29.4156"/>
<polygon fill="#000000" stroke="#000000" points="435.2268,-32.9157 445.2267,-29.4156 435.2267,-25.9157 435.2268,-32.9157"/>
</g>
<!-- DAQ -->
<g id="node5" class="node">
<title>DAQ</title>
<ellipse fill="none" stroke="#000000" cx="657.8836" cy="-29.4156" rx="61.7342" ry="29.3315"/>
<text text-anchor="middle" x="657.8836" y="-33.6156" font-family="Times,serif" font-size="14.00" fill="#000000">DAQ</text>
<text text-anchor="middle" x="657.8836" y="-16.8156" font-family="Times,serif" font-size="14.00" fill="#000000">(Input ±7V)</text>
</g>
<!-- LowPassFilter&#45;&gt;DAQ -->
<g id="edge4" class="edge">
<title>LowPassFilter&#45;&gt;DAQ</title>
<path fill="none" stroke="#000000" d="M560.1661,-29.4156C568.5953,-29.4156 577.3677,-29.4156 586.045,-29.4156"/>
<polygon fill="#000000" stroke="#000000" points="586.1614,-32.9157 596.1614,-29.4156 586.1614,-25.9157 586.1614,-32.9157"/>
</g>
</g>
</svg>
