<?xml version="1.0" encoding="UTF-8" standalone="no"?>
<!DOCTYPE svg PUBLIC "-//W3C//DTD SVG 1.1//EN"
 "http://www.w3.org/Graphics/SVG/1.1/DTD/svg11.dtd">
<!-- Generated by graphviz version 2.40.1 (20161225.0304)
 -->
<!-- Title: G Pages: 1 -->
<svg width="824pt" height="44pt"
 viewBox="0.00 0.00 824.39 44.00" xmlns="http://www.w3.org/2000/svg" xmlns:xlink="http://www.w3.org/1999/xlink">
<g id="graph0" class="graph" transform="scale(1 1) rotate(0) translate(4 40)">
<title>G</title>
<polygon fill="#ffffff" stroke="transparent" points="-4,4 -4,-40 820.3916,-40 820.3916,4 -4,4"/>
<!-- Thermistor -->
<g id="node1" class="node">
<title>Thermistor</title>
<polygon fill="none" stroke="#000000" points="109.5513,-36 .1493,-36 .1493,0 109.5513,0 109.5513,-36"/>
<text text-anchor="middle" x="54.8503" y="-13.8" font-family="Times,serif" font-size="14.00" fill="#000000">NTC Thermistor</text>
</g>
<!-- Linearization -->
<g id="node2" class="node">
<title>Linearization</title>
<polygon fill="none" stroke="#000000" points="288.8701,-36 145.6441,-36 145.6441,0 288.8701,0 288.8701,-36"/>
<text text-anchor="middle" x="217.2571" y="-13.8" font-family="Times,serif" font-size="14.00" fill="#000000">Linearization Network</text>
</g>
<!-- Thermistor&#45;&gt;Linearization -->
<g id="edge1" class="edge">
<title>Thermistor&#45;&gt;Linearization</title>
<path fill="none" stroke="#000000" d="M109.8338,-18C118.1015,-18 126.7753,-18 135.4583,-18"/>
<polygon fill="#000000" stroke="#000000" points="135.6317,-21.5001 145.6316,-18 135.6316,-14.5001 135.6317,-21.5001"/>
</g>
<!-- Buffer -->
<g id="node3" class="node">
<title>Buffer</title>
<polygon fill="none" stroke="#000000" points="436.1706,-36 324.6944,-36 324.6944,0 436.1706,0 436.1706,-36"/>
<text text-anchor="middle" x="380.4325" y="-13.8" font-family="Times,serif" font-size="14.00" fill="#000000">Buffer Amplifier</text>
</g>
<!-- Linearization&#45;&gt;Buffer -->
<g id="edge2" class="edge">
<title>Linearization&#45;&gt;Buffer</title>
<path fill="none" stroke="#000000" d="M288.8282,-18C297.3512,-18 306.0222,-18 314.4617,-18"/>
<polygon fill="#000000" stroke="#000000" points="314.6156,-21.5001 324.6156,-18 314.6155,-14.5001 314.6156,-21.5001"/>
</g>
<!-- GainStage -->
<g id="node4" class="node">
<title>GainStage</title>
<polygon fill="none" stroke="#000000" points="549.7729,-36 472.1441,-36 472.1441,0 549.7729,0 549.7729,-36"/>
<text text-anchor="middle" x="510.9585" y="-13.8" font-family="Times,serif" font-size="14.00" fill="#000000">Gain Stage</text>
</g>
<!-- Buffer&#45;&gt;GainStage -->
<g id="edge3" class="edge">
<title>Buffer&#45;&gt;GainStage</title>
<path fill="none" stroke="#000000" d="M436.1659,-18C444.7373,-18 453.5328,-18 461.9438,-18"/>
<polygon fill="#000000" stroke="#000000" points="461.9719,-21.5001 471.9718,-18 461.9718,-14.5001 461.9719,-21.5001"/>
</g>
<!-- LowPassFilter -->
<g id="node5" class="node">
<title>LowPassFilter</title>
<polygon fill="none" stroke="#000000" points="690.9193,-36 585.8477,-36 585.8477,0 690.9193,0 690.9193,-36"/>
<text text-anchor="middle" x="638.3835" y="-13.8" font-family="Times,serif" font-size="14.00" fill="#000000">Low&#45;Pass Filter</text>
</g>
<!-- GainStage&#45;&gt;LowPassFilter -->
<g id="edge4" class="edge">
<title>GainStage&#45;&gt;LowPassFilter</title>
<path fill="none" stroke="#000000" d="M549.8826,-18C557.9838,-18 566.7185,-18 575.4342,-18"/>
<polygon fill="#000000" stroke="#000000" points="575.6178,-21.5001 585.6178,-18 575.6178,-14.5001 575.6178,-21.5001"/>
</g>
<!-- OutputStage -->
<g id="node6" class="node">
<title>OutputStage</title>
<polygon fill="none" stroke="#000000" points="816.638,-36 726.655,-36 726.655,0 816.638,0 816.638,-36"/>
<text text-anchor="middle" x="771.6465" y="-13.8" font-family="Times,serif" font-size="14.00" fill="#000000">Output Stage</text>
</g>
<!-- LowPassFilter&#45;&gt;OutputStage -->
<g id="edge5" class="edge">
<title>LowPassFilter&#45;&gt;OutputStage</title>
<path fill="none" stroke="#000000" d="M691.0526,-18C699.4316,-18 708.1191,-18 716.5522,-18"/>
<polygon fill="#000000" stroke="#000000" points="716.6749,-21.5001 726.6749,-18 716.6749,-14.5001 716.6749,-21.5001"/>
</g>
</g>
</svg>
