<?xml version="1.0" encoding="UTF-8" standalone="no"?>
<!DOCTYPE svg PUBLIC "-//W3C//DTD SVG 1.1//EN"
 "http://www.w3.org/Graphics/SVG/1.1/DTD/svg11.dtd">
<!-- Generated by graphviz version 2.40.1 (20161225.0304)
 -->
<!-- Title: G Pages: 1 -->
<svg width="920pt" height="98pt"
 viewBox="0.00 0.00 920.01 98.00" xmlns="http://www.w3.org/2000/svg" xmlns:xlink="http://www.w3.org/1999/xlink">
<g id="graph0" class="graph" transform="scale(1 1) rotate(0) translate(4 94)">
<title>G</title>
<polygon fill="#ffffff" stroke="transparent" points="-4,4 -4,-94 916.0116,-94 916.0116,4 -4,4"/>
<!-- Pressure_Sensor_Array -->
<g id="node1" class="node">
<title>Pressure_Sensor_Array</title>
<polygon fill="none" stroke="#000000" points="160.2962,-90 11.962,-90 11.962,-54 160.2962,-54 160.2962,-90"/>
<text text-anchor="middle" x="86.1291" y="-67.8" font-family="Times,serif" font-size="14.00" fill="#000000">Pressure_Sensor_Array</text>
</g>
<!-- Amplifier_Pressure -->
<g id="node2" class="node">
<title>Amplifier_Pressure</title>
<polygon fill="none" stroke="#000000" points="418.8473,-90 293.5921,-90 293.5921,-54 418.8473,-54 418.8473,-90"/>
<text text-anchor="middle" x="356.2197" y="-67.8" font-family="Times,serif" font-size="14.00" fill="#000000">Amplifier_Pressure</text>
</g>
<!-- Pressure_Sensor_Array&#45;&gt;Amplifier_Pressure -->
<g id="edge1" class="edge">
<title>Pressure_Sensor_Array&#45;&gt;Amplifier_Pressure</title>
<path fill="none" stroke="#000000" d="M160.2898,-72C198.566,-72 245.0953,-72 283.2048,-72"/>
<polygon fill="#000000" stroke="#000000" points="283.2078,-75.5001 293.2077,-72 283.2077,-68.5001 283.2078,-75.5001"/>
<text text-anchor="middle" x="226.8094" y="-76.2" font-family="Times,serif" font-size="14.00" fill="#000000">1 mV max</text>
</g>
<!-- Filter_Pressure -->
<g id="node5" class="node">
<title>Filter_Pressure</title>
<polygon fill="none" stroke="#000000" points="580.7524,-90 480.2482,-90 480.2482,-54 580.7524,-54 580.7524,-90"/>
<text text-anchor="middle" x="530.5003" y="-67.8" font-family="Times,serif" font-size="14.00" fill="#000000">Filter_Pressure</text>
</g>
<!-- Amplifier_Pressure&#45;&gt;Filter_Pressure -->
<g id="edge3" class="edge">
<title>Amplifier_Pressure&#45;&gt;Filter_Pressure</title>
<path fill="none" stroke="#000000" d="M419.139,-72C435.7721,-72 453.6841,-72 470.1762,-72"/>
<polygon fill="#000000" stroke="#000000" points="470.2373,-75.5001 480.2373,-72 470.2373,-68.5001 470.2373,-75.5001"/>
</g>
<!-- Temperature_Sensor_Array -->
<g id="node3" class="node">
<title>Temperature_Sensor_Array</title>
<polygon fill="none" stroke="#000000" points="172.3875,-36 -.1293,-36 -.1293,0 172.3875,0 172.3875,-36"/>
<text text-anchor="middle" x="86.1291" y="-13.8" font-family="Times,serif" font-size="14.00" fill="#000000">Temperature_Sensor_Array</text>
</g>
<!-- Amplifier_Temperature -->
<g id="node4" class="node">
<title>Amplifier_Temperature</title>
<polygon fill="none" stroke="#000000" points="430.9382,-36 281.5012,-36 281.5012,0 430.9382,0 430.9382,-36"/>
<text text-anchor="middle" x="356.2197" y="-13.8" font-family="Times,serif" font-size="14.00" fill="#000000">Amplifier_Temperature</text>
</g>
<!-- Temperature_Sensor_Array&#45;&gt;Amplifier_Temperature -->
<g id="edge2" class="edge">
<title>Temperature_Sensor_Array&#45;&gt;Amplifier_Temperature</title>
<path fill="none" stroke="#000000" d="M172.33,-18C203.9525,-18 239.7046,-18 271.2209,-18"/>
<polygon fill="#000000" stroke="#000000" points="271.2941,-21.5001 281.2941,-18 271.294,-14.5001 271.2941,-21.5001"/>
<text text-anchor="middle" x="226.8094" y="-22.2" font-family="Times,serif" font-size="14.00" fill="#000000">100 mV max</text>
</g>
<!-- Filter_Temperature -->
<g id="node6" class="node">
<title>Filter_Temperature</title>
<polygon fill="none" stroke="#000000" points="592.8434,-36 468.1572,-36 468.1572,0 592.8434,0 592.8434,-36"/>
<text text-anchor="middle" x="530.5003" y="-13.8" font-family="Times,serif" font-size="14.00" fill="#000000">Filter_Temperature</text>
</g>
<!-- Amplifier_Temperature&#45;&gt;Filter_Temperature -->
<g id="edge4" class="edge">
<title>Amplifier_Temperature&#45;&gt;Filter_Temperature</title>
<path fill="none" stroke="#000000" d="M431.1418,-18C439.9611,-18 448.9507,-18 457.7396,-18"/>
<polygon fill="#000000" stroke="#000000" points="457.9426,-21.5001 467.9426,-18 457.9425,-14.5001 457.9426,-21.5001"/>
</g>
<!-- Multiplexer -->
<g id="node7" class="node">
<title>Multiplexer</title>
<polygon fill="none" stroke="#000000" points="712.0671,-62 629.8733,-62 629.8733,-26 712.0671,-26 712.0671,-62"/>
<text text-anchor="middle" x="670.9702" y="-39.8" font-family="Times,serif" font-size="14.00" fill="#000000">Multiplexer</text>
</g>
<!-- Filter_Pressure&#45;&gt;Multiplexer -->
<g id="edge5" class="edge">
<title>Filter_Pressure&#45;&gt;Multiplexer</title>
<path fill="none" stroke="#000000" d="M580.8164,-61.9704C593.4884,-59.4445 607.1035,-56.7306 619.8161,-54.1966"/>
<polygon fill="#000000" stroke="#000000" points="620.6598,-57.5974 629.7826,-52.21 619.2913,-50.7324 620.6598,-57.5974"/>
</g>
<!-- Filter_Temperature&#45;&gt;Multiplexer -->
<g id="edge6" class="edge">
<title>Filter_Temperature&#45;&gt;Multiplexer</title>
<path fill="none" stroke="#000000" d="M592.9305,-29.5554C601.8836,-31.2126 611.008,-32.9014 619.712,-34.5125"/>
<polygon fill="#000000" stroke="#000000" points="619.2312,-37.9829 629.7013,-36.3614 620.5053,-31.0998 619.2312,-37.9829"/>
</g>
<!-- ADC -->
<g id="node8" class="node">
<title>ADC</title>
<polygon fill="none" stroke="#000000" points="803.0186,-62 749.0186,-62 749.0186,-26 803.0186,-26 803.0186,-62"/>
<text text-anchor="middle" x="776.0186" y="-39.8" font-family="Times,serif" font-size="14.00" fill="#000000">ADC</text>
</g>
<!-- Multiplexer&#45;&gt;ADC -->
<g id="edge7" class="edge">
<title>Multiplexer&#45;&gt;ADC</title>
<path fill="none" stroke="#000000" d="M712.1866,-44C720.9317,-44 730.1158,-44 738.7059,-44"/>
<polygon fill="#000000" stroke="#000000" points="738.8198,-47.5001 748.8198,-44 738.8198,-40.5001 738.8198,-47.5001"/>
</g>
<!-- Computer -->
<g id="node9" class="node">
<title>Computer</title>
<polygon fill="none" stroke="#000000" points="912.0081,-62 840.0221,-62 840.0221,-26 912.0081,-26 912.0081,-62"/>
<text text-anchor="middle" x="876.0151" y="-39.8" font-family="Times,serif" font-size="14.00" fill="#000000">Computer</text>
</g>
<!-- ADC&#45;&gt;Computer -->
<g id="edge8" class="edge">
<title>ADC&#45;&gt;Computer</title>
<path fill="none" stroke="#000000" d="M803.0791,-44C811.316,-44 820.6132,-44 829.7438,-44"/>
<polygon fill="#000000" stroke="#000000" points="829.9163,-47.5001 839.9163,-44 829.9162,-40.5001 829.9163,-47.5001"/>
</g>
</g>
</svg>
