<?xml version="1.0" encoding="UTF-8" standalone="no"?>
<!DOCTYPE svg PUBLIC "-//W3C//DTD SVG 1.1//EN"
 "http://www.w3.org/Graphics/SVG/1.1/DTD/svg11.dtd">
<!-- Generated by graphviz version 2.40.1 (20161225.0304)
 -->
<!-- Title: G Pages: 1 -->
<svg width="535pt" height="44pt"
 viewBox="0.00 0.00 535.16 44.00" xmlns="http://www.w3.org/2000/svg" xmlns:xlink="http://www.w3.org/1999/xlink">
<g id="graph0" class="graph" transform="scale(1 1) rotate(0) translate(4 40)">
<title>G</title>
<polygon fill="#ffffff" stroke="transparent" points="-4,4 -4,-40 531.1572,-40 531.1572,4 -4,4"/>
<!-- Sensor -->
<g id="node1" class="node">
<title>Sensor</title>
<polygon fill="none" stroke="#000000" points="54.1537,-36 -.0513,-36 -.0513,0 54.1537,0 54.1537,-36"/>
<text text-anchor="middle" x="27.0512" y="-13.8" font-family="Times,serif" font-size="14.00" fill="#000000">Sensor</text>
</g>
<!-- Charge Amplifier -->
<g id="node2" class="node">
<title>Charge Amplifier</title>
<polygon fill="none" stroke="#000000" points="205.2993,-36 90.0367,-36 90.0367,0 205.2993,0 205.2993,-36"/>
<text text-anchor="middle" x="147.668" y="-13.8" font-family="Times,serif" font-size="14.00" fill="#000000">Charge Amplifier</text>
</g>
<!-- Sensor&#45;&gt;Charge Amplifier -->
<g id="edge1" class="edge">
<title>Sensor&#45;&gt;Charge Amplifier</title>
<path fill="none" stroke="#000000" d="M54.12,-18C61.7906,-18 70.5045,-18 79.4548,-18"/>
<polygon fill="#000000" stroke="#000000" points="79.6174,-21.5001 89.6174,-18 79.6173,-14.5001 79.6174,-21.5001"/>
</g>
<!-- Low&#45;Pass Filter -->
<g id="node3" class="node">
<title>Low&#45;Pass Filter</title>
<polygon fill="none" stroke="#000000" points="346.2873,-36 241.2157,-36 241.2157,0 346.2873,0 346.2873,-36"/>
<text text-anchor="middle" x="293.7515" y="-13.8" font-family="Times,serif" font-size="14.00" fill="#000000">Low&#45;Pass Filter</text>
</g>
<!-- Charge Amplifier&#45;&gt;Low&#45;Pass Filter -->
<g id="edge2" class="edge">
<title>Charge Amplifier&#45;&gt;Low&#45;Pass Filter</title>
<path fill="none" stroke="#000000" d="M205.4041,-18C213.7954,-18 222.469,-18 230.9544,-18"/>
<polygon fill="#000000" stroke="#000000" points="231.1797,-21.5001 241.1797,-18 231.1797,-14.5001 231.1797,-21.5001"/>
</g>
<!-- Buffer -->
<g id="node4" class="node">
<title>Buffer</title>
<polygon fill="none" stroke="#000000" points="436.2694,-36 382.2694,-36 382.2694,0 436.2694,0 436.2694,-36"/>
<text text-anchor="middle" x="409.2694" y="-13.8" font-family="Times,serif" font-size="14.00" fill="#000000">Buffer</text>
</g>
<!-- Low&#45;Pass Filter&#45;&gt;Buffer -->
<g id="edge3" class="edge">
<title>Low&#45;Pass Filter&#45;&gt;Buffer</title>
<path fill="none" stroke="#000000" d="M346.4398,-18C355.0457,-18 363.803,-18 371.9394,-18"/>
<polygon fill="#000000" stroke="#000000" points="372.213,-21.5001 382.2129,-18 372.2129,-14.5001 372.213,-21.5001"/>
</g>
<!-- Output -->
<g id="node5" class="node">
<title>Output</title>
<polygon fill="none" stroke="#000000" points="527.1012,-36 472.3254,-36 472.3254,0 527.1012,0 527.1012,-36"/>
<text text-anchor="middle" x="499.7133" y="-13.8" font-family="Times,serif" font-size="14.00" fill="#000000">Output</text>
</g>
<!-- Buffer&#45;&gt;Output -->
<g id="edge4" class="edge">
<title>Buffer&#45;&gt;Output</title>
<path fill="none" stroke="#000000" d="M436.4056,-18C444.4698,-18 453.4528,-18 462.0593,-18"/>
<polygon fill="#000000" stroke="#000000" points="462.2837,-21.5001 472.2837,-18 462.2837,-14.5001 462.2837,-21.5001"/>
</g>
</g>
</svg>
