<?xml version="1.0" encoding="UTF-8" standalone="no"?>
<!DOCTYPE svg PUBLIC "-//W3C//DTD SVG 1.1//EN"
 "http://www.w3.org/Graphics/SVG/1.1/DTD/svg11.dtd">
<!-- Generated by graphviz version 2.40.1 (20161225.0304)
 -->
<!-- Title: G Pages: 1 -->
<svg width="1186pt" height="98pt"
 viewBox="0.00 0.00 1185.74 98.00" xmlns="http://www.w3.org/2000/svg" xmlns:xlink="http://www.w3.org/1999/xlink">
<g id="graph0" class="graph" transform="scale(1 1) rotate(0) translate(4 94)">
<title>G</title>
<polygon fill="#ffffff" stroke="transparent" points="-4,4 -4,-94 1181.7354,-94 1181.7354,4 -4,4"/>
<!-- Pressure Sensor Array -->
<g id="node1" class="node">
<title>Pressure Sensor Array</title>
<polygon fill="none" stroke="#000000" points="406.4804,-90 265.1462,-90 265.1462,-54 406.4804,-54 406.4804,-90"/>
<text text-anchor="middle" x="335.8133" y="-67.8" font-family="Times,serif" font-size="14.00" fill="#000000">Pressure Sensor Array</text>
</g>
<!-- Instrumentation Amplifiers -->
<g id="node2" class="node">
<title>Instrumentation Amplifiers</title>
<polygon fill="none" stroke="#000000" points="675.0646,-90 506.4696,-90 506.4696,-54 675.0646,-54 675.0646,-90"/>
<text text-anchor="middle" x="590.7671" y="-67.8" font-family="Times,serif" font-size="14.00" fill="#000000">Instrumentation Amplifiers</text>
</g>
<!-- Pressure Sensor Array&#45;&gt;Instrumentation Amplifiers -->
<g id="edge1" class="edge">
<title>Pressure Sensor Array&#45;&gt;Instrumentation Amplifiers</title>
<path fill="none" stroke="#000000" d="M406.4936,-72C434.1768,-72 466.352,-72 495.9964,-72"/>
<polygon fill="#000000" stroke="#000000" points="496.365,-75.5001 506.3649,-72 496.3649,-68.5001 496.365,-75.5001"/>
</g>
<!-- Multiplexer -->
<g id="node3" class="node">
<title>Multiplexer</title>
<polygon fill="none" stroke="#000000" points="793.3111,-63 711.1173,-63 711.1173,-27 793.3111,-27 793.3111,-63"/>
<text text-anchor="middle" x="752.2142" y="-40.8" font-family="Times,serif" font-size="14.00" fill="#000000">Multiplexer</text>
</g>
<!-- Instrumentation Amplifiers&#45;&gt;Multiplexer -->
<g id="edge2" class="edge">
<title>Instrumentation Amplifiers&#45;&gt;Multiplexer</title>
<path fill="none" stroke="#000000" d="M675.2733,-57.8674C683.9636,-56.414 692.5954,-54.9705 700.7645,-53.6043"/>
<polygon fill="#000000" stroke="#000000" points="701.5484,-57.0219 710.8341,-51.9203 700.3937,-50.1178 701.5484,-57.0219"/>
</g>
<!-- Anti&#45;Aliasing Filter -->
<g id="node4" class="node">
<title>Anti&#45;Aliasing Filter</title>
<polygon fill="none" stroke="#000000" points="955.9861,-63 829.3547,-63 829.3547,-27 955.9861,-27 955.9861,-63"/>
<text text-anchor="middle" x="892.6704" y="-40.8" font-family="Times,serif" font-size="14.00" fill="#000000">Anti&#45;Aliasing Filter</text>
</g>
<!-- Multiplexer&#45;&gt;Anti&#45;Aliasing Filter -->
<g id="edge3" class="edge">
<title>Multiplexer&#45;&gt;Anti&#45;Aliasing Filter</title>
<path fill="none" stroke="#000000" d="M793.596,-38.7839C801.6223,-38.4698 810.257,-38.2943 818.9632,-38.2574"/>
<polygon fill="#000000" stroke="#000000" points="819.1771,-41.7577 829.1841,-38.2777 819.1911,-34.7577 819.1771,-41.7577"/>
</g>
<!-- Multiplexer&#45;&gt;Anti&#45;Aliasing Filter -->
<g id="edge9" class="edge">
<title>Multiplexer&#45;&gt;Anti&#45;Aliasing Filter</title>
<path fill="none" stroke="#000000" d="M793.596,-51.2161C801.6223,-51.5302 810.257,-51.7057 818.9632,-51.7426"/>
<polygon fill="#000000" stroke="#000000" points="819.1911,-55.2423 829.1841,-51.7223 819.1771,-48.2423 819.1911,-55.2423"/>
</g>
<!-- ADC -->
<g id="node5" class="node">
<title>ADC</title>
<polygon fill="none" stroke="#000000" points="1046.0782,-63 992.0782,-63 992.0782,-27 1046.0782,-27 1046.0782,-63"/>
<text text-anchor="middle" x="1019.0782" y="-40.8" font-family="Times,serif" font-size="14.00" fill="#000000">ADC</text>
</g>
<!-- Anti&#45;Aliasing Filter&#45;&gt;ADC -->
<g id="edge4" class="edge">
<title>Anti&#45;Aliasing Filter&#45;&gt;ADC</title>
<path fill="none" stroke="#000000" d="M956.2446,-45C964.9653,-45 973.6765,-45 981.7142,-45"/>
<polygon fill="#000000" stroke="#000000" points="981.8368,-48.5001 991.8368,-45 981.8368,-41.5001 981.8368,-48.5001"/>
</g>
<!-- Data Interface -->
<g id="node6" class="node">
<title>Data Interface</title>
<polygon fill="none" stroke="#000000" points="1177.5646,-63 1082.249,-63 1082.249,-27 1177.5646,-27 1177.5646,-63"/>
<text text-anchor="middle" x="1129.9068" y="-40.8" font-family="Times,serif" font-size="14.00" fill="#000000">Data Interface</text>
</g>
<!-- ADC&#45;&gt;Data Interface -->
<g id="edge5" class="edge">
<title>ADC&#45;&gt;Data Interface</title>
<path fill="none" stroke="#000000" d="M1046.1899,-45C1054.0121,-45 1062.8627,-45 1071.8069,-45"/>
<polygon fill="#000000" stroke="#000000" points="1071.8951,-48.5001 1081.8951,-45 1071.895,-41.5001 1071.8951,-48.5001"/>
</g>
<!-- Temperature Sensor Array -->
<g id="node7" class="node">
<title>Temperature Sensor Array</title>
<polygon fill="none" stroke="#000000" points="165.3875,-36 -.1293,-36 -.1293,0 165.3875,0 165.3875,-36"/>
<text text-anchor="middle" x="82.6291" y="-13.8" font-family="Times,serif" font-size="14.00" fill="#000000">Temperature Sensor Array</text>
</g>
<!-- Signal Conditioner (Nonlinearity Correction) -->
<g id="node8" class="node">
<title>Signal Conditioner (Nonlinearity Correction)</title>
<polygon fill="none" stroke="#000000" points="470.4235,-36 201.2031,-36 201.2031,0 470.4235,0 470.4235,-36"/>
<text text-anchor="middle" x="335.8133" y="-13.8" font-family="Times,serif" font-size="14.00" fill="#000000">Signal Conditioner (Nonlinearity Correction)</text>
</g>
<!-- Temperature Sensor Array&#45;&gt;Signal Conditioner (Nonlinearity Correction) -->
<g id="edge6" class="edge">
<title>Temperature Sensor Array&#45;&gt;Signal Conditioner (Nonlinearity Correction)</title>
<path fill="none" stroke="#000000" d="M165.5311,-18C173.7199,-18 182.1867,-18 190.7692,-18"/>
<polygon fill="#000000" stroke="#000000" points="190.8877,-21.5001 200.8877,-18 190.8876,-14.5001 190.8877,-21.5001"/>
</g>
<!-- Voltage Amplifiers -->
<g id="node9" class="node">
<title>Voltage Amplifiers</title>
<polygon fill="none" stroke="#000000" points="653.2344,-36 528.2998,-36 528.2998,0 653.2344,0 653.2344,-36"/>
<text text-anchor="middle" x="590.7671" y="-13.8" font-family="Times,serif" font-size="14.00" fill="#000000">Voltage Amplifiers</text>
</g>
<!-- Signal Conditioner (Nonlinearity Correction)&#45;&gt;Voltage Amplifiers -->
<g id="edge7" class="edge">
<title>Signal Conditioner (Nonlinearity Correction)&#45;&gt;Voltage Amplifiers</title>
<path fill="none" stroke="#000000" d="M470.3828,-18C486.8197,-18 503.0989,-18 518.1227,-18"/>
<polygon fill="#000000" stroke="#000000" points="518.3098,-21.5001 528.3098,-18 518.3098,-14.5001 518.3098,-21.5001"/>
</g>
<!-- Voltage Amplifiers&#45;&gt;Multiplexer -->
<g id="edge8" class="edge">
<title>Voltage Amplifiers&#45;&gt;Multiplexer</title>
<path fill="none" stroke="#000000" d="M653.1868,-28.4389C668.9036,-31.0673 685.5975,-33.8592 700.7116,-36.3868"/>
<polygon fill="#000000" stroke="#000000" points="700.451,-39.8918 710.8914,-38.0893 701.6057,-32.9877 700.451,-39.8918"/>
</g>
</g>
</svg>
