<?xml version="1.0" encoding="UTF-8" standalone="no"?>
<!DOCTYPE svg PUBLIC "-//W3C//DTD SVG 1.1//EN"
 "http://www.w3.org/Graphics/SVG/1.1/DTD/svg11.dtd">
<!-- Generated by graphviz version 2.40.1 (20161225.0304)
 -->
<!-- Title: G Pages: 1 -->
<svg width="1269pt" height="44pt"
 viewBox="0.00 0.00 1268.55 44.00" xmlns="http://www.w3.org/2000/svg" xmlns:xlink="http://www.w3.org/1999/xlink">
<g id="graph0" class="graph" transform="scale(1 1) rotate(0) translate(4 40)">
<title>G</title>
<polygon fill="#ffffff" stroke="transparent" points="-4,4 -4,-40 1264.5482,-40 1264.5482,4 -4,4"/>
<!-- thermistor -->
<g id="node1" class="node">
<title>thermistor</title>
<polygon fill="none" stroke="#000000" points="172.5197,-36 .1599,-36 .1599,0 172.5197,0 172.5197,-36"/>
<text text-anchor="middle" x="86.3398" y="-13.8" font-family="Times,serif" font-size="14.00" fill="#000000">Thermistor (NTCLE100E3)</text>
</g>
<!-- linearization_resistor -->
<g id="node2" class="node">
<title>linearization_resistor</title>
<polygon fill="none" stroke="#000000" points="348.7039,-36 208.6715,-36 208.6715,0 348.7039,0 348.7039,-36"/>
<text text-anchor="middle" x="278.6877" y="-13.8" font-family="Times,serif" font-size="14.00" fill="#000000">Linearization Resistor</text>
</g>
<!-- thermistor&#45;&gt;linearization_resistor -->
<g id="edge1" class="edge">
<title>thermistor&#45;&gt;linearization_resistor</title>
<path fill="none" stroke="#000000" d="M172.6675,-18C181.1878,-18 189.8122,-18 198.2696,-18"/>
<polygon fill="#000000" stroke="#000000" points="198.4846,-21.5001 208.4846,-18 198.4845,-14.5001 198.4846,-21.5001"/>
</g>
<!-- wheatstone_bridge -->
<g id="node3" class="node">
<title>wheatstone_bridge</title>
<polygon fill="none" stroke="#000000" points="508.2261,-36 384.8521,-36 384.8521,0 508.2261,0 508.2261,-36"/>
<text text-anchor="middle" x="446.5391" y="-13.8" font-family="Times,serif" font-size="14.00" fill="#000000">Wheatstone Bridge</text>
</g>
<!-- linearization_resistor&#45;&gt;wheatstone_bridge -->
<g id="edge2" class="edge">
<title>linearization_resistor&#45;&gt;wheatstone_bridge</title>
<path fill="none" stroke="#000000" d="M348.8992,-18C357.3297,-18 365.95,-18 374.4072,-18"/>
<polygon fill="#000000" stroke="#000000" points="374.6186,-21.5001 384.6186,-18 374.6185,-14.5001 374.6186,-21.5001"/>
</g>
<!-- buffer -->
<g id="node4" class="node">
<title>buffer</title>
<polygon fill="none" stroke="#000000" points="655.7394,-36 544.2632,-36 544.2632,0 655.7394,0 655.7394,-36"/>
<text text-anchor="middle" x="600.0013" y="-13.8" font-family="Times,serif" font-size="14.00" fill="#000000">Buffer Amplifier</text>
</g>
<!-- wheatstone_bridge&#45;&gt;buffer -->
<g id="edge3" class="edge">
<title>wheatstone_bridge&#45;&gt;buffer</title>
<path fill="none" stroke="#000000" d="M508.5157,-18C516.9136,-18 525.5566,-18 534.0215,-18"/>
<polygon fill="#000000" stroke="#000000" points="534.23,-21.5001 544.23,-18 534.2299,-14.5001 534.23,-21.5001"/>
</g>
<!-- differential_amplifier -->
<g id="node5" class="node">
<title>differential_amplifier</title>
<polygon fill="none" stroke="#000000" points="831.6193,-36 691.6205,-36 691.6205,0 831.6193,0 831.6193,-36"/>
<text text-anchor="middle" x="761.6199" y="-13.8" font-family="Times,serif" font-size="14.00" fill="#000000">Differential Amplifier</text>
</g>
<!-- buffer&#45;&gt;differential_amplifier -->
<g id="edge4" class="edge">
<title>buffer&#45;&gt;differential_amplifier</title>
<path fill="none" stroke="#000000" d="M655.6213,-18C663.8905,-18 672.5507,-18 681.2049,-18"/>
<polygon fill="#000000" stroke="#000000" points="681.3377,-21.5001 691.3376,-18 681.3376,-14.5001 681.3377,-21.5001"/>
</g>
<!-- gain_stage -->
<g id="node6" class="node">
<title>gain_stage</title>
<polygon fill="none" stroke="#000000" points="945.3411,-36 867.7123,-36 867.7123,0 945.3411,0 945.3411,-36"/>
<text text-anchor="middle" x="906.5267" y="-13.8" font-family="Times,serif" font-size="14.00" fill="#000000">Gain Stage</text>
</g>
<!-- differential_amplifier&#45;&gt;gain_stage -->
<g id="edge5" class="edge">
<title>differential_amplifier&#45;&gt;gain_stage</title>
<path fill="none" stroke="#000000" d="M831.9509,-18C840.5703,-18 849.2297,-18 857.4408,-18"/>
<polygon fill="#000000" stroke="#000000" points="857.5648,-21.5001 867.5648,-18 857.5648,-14.5001 857.5648,-21.5001"/>
</g>
<!-- low_pass_filter -->
<g id="node7" class="node">
<title>low_pass_filter</title>
<polygon fill="none" stroke="#000000" points="1086.4875,-36 981.4159,-36 981.4159,0 1086.4875,0 1086.4875,-36"/>
<text text-anchor="middle" x="1033.9517" y="-13.8" font-family="Times,serif" font-size="14.00" fill="#000000">Low&#45;Pass Filter</text>
</g>
<!-- gain_stage&#45;&gt;low_pass_filter -->
<g id="edge6" class="edge">
<title>gain_stage&#45;&gt;low_pass_filter</title>
<path fill="none" stroke="#000000" d="M945.4508,-18C953.552,-18 962.2867,-18 971.0024,-18"/>
<polygon fill="#000000" stroke="#000000" points="971.186,-21.5001 981.186,-18 971.186,-14.5001 971.186,-21.5001"/>
</g>
<!-- output_stage -->
<g id="node8" class="node">
<title>output_stage</title>
<polygon fill="none" stroke="#000000" points="1260.5875,-36 1122.4303,-36 1122.4303,0 1260.5875,0 1260.5875,-36"/>
<text text-anchor="middle" x="1191.5089" y="-13.8" font-family="Times,serif" font-size="14.00" fill="#000000">Output Stage (0&#45;20V)</text>
</g>
<!-- low_pass_filter&#45;&gt;output_stage -->
<g id="edge7" class="edge">
<title>low_pass_filter&#45;&gt;output_stage</title>
<path fill="none" stroke="#000000" d="M1086.8543,-18C1095.0147,-18 1103.5918,-18 1112.1777,-18"/>
<polygon fill="#000000" stroke="#000000" points="1112.2364,-21.5001 1122.2363,-18 1112.2363,-14.5001 1112.2364,-21.5001"/>
</g>
</g>
</svg>
