<?xml version="1.0" encoding="UTF-8" standalone="no"?>
<!DOCTYPE svg PUBLIC "-//W3C//DTD SVG 1.1//EN"
 "http://www.w3.org/Graphics/SVG/1.1/DTD/svg11.dtd">
<!-- Generated by graphviz version 2.40.1 (20161225.0304)
 -->
<!-- Title: G Pages: 1 -->
<svg width="1072pt" height="50pt"
 viewBox="0.00 0.00 1071.62 49.60" xmlns="http://www.w3.org/2000/svg" xmlns:xlink="http://www.w3.org/1999/xlink">
<g id="graph0" class="graph" transform="scale(1 1) rotate(0) translate(4 45.6)">
<title>G</title>
<polygon fill="#ffffff" stroke="transparent" points="-4,4 -4,-45.6 1067.6204,-45.6 1067.6204,4 -4,4"/>
<!-- Sensor -->
<g id="node1" class="node">
<title>Sensor</title>
<polygon fill="none" stroke="#000000" points="174.2707,-41.4019 -.0903,-41.4019 -.0903,-.1981 174.2707,-.1981 174.2707,-41.4019"/>
<text text-anchor="middle" x="87.0902" y="-25" font-family="Times,serif" font-size="14.00" fill="#000000">Piezoelectric Accelerometer</text>
<text text-anchor="middle" x="87.0902" y="-8.2" font-family="Times,serif" font-size="14.00" fill="#000000">(Sensitivity: 100 pC/g)</text>
</g>
<!-- ChargeAmp -->
<g id="node2" class="node">
<title>ChargeAmp</title>
<polygon fill="none" stroke="#000000" points="325.3773,-38.8 210.1147,-38.8 210.1147,-2.8 325.3773,-2.8 325.3773,-38.8"/>
<text text-anchor="middle" x="267.746" y="-16.6" font-family="Times,serif" font-size="14.00" fill="#000000">Charge Amplifier</text>
</g>
<!-- Sensor&#45;&gt;ChargeAmp -->
<g id="edge1" class="edge">
<title>Sensor&#45;&gt;ChargeAmp</title>
<path fill="none" stroke="#000000" d="M174.2431,-20.8C182.9029,-20.8 191.6017,-20.8 200.0206,-20.8"/>
<polygon fill="#000000" stroke="#000000" points="200.1295,-24.3001 210.1295,-20.8 200.1294,-17.3001 200.1295,-24.3001"/>
</g>
<!-- HighPassFilter -->
<g id="node3" class="node">
<title>HighPassFilter</title>
<polygon fill="none" stroke="#000000" points="474.6845,-41.4019 361.5201,-41.4019 361.5201,-.1981 474.6845,-.1981 474.6845,-41.4019"/>
<text text-anchor="middle" x="418.1023" y="-25" font-family="Times,serif" font-size="14.00" fill="#000000">High&#45;Pass Filter</text>
<text text-anchor="middle" x="418.1023" y="-8.2" font-family="Times,serif" font-size="14.00" fill="#000000">(Cutoff: 0.25 Hz)</text>
</g>
<!-- ChargeAmp&#45;&gt;HighPassFilter -->
<g id="edge2" class="edge">
<title>ChargeAmp&#45;&gt;HighPassFilter</title>
<path fill="none" stroke="#000000" d="M325.4477,-20.8C333.9,-20.8 342.6643,-20.8 351.2804,-20.8"/>
<polygon fill="#000000" stroke="#000000" points="351.2992,-24.3001 361.2992,-20.8 351.2992,-17.3001 351.2992,-24.3001"/>
</g>
<!-- Amplifier -->
<g id="node4" class="node">
<title>Amplifier</title>
<polygon fill="none" stroke="#000000" points="689.0835,-41.4019 510.8295,-41.4019 510.8295,-.1981 689.0835,-.1981 689.0835,-41.4019"/>
<text text-anchor="middle" x="599.9565" y="-25" font-family="Times,serif" font-size="14.00" fill="#000000">Voltage Amplifier</text>
<text text-anchor="middle" x="599.9565" y="-8.2" font-family="Times,serif" font-size="14.00" fill="#000000">(Gain: Set for 1 Vpp Output)</text>
</g>
<!-- HighPassFilter&#45;&gt;Amplifier -->
<g id="edge3" class="edge">
<title>HighPassFilter&#45;&gt;Amplifier</title>
<path fill="none" stroke="#000000" d="M475.1432,-20.8C483.3037,-20.8 491.8893,-20.8 500.5786,-20.8"/>
<polygon fill="#000000" stroke="#000000" points="500.8077,-24.3001 510.8076,-20.8 500.8076,-17.3001 500.8077,-24.3001"/>
</g>
<!-- AntiAliasingFilter -->
<g id="node5" class="node">
<title>AntiAliasingFilter</title>
<polygon fill="none" stroke="#000000" points="851.7435,-41.4019 725.1121,-41.4019 725.1121,-.1981 851.7435,-.1981 851.7435,-41.4019"/>
<text text-anchor="middle" x="788.4278" y="-25" font-family="Times,serif" font-size="14.00" fill="#000000">Anti&#45;Aliasing Filter</text>
<text text-anchor="middle" x="788.4278" y="-8.2" font-family="Times,serif" font-size="14.00" fill="#000000">(Cutoff: &lt;2 Hz)</text>
</g>
<!-- Amplifier&#45;&gt;AntiAliasingFilter -->
<g id="edge4" class="edge">
<title>Amplifier&#45;&gt;AntiAliasingFilter</title>
<path fill="none" stroke="#000000" d="M689.2247,-20.8C697.8153,-20.8 706.461,-20.8 714.8753,-20.8"/>
<polygon fill="#000000" stroke="#000000" points="715.0049,-24.3001 725.0048,-20.8 715.0048,-17.3001 715.0049,-24.3001"/>
</g>
<!-- ADC -->
<g id="node6" class="node">
<title>ADC</title>
<polygon fill="none" stroke="#000000" points="1063.5129,-41.4019 887.9431,-41.4019 887.9431,-.1981 1063.5129,-.1981 1063.5129,-41.4019"/>
<text text-anchor="middle" x="975.728" y="-25" font-family="Times,serif" font-size="14.00" fill="#000000">Analog&#45;to&#45;Digital Converter</text>
<text text-anchor="middle" x="975.728" y="-8.2" font-family="Times,serif" font-size="14.00" fill="#000000">(If Required)</text>
</g>
<!-- AntiAliasingFilter&#45;&gt;ADC -->
<g id="edge5" class="edge">
<title>AntiAliasingFilter&#45;&gt;ADC</title>
<path fill="none" stroke="#000000" d="M851.8391,-20.8C860.1535,-20.8 868.8242,-20.8 877.5474,-20.8"/>
<polygon fill="#000000" stroke="#000000" points="877.7936,-24.3001 887.7935,-20.8 877.7935,-17.3001 877.7936,-24.3001"/>
</g>
</g>
</svg>
