<?xml version="1.0" encoding="UTF-8" standalone="no"?>
<!DOCTYPE svg PUBLIC "-//W3C//DTD SVG 1.1//EN"
 "http://www.w3.org/Graphics/SVG/1.1/DTD/svg11.dtd">
<!-- Generated by graphviz version 2.40.1 (20161225.0304)
 -->
<!-- Title: G Pages: 1 -->
<svg width="809pt" height="44pt"
 viewBox="0.00 0.00 808.76 44.00" xmlns="http://www.w3.org/2000/svg" xmlns:xlink="http://www.w3.org/1999/xlink">
<g id="graph0" class="graph" transform="scale(1 1) rotate(0) translate(4 40)">
<title>G</title>
<polygon fill="#ffffff" stroke="transparent" points="-4,4 -4,-40 804.7618,-40 804.7618,4 -4,4"/>
<!-- Piezoelectric_Sensor -->
<g id="node1" class="node">
<title>Piezoelectric_Sensor</title>
<polygon fill="none" stroke="#000000" points="133.594,-36 -.1984,-36 -.1984,0 133.594,0 133.594,-36"/>
<text text-anchor="middle" x="66.6978" y="-13.8" font-family="Times,serif" font-size="14.00" fill="#000000">Piezoelectric_Sensor</text>
</g>
<!-- Charge_Amplifier -->
<g id="node2" class="node">
<title>Charge_Amplifier</title>
<polygon fill="none" stroke="#000000" points="287.843,-36 169.5794,-36 169.5794,0 287.843,0 287.843,-36"/>
<text text-anchor="middle" x="228.7112" y="-13.8" font-family="Times,serif" font-size="14.00" fill="#000000">Charge_Amplifier</text>
</g>
<!-- Piezoelectric_Sensor&#45;&gt;Charge_Amplifier -->
<g id="edge1" class="edge">
<title>Piezoelectric_Sensor&#45;&gt;Charge_Amplifier</title>
<path fill="none" stroke="#000000" d="M133.5302,-18C142.1132,-18 150.9154,-18 159.5349,-18"/>
<polygon fill="#000000" stroke="#000000" points="159.5455,-21.5001 169.5455,-18 159.5454,-14.5001 159.5455,-21.5001"/>
</g>
<!-- Low_Pass_Filter -->
<g id="node3" class="node">
<title>Low_Pass_Filter</title>
<polygon fill="none" stroke="#000000" points="434.8397,-36 324.0891,-36 324.0891,0 434.8397,0 434.8397,-36"/>
<text text-anchor="middle" x="379.4644" y="-13.8" font-family="Times,serif" font-size="14.00" fill="#000000">Low_Pass_Filter</text>
</g>
<!-- Charge_Amplifier&#45;&gt;Low_Pass_Filter -->
<g id="edge2" class="edge">
<title>Charge_Amplifier&#45;&gt;Low_Pass_Filter</title>
<path fill="none" stroke="#000000" d="M287.8602,-18C296.3978,-18 305.227,-18 313.881,-18"/>
<polygon fill="#000000" stroke="#000000" points="313.9317,-21.5001 323.9316,-18 313.9316,-14.5001 313.9317,-21.5001"/>
</g>
<!-- Amplifier -->
<g id="node4" class="node">
<title>Amplifier</title>
<polygon fill="none" stroke="#000000" points="542.2095,-36 470.7993,-36 470.7993,0 542.2095,0 542.2095,-36"/>
<text text-anchor="middle" x="506.5044" y="-13.8" font-family="Times,serif" font-size="14.00" fill="#000000">Amplifier</text>
</g>
<!-- Low_Pass_Filter&#45;&gt;Amplifier -->
<g id="edge3" class="edge">
<title>Low_Pass_Filter&#45;&gt;Amplifier</title>
<path fill="none" stroke="#000000" d="M435.186,-18C443.6237,-18 452.2477,-18 460.4505,-18"/>
<polygon fill="#000000" stroke="#000000" points="460.5695,-21.5001 470.5695,-18 460.5695,-14.5001 460.5695,-21.5001"/>
</g>
<!-- Anti_Aliasing_Filter -->
<g id="node5" class="node">
<title>Anti_Aliasing_Filter</title>
<polygon fill="none" stroke="#000000" points="710.5897,-36 578.2789,-36 578.2789,0 710.5897,0 710.5897,-36"/>
<text text-anchor="middle" x="644.4343" y="-13.8" font-family="Times,serif" font-size="14.00" fill="#000000">Anti_Aliasing_Filter</text>
</g>
<!-- Amplifier&#45;&gt;Anti_Aliasing_Filter -->
<g id="edge4" class="edge">
<title>Amplifier&#45;&gt;Anti_Aliasing_Filter</title>
<path fill="none" stroke="#000000" d="M542.3838,-18C550.387,-18 559.1693,-18 568.1186,-18"/>
<polygon fill="#000000" stroke="#000000" points="568.261,-21.5001 578.261,-18 568.261,-14.5001 568.261,-21.5001"/>
</g>
<!-- ADC -->
<g id="node6" class="node">
<title>ADC</title>
<polygon fill="none" stroke="#000000" points="800.7618,-36 746.7618,-36 746.7618,0 800.7618,0 800.7618,-36"/>
<text text-anchor="middle" x="773.7618" y="-13.8" font-family="Times,serif" font-size="14.00" fill="#000000">ADC</text>
</g>
<!-- Anti_Aliasing_Filter&#45;&gt;ADC -->
<g id="edge5" class="edge">
<title>Anti_Aliasing_Filter&#45;&gt;ADC</title>
<path fill="none" stroke="#000000" d="M710.6135,-18C719.4286,-18 728.206,-18 736.2902,-18"/>
<polygon fill="#000000" stroke="#000000" points="736.4632,-21.5001 746.4632,-18 736.4632,-14.5001 736.4632,-21.5001"/>
</g>
</g>
</svg>
