<?xml version="1.0" encoding="UTF-8" standalone="no"?>
<!DOCTYPE svg PUBLIC "-//W3C//DTD SVG 1.1//EN"
 "http://www.w3.org/Graphics/SVG/1.1/DTD/svg11.dtd">
<!-- Generated by graphviz version 2.40.1 (20161225.0304)
 -->
<!-- Title: G Pages: 1 -->
<svg width="1139pt" height="44pt"
 viewBox="0.00 0.00 1138.85 44.00" xmlns="http://www.w3.org/2000/svg" xmlns:xlink="http://www.w3.org/1999/xlink">
<g id="graph0" class="graph" transform="scale(1 1) rotate(0) translate(4 40)">
<title>G</title>
<polygon fill="#ffffff" stroke="transparent" points="-4,4 -4,-40 1134.8524,-40 1134.8524,4 -4,4"/>
<!-- ThermistorSensor -->
<g id="node1" class="node">
<title>ThermistorSensor</title>
<polygon fill="none" stroke="#000000" points="151.4548,-36 -.1518,-36 -.1518,0 151.4548,0 151.4548,-36"/>
<text text-anchor="middle" x="75.6515" y="-13.8" font-family="Times,serif" font-size="14.00" fill="#000000">NTC Thermistor Sensor</text>
</g>
<!-- TemperatureToVoltage -->
<g id="node2" class="node">
<title>TemperatureToVoltage</title>
<polygon fill="none" stroke="#000000" points="404.9551,-36 187.4189,-36 187.4189,0 404.9551,0 404.9551,-36"/>
<text text-anchor="middle" x="296.187" y="-13.8" font-family="Times,serif" font-size="14.00" fill="#000000">Temperature to Voltage Conversion</text>
</g>
<!-- ThermistorSensor&#45;&gt;TemperatureToVoltage -->
<g id="edge1" class="edge">
<title>ThermistorSensor&#45;&gt;TemperatureToVoltage</title>
<path fill="none" stroke="#000000" d="M151.5473,-18C159.8758,-18 168.4949,-18 177.1868,-18"/>
<polygon fill="#000000" stroke="#000000" points="177.4108,-21.5001 187.4108,-18 177.4108,-14.5001 177.4108,-21.5001"/>
</g>
<!-- Linearization -->
<g id="node3" class="node">
<title>Linearization</title>
<polygon fill="none" stroke="#000000" points="531.5227,-36 441.2533,-36 441.2533,0 531.5227,0 531.5227,-36"/>
<text text-anchor="middle" x="486.388" y="-13.8" font-family="Times,serif" font-size="14.00" fill="#000000">Linearization</text>
</g>
<!-- TemperatureToVoltage&#45;&gt;Linearization -->
<g id="edge2" class="edge">
<title>TemperatureToVoltage&#45;&gt;Linearization</title>
<path fill="none" stroke="#000000" d="M405.174,-18C414.0449,-18 422.7511,-18 430.9748,-18"/>
<polygon fill="#000000" stroke="#000000" points="431.1095,-21.5001 441.1095,-18 431.1095,-14.5001 431.1095,-21.5001"/>
</g>
<!-- Amplification -->
<g id="node4" class="node">
<title>Amplification</title>
<polygon fill="none" stroke="#000000" points="722.341,-36 567.4926,-36 567.4926,0 722.341,0 722.341,-36"/>
<text text-anchor="middle" x="644.9168" y="-13.8" font-family="Times,serif" font-size="14.00" fill="#000000">Amplification &amp; Scaling</text>
</g>
<!-- Linearization&#45;&gt;Amplification -->
<g id="edge3" class="edge">
<title>Linearization&#45;&gt;Amplification</title>
<path fill="none" stroke="#000000" d="M531.816,-18C539.9261,-18 548.618,-18 557.4471,-18"/>
<polygon fill="#000000" stroke="#000000" points="557.4502,-21.5001 567.4502,-18 557.4501,-14.5001 557.4502,-21.5001"/>
</g>
<!-- AntiAliasingFilter -->
<g id="node6" class="node">
<title>AntiAliasingFilter</title>
<polygon fill="none" stroke="#000000" points="884.8521,-36 758.2207,-36 758.2207,0 884.8521,0 884.8521,-36"/>
<text text-anchor="middle" x="821.5364" y="-13.8" font-family="Times,serif" font-size="14.00" fill="#000000">Anti&#45;Aliasing Filter</text>
</g>
<!-- Amplification&#45;&gt;AntiAliasingFilter -->
<g id="edge4" class="edge">
<title>Amplification&#45;&gt;AntiAliasingFilter</title>
<path fill="none" stroke="#000000" d="M722.3847,-18C730.8851,-18 739.5215,-18 747.9725,-18"/>
<polygon fill="#000000" stroke="#000000" points="748.1674,-21.5001 758.1673,-18 748.1673,-14.5001 748.1674,-21.5001"/>
</g>
<!-- OutputBuffer -->
<g id="node5" class="node">
<title>OutputBuffer</title>
<polygon fill="none" stroke="#000000" points="1015.8254,-36 920.9838,-36 920.9838,0 1015.8254,0 1015.8254,-36"/>
<text text-anchor="middle" x="968.4046" y="-13.8" font-family="Times,serif" font-size="14.00" fill="#000000">Output Buffer</text>
</g>
<!-- Multimeter -->
<g id="node7" class="node">
<title>Multimeter</title>
<polygon fill="none" stroke="#000000" points="1130.8461,-36 1051.8713,-36 1051.8713,0 1130.8461,0 1130.8461,-36"/>
<text text-anchor="middle" x="1091.3587" y="-13.8" font-family="Times,serif" font-size="14.00" fill="#000000">Multimeter</text>
</g>
<!-- OutputBuffer&#45;&gt;Multimeter -->
<g id="edge6" class="edge">
<title>OutputBuffer&#45;&gt;Multimeter</title>
<path fill="none" stroke="#000000" d="M1015.9419,-18C1024.3013,-18 1033.0238,-18 1041.4458,-18"/>
<polygon fill="#000000" stroke="#000000" points="1041.5253,-21.5001 1051.5253,-18 1041.5252,-14.5001 1041.5253,-21.5001"/>
</g>
<!-- AntiAliasingFilter&#45;&gt;OutputBuffer -->
<g id="edge5" class="edge">
<title>AntiAliasingFilter&#45;&gt;OutputBuffer</title>
<path fill="none" stroke="#000000" d="M885.1007,-18C893.5885,-18 902.2555,-18 910.6368,-18"/>
<polygon fill="#000000" stroke="#000000" points="910.6874,-21.5001 920.6874,-18 910.6874,-14.5001 910.6874,-21.5001"/>
</g>
</g>
</svg>
