<?xml version="1.0" encoding="UTF-8" standalone="no"?>
<!DOCTYPE svg PUBLIC "-//W3C//DTD SVG 1.1//EN"
 "http://www.w3.org/Graphics/SVG/1.1/DTD/svg11.dtd">
<!-- Generated by graphviz version 2.40.1 (20161225.0304)
 -->
<!-- Title: G Pages: 1 -->
<svg width="1093pt" height="44pt"
 viewBox="0.00 0.00 1093.33 44.00" xmlns="http://www.w3.org/2000/svg" xmlns:xlink="http://www.w3.org/1999/xlink">
<g id="graph0" class="graph" transform="scale(1 1) rotate(0) translate(4 40)">
<title>G</title>
<polygon fill="#ffffff" stroke="transparent" points="-4,4 -4,-40 1089.3286,-40 1089.3286,4 -4,4"/>
<!-- InputSignal -->
<g id="node1" class="node">
<title>InputSignal</title>
<polygon fill="none" stroke="#000000" points="172.5197,-36 .1599,-36 .1599,0 172.5197,0 172.5197,-36"/>
<text text-anchor="middle" x="86.3398" y="-13.8" font-family="Times,serif" font-size="14.00" fill="#000000">Thermistor (NTCLE100E3)</text>
</g>
<!-- Linearization -->
<g id="node2" class="node">
<title>Linearization</title>
<polygon fill="none" stroke="#000000" points="348.7039,-36 208.6715,-36 208.6715,0 348.7039,0 348.7039,-36"/>
<text text-anchor="middle" x="278.6877" y="-13.8" font-family="Times,serif" font-size="14.00" fill="#000000">Linearization Resistor</text>
</g>
<!-- InputSignal&#45;&gt;Linearization -->
<g id="edge1" class="edge">
<title>InputSignal&#45;&gt;Linearization</title>
<path fill="none" stroke="#000000" d="M172.6675,-18C181.1878,-18 189.8122,-18 198.2696,-18"/>
<polygon fill="#000000" stroke="#000000" points="198.4846,-21.5001 208.4846,-18 198.4845,-14.5001 198.4846,-21.5001"/>
</g>
<!-- Buffer -->
<g id="node3" class="node">
<title>Buffer</title>
<polygon fill="none" stroke="#000000" points="496.0528,-36 384.5766,-36 384.5766,0 496.0528,0 496.0528,-36"/>
<text text-anchor="middle" x="440.3147" y="-13.8" font-family="Times,serif" font-size="14.00" fill="#000000">Buffer Amplifier</text>
</g>
<!-- Linearization&#45;&gt;Buffer -->
<g id="edge2" class="edge">
<title>Linearization&#45;&gt;Buffer</title>
<path fill="none" stroke="#000000" d="M349.1095,-18C357.3638,-18 365.7652,-18 373.9614,-18"/>
<polygon fill="#000000" stroke="#000000" points="374.2072,-21.5001 384.2072,-18 374.2071,-14.5001 374.2072,-21.5001"/>
</g>
<!-- GainStage -->
<g id="node4" class="node">
<title>GainStage</title>
<polygon fill="none" stroke="#000000" points="609.6551,-36 532.0263,-36 532.0263,0 609.6551,0 609.6551,-36"/>
<text text-anchor="middle" x="570.8407" y="-13.8" font-family="Times,serif" font-size="14.00" fill="#000000">Gain Stage</text>
</g>
<!-- Buffer&#45;&gt;GainStage -->
<g id="edge3" class="edge">
<title>Buffer&#45;&gt;GainStage</title>
<path fill="none" stroke="#000000" d="M496.0481,-18C504.6195,-18 513.415,-18 521.826,-18"/>
<polygon fill="#000000" stroke="#000000" points="521.8541,-21.5001 531.854,-18 521.854,-14.5001 521.8541,-21.5001"/>
</g>
<!-- LevelShift -->
<g id="node5" class="node">
<title>LevelShift</title>
<polygon fill="none" stroke="#000000" points="735.4571,-36 645.5105,-36 645.5105,0 735.4571,0 735.4571,-36"/>
<text text-anchor="middle" x="690.4838" y="-13.8" font-family="Times,serif" font-size="14.00" fill="#000000">Level Shifter</text>
</g>
<!-- GainStage&#45;&gt;LevelShift -->
<g id="edge4" class="edge">
<title>GainStage&#45;&gt;LevelShift</title>
<path fill="none" stroke="#000000" d="M609.6854,-18C617.9245,-18 626.7714,-18 635.4811,-18"/>
<polygon fill="#000000" stroke="#000000" points="635.5981,-21.5001 645.5981,-18 635.598,-14.5001 635.5981,-21.5001"/>
</g>
<!-- AntiAliasingFilter -->
<g id="node7" class="node">
<title>AntiAliasingFilter</title>
<polygon fill="none" stroke="#000000" points="897.9433,-36 771.3119,-36 771.3119,0 897.9433,0 897.9433,-36"/>
<text text-anchor="middle" x="834.6276" y="-13.8" font-family="Times,serif" font-size="14.00" fill="#000000">Anti&#45;Aliasing Filter</text>
</g>
<!-- LevelShift&#45;&gt;AntiAliasingFilter -->
<g id="edge5" class="edge">
<title>LevelShift&#45;&gt;AntiAliasingFilter</title>
<path fill="none" stroke="#000000" d="M735.3017,-18C743.4395,-18 752.121,-18 760.8361,-18"/>
<polygon fill="#000000" stroke="#000000" points="761.0517,-21.5001 771.0517,-18 761.0516,-14.5001 761.0517,-21.5001"/>
</g>
<!-- OutputVoltage -->
<g id="node6" class="node">
<title>OutputVoltage</title>
<polygon fill="none" stroke="#000000" points="1085.4755,-36 933.8885,-36 933.8885,0 1085.4755,0 1085.4755,-36"/>
<text text-anchor="middle" x="1009.682" y="-13.8" font-family="Times,serif" font-size="14.00" fill="#000000">Output Voltage (0&#45;20V)</text>
</g>
<!-- AntiAliasingFilter&#45;&gt;OutputVoltage -->
<g id="edge6" class="edge">
<title>AntiAliasingFilter&#45;&gt;OutputVoltage</title>
<path fill="none" stroke="#000000" d="M898.3215,-18C906.6126,-18 915.2126,-18 923.7916,-18"/>
<polygon fill="#000000" stroke="#000000" points="923.8333,-21.5001 933.8333,-18 923.8332,-14.5001 923.8333,-21.5001"/>
</g>
</g>
</svg>
