<?xml version="1.0" encoding="UTF-8" standalone="no"?>
<!DOCTYPE svg PUBLIC "-//W3C//DTD SVG 1.1//EN"
 "http://www.w3.org/Graphics/SVG/1.1/DTD/svg11.dtd">
<!-- Generated by graphviz version 2.40.1 (20161225.0304)
 -->
<!-- Title: G Pages: 1 -->
<svg width="848pt" height="50pt"
 viewBox="0.00 0.00 847.76 49.60" xmlns="http://www.w3.org/2000/svg" xmlns:xlink="http://www.w3.org/1999/xlink">
<g id="graph0" class="graph" transform="scale(1 1) rotate(0) translate(4 45.6)">
<title>G</title>
<polygon fill="#ffffff" stroke="transparent" points="-4,4 -4,-45.6 843.7618,-45.6 843.7618,4 -4,4"/>
<!-- Potentiometer -->
<g id="node1" class="node">
<title>Potentiometer</title>
<polygon fill="none" stroke="#000000" points="94.3111,-38.8 .2289,-38.8 .2289,-2.8 94.3111,-2.8 94.3111,-38.8"/>
<text text-anchor="middle" x="47.27" y="-16.6" font-family="Times,serif" font-size="14.00" fill="#000000">Potentiometer</text>
</g>
<!-- Amplifier -->
<g id="node2" class="node">
<title>Amplifier</title>
<polygon fill="none" stroke="#000000" points="201.8475,-38.8 130.4373,-38.8 130.4373,-2.8 201.8475,-2.8 201.8475,-38.8"/>
<text text-anchor="middle" x="166.1424" y="-16.6" font-family="Times,serif" font-size="14.00" fill="#000000">Amplifier</text>
</g>
<!-- Potentiometer&#45;&gt;Amplifier -->
<g id="edge1" class="edge">
<title>Potentiometer&#45;&gt;Amplifier</title>
<path fill="none" stroke="#000000" d="M94.5931,-20.8C103.0626,-20.8 111.8748,-20.8 120.3018,-20.8"/>
<polygon fill="#000000" stroke="#000000" points="120.3408,-24.3001 130.3408,-20.8 120.3407,-17.3001 120.3408,-24.3001"/>
</g>
<!-- Filter50Hz -->
<g id="node3" class="node">
<title>Filter50Hz</title>
<polygon fill="none" stroke="#000000" points="321.8069,-41.4019 237.7241,-41.4019 237.7241,-.1981 321.8069,-.1981 321.8069,-41.4019"/>
<text text-anchor="middle" x="279.7655" y="-25" font-family="Times,serif" font-size="14.00" fill="#000000">Notch Filter</text>
<text text-anchor="middle" x="279.7655" y="-8.2" font-family="Times,serif" font-size="14.00" fill="#000000">(50 Hz)</text>
</g>
<!-- Amplifier&#45;&gt;Filter50Hz -->
<g id="edge2" class="edge">
<title>Amplifier&#45;&gt;Filter50Hz</title>
<path fill="none" stroke="#000000" d="M201.7817,-20.8C209.921,-20.8 218.7369,-20.8 227.4132,-20.8"/>
<polygon fill="#000000" stroke="#000000" points="227.4855,-24.3001 237.4855,-20.8 227.4854,-17.3001 227.4855,-24.3001"/>
</g>
<!-- Filter60Hz -->
<g id="node4" class="node">
<title>Filter60Hz</title>
<polygon fill="none" stroke="#000000" points="441.8483,-41.4019 357.7655,-41.4019 357.7655,-.1981 441.8483,-.1981 441.8483,-41.4019"/>
<text text-anchor="middle" x="399.8069" y="-25" font-family="Times,serif" font-size="14.00" fill="#000000">Notch Filter</text>
<text text-anchor="middle" x="399.8069" y="-8.2" font-family="Times,serif" font-size="14.00" fill="#000000">(60 Hz)</text>
</g>
<!-- Filter50Hz&#45;&gt;Filter60Hz -->
<g id="edge3" class="edge">
<title>Filter50Hz&#45;&gt;Filter60Hz</title>
<path fill="none" stroke="#000000" d="M322.0876,-20.8C330.2458,-20.8 338.883,-20.8 347.3186,-20.8"/>
<polygon fill="#000000" stroke="#000000" points="347.4624,-24.3001 357.4624,-20.8 347.4623,-17.3001 347.4624,-24.3001"/>
</g>
<!-- AntiAliasing -->
<g id="node5" class="node">
<title>AntiAliasing</title>
<polygon fill="none" stroke="#000000" points="604.5511,-38.8 477.9197,-38.8 477.9197,-2.8 604.5511,-2.8 604.5511,-38.8"/>
<text text-anchor="middle" x="541.2354" y="-16.6" font-family="Times,serif" font-size="14.00" fill="#000000">Anti&#45;Aliasing Filter</text>
</g>
<!-- Filter60Hz&#45;&gt;AntiAliasing -->
<g id="edge4" class="edge">
<title>Filter60Hz&#45;&gt;AntiAliasing</title>
<path fill="none" stroke="#000000" d="M441.8572,-20.8C450.0804,-20.8 458.9262,-20.8 467.8289,-20.8"/>
<polygon fill="#000000" stroke="#000000" points="467.8744,-24.3001 477.8744,-20.8 467.8744,-17.3001 467.8744,-24.3001"/>
</g>
<!-- DAQ -->
<g id="node6" class="node">
<title>DAQ</title>
<polygon fill="none" stroke="#000000" points="839.8211,-38.8 640.5839,-38.8 640.5839,-2.8 839.8211,-2.8 839.8211,-38.8"/>
<text text-anchor="middle" x="740.2025" y="-16.6" font-family="Times,serif" font-size="14.00" fill="#000000">Data Acquisition System (DAQ)</text>
</g>
<!-- AntiAliasing&#45;&gt;DAQ -->
<g id="edge5" class="edge">
<title>AntiAliasing&#45;&gt;DAQ</title>
<path fill="none" stroke="#000000" d="M604.7369,-20.8C612.9111,-20.8 621.46,-20.8 630.1171,-20.8"/>
<polygon fill="#000000" stroke="#000000" points="630.3137,-24.3001 640.3136,-20.8 630.3136,-17.3001 630.3137,-24.3001"/>
</g>
</g>
</svg>
