<?xml version="1.0" encoding="UTF-8" standalone="no"?>
<!DOCTYPE svg PUBLIC "-//W3C//DTD SVG 1.1//EN"
 "http://www.w3.org/Graphics/SVG/1.1/DTD/svg11.dtd">
<!-- Generated by graphviz version 2.40.1 (20161225.0304)
 -->
<!-- Title: G Pages: 1 -->
<svg width="1397pt" height="186pt"
 viewBox="0.00 0.00 1397.47 186.00" xmlns="http://www.w3.org/2000/svg" xmlns:xlink="http://www.w3.org/1999/xlink">
<g id="graph0" class="graph" transform="scale(1 1) rotate(0) translate(4 182)">
<title>G</title>
<polygon fill="#ffffff" stroke="transparent" points="-4,4 -4,-182 1393.469,-182 1393.469,4 -4,4"/>
<g id="clust3" class="cluster">
<title>cluster_2</title>
<polygon fill="none" stroke="#000000" points="841.898,-93 841.898,-170 1381.469,-170 1381.469,-93 841.898,-93"/>
<text text-anchor="middle" x="1111.6835" y="-153.4" font-family="Times,serif" font-size="14.00" fill="#000000">Common Signal Path</text>
</g>
<g id="clust2" class="cluster">
<title>cluster_1</title>
<polygon fill="none" stroke="#000000" points="8,-8 8,-85 582.3064,-85 582.3064,-8 8,-8"/>
<text text-anchor="middle" x="295.1532" y="-68.4" font-family="Times,serif" font-size="14.00" fill="#000000">Temperature Signal Conditioning</text>
</g>
<g id="clust1" class="cluster">
<title>cluster_0</title>
<polygon fill="none" stroke="#000000" points="240.5594,-93 240.5594,-170 821.898,-170 821.898,-93 240.5594,-93"/>
<text text-anchor="middle" x="531.2287" y="-153.4" font-family="Times,serif" font-size="14.00" fill="#000000">Pressure Signal Conditioning</text>
</g>
<!-- PressureSensorArray -->
<g id="node1" class="node">
<title>PressureSensorArray</title>
<polygon fill="none" stroke="#000000" points="416.5417,-137 248.5653,-137 248.5653,-101 416.5417,-101 416.5417,-137"/>
<text text-anchor="middle" x="332.5535" y="-114.8" font-family="Times,serif" font-size="14.00" fill="#000000">Pressure Sensor Array (x8)</text>
</g>
<!-- InstrumentationAmplifier -->
<g id="node2" class="node">
<title>InstrumentationAmplifier</title>
<polygon fill="none" stroke="#000000" points="620.5572,-137 456.8508,-137 456.8508,-101 620.5572,-101 620.5572,-137"/>
<text text-anchor="middle" x="538.704" y="-114.8" font-family="Times,serif" font-size="14.00" fill="#000000">Instrumentation Amplifier</text>
</g>
<!-- PressureSensorArray&#45;&gt;InstrumentationAmplifier -->
<g id="edge1" class="edge">
<title>PressureSensorArray&#45;&gt;InstrumentationAmplifier</title>
<path fill="none" stroke="#000000" d="M416.7001,-119C426.5332,-119 436.6042,-119 446.5385,-119"/>
<polygon fill="#000000" stroke="#000000" points="446.8259,-122.5001 456.8259,-119 446.8259,-115.5001 446.8259,-122.5001"/>
</g>
<!-- LowPassFilter -->
<g id="node3" class="node">
<title>LowPassFilter</title>
<polygon fill="none" stroke="#000000" points="813.6575,-137 656.6209,-137 656.6209,-101 813.6575,-101 813.6575,-137"/>
<text text-anchor="middle" x="735.1392" y="-114.8" font-family="Times,serif" font-size="14.00" fill="#000000">Low Pass Filter (400 Hz)</text>
</g>
<!-- InstrumentationAmplifier&#45;&gt;LowPassFilter -->
<g id="edge2" class="edge">
<title>InstrumentationAmplifier&#45;&gt;LowPassFilter</title>
<path fill="none" stroke="#000000" d="M620.5878,-119C629.1379,-119 637.8579,-119 646.4788,-119"/>
<polygon fill="#000000" stroke="#000000" points="646.5373,-122.5001 656.5373,-119 646.5373,-115.5001 646.5373,-122.5001"/>
</g>
<!-- Multiplexer -->
<g id="node4" class="node">
<title>Multiplexer</title>
<polygon fill="none" stroke="#000000" points="969.6111,-137 849.9935,-137 849.9935,-101 969.6111,-101 969.6111,-137"/>
<text text-anchor="middle" x="909.8023" y="-114.8" font-family="Times,serif" font-size="14.00" fill="#000000">8&#45;to&#45;1 Multiplexer</text>
</g>
<!-- LowPassFilter&#45;&gt;Multiplexer -->
<g id="edge3" class="edge">
<title>LowPassFilter&#45;&gt;Multiplexer</title>
<path fill="none" stroke="#000000" d="M813.7845,-112.2798C822.4105,-112.2205 831.1507,-112.2498 839.6639,-112.3676"/>
<polygon fill="#000000" stroke="#000000" points="839.8503,-115.8715 849.9127,-112.5554 839.9785,-108.8727 839.8503,-115.8715"/>
</g>
<!-- LowPassFilter&#45;&gt;Multiplexer -->
<g id="edge9" class="edge">
<title>LowPassFilter&#45;&gt;Multiplexer</title>
<path fill="none" stroke="#000000" d="M813.7845,-125.7202C822.4105,-125.7795 831.1507,-125.7502 839.6639,-125.6324"/>
<polygon fill="#000000" stroke="#000000" points="839.9785,-129.1273 849.9127,-125.4446 839.8503,-122.1285 839.9785,-129.1273"/>
</g>
<!-- ADC -->
<g id="node5" class="node">
<title>ADC</title>
<polygon fill="none" stroke="#000000" points="1181.3839,-137 1005.8141,-137 1005.8141,-101 1181.3839,-101 1181.3839,-137"/>
<text text-anchor="middle" x="1093.599" y="-114.8" font-family="Times,serif" font-size="14.00" fill="#000000">Analog&#45;to&#45;Digital Converter</text>
</g>
<!-- Multiplexer&#45;&gt;ADC -->
<g id="edge4" class="edge">
<title>Multiplexer&#45;&gt;ADC</title>
<path fill="none" stroke="#000000" d="M969.7299,-119C978.1022,-119 986.879,-119 995.73,-119"/>
<polygon fill="#000000" stroke="#000000" points="995.737,-122.5001 1005.7369,-119 995.7369,-115.5001 995.737,-122.5001"/>
</g>
<!-- DataAcquisitionSystem -->
<g id="node6" class="node">
<title>DataAcquisitionSystem</title>
<polygon fill="none" stroke="#000000" points="1373.4578,-137 1217.5026,-137 1217.5026,-101 1373.4578,-101 1373.4578,-137"/>
<text text-anchor="middle" x="1295.4802" y="-114.8" font-family="Times,serif" font-size="14.00" fill="#000000">Data Acquisition System</text>
</g>
<!-- ADC&#45;&gt;DataAcquisitionSystem -->
<g id="edge5" class="edge">
<title>ADC&#45;&gt;DataAcquisitionSystem</title>
<path fill="none" stroke="#000000" d="M1181.5598,-119C1190.0204,-119 1198.6047,-119 1207.0696,-119"/>
<polygon fill="#000000" stroke="#000000" points="1207.3194,-122.5001 1217.3193,-119 1207.3193,-115.5001 1207.3194,-122.5001"/>
</g>
<!-- TemperatureSensorArray -->
<g id="node7" class="node">
<title>TemperatureSensorArray</title>
<polygon fill="none" stroke="#000000" points="208.1191,-52 15.9603,-52 15.9603,-16 208.1191,-16 208.1191,-52"/>
<text text-anchor="middle" x="112.0397" y="-29.8" font-family="Times,serif" font-size="14.00" fill="#000000">Temperature Sensor Array (x8)</text>
</g>
<!-- NonLinearCorrection -->
<g id="node8" class="node">
<title>NonLinearCorrection</title>
<polygon fill="none" stroke="#000000" points="421.0017,-52 244.1053,-52 244.1053,-16 421.0017,-16 421.0017,-52"/>
<text text-anchor="middle" x="332.5535" y="-29.8" font-family="Times,serif" font-size="14.00" fill="#000000">Non&#45;linear Correction Block</text>
</g>
<!-- TemperatureSensorArray&#45;&gt;NonLinearCorrection -->
<g id="edge6" class="edge">
<title>TemperatureSensorArray&#45;&gt;NonLinearCorrection</title>
<path fill="none" stroke="#000000" d="M208.1188,-34C216.711,-34 225.4201,-34 234.0325,-34"/>
<polygon fill="#000000" stroke="#000000" points="234.0856,-37.5001 244.0856,-34 234.0856,-30.5001 234.0856,-37.5001"/>
</g>
<!-- Amplifier -->
<g id="node9" class="node">
<title>Amplifier</title>
<polygon fill="none" stroke="#000000" points="574.4091,-52 502.9989,-52 502.9989,-16 574.4091,-16 574.4091,-52"/>
<text text-anchor="middle" x="538.704" y="-29.8" font-family="Times,serif" font-size="14.00" fill="#000000">Amplifier</text>
</g>
<!-- NonLinearCorrection&#45;&gt;Amplifier -->
<g id="edge7" class="edge">
<title>NonLinearCorrection&#45;&gt;Amplifier</title>
<path fill="none" stroke="#000000" d="M421.1763,-34C445.8223,-34 471.5929,-34 492.7006,-34"/>
<polygon fill="#000000" stroke="#000000" points="492.9719,-37.5001 502.9719,-34 492.9719,-30.5001 492.9719,-37.5001"/>
</g>
<!-- Amplifier&#45;&gt;LowPassFilter -->
<g id="edge8" class="edge">
<title>Amplifier&#45;&gt;LowPassFilter</title>
<path fill="none" stroke="#000000" d="M574.7332,-49.5903C605.3082,-62.8205 649.5419,-81.961 683.8182,-96.7928"/>
<polygon fill="#000000" stroke="#000000" points="682.6346,-100.0942 693.2022,-100.8533 685.4146,-93.6698 682.6346,-100.0942"/>
</g>
</g>
</svg>
