<?xml version="1.0" encoding="UTF-8" standalone="no"?>
<!DOCTYPE svg PUBLIC "-//W3C//DTD SVG 1.1//EN"
 "http://www.w3.org/Graphics/SVG/1.1/DTD/svg11.dtd">
<!-- Generated by graphviz version 2.40.1 (20161225.0304)
 -->
<!-- Title: G Pages: 1 -->
<svg width="1028pt" height="198pt"
 viewBox="0.00 0.00 1027.75 198.00" xmlns="http://www.w3.org/2000/svg" xmlns:xlink="http://www.w3.org/1999/xlink">
<g id="graph0" class="graph" transform="scale(1 1) rotate(0) translate(4 194)">
<title>G</title>
<polygon fill="#ffffff" stroke="transparent" points="-4,4 -4,-194 1023.7508,-194 1023.7508,4 -4,4"/>
<g id="clust2" class="cluster">
<title>cluster_1</title>
<polygon fill="none" stroke="#000000" points="8,-8 8,-91 405.5041,-91 405.5041,-8 8,-8"/>
<text text-anchor="middle" x="206.7521" y="-74.4" font-family="Times,serif" font-size="14.00" fill="#000000">Temperature Measurement Path</text>
</g>
<g id="clust1" class="cluster">
<title>cluster_0</title>
<polygon fill="none" stroke="#000000" points="30.1501,-99 30.1501,-182 620.98,-182 620.98,-99 30.1501,-99"/>
<text text-anchor="middle" x="325.5651" y="-165.4" font-family="Times,serif" font-size="14.00" fill="#000000">Pressure Measurement Path</text>
</g>
<!-- Pressure_Sensor_Array -->
<g id="node1" class="node">
<title>Pressure_Sensor_Array</title>
<polygon fill="none" stroke="#000000" points="179.4007,-148.6019 38.0665,-148.6019 38.0665,-107.3981 179.4007,-107.3981 179.4007,-148.6019"/>
<text text-anchor="middle" x="108.7336" y="-132.2" font-family="Times,serif" font-size="14.00" fill="#000000">Pressure Sensor Array</text>
<text text-anchor="middle" x="108.7336" y="-115.4" font-family="Times,serif" font-size="14.00" fill="#000000">(Strain&#45;Gauge Based)</text>
</g>
<!-- Instrumentation_Amplifier_Array -->
<g id="node2" class="node">
<title>Instrumentation_Amplifier_Array</title>
<polygon fill="none" stroke="#000000" points="437.2106,-148.6019 237.219,-148.6019 237.219,-107.3981 437.2106,-107.3981 437.2106,-148.6019"/>
<text text-anchor="middle" x="337.2148" y="-132.2" font-family="Times,serif" font-size="14.00" fill="#000000">Instrumentation Amplifier Array</text>
<text text-anchor="middle" x="337.2148" y="-115.4" font-family="Times,serif" font-size="14.00" fill="#000000">(Gain Adjustment)</text>
</g>
<!-- Pressure_Sensor_Array&#45;&gt;Instrumentation_Amplifier_Array -->
<g id="edge1" class="edge">
<title>Pressure_Sensor_Array&#45;&gt;Instrumentation_Amplifier_Array</title>
<path fill="none" stroke="#000000" d="M179.4618,-128C194.6565,-128 211.0587,-128 227.3423,-128"/>
<polygon fill="#000000" stroke="#000000" points="227.4541,-131.5001 237.454,-128 227.454,-124.5001 227.4541,-131.5001"/>
</g>
<!-- Low_Pass_Filter_Array -->
<g id="node3" class="node">
<title>Low_Pass_Filter_Array</title>
<polygon fill="none" stroke="#000000" points="612.9888,-148.6019 472.9536,-148.6019 472.9536,-107.3981 612.9888,-107.3981 612.9888,-148.6019"/>
<text text-anchor="middle" x="542.9712" y="-132.2" font-family="Times,serif" font-size="14.00" fill="#000000">Low Pass Filter Array</text>
<text text-anchor="middle" x="542.9712" y="-115.4" font-family="Times,serif" font-size="14.00" fill="#000000">(Anti&#45;Aliasing)</text>
</g>
<!-- Instrumentation_Amplifier_Array&#45;&gt;Low_Pass_Filter_Array -->
<g id="edge2" class="edge">
<title>Instrumentation_Amplifier_Array&#45;&gt;Low_Pass_Filter_Array</title>
<path fill="none" stroke="#000000" d="M437.0794,-128C445.6689,-128 454.2866,-128 462.6924,-128"/>
<polygon fill="#000000" stroke="#000000" points="462.8246,-131.5001 472.8246,-128 462.8245,-124.5001 462.8246,-131.5001"/>
</g>
<!-- Multiplexer -->
<g id="node4" class="node">
<title>Multiplexer</title>
<polygon fill="none" stroke="#000000" points="731.1253,-148.6019 648.9315,-148.6019 648.9315,-107.3981 731.1253,-107.3981 731.1253,-148.6019"/>
<text text-anchor="middle" x="690.0284" y="-132.2" font-family="Times,serif" font-size="14.00" fill="#000000">Multiplexer</text>
<text text-anchor="middle" x="690.0284" y="-115.4" font-family="Times,serif" font-size="14.00" fill="#000000">(8&#45;to&#45;1)</text>
</g>
<!-- Low_Pass_Filter_Array&#45;&gt;Multiplexer -->
<g id="edge3" class="edge">
<title>Low_Pass_Filter_Array&#45;&gt;Multiplexer</title>
<path fill="none" stroke="#000000" d="M613.0543,-121.2566C621.6888,-121.2235 630.3867,-121.3148 638.6705,-121.5305"/>
<polygon fill="#000000" stroke="#000000" points="638.7953,-125.0364 648.9059,-121.8701 639.0275,-118.0403 638.7953,-125.0364"/>
</g>
<!-- Low_Pass_Filter_Array&#45;&gt;Multiplexer -->
<g id="edge8" class="edge">
<title>Low_Pass_Filter_Array&#45;&gt;Multiplexer</title>
<path fill="none" stroke="#000000" d="M613.0543,-134.7434C621.6888,-134.7765 630.3867,-134.6852 638.6705,-134.4695"/>
<polygon fill="#000000" stroke="#000000" points="639.0275,-137.9597 648.9059,-134.1299 638.7953,-130.9636 639.0275,-137.9597"/>
</g>
<!-- ADC -->
<g id="node5" class="node">
<title>ADC</title>
<polygon fill="none" stroke="#000000" points="883.538,-157.4014 766.9228,-157.4014 766.9228,-98.5986 883.538,-98.5986 883.538,-157.4014"/>
<text text-anchor="middle" x="825.2304" y="-140.6" font-family="Times,serif" font-size="14.00" fill="#000000">Analog&#45;to&#45;Digital</text>
<text text-anchor="middle" x="825.2304" y="-123.8" font-family="Times,serif" font-size="14.00" fill="#000000">Converter (ADC)</text>
<text text-anchor="middle" x="825.2304" y="-107" font-family="Times,serif" font-size="14.00" fill="#000000">(Serial Output)</text>
</g>
<!-- Multiplexer&#45;&gt;ADC -->
<g id="edge4" class="edge">
<title>Multiplexer&#45;&gt;ADC</title>
<path fill="none" stroke="#000000" d="M731.3281,-128C739.3656,-128 747.9908,-128 756.6376,-128"/>
<polygon fill="#000000" stroke="#000000" points="756.7643,-131.5001 766.7643,-128 756.7643,-124.5001 756.7643,-131.5001"/>
</g>
<!-- Data_Interface -->
<g id="node6" class="node">
<title>Data_Interface</title>
<polygon fill="none" stroke="#000000" points="1019.9349,-148.6019 919.1999,-148.6019 919.1999,-107.3981 1019.9349,-107.3981 1019.9349,-148.6019"/>
<text text-anchor="middle" x="969.5674" y="-132.2" font-family="Times,serif" font-size="14.00" fill="#000000">Data Interface</text>
<text text-anchor="middle" x="969.5674" y="-115.4" font-family="Times,serif" font-size="14.00" fill="#000000">(To Computer)</text>
</g>
<!-- ADC&#45;&gt;Data_Interface -->
<g id="edge5" class="edge">
<title>ADC&#45;&gt;Data_Interface</title>
<path fill="none" stroke="#000000" d="M883.5217,-128C891.8653,-128 900.466,-128 908.8548,-128"/>
<polygon fill="#000000" stroke="#000000" points="908.9507,-131.5001 918.9507,-128 908.9506,-124.5001 908.9507,-131.5001"/>
</g>
<!-- Temperature_Sensor_Array -->
<g id="node7" class="node">
<title>Temperature_Sensor_Array</title>
<polygon fill="none" stroke="#000000" points="201.7014,-57.6019 15.7658,-57.6019 15.7658,-16.3981 201.7014,-16.3981 201.7014,-57.6019"/>
<text text-anchor="middle" x="108.7336" y="-41.2" font-family="Times,serif" font-size="14.00" fill="#000000">Temperature Sensor Array</text>
<text text-anchor="middle" x="108.7336" y="-24.4" font-family="Times,serif" font-size="14.00" fill="#000000">(Infrared Radiation Detectors)</text>
</g>
<!-- Non_Linear_Signal_Conditioning -->
<g id="node8" class="node">
<title>Non_Linear_Signal_Conditioning</title>
<polygon fill="none" stroke="#000000" points="397.2941,-57.6019 277.1355,-57.6019 277.1355,-16.3981 397.2941,-16.3981 397.2941,-57.6019"/>
<text text-anchor="middle" x="337.2148" y="-41.2" font-family="Times,serif" font-size="14.00" fill="#000000">Non&#45;Linear Signal</text>
<text text-anchor="middle" x="337.2148" y="-24.4" font-family="Times,serif" font-size="14.00" fill="#000000">Conditioning</text>
</g>
<!-- Temperature_Sensor_Array&#45;&gt;Non_Linear_Signal_Conditioning -->
<g id="edge6" class="edge">
<title>Temperature_Sensor_Array&#45;&gt;Non_Linear_Signal_Conditioning</title>
<path fill="none" stroke="#000000" d="M201.6657,-37C223.438,-37 246.2809,-37 266.878,-37"/>
<polygon fill="#000000" stroke="#000000" points="267.1094,-40.5001 277.1094,-37 267.1093,-33.5001 267.1094,-40.5001"/>
</g>
<!-- Non_Linear_Signal_Conditioning&#45;&gt;Low_Pass_Filter_Array -->
<g id="edge7" class="edge">
<title>Non_Linear_Signal_Conditioning&#45;&gt;Low_Pass_Filter_Array</title>
<path fill="none" stroke="#000000" d="M383.9041,-57.6493C414.4441,-71.1563 454.5137,-88.8778 486.7955,-103.1551"/>
<polygon fill="#000000" stroke="#000000" points="485.5498,-106.4312 496.111,-107.2751 488.3812,-100.0293 485.5498,-106.4312"/>
</g>
</g>
</svg>
