<?xml version="1.0" encoding="UTF-8" standalone="no"?>
<!DOCTYPE svg PUBLIC "-//W3C//DTD SVG 1.1//EN"
 "http://www.w3.org/Graphics/SVG/1.1/DTD/svg11.dtd">
<!-- Generated by graphviz version 2.40.1 (20161225.0304)
 -->
<!-- Title: G Pages: 1 -->
<svg width="1104pt" height="186pt"
 viewBox="0.00 0.00 1103.79 186.00" xmlns="http://www.w3.org/2000/svg" xmlns:xlink="http://www.w3.org/1999/xlink">
<g id="graph0" class="graph" transform="scale(1 1) rotate(0) translate(4 182)">
<title>G</title>
<polygon fill="#ffffff" stroke="transparent" points="-4,4 -4,-182 1099.7928,-182 1099.7928,4 -4,4"/>
<g id="clust2" class="cluster">
<title>cluster_1</title>
<polygon fill="none" stroke="#000000" points="8,-8 8,-85 196.2582,-85 196.2582,-8 8,-8"/>
<text text-anchor="middle" x="102.1291" y="-68.4" font-family="Times,serif" font-size="14.00" fill="#000000">Temperature Sensors (x8)</text>
</g>
<g id="clust1" class="cluster">
<title>cluster_0</title>
<polygon fill="none" stroke="#000000" points="20.0456,-93 20.0456,-170 184.2126,-170 184.2126,-93 20.0456,-93"/>
<text text-anchor="middle" x="102.1291" y="-153.4" font-family="Times,serif" font-size="14.00" fill="#000000">Pressure Sensors (x8)</text>
</g>
<!-- Pressure_Sensor_Array -->
<g id="node1" class="node">
<title>Pressure_Sensor_Array</title>
<polygon fill="none" stroke="#000000" points="176.2962,-137 27.962,-137 27.962,-101 176.2962,-101 176.2962,-137"/>
<text text-anchor="middle" x="102.1291" y="-114.8" font-family="Times,serif" font-size="14.00" fill="#000000">Pressure_Sensor_Array</text>
</g>
<!-- Signal_Conditioning_Block_Pressure -->
<g id="node2" class="node">
<title>Signal_Conditioning_Block_Pressure</title>
<polygon fill="none" stroke="#000000" points="463.6164,-129 236.5326,-129 236.5326,-93 463.6164,-93 463.6164,-129"/>
<text text-anchor="middle" x="350.0745" y="-106.8" font-family="Times,serif" font-size="14.00" fill="#000000">Signal_Conditioning_Block_Pressure</text>
</g>
<!-- Pressure_Sensor_Array&#45;&gt;Signal_Conditioning_Block_Pressure -->
<g id="edge1" class="edge">
<title>Pressure_Sensor_Array&#45;&gt;Signal_Conditioning_Block_Pressure</title>
<path fill="none" stroke="#000000" d="M176.5209,-116.5997C192.2608,-116.0919 209.2773,-115.5428 226.2892,-114.994"/>
<polygon fill="#000000" stroke="#000000" points="226.4133,-118.4919 236.2952,-114.6711 226.1875,-111.4955 226.4133,-118.4919"/>
</g>
<!-- Multiplexer -->
<g id="node5" class="node">
<title>Multiplexer</title>
<polygon fill="none" stroke="#000000" points="594.0361,-98 511.8423,-98 511.8423,-62 594.0361,-62 594.0361,-98"/>
<text text-anchor="middle" x="552.9392" y="-75.8" font-family="Times,serif" font-size="14.00" fill="#000000">Multiplexer</text>
</g>
<!-- Signal_Conditioning_Block_Pressure&#45;&gt;Multiplexer -->
<g id="edge3" class="edge">
<title>Signal_Conditioning_Block_Pressure&#45;&gt;Multiplexer</title>
<path fill="none" stroke="#000000" d="M463.6646,-93.6422C476.9695,-91.609 489.9913,-89.6191 501.7964,-87.8152"/>
<polygon fill="#000000" stroke="#000000" points="502.4775,-91.2518 511.834,-86.2813 501.42,-84.3322 502.4775,-91.2518"/>
</g>
<!-- Temperature_Sensor_Array -->
<g id="node3" class="node">
<title>Temperature_Sensor_Array</title>
<polygon fill="none" stroke="#000000" points="188.3875,-52 15.8707,-52 15.8707,-16 188.3875,-16 188.3875,-52"/>
<text text-anchor="middle" x="102.1291" y="-29.8" font-family="Times,serif" font-size="14.00" fill="#000000">Temperature_Sensor_Array</text>
</g>
<!-- Signal_Conditioning_Block_Temperature -->
<g id="node4" class="node">
<title>Signal_Conditioning_Block_Temperature</title>
<polygon fill="none" stroke="#000000" points="475.7074,-67 224.4416,-67 224.4416,-31 475.7074,-31 475.7074,-67"/>
<text text-anchor="middle" x="350.0745" y="-44.8" font-family="Times,serif" font-size="14.00" fill="#000000">Signal_Conditioning_Block_Temperature</text>
</g>
<!-- Temperature_Sensor_Array&#45;&gt;Signal_Conditioning_Block_Temperature -->
<g id="edge2" class="edge">
<title>Temperature_Sensor_Array&#45;&gt;Signal_Conditioning_Block_Temperature</title>
<path fill="none" stroke="#000000" d="M188.5003,-39.2252C196.8378,-39.7296 205.426,-40.2492 214.0931,-40.7735"/>
<polygon fill="#000000" stroke="#000000" points="214.1005,-44.2803 224.2937,-41.3906 214.5233,-37.293 214.1005,-44.2803"/>
</g>
<!-- Signal_Conditioning_Block_Temperature&#45;&gt;Multiplexer -->
<g id="edge4" class="edge">
<title>Signal_Conditioning_Block_Temperature&#45;&gt;Multiplexer</title>
<path fill="none" stroke="#000000" d="M468.0817,-67.0328C479.7183,-68.811 491.0558,-70.5435 501.459,-72.1332"/>
<polygon fill="#000000" stroke="#000000" points="501.1132,-75.621 511.5272,-73.6718 502.1707,-68.7013 501.1132,-75.621"/>
</g>
<!-- Anti_Aliasing_Filter -->
<g id="node6" class="node">
<title>Anti_Aliasing_Filter</title>
<polygon fill="none" stroke="#000000" points="762.4705,-98 630.1597,-98 630.1597,-62 762.4705,-62 762.4705,-98"/>
<text text-anchor="middle" x="696.3151" y="-75.8" font-family="Times,serif" font-size="14.00" fill="#000000">Anti_Aliasing_Filter</text>
</g>
<!-- Multiplexer&#45;&gt;Anti_Aliasing_Filter -->
<g id="edge5" class="edge">
<title>Multiplexer&#45;&gt;Anti_Aliasing_Filter</title>
<path fill="none" stroke="#000000" d="M594.025,-80C602.2016,-80 611.0321,-80 619.9595,-80"/>
<polygon fill="#000000" stroke="#000000" points="620.0504,-83.5001 630.0503,-80 620.0503,-76.5001 620.0504,-83.5001"/>
</g>
<!-- ADC -->
<g id="node7" class="node">
<title>ADC</title>
<polygon fill="none" stroke="#000000" points="852.6426,-98 798.6426,-98 798.6426,-62 852.6426,-62 852.6426,-98"/>
<text text-anchor="middle" x="825.6426" y="-75.8" font-family="Times,serif" font-size="14.00" fill="#000000">ADC</text>
</g>
<!-- Anti_Aliasing_Filter&#45;&gt;ADC -->
<g id="edge6" class="edge">
<title>Anti_Aliasing_Filter&#45;&gt;ADC</title>
<path fill="none" stroke="#000000" d="M762.4943,-80C771.3094,-80 780.0868,-80 788.171,-80"/>
<polygon fill="#000000" stroke="#000000" points="788.344,-83.5001 798.344,-80 788.344,-76.5001 788.344,-83.5001"/>
</g>
<!-- Data_Interface -->
<g id="node8" class="node">
<title>Data_Interface</title>
<polygon fill="none" stroke="#000000" points="987.8785,-98 888.5639,-98 888.5639,-62 987.8785,-62 987.8785,-98"/>
<text text-anchor="middle" x="938.2212" y="-75.8" font-family="Times,serif" font-size="14.00" fill="#000000">Data_Interface</text>
</g>
<!-- ADC&#45;&gt;Data_Interface -->
<g id="edge7" class="edge">
<title>ADC&#45;&gt;Data_Interface</title>
<path fill="none" stroke="#000000" d="M852.8947,-80C860.6487,-80 869.415,-80 878.3025,-80"/>
<polygon fill="#000000" stroke="#000000" points="878.3407,-83.5001 888.3407,-80 878.3407,-76.5001 878.3407,-83.5001"/>
</g>
<!-- Computer -->
<g id="node9" class="node">
<title>Computer</title>
<polygon fill="none" stroke="#000000" points="1095.7893,-98 1023.8033,-98 1023.8033,-62 1095.7893,-62 1095.7893,-98"/>
<text text-anchor="middle" x="1059.7963" y="-75.8" font-family="Times,serif" font-size="14.00" fill="#000000">Computer</text>
</g>
<!-- Data_Interface&#45;&gt;Computer -->
<g id="edge8" class="edge">
<title>Data_Interface&#45;&gt;Computer</title>
<path fill="none" stroke="#000000" d="M988.0212,-80C996.4128,-80 1005.0934,-80 1013.3943,-80"/>
<polygon fill="#000000" stroke="#000000" points="1013.6554,-83.5001 1023.6553,-80 1013.6553,-76.5001 1013.6554,-83.5001"/>
</g>
</g>
</svg>
