<?xml version="1.0" encoding="UTF-8" standalone="no"?>
<!DOCTYPE svg PUBLIC "-//W3C//DTD SVG 1.1//EN"
 "http://www.w3.org/Graphics/SVG/1.1/DTD/svg11.dtd">
<!-- Generated by graphviz version 2.40.1 (20161225.0304)
 -->
<!-- Title: G Pages: 1 -->
<svg width="967pt" height="98pt"
 viewBox="0.00 0.00 966.86 98.00" xmlns="http://www.w3.org/2000/svg" xmlns:xlink="http://www.w3.org/1999/xlink">
<g id="graph0" class="graph" transform="scale(1 1) rotate(0) translate(4 94)">
<title>G</title>
<polygon fill="#ffffff" stroke="transparent" points="-4,4 -4,-94 962.8622,-94 962.8622,4 -4,4"/>
<!-- Accelerometer -->
<g id="node1" class="node">
<title>Accelerometer</title>
<polygon fill="none" stroke="#000000" points="98.5816,-36 -.1944,-36 -.1944,0 98.5816,0 98.5816,-36"/>
<text text-anchor="middle" x="49.1936" y="-13.8" font-family="Times,serif" font-size="14.00" fill="#000000">Accelerometer</text>
</g>
<!-- Charge Amplifier -->
<g id="node2" class="node">
<title>Charge Amplifier</title>
<polygon fill="none" stroke="#000000" points="249.5841,-36 134.3215,-36 134.3215,0 249.5841,0 249.5841,-36"/>
<text text-anchor="middle" x="191.9528" y="-13.8" font-family="Times,serif" font-size="14.00" fill="#000000">Charge Amplifier</text>
</g>
<!-- Accelerometer&#45;&gt;Charge Amplifier -->
<g id="edge1" class="edge">
<title>Accelerometer&#45;&gt;Charge Amplifier</title>
<path fill="none" stroke="#000000" d="M98.7232,-18C106.9425,-18 115.5895,-18 124.1672,-18"/>
<polygon fill="#000000" stroke="#000000" points="124.175,-21.5001 134.1749,-18 124.1749,-14.5001 124.175,-21.5001"/>
</g>
<!-- Low&#45;pass Filter -->
<g id="node3" class="node">
<title>Low&#45;pass Filter</title>
<polygon fill="none" stroke="#000000" points="389.8985,-36 285.3915,-36 285.3915,0 389.8985,0 389.8985,-36"/>
<text text-anchor="middle" x="337.645" y="-13.8" font-family="Times,serif" font-size="14.00" fill="#000000">Low&#45;pass Filter</text>
</g>
<!-- Charge Amplifier&#45;&gt;Low&#45;pass Filter -->
<g id="edge2" class="edge">
<title>Charge Amplifier&#45;&gt;Low&#45;pass Filter</title>
<path fill="none" stroke="#000000" d="M249.5342,-18C257.9031,-18 266.5534,-18 275.0161,-18"/>
<polygon fill="#000000" stroke="#000000" points="275.2141,-21.5001 285.214,-18 275.214,-14.5001 275.2141,-21.5001"/>
</g>
<!-- Instrumentation Amplifier -->
<g id="node4" class="node">
<title>Instrumentation Amplifier</title>
<polygon fill="none" stroke="#000000" points="589.3012,-36 425.5948,-36 425.5948,0 589.3012,0 589.3012,-36"/>
<text text-anchor="middle" x="507.448" y="-13.8" font-family="Times,serif" font-size="14.00" fill="#000000">Instrumentation Amplifier</text>
</g>
<!-- Low&#45;pass Filter&#45;&gt;Instrumentation Amplifier -->
<g id="edge3" class="edge">
<title>Low&#45;pass Filter&#45;&gt;Instrumentation Amplifier</title>
<path fill="none" stroke="#000000" d="M389.977,-18C398.1016,-18 406.6951,-18 415.3895,-18"/>
<polygon fill="#000000" stroke="#000000" points="415.6201,-21.5001 425.6201,-18 415.6201,-14.5001 415.6201,-21.5001"/>
</g>
<!-- ADC -->
<g id="node5" class="node">
<title>ADC</title>
<polygon fill="none" stroke="#000000" points="679.1244,-36 625.1244,-36 625.1244,0 679.1244,0 679.1244,-36"/>
<text text-anchor="middle" x="652.1244" y="-13.8" font-family="Times,serif" font-size="14.00" fill="#000000">ADC</text>
</g>
<!-- Instrumentation Amplifier&#45;&gt;ADC -->
<g id="edge4" class="edge">
<title>Instrumentation Amplifier&#45;&gt;ADC</title>
<path fill="none" stroke="#000000" d="M589.5087,-18C598.278,-18 606.8532,-18 614.7061,-18"/>
<polygon fill="#000000" stroke="#000000" points="614.9172,-21.5001 624.9172,-18 614.9172,-14.5001 614.9172,-21.5001"/>
</g>
<!-- Digital Processing -->
<g id="node6" class="node">
<title>Digital Processing</title>
<polygon fill="none" stroke="#000000" points="836.122,-90 717.0504,-90 717.0504,-54 836.122,-54 836.122,-90"/>
<text text-anchor="middle" x="776.5862" y="-67.8" font-family="Times,serif" font-size="14.00" fill="#000000">Digital Processing</text>
</g>
<!-- ADC&#45;&gt;Digital Processing -->
<g id="edge5" class="edge">
<title>ADC&#45;&gt;Digital Processing</title>
<path fill="none" stroke="#000000" d="M679.1308,-29.7172C692.7572,-35.6293 709.7433,-42.999 725.6995,-49.9219"/>
<polygon fill="#000000" stroke="#000000" points="724.3753,-53.1625 734.9421,-53.932 727.1615,-46.7409 724.3753,-53.1625"/>
</g>
<!-- Anti&#45;aliasing Filter -->
<g id="node7" class="node">
<title>Anti&#45;aliasing Filter</title>
<polygon fill="none" stroke="#000000" points="838.0098,-36 715.1626,-36 715.1626,0 838.0098,0 838.0098,-36"/>
<text text-anchor="middle" x="776.5862" y="-13.8" font-family="Times,serif" font-size="14.00" fill="#000000">Anti&#45;aliasing Filter</text>
</g>
<!-- ADC&#45;&gt;Anti&#45;aliasing Filter -->
<g id="edge6" class="edge">
<title>ADC&#45;&gt;Anti&#45;aliasing Filter</title>
<path fill="none" stroke="#000000" d="M679.1308,-12.3216C686.9538,-11.7857 695.8843,-11.4508 705.0914,-11.3169"/>
<polygon fill="#000000" stroke="#000000" points="705.1749,-14.8165 715.1515,-11.2505 705.1286,-7.8167 705.1749,-14.8165"/>
</g>
<!-- Data Output -->
<g id="node8" class="node">
<title>Data Output</title>
<polygon fill="none" stroke="#000000" points="958.7695,-90 874.1407,-90 874.1407,-54 958.7695,-54 958.7695,-90"/>
<text text-anchor="middle" x="916.4551" y="-67.8" font-family="Times,serif" font-size="14.00" fill="#000000">Data Output</text>
</g>
<!-- Digital Processing&#45;&gt;Data Output -->
<g id="edge8" class="edge">
<title>Digital Processing&#45;&gt;Data Output</title>
<path fill="none" stroke="#000000" d="M836.3089,-72C845.3813,-72 854.6881,-72 863.6006,-72"/>
<polygon fill="#000000" stroke="#000000" points="863.8444,-75.5001 873.8443,-72 863.8443,-68.5001 863.8444,-75.5001"/>
</g>
<!-- Anti&#45;aliasing Filter&#45;&gt;ADC -->
<g id="edge7" class="edge">
<title>Anti&#45;aliasing Filter&#45;&gt;ADC</title>
<path fill="none" stroke="#000000" d="M715.1515,-24.7495C706.3474,-24.7604 697.5221,-24.5911 689.3805,-24.2416"/>
<polygon fill="#000000" stroke="#000000" points="689.3078,-20.7324 679.1308,-23.6784 688.9236,-27.7219 689.3078,-20.7324"/>
</g>
</g>
</svg>
