<?xml version="1.0" encoding="UTF-8" standalone="no"?>
<!DOCTYPE svg PUBLIC "-//W3C//DTD SVG 1.1//EN"
 "http://www.w3.org/Graphics/SVG/1.1/DTD/svg11.dtd">
<!-- Generated by graphviz version 2.40.1 (20161225.0304)
 -->
<!-- Title: G Pages: 1 -->
<svg width="1248pt" height="98pt"
 viewBox="0.00 0.00 1247.75 98.00" xmlns="http://www.w3.org/2000/svg" xmlns:xlink="http://www.w3.org/1999/xlink">
<g id="graph0" class="graph" transform="scale(1 1) rotate(0) translate(4 94)">
<title>G</title>
<polygon fill="#ffffff" stroke="transparent" points="-4,4 -4,-94 1243.753,-94 1243.753,4 -4,4"/>
<!-- Pressure_Sensor_Array -->
<g id="node1" class="node">
<title>Pressure_Sensor_Array</title>
<polygon fill="none" stroke="#000000" points="180.0279,-90 12.0515,-90 12.0515,-54 180.0279,-54 180.0279,-90"/>
<text text-anchor="middle" x="96.0397" y="-67.8" font-family="Times,serif" font-size="14.00" fill="#000000">Pressure Sensor Array (x8)</text>
</g>
<!-- Pressure_Signal_Conditioning -->
<g id="node3" class="node">
<title>Pressure_Signal_Conditioning</title>
<polygon fill="none" stroke="#000000" points="447.0062,-90 240.1646,-90 240.1646,-54 447.0062,-54 447.0062,-90"/>
<text text-anchor="middle" x="343.5854" y="-67.8" font-family="Times,serif" font-size="14.00" fill="#000000">Pressure Signal Conditioning (x8)</text>
</g>
<!-- Pressure_Sensor_Array&#45;&gt;Pressure_Signal_Conditioning -->
<g id="edge1" class="edge">
<title>Pressure_Sensor_Array&#45;&gt;Pressure_Signal_Conditioning</title>
<path fill="none" stroke="#000000" d="M180.1928,-72C196.0948,-72 212.9722,-72 229.612,-72"/>
<polygon fill="#000000" stroke="#000000" points="229.931,-75.5001 239.931,-72 229.931,-68.5001 229.931,-75.5001"/>
</g>
<!-- Temp_Sensor_Array -->
<g id="node2" class="node">
<title>Temp_Sensor_Array</title>
<polygon fill="none" stroke="#000000" points="192.1191,-36 -.0397,-36 -.0397,0 192.1191,0 192.1191,-36"/>
<text text-anchor="middle" x="96.0397" y="-13.8" font-family="Times,serif" font-size="14.00" fill="#000000">Temperature Sensor Array (x8)</text>
</g>
<!-- Temp_Signal_Conditioning -->
<g id="node4" class="node">
<title>Temp_Signal_Conditioning</title>
<polygon fill="none" stroke="#000000" points="459.0974,-36 228.0734,-36 228.0734,0 459.0974,0 459.0974,-36"/>
<text text-anchor="middle" x="343.5854" y="-13.8" font-family="Times,serif" font-size="14.00" fill="#000000">Temperature Signal Conditioning (x8)</text>
</g>
<!-- Temp_Sensor_Array&#45;&gt;Temp_Signal_Conditioning -->
<g id="edge2" class="edge">
<title>Temp_Sensor_Array&#45;&gt;Temp_Signal_Conditioning</title>
<path fill="none" stroke="#000000" d="M192.1016,-18C200.5023,-18 209.0824,-18 217.6763,-18"/>
<polygon fill="#000000" stroke="#000000" points="217.7612,-21.5001 227.7612,-18 217.7611,-14.5001 217.7612,-21.5001"/>
</g>
<!-- Multiplexer -->
<g id="node5" class="node">
<title>Multiplexer</title>
<polygon fill="none" stroke="#000000" points="659.3727,-63 495.3305,-63 495.3305,-27 659.3727,-27 659.3727,-63"/>
<text text-anchor="middle" x="577.3516" y="-40.8" font-family="Times,serif" font-size="14.00" fill="#000000">8&#45;to&#45;1 Analog Multiplexer</text>
</g>
<!-- Pressure_Signal_Conditioning&#45;&gt;Multiplexer -->
<g id="edge3" class="edge">
<title>Pressure_Signal_Conditioning&#45;&gt;Multiplexer</title>
<path fill="none" stroke="#000000" d="M447.1395,-60.0395C459.8597,-58.5703 472.7931,-57.0765 485.3268,-55.6289"/>
<polygon fill="#000000" stroke="#000000" points="485.7487,-59.1035 495.2811,-54.4791 484.9455,-52.1497 485.7487,-59.1035"/>
</g>
<!-- Temp_Signal_Conditioning&#45;&gt;Multiplexer -->
<g id="edge4" class="edge">
<title>Temp_Signal_Conditioning&#45;&gt;Multiplexer</title>
<path fill="none" stroke="#000000" d="M459.0988,-31.3418C467.8625,-32.354 476.6365,-33.3674 485.2237,-34.3592"/>
<polygon fill="#000000" stroke="#000000" points="484.871,-37.8417 495.2066,-35.5123 485.6743,-30.8879 484.871,-37.8417"/>
</g>
<!-- Anti_Alias_Filter -->
<g id="node6" class="node">
<title>Anti_Alias_Filter</title>
<polygon fill="none" stroke="#000000" points="822.3353,-63 695.7039,-63 695.7039,-27 822.3353,-27 822.3353,-63"/>
<text text-anchor="middle" x="759.0196" y="-40.8" font-family="Times,serif" font-size="14.00" fill="#000000">Anti&#45;Aliasing Filter</text>
</g>
<!-- Multiplexer&#45;&gt;Anti_Alias_Filter -->
<g id="edge5" class="edge">
<title>Multiplexer&#45;&gt;Anti_Alias_Filter</title>
<path fill="none" stroke="#000000" d="M659.416,-45C668.0396,-45 676.7696,-45 685.2912,-45"/>
<polygon fill="#000000" stroke="#000000" points="685.5612,-48.5001 695.5612,-45 685.5611,-41.5001 685.5612,-48.5001"/>
</g>
<!-- ADC -->
<g id="node7" class="node">
<title>ADC</title>
<polygon fill="none" stroke="#000000" points="1034.1047,-63 858.5349,-63 858.5349,-27 1034.1047,-27 1034.1047,-63"/>
<text text-anchor="middle" x="946.3198" y="-40.8" font-family="Times,serif" font-size="14.00" fill="#000000">Analog&#45;to&#45;Digital Converter</text>
</g>
<!-- Anti_Alias_Filter&#45;&gt;ADC -->
<g id="edge6" class="edge">
<title>Anti_Alias_Filter&#45;&gt;ADC</title>
<path fill="none" stroke="#000000" d="M822.4309,-45C830.7453,-45 839.416,-45 848.1392,-45"/>
<polygon fill="#000000" stroke="#000000" points="848.3854,-48.5001 858.3853,-45 848.3853,-41.5001 848.3854,-48.5001"/>
</g>
<!-- Data_Interface -->
<g id="node8" class="node">
<title>Data_Interface</title>
<polygon fill="none" stroke="#000000" points="1239.524,-63 1070.4412,-63 1070.4412,-27 1239.524,-27 1239.524,-63"/>
<text text-anchor="middle" x="1154.9826" y="-40.8" font-family="Times,serif" font-size="14.00" fill="#000000">Data Interface to Computer</text>
</g>
<!-- ADC&#45;&gt;Data_Interface -->
<g id="edge7" class="edge">
<title>ADC&#45;&gt;Data_Interface</title>
<path fill="none" stroke="#000000" d="M1034.2068,-45C1042.7726,-45 1051.49,-45 1060.1203,-45"/>
<polygon fill="#000000" stroke="#000000" points="1060.1973,-48.5001 1070.1972,-45 1060.1972,-41.5001 1060.1973,-48.5001"/>
</g>
</g>
</svg>
