<?xml version="1.0" encoding="UTF-8" standalone="no"?>
<!DOCTYPE svg PUBLIC "-//W3C//DTD SVG 1.1//EN"
 "http://www.w3.org/Graphics/SVG/1.1/DTD/svg11.dtd">
<!-- Generated by graphviz version 2.40.1 (20161225.0304)
 -->
<!-- Title: G Pages: 1 -->
<svg width="1341pt" height="198pt"
 viewBox="0.00 0.00 1341.00 198.00" xmlns="http://www.w3.org/2000/svg" xmlns:xlink="http://www.w3.org/1999/xlink">
<g id="graph0" class="graph" transform="scale(1 1) rotate(0) translate(4 194)">
<title>G</title>
<polygon fill="#ffffff" stroke="transparent" points="-4,4 -4,-194 1337.0034,-194 1337.0034,4 -4,4"/>
<g id="clust2" class="cluster">
<title>cluster_1</title>
<polygon fill="none" stroke="#000000" points="8,-8 8,-91 890.302,-91 890.302,-8 8,-8"/>
<text text-anchor="middle" x="449.151" y="-74.4" font-family="Times,serif" font-size="14.00" fill="#000000">Temperature Signal Conditioning</text>
</g>
<g id="clust1" class="cluster">
<title>cluster_0</title>
<polygon fill="none" stroke="#000000" points="253.97,-99 253.97,-182 878.8318,-182 878.8318,-99 253.97,-99"/>
<text text-anchor="middle" x="566.4009" y="-165.4" font-family="Times,serif" font-size="14.00" fill="#000000">Pressure Signal Conditioning</text>
</g>
<!-- Pressure_Sensor_Array -->
<g id="node1" class="node">
<title>Pressure_Sensor_Array</title>
<polygon fill="none" stroke="#000000" points="403.2206,-148.6019 261.8864,-148.6019 261.8864,-107.3981 403.2206,-107.3981 403.2206,-148.6019"/>
<text text-anchor="middle" x="332.5535" y="-132.2" font-family="Times,serif" font-size="14.00" fill="#000000">Pressure Sensor Array</text>
<text text-anchor="middle" x="332.5535" y="-115.4" font-family="Times,serif" font-size="14.00" fill="#000000">(Strain Gauge)</text>
</g>
<!-- Instrumentation_Amplifier_Array -->
<g id="node2" class="node">
<title>Instrumentation_Amplifier_Array</title>
<polygon fill="none" stroke="#000000" points="683.5922,-146 483.6006,-146 483.6006,-110 683.5922,-110 683.5922,-146"/>
<text text-anchor="middle" x="583.5964" y="-123.8" font-family="Times,serif" font-size="14.00" fill="#000000">Instrumentation Amplifier Array</text>
</g>
<!-- Pressure_Sensor_Array&#45;&gt;Instrumentation_Amplifier_Array -->
<g id="edge1" class="edge">
<title>Pressure_Sensor_Array&#45;&gt;Instrumentation_Amplifier_Array</title>
<path fill="none" stroke="#000000" d="M403.151,-128C424.9771,-128 449.563,-128 473.4004,-128"/>
<polygon fill="#000000" stroke="#000000" points="473.5604,-131.5001 483.5604,-128 473.5604,-124.5001 473.5604,-131.5001"/>
</g>
<!-- Low_Pass_Filter_Array -->
<g id="node3" class="node">
<title>Low_Pass_Filter_Array</title>
<polygon fill="none" stroke="#000000" points="870.8406,-148.6019 730.8054,-148.6019 730.8054,-107.3981 870.8406,-107.3981 870.8406,-148.6019"/>
<text text-anchor="middle" x="800.823" y="-132.2" font-family="Times,serif" font-size="14.00" fill="#000000">Low Pass Filter Array</text>
<text text-anchor="middle" x="800.823" y="-115.4" font-family="Times,serif" font-size="14.00" fill="#000000">(Cutoff: 400 Hz)</text>
</g>
<!-- Instrumentation_Amplifier_Array&#45;&gt;Low_Pass_Filter_Array -->
<g id="edge2" class="edge">
<title>Instrumentation_Amplifier_Array&#45;&gt;Low_Pass_Filter_Array</title>
<path fill="none" stroke="#000000" d="M683.6262,-128C696.0661,-128 708.6572,-128 720.7411,-128"/>
<polygon fill="#000000" stroke="#000000" points="720.7579,-131.5001 730.7579,-128 720.7579,-124.5001 720.7579,-131.5001"/>
</g>
<!-- Multiplexer -->
<g id="node4" class="node">
<title>Multiplexer</title>
<polygon fill="none" stroke="#000000" points="1038.0151,-100 918.3975,-100 918.3975,-64 1038.0151,-64 1038.0151,-100"/>
<text text-anchor="middle" x="978.2063" y="-77.8" font-family="Times,serif" font-size="14.00" fill="#000000">8&#45;to&#45;1 Multiplexer</text>
</g>
<!-- Low_Pass_Filter_Array&#45;&gt;Multiplexer -->
<g id="edge3" class="edge">
<title>Low_Pass_Filter_Array&#45;&gt;Multiplexer</title>
<path fill="none" stroke="#000000" d="M870.9296,-109.8196C883.3084,-106.6095 896.1929,-103.2682 908.559,-100.0613"/>
<polygon fill="#000000" stroke="#000000" points="909.5444,-103.4216 918.3456,-97.5234 907.7872,-96.6458 909.5444,-103.4216"/>
</g>
<!-- ADC -->
<g id="node5" class="node">
<title>ADC</title>
<polygon fill="none" stroke="#000000" points="1196.4005,-102.6019 1074.3467,-102.6019 1074.3467,-61.3981 1196.4005,-61.3981 1196.4005,-102.6019"/>
<text text-anchor="middle" x="1135.3736" y="-86.2" font-family="Times,serif" font-size="14.00" fill="#000000">ADC</text>
<text text-anchor="middle" x="1135.3736" y="-69.4" font-family="Times,serif" font-size="14.00" fill="#000000">(Sample and Hold)</text>
</g>
<!-- Multiplexer&#45;&gt;ADC -->
<g id="edge4" class="edge">
<title>Multiplexer&#45;&gt;ADC</title>
<path fill="none" stroke="#000000" d="M1038.0729,-82C1046.5526,-82 1055.341,-82 1064.0112,-82"/>
<polygon fill="#000000" stroke="#000000" points="1064.1094,-85.5001 1074.1093,-82 1064.1093,-78.5001 1064.1094,-85.5001"/>
</g>
<!-- Data_Interface -->
<g id="node6" class="node">
<title>Data_Interface</title>
<polygon fill="none" stroke="#000000" points="1333.1875,-102.6019 1232.4525,-102.6019 1232.4525,-61.3981 1333.1875,-61.3981 1333.1875,-102.6019"/>
<text text-anchor="middle" x="1282.82" y="-86.2" font-family="Times,serif" font-size="14.00" fill="#000000">Data Interface</text>
<text text-anchor="middle" x="1282.82" y="-69.4" font-family="Times,serif" font-size="14.00" fill="#000000">(To Computer)</text>
</g>
<!-- ADC&#45;&gt;Data_Interface -->
<g id="edge5" class="edge">
<title>ADC&#45;&gt;Data_Interface</title>
<path fill="none" stroke="#000000" d="M1196.6232,-82C1205.0609,-82 1213.7231,-82 1222.1502,-82"/>
<polygon fill="#000000" stroke="#000000" points="1222.282,-85.5001 1232.282,-82 1222.282,-78.5001 1222.282,-85.5001"/>
</g>
<!-- Temperature_Sensor_Array -->
<g id="node7" class="node">
<title>Temperature_Sensor_Array</title>
<polygon fill="none" stroke="#000000" points="181.3875,-57.6019 15.8707,-57.6019 15.8707,-16.3981 181.3875,-16.3981 181.3875,-57.6019"/>
<text text-anchor="middle" x="98.6291" y="-41.2" font-family="Times,serif" font-size="14.00" fill="#000000">Temperature Sensor Array</text>
<text text-anchor="middle" x="98.6291" y="-24.4" font-family="Times,serif" font-size="14.00" fill="#000000">(IR Radiation Detectors)</text>
</g>
<!-- Nonlinear_To_Linear_Circuit_Array -->
<g id="node8" class="node">
<title>Nonlinear_To_Linear_Circuit_Array</title>
<polygon fill="none" stroke="#000000" points="447.6445,-55 217.4625,-55 217.4625,-19 447.6445,-19 447.6445,-55"/>
<text text-anchor="middle" x="332.5535" y="-32.8" font-family="Times,serif" font-size="14.00" fill="#000000">Nonlinear to Linear Conversion Array</text>
</g>
<!-- Temperature_Sensor_Array&#45;&gt;Nonlinear_To_Linear_Circuit_Array -->
<g id="edge6" class="edge">
<title>Temperature_Sensor_Array&#45;&gt;Nonlinear_To_Linear_Circuit_Array</title>
<path fill="none" stroke="#000000" d="M181.4313,-37C189.7443,-37 198.3097,-37 206.9382,-37"/>
<polygon fill="#000000" stroke="#000000" points="207.0851,-40.5001 217.0851,-37 207.085,-33.5001 207.0851,-40.5001"/>
</g>
<!-- Amplifier_Array -->
<g id="node9" class="node">
<title>Amplifier_Array</title>
<polygon fill="none" stroke="#000000" points="637.4442,-55 529.7486,-55 529.7486,-19 637.4442,-19 637.4442,-55"/>
<text text-anchor="middle" x="583.5964" y="-32.8" font-family="Times,serif" font-size="14.00" fill="#000000">Amplifier Array</text>
</g>
<!-- Nonlinear_To_Linear_Circuit_Array&#45;&gt;Amplifier_Array -->
<g id="edge7" class="edge">
<title>Nonlinear_To_Linear_Circuit_Array&#45;&gt;Amplifier_Array</title>
<path fill="none" stroke="#000000" d="M447.7885,-37C472.4913,-37 497.7291,-37 519.6401,-37"/>
<polygon fill="#000000" stroke="#000000" points="519.7848,-40.5001 529.7847,-37 519.7847,-33.5001 519.7848,-40.5001"/>
</g>
<!-- Anti_Aliasing_Filter_Array -->
<g id="node10" class="node">
<title>Anti_Aliasing_Filter_Array</title>
<polygon fill="none" stroke="#000000" points="882.281,-57.6019 719.365,-57.6019 719.365,-16.3981 882.281,-16.3981 882.281,-57.6019"/>
<text text-anchor="middle" x="800.823" y="-41.2" font-family="Times,serif" font-size="14.00" fill="#000000">Anti&#45;Aliasing Filter Array</text>
<text text-anchor="middle" x="800.823" y="-24.4" font-family="Times,serif" font-size="14.00" fill="#000000">(Cutoff: 400 Hz)</text>
</g>
<!-- Amplifier_Array&#45;&gt;Anti_Aliasing_Filter_Array -->
<g id="edge8" class="edge">
<title>Amplifier_Array&#45;&gt;Anti_Aliasing_Filter_Array</title>
<path fill="none" stroke="#000000" d="M637.2929,-37C658.9361,-37 684.5274,-37 708.96,-37"/>
<polygon fill="#000000" stroke="#000000" points="708.9795,-40.5001 718.9795,-37 708.9794,-33.5001 708.9795,-40.5001"/>
</g>
<!-- Anti_Aliasing_Filter_Array&#45;&gt;Multiplexer -->
<g id="edge9" class="edge">
<title>Anti_Aliasing_Filter_Array&#45;&gt;Multiplexer</title>
<path fill="none" stroke="#000000" d="M882.2464,-57.6561C890.9527,-59.8648 899.7531,-62.0974 908.3089,-64.2679"/>
<polygon fill="#000000" stroke="#000000" points="907.6664,-67.7157 918.22,-66.7822 909.3878,-60.9306 907.6664,-67.7157"/>
</g>
</g>
</svg>
