<?xml version="1.0" encoding="UTF-8" standalone="no"?>
<!DOCTYPE svg PUBLIC "-//W3C//DTD SVG 1.1//EN"
 "http://www.w3.org/Graphics/SVG/1.1/DTD/svg11.dtd">
<!-- Generated by graphviz version 2.40.1 (20161225.0304)
 -->
<!-- Title: G Pages: 1 -->
<svg width="1324pt" height="208pt"
 viewBox="0.00 0.00 1323.72 208.00" xmlns="http://www.w3.org/2000/svg" xmlns:xlink="http://www.w3.org/1999/xlink">
<g id="graph0" class="graph" transform="scale(1 1) rotate(0) translate(4 204)">
<title>G</title>
<polygon fill="#ffffff" stroke="transparent" points="-4,4 -4,-204 1319.7153,-204 1319.7153,4 -4,4"/>
<g id="clust2" class="cluster">
<title>cluster_temperature</title>
<polygon fill="none" stroke="#000000" points="14.2293,-8 14.2293,-107 768.6916,-107 768.6916,-8 14.2293,-8"/>
<text text-anchor="middle" x="391.4605" y="-90.4" font-family="Times,serif" font-size="14.00" fill="#000000">Temperature Sensor Array (x8)</text>
</g>
<g id="clust1" class="cluster">
<title>cluster_pressure</title>
<polygon fill="none" stroke="#000000" points="8,-115 8,-192 420.7018,-192 420.7018,-115 8,-115"/>
<text text-anchor="middle" x="214.3509" y="-175.4" font-family="Times,serif" font-size="14.00" fill="#000000">Pressure Sensor Array (x8)</text>
</g>
<!-- Strain&#45;Gauge Pressure Sensor -->
<g id="node1" class="node">
<title>Strain&#45;Gauge Pressure Sensor</title>
<polygon fill="none" stroke="#000000" points="199.2401,-159 15.9199,-159 15.9199,-123 199.2401,-123 199.2401,-159"/>
<text text-anchor="middle" x="107.58" y="-136.8" font-family="Times,serif" font-size="14.00" fill="#000000">Strain&#45;Gauge Pressure Sensor</text>
</g>
<!-- Instrumentation Amplifier -->
<g id="node2" class="node">
<title>Instrumentation Amplifier</title>
<polygon fill="none" stroke="#000000" points="412.8786,-159 249.1722,-159 249.1722,-123 412.8786,-123 412.8786,-159"/>
<text text-anchor="middle" x="331.0254" y="-136.8" font-family="Times,serif" font-size="14.00" fill="#000000">Instrumentation Amplifier</text>
</g>
<!-- Strain&#45;Gauge Pressure Sensor&#45;&gt;Instrumentation Amplifier -->
<g id="edge1" class="edge">
<title>Strain&#45;Gauge Pressure Sensor&#45;&gt;Instrumentation Amplifier</title>
<path fill="none" stroke="#000000" d="M199.4311,-141C212.4433,-141 225.827,-141 238.8454,-141"/>
<polygon fill="#000000" stroke="#000000" points="239.1935,-144.5001 249.1934,-141 239.1934,-137.5001 239.1935,-144.5001"/>
</g>
<!-- Low&#45;Pass Filter (400Hz) -->
<g id="node3" class="node">
<title>Low&#45;Pass Filter (400Hz)</title>
<ellipse fill="none" stroke="#000000" cx="537.1623" cy="-45" rx="74.0438" ry="29.3315"/>
<text text-anchor="middle" x="537.1623" y="-49.2" font-family="Times,serif" font-size="14.00" fill="#000000">Low&#45;Pass Filter</text>
<text text-anchor="middle" x="537.1623" y="-32.4" font-family="Times,serif" font-size="14.00" fill="#000000">(400Hz)</text>
</g>
<!-- Instrumentation Amplifier&#45;&gt;Low&#45;Pass Filter (400Hz) -->
<g id="edge2" class="edge">
<title>Instrumentation Amplifier&#45;&gt;Low&#45;Pass Filter (400Hz)</title>
<path fill="none" stroke="#000000" d="M396.0023,-122.9578C406.4861,-119.3962 417.1035,-115.3861 426.8908,-111 448.7846,-101.1885 471.7416,-87.9746 491.0058,-75.9479"/>
<polygon fill="#000000" stroke="#000000" points="493.0014,-78.827 499.58,-70.5221 489.2582,-72.9119 493.0014,-78.827"/>
</g>
<!-- Multiplexer -->
<g id="node4" class="node">
<title>Multiplexer</title>
<ellipse fill="none" stroke="#000000" cx="704.0627" cy="-45" rx="56.758" ry="18"/>
<text text-anchor="middle" x="704.0627" y="-40.8" font-family="Times,serif" font-size="14.00" fill="#000000">Multiplexer</text>
</g>
<!-- Low&#45;Pass Filter (400Hz)&#45;&gt;Multiplexer -->
<g id="edge3" class="edge">
<title>Low&#45;Pass Filter (400Hz)&#45;&gt;Multiplexer</title>
<path fill="none" stroke="#000000" d="M609.8818,-38.2999C620.0525,-38.2049 630.4394,-38.2456 640.4247,-38.422"/>
<polygon fill="#000000" stroke="#000000" points="640.582,-41.9264 650.6591,-38.655 640.7414,-34.9282 640.582,-41.9264"/>
</g>
<!-- Low&#45;Pass Filter (400Hz)&#45;&gt;Multiplexer -->
<g id="edge6" class="edge">
<title>Low&#45;Pass Filter (400Hz)&#45;&gt;Multiplexer</title>
<path fill="none" stroke="#000000" d="M609.8818,-51.7001C620.0525,-51.7951 630.4394,-51.7544 640.4247,-51.578"/>
<polygon fill="#000000" stroke="#000000" points="640.7414,-55.0718 650.6591,-51.345 640.582,-48.0736 640.7414,-55.0718"/>
</g>
<!-- Sample and Hold Circuit -->
<g id="node7" class="node">
<title>Sample and Hold Circuit</title>
<ellipse fill="none" stroke="#000000" cx="904.0136" cy="-45" rx="107.1444" ry="18"/>
<text text-anchor="middle" x="904.0136" y="-40.8" font-family="Times,serif" font-size="14.00" fill="#000000">Sample and Hold Circuit</text>
</g>
<!-- Multiplexer&#45;&gt;Sample and Hold Circuit -->
<g id="edge7" class="edge">
<title>Multiplexer&#45;&gt;Sample and Hold Circuit</title>
<path fill="none" stroke="#000000" d="M760.8258,-45C768.8753,-45 777.3877,-45 786.0876,-45"/>
<polygon fill="#000000" stroke="#000000" points="786.3701,-48.5001 796.3701,-45 786.37,-41.5001 786.3701,-48.5001"/>
</g>
<!-- Infrared Radiation Detector -->
<g id="node5" class="node">
<title>Infrared Radiation Detector</title>
<polygon fill="none" stroke="#000000" points="192.7817,-63 22.3783,-63 22.3783,-27 192.7817,-27 192.7817,-63"/>
<text text-anchor="middle" x="107.58" y="-40.8" font-family="Times,serif" font-size="14.00" fill="#000000">Infrared Radiation Detector</text>
</g>
<!-- Non&#45;Linear Conversion Circuit -->
<g id="node6" class="node">
<title>Non&#45;Linear Conversion Circuit</title>
<polygon fill="none" stroke="#000000" points="426.7564,-63 235.2944,-63 235.2944,-27 426.7564,-27 426.7564,-63"/>
<text text-anchor="middle" x="331.0254" y="-40.8" font-family="Times,serif" font-size="14.00" fill="#000000">Non&#45;Linear Conversion Circuit</text>
</g>
<!-- Infrared Radiation Detector&#45;&gt;Non&#45;Linear Conversion Circuit -->
<g id="edge4" class="edge">
<title>Infrared Radiation Detector&#45;&gt;Non&#45;Linear Conversion Circuit</title>
<path fill="none" stroke="#000000" d="M193.0116,-45C203.4683,-45 214.2509,-45 224.9639,-45"/>
<polygon fill="#000000" stroke="#000000" points="225.2009,-48.5001 235.2008,-45 225.2008,-41.5001 225.2009,-48.5001"/>
</g>
<!-- Non&#45;Linear Conversion Circuit&#45;&gt;Low&#45;Pass Filter (400Hz) -->
<g id="edge5" class="edge">
<title>Non&#45;Linear Conversion Circuit&#45;&gt;Low&#45;Pass Filter (400Hz)</title>
<path fill="none" stroke="#000000" d="M426.8522,-45C435.4481,-45 444.1116,-45 452.6018,-45"/>
<polygon fill="#000000" stroke="#000000" points="452.856,-48.5001 462.856,-45 452.8559,-41.5001 452.856,-48.5001"/>
</g>
<!-- ADC -->
<g id="node8" class="node">
<title>ADC</title>
<ellipse fill="none" stroke="#000000" cx="1078.7551" cy="-45" rx="31.339" ry="18"/>
<text text-anchor="middle" x="1078.7551" y="-40.8" font-family="Times,serif" font-size="14.00" fill="#000000">ADC</text>
</g>
<!-- Sample and Hold Circuit&#45;&gt;ADC -->
<g id="edge8" class="edge">
<title>Sample and Hold Circuit&#45;&gt;ADC</title>
<path fill="none" stroke="#000000" d="M1011.4454,-45C1020.4574,-45 1029.1683,-45 1037.1659,-45"/>
<polygon fill="#000000" stroke="#000000" points="1037.2341,-48.5001 1047.2341,-45 1037.234,-41.5001 1037.2341,-48.5001"/>
</g>
<!-- Data Interface to Computer -->
<g id="node9" class="node">
<title>Data Interface to Computer</title>
<polygon fill="none" stroke="#000000" points="1315.4863,-63 1146.4035,-63 1146.4035,-27 1315.4863,-27 1315.4863,-63"/>
<text text-anchor="middle" x="1230.9449" y="-40.8" font-family="Times,serif" font-size="14.00" fill="#000000">Data Interface to Computer</text>
</g>
<!-- ADC&#45;&gt;Data Interface to Computer -->
<g id="edge9" class="edge">
<title>ADC&#45;&gt;Data Interface to Computer</title>
<path fill="none" stroke="#000000" d="M1110.2889,-45C1118.1534,-45 1126.9983,-45 1136.2329,-45"/>
<polygon fill="#000000" stroke="#000000" points="1136.3785,-48.5001 1146.3785,-45 1136.3784,-41.5001 1136.3785,-48.5001"/>
</g>
</g>
</svg>
