<?xml version="1.0" encoding="UTF-8" standalone="no"?>
<!DOCTYPE svg PUBLIC "-//W3C//DTD SVG 1.1//EN"
 "http://www.w3.org/Graphics/SVG/1.1/DTD/svg11.dtd">
<!-- Generated by graphviz version 2.40.1 (20161225.0304)
 -->
<!-- Title: G Pages: 1 -->
<svg width="1143pt" height="110pt"
 viewBox="0.00 0.00 1142.97 109.60" xmlns="http://www.w3.org/2000/svg" xmlns:xlink="http://www.w3.org/1999/xlink">
<g id="graph0" class="graph" transform="scale(1 1) rotate(0) translate(4 105.6)">
<title>G</title>
<polygon fill="#ffffff" stroke="transparent" points="-4,4 -4,-105.6 1138.9696,-105.6 1138.9696,4 -4,4"/>
<!-- PressureSensorArray -->
<g id="node1" class="node">
<title>PressureSensorArray</title>
<polygon fill="none" stroke="#000000" points="396.0617,-98.8 228.0853,-98.8 228.0853,-62.8 396.0617,-62.8 396.0617,-98.8"/>
<text text-anchor="middle" x="312.0735" y="-76.6" font-family="Times,serif" font-size="14.00" fill="#000000">Pressure Sensor Array (x8)</text>
</g>
<!-- AmplifierPressure -->
<g id="node2" class="node">
<title>AmplifierPressure</title>
<polygon fill="none" stroke="#000000" points="595.5972,-98.8 431.8908,-98.8 431.8908,-62.8 595.5972,-62.8 595.5972,-98.8"/>
<text text-anchor="middle" x="513.744" y="-76.6" font-family="Times,serif" font-size="14.00" fill="#000000">Instrumentation Amplifier</text>
</g>
<!-- PressureSensorArray&#45;&gt;AmplifierPressure -->
<g id="edge1" class="edge">
<title>PressureSensorArray&#45;&gt;AmplifierPressure</title>
<path fill="none" stroke="#000000" d="M396.1396,-80.8C404.5148,-80.8 413.0489,-80.8 421.5018,-80.8"/>
<polygon fill="#000000" stroke="#000000" points="421.7561,-84.3001 431.7561,-80.8 421.756,-77.3001 421.7561,-84.3001"/>
</g>
<!-- FilterPressure -->
<g id="node3" class="node">
<title>FilterPressure</title>
<polygon fill="none" stroke="#000000" points="736.4741,-101.4019 631.4025,-101.4019 631.4025,-60.1981 736.4741,-60.1981 736.4741,-101.4019"/>
<text text-anchor="middle" x="683.9383" y="-85" font-family="Times,serif" font-size="14.00" fill="#000000">Low&#45;Pass Filter</text>
<text text-anchor="middle" x="683.9383" y="-68.2" font-family="Times,serif" font-size="14.00" fill="#000000">(&lt;400 Hz)</text>
</g>
<!-- AmplifierPressure&#45;&gt;FilterPressure -->
<g id="edge2" class="edge">
<title>AmplifierPressure&#45;&gt;FilterPressure</title>
<path fill="none" stroke="#000000" d="M595.85,-80.8C604.3371,-80.8 612.8639,-80.8 621.0922,-80.8"/>
<polygon fill="#000000" stroke="#000000" points="621.3296,-84.3001 631.3296,-80.8 621.3295,-77.3001 621.3296,-84.3001"/>
</g>
<!-- Multiplexer -->
<g id="node8" class="node">
<title>Multiplexer</title>
<polygon fill="none" stroke="#000000" points="936.7375,-68.8 772.6953,-68.8 772.6953,-32.8 936.7375,-32.8 936.7375,-68.8"/>
<text text-anchor="middle" x="854.7164" y="-46.6" font-family="Times,serif" font-size="14.00" fill="#000000">8&#45;to&#45;1 Analog Multiplexer</text>
</g>
<!-- FilterPressure&#45;&gt;Multiplexer -->
<g id="edge3" class="edge">
<title>FilterPressure&#45;&gt;Multiplexer</title>
<path fill="none" stroke="#000000" d="M736.5709,-71.5542C744.8309,-70.1032 753.5729,-68.5675 762.4144,-67.0144"/>
<polygon fill="#000000" stroke="#000000" points="763.175,-70.4344 772.4186,-65.257 761.9638,-63.54 763.175,-70.4344"/>
</g>
<!-- TemperatureSensorArray -->
<g id="node4" class="node">
<title>TemperatureSensorArray</title>
<polygon fill="none" stroke="#000000" points="192.1191,-38.8 -.0397,-38.8 -.0397,-2.8 192.1191,-2.8 192.1191,-38.8"/>
<text text-anchor="middle" x="96.0397" y="-16.6" font-family="Times,serif" font-size="14.00" fill="#000000">Temperature Sensor Array (x8)</text>
</g>
<!-- PreAmplifierTemp -->
<g id="node5" class="node">
<title>PreAmplifierTemp</title>
<polygon fill="none" stroke="#000000" points="359.0979,-38.8 265.0491,-38.8 265.0491,-2.8 359.0979,-2.8 359.0979,-38.8"/>
<text text-anchor="middle" x="312.0735" y="-16.6" font-family="Times,serif" font-size="14.00" fill="#000000">Pre&#45;Amplifier</text>
</g>
<!-- TemperatureSensorArray&#45;&gt;PreAmplifierTemp -->
<g id="edge4" class="edge">
<title>TemperatureSensorArray&#45;&gt;PreAmplifierTemp</title>
<path fill="none" stroke="#000000" d="M192.3681,-20.8C213.7324,-20.8 235.7138,-20.8 254.9164,-20.8"/>
<polygon fill="#000000" stroke="#000000" points="254.981,-24.3001 264.9809,-20.8 254.9809,-17.3001 254.981,-24.3001"/>
</g>
<!-- Linearizer -->
<g id="node6" class="node">
<title>Linearizer</title>
<polygon fill="none" stroke="#000000" points="577.1458,-41.4019 450.3422,-41.4019 450.3422,-.1981 577.1458,-.1981 577.1458,-41.4019"/>
<text text-anchor="middle" x="513.744" y="-25" font-family="Times,serif" font-size="14.00" fill="#000000">Nonlinear to Linear</text>
<text text-anchor="middle" x="513.744" y="-8.2" font-family="Times,serif" font-size="14.00" fill="#000000">Converter</text>
</g>
<!-- PreAmplifierTemp&#45;&gt;Linearizer -->
<g id="edge5" class="edge">
<title>PreAmplifierTemp&#45;&gt;Linearizer</title>
<path fill="none" stroke="#000000" d="M359.1018,-20.8C383.1487,-20.8 412.9694,-20.8 439.9886,-20.8"/>
<polygon fill="#000000" stroke="#000000" points="440.1889,-24.3001 450.1888,-20.8 440.1888,-17.3001 440.1889,-24.3001"/>
</g>
<!-- FilterTemp -->
<g id="node7" class="node">
<title>FilterTemp</title>
<polygon fill="none" stroke="#000000" points="736.4741,-41.4019 631.4025,-41.4019 631.4025,-.1981 736.4741,-.1981 736.4741,-41.4019"/>
<text text-anchor="middle" x="683.9383" y="-25" font-family="Times,serif" font-size="14.00" fill="#000000">Low&#45;Pass Filter</text>
<text text-anchor="middle" x="683.9383" y="-8.2" font-family="Times,serif" font-size="14.00" fill="#000000">(&lt;400 Hz)</text>
</g>
<!-- Linearizer&#45;&gt;FilterTemp -->
<g id="edge6" class="edge">
<title>Linearizer&#45;&gt;FilterTemp</title>
<path fill="none" stroke="#000000" d="M577.1181,-20.8C591.4916,-20.8 606.7512,-20.8 621.1023,-20.8"/>
<polygon fill="#000000" stroke="#000000" points="621.3659,-24.3001 631.3659,-20.8 621.3659,-17.3001 621.3659,-24.3001"/>
</g>
<!-- FilterTemp&#45;&gt;Multiplexer -->
<g id="edge7" class="edge">
<title>FilterTemp&#45;&gt;Multiplexer</title>
<path fill="none" stroke="#000000" d="M736.5709,-30.0458C744.8309,-31.4968 753.5729,-33.0325 762.4144,-34.5856"/>
<polygon fill="#000000" stroke="#000000" points="761.9638,-38.06 772.4186,-36.343 763.175,-31.1656 761.9638,-38.06"/>
</g>
<!-- ADC -->
<g id="node9" class="node">
<title>ADC</title>
<polygon fill="none" stroke="#000000" points="1026.9766,-68.8 972.9766,-68.8 972.9766,-32.8 1026.9766,-32.8 1026.9766,-68.8"/>
<text text-anchor="middle" x="999.9766" y="-46.6" font-family="Times,serif" font-size="14.00" fill="#000000">ADC</text>
</g>
<!-- Multiplexer&#45;&gt;ADC -->
<g id="edge8" class="edge">
<title>Multiplexer&#45;&gt;ADC</title>
<path fill="none" stroke="#000000" d="M937.1082,-50.8C946.102,-50.8 954.8925,-50.8 962.9143,-50.8"/>
<polygon fill="#000000" stroke="#000000" points="962.9695,-54.3001 972.9695,-50.8 962.9695,-47.3001 962.9695,-54.3001"/>
</g>
<!-- Computer -->
<g id="node10" class="node">
<title>Computer</title>
<polygon fill="none" stroke="#000000" points="1134.9661,-68.8 1062.9801,-68.8 1062.9801,-32.8 1134.9661,-32.8 1134.9661,-68.8"/>
<text text-anchor="middle" x="1098.9731" y="-46.6" font-family="Times,serif" font-size="14.00" fill="#000000">Computer</text>
</g>
<!-- ADC&#45;&gt;Computer -->
<g id="edge9" class="edge">
<title>ADC&#45;&gt;Computer</title>
<path fill="none" stroke="#000000" d="M1027.0278,-50.8C1034.9281,-50.8 1043.7962,-50.8 1052.5365,-50.8"/>
<polygon fill="#000000" stroke="#000000" points="1052.6726,-54.3001 1062.6726,-50.8 1052.6726,-47.3001 1052.6726,-54.3001"/>
</g>
</g>
</svg>
