<?xml version="1.0" encoding="UTF-8" standalone="no"?>
<!DOCTYPE svg PUBLIC "-//W3C//DTD SVG 1.1//EN"
 "http://www.w3.org/Graphics/SVG/1.1/DTD/svg11.dtd">
<!-- Generated by graphviz version 2.40.1 (20161225.0304)
 -->
<!-- Title: G Pages: 1 -->
<svg width="744pt" height="101pt"
 viewBox="0.00 0.00 743.91 101.00" xmlns="http://www.w3.org/2000/svg" xmlns:xlink="http://www.w3.org/1999/xlink">
<g id="graph0" class="graph" transform="scale(1 1) rotate(0) translate(4 97)">
<title>G</title>
<polygon fill="#ffffff" stroke="transparent" points="-4,4 -4,-97 739.909,-97 739.909,4 -4,4"/>
<g id="clust2" class="cluster">
<title>cluster_1</title>
<polygon fill="none" stroke="#000000" points="503.254,-8 503.254,-85 727.909,-85 727.909,-8 503.254,-8"/>
<text text-anchor="middle" x="615.5815" y="-68.4" font-family="Times,serif" font-size="14.00" fill="#000000">Digital Conversion</text>
</g>
<g id="clust1" class="cluster">
<title>cluster_0</title>
<polygon fill="none" stroke="#000000" points="113.2048,-8 113.2048,-85 483.254,-85 483.254,-8 113.2048,-8"/>
<text text-anchor="middle" x="298.2294" y="-68.4" font-family="Times,serif" font-size="14.00" fill="#000000">Signal Conditioning</text>
</g>
<!-- PiezoSensor -->
<g id="node1" class="node">
<title>PiezoSensor</title>
<polygon fill="none" stroke="#000000" points="85.3074,-52 -.1026,-52 -.1026,-16 85.3074,-16 85.3074,-52"/>
<text text-anchor="middle" x="42.6024" y="-29.8" font-family="Times,serif" font-size="14.00" fill="#000000">PiezoSensor</text>
</g>
<!-- ChargeAmplifier -->
<g id="node2" class="node">
<title>ChargeAmplifier</title>
<polygon fill="none" stroke="#000000" points="232.6522,-52 121.3886,-52 121.3886,-16 232.6522,-16 232.6522,-52"/>
<text text-anchor="middle" x="177.0204" y="-29.8" font-family="Times,serif" font-size="14.00" fill="#000000">ChargeAmplifier</text>
</g>
<!-- PiezoSensor&#45;&gt;ChargeAmplifier -->
<g id="edge1" class="edge">
<title>PiezoSensor&#45;&gt;ChargeAmplifier</title>
<path fill="none" stroke="#000000" d="M85.5027,-34C93.6757,-34 102.4031,-34 111.1017,-34"/>
<polygon fill="#000000" stroke="#000000" points="111.2649,-37.5001 121.2648,-34 111.2648,-30.5001 111.2649,-37.5001"/>
</g>
<!-- HighPassFilter -->
<g id="node3" class="node">
<title>HighPassFilter</title>
<polygon fill="none" stroke="#000000" points="368.156,-52 268.7292,-52 268.7292,-16 368.156,-16 368.156,-52"/>
<text text-anchor="middle" x="318.4426" y="-29.8" font-family="Times,serif" font-size="14.00" fill="#000000">HighPassFilter</text>
</g>
<!-- ChargeAmplifier&#45;&gt;HighPassFilter -->
<g id="edge2" class="edge">
<title>ChargeAmplifier&#45;&gt;HighPassFilter</title>
<path fill="none" stroke="#000000" d="M232.9142,-27.3835C241.2574,-27.2311 249.8887,-27.2092 258.3149,-27.3177"/>
<polygon fill="#000000" stroke="#000000" points="258.392,-30.8197 268.4581,-27.5146 258.5279,-23.821 258.392,-30.8197"/>
</g>
<!-- ChargeAmplifier&#45;&gt;HighPassFilter -->
<g id="edge6" class="edge">
<title>ChargeAmplifier&#45;&gt;HighPassFilter</title>
<path fill="none" stroke="#000000" d="M232.9142,-40.6165C241.2574,-40.7689 249.8887,-40.7908 258.3149,-40.6823"/>
<polygon fill="#000000" stroke="#000000" points="258.5279,-44.179 268.4581,-40.4854 258.392,-37.1803 258.5279,-44.179"/>
</g>
<!-- Amplifier -->
<g id="node4" class="node">
<title>Amplifier</title>
<polygon fill="none" stroke="#000000" points="475.3567,-52 403.9465,-52 403.9465,-16 475.3567,-16 475.3567,-52"/>
<text text-anchor="middle" x="439.6516" y="-29.8" font-family="Times,serif" font-size="14.00" fill="#000000">Amplifier</text>
</g>
<!-- HighPassFilter&#45;&gt;Amplifier -->
<g id="edge3" class="edge">
<title>HighPassFilter&#45;&gt;Amplifier</title>
<path fill="none" stroke="#000000" d="M368.0927,-27.349C376.6449,-27.1929 385.4982,-27.2214 393.9405,-27.4345"/>
<polygon fill="#000000" stroke="#000000" points="393.8702,-30.9341 403.9865,-27.786 394.115,-23.9384 393.8702,-30.9341"/>
</g>
<!-- HighPassFilter&#45;&gt;Amplifier -->
<g id="edge7" class="edge">
<title>HighPassFilter&#45;&gt;Amplifier</title>
<path fill="none" stroke="#000000" d="M368.0927,-40.651C376.6449,-40.8071 385.4982,-40.7786 393.9405,-40.5655"/>
<polygon fill="#000000" stroke="#000000" points="394.115,-44.0616 403.9865,-40.214 393.8702,-37.0659 394.115,-44.0616"/>
</g>
<!-- AntiAliasingFilter -->
<g id="node5" class="node">
<title>AntiAliasingFilter</title>
<polygon fill="none" stroke="#000000" points="629.737,-52 511.426,-52 511.426,-16 629.737,-16 629.737,-52"/>
<text text-anchor="middle" x="570.5815" y="-29.8" font-family="Times,serif" font-size="14.00" fill="#000000">AntiAliasingFilter</text>
</g>
<!-- Amplifier&#45;&gt;AntiAliasingFilter -->
<g id="edge4" class="edge">
<title>Amplifier&#45;&gt;AntiAliasingFilter</title>
<path fill="none" stroke="#000000" d="M475.4288,-34C483.5155,-34 492.3689,-34 501.3174,-34"/>
<polygon fill="#000000" stroke="#000000" points="501.425,-37.5001 511.425,-34 501.4249,-30.5001 501.425,-37.5001"/>
</g>
<!-- ADC -->
<g id="node6" class="node">
<title>ADC</title>
<polygon fill="none" stroke="#000000" points="719.909,-52 665.909,-52 665.909,-16 719.909,-16 719.909,-52"/>
<text text-anchor="middle" x="692.909" y="-29.8" font-family="Times,serif" font-size="14.00" fill="#000000">ADC</text>
</g>
<!-- AntiAliasingFilter&#45;&gt;ADC -->
<g id="edge5" class="edge">
<title>AntiAliasingFilter&#45;&gt;ADC</title>
<path fill="none" stroke="#000000" d="M629.9536,-27.2526C638.6728,-27.2275 647.4405,-27.3855 655.5473,-27.7265"/>
<polygon fill="#000000" stroke="#000000" points="655.5893,-31.2338 665.7641,-28.2802 655.9682,-24.2441 655.5893,-31.2338"/>
</g>
<!-- AntiAliasingFilter&#45;&gt;ADC -->
<g id="edge8" class="edge">
<title>AntiAliasingFilter&#45;&gt;ADC</title>
<path fill="none" stroke="#000000" d="M629.9536,-40.7474C638.6728,-40.7725 647.4405,-40.6145 655.5473,-40.2735"/>
<polygon fill="#000000" stroke="#000000" points="655.9682,-43.7559 665.7641,-39.7198 655.5893,-36.7662 655.9682,-43.7559"/>
</g>
</g>
</svg>
