<?xml version="1.0" encoding="UTF-8" standalone="no"?>
<!DOCTYPE svg PUBLIC "-//W3C//DTD SVG 1.1//EN"
 "http://www.w3.org/Graphics/SVG/1.1/DTD/svg11.dtd">
<!-- Generated by graphviz version 2.40.1 (20161225.0304)
 -->
<!-- Title: G Pages: 1 -->
<svg width="1209pt" height="50pt"
 viewBox="0.00 0.00 1208.89 49.60" xmlns="http://www.w3.org/2000/svg" xmlns:xlink="http://www.w3.org/1999/xlink">
<g id="graph0" class="graph" transform="scale(1 1) rotate(0) translate(4 45.6)">
<title>G</title>
<polygon fill="#ffffff" stroke="transparent" points="-4,4 -4,-45.6 1204.8902,-45.6 1204.8902,4 -4,4"/>
<!-- ThermistorSensor -->
<g id="node1" class="node">
<title>ThermistorSensor</title>
<polygon fill="none" stroke="#000000" points="151.4548,-38.8 -.1518,-38.8 -.1518,-2.8 151.4548,-2.8 151.4548,-38.8"/>
<text text-anchor="middle" x="75.6515" y="-16.6" font-family="Times,serif" font-size="14.00" fill="#000000">NTC Thermistor Sensor</text>
</g>
<!-- LinearizationResistor -->
<g id="node2" class="node">
<title>LinearizationResistor</title>
<polygon fill="none" stroke="#000000" points="327.3273,-38.8 187.2949,-38.8 187.2949,-2.8 327.3273,-2.8 327.3273,-38.8"/>
<text text-anchor="middle" x="257.3111" y="-16.6" font-family="Times,serif" font-size="14.00" fill="#000000">Linearization Resistor</text>
</g>
<!-- ThermistorSensor&#45;&gt;LinearizationResistor -->
<g id="edge1" class="edge">
<title>ThermistorSensor&#45;&gt;LinearizationResistor</title>
<path fill="none" stroke="#000000" d="M151.3761,-20.8C159.9128,-20.8 168.6327,-20.8 177.2227,-20.8"/>
<polygon fill="#000000" stroke="#000000" points="177.228,-24.3001 187.228,-20.8 177.228,-17.3001 177.228,-24.3001"/>
</g>
<!-- SignalConditioning -->
<g id="node3" class="node">
<title>SignalConditioning</title>
<polygon fill="none" stroke="#000000" points="492.5854,-41.4019 363.2304,-41.4019 363.2304,-.1981 492.5854,-.1981 492.5854,-41.4019"/>
<text text-anchor="middle" x="427.9079" y="-25" font-family="Times,serif" font-size="14.00" fill="#000000">Signal Conditioning</text>
<text text-anchor="middle" x="427.9079" y="-8.2" font-family="Times,serif" font-size="14.00" fill="#000000">(Op&#45;Amp Circuit)</text>
</g>
<!-- LinearizationResistor&#45;&gt;SignalConditioning -->
<g id="edge2" class="edge">
<title>LinearizationResistor&#45;&gt;SignalConditioning</title>
<path fill="none" stroke="#000000" d="M327.6843,-20.8C336.0365,-20.8 344.5858,-20.8 352.9983,-20.8"/>
<polygon fill="#000000" stroke="#000000" points="353.1693,-24.3001 363.1693,-20.8 353.1693,-17.3001 353.1693,-24.3001"/>
</g>
<!-- AntiAliasingFilter -->
<g id="node4" class="node">
<title>AntiAliasingFilter</title>
<polygon fill="none" stroke="#000000" points="655.2201,-38.8 528.5887,-38.8 528.5887,-2.8 655.2201,-2.8 655.2201,-38.8"/>
<text text-anchor="middle" x="591.9044" y="-16.6" font-family="Times,serif" font-size="14.00" fill="#000000">Anti&#45;Aliasing Filter</text>
</g>
<!-- SignalConditioning&#45;&gt;AntiAliasingFilter -->
<g id="edge3" class="edge">
<title>SignalConditioning&#45;&gt;AntiAliasingFilter</title>
<path fill="none" stroke="#000000" d="M492.7237,-20.8C501.0619,-20.8 509.6484,-20.8 518.1169,-20.8"/>
<polygon fill="#000000" stroke="#000000" points="518.3634,-24.3001 528.3634,-20.8 518.3634,-17.3001 518.3634,-24.3001"/>
</g>
<!-- ADC -->
<g id="node5" class="node">
<title>ADC</title>
<polygon fill="none" stroke="#000000" points="865.0082,-38.8 691.0798,-38.8 691.0798,-2.8 865.0082,-2.8 865.0082,-38.8"/>
<text text-anchor="middle" x="778.044" y="-16.6" font-family="Times,serif" font-size="14.00" fill="#000000">Analog to Digital Converter</text>
</g>
<!-- AntiAliasingFilter&#45;&gt;ADC -->
<g id="edge4" class="edge">
<title>AntiAliasingFilter&#45;&gt;ADC</title>
<path fill="none" stroke="#000000" d="M655.4425,-20.8C663.6935,-20.8 672.2901,-20.8 680.9332,-20.8"/>
<polygon fill="#000000" stroke="#000000" points="681.0829,-24.3001 691.0829,-20.8 681.0829,-17.3001 681.0829,-24.3001"/>
</g>
<!-- OutputVoltageAmplifier -->
<g id="node6" class="node">
<title>OutputVoltageAmplifier</title>
<polygon fill="none" stroke="#000000" points="1062.3907,-38.8 900.5705,-38.8 900.5705,-2.8 1062.3907,-2.8 1062.3907,-38.8"/>
<text text-anchor="middle" x="981.4806" y="-16.6" font-family="Times,serif" font-size="14.00" fill="#000000">Output Voltage Amplifier</text>
</g>
<!-- ADC&#45;&gt;OutputVoltageAmplifier -->
<g id="edge5" class="edge">
<title>ADC&#45;&gt;OutputVoltageAmplifier</title>
<path fill="none" stroke="#000000" d="M864.9095,-20.8C873.4479,-20.8 882.1289,-20.8 890.705,-20.8"/>
<polygon fill="#000000" stroke="#000000" points="890.7096,-24.3001 900.7095,-20.8 890.7095,-17.3001 890.7096,-24.3001"/>
</g>
<!-- VoltageOutput -->
<g id="node7" class="node">
<title>VoltageOutput</title>
<polygon fill="none" stroke="#000000" points="1200.743,-38.8 1098.3326,-38.8 1098.3326,-2.8 1200.743,-2.8 1200.743,-38.8"/>
<text text-anchor="middle" x="1149.5378" y="-16.6" font-family="Times,serif" font-size="14.00" fill="#000000">Voltage Output</text>
</g>
<!-- OutputVoltageAmplifier&#45;&gt;VoltageOutput -->
<g id="edge6" class="edge">
<title>OutputVoltageAmplifier&#45;&gt;VoltageOutput</title>
<path fill="none" stroke="#000000" d="M1062.5556,-20.8C1071.0542,-20.8 1079.593,-20.8 1087.824,-20.8"/>
<polygon fill="#000000" stroke="#000000" points="1088.0589,-24.3001 1098.0589,-20.8 1088.0588,-17.3001 1088.0589,-24.3001"/>
</g>
</g>
</svg>
