<?xml version="1.0" encoding="UTF-8" standalone="no"?>
<!DOCTYPE svg PUBLIC "-//W3C//DTD SVG 1.1//EN"
 "http://www.w3.org/Graphics/SVG/1.1/DTD/svg11.dtd">
<!-- Generated by graphviz version 2.40.1 (20161225.0304)
 -->
<!-- Title: G Pages: 1 -->
<svg width="985pt" height="101pt"
 viewBox="0.00 0.00 984.92 101.00" xmlns="http://www.w3.org/2000/svg" xmlns:xlink="http://www.w3.org/1999/xlink">
<g id="graph0" class="graph" transform="scale(1 1) rotate(0) translate(4 97)">
<title>G</title>
<polygon fill="#ffffff" stroke="transparent" points="-4,4 -4,-97 980.9176,-97 980.9176,4 -4,4"/>
<g id="clust1" class="cluster">
<title>cluster_0</title>
<polygon fill="none" stroke="#0000ff" points="8,-8 8,-85 714.1188,-85 714.1188,-8 8,-8"/>
<text text-anchor="middle" x="361.0594" y="-68.4" font-family="Times,serif" font-size="14.00" fill="#000000">Temperature Sensing and Conditioning</text>
</g>
<!-- NTC_Thermistor -->
<g id="node1" class="node">
<title>NTC_Thermistor</title>
<polygon fill="#d3d3d3" stroke="#000000" points="125.5513,-52 16.1493,-52 16.1493,-16 125.5513,-16 125.5513,-52"/>
<text text-anchor="middle" x="70.8503" y="-29.8" font-family="Times,serif" font-size="14.00" fill="#000000">NTC Thermistor</text>
</g>
<!-- Linearization -->
<g id="node2" class="node">
<title>Linearization</title>
<polygon fill="#d3d3d3" stroke="#000000" points="304.8701,-52 161.6441,-52 161.6441,-16 304.8701,-16 304.8701,-52"/>
<text text-anchor="middle" x="233.2571" y="-29.8" font-family="Times,serif" font-size="14.00" fill="#000000">Linearization Network</text>
</g>
<!-- NTC_Thermistor&#45;&gt;Linearization -->
<g id="edge1" class="edge">
<title>NTC_Thermistor&#45;&gt;Linearization</title>
<path fill="none" stroke="#000000" d="M125.8338,-34C134.1015,-34 142.7753,-34 151.4583,-34"/>
<polygon fill="#000000" stroke="#000000" points="151.6317,-37.5001 161.6316,-34 151.6316,-30.5001 151.6317,-37.5001"/>
</g>
<!-- Buffer -->
<g id="node3" class="node">
<title>Buffer</title>
<polygon fill="#d3d3d3" stroke="#000000" points="452.1706,-52 340.6944,-52 340.6944,-16 452.1706,-16 452.1706,-52"/>
<text text-anchor="middle" x="396.4325" y="-29.8" font-family="Times,serif" font-size="14.00" fill="#000000">Buffer Amplifier</text>
</g>
<!-- Linearization&#45;&gt;Buffer -->
<g id="edge2" class="edge">
<title>Linearization&#45;&gt;Buffer</title>
<path fill="none" stroke="#000000" d="M304.8282,-34C313.3512,-34 322.0222,-34 330.4617,-34"/>
<polygon fill="#000000" stroke="#000000" points="330.6156,-37.5001 340.6156,-34 330.6155,-30.5001 330.6156,-37.5001"/>
</g>
<!-- Gain_Stage -->
<g id="node4" class="node">
<title>Gain_Stage</title>
<polygon fill="#d3d3d3" stroke="#000000" points="565.7729,-52 488.1441,-52 488.1441,-16 565.7729,-16 565.7729,-52"/>
<text text-anchor="middle" x="526.9585" y="-29.8" font-family="Times,serif" font-size="14.00" fill="#000000">Gain Stage</text>
</g>
<!-- Buffer&#45;&gt;Gain_Stage -->
<g id="edge3" class="edge">
<title>Buffer&#45;&gt;Gain_Stage</title>
<path fill="none" stroke="#000000" d="M452.1659,-34C460.7373,-34 469.5328,-34 477.9438,-34"/>
<polygon fill="#000000" stroke="#000000" points="477.9719,-37.5001 487.9718,-34 477.9718,-30.5001 477.9719,-37.5001"/>
</g>
<!-- Low_Pass_Filter -->
<g id="node5" class="node">
<title>Low_Pass_Filter</title>
<polygon fill="#d3d3d3" stroke="#000000" points="706.2457,-52 601.7387,-52 601.7387,-16 706.2457,-16 706.2457,-52"/>
<text text-anchor="middle" x="653.9922" y="-29.8" font-family="Times,serif" font-size="14.00" fill="#000000">Low&#45;pass Filter</text>
</g>
<!-- Gain_Stage&#45;&gt;Low_Pass_Filter -->
<g id="edge4" class="edge">
<title>Gain_Stage&#45;&gt;Low_Pass_Filter</title>
<path fill="none" stroke="#000000" d="M566.1094,-34C574.1786,-34 582.8663,-34 591.5279,-34"/>
<polygon fill="#000000" stroke="#000000" points="591.6453,-37.5001 601.6452,-34 591.6452,-30.5001 591.6453,-37.5001"/>
</g>
<!-- Output_Stage -->
<g id="node6" class="node">
<title>Output_Stage</title>
<polygon fill="#d3d3d3" stroke="#000000" points="861.836,-54.6019 742.213,-54.6019 742.213,-13.3981 861.836,-13.3981 861.836,-54.6019"/>
<text text-anchor="middle" x="802.0245" y="-38.2" font-family="Times,serif" font-size="14.00" fill="#000000">Output Stage</text>
<text text-anchor="middle" x="802.0245" y="-21.4" font-family="Times,serif" font-size="14.00" fill="#000000">(0 to 20V Scaling)</text>
</g>
<!-- Low_Pass_Filter&#45;&gt;Output_Stage -->
<g id="edge5" class="edge">
<title>Low_Pass_Filter&#45;&gt;Output_Stage</title>
<path fill="none" stroke="#000000" d="M706.1829,-34C714.4991,-34 723.2192,-34 731.8687,-34"/>
<polygon fill="#000000" stroke="#000000" points="731.9617,-37.5001 741.9617,-34 731.9616,-30.5001 731.9617,-37.5001"/>
</g>
<!-- Multimeter -->
<g id="node7" class="node">
<title>Multimeter</title>
<polygon fill="#d3d3d3" stroke="#000000" points="976.9113,-52 897.9365,-52 897.9365,-16 976.9113,-16 976.9113,-52"/>
<text text-anchor="middle" x="937.4239" y="-29.8" font-family="Times,serif" font-size="14.00" fill="#000000">Multimeter</text>
</g>
<!-- Output_Stage&#45;&gt;Multimeter -->
<g id="edge6" class="edge">
<title>Output_Stage&#45;&gt;Multimeter</title>
<path fill="none" stroke="#000000" d="M862.2012,-34C870.6435,-34 879.2438,-34 887.4682,-34"/>
<polygon fill="#000000" stroke="#000000" points="887.6447,-37.5001 897.6446,-34 887.6446,-30.5001 887.6447,-37.5001"/>
</g>
</g>
</svg>
