<?xml version="1.0" encoding="UTF-8" standalone="no"?>
<!DOCTYPE svg PUBLIC "-//W3C//DTD SVG 1.1//EN"
 "http://www.w3.org/Graphics/SVG/1.1/DTD/svg11.dtd">
<!-- Generated by graphviz version 2.40.1 (20161225.0304)
 -->
<!-- Title: G Pages: 1 -->
<svg width="964pt" height="44pt"
 viewBox="0.00 0.00 963.98 44.00" xmlns="http://www.w3.org/2000/svg" xmlns:xlink="http://www.w3.org/1999/xlink">
<g id="graph0" class="graph" transform="scale(1 1) rotate(0) translate(4 40)">
<title>G</title>
<polygon fill="#ffffff" stroke="transparent" points="-4,4 -4,-40 959.9758,-40 959.9758,4 -4,4"/>
<!-- Potentiometer -->
<g id="node1" class="node">
<title>Potentiometer</title>
<polygon fill="none" stroke="#000000" points="134.3602,-36 .2128,-36 .2128,0 134.3602,0 134.3602,-36"/>
<text text-anchor="middle" x="67.2865" y="-13.8" font-family="Times,serif" font-size="14.00" fill="#000000">Linear Potentiometer</text>
</g>
<!-- Buffer -->
<g id="node2" class="node">
<title>Buffer</title>
<polygon fill="none" stroke="#000000" points="281.93,-36 170.4538,-36 170.4538,0 281.93,0 281.93,-36"/>
<text text-anchor="middle" x="226.1919" y="-13.8" font-family="Times,serif" font-size="14.00" fill="#000000">Buffer Amplifier</text>
</g>
<!-- Potentiometer&#45;&gt;Buffer -->
<g id="edge1" class="edge">
<title>Potentiometer&#45;&gt;Buffer</title>
<path fill="none" stroke="#000000" d="M134.6767,-18C143.096,-18 151.7002,-18 160.0994,-18"/>
<polygon fill="#000000" stroke="#000000" points="160.2167,-21.5001 170.2167,-18 160.2167,-14.5001 160.2167,-21.5001"/>
</g>
<!-- Scaling_Amplifier -->
<g id="node3" class="node">
<title>Scaling_Amplifier</title>
<polygon fill="none" stroke="#000000" points="434.3579,-36 317.9615,-36 317.9615,0 434.3579,0 434.3579,-36"/>
<text text-anchor="middle" x="376.1597" y="-13.8" font-family="Times,serif" font-size="14.00" fill="#000000">Scaling Amplifier</text>
</g>
<!-- Buffer&#45;&gt;Scaling_Amplifier -->
<g id="edge2" class="edge">
<title>Buffer&#45;&gt;Scaling_Amplifier</title>
<path fill="none" stroke="#000000" d="M282.0344,-18C290.4141,-18 299.1357,-18 307.7411,-18"/>
<polygon fill="#000000" stroke="#000000" points="307.7623,-21.5001 317.7622,-18 307.7622,-14.5001 307.7623,-21.5001"/>
</g>
<!-- Low_Pass_Filter -->
<g id="node4" class="node">
<title>Low_Pass_Filter</title>
<polygon fill="none" stroke="#000000" points="677.9297,-36 470.3681,-36 470.3681,0 677.9297,0 677.9297,-36"/>
<text text-anchor="middle" x="574.1489" y="-13.8" font-family="Times,serif" font-size="14.00" fill="#000000">Low&#45;Pass Filter (50/60 Hz Notch)</text>
</g>
<!-- Scaling_Amplifier&#45;&gt;Low_Pass_Filter -->
<g id="edge3" class="edge">
<title>Scaling_Amplifier&#45;&gt;Low_Pass_Filter</title>
<path fill="none" stroke="#000000" d="M434.4921,-18C442.6969,-18 451.3527,-18 460.1708,-18"/>
<polygon fill="#000000" stroke="#000000" points="460.1805,-21.5001 470.1805,-18 460.1804,-14.5001 460.1805,-21.5001"/>
</g>
<!-- Anti_Alias_Filter -->
<g id="node5" class="node">
<title>Anti_Alias_Filter</title>
<polygon fill="none" stroke="#000000" points="840.5127,-36 713.8813,-36 713.8813,0 840.5127,0 840.5127,-36"/>
<text text-anchor="middle" x="777.197" y="-13.8" font-family="Times,serif" font-size="14.00" fill="#000000">Anti&#45;Aliasing Filter</text>
</g>
<!-- Low_Pass_Filter&#45;&gt;Anti_Alias_Filter -->
<g id="edge4" class="edge">
<title>Low_Pass_Filter&#45;&gt;Anti_Alias_Filter</title>
<path fill="none" stroke="#000000" d="M678.0522,-18C686.7231,-18 695.3709,-18 703.7423,-18"/>
<polygon fill="#000000" stroke="#000000" points="703.7996,-21.5001 713.7996,-18 703.7995,-14.5001 703.7996,-21.5001"/>
</g>
<!-- DAQ_Input -->
<g id="node6" class="node">
<title>DAQ_Input</title>
<polygon fill="none" stroke="#000000" points="956.1622,-36 876.4184,-36 876.4184,0 956.1622,0 956.1622,-36"/>
<text text-anchor="middle" x="916.2903" y="-13.8" font-family="Times,serif" font-size="14.00" fill="#000000">DAQ Input</text>
</g>
<!-- Anti_Alias_Filter&#45;&gt;DAQ_Input -->
<g id="edge5" class="edge">
<title>Anti_Alias_Filter&#45;&gt;DAQ_Input</title>
<path fill="none" stroke="#000000" d="M840.6381,-18C849.2025,-18 857.8913,-18 866.1796,-18"/>
<polygon fill="#000000" stroke="#000000" points="866.4245,-21.5001 876.4245,-18 866.4244,-14.5001 866.4245,-21.5001"/>
</g>
</g>
</svg>
