<?xml version="1.0" encoding="UTF-8" standalone="no"?>
<!DOCTYPE svg PUBLIC "-//W3C//DTD SVG 1.1//EN"
 "http://www.w3.org/Graphics/SVG/1.1/DTD/svg11.dtd">
<!-- Generated by graphviz version 2.40.1 (20161225.0304)
 -->
<!-- Title: G Pages: 1 -->
<svg width="816pt" height="50pt"
 viewBox="0.00 0.00 815.86 49.60" xmlns="http://www.w3.org/2000/svg" xmlns:xlink="http://www.w3.org/1999/xlink">
<g id="graph0" class="graph" transform="scale(1 1) rotate(0) translate(4 45.6)">
<title>G</title>
<polygon fill="#ffffff" stroke="transparent" points="-4,4 -4,-45.6 811.86,-45.6 811.86,4 -4,4"/>
<!-- Potentiometer -->
<g id="node1" class="node">
<title>Potentiometer</title>
<polygon fill="none" stroke="#000000" points="94.3111,-41.4019 .2289,-41.4019 .2289,-.1981 94.3111,-.1981 94.3111,-41.4019"/>
<text text-anchor="middle" x="47.27" y="-25" font-family="Times,serif" font-size="14.00" fill="#000000">Potentiometer</text>
<text text-anchor="middle" x="47.27" y="-8.2" font-family="Times,serif" font-size="14.00" fill="#000000">(10 kΩ)</text>
</g>
<!-- Buffer -->
<g id="node2" class="node">
<title>Buffer</title>
<polygon fill="none" stroke="#000000" points="205.6684,-41.4019 130.4972,-41.4019 130.4972,-.1981 205.6684,-.1981 205.6684,-41.4019"/>
<text text-anchor="middle" x="168.0828" y="-25" font-family="Times,serif" font-size="14.00" fill="#000000">Buffer</text>
<text text-anchor="middle" x="168.0828" y="-8.2" font-family="Times,serif" font-size="14.00" fill="#000000">(Op&#45;Amp)</text>
</g>
<!-- Potentiometer&#45;&gt;Buffer -->
<g id="edge1" class="edge">
<title>Potentiometer&#45;&gt;Buffer</title>
<path fill="none" stroke="#000000" d="M94.3253,-20.8C102.8038,-20.8 111.6517,-20.8 120.1546,-20.8"/>
<polygon fill="#000000" stroke="#000000" points="120.3073,-24.3001 130.3073,-20.8 120.3073,-17.3001 120.3073,-24.3001"/>
</g>
<!-- GainStage -->
<g id="node3" class="node">
<title>GainStage</title>
<polygon fill="none" stroke="#000000" points="319.3471,-41.4019 241.7183,-41.4019 241.7183,-.1981 319.3471,-.1981 319.3471,-41.4019"/>
<text text-anchor="middle" x="280.5327" y="-25" font-family="Times,serif" font-size="14.00" fill="#000000">Gain Stage</text>
<text text-anchor="middle" x="280.5327" y="-8.2" font-family="Times,serif" font-size="14.00" fill="#000000">(Op&#45;Amp)</text>
</g>
<!-- Buffer&#45;&gt;GainStage -->
<g id="edge2" class="edge">
<title>Buffer&#45;&gt;GainStage</title>
<path fill="none" stroke="#000000" d="M205.8398,-20.8C214.0048,-20.8 222.7543,-20.8 231.2861,-20.8"/>
<polygon fill="#000000" stroke="#000000" points="231.5311,-24.3001 241.5311,-20.8 231.5311,-17.3001 231.5311,-24.3001"/>
</g>
<!-- BandPassFilter -->
<g id="node4" class="node">
<title>BandPassFilter</title>
<polygon fill="none" stroke="#000000" points="497.9652,-41.4019 355.2644,-41.4019 355.2644,-.1981 497.9652,-.1981 497.9652,-41.4019"/>
<text text-anchor="middle" x="426.6148" y="-25" font-family="Times,serif" font-size="14.00" fill="#000000">Band&#45;Pass Filter</text>
<text text-anchor="middle" x="426.6148" y="-8.2" font-family="Times,serif" font-size="14.00" fill="#000000">(Notch at 50 &amp; 60 Hz)</text>
</g>
<!-- GainStage&#45;&gt;BandPassFilter -->
<g id="edge3" class="edge">
<title>GainStage&#45;&gt;BandPassFilter</title>
<path fill="none" stroke="#000000" d="M319.68,-20.8C327.6627,-20.8 336.3393,-20.8 345.1822,-20.8"/>
<polygon fill="#000000" stroke="#000000" points="345.2087,-24.3001 355.2086,-20.8 345.2086,-17.3001 345.2087,-24.3001"/>
</g>
<!-- AntiAliasingFilter -->
<g id="node5" class="node">
<title>AntiAliasingFilter</title>
<polygon fill="none" stroke="#000000" points="660.5133,-41.4019 533.8819,-41.4019 533.8819,-.1981 660.5133,-.1981 660.5133,-41.4019"/>
<text text-anchor="middle" x="597.1976" y="-25" font-family="Times,serif" font-size="14.00" fill="#000000">Anti&#45;Aliasing Filter</text>
<text text-anchor="middle" x="597.1976" y="-8.2" font-family="Times,serif" font-size="14.00" fill="#000000">(Low&#45;Pass)</text>
</g>
<!-- BandPassFilter&#45;&gt;AntiAliasingFilter -->
<g id="edge4" class="edge">
<title>BandPassFilter&#45;&gt;AntiAliasingFilter</title>
<path fill="none" stroke="#000000" d="M497.9689,-20.8C506.4067,-20.8 515.0316,-20.8 523.5011,-20.8"/>
<polygon fill="#000000" stroke="#000000" points="523.7319,-24.3001 533.7319,-20.8 523.7319,-17.3001 523.7319,-24.3001"/>
</g>
<!-- DAQ -->
<g id="node6" class="node">
<title>DAQ</title>
<polygon fill="none" stroke="#000000" points="807.9876,-41.4019 696.4778,-41.4019 696.4778,-.1981 807.9876,-.1981 807.9876,-41.4019"/>
<text text-anchor="middle" x="752.2327" y="-25" font-family="Times,serif" font-size="14.00" fill="#000000">Data Acquisition</text>
<text text-anchor="middle" x="752.2327" y="-8.2" font-family="Times,serif" font-size="14.00" fill="#000000">(System)</text>
</g>
<!-- AntiAliasingFilter&#45;&gt;DAQ -->
<g id="edge5" class="edge">
<title>AntiAliasingFilter&#45;&gt;DAQ</title>
<path fill="none" stroke="#000000" d="M660.7036,-20.8C669.1457,-20.8 677.817,-20.8 686.2991,-20.8"/>
<polygon fill="#000000" stroke="#000000" points="686.5233,-24.3001 696.5233,-20.8 686.5232,-17.3001 686.5233,-24.3001"/>
</g>
</g>
</svg>
