<?xml version="1.0" encoding="UTF-8" standalone="no"?>
<!DOCTYPE svg PUBLIC "-//W3C//DTD SVG 1.1//EN"
 "http://www.w3.org/Graphics/SVG/1.1/DTD/svg11.dtd">
<!-- Generated by graphviz version 2.40.1 (20161225.0304)
 -->
<!-- Title: G Pages: 1 -->
<svg width="1612pt" height="107pt"
 viewBox="0.00 0.00 1611.92 107.00" xmlns="http://www.w3.org/2000/svg" xmlns:xlink="http://www.w3.org/1999/xlink">
<g id="graph0" class="graph" transform="scale(1 1) rotate(0) translate(4 103)">
<title>G</title>
<polygon fill="#ffffff" stroke="transparent" points="-4,4 -4,-103 1607.9212,-103 1607.9212,4 -4,4"/>
<g id="clust1" class="cluster">
<title>cluster_0</title>
<polygon fill="none" stroke="#000000" stroke-dasharray="1,5" points="8,-8 8,-91 351.2168,-91 351.2168,-8 8,-8"/>
<text text-anchor="middle" x="179.6084" y="-74.4" font-family="Times,serif" font-size="14.00" fill="#000000">Thermistor Assembly</text>
</g>
<!-- Thermistor -->
<g id="node1" class="node">
<title>Thermistor</title>
<polygon fill="none" stroke="#000000" points="125.5513,-57.6019 16.1493,-57.6019 16.1493,-16.3981 125.5513,-16.3981 125.5513,-57.6019"/>
<text text-anchor="middle" x="70.8503" y="-41.2" font-family="Times,serif" font-size="14.00" fill="#000000">NTC Thermistor</text>
<text text-anchor="middle" x="70.8503" y="-24.4" font-family="Times,serif" font-size="14.00" fill="#000000">(NTCLE100E3)</text>
</g>
<!-- Linearization_Resistor -->
<g id="node2" class="node">
<title>Linearization_Resistor</title>
<polygon fill="none" stroke="#000000" points="343.2249,-57.6019 203.1925,-57.6019 203.1925,-16.3981 343.2249,-16.3981 343.2249,-57.6019"/>
<text text-anchor="middle" x="273.2087" y="-41.2" font-family="Times,serif" font-size="14.00" fill="#000000">Linearization Resistor</text>
<text text-anchor="middle" x="273.2087" y="-24.4" font-family="Times,serif" font-size="14.00" fill="#000000">(R_lin)</text>
</g>
<!-- Thermistor&#45;&gt;Linearization_Resistor -->
<g id="edge1" class="edge">
<title>Thermistor&#45;&gt;Linearization_Resistor</title>
<path fill="none" stroke="#000000" d="M125.6114,-37C146.3182,-37 170.3365,-37 192.9059,-37"/>
<polygon fill="#000000" stroke="#000000" points="193.1566,-40.5001 203.1566,-37 193.1566,-33.5001 193.1566,-40.5001"/>
<text text-anchor="middle" x="164.4506" y="-41.2" font-family="Times,serif" font-size="14.00" fill="#000000"> </text>
</g>
<!-- Excitation -->
<g id="node3" class="node">
<title>Excitation</title>
<polygon fill="none" stroke="#000000" points="498.5917,-57.6019 382.7585,-57.6019 382.7585,-16.3981 498.5917,-16.3981 498.5917,-57.6019"/>
<text text-anchor="middle" x="440.6751" y="-41.2" font-family="Times,serif" font-size="14.00" fill="#000000">Excitation Source</text>
<text text-anchor="middle" x="440.6751" y="-24.4" font-family="Times,serif" font-size="14.00" fill="#000000">(V_exc)</text>
</g>
<!-- Linearization_Resistor&#45;&gt;Excitation -->
<g id="edge2" class="edge">
<title>Linearization_Resistor&#45;&gt;Excitation</title>
<path fill="none" stroke="#000000" d="M343.2592,-37C352.8691,-37 362.7262,-37 372.3055,-37"/>
<polygon fill="#000000" stroke="#000000" points="372.5662,-40.5001 382.5661,-37 372.5661,-33.5001 372.5662,-40.5001"/>
<text text-anchor="middle" x="362.9668" y="-41.2" font-family="Times,serif" font-size="14.00" fill="#000000"> </text>
</g>
<!-- Buffer -->
<g id="node4" class="node">
<title>Buffer</title>
<polygon fill="none" stroke="#000000" points="765.3334,-57.6019 653.8572,-57.6019 653.8572,-16.3981 765.3334,-16.3981 765.3334,-57.6019"/>
<text text-anchor="middle" x="709.5953" y="-41.2" font-family="Times,serif" font-size="14.00" fill="#000000">Buffer Amplifier</text>
<text text-anchor="middle" x="709.5953" y="-24.4" font-family="Times,serif" font-size="14.00" fill="#000000">(V_out = V_in)</text>
</g>
<!-- Excitation&#45;&gt;Buffer -->
<g id="edge3" class="edge">
<title>Excitation&#45;&gt;Buffer</title>
<path fill="none" stroke="#000000" d="M498.6957,-37C541.2399,-37 599.0726,-37 643.4172,-37"/>
<polygon fill="#000000" stroke="#000000" points="643.5207,-40.5001 653.5207,-37 643.5207,-33.5001 643.5207,-40.5001"/>
<text text-anchor="middle" x="576.3049" y="-58" font-family="Times,serif" font-size="14.00" fill="#000000">V_therm </text>
<text text-anchor="middle" x="576.3049" y="-41.2" font-family="Times,serif" font-size="14.00" fill="#000000">(Thermistor Voltage)</text>
</g>
<!-- Gain_Stage -->
<g id="node5" class="node">
<title>Gain_Stage</title>
<polygon fill="none" stroke="#000000" points="949.3478,-57.6019 804.5026,-57.6019 804.5026,-16.3981 949.3478,-16.3981 949.3478,-57.6019"/>
<text text-anchor="middle" x="876.9252" y="-41.2" font-family="Times,serif" font-size="14.00" fill="#000000">Gain Stage</text>
<text text-anchor="middle" x="876.9252" y="-24.4" font-family="Times,serif" font-size="14.00" fill="#000000">(V_out = Gain * V_in)</text>
</g>
<!-- Buffer&#45;&gt;Gain_Stage -->
<g id="edge4" class="edge">
<title>Buffer&#45;&gt;Gain_Stage</title>
<path fill="none" stroke="#000000" d="M765.3137,-37C774.6277,-37 784.4638,-37 794.2811,-37"/>
<polygon fill="#000000" stroke="#000000" points="794.4823,-40.5001 804.4823,-37 794.4822,-33.5001 794.4823,-40.5001"/>
<text text-anchor="middle" x="784.9642" y="-41.2" font-family="Times,serif" font-size="14.00" fill="#000000"> </text>
</g>
<!-- Offset_Adder -->
<g id="node6" class="node">
<title>Offset_Adder</title>
<polygon fill="none" stroke="#000000" points="1155.7598,-57.6019 988.595,-57.6019 988.595,-16.3981 1155.7598,-16.3981 1155.7598,-57.6019"/>
<text text-anchor="middle" x="1072.1774" y="-41.2" font-family="Times,serif" font-size="14.00" fill="#000000">Offset Adder</text>
<text text-anchor="middle" x="1072.1774" y="-24.4" font-family="Times,serif" font-size="14.00" fill="#000000">(V_out = V_in + V_offset)</text>
</g>
<!-- Gain_Stage&#45;&gt;Offset_Adder -->
<g id="edge5" class="edge">
<title>Gain_Stage&#45;&gt;Offset_Adder</title>
<path fill="none" stroke="#000000" d="M949.3524,-37C958.7767,-37 968.5372,-37 978.2488,-37"/>
<polygon fill="#000000" stroke="#000000" points="978.3356,-40.5001 988.3355,-37 978.3355,-33.5001 978.3356,-40.5001"/>
<text text-anchor="middle" x="968.8862" y="-41.2" font-family="Times,serif" font-size="14.00" fill="#000000"> </text>
</g>
<!-- Output_Amplifier -->
<g id="node7" class="node">
<title>Output_Amplifier</title>
<polygon fill="none" stroke="#000000" points="1353.8522,-57.6019 1195.007,-57.6019 1195.007,-16.3981 1353.8522,-16.3981 1353.8522,-57.6019"/>
<text text-anchor="middle" x="1274.4296" y="-41.2" font-family="Times,serif" font-size="14.00" fill="#000000">Output Amplifier</text>
<text text-anchor="middle" x="1274.4296" y="-24.4" font-family="Times,serif" font-size="14.00" fill="#000000">(V_out = V_gain * V_in)</text>
</g>
<!-- Offset_Adder&#45;&gt;Output_Amplifier -->
<g id="edge6" class="edge">
<title>Offset_Adder&#45;&gt;Output_Amplifier</title>
<path fill="none" stroke="#000000" d="M1155.9011,-37C1165.4991,-37 1175.3129,-37 1184.9822,-37"/>
<polygon fill="#000000" stroke="#000000" points="1184.9914,-40.5001 1194.9914,-37 1184.9913,-33.5001 1184.9914,-40.5001"/>
<text text-anchor="middle" x="1175.4686" y="-41.2" font-family="Times,serif" font-size="14.00" fill="#000000"> </text>
</g>
<!-- Multimeter -->
<g id="node8" class="node">
<title>Multimeter</title>
<polygon fill="none" stroke="#000000" points="1603.9149,-55 1524.9401,-55 1524.9401,-19 1603.9149,-19 1603.9149,-55"/>
<text text-anchor="middle" x="1564.4275" y="-32.8" font-family="Times,serif" font-size="14.00" fill="#000000">Multimeter</text>
</g>
<!-- Output_Amplifier&#45;&gt;Multimeter -->
<g id="edge7" class="edge">
<title>Output_Amplifier&#45;&gt;Multimeter</title>
<path fill="none" stroke="#000000" d="M1353.6728,-37C1405.0621,-37 1470.4317,-37 1514.6391,-37"/>
<polygon fill="#000000" stroke="#000000" points="1514.8452,-40.5001 1524.8451,-37 1514.8451,-33.5001 1514.8452,-40.5001"/>
<text text-anchor="middle" x="1439.2872" y="-41.2" font-family="Times,serif" font-size="14.00" fill="#000000">Output Voltage (0&#45;20V)</text>
</g>
</g>
</svg>
