<?xml version="1.0" encoding="UTF-8" standalone="no"?>
<!DOCTYPE svg PUBLIC "-//W3C//DTD SVG 1.1//EN"
 "http://www.w3.org/Graphics/SVG/1.1/DTD/svg11.dtd">
<!-- Generated by graphviz version 2.40.1 (20161225.0304)
 -->
<!-- Title: G Pages: 1 -->
<svg width="855pt" height="44pt"
 viewBox="0.00 0.00 855.03 44.00" xmlns="http://www.w3.org/2000/svg" xmlns:xlink="http://www.w3.org/1999/xlink">
<g id="graph0" class="graph" transform="scale(1 1) rotate(0) translate(4 40)">
<title>G</title>
<polygon fill="#ffffff" stroke="transparent" points="-4,4 -4,-40 851.0317,-40 851.0317,4 -4,4"/>
<!-- Potentiometer -->
<g id="node1" class="node">
<title>Potentiometer</title>
<polygon fill="none" stroke="#000000" points="94.3111,-36 .2289,-36 .2289,0 94.3111,0 94.3111,-36"/>
<text text-anchor="middle" x="47.27" y="-13.8" font-family="Times,serif" font-size="14.00" fill="#000000">Potentiometer</text>
</g>
<!-- Buffer -->
<g id="node2" class="node">
<title>Buffer</title>
<polygon fill="none" stroke="#000000" points="184.54,-36 130.54,-36 130.54,0 184.54,0 184.54,-36"/>
<text text-anchor="middle" x="157.54" y="-13.8" font-family="Times,serif" font-size="14.00" fill="#000000">Buffer</text>
</g>
<!-- Potentiometer&#45;&gt;Buffer -->
<g id="edge1" class="edge">
<title>Potentiometer&#45;&gt;Buffer</title>
<path fill="none" stroke="#000000" d="M94.3543,-18C102.9976,-18 111.9108,-18 120.2193,-18"/>
<polygon fill="#000000" stroke="#000000" points="120.3541,-21.5001 130.3541,-18 120.3541,-14.5001 120.3541,-21.5001"/>
</g>
<!-- ScalingAmp -->
<g id="node3" class="node">
<title>ScalingAmp</title>
<polygon fill="none" stroke="#000000" points="306.5253,-36 220.5449,-36 220.5449,0 306.5253,0 306.5253,-36"/>
<text text-anchor="middle" x="263.5351" y="-13.8" font-family="Times,serif" font-size="14.00" fill="#000000">ScalingAmp</text>
</g>
<!-- Buffer&#45;&gt;ScalingAmp -->
<g id="edge2" class="edge">
<title>Buffer&#45;&gt;ScalingAmp</title>
<path fill="none" stroke="#000000" d="M184.5613,-18C192.4937,-18 201.4575,-18 210.4257,-18"/>
<polygon fill="#000000" stroke="#000000" points="210.4981,-21.5001 220.4981,-18 210.498,-14.5001 210.4981,-21.5001"/>
</g>
<!-- LowPassFilter -->
<g id="node4" class="node">
<title>LowPassFilter</title>
<polygon fill="none" stroke="#000000" points="439.3431,-36 342.5925,-36 342.5925,0 439.3431,0 439.3431,-36"/>
<text text-anchor="middle" x="390.9678" y="-13.8" font-family="Times,serif" font-size="14.00" fill="#000000">LowPassFilter</text>
</g>
<!-- ScalingAmp&#45;&gt;LowPassFilter -->
<g id="edge3" class="edge">
<title>ScalingAmp&#45;&gt;LowPassFilter</title>
<path fill="none" stroke="#000000" d="M306.678,-18C314.7887,-18 323.3976,-18 331.8958,-18"/>
<polygon fill="#000000" stroke="#000000" points="332.1659,-21.5001 342.1659,-18 332.1658,-14.5001 332.1659,-21.5001"/>
</g>
<!-- NotchFilter_50Hz -->
<g id="node5" class="node">
<title>NotchFilter_50Hz</title>
<polygon fill="none" stroke="#000000" points="593.1994,-36 475.474,-36 475.474,0 593.1994,0 593.1994,-36"/>
<text text-anchor="middle" x="534.3367" y="-13.8" font-family="Times,serif" font-size="14.00" fill="#000000">NotchFilter_50Hz</text>
</g>
<!-- LowPassFilter&#45;&gt;NotchFilter_50Hz -->
<g id="edge4" class="edge">
<title>LowPassFilter&#45;&gt;NotchFilter_50Hz</title>
<path fill="none" stroke="#000000" d="M439.506,-18C447.797,-18 456.5509,-18 465.2535,-18"/>
<polygon fill="#000000" stroke="#000000" points="465.4154,-21.5001 475.4154,-18 465.4153,-14.5001 465.4154,-21.5001"/>
</g>
<!-- NotchFilter_60Hz -->
<g id="node6" class="node">
<title>NotchFilter_60Hz</title>
<polygon fill="none" stroke="#000000" points="747.062,-36 629.3366,-36 629.3366,0 747.062,0 747.062,-36"/>
<text text-anchor="middle" x="688.1993" y="-13.8" font-family="Times,serif" font-size="14.00" fill="#000000">NotchFilter_60Hz</text>
</g>
<!-- NotchFilter_50Hz&#45;&gt;NotchFilter_60Hz -->
<g id="edge5" class="edge">
<title>NotchFilter_50Hz&#45;&gt;NotchFilter_60Hz</title>
<path fill="none" stroke="#000000" d="M593.384,-18C601.8506,-18 610.6233,-18 619.2601,-18"/>
<polygon fill="#000000" stroke="#000000" points="619.3101,-21.5001 629.31,-18 619.31,-14.5001 619.3101,-21.5001"/>
</g>
<!-- DAQ -->
<g id="node7" class="node">
<title>DAQ</title>
<ellipse fill="none" stroke="#000000" cx="815.0812" cy="-18" rx="31.9012" ry="18"/>
<text text-anchor="middle" x="815.0812" y="-13.8" font-family="Times,serif" font-size="14.00" fill="#000000">DAQ</text>
</g>
<!-- NotchFilter_60Hz&#45;&gt;DAQ -->
<g id="edge6" class="edge">
<title>NotchFilter_60Hz&#45;&gt;DAQ</title>
<path fill="none" stroke="#000000" d="M747.1828,-18C755.8284,-18 764.585,-18 772.8059,-18"/>
<polygon fill="#000000" stroke="#000000" points="772.8841,-21.5001 782.8841,-18 772.8841,-14.5001 772.8841,-21.5001"/>
</g>
</g>
</svg>
