<?xml version="1.0" encoding="UTF-8" standalone="no"?>
<!DOCTYPE svg PUBLIC "-//W3C//DTD SVG 1.1//EN"
 "http://www.w3.org/Graphics/SVG/1.1/DTD/svg11.dtd">
<!-- Generated by graphviz version 2.40.1 (20161225.0304)
 -->
<!-- Title: G Pages: 1 -->
<svg width="905pt" height="110pt"
 viewBox="0.00 0.00 904.58 109.60" xmlns="http://www.w3.org/2000/svg" xmlns:xlink="http://www.w3.org/1999/xlink">
<g id="graph0" class="graph" transform="scale(1 1) rotate(0) translate(4 105.6)">
<title>G</title>
<polygon fill="#ffffff" stroke="transparent" points="-4,4 -4,-105.6 900.5796,-105.6 900.5796,4 -4,4"/>
<!-- Pressure_Sensor_Array -->
<g id="node1" class="node">
<title>Pressure_Sensor_Array</title>
<polygon fill="none" stroke="#000000" points="180.0279,-98.8 12.0515,-98.8 12.0515,-62.8 180.0279,-62.8 180.0279,-98.8"/>
<text text-anchor="middle" x="96.0397" y="-76.6" font-family="Times,serif" font-size="14.00" fill="#000000">Pressure Sensor Array (x8)</text>
</g>
<!-- Instrumentation_Amplifier_Pressure -->
<g id="node3" class="node">
<title>Instrumentation_Amplifier_Pressure</title>
<polygon fill="none" stroke="#000000" points="391.609,-101.4019 227.9026,-101.4019 227.9026,-60.1981 391.609,-60.1981 391.609,-101.4019"/>
<text text-anchor="middle" x="309.7558" y="-85" font-family="Times,serif" font-size="14.00" fill="#000000">Instrumentation Amplifier</text>
<text text-anchor="middle" x="309.7558" y="-68.2" font-family="Times,serif" font-size="14.00" fill="#000000">(Pressure)</text>
</g>
<!-- Pressure_Sensor_Array&#45;&gt;Instrumentation_Amplifier_Pressure -->
<g id="edge1" class="edge">
<title>Pressure_Sensor_Array&#45;&gt;Instrumentation_Amplifier_Pressure</title>
<path fill="none" stroke="#000000" d="M180.1992,-80.8C192.4275,-80.8 205.0717,-80.8 217.4503,-80.8"/>
<polygon fill="#000000" stroke="#000000" points="217.771,-84.3001 227.771,-80.8 217.771,-77.3001 217.771,-84.3001"/>
</g>
<!-- Temp_Sensor_Array -->
<g id="node2" class="node">
<title>Temp_Sensor_Array</title>
<polygon fill="none" stroke="#000000" points="192.1191,-38.8 -.0397,-38.8 -.0397,-2.8 192.1191,-2.8 192.1191,-38.8"/>
<text text-anchor="middle" x="96.0397" y="-16.6" font-family="Times,serif" font-size="14.00" fill="#000000">Temperature Sensor Array (x8)</text>
</g>
<!-- Instrumentation_Amplifier_Temp -->
<g id="node4" class="node">
<title>Instrumentation_Amplifier_Temp</title>
<polygon fill="none" stroke="#000000" points="391.609,-41.4019 227.9026,-41.4019 227.9026,-.1981 391.609,-.1981 391.609,-41.4019"/>
<text text-anchor="middle" x="309.7558" y="-25" font-family="Times,serif" font-size="14.00" fill="#000000">Instrumentation Amplifier</text>
<text text-anchor="middle" x="309.7558" y="-8.2" font-family="Times,serif" font-size="14.00" fill="#000000">(Temperature)</text>
</g>
<!-- Temp_Sensor_Array&#45;&gt;Instrumentation_Amplifier_Temp -->
<g id="edge2" class="edge">
<title>Temp_Sensor_Array&#45;&gt;Instrumentation_Amplifier_Temp</title>
<path fill="none" stroke="#000000" d="M192.2693,-20.8C200.6974,-20.8 209.2144,-20.8 217.6081,-20.8"/>
<polygon fill="#000000" stroke="#000000" points="217.771,-24.3001 227.771,-20.8 217.771,-17.3001 217.771,-24.3001"/>
</g>
<!-- Multiplexer -->
<g id="node5" class="node">
<title>Multiplexer</title>
<polygon fill="none" stroke="#000000" points="547.1453,-68.8 427.5277,-68.8 427.5277,-32.8 547.1453,-32.8 547.1453,-68.8"/>
<text text-anchor="middle" x="487.3365" y="-46.6" font-family="Times,serif" font-size="14.00" fill="#000000">8&#45;to&#45;1 Multiplexer</text>
</g>
<!-- Instrumentation_Amplifier_Pressure&#45;&gt;Multiplexer -->
<g id="edge3" class="edge">
<title>Instrumentation_Amplifier_Pressure&#45;&gt;Multiplexer</title>
<path fill="none" stroke="#000000" d="M391.5292,-66.9854C400.2309,-65.5154 409.0231,-64.0301 417.5686,-62.5864"/>
<polygon fill="#000000" stroke="#000000" points="418.1895,-66.0312 427.4667,-60.9142 417.0234,-59.129 418.1895,-66.0312"/>
</g>
<!-- Instrumentation_Amplifier_Temp&#45;&gt;Multiplexer -->
<g id="edge4" class="edge">
<title>Instrumentation_Amplifier_Temp&#45;&gt;Multiplexer</title>
<path fill="none" stroke="#000000" d="M391.5292,-34.6146C400.2309,-36.0846 409.0231,-37.5699 417.5686,-39.0136"/>
<polygon fill="#000000" stroke="#000000" points="417.0234,-42.471 427.4667,-40.6858 418.1895,-35.5688 417.0234,-42.471"/>
</g>
<!-- Low_Pass_Filter -->
<g id="node6" class="node">
<title>Low_Pass_Filter</title>
<polygon fill="none" stroke="#000000" points="687.0537,-68.8 583.3031,-68.8 583.3031,-32.8 687.0537,-32.8 687.0537,-68.8"/>
<text text-anchor="middle" x="635.1784" y="-46.6" font-family="Times,serif" font-size="14.00" fill="#000000">Low Pass Filter</text>
</g>
<!-- Multiplexer&#45;&gt;Low_Pass_Filter -->
<g id="edge5" class="edge">
<title>Multiplexer&#45;&gt;Low_Pass_Filter</title>
<path fill="none" stroke="#000000" d="M547.4695,-50.8C555.881,-50.8 564.5394,-50.8 572.9881,-50.8"/>
<polygon fill="#000000" stroke="#000000" points="573.1589,-54.3001 583.1588,-50.8 573.1588,-47.3001 573.1589,-54.3001"/>
</g>
<!-- ADC -->
<g id="node7" class="node">
<title>ADC</title>
<polygon fill="none" stroke="#000000" points="896.812,-68.8 722.8836,-68.8 722.8836,-32.8 896.812,-32.8 896.812,-68.8"/>
<text text-anchor="middle" x="809.8478" y="-46.6" font-family="Times,serif" font-size="14.00" fill="#000000">Analog to Digital Converter</text>
</g>
<!-- Low_Pass_Filter&#45;&gt;ADC -->
<g id="edge6" class="edge">
<title>Low_Pass_Filter&#45;&gt;ADC</title>
<path fill="none" stroke="#000000" d="M687.1121,-50.8C695.3684,-50.8 704.1328,-50.8 713.03,-50.8"/>
<polygon fill="#000000" stroke="#000000" points="713.1118,-54.3001 723.1118,-50.8 713.1117,-47.3001 713.1118,-54.3001"/>
</g>
</g>
</svg>
