<?xml version="1.0" encoding="UTF-8" standalone="no"?>
<!DOCTYPE svg PUBLIC "-//W3C//DTD SVG 1.1//EN"
 "http://www.w3.org/Graphics/SVG/1.1/DTD/svg11.dtd">
<!-- Generated by graphviz version 2.40.1 (20161225.0304)
 -->
<!-- Title: G Pages: 1 -->
<svg width="887pt" height="101pt"
 viewBox="0.00 0.00 886.87 101.00" xmlns="http://www.w3.org/2000/svg" xmlns:xlink="http://www.w3.org/1999/xlink">
<g id="graph0" class="graph" transform="scale(1 1) rotate(0) translate(4 97)">
<title>G</title>
<polygon fill="#ffffff" stroke="transparent" points="-4,4 -4,-97 882.867,-97 882.867,4 -4,4"/>
<g id="clust1" class="cluster">
<title>cluster_0</title>
<polygon fill="none" stroke="#000000" points="8,-8 8,-85 557.5486,-85 557.5486,-8 8,-8"/>
<text text-anchor="middle" x="282.7743" y="-68.4" font-family="Times,serif" font-size="14.00" fill="#000000">Analog Front End</text>
</g>
<!-- Accelerometer -->
<g id="node1" class="node">
<title>Accelerometer</title>
<polygon fill="none" stroke="#000000" points="114.5816,-52 15.8056,-52 15.8056,-16 114.5816,-16 114.5816,-52"/>
<text text-anchor="middle" x="65.1936" y="-29.8" font-family="Times,serif" font-size="14.00" fill="#000000">Accelerometer</text>
</g>
<!-- ChargeAmplifier -->
<g id="node2" class="node">
<title>ChargeAmplifier</title>
<polygon fill="none" stroke="#000000" points="261.8346,-52 150.571,-52 150.571,-16 261.8346,-16 261.8346,-52"/>
<text text-anchor="middle" x="206.2028" y="-29.8" font-family="Times,serif" font-size="14.00" fill="#000000">ChargeAmplifier</text>
</g>
<!-- Accelerometer&#45;&gt;ChargeAmplifier -->
<g id="edge1" class="edge">
<title>Accelerometer&#45;&gt;ChargeAmplifier</title>
<path fill="none" stroke="#000000" d="M114.5118,-34C122.8459,-34 131.6154,-34 140.2918,-34"/>
<polygon fill="#000000" stroke="#000000" points="140.4027,-37.5001 150.4026,-34 140.4026,-30.5001 140.4027,-37.5001"/>
</g>
<!-- LowPassFilter -->
<g id="node3" class="node">
<title>LowPassFilter</title>
<polygon fill="none" stroke="#000000" points="394.8313,-52 298.0807,-52 298.0807,-16 394.8313,-16 394.8313,-52"/>
<text text-anchor="middle" x="346.456" y="-29.8" font-family="Times,serif" font-size="14.00" fill="#000000">LowPassFilter</text>
</g>
<!-- ChargeAmplifier&#45;&gt;LowPassFilter -->
<g id="edge2" class="edge">
<title>ChargeAmplifier&#45;&gt;LowPassFilter</title>
<path fill="none" stroke="#000000" d="M262.0376,-34C270.5098,-34 279.2727,-34 287.8027,-34"/>
<polygon fill="#000000" stroke="#000000" points="288.0569,-37.5001 298.0569,-34 288.0568,-30.5001 288.0569,-37.5001"/>
</g>
<!-- AntiAliasingFilter -->
<g id="node4" class="node">
<title>AntiAliasingFilter</title>
<polygon fill="none" stroke="#000000" points="549.3766,-52 431.0656,-52 431.0656,-16 549.3766,-16 549.3766,-52"/>
<text text-anchor="middle" x="490.2211" y="-29.8" font-family="Times,serif" font-size="14.00" fill="#000000">AntiAliasingFilter</text>
</g>
<!-- LowPassFilter&#45;&gt;AntiAliasingFilter -->
<g id="edge3" class="edge">
<title>LowPassFilter&#45;&gt;AntiAliasingFilter</title>
<path fill="none" stroke="#000000" d="M395.1283,-34C403.3837,-34 412.0967,-34 420.7626,-34"/>
<polygon fill="#000000" stroke="#000000" points="420.8839,-37.5001 430.8839,-34 420.8838,-30.5001 420.8839,-37.5001"/>
</g>
<!-- ADC -->
<g id="node5" class="node">
<title>ADC</title>
<polygon fill="none" stroke="#000000" points="639.5486,-52 585.5486,-52 585.5486,-16 639.5486,-16 639.5486,-52"/>
<text text-anchor="middle" x="612.5486" y="-29.8" font-family="Times,serif" font-size="14.00" fill="#000000">ADC</text>
</g>
<!-- AntiAliasingFilter&#45;&gt;ADC -->
<g id="edge4" class="edge">
<title>AntiAliasingFilter&#45;&gt;ADC</title>
<path fill="none" stroke="#000000" d="M549.5932,-34C558.3124,-34 567.0801,-34 575.1869,-34"/>
<polygon fill="#000000" stroke="#000000" points="575.4038,-37.5001 585.4037,-34 575.4037,-30.5001 575.4038,-37.5001"/>
</g>
<!-- SignalProcessing -->
<g id="node6" class="node">
<title>SignalProcessing</title>
<polygon fill="none" stroke="#000000" points="788.1953,-52 675.3325,-52 675.3325,-16 788.1953,-16 788.1953,-52"/>
<text text-anchor="middle" x="731.7639" y="-29.8" font-family="Times,serif" font-size="14.00" fill="#000000">SignalProcessing</text>
</g>
<!-- ADC&#45;&gt;SignalProcessing -->
<g id="edge5" class="edge">
<title>ADC&#45;&gt;SignalProcessing</title>
<path fill="none" stroke="#000000" d="M639.6004,-34C647.2871,-34 656.0157,-34 664.9637,-34"/>
<polygon fill="#000000" stroke="#000000" points="665.1158,-37.5001 675.1157,-34 665.1157,-30.5001 665.1158,-37.5001"/>
</g>
<!-- Output -->
<g id="node7" class="node">
<title>Output</title>
<polygon fill="none" stroke="#000000" points="878.811,-52 824.0352,-52 824.0352,-16 878.811,-16 878.811,-52"/>
<text text-anchor="middle" x="851.4231" y="-29.8" font-family="Times,serif" font-size="14.00" fill="#000000">Output</text>
</g>
<!-- SignalProcessing&#45;&gt;Output -->
<g id="edge6" class="edge">
<title>SignalProcessing&#45;&gt;Output</title>
<path fill="none" stroke="#000000" d="M788.0896,-34C796.8696,-34 805.7506,-34 813.9727,-34"/>
<polygon fill="#000000" stroke="#000000" points="813.9779,-37.5001 823.9779,-34 813.9779,-30.5001 813.9779,-37.5001"/>
</g>
</g>
</svg>
