<?xml version="1.0" encoding="UTF-8" standalone="no"?>
<!DOCTYPE svg PUBLIC "-//W3C//DTD SVG 1.1//EN"
 "http://www.w3.org/Graphics/SVG/1.1/DTD/svg11.dtd">
<!-- Generated by graphviz version 2.40.1 (20161225.0304)
 -->
<!-- Title: G Pages: 1 -->
<svg width="1490pt" height="198pt"
 viewBox="0.00 0.00 1489.87 198.00" xmlns="http://www.w3.org/2000/svg" xmlns:xlink="http://www.w3.org/1999/xlink">
<g id="graph0" class="graph" transform="scale(1 1) rotate(0) translate(4 194)">
<title>G</title>
<polygon fill="#ffffff" stroke="transparent" points="-4,4 -4,-194 1485.8716,-194 1485.8716,4 -4,4"/>
<g id="clust3" class="cluster">
<title>cluster_2</title>
<polygon fill="none" stroke="#000000" points="1132.1162,-53 1132.1162,-136 1473.8716,-136 1473.8716,-53 1132.1162,-53"/>
<text text-anchor="middle" x="1302.9939" y="-119.4" font-family="Times,serif" font-size="14.00" fill="#000000">Data Processing and Interface</text>
</g>
<g id="clust2" class="cluster">
<title>cluster_1</title>
<polygon fill="none" stroke="#000000" points="8,-8 8,-91 1112.1162,-91 1112.1162,-8 8,-8"/>
<text text-anchor="middle" x="560.0581" y="-74.4" font-family="Times,serif" font-size="14.00" fill="#000000">Temperature Signal Path</text>
</g>
<g id="clust1" class="cluster">
<title>cluster_0</title>
<polygon fill="none" stroke="#000000" points="236.0794,-99 236.0794,-182 1112.1162,-182 1112.1162,-99 236.0794,-99"/>
<text text-anchor="middle" x="674.0978" y="-165.4" font-family="Times,serif" font-size="14.00" fill="#000000">Pressure Signal Path</text>
</g>
<!-- PressureSensorArray -->
<g id="node1" class="node">
<title>PressureSensorArray</title>
<polygon fill="none" stroke="#000000" points="412.0617,-146 244.0853,-146 244.0853,-110 412.0617,-110 412.0617,-146"/>
<text text-anchor="middle" x="328.0735" y="-123.8" font-family="Times,serif" font-size="14.00" fill="#000000">Pressure Sensor Array (x8)</text>
</g>
<!-- MultiplexerPressure -->
<g id="node2" class="node">
<title>MultiplexerPressure</title>
<polygon fill="none" stroke="#000000" points="581.7326,-146 477.7554,-146 477.7554,-110 581.7326,-110 581.7326,-146"/>
<text text-anchor="middle" x="529.744" y="-123.8" font-family="Times,serif" font-size="14.00" fill="#000000">8:1 Multiplexer</text>
</g>
<!-- PressureSensorArray&#45;&gt;MultiplexerPressure -->
<g id="edge1" class="edge">
<title>PressureSensorArray&#45;&gt;MultiplexerPressure</title>
<path fill="none" stroke="#000000" d="M412.1396,-128C430.751,-128 450.1466,-128 467.6936,-128"/>
<polygon fill="#000000" stroke="#000000" points="467.7915,-131.5001 477.7914,-128 467.7914,-124.5001 467.7915,-131.5001"/>
</g>
<!-- AmplifierPressure -->
<g id="node3" class="node">
<title>AmplifierPressure</title>
<polygon fill="none" stroke="#000000" points="810.95,-146 647.2436,-146 647.2436,-110 810.95,-110 810.95,-146"/>
<text text-anchor="middle" x="729.0968" y="-123.8" font-family="Times,serif" font-size="14.00" fill="#000000">Instrumentation Amplifier</text>
</g>
<!-- MultiplexerPressure&#45;&gt;AmplifierPressure -->
<g id="edge2" class="edge">
<title>MultiplexerPressure&#45;&gt;AmplifierPressure</title>
<path fill="none" stroke="#000000" d="M581.6012,-128C598.6168,-128 618.0688,-128 637.1416,-128"/>
<polygon fill="#000000" stroke="#000000" points="637.372,-131.5001 647.372,-128 637.372,-124.5001 637.372,-131.5001"/>
</g>
<!-- FilterPressure -->
<g id="node4" class="node">
<title>FilterPressure</title>
<polygon fill="none" stroke="#000000" points="951.8269,-148.6019 846.7553,-148.6019 846.7553,-107.3981 951.8269,-107.3981 951.8269,-148.6019"/>
<text text-anchor="middle" x="899.2911" y="-132.2" font-family="Times,serif" font-size="14.00" fill="#000000">Low&#45;Pass Filter</text>
<text text-anchor="middle" x="899.2911" y="-115.4" font-family="Times,serif" font-size="14.00" fill="#000000">(&lt;400 Hz)</text>
</g>
<!-- AmplifierPressure&#45;&gt;FilterPressure -->
<g id="edge3" class="edge">
<title>AmplifierPressure&#45;&gt;FilterPressure</title>
<path fill="none" stroke="#000000" d="M811.2028,-128C819.6899,-128 828.2167,-128 836.445,-128"/>
<polygon fill="#000000" stroke="#000000" points="836.6824,-131.5001 846.6824,-128 836.6823,-124.5001 836.6824,-131.5001"/>
</g>
<!-- ADCPressure -->
<g id="node5" class="node">
<title>ADCPressure</title>
<polygon fill="none" stroke="#000000" points="1104.2702,-148.6019 987.655,-148.6019 987.655,-107.3981 1104.2702,-107.3981 1104.2702,-148.6019"/>
<text text-anchor="middle" x="1045.9626" y="-132.2" font-family="Times,serif" font-size="14.00" fill="#000000">Analog&#45;to&#45;Digital</text>
<text text-anchor="middle" x="1045.9626" y="-115.4" font-family="Times,serif" font-size="14.00" fill="#000000">Converter (ADC)</text>
</g>
<!-- FilterPressure&#45;&gt;ADCPressure -->
<g id="edge4" class="edge">
<title>FilterPressure&#45;&gt;ADCPressure</title>
<path fill="none" stroke="#000000" d="M951.8286,-128C960.1589,-128 968.8796,-128 977.5097,-128"/>
<polygon fill="#000000" stroke="#000000" points="977.5703,-131.5001 987.5702,-128 977.5702,-124.5001 977.5703,-131.5001"/>
</g>
<!-- Microcontroller -->
<g id="node12" class="node">
<title>Microcontroller</title>
<polygon fill="none" stroke="#000000" points="1325.9575,-102.6019 1140.1691,-102.6019 1140.1691,-61.3981 1325.9575,-61.3981 1325.9575,-102.6019"/>
<text text-anchor="middle" x="1233.0633" y="-86.2" font-family="Times,serif" font-size="14.00" fill="#000000">Microcontroller</text>
<text text-anchor="middle" x="1233.0633" y="-69.4" font-family="Times,serif" font-size="14.00" fill="#000000">(Data Aggregation &amp; Control)</text>
</g>
<!-- ADCPressure&#45;&gt;Microcontroller -->
<g id="edge10" class="edge">
<title>ADCPressure&#45;&gt;Microcontroller</title>
<path fill="none" stroke="#000000" d="M1104.1368,-113.6975C1115.2832,-110.9571 1127.2153,-108.0235 1139.1552,-105.088"/>
<polygon fill="#000000" stroke="#000000" points="1140.2942,-108.4122 1149.1694,-102.6259 1138.623,-101.6146 1140.2942,-108.4122"/>
</g>
<!-- TemperatureSensorArray -->
<g id="node6" class="node">
<title>TemperatureSensorArray</title>
<polygon fill="none" stroke="#000000" points="208.1191,-55 15.9603,-55 15.9603,-19 208.1191,-19 208.1191,-55"/>
<text text-anchor="middle" x="112.0397" y="-32.8" font-family="Times,serif" font-size="14.00" fill="#000000">Temperature Sensor Array (x8)</text>
</g>
<!-- MultiplexerTemperature -->
<g id="node7" class="node">
<title>MultiplexerTemperature</title>
<polygon fill="none" stroke="#000000" points="380.0621,-55 276.0849,-55 276.0849,-19 380.0621,-19 380.0621,-55"/>
<text text-anchor="middle" x="328.0735" y="-32.8" font-family="Times,serif" font-size="14.00" fill="#000000">8:1 Multiplexer</text>
</g>
<!-- TemperatureSensorArray&#45;&gt;MultiplexerTemperature -->
<g id="edge5" class="edge">
<title>TemperatureSensorArray&#45;&gt;MultiplexerTemperature</title>
<path fill="none" stroke="#000000" d="M208.3681,-37C227.929,-37 248.0073,-37 265.9964,-37"/>
<polygon fill="#000000" stroke="#000000" points="266.0419,-40.5001 276.0418,-37 266.0418,-33.5001 266.0419,-40.5001"/>
</g>
<!-- AmplifierTemperature -->
<g id="node8" class="node">
<title>AmplifierTemperature</title>
<polygon fill="none" stroke="#000000" points="611.5972,-55 447.8908,-55 447.8908,-19 611.5972,-19 611.5972,-55"/>
<text text-anchor="middle" x="529.744" y="-32.8" font-family="Times,serif" font-size="14.00" fill="#000000">Instrumentation Amplifier</text>
</g>
<!-- MultiplexerTemperature&#45;&gt;AmplifierTemperature -->
<g id="edge6" class="edge">
<title>MultiplexerTemperature&#45;&gt;AmplifierTemperature</title>
<path fill="none" stroke="#000000" d="M380.0087,-37C397.6801,-37 417.9953,-37 437.845,-37"/>
<polygon fill="#000000" stroke="#000000" points="437.8509,-40.5001 447.8509,-37 437.8509,-33.5001 437.8509,-40.5001"/>
</g>
<!-- Linearization -->
<g id="node9" class="node">
<title>Linearization</title>
<polygon fill="none" stroke="#000000" points="795.6144,-55 662.5792,-55 662.5792,-19 795.6144,-19 795.6144,-55"/>
<text text-anchor="middle" x="729.0968" y="-32.8" font-family="Times,serif" font-size="14.00" fill="#000000">Linearization Circuit</text>
</g>
<!-- AmplifierTemperature&#45;&gt;Linearization -->
<g id="edge7" class="edge">
<title>AmplifierTemperature&#45;&gt;Linearization</title>
<path fill="none" stroke="#000000" d="M611.6914,-37C625.1271,-37 639.0067,-37 652.3112,-37"/>
<polygon fill="#000000" stroke="#000000" points="652.3563,-40.5001 662.3563,-37 652.3562,-33.5001 652.3563,-40.5001"/>
</g>
<!-- FilterTemperature -->
<g id="node10" class="node">
<title>FilterTemperature</title>
<polygon fill="none" stroke="#000000" points="951.8269,-57.6019 846.7553,-57.6019 846.7553,-16.3981 951.8269,-16.3981 951.8269,-57.6019"/>
<text text-anchor="middle" x="899.2911" y="-41.2" font-family="Times,serif" font-size="14.00" fill="#000000">Low&#45;Pass Filter</text>
<text text-anchor="middle" x="899.2911" y="-24.4" font-family="Times,serif" font-size="14.00" fill="#000000">(&lt;400 Hz)</text>
</g>
<!-- Linearization&#45;&gt;FilterTemperature -->
<g id="edge8" class="edge">
<title>Linearization&#45;&gt;FilterTemperature</title>
<path fill="none" stroke="#000000" d="M795.8736,-37C809.174,-37 823.1012,-37 836.2706,-37"/>
<polygon fill="#000000" stroke="#000000" points="836.6434,-40.5001 846.6433,-37 836.6433,-33.5001 836.6434,-40.5001"/>
</g>
<!-- ADCTemperature -->
<g id="node11" class="node">
<title>ADCTemperature</title>
<polygon fill="none" stroke="#000000" points="1104.2702,-57.6019 987.655,-57.6019 987.655,-16.3981 1104.2702,-16.3981 1104.2702,-57.6019"/>
<text text-anchor="middle" x="1045.9626" y="-41.2" font-family="Times,serif" font-size="14.00" fill="#000000">Analog&#45;to&#45;Digital</text>
<text text-anchor="middle" x="1045.9626" y="-24.4" font-family="Times,serif" font-size="14.00" fill="#000000">Converter (ADC)</text>
</g>
<!-- FilterTemperature&#45;&gt;ADCTemperature -->
<g id="edge9" class="edge">
<title>FilterTemperature&#45;&gt;ADCTemperature</title>
<path fill="none" stroke="#000000" d="M951.8286,-37C960.1589,-37 968.8796,-37 977.5097,-37"/>
<polygon fill="#000000" stroke="#000000" points="977.5703,-40.5001 987.5702,-37 977.5702,-33.5001 977.5703,-40.5001"/>
</g>
<!-- ADCTemperature&#45;&gt;Microcontroller -->
<g id="edge11" class="edge">
<title>ADCTemperature&#45;&gt;Microcontroller</title>
<path fill="none" stroke="#000000" d="M1104.1368,-50.9916C1114.6739,-53.5259 1125.9132,-56.2291 1137.1974,-58.9431"/>
<polygon fill="#000000" stroke="#000000" points="1136.5677,-62.3914 1147.1089,-61.3269 1138.2046,-55.5854 1136.5677,-62.3914"/>
</g>
<!-- DataInterface -->
<g id="node13" class="node">
<title>DataInterface</title>
<polygon fill="none" stroke="#000000" points="1465.8023,-102.6019 1362.0797,-102.6019 1362.0797,-61.3981 1465.8023,-61.3981 1465.8023,-102.6019"/>
<text text-anchor="middle" x="1413.941" y="-86.2" font-family="Times,serif" font-size="14.00" fill="#000000">Data Interface</text>
<text text-anchor="middle" x="1413.941" y="-69.4" font-family="Times,serif" font-size="14.00" fill="#000000">(USB/Ethernet)</text>
</g>
<!-- Microcontroller&#45;&gt;DataInterface -->
<g id="edge12" class="edge">
<title>Microcontroller&#45;&gt;DataInterface</title>
<path fill="none" stroke="#000000" d="M1326.1514,-82C1334.794,-82 1343.4043,-82 1351.6662,-82"/>
<polygon fill="#000000" stroke="#000000" points="1351.9213,-85.5001 1361.9213,-82 1351.9212,-78.5001 1351.9213,-85.5001"/>
</g>
</g>
</svg>
